<?xml version="1.0" encoding="UTF-8" standalone="no"?>
<!-- Created with Inkscape (http://www.inkscape.org/) -->

<svg
   xmlns:dc="http://purl.org/dc/elements/1.1/"
   xmlns:cc="http://creativecommons.org/ns#"
   xmlns:rdf="http://www.w3.org/1999/02/22-rdf-syntax-ns#"
   xmlns:svg="http://www.w3.org/2000/svg"
   xmlns="http://www.w3.org/2000/svg"
   xmlns:sodipodi="http://sodipodi.sourceforge.net/DTD/sodipodi-0.dtd"
   xmlns:inkscape="http://www.inkscape.org/namespaces/inkscape"
   width="345.60208"
   height="319.19449"
   id="svg1027"
   version="1.1"
   inkscape:version="0.48+devel r"
   sodipodi:docname="circular_helix.svg">
  <defs
     id="defs1029">
    <inkscape:path-effect
       fuse_tolerance="0"
       vertical_pattern="false"
       prop_units="false"
       tang_offset="0"
       normal_offset="0"
       spacing="0"
       scale_y_rel="false"
       prop_scale="1"
       copytype="single_stretched"
       pattern="m 704.35132,752.01973 c -7.77241,0.72284 -15.55676,3.19521 -23.3477,3.53096 -7.79095,0.33575 -15.58849,-1.46512 -23.38728,-1.28878 -7.7988,0.17634 -15.59884,-1.67011 -23.39479,-1.4255 -7.79596,0.24461 -15.58781,2.58027 -23.37023,3.12082 -2.1523,-1.15612 -2.01174,3.78271 0.0625,2.4375 7.71127,-0.37053 15.4323,-2.53042 23.15668,-2.61261 7.72438,-0.0822 15.45212,1.91333 23.1768,1.8536 7.72469,-0.0597 16.17001,0.49508 23.88219,0.19194 7.71218,-0.30315 14.69121,-1.46424 22.37808,-2.27668 1.40356,-0.22689 4.29984,-1.54077 3.09375,-3.21875 C 705.94054,751.90361 705.09715,751.99289 704.35132,752.01973 Z"
       is_visible="true"
       id="path-effect1807"
       effect="skeletal" />
    <inkscape:path-effect
       crossing_points_vector="459.97497 | 818.60181 | 0 | 0 | 0 | 1 | 1.0771975 | 4.6916763 | -1 | 460.35926 | 724.95581 | 0 | 0 | 2 | 3 | 5.3807271 | 8.6664383 | -1 | 462.04462 | 633.81573 | 0 | 0 | 4 | 5 | 9.3641674 | 13.055753 | -1"
       switcher_size="15"
       add_other_stroke_width="true"
       add_stroke_width="true"
       prop_to_stroke_width="true"
       interruption_width="10"
       is_visible="true"
       id="path-effect1805"
       effect="knot" />
    <inkscape:path-effect
       fuse_tolerance="0"
       vertical_pattern="false"
       prop_units="false"
       tang_offset="0"
       normal_offset="0"
       spacing="0"
       scale_y_rel="false"
       prop_scale="1"
       copytype="single_stretched"
       pattern="m 571.85786,505.24531 c -7.77241,0.72284 -15.55676,3.19521 -23.3477,3.53096 -7.79095,0.33575 -15.58849,-1.46512 -23.38728,-1.28878 -7.7988,0.17634 -15.59884,-1.67011 -23.39479,-1.4255 -7.79596,0.24461 -15.58781,2.58027 -23.37023,3.12082 -2.1523,-1.15612 -2.01174,3.78271 0.0625,2.4375 7.71127,-0.37053 15.4323,-2.53042 23.15668,-2.61261 7.72438,-0.0822 15.45212,1.91333 23.1768,1.8536 7.72469,-0.0597 16.17001,0.49508 23.88219,0.19194 7.71218,-0.30315 14.69121,-1.46424 22.37808,-2.27668 1.40356,-0.22689 4.29984,-1.54077 3.09375,-3.21875 C 573.44708,505.12919 572.60369,505.21847 571.85786,505.24531 Z"
       is_visible="true"
       id="path-effect1792"
       effect="skeletal" />
    <inkscape:path-effect
       crossing_points_vector="327.48151 | 571.82739 | 0 | 0 | 0 | 1 | 1.0771975 | 4.6916763 | -1 | 327.8658 | 478.18139 | 0 | 0 | 2 | 3 | 5.3807271 | 8.6664383 | -1 | 329.55116 | 387.04131 | 0 | 0 | 4 | 5 | 9.3641674 | 13.055753 | -1 | 356.87447 | 344.22235 | 0 | 0 | 0 | 0 | 13.999839 | 14 | -1 | 356.87447 | 344.22235 | 0 | 0 | 0 | 7 | 13.999839 | 14 | -1 | 356.87447 | 344.22235 | 0 | 0 | 0 | 0 | 13.999839 | 14 | -1 | 356.87447 | 344.22235 | 0 | 0 | 0 | 0 | 13.999839 | 14 | -1 | 356.87447 | 344.22235 | 0 | 0 | 0 | 0 | 13.999839 | 14 | -1 | 356.87447 | 344.22235 | 0 | 0 | 0 | 0 | 13.999839 | 14 | -1 | 356.87447 | 344.22235 | 0 | 0 | 0 | 0 | 13.999839 | 14 | -1 | 356.87447 | 344.22235 | 0 | 0 | 0 | 0 | 13.999839 | 14 | -1 | 356.87447 | 344.22235 | 0 | 0 | 0 | 0 | 13.999839 | 14 | -1 | 356.87447 | 344.22235 | 0 | 0 | 0 | 8 | 13.999839 | 14 | -1 | 356.87447 | 344.22235 | 0 | 0 | 0 | 0 | 13.999839 | 14 | -1 | 356.87447 | 344.22235 | 0 | 0 | 0 | 0 | 13.999839 | 14 | -1 | 356.87447 | 344.22235 | 0 | 0 | 0 | 0 | 13.999839 | 14 | -1 | 356.87447 | 344.22235 | 0 | 0 | 0 | 0 | 13.999839 | 14 | -1 | 356.87447 | 344.22235 | 0 | 0 | 0 | 0 | 13.999839 | 14 | -1 | 356.87447 | 344.22235 | 0 | 0 | 0 | 0 | 13.999839 | 14 | -1 | 356.87447 | 344.22235 | 0 | 0 | 0 | 0 | 13.999839 | 14 | -1 | 356.87447 | 344.22235 | 0 | 0 | 0 | 0 | 13.999839 | 14 | -1 | 356.87447 | 344.22235 | 0 | 0 | 0 | 9 | 13.999839 | 14 | -1 | 356.87447 | 344.22235 | 0 | 0 | 0 | 0 | 13.999839 | 14 | -1 | 356.87447 | 344.22235 | 0 | 0 | 0 | 0 | 13.999839 | 14 | -1 | 356.87447 | 344.22235 | 0 | 0 | 0 | 0 | 13.999839 | 14 | -1 | 356.87447 | 344.22235 | 0 | 0 | 0 | 0 | 13.999839 | 14 | -1 | 356.87447 | 344.22235 | 0 | 0 | 0 | 0 | 13.999839 | 14 | -1 | 356.87447 | 344.22235 | 0 | 0 | 0 | 0 | 13.999839 | 14 | -1 | 356.87447 | 344.22235 | 0 | 0 | 0 | 0 | 13.999839 | 14 | -1 | 356.87447 | 344.22235 | 0 | 0 | 0 | 10 | 13.999839 | 14 | -1 | 356.87447 | 344.22235 | 0 | 0 | 0 | 0 | 13.999839 | 14 | -1 | 356.87447 | 344.22235 | 0 | 0 | 0 | 0 | 13.999839 | 14 | -1 | 356.87447 | 344.22235 | 0 | 0 | 0 | 0 | 13.999839 | 14 | -1 | 356.87447 | 344.22235 | 0 | 0 | 0 | 0 | 13.999839 | 14 | -1 | 356.87447 | 344.22235 | 0 | 0 | 6 | 11 | 13.999839 | 14 | -1"
       switcher_size="15"
       add_other_stroke_width="true"
       add_stroke_width="true"
       prop_to_stroke_width="true"
       interruption_width="10"
       is_visible="true"
       id="path-effect1790"
       effect="knot" />
    <inkscape:path-effect
       effect="knot"
       id="path-effect852"
       is_visible="true"
       interruption_width="15.1"
       prop_to_stroke_width="false"
       add_stroke_width="true"
       add_other_stroke_width="true"
       switcher_size="30"
       crossing_points_vector="47.42067 | 554.98979 | 0 | 0 | 0 | 3 | 0.68763694 | 4.591689 | 1 | 244.24065 | 419.3225 | 0 | 0 | 1 | 4 | 2.6398719 | 7.4923348 | 1 | 213.65756 | 558.03166 | 0 | 0 | 2 | 5 | 3.5930765 | 8.4576541 | 1" />
    <inkscape:path-effect
       effect="skeletal"
       id="path-effect847"
       is_visible="true"
       pattern="m 19.162789,-7.7042422 c -7.77241,0.72284 -15.5567605,3.19521 -23.3477005,3.53096 -7.7909495,0.33575 -15.5884895,-1.46512 -23.3872795,-1.28878 -7.7988,0.17634 -15.59884,-1.67011 -23.39479,-1.4255 -7.79596,0.24461 -15.58781,2.58027 -23.37023,3.12082 -2.1523,-1.15612 -2.01174,3.78270998 0.0625,2.4375 7.71127,-0.37053 15.4323,-2.53042 23.15668,-2.61261 7.72438,-0.0822 15.45212,1.91333 23.1768,1.8536 7.72469,-0.0597 16.17001,0.49508 23.8821895,0.19194 7.71218,-0.30315 14.6912105,-1.46424 22.3780805,-2.27668 1.40356,-0.22689 4.29984,-1.54077 3.09375,-3.21875 C 20.752009,-7.8203622 19.908619,-7.7310822 19.162789,-7.7042422 Z"
       copytype="single_stretched"
       prop_scale="1"
       scale_y_rel="false"
       spacing="0"
       normal_offset="0"
       tang_offset="0"
       prop_units="false"
       vertical_pattern="false"
       fuse_tolerance="0" />
    <inkscape:path-effect
       effect="knot"
       id="path-effect1712"
       is_visible="true"
       interruption_width="10"
       prop_to_stroke_width="true"
       add_stroke_width="true"
       add_other_stroke_width="true"
       switcher_size="15"
       crossing_points_vector="325.55873 | 586.80949 | 0 | 0 | 0 | 1 | 1.0771975 | 4.6916763 | -1 | 325.94302 | 493.16349 | 0 | 0 | 2 | 3 | 5.3807271 | 8.6664383 | -1 | 327.62838 | 402.02341 | 0 | 0 | 4 | 5 | 9.3641674 | 13.055753 | -1 | 354.95169 | 359.20445 | 0 | 0 | 0 | 0 | 13.999839 | 14 | -1 | 354.95169 | 359.20445 | 0 | 0 | 0 | 0 | 13.999839 | 14 | -1 | 354.95169 | 359.20445 | 0 | 0 | 0 | 0 | 13.999839 | 14 | -1 | 354.95169 | 359.20445 | 0 | 0 | 0 | 0 | 13.999839 | 14 | -1 | 354.95169 | 359.20445 | 0 | 0 | 0 | 0 | 13.999839 | 14 | -1 | 354.95169 | 359.20445 | 0 | 0 | 0 | 0 | 13.999839 | 14 | -1 | 354.95169 | 359.20445 | 0 | 0 | 0 | 0 | 13.999839 | 14 | -1 | 354.95169 | 359.20445 | 0 | 0 | 0 | 0 | 13.999839 | 14 | -1 | 354.95169 | 359.20445 | 0 | 0 | 0 | 0 | 13.999839 | 14 | -1 | 354.95169 | 359.20445 | 0 | 0 | 0 | 0 | 13.999839 | 14 | -1 | 354.95169 | 359.20445 | 0 | 0 | 0 | 0 | 13.999839 | 14 | -1 | 354.95169 | 359.20445 | 0 | 0 | 0 | 0 | 13.999839 | 14 | -1 | 354.95169 | 359.20445 | 0 | 0 | 0 | 0 | 13.999839 | 14 | -1 | 354.95169 | 359.20445 | 0 | 0 | 0 | 0 | 13.999839 | 14 | -1 | 354.95169 | 359.20445 | 0 | 0 | 0 | 0 | 13.999839 | 14 | -1 | 354.95169 | 359.20445 | 0 | 0 | 0 | 0 | 13.999839 | 14 | -1 | 354.95169 | 359.20445 | 0 | 0 | 0 | 0 | 13.999839 | 14 | -1 | 354.95169 | 359.20445 | 0 | 0 | 0 | 0 | 13.999839 | 14 | -1 | 354.95169 | 359.20445 | 0 | 0 | 0 | 0 | 13.999839 | 14 | -1 | 354.95169 | 359.20445 | 0 | 0 | 0 | 0 | 13.999839 | 14 | -1 | 354.95169 | 359.20445 | 0 | 0 | 0 | 0 | 13.999839 | 14 | -1 | 354.95169 | 359.20445 | 0 | 0 | 0 | 0 | 13.999839 | 14 | -1 | 354.95169 | 359.20445 | 0 | 0 | 0 | 0 | 13.999839 | 14 | -1 | 354.95169 | 359.20445 | 0 | 0 | 0 | 0 | 13.999839 | 14 | -1 | 354.95169 | 359.20445 | 0 | 0 | 0 | 0 | 13.999839 | 14 | -1 | 354.95169 | 359.20445 | 0 | 0 | 0 | 0 | 13.999839 | 14 | -1 | 354.95169 | 359.20445 | 0 | 0 | 0 | 0 | 13.999839 | 14 | -1 | 354.95169 | 359.20445 | 0 | 0 | 0 | 0 | 13.999839 | 14 | -1 | 354.95169 | 359.20445 | 0 | 0 | 0 | 0 | 13.999839 | 14 | -1 | 354.95169 | 359.20445 | 0 | 0 | 0 | 0 | 13.999839 | 14 | -1 | 354.95169 | 359.20445 | 0 | 0 | 0 | 0 | 13.999839 | 14 | -1 | 354.95169 | 359.20445 | 0 | 0 | 6 | 7 | 13.999839 | 14 | -1" />
    <inkscape:path-effect
       effect="skeletal"
       id="path-effect1714"
       is_visible="true"
       pattern="m 489.54512,151.33797 c -7.77241,0.72284 -15.55676,3.19521 -23.3477,3.53096 -7.79095,0.33575 -15.58849,-1.46512 -23.38728,-1.28878 -7.7988,0.17634 -15.59884,-1.67011 -23.39479,-1.4255 -7.79596,0.24461 -15.58781,2.58027 -23.37023,3.12082 -2.1523,-1.15612 -2.01174,3.78271 0.0625,2.4375 7.71127,-0.37053 15.4323,-2.53042 23.15668,-2.61261 7.72438,-0.0822 15.45212,1.91333 23.1768,1.8536 7.72469,-0.0597 16.17001,0.49508 23.88219,0.19194 7.71218,-0.30315 14.69121,-1.46424 22.37808,-2.27668 1.40356,-0.22689 4.29984,-1.54077 3.09375,-3.21875 C 491.13434,151.22185 490.29095,151.31113 489.54512,151.33797 Z"
       copytype="single_stretched"
       prop_scale="1"
       scale_y_rel="false"
       spacing="0"
       normal_offset="0"
       tang_offset="0"
       prop_units="false"
       vertical_pattern="false"
       fuse_tolerance="0" />
    <inkscape:path-effect
       effect="knot"
       id="path-effect1712-8"
       is_visible="true"
       interruption_width="10"
       prop_to_stroke_width="true"
       add_stroke_width="true"
       add_other_stroke_width="true"
       switcher_size="15"
       crossing_points_vector="245.16877 | 217.92005 | 0 | 0 | 0 | 1 | 1.0771975 | 4.6916763 | -1 | 245.55306 | 124.27405 | 0 | 0 | 2 | 3 | 5.3807271 | 8.6664383 | -1 | 247.23842 | 33.133965 | 0 | 0 | 4 | 5 | 9.3641674 | 13.055753 | -1" />
    <inkscape:path-effect
       effect="skeletal"
       id="path-effect1714-2"
       is_visible="true"
       pattern="m 409.15516,-217.55147 c -7.77241,0.72284 -15.55676,3.19521 -23.3477,3.53096 -7.79095,0.33575 -15.58849,-1.46512 -23.38728,-1.28878 -7.7988,0.17634 -15.59884,-1.67011 -23.39479,-1.4255 -7.79596,0.24461 -15.58781,2.58027 -23.37023,3.12082 -2.1523,-1.15612 -2.01174,3.78271 0.0625,2.4375 7.71127,-0.37053 15.4323,-2.53042 23.15668,-2.61261 7.72438,-0.0822 15.45212,1.91333 23.1768,1.8536 7.72469,-0.0597 16.17001,0.49508 23.88219,0.19194 7.71218,-0.30315 14.69121,-1.46424 22.37808,-2.27668 1.40356,-0.22689 4.29984,-1.54077 3.09375,-3.21875 C 410.74438,-217.66759 409.90099,-217.57831 409.15516,-217.55147 Z"
       copytype="single_stretched"
       prop_scale="1"
       scale_y_rel="false"
       spacing="0"
       normal_offset="0"
       tang_offset="0"
       prop_units="false"
       vertical_pattern="false"
       fuse_tolerance="0" />
    <inkscape:path-effect
       effect="knot"
       id="path-effect1712-5"
       is_visible="true"
       interruption_width="10"
       prop_to_stroke_width="true"
       add_stroke_width="true"
       add_other_stroke_width="true"
       switcher_size="15"
       crossing_points_vector="245.16877 | 217.92005 | 0 | 0 | 0 | 1 | 1.0771975 | 4.6916763 | -1 | 245.55306 | 124.27405 | 0 | 0 | 2 | 3 | 5.3807271 | 8.6664383 | -1 | 247.23842 | 33.133965 | 0 | 0 | 4 | 5 | 9.3641674 | 13.055753 | -1" />
    <inkscape:path-effect
       effect="skeletal"
       id="path-effect1714-0"
       is_visible="true"
       pattern="m 409.15516,-217.55147 c -7.77241,0.72284 -15.55676,3.19521 -23.3477,3.53096 -7.79095,0.33575 -15.58849,-1.46512 -23.38728,-1.28878 -7.7988,0.17634 -15.59884,-1.67011 -23.39479,-1.4255 -7.79596,0.24461 -15.58781,2.58027 -23.37023,3.12082 -2.1523,-1.15612 -2.01174,3.78271 0.0625,2.4375 7.71127,-0.37053 15.4323,-2.53042 23.15668,-2.61261 7.72438,-0.0822 15.45212,1.91333 23.1768,1.8536 7.72469,-0.0597 16.17001,0.49508 23.88219,0.19194 7.71218,-0.30315 14.69121,-1.46424 22.37808,-2.27668 1.40356,-0.22689 4.29984,-1.54077 3.09375,-3.21875 C 410.74438,-217.66759 409.90099,-217.57831 409.15516,-217.55147 Z"
       copytype="single_stretched"
       prop_scale="1"
       scale_y_rel="false"
       spacing="0"
       normal_offset="0"
       tang_offset="0"
       prop_units="false"
       vertical_pattern="false"
       fuse_tolerance="0" />
  </defs>
  <sodipodi:namedview
     id="base"
     pagecolor="#ffffff"
     bordercolor="#666666"
     borderopacity="1.0"
     inkscape:pageopacity="0.0"
     inkscape:pageshadow="2"
     inkscape:zoom="0.58101528"
     inkscape:cx="130.52249"
     inkscape:cy="247.82775"
     inkscape:document-units="px"
     inkscape:current-layer="layer1"
     showgrid="false"
     fit-margin-top="0"
     fit-margin-left="0"
     fit-margin-right="0"
     fit-margin-bottom="0" />
  <metadata
     id="metadata1032">
    <rdf:RDF>
      <cc:Work
         rdf:about="">
        <dc:format>image/svg+xml</dc:format>
        <dc:type
           rdf:resource="http://purl.org/dc/dcmitype/StillImage" />
        <dc:title></dc:title>
      </cc:Work>
    </rdf:RDF>
  </metadata>
  <g
     inkscape:label="Layer 1"
     inkscape:groupmode="layer"
     id="layer1"
     transform="translate(-162.56685,-567.58888)">
    <path
       style="fill:#000000;stroke:#000000;stroke-width:1px;stroke-linecap:butt;stroke-linejoin:miter;stroke-opacity:1"
       d=""
       id="path1694"
       inkscape:connector-curvature="0"
       sodipodi:nodetypes="caazaaazaaazasc"
       inkscape:path-effect="#path-effect1712;#path-effect1714"
       inkscape:original-d="m 355.61255,633.62557 c 0,0 -10.45765,-31.41475 -22.65478,-41.30562 -30.99711,-25.13613 -74.74723,-32.56574 -114.60087,-34.6476 -45.9377,-2.39968 -131.879173,0.4673 -135.537993,25.95635 -3.65882,25.48905 52.491033,33.60849 82.041643,33.59051 69.14419,-0.0421 188.84379,-9.75252 191.86987,-78.83048 2.32931,-53.17241 -89.05067,-66.41639 -141.81895,-73.36186 -44.33598,-5.83559 -131.943123,0.34001 -131.047883,28.70634 0.89524,28.36633 69.591353,34.75184 106.553843,31.88174 60.98574,-4.73549 164.13534,-17.95892 165.57957,-79.11119 1.25268,-53.04181 -87.56025,-68.84315 -140.21976,-75.32229 -45.13796,-5.5537 -136.136853,7.68894 -132.257613,33.50279 3.87924,25.81385 67.093453,25.2547 102.288073,26.39845 46.26546,1.50352 102.2762,-7.47382 136.43324,-25.89881 34.15704,-18.42499 32.71075,-45.97945 32.71075,-45.97945" />
    <path
       style="fill:#000000;stroke:#000000;stroke-width:1px;stroke-linecap:butt;stroke-linejoin:miter;stroke-opacity:1"
       d=""
       id="path1694-2"
       inkscape:connector-curvature="0"
       sodipodi:nodetypes="caazaaazaaazasc"
       inkscape:path-effect="#path-effect1790;#path-effect1792"
       inkscape:original-d="m 357.53533,618.64347 c 0,0 -10.45765,-31.41475 -22.65478,-41.30562 -30.99711,-25.13613 -74.74723,-32.56574 -114.60087,-34.6476 -45.9377,-2.39968 -131.87917,0.4673 -135.53799,25.95635 -3.65882,25.48905 52.49103,33.60849 82.04164,33.59051 69.14419,-0.0421 188.84379,-9.75252 191.86987,-78.83048 2.32931,-53.17241 -89.05067,-66.41639 -141.81895,-73.36186 -44.33598,-5.83559 -131.94312,0.34001 -131.04788,28.70634 0.89524,28.36633 69.59135,34.75184 106.55384,31.88174 60.98574,-4.73549 164.13534,-17.95892 165.57957,-79.11119 1.25268,-53.04181 -87.56025,-68.84315 -140.21976,-75.32229 -45.13796,-5.5537 -136.13685,7.68894 -132.25761,33.50279 3.87924,25.81385 67.09345,25.2547 102.28807,26.39845 46.26546,1.50352 102.2762,-7.47382 136.43324,-25.89881 34.15704,-18.42499 32.71075,-45.97945 32.71075,-45.97945" />
    <g
       id="g1809">
      <path
         inkscape:connector-curvature="0"
         id="path1696"
         d="m 339.29744,567.58888 0,319.19449"
         style="fill:#000000;stroke:#000000;stroke-width:1px;stroke-linecap:butt;stroke-linejoin:miter;stroke-opacity:1" />
      <path
         sodipodi:nodetypes="cc"
         style="fill:#000000;stroke:#000000;stroke-width:1px;stroke-linecap:butt;stroke-linejoin:miter;stroke-opacity:1"
         d="m 508.16893,819.18612 -345.60208,0"
         id="path1698"
         inkscape:connector-curvature="0" />
      <path
         inkscape:connector-curvature="0"
         id="path1700"
         d="M 450.09749,755.71133 222.43249,885.8435"
         style="fill:#000000;stroke:#000000;stroke-width:1px;stroke-linecap:butt;stroke-linejoin:miter;stroke-opacity:1"
         sodipodi:nodetypes="cc" />
      <path
         inkscape:original-d="m 490.02879,865.41789 c 0,0 -10.45765,-31.41475 -22.65478,-41.30562 -30.99711,-25.13613 -74.74723,-32.56574 -114.60087,-34.6476 -45.9377,-2.39968 -131.87917,0.4673 -135.53799,25.95635 -3.65882,25.48905 52.49103,33.60849 82.04164,33.59051 69.14419,-0.0421 188.84379,-9.75252 191.86987,-78.83048 2.32931,-53.17241 -89.05067,-66.41639 -141.81895,-73.36186 -44.33598,-5.83559 -131.94312,0.34001 -131.04788,28.70634 0.89524,28.36633 69.59135,34.75184 106.55384,31.88174 60.98574,-4.73549 164.13534,-17.95892 165.57957,-79.11119 1.25268,-53.04181 -87.56025,-68.84315 -140.21976,-75.32229 -45.13796,-5.5537 -136.13685,7.68894 -132.25761,33.50279 3.87924,25.81385 67.09345,25.2547 102.28807,26.39845 46.26546,1.50352 102.2762,-7.47382 136.43324,-25.89881 34.15704,-18.42499 32.71075,-45.97945 32.71075,-45.97945"
         inkscape:path-effect="#path-effect1805;#path-effect1807"
         sodipodi:nodetypes="caazaaazaaazasc"
         inkscape:connector-curvature="0"
         id="path1694-24"
         d="m 464.19826,825.78674 c 0.42366,0.22291 0.86222,0.42887 1.31201,0.62384 1.51586,0.5933 3.17909,1.2393 4.77549,2.11977 1.5964,0.88048 3.11377,1.98678 4.23226,3.37793 0.67423,0.83861 1.20195,1.77763 1.65028,2.75396 1.24559,2.71012 1.83552,5.71143 3.27979,8.26287 1.08349,1.9141 1.56149,4.12056 2.06224,6.28586 0.33451,1.81201 0.7131,3.60129 1.47941,5.22779 1.70843,3.62619 5.35355,6.46634 7.34193,9.99502 -0.66192,1.46044 3.89652,-0.43683 2.25041,-0.93466 -1.82189,-3.56943 -5.29639,-6.45537 -6.84739,-10.12431 -0.71229,-1.68491 -1.02092,-3.53979 -1.29632,-5.41339 -0.42548,-2.18017 -0.85282,-4.40227 -1.87725,-6.35104 -1.3876,-2.63967 -2.67973,-5.57899 -4.2946,-8.25284 -0.57779,-0.96838 -1.20279,-1.91147 -1.89228,-2.78487 -1.17722,-1.49121 -2.53836,-2.77703 -4.00863,-3.89802 -1.47027,-1.12099 -3.04503,-2.07783 -4.70341,-2.91777 -0.31047,-0.1556 -0.62198,-0.3124 -0.93449,-0.47127 -0.70882,-0.27403 -2.679,-0.13697 -3.22575,1.56099 C 463.50238,825.38852 463.88874,825.57664 464.19826,825.78674 z m 12.1421,-84.92448 c 2.19035,2.19867 4.16895,4.56628 5.85611,7.13225 0,0 0,0 0,0 4.26879,6.40134 6.5329,14.22921 6.41068,22.07529 0,0 0,10e-6 0,10e-6 -0.12435,7.7221 -1.88044,15.48166 -5.35985,22.45744 -3.42174,6.89203 -8.47227,13.02785 -14.35102,18.24793 0,10e-6 0,10e-6 0,10e-6 -6.46464,5.73797 -13.91126,10.4133 -21.72935,14.32731 0,0 0,0 0,0 -8.66279,4.336 -17.80406,7.74414 -27.12266,10.51684 -3.30971,0.98479 -6.64146,1.89203 -9.99159,2.72624 -17.0432,4.24389 -34.54423,6.59169 -52.05376,8.02192 -19.53325,1.59549 -39.13982,1.98205 -58.72266,1.77345 -8.5816,-0.0916 -17.15125,-0.76219 -25.67016,-1.83396 -3.90273,-0.49191 -7.79521,-1.06688 -11.66194,-1.75902 -5.35394,-0.95835 -10.6503,-2.18917 -15.83572,-3.78042 -7.58339,-2.3434 -15.09952,-5.2858 -20.94084,-10.31678 -2.27153,-1.95991 -4.25111,-4.24209 -5.40577,-6.85782 -1.11204,-2.46829 -1.44207,-5.28601 -1.01192,-7.9545 0.21861,-1.37402 0.74686,-2.71073 1.48824,-3.91661 0.80974,-1.32368 1.89931,-2.50641 3.11998,-3.57519 3.06613,-2.69112 6.89189,-4.5327 10.86318,-6.10748 0,0 0,0 0,0 5.09506,-1.99869 10.44458,-3.39465 15.87479,-4.55352 0,0 1e-5,0 1e-5,0 6.38032,-1.35778 12.85213,-2.3346 19.3628,-3.12403 10.04437,-1.21734 20.14474,-1.98503 30.2745,-2.51411 4.34539,-0.22696 8.69619,-0.40998 13.04993,-0.5601 13.2944,-0.45677 26.60184,-0.59399 39.90674,-0.23267 17.67374,0.48228 35.36486,1.84907 52.73838,5.31064 13.97169,2.7842 27.79074,6.95268 40.60701,13.2722 2.94172,1.81387 5.17155,2.97654 6.73733,3.56311 1.56577,0.58656 2.46414,0.5947 2.63271,0.15785 0.16856,-0.43686 -0.39795,-1.32058 -1.80517,-2.4259 -1.40721,-1.10533 -3.66019,-2.43194 -6.82833,-3.64956 -12.91606,-6.37764 -26.7859,-10.61096 -40.77481,-13.43933 -17.55435,-3.55685 -35.39064,-5.00095 -53.16327,-5.54271 -13.37851,-0.4091 -26.75597,-0.31848 -40.11606,0.0915 -4.05354,0.12429 -8.10744,0.27717 -12.15983,0.46738 -10.51723,0.49368 -21.02436,1.23865 -31.4939,2.46822 -6.58068,0.77275 -13.15183,1.74315 -19.66254,3.10568 -5.53451,1.15676 -11.05502,2.58694 -16.39088,4.65813 -4.15083,1.59985 -8.2914,3.62279 -11.8122,6.65724 -1.41751,1.22419 -2.71691,2.6548 -3.74958,4.32008 -0.95075,1.53938 -1.62372,3.27252 -1.92154,5.10659 -0.52688,3.28107 -0.11436,6.71571 1.2632,9.80469 1.45061,3.18117 3.71594,5.84754 6.2624,8.00619 6.43198,5.46581 14.33447,8.635 22.08791,10.98635 0,0 1e-5,0 1e-5,0 4.56036,1.40371 9.18892,2.53507 13.85149,3.44899 4.67364,0.9161 9.41895,1.64516 14.19931,2.23826 8.54573,1.06452 17.27317,1.70743 26.08652,1.73057 19.5223,0.0509 39.38511,-0.61538 58.96718,-2.43051 18.1479,-1.67829 36.12445,-4.31957 53.12923,-8.59448 3.13273,-0.78755 6.23265,-1.62911 9.30017,-2.52771 9.55495,-2.79871 18.80747,-6.18882 27.5638,-10.45875 8.04945,-3.92096 15.71145,-8.62537 22.45558,-14.45058 6.1698,-5.3261 11.52303,-11.6687 15.26685,-18.94241 3.76232,-7.33097 5.75086,-15.51265 5.95665,-23.77166 0.21067,-8.42059 -2.11596,-16.93228 -6.81682,-24.06526 -0.83437,-1.26439 -1.73094,-2.48483 -2.6831,-3.66327 -1.42498,-1.73247 -3.4078,-3.77298 -5.60847,-5.61671 -2.20066,-1.84373 -4.6069,-3.49309 -6.67792,-4.68019 -2.07101,-1.1871 -3.7942,-1.92637 -4.6404,-2.0477 -0.84619,-0.12133 -0.80516,0.35758 0.49746,1.75177 1.56508,1.32414 3.37949,2.75126 5.18633,4.26191 C 472.98161,737.66604 474.77748,739.26336 476.34036,740.86226 z m 0.5177,-90.50457 c 1.81628,2.04889 3.46092,4.22345 4.88109,6.53844 1e-5,0 1e-5,0 1e-5,10e-6 3.9125,6.30523 6.05046,13.79277 6.08333,21.33875 0.0277,6.81712 -1.34912,13.69288 -4.20645,19.94869 -2.80865,6.18166 -7.02956,11.77718 -12.00243,16.62924 -10e-6,10e-6 -10e-6,10e-6 -10e-6,10e-6 -5.43877,5.30415 -11.76495,9.74863 -18.45305,13.56395 0,0 0,0 -10e-6,0 -7.37689,4.20688 -15.20988,7.65054 -23.22904,10.57293 -7.26213,2.64651 -14.67256,4.87819 -22.17634,6.7658 -10.37009,2.60864 -20.9156,4.55921 -31.49374,6.1283 -17.06115,2.53103 -34.25844,3.99704 -51.46645,5.06503 -10.66643,0.66183 -21.36735,0.47852 -32.02721,-0.21044 -10.58425,-0.68569 -21.13214,-1.8796 -31.50908,-3.91544 -1.00366,-0.19691 -2.00542,-0.40342 -3.0051,-0.61981 -9.69473,-2.11036 -19.35229,-4.957 -27.50761,-10.28758 -3.14074,-2.05772 -6.02943,-4.49221 -8.06173,-7.48426 -1.80643,-2.64556 -2.89153,-5.78502 -2.92663,-8.91242 -0.0738,-3.06525 1.29167,-6.12287 3.34152,-8.51595 2.58079,-3.02128 6.14341,-5.19681 9.88928,-7.05363 1e-5,0 1e-5,0 1e-5,0 4.81228,-2.35735 9.97638,-4.03085 15.24459,-5.4281 1e-5,0 1e-5,0 1e-5,0 6.22361,-1.64517 12.57685,-2.83834 18.98213,-3.79588 10.89535,-1.62763 21.88933,-2.57026 32.92052,-3.08392 3.30357,-0.15383 6.61053,-0.26914 9.91915,-0.35021 13.05296,-0.31503 26.1064,-0.15335 39.05436,1.22827 17.57727,1.87716 35.13515,3.84453 52.5164,7.01771 14.8667,2.71504 29.71392,6.16785 43.80734,11.70197 3.05153,1.54837 5.35886,2.49044 6.95779,2.92078 1.59894,0.43034 2.48678,0.3466 2.61319,-0.1041 0.12641,-0.45069 -0.51333,-1.26943 -1.9969,-2.2294 -1.48357,-0.95997 -3.81477,-2.05994 -7.03224,-2.99334 -14.1645,-5.58031 -29.01312,-9.09088 -43.81716,-11.83552 -17.47899,-3.25081 -35.09714,-5.28592 -52.68714,-7.22295 -13.12201,-1.44556 -26.31147,-1.6611 -39.45622,-1.38983 -3.01528,0.062 -6.03075,0.15238 -9.0452,0.27432 -11.44837,0.46312 -22.88251,1.38081 -34.23758,3.03425 -6.49239,0.94518 -12.9662,2.14066 -19.34569,3.80396 -5.39303,1.40387 -10.75742,3.13553 -15.84889,5.60519 -3.96646,1.90827 -7.87194,4.33951 -10.92177,7.8279 -2.51975,2.88967 -4.14685,6.67072 -4.1205,10.69146 0.0714,3.83145 1.34682,7.57052 3.50117,10.70782 2.39148,3.4593 5.58358,6.19564 8.97001,8.38524 1e-5,10e-6 1e-5,10e-6 1e-5,10e-6 8.70425,5.65004 18.72034,8.66289 28.56968,10.77685 0.24902,0.0541 0.49813,0.10762 0.74736,0.16053 11.11641,2.35995 22.64985,3.70353 34.30491,4.37248 10.69753,0.61808 21.56994,0.69348 32.4377,-0.10755 1e-5,0 1e-5,0 1e-5,0 17.29856,-1.27575 34.65922,-3.00101 51.60874,-5.65314 11.03362,-1.72393 21.92321,-3.81853 32.44047,-6.48864 7.39545,-1.87754 14.60727,-4.03596 21.63003,-6.53546 8.21111,-2.92228 16.17295,-6.34368 23.69039,-10.51521 1e-5,0 1e-5,0 1e-5,0 6.89766,-3.82388 13.44515,-8.31551 19.16765,-13.74331 5.24616,-4.9735 9.75433,-10.79613 12.85753,-17.37103 3.11517,-6.6191 4.69481,-13.92023 4.72922,-21.25699 0.0383,-8.07411 -2.1579,-16.18932 -6.44713,-23.16985 -0.59837,-0.97285 -1.23205,-1.92303 -1.89832,-2.85108 -1.31326,-1.79563 -3.15907,-3.92809 -5.23104,-5.87604 -2.07198,-1.94795 -4.3586,-3.71244 -6.34189,-4.99709 -1.98328,-1.28465 -3.64973,-2.1031 -4.4819,-2.26389 -0.83217,-0.16079 -0.81769,0.31769 0.39179,1.76596 1.47369,1.39115 3.18535,2.89875 4.88377,4.49158 C 473.72321,647.00589 475.40513,648.68669 476.85806,650.35769 z m 6.59046,-46.19927 c -0.20086,0.55593 -0.41229,1.10898 -0.63375,1.65874 -2.07622,5.15421 -5.10104,9.9768 -8.77869,14.28545 0,0 -1e-5,0 -1e-5,10e-6 -5.08286,5.96475 -11.45373,10.92571 -18.39875,14.98292 0,10e-6 0,10e-6 -10e-6,10e-6 -19.0327,11.1073 -40.73666,17.74076 -62.67594,22.2037 0,0 -10e-6,0 -10e-6,0 -7.72176,1.57045 -15.51187,2.84607 -23.3447,3.79379 -16.37361,1.98112 -32.92319,2.52711 -49.39119,1.74492 0,0 0,0 -10e-6,0 -10.08931,-0.47919 -20.18874,-0.83923 -30.26053,-1.47949 0,0 0,0 -10e-6,0 -10.88735,-0.69251 -21.75665,-1.63159 -32.47577,-3.39819 0,0 0,0 -10e-6,0 -7.52451,-1.24808 -15.04986,-2.76235 -22.01133,-5.54696 -1.49612,-0.59846 -2.9646,-1.26069 -4.39907,-1.99643 -3.11685,-1.60262 -6.05141,-3.56496 -8.28036,-6.13489 -1.96774,-2.26077 -3.34224,-5.04972 -3.74031,-7.96406 -0.19535,-1.39575 -0.0688,-2.83959 0.3607,-4.17506 0.4496,-1.42275 1.24854,-2.75399 2.21722,-3.9674 2.48145,-3.11888 6.0013,-5.3702 9.67386,-7.33652 4.86096,-2.57551 10.08166,-4.47973 15.40432,-6.11545 6.35323,-1.94805 12.84656,-3.44922 19.39671,-4.70866 10e-6,0 10e-6,0 10e-6,0 14.50825,-2.78814 29.21996,-4.39444 43.97446,-5.27812 10e-6,0 10e-6,0 10e-6,0 1.99172,-0.11817 3.98367,-0.2257 5.9752,-0.31928 11.34067,-0.53295 22.66493,-0.61515 33.89478,0.50183 0,0 0,0 1e-5,0 17.94152,1.78378 35.85397,3.94049 53.54507,7.47693 15.32826,3.06598 30.62423,7.03356 44.92525,13.43405 2.71546,1.57228 4.78876,2.52865 6.24456,2.97193 1.45579,0.44328 2.29125,0.37125 2.44491,-0.0697 0.15367,-0.44095 -0.379,-1.25218 -1.68741,-2.2157 -1.30841,-0.96353 -3.39634,-2.07871 -6.31645,-3.04964 -14.40592,-6.47094 -29.73291,-10.51388 -45.0238,-13.61807 -17.80176,-3.62582 -35.79856,-5.86177 -53.7891,-7.71782 0,0 0,0 -1e-5,0 -11.14189,-1.14909 -22.32943,-1.14971 -33.4844,-0.69441 -2.30231,0.094 -4.60313,0.2074 -6.90143,0.33539 0,0 0,0 -10e-6,0 -14.88401,0.82729 -29.75276,2.39231 -44.44685,5.16108 0,0 0,0 -1e-5,0 -6.63705,1.25028 -13.24804,2.75804 -19.7511,4.72966 -5.44008,1.64618 -10.85266,3.61434 -15.98276,6.30969 -3.87203,2.00821 -7.73299,4.53419 -10.70076,8.16707 -1.178,1.44913 -2.16607,3.13415 -2.78431,5.02988 -0.57775,1.81365 -0.74444,3.74682 -0.48018,5.64295 0.52335,3.61979 2.1579,6.9831 4.52221,9.684 2.63334,2.98866 5.89408,5.21171 9.25697,6.91414 0.86864,0.44203 1.74607,0.85912 2.63112,1.25303 7.82257,3.48165 16.35413,5.27336 24.79807,6.59015 10.80442,1.71191 21.83321,2.55686 32.84907,3.11616 10.13354,0.5163 20.27425,0.73711 30.31623,1.09077 17.14185,0.60294 34.16746,-0.19415 50.46283,-2.18847 7.75123,-0.94864 15.33755,-2.16299 22.78606,-3.61278 0,0 0,0 0,0 11.22691,-2.17536 22.25375,-4.84829 32.93086,-8.35437 10.6771,-3.50608 21.00871,-7.83821 30.83126,-13.40307 7.18166,-4.06722 13.90098,-9.16384 19.40847,-15.51194 3.24903,-3.74599 6.05681,-7.92928 8.21751,-12.46874 0.38229,-0.82348 0.77771,-1.75909 1.15196,-2.76879 0.67612,-1.82412 1.27871,-3.89199 1.67704,-5.93074 0.39834,-2.03875 0.59079,-4.04436 0.59067,-5.72602 -5e-5,-1.37972 -0.12793,-2.53015 -0.32662,-3.31109 -0.095,-0.37363 -0.20514,-0.65435 -0.32205,-0.83921 -0.0572,-0.0829 -0.11575,-0.13815 -0.17494,-0.17247 0.61758,-0.0524 1.10991,-0.0936 1.45111,-0.12178 0.33381,-0.0276 0.52295,-0.043 0.54195,-0.0445 0,0 0,0 0,0 0,0 0,0 0,0 0.002,-1.7e-4 0.002,-1.7e-4 0,0 0,0 0,0 0,0 0,0 0,0 0,0 0,0 0,0 0,0 0,0 0,0 0,0 0,0 0,0 -10e-6,0 0,0 0,0 0,0 0,0 0,0 0,0 -0.0189,0.002 -0.20673,0.0167 -0.58953,0.0465 -0.38272,0.0298 -0.96035,0.0744 -1.76008,0.13472 -0.0559,0.0353 -0.11245,0.0868 -0.17009,0.16491 -0.10869,0.17029 -0.22225,0.42174 -0.34905,0.78403 -0.0411,0.11732 -0.0836,0.24459 -0.12797,0.38216 -0.146,0.82835 -0.30824,1.71685 -0.48938,2.65453 -0.28108,1.45435 -0.61253,2.98647 -1.01701,4.5146 C 484.45874,601.20644 483.98173,602.72996 483.44852,604.15842 Z"
         style="fill:#000000;stroke:#000000;stroke-width:1px;stroke-linecap:butt;stroke-linejoin:miter;stroke-opacity:1" />
    </g>
  </g>
</svg>
