<?xml version="1.0" encoding="UTF-8" standalone="no"?>
<!-- Created with Inkscape (http://www.inkscape.org/) -->

<svg
   xmlns:dc="http://purl.org/dc/elements/1.1/"
   xmlns:cc="http://creativecommons.org/ns#"
   xmlns:rdf="http://www.w3.org/1999/02/22-rdf-syntax-ns#"
   xmlns:svg="http://www.w3.org/2000/svg"
   xmlns="http://www.w3.org/2000/svg"
   xmlns:sodipodi="http://sodipodi.sourceforge.net/DTD/sodipodi-0.dtd"
   xmlns:inkscape="http://www.inkscape.org/namespaces/inkscape"
   width="496.14835"
   height="307.12637"
   id="svg1027"
   version="1.1"
   inkscape:version="0.48+devel r"
   sodipodi:docname="curve1.svg">
  <defs
     id="defs1029">
    <inkscape:path-effect
       effect="knot"
       id="path-effect852"
       is_visible="true"
       interruption_width="15.1"
       prop_to_stroke_width="false"
       add_stroke_width="true"
       add_other_stroke_width="true"
       switcher_size="30"
       crossing_points_vector="47.42067 | 554.98979 | 0 | 0 | 0 | 3 | 0.68763694 | 4.591689 | 1 | 244.24065 | 419.3225 | 0 | 0 | 1 | 4 | 2.6398719 | 7.4923348 | 1 | 213.65756 | 558.03166 | 0 | 0 | 2 | 5 | 3.5930765 | 8.4576541 | 1" />
    <inkscape:path-effect
       effect="skeletal"
       id="path-effect847"
       is_visible="true"
       pattern="m 19.162789,-7.7042422 c -7.77241,0.72284 -15.5567605,3.19521 -23.3477005,3.53096 -7.7909495,0.33575 -15.5884895,-1.46512 -23.3872795,-1.28878 -7.7988,0.17634 -15.59884,-1.67011 -23.39479,-1.4255 -7.79596,0.24461 -15.58781,2.58027 -23.37023,3.12082 -2.1523,-1.15612 -2.01174,3.78270998 0.0625,2.4375 7.71127,-0.37053 15.4323,-2.53042 23.15668,-2.61261 7.72438,-0.0822 15.45212,1.91333 23.1768,1.8536 7.72469,-0.0597 16.17001,0.49508 23.8821895,0.19194 7.71218,-0.30315 14.6912105,-1.46424 22.3780805,-2.27668 1.40356,-0.22689 4.29984,-1.54077 3.09375,-3.21875 C 20.752009,-7.8203622 19.908619,-7.7310822 19.162789,-7.7042422 Z"
       copytype="single_stretched"
       prop_scale="1"
       scale_y_rel="false"
       spacing="0"
       normal_offset="0"
       tang_offset="0"
       prop_units="false"
       vertical_pattern="false"
       fuse_tolerance="0" />
  </defs>
  <sodipodi:namedview
     id="base"
     pagecolor="#ffffff"
     bordercolor="#666666"
     borderopacity="1.0"
     inkscape:pageopacity="0.0"
     inkscape:pageshadow="2"
     inkscape:zoom="0.82167969"
     inkscape:cx="215.84319"
     inkscape:cy="68.704619"
     inkscape:document-units="px"
     inkscape:current-layer="layer1"
     showgrid="false"
     fit-margin-top="0"
     fit-margin-left="0"
     fit-margin-right="0"
     fit-margin-bottom="0" />
  <metadata
     id="metadata1032">
    <rdf:RDF>
      <cc:Work
         rdf:about="">
        <dc:format>image/svg+xml</dc:format>
        <dc:type
           rdf:resource="http://purl.org/dc/dcmitype/StillImage" />
        <dc:title></dc:title>
      </cc:Work>
    </rdf:RDF>
  </metadata>
  <g
     inkscape:label="Layer 1"
     inkscape:groupmode="layer"
     id="layer1"
     transform="translate(69.414619,-293.94043)">
    <path
       style="fill:#000000;stroke:#000000;stroke-width:1.10000002;stroke-linecap:round;stroke-miterlimit:4;stroke-opacity:1;stroke-dasharray:none"
       d="m 30.610269,555.99488 c -3.898176,1.28134 -7.735593,2.92231 -11.628028,4.45677 -3.892435,1.53445 -7.838943,2.962 -11.8942459,3.80466 -4.0553075,0.84266 -8.2097976,1.09873 -12.3612279,1.27913 -4.1514303,0.18039 -8.3008102,0.28553 -12.3996452,0.83456 -6.040748,0.80913 -12.203658,0.42169 -18.298475,0.49526 -2.17562,0.0259 -4.34426,0.10976 -6.503503,0.32591 -5.721414,0.57275 -11.391695,2.07557 -17.116271,3.18404 -10e-7,0 -10e-7,0 -10e-7,0 -2.23527,0.43282 -4.477184,0.80547 -6.726734,1.03118 -0.252768,0.0254 -0.505686,0.0489 -0.758767,0.0703 -0.433752,-0.20838 -0.776866,-0.20534 -1.035565,-0.0714 -0.204233,0.10575 -0.356156,0.29305 -0.457555,0.52217 l 0,0 0,0 c -0.05132,0.11626 -0.08973,0.2433 -0.115206,0.3759 0,0 0,0 0,0 -0.01283,0.0668 -0.02238,0.135 -0.02863,0.20395 0,0 0,0 0,0 -0.01304,0.14431 -0.01166,0.29189 0.0042,0.43662 0.0076,0.0696 0.01859,0.13857 0.03287,0.20616 0,0 0,0 0,0 0.02853,0.13506 0.0703,0.26472 0.124615,0.38346 l 0,0 0,0 0,0 c 0.109112,0.23701 0.270222,0.43057 0.478695,0.53699 l 0,0 c 0.283155,0.14454 0.656773,0.12836 1.111082,-0.15813 0.233195,-0.015 0.466016,-0.0318 0.698467,-0.0501 2.267173,-0.1787 4.524628,-0.507 6.772791,-0.89635 0,0 0,0 10e-7,0 5.704406,-0.98787 11.357428,-2.36861 17.062272,-2.82509 2.226612,-0.17816 4.463376,-0.21569 6.707427,-0.19525 6.003224,0.055 12.07603,0.53071 18.033684,-0.17774 8.1844723,-0.97322 17.2042711,-1.63793 25.2806062,-3.28763 8.0763338,-1.64971 15.1705958,-4.21733 22.9462788,-6.84439 1.402126,-0.5562 4.073525,-2.54917 2.446572,-3.88327 C 32.209377,555.49876 31.368059,555.79037 30.610269,555.99488 z m 205.962381,-5.36466 c 6.39388,-3.98176 12.37846,-8.66228 17.58242,-14.18582 0,0 0,0 0,0 7.9645,-8.44237 13.63794,-19.2355 14.90824,-30.74312 0,0 0,0 10e-6,0 1.04898,-9.84956 0.23569,-19.73577 -1.678,-29.29695 -2.10001,-10.50134 -5.51171,-20.66008 -9.70516,-30.43804 -2.50863,-5.84945 -5.28731,-11.57197 -8.30347,-17.16571 -7.81826,-14.49968 -17.23923,-28.15461 -28.04002,-40.64387 -7.34789,-8.49668 -15.37946,-16.44273 -24.18037,-23.49083 -10e-6,0 -10e-6,0 -10e-6,0 -8.21235,-6.57766 -17.11533,-12.38764 -26.73039,-16.79921 -6.36382,-2.9214 -13.06425,-5.21858 -19.95704,-6.56603 -2.61378,-0.51096 -5.25213,-0.89873 -7.91029,-1.14634 -9.19022,-0.8542 -18.58824,0.082 -27.37009,3.11613 -3.33193,1.14953 -6.55244,2.75037 -9.42012,4.91592 -2.56527,1.94297 -4.79686,4.33332 -6.561271,7.04854 -1.771973,2.73539 -3.064921,5.74502 -3.95392,8.84236 -0.967677,3.36809 -1.493779,6.82937 -1.734346,10.27479 -0.558256,8.01505 0.254625,16.01355 1.487375,23.8066 10e-7,0 10e-7,0 10e-7,1e-5 1.413728,8.9959 3.430534,17.84649 5.559711,26.60817 0,0 0,0 0,0 0.87907,3.62833 1.79085,7.24587 2.70664,10.85611 3.65745,14.41847 7.37663,28.70537 9.07494,43.31409 0.93294,8.05571 1.24621,16.20275 -0.0515,24.17024 -1.17701,7.21965 -3.80621,14.30666 -8.30221,20.16152 0,0 0,0 0,10e-6 -4.976514,6.48882 -11.479169,11.77439 -18.453453,16.17377 -2e-6,0 -4e-6,0 -6e-6,0 -5.422296,3.4217 -11.15641,6.33579 -17.054301,8.86801 -3.002203,0.9336 -5.109832,1.82152 -6.414623,2.60306 -1.304792,0.78155 -1.804719,1.45191 -1.579137,1.86079 0.225581,0.40888 1.178856,0.55545 2.764555,0.238 1.5857,-0.31745 3.809206,-1.09961 6.505156,-2.59145 5.877156,-2.51355 11.614582,-5.41514 17.073896,-8.8246 2e-6,-10e-6 4e-6,-10e-6 5e-6,-10e-6 7.163784,-4.45892 13.905858,-9.91109 19.176288,-16.68392 0,0 0,0 0,-10e-6 4.82525,-6.25624 7.66331,-13.72212 8.91712,-21.29456 1.37877,-8.31418 1.10878,-16.71723 0.17801,-24.92838 -1.64919,-14.58471 -5.22539,-28.75697 -8.7607,-42.92602 -0.97367,-3.90234 -1.94409,-7.80339 -2.87531,-11.70709 0,0 0,-10e-6 0,-10e-6 -2.08818,-8.75896 -4.054626,-17.54869 -5.408697,-26.41917 0,-1e-5 0,-1e-5 0,-1e-5 -1.172309,-7.6988 -1.942018,-15.47017 -1.360199,-23.11518 0.248979,-3.27648 0.751336,-6.5152 1.662043,-9.6057 0.835946,-2.83406 2.010943,-5.54811 3.598383,-7.95512 1.56779,-2.38631 3.55396,-4.49041 5.82412,-6.19125 2.53982,-1.91159 5.46082,-3.33629 8.5228,-4.3898 0,0 0,0 0,0 8.28575,-2.84371 17.20533,-3.69876 25.94208,-2.88044 1.84789,0.17219 3.68875,0.41711 5.52084,0.72813 7.20534,1.22322 14.37603,3.57209 21.28113,6.68966 9.25378,4.18338 18.03137,9.76544 26.2305,16.16565 1e-5,0 1e-5,0 1e-5,10e-6 8.7109,6.80357 16.75366,14.54286 24.09284,22.82017 11.16432,12.60003 20.74358,26.39588 28.32348,40.59901 2.87806,5.39289 5.4741,10.84362 7.79028,16.35381 4.12072,9.80769 7.32967,19.80034 9.23737,29.99488 1.75314,9.38838 2.42623,18.96019 1.30081,28.42461 -1.23094,10.60072 -6.6147,20.68923 -14.28405,28.78915 -3.83276,4.04683 -8.16565,7.66802 -12.86801,10.92656 -1.65564,1.17117 -3.76938,2.64036 -5.94872,4.09673 -2.17934,1.45638 -4.42158,2.90141 -6.25396,4.1268 -1.83238,1.22539 -3.25115,2.23762 -3.76067,2.86874 -0.50952,0.63112 -0.1077,0.89428 1.68628,0.52157 C 228.3233,555.3435 232.76696,552.95002 236.57265,550.63022 z m 23.92959,-156.1826 c 2.16747,-5.6409 3.87557,-11.48728 4.80899,-17.55212 0.86447,-5.67299 0.91152,-11.53976 -0.19009,-17.2605 -1e-5,0 -1e-5,-10e-6 -1e-5,-10e-6 -1.15587,-5.91258 -3.56201,-11.49878 -6.89125,-16.40888 0,0 0,-1e-5 0,-1e-5 -10.01389,-14.71569 -24.55076,-25.64132 -40.30715,-33.11752 -17.11668,-8.12843 -35.71094,-12.5664 -54.41515,-14.49815 -5.99964,-0.61952 -12.02385,-0.98147 -18.05106,-1.08727 -13.29697,-0.23341 -26.61226,0.7786 -39.70748,3.12864 -17.726768,3.18227 -35.201614,8.81109 -50.643791,18.25616 -2e-6,0 -4e-6,0 -6e-6,10e-6 -15.063503,9.21949 -27.808206,22.02146 -38.161551,36.37491 -6.026683,8.35074 -11.2788456,17.25519 -15.7171643,26.54923 -3.6941576,7.73574 -6.8999342,15.70516 -9.6066149,23.8374 -5.9047998,17.72988 -9.4703118,36.34301 -9.6290658,55.13389 1e-6,0 0,10e-6 0,10e-6 -0.155931,17.55186 2.797633,35.40565 10.3493228,51.50017 2e-6,10e-6 3.9e-6,10e-6 5.8e-6,10e-6 6.3669049,13.48543 16.5987712,24.90015 28.5948174,33.56648 4e-6,10e-6 6e-6,10e-6 7e-6,10e-6 0.235113,0.16993 0.470831,0.3389 0.707148,0.50692 12.563644,8.93265 26.805396,15.1614 41.403687,19.53518 3e-6,0 5e-6,0 8e-6,0 15.613314,4.68469 31.737035,7.32288 47.883587,8.49308 0,0 0,0 1e-5,0 15.49504,1.12433 31.05786,0.91032 46.44193,-0.69679 0,0 10e-6,0 10e-6,0 12.37317,-1.29259 24.617,-3.62097 36.56222,-6.94858 4.00759,-0.77758 6.84768,-1.75254 8.61723,-2.60592 1.76955,-0.85339 2.4732,-1.58689 2.23749,-1.99443 -0.2357,-0.40754 -1.40742,-0.49125 -3.41856,-0.1279 -2.01114,0.36335 -4.8594,1.17235 -8.52024,2.49496 -11.66954,3.18709 -23.62183,5.413 -35.69459,6.64344 0,0 0,0 -1e-5,0 -15.22673,1.55114 -30.63198,1.72376 -45.97051,0.57311 0,0 0,0 -1e-5,0 -15.982351,-1.20169 -31.907842,-3.84495 -47.283642,-8.50579 -3e-6,0 -5e-6,0 -8e-6,0 -14.009537,-4.24945 -27.623385,-10.18737 -39.610352,-18.59114 -0.542858,-0.38058 -1.082356,-0.7662 -1.618381,-1.15691 -11.628055,-8.47644 -21.5104111,-19.54998 -27.5540621,-32.52309 0,0 -1.9e-6,0 -3.7e-6,-1e-5 -7.2823372,-15.59912 -10.0782092,-33.00751 -9.8989812,-50.18007 0,0 10e-7,-10e-6 10e-7,-10e-6 0.199515,-18.39839 3.750168,-36.65472 9.5756159,-54.07874 1.7e-6,0 2.2e-6,0 2.7e-6,0 2.3821729,-7.11573 5.14868798,-14.10204 8.2914047,-20.90949 4.5573196,-9.87162 10.0760147,-19.50211 16.5709517,-28.58319 9.99292,-13.95401 22.327428,-26.68357 37.000568,-35.84236 3e-6,0 5e-6,0 7e-6,0 15.0043,-9.40304 32.222495,-15.09753 49.535619,-18.34259 13.41266,-2.50276 26.93973,-3.50788 40.15358,-3.20565 5.69141,0.13018 11.32564,0.50118 16.893,1.09983 18.8239,2.03502 36.95423,6.62606 53.43447,14.65571 7.64674,3.73112 14.95403,8.26024 21.55363,13.63897 6.5996,5.37872 12.49408,11.60719 17.27238,18.76767 3.05063,4.56525 5.26931,9.74867 6.3106,15.22454 1.00063,5.24097 0.9408,10.71914 0.11926,16.11773 -0.55413,3.64644 -1.41997,7.2485 -2.52615,10.81234 -0.76674,2.53634 -1.82779,5.73109 -3.01575,8.94968 -1.18795,3.21859 -2.4899,6.4618 -3.53173,9.14407 -1.04183,2.68226 -1.81282,4.80645 -1.94154,5.8105 -0.12872,1.00406 0.3872,0.89955 1.84692,-0.94866 1.3823,-2.14021 2.79372,-4.68804 4.11804,-7.3866 C 258.20417,400.01134 259.43626,397.1626 260.50224,394.44762 z m 152.62134,-12.71389 c -4.98491,-1.08888 -9.97349,-2.15217 -14.96176,-3.19605 0,0 0,0 -10e-6,0 -7.98054,-1.13892 -16.12102,-1.79606 -24.25101,-1.37706 -3.74677,0.19473 -7.52431,0.64086 -11.22621,1.53094 0,0 0,0 0,0 -3.24831,0.7738 -6.48254,1.93447 -9.40018,3.72568 -4.36286,2.70377 -8.31698,5.98783 -11.80622,9.67134 0,0 0,1e-5 0,1e-5 -3.56449,3.76377 -6.6489,7.92539 -9.33762,12.29931 0,0 0,0 0,10e-6 -5.85855,9.53319 -9.90939,19.98901 -13.23836,30.59882 -0.21065,0.67152 -0.41836,1.34385 -0.62328,2.01697 -3.37292,11.079 -5.99543,22.38101 -8.3818,33.73246 -2.61156,12.4232 -4.90829,24.92238 -7.31952,37.38991 0,10e-6 0,10e-6 0,10e-6 -2.28638,11.82014 -4.64029,23.622 -7.64584,35.23684 -1.37645,5.31155 -2.87123,10.5977 -4.64201,15.76601 -1.5861,4.62928 -3.44685,9.14708 -5.69035,13.47306 -2.03966,3.93389 -4.40258,7.69206 -7.2143,11.05555 -2.58911,3.09648 -5.56312,5.85941 -8.902,8.02304 -3.31832,2.1551 -7.01079,3.71684 -10.84167,4.61443 -4.29018,1.01089 -8.76795,1.20183 -13.20031,0.84294 -3.64091,-0.30616 -7.20333,-1.39185 -10.23712,-3.26351 -2.98629,-1.81711 -5.52299,-4.39775 -7.62104,-7.30619 -2.33247,-3.23961 -4.11415,-6.91139 -5.593,-10.7385 0,-10e-6 0,-10e-6 0,-10e-6 -1.65025,-4.28691 -2.87671,-8.76385 -3.88639,-13.31935 -0.59665,-2.6931 -1.11422,-5.40605 -1.57044,-8.13528 -1.22722,-7.34171 -2.01115,-14.80429 -2.64309,-22.30161 -0.80454,-9.57856 -1.27174,-19.2311 -1.87278,-28.89597 -0.82915,-12.74475 2.77574,-25.6577 7.78267,-37.72786 4.40952,-10.62633 9.93372,-20.77342 15.66229,-30.76195 3.43945,-4.68417 4.00202,-7.48357 3.13884,-7.83521 -0.86319,-0.35164 -3.15095,1.73578 -5.40996,6.88407 -5.71983,9.88494 -11.26014,19.99621 -15.74329,30.65447 -5.17231,12.21817 -8.90455,25.49985 -8.15953,38.8707 0.56241,9.64605 0.99264,19.32783 1.76109,28.99009 0.5784,7.28139 1.30777,14.56903 2.44977,21.78915 0.48259,3.05113 1.03898,6.09066 1.69261,9.11415 1.00937,4.66938 2.26155,9.30352 3.9653,13.79341 0,0 0,0 0,0 1.52041,4.01052 3.41449,7.92358 5.93393,11.46503 2.27461,3.19931 5.10906,6.07011 8.5194,8.17609 3.5012,2.14894 7.52933,3.3941 11.63315,3.73639 4.70292,0.40203 9.51357,0.19684 14.20082,-0.88837 4.19344,-0.97612 8.23062,-2.67751 11.87415,-5.03523 0,0 0,0 0,0 3.65261,-2.37024 6.87344,-5.34294 9.6396,-8.65183 2.99918,-3.5862 5.49861,-7.53538 7.62189,-11.62699 2.01686,-3.88844 3.73351,-7.90224 5.21953,-11.98829 2.11905,-5.82668 3.84948,-11.86355 5.38956,-17.95246 2.94843,-11.61814 5.20122,-23.57779 7.34498,-35.54043 0,0 0,0 0,0 2.24846,-12.53649 4.35956,-25.10895 6.80425,-37.42552 2.33231,-11.73869 4.9401,-23.24541 8.31372,-34.16935 0.13988,-0.45293 0.28104,-0.90487 0.42353,-1.35584 3.39143,-10.70522 7.47976,-20.87241 13.19163,-29.90866 2.67022,-4.22954 5.69182,-8.19922 9.13736,-11.74213 3.38395,-3.48099 7.18384,-6.55614 11.3446,-9.06215 0,0 0,0 0,0 2.56207,-1.55774 5.50863,-2.5629 8.55446,-3.26969 0,0 0,0 0,0 3.4583,-0.79698 7.04493,-1.17757 10.66963,-1.33403 0,0 10e-6,0 10e-6,0 7.73116,-0.33519 15.59462,0.35278 23.51294,1.50841 3.44354,0.73724 6.91153,1.48215 10.40859,2.23665 3.07258,0.62948 7.54297,1.39579 11.29917,1.85332 3.7562,0.45753 6.80066,0.60688 6.98243,-0.007 -4e-5,1.7e-4 -9e-5,3.5e-4 -1.4e-4,5.3e-4 -5e-5,1.7e-4 -10e-5,3.5e-4 -1.5e-4,5.3e-4 -7e-5,2.3e-4 -1.3e-4,4.7e-4 -1.9e-4,7e-4 -7e-5,2.3e-4 -1.3e-4,4.7e-4 -2e-4,7e-4 -2e-5,9e-5 -5e-5,1.8e-4 -7e-5,2.6e-4 -3e-5,9e-5 -5e-5,1.8e-4 -8e-5,2.7e-4 -6e-5,2.4e-4 -1.3e-4,4.7e-4 -1.9e-4,7e-4 -7e-5,2.4e-4 -1.3e-4,4.7e-4 -1.9e-4,7e-4 -0.77115,2.78211 -0.77339,2.79019 0.003,-0.0112 0.0635,-0.24543 -0.32348,-0.61067 -1.29672,-1.12473 C 421.51978,383.60027 417.05466,382.63586 413.12358,381.73373 Z"
       id="path848"
       inkscape:path-effect="#path-effect852;#path-effect847"
       inkscape:original-d="m -68.739867,570.85605 c 0,0 135.225688,-1.03289 172.976067,-47.38984 37.75709,-46.36519 -44.873619,-158.73984 11.37582,-179.02108 69.36158,-25.00894 161.9172,87.98934 151.67424,161.00686 -5.92132,42.21048 -67.43653,61.73698 -109.9062,65.35828 C 99.416751,575.75268 19.676794,560.70709 -5.5586185,508.29195 -34.688532,447.78775 -1.4932195,352.0479 55.326041,316.25849 112.55898,280.20851 219.61732,287.64105 256.27386,344.48741 c 29.88612,46.34691 -48.33675,103.6117 -46.63564,158.73268 1.04744,33.93994 0.79639,93.6802 34.68746,95.78063 80.38766,4.9821 39.78112,-175.30779 109.69938,-215.28822 20.74838,-11.86427 71.57101,4.34707 71.57101,4.34707"
       inkscape:connector-curvature="0"
       sodipodi:nodetypes="caaaaaaaaaac" />
  </g>
</svg>
