<?xml version="1.0" encoding="UTF-8" standalone="no"?>
<!-- Created with Inkscape (http://www.inkscape.org/) -->

<svg
   xmlns:dc="http://purl.org/dc/elements/1.1/"
   xmlns:cc="http://creativecommons.org/ns#"
   xmlns:rdf="http://www.w3.org/1999/02/22-rdf-syntax-ns#"
   xmlns:svg="http://www.w3.org/2000/svg"
   xmlns="http://www.w3.org/2000/svg"
   xmlns:xlink="http://www.w3.org/1999/xlink"
   xmlns:sodipodi="http://sodipodi.sourceforge.net/DTD/sodipodi-0.dtd"
   xmlns:inkscape="http://www.inkscape.org/namespaces/inkscape"
   width="687.97266"
   height="391.32224"
   id="svg4885"
   version="1.1"
   inkscape:version="0.48+devel r"
   sodipodi:docname="curvature_color.svg">
  <defs
     id="defs4887">
    <radialGradient
       inkscape:collect="always"
       xlink:href="#linearGradient4843"
       id="radialGradient4849"
       cx="-213.35529"
       cy="551.94092"
       fx="-213.35529"
       fy="551.94092"
       r="196.11386"
       gradientTransform="matrix(-1.3181217,0.94085498,-1.0400515,-1.4570944,85.521171,1857.8732)"
       gradientUnits="userSpaceOnUse" />
    <linearGradient
       inkscape:collect="always"
       id="linearGradient4843">
      <stop
         id="stop4855"
         offset="0"
         style="stop-color:#782121;stop-opacity:1" />
      <stop
         style="stop-color:#ff0000;stop-opacity:1"
         offset="0.15053487"
         id="stop4861" />
      <stop
         style="stop-color:#ff6600;stop-opacity:1"
         offset="0.33831099"
         id="stop4859" />
      <stop
         style="stop-color:#ffcc00;stop-opacity:1"
         offset="0.51928616"
         id="stop4857" />
      <stop
         id="stop4853"
         offset="0.74968159"
         style="stop-color:#ccff00;stop-opacity:1" />
      <stop
         style="stop-color:#66ff00;stop-opacity:1"
         offset="1"
         id="stop4847" />
    </linearGradient>
    <inkscape:path-effect
       effect="skeletal"
       id="path-effect4824"
       is_visible="true"
       pattern="m 468.55238,-395.81443 c -7.77241,0.72284 -15.55638,0.59508 -23.34732,0.93083 -7.79095,0.33575 -15.58849,-0.16545 -23.38728,0.0109 -7.7988,0.17634 -15.59884,-0.96978 -23.39479,-0.72517 -7.79596,0.24461 -15.58781,0.58027 -23.37023,1.12082 -2.1523,-1.15612 -2.01174,3.78271 0.0625,2.4375 7.71127,-0.37053 15.4323,-0.53042 23.15668,-0.61261 7.72438,-0.0822 15.45212,1.213 23.1768,1.15327 7.72469,-0.0597 16.17001,-0.80459 23.88219,-1.10773 7.71218,-0.30315 14.69083,1.13589 22.3777,0.32345 1.40356,-0.22689 4.29984,-1.54077 3.09375,-3.21875 C 470.1416,-395.93055 469.29821,-395.84127 468.55238,-395.81443 Z"
       copytype="single_stretched"
       prop_scale="1"
       scale_y_rel="false"
       spacing="0"
       normal_offset="0"
       tang_offset="0"
       prop_units="false"
       vertical_pattern="false"
       fuse_tolerance="0" />
    <radialGradient
       r="196.11386"
       fy="551.94092"
       fx="-213.35529"
       cy="551.94092"
       cx="-213.35529"
       gradientTransform="matrix(-1.3181217,0.94085498,-1.0400515,-1.4570944,459.01931,1462.0325)"
       gradientUnits="userSpaceOnUse"
       id="radialGradient4883"
       xlink:href="#linearGradient4843"
       inkscape:collect="always" />
  </defs>
  <sodipodi:namedview
     id="base"
     pagecolor="#ffffff"
     bordercolor="#666666"
     borderopacity="1.0"
     inkscape:pageopacity="0.0"
     inkscape:pageshadow="2"
     inkscape:zoom="0.8203125"
     inkscape:cx="326.05312"
     inkscape:cy="120.76588"
     inkscape:document-units="px"
     inkscape:current-layer="layer1"
     showgrid="false"
     fit-margin-top="0"
     fit-margin-left="0"
     fit-margin-right="0"
     fit-margin-bottom="0" />
  <metadata
     id="metadata4890">
    <rdf:RDF>
      <cc:Work
         rdf:about="">
        <dc:format>image/svg+xml</dc:format>
        <dc:type
           rdf:resource="http://purl.org/dc/dcmitype/StillImage" />
        <dc:title></dc:title>
      </cc:Work>
    </rdf:RDF>
  </metadata>
  <g
     inkscape:label="Layer 1"
     inkscape:groupmode="layer"
     id="layer1"
     transform="translate(178.19598,-261.80583)">
    <path
       id="path4819"
       style="fill:url(#radialGradient4883);fill-opacity:1;stroke:none"
       d="m -159.26756,504.26412 c 11.43118,18.3216 24.6452,35.52995 39.27084,51.39672 1e-5,10e-6 1e-5,10e-6 2e-5,10e-6 24.498549,26.58542 53.10357,49.51753 84.948492,66.69221 7e-6,0 1.2e-5,10e-6 1.7e-5,10e-6 30.9826411,16.71391 65.25333,27.8432 100.435383,30.28932 36.192818,2.50644 72.948238,-4.7373 105.553388,-20.59967 1.12924,-0.54953 2.25157,-1.11264 3.36683,-1.689 14.75454,-7.62517 28.28103,-17.55253 40.21901,-29.07176 13.05874,-12.59579 24.27591,-27.17963 32.59227,-43.33246 1e-5,-10e-6 1e-5,-10e-6 1e-5,-2e-5 8.0797,-15.68656 13.34946,-32.97741 14.17917,-50.6607 0.84431,-18.17959 -3.31887,-36.52849 -11.82637,-52.62354 -7.93803,-15.0197 -20.68957,-27.52479 -35.99183,-34.95754 -7.50669,-3.65205 -15.76168,-5.96483 -24.17432,-6.12374 -8.64184,-0.15258 -17.28195,2.14362 -24.73522,6.51295 0,0 0,0 -1e-5,0 -6.46634,3.78931 -11.75297,9.59298 -14.83851,16.43697 -1.52565,3.36815 -2.45312,7.07045 -2.40277,10.83983 0.0639,3.87156 1.25683,7.68998 3.38196,10.91819 1.69565,2.57828 4.16318,4.63691 7.02522,5.81619 2.92931,1.23535 6.4962,1.12713 9.21871,-0.82822 0.97677,-0.73098 1.73095,-1.7363 2.15541,-2.88785 0.49579,-1.2441 0.36192,-2.75666 -0.58872,-3.97663 -0.33733,-0.38867 -0.77057,-0.67394 -1.26325,-0.83081 l 0,0 c -0.25829,-0.14216 -0.65315,0.0749 -0.99919,0.71286 -0.0138,0.0254 -0.024,0.0171 -0.0324,0.0238 -1e-5,0 -1e-5,10e-6 -2e-5,10e-6 l 0,0 c 6e-5,3e-5 1.3e-4,5e-5 1.9e-4,8e-5 0.35326,0.14873 0.70163,0.25294 1.04118,0.31344 l 0,0 1.8e-4,3e-5 0,0 c -0.0105,-0.0985 -0.0165,-0.21566 -0.0241,-0.35095 l 0,0 c -0.0215,-0.4039 -0.0336,-0.81435 -0.0425,-1.23089 l 0,0 c -0.009,-0.41409 -0.0147,-0.8175 -0.007,-1.20996 l 0,0 c 0.004,-0.13222 0.004,-0.23375 0.012,-0.30368 0,0 0,-10e-6 0,-10e-6 l 0,0 c -0.18199,-0.0509 -0.36959,-0.0826 -0.55575,-0.0934 -0.0636,-0.004 -0.12157,-0.01 -0.18204,0.0105 -0.13179,0.0447 -0.28282,0.10942 -0.43286,0.18153 l 0,0 c -5e-5,0 -10e-5,-1e-5 -1.5e-4,-1e-5 -0.39452,-0.0351 -0.78856,-0.0429 -1.17868,-0.0239 -5e-5,0 -1e-4,0 -1.5e-4,0 l 0,0 c 0.01,0.1319 0.0125,0.28137 0.0157,0.44789 l 0,0 0,2e-5 0,0 c 0.008,0.47569 0.004,0.95951 -0.004,1.45119 l 0,0 c -0.008,0.48734 -0.0194,0.97023 -0.0398,1.44836 -0.007,0.16311 -0.0139,0.31479 -0.0249,0.45468 0,0 1e-5,-1e-5 1e-5,-1e-5 0.0337,-0.0318 0.0685,-0.0734 0.10213,-0.12498 1e-5,-10e-6 1e-5,-2e-5 2e-5,-2e-5 0.0145,-0.0222 0.035,-0.0418 0.0383,-0.0732 0,-10e-6 0,-2e-5 0,-3e-5 0.3583,-0.26922 0.4986,-0.45688 0.60633,-0.50145 -0.0611,-0.0206 -0.13295,-0.0679 -0.17896,-0.11703 -0.25142,-0.18755 -0.30596,-0.62744 -0.24204,-1.08387 0.0214,-0.1529 0.0561,-0.30766 0.10119,-0.45541 0.25599,-0.69667 0.73669,-1.33571 1.33506,-1.78885 1.78305,-1.42996 4.55734,-1.43833 6.8397,-0.52769 2.39282,0.98356 4.49363,2.73969 5.92465,4.9083 1.87228,2.84051 2.93121,6.22765 2.98014,9.62339 0.0595,3.33804 -0.79857,6.69472 -2.19402,9.80301 -2.86999,6.36156 -7.8326,11.7933 -13.86182,15.32163 -7.06677,4.13391 -15.28041,6.30499 -23.4512,6.14164 -7.98311,-0.14894 -15.88386,-2.39337 -23.11401,-5.91498 C 104.90776,485.41407 92.571452,473.2478 84.93105,458.70782 76.684697,443.0123 72.678387,425.11572 73.554896,407.4506 c 0.841265,-17.21082 6.055939,-34.09142 14.002279,-49.44487 8.191048,-15.81493 19.249025,-30.10478 32.111985,-42.46298 0,-1e-5 10e-6,-1e-5 2e-5,-1e-5 12.65462,-12.14972 27.08305,-22.48086 42.83628,-30.11769 3.6419,-1.76637 7.33579,-3.42524 11.07502,-4.9751 29.23962,-12.11942 61.28118,-17.5008 92.87538,-15.33768 34.66254,2.3614 68.53053,13.32059 99.21284,29.81436 31.53687,16.95725 59.90607,39.66468 84.20213,66.02874 18.1889,19.74067 34.1602,41.57918 47.16264,65.05722 4.04734,7.98164 6.96596,13.844 9.03325,17.59618 2.06729,3.75218 3.2814,5.39286 3.61648,5.01186 0.33508,-0.381 -0.2136,-2.78794 -1.92604,-7.00575 -1.71245,-4.2178 -4.59654,-10.25103 -9.092,-17.69102 -12.97819,-23.32737 -28.85733,-45.03736 -46.91694,-64.68612 -24.43385,-26.58998 -52.9998,-49.51344 -84.80083,-66.67262 -30.94522,-16.70073 -65.16932,-27.81433 -100.29253,-30.26798 -31.19832,-2.17284 -62.81685,2.89829 -91.85203,14.47976 -4.59668,1.83351 -9.12929,3.82842 -13.58622,5.98214 -16.06871,7.76682 -30.77015,18.25748 -43.65137,30.59796 0,10e-6 -1e-5,10e-6 -2e-5,2e-5 -13.10191,12.54719 -24.379538,27.09072 -32.768938,43.2277 -1e-6,10e-6 -3e-6,10e-6 -5e-6,2e-5 -8.152418,15.67363 -13.504061,32.97779 -14.408569,50.7206 -0.918539,18.24749 3.188967,36.69824 11.687261,52.91583 7.942901,15.16014 20.752031,27.80954 36.182311,35.36016 7.5767,3.71697 15.93496,6.07879 24.48837,6.26556 8.79704,0.17423 17.59153,-2.14129 25.19228,-6.57761 6.63108,-3.8681 12.04927,-9.79782 15.22613,-16.81737 0,0 0,-10e-6 1e-5,-10e-6 1.5797,-3.46317 2.53867,-7.29473 2.49623,-11.22835 -1e-5,-10e-6 -1e-5,-2e-5 -1e-5,-2e-5 -0.0651,-4.0529 -1.30549,-8.03822 -3.52552,-11.41748 -1.7957,-2.73752 -4.40386,-4.9149 -7.44728,-6.17135 -2.24836,-0.96348 -4.84439,-1.17285 -7.26405,-0.44934 -1.00171,0.29952 -1.97382,0.75905 -2.87891,1.39186 -1.12329,0.83829 -1.9845,1.98566 -2.47503,3.31509 0,2e-5 0,2e-5 -1e-5,3e-5 -0.61858,1.49807 -0.42814,3.32683 0.76263,4.92557 0.45064,0.52083 1.02455,0.89888 1.68541,1.10893 0.95601,0.16475 2.12346,-0.25246 3.31714,-1.31416 0.0464,-0.0986 0.0748,-0.20391 0.10859,-0.30165 0.0786,-0.22717 0.15207,-0.43721 0.22291,-0.6298 0.0161,-0.21083 0.0253,-0.40159 0.0323,-0.57189 0.0223,-0.52008 0.0349,-1.03281 0.0432,-1.53783 0.009,-0.50675 0.0135,-1.02803 0.005,-1.56357 -0.002,-0.17699 -0.007,-0.38455 -0.0229,-0.62217 -0.70431,-0.10985 -1.4167,-0.26744 -2.14061,-0.47223 -1e-5,0 -1e-5,0 -2e-5,0 -0.27742,0.0598 -0.5459,0.097 -0.82567,0.12418 -0.12836,0.0125 -0.2575,0.0455 -0.37942,0.0696 -0.35706,0.0704 -0.69835,0.10762 -1.03088,0.10984 -0.0207,0.24085 -0.0263,0.42756 -0.0269,0.55921 -0.008,0.46727 -0.002,0.91556 0.007,1.34454 0,0 0,1e-5 0,2e-5 0.009,0.43532 0.0222,0.88148 0.0462,1.33805 l 0,0 c 0.007,0.13909 0.0167,0.3104 0.0364,0.51331 l 1e-5,10e-6 c 0.61175,0.20763 1.23875,0.49301 1.88495,0.85536 l 0,0 c -0.009,0.0429 -0.015,0.0997 -0.0175,0.12174 -0.0635,0.55383 0.14738,0.85737 0.4474,0.84855 -0.10753,-0.0325 -0.17705,-0.0781 -0.24504,-0.16163 0.0949,-0.12829 0.0208,0.25372 -0.0355,0.58601 -0.1903,0.51814 -0.56395,1.01359 -1.01444,1.35794 -1.41284,1.22165 -3.87492,1.19491 -5.90814,0.41138 0,0 -1e-5,-1e-5 -1e-5,-1e-5 -2.2063,-0.90414 -4.16706,-2.53815 -5.50034,-4.54902 0,-10e-6 0,-2e-5 -1e-5,-2e-5 -1.77443,-2.68248 -2.79122,-5.90016 -2.8419,-9.12061 -0.07,-3.16819 0.75065,-6.39752 2.09118,-9.41869 2.76326,-6.17184 7.57905,-11.49812 13.46209,-14.97358 6.89781,-4.07172 14.96122,-6.25801 23.01727,-6.13605 7.84202,0.10208 15.66676,2.27281 22.86819,5.72455 14.6681,7.04958 27.04914,19.055 34.77675,33.51255 0,1e-5 0,1e-5 0,2e-5 8.33618,15.60022 12.47454,33.46959 11.72491,51.13519 -0.72211,17.29491 -5.85959,34.26849 -13.70207,49.65053 -8.17519,16.0259 -19.2436,30.42665 -32.00484,42.78883 -12.3899,11.9974 -26.41068,22.12363 -41.50495,29.66254 -0.48572,0.24259 -0.97256,0.4825 -1.46052,0.71971 -16.48166,8.01414 -33.82115,13.67572 -51.40488,17.02061 -17.58374,3.34489 -35.415003,4.37423 -52.974283,3.07839 -17.488723,-1.28669 -34.641929,-4.7523 -51.239184,-9.95951 -16.597255,-5.20721 -32.640471,-12.15786 -47.909673,-20.48361 -31.128956,-16.97766 -59.274629,-39.55508 -83.87053,-66.31119 -11.1843,-12.16976 -21.65169,-25.22628 -31.20843,-39.15692 -3.3122,-4.79339 -7.40342,-10.93342 -11.35109,-17.28643 -3.94768,-6.35302 -7.74699,-12.91872 -10.79321,-18.36378 -3.04623,-5.44506 -5.3611,-9.75835 -6.53952,-11.49725 -0.58921,-0.86945 -0.89564,-1.09451 -0.84723,-0.50236 0.0484,0.59215 0.44979,2.00247 1.32296,4.38402 2.13607,5.11594 4.85984,10.81364 7.90253,16.54384 C -165.92281,493.18355 -162.56152,498.9445 -159.26756,504.26412 Z"
       inkscape:path-effect="#path-effect4824"
       inkscape:original-d="M 509.24956,448.83022 C 452.95252,322.26878 300.3855,216.60522 161.65755,283.67113 99.874712,313.5391 47.488152,391.2065 83.622442,459.40121 c 14.86736,28.05853 52.027368,52.36141 83.245108,34.04387 11.66431,-6.84423 22.07296,-23.34854 13.45368,-36.44551 -2.85653,-4.34049 -9.54961,-8.38286 -14.47527,-4.68759 -1.40005,1.05033 -2.78887,3.47268 -1.38335,5.08146 0.32573,0.37284 1.08265,0.78016 1.51761,0.32444 0.0758,-0.0793 0.17228,-4.27337 0.0524,-4.41211 -0.11993,-0.13875 -0.0235,3.66722 0.0524,3.58788 0.43496,-0.45572 1.19188,-0.0484 1.51761,0.32444 1.40552,1.60878 0.0167,4.03113 -1.38335,5.08146 -4.92566,3.69527 -11.61874,-0.3471 -14.47527,-4.68759 -8.61928,-13.09697 1.78937,-29.60128 13.45368,-36.44551 31.21774,-18.31754 68.37775,5.98534 83.24511,34.04387 36.13429,68.19471 -16.25227,145.86213 -78.03511,175.7301 -138.727948,67.0659 -291.29497,-38.59765 -347.59201,-165.15911"
       inkscape:connector-curvature="0"
       sodipodi:nodetypes="csssssscccssssssc" />
  </g>
</svg>
