<?xml version="1.0" encoding="UTF-8" standalone="no"?>
<!-- Created with Inkscape (http://www.inkscape.org/) -->

<svg
   xmlns:dc="http://purl.org/dc/elements/1.1/"
   xmlns:cc="http://creativecommons.org/ns#"
   xmlns:rdf="http://www.w3.org/1999/02/22-rdf-syntax-ns#"
   xmlns:svg="http://www.w3.org/2000/svg"
   xmlns="http://www.w3.org/2000/svg"
   xmlns:xlink="http://www.w3.org/1999/xlink"
   xmlns:sodipodi="http://sodipodi.sourceforge.net/DTD/sodipodi-0.dtd"
   xmlns:inkscape="http://www.inkscape.org/namespaces/inkscape"
   width="550.89929"
   height="390.06296"
   id="svg5111"
   version="1.1"
   inkscape:version="0.48+devel r"
   sodipodi:docname="exp_pS2.svg">
  <title
     id="title5659">Winter School -- Contact Topology</title>
  <defs
     id="defs5113">
    <inkscape:path-effect
       fuse_tolerance="0"
       vertical_pattern="false"
       prop_units="false"
       tang_offset="0"
       normal_offset="0"
       spacing="0"
       scale_y_rel="false"
       prop_scale="1"
       copytype="single_stretched"
       pattern="m -2201.2709,1615.7956 c -7.7724,0.7229 -15.5563,0.5951 -23.3473,0.9309 -7.7909,0.3357 -15.5885,-0.1655 -23.3873,0.011 -7.7988,0.1763 -15.5988,-0.9698 -23.3948,-0.7252 -7.7959,0.2446 -15.5878,0.5803 -23.3702,1.1208 -2.1523,-1.1561 -2.0117,3.7827 0.063,2.4375 7.7113,-0.3705 15.4323,-0.5304 23.1567,-0.6126 7.7244,-0.082 15.4521,1.213 23.1768,1.1533 7.7247,-0.06 16.17,-0.8046 23.8822,-1.1077 7.7122,-0.3032 14.6908,1.1358 22.3777,0.3234 1.4035,-0.2269 4.2998,-1.5408 3.0937,-3.2187 C -2199.6816,1615.6795 -2200.525,1615.7688 -2201.2709,1615.7956 Z"
       is_visible="true"
       id="path-effect1088-90"
       effect="skeletal" />
    <inkscape:path-effect
       fuse_tolerance="0"
       vertical_pattern="false"
       prop_units="false"
       tang_offset="0"
       normal_offset="0"
       spacing="0"
       scale_y_rel="false"
       prop_scale="1"
       copytype="single_stretched"
       pattern="m -2201.2709,1615.7956 c -7.7724,0.7229 -15.5563,0.5951 -23.3473,0.9309 -7.7909,0.3357 -15.5885,-0.1655 -23.3873,0.011 -7.7988,0.1763 -15.5988,-0.9698 -23.3948,-0.7252 -7.7959,0.2446 -15.5878,0.5803 -23.3702,1.1208 -2.1523,-1.1561 -2.0117,3.7827 0.063,2.4375 7.7113,-0.3705 15.4323,-0.5304 23.1567,-0.6126 7.7244,-0.082 15.4521,1.213 23.1768,1.1533 7.7247,-0.06 16.17,-0.8046 23.8822,-1.1077 7.7122,-0.3032 14.6908,1.1358 22.3777,0.3234 1.4035,-0.2269 4.2998,-1.5408 3.0937,-3.2187 C -2199.6816,1615.6795 -2200.525,1615.7688 -2201.2709,1615.7956 Z"
       is_visible="true"
       id="path-effect1096-3"
       effect="skeletal" />
    <inkscape:path-effect
       fuse_tolerance="0"
       vertical_pattern="false"
       prop_units="false"
       tang_offset="0"
       normal_offset="0"
       spacing="0"
       scale_y_rel="false"
       prop_scale="1"
       copytype="single_stretched"
       pattern="m -2201.2709,1615.7956 c -7.7724,0.7229 -15.5563,0.5951 -23.3473,0.9309 -7.7909,0.3357 -15.5885,-0.1655 -23.3873,0.011 -7.7988,0.1763 -15.5988,-0.9698 -23.3948,-0.7252 -7.7959,0.2446 -15.5878,0.5803 -23.3702,1.1208 -2.1523,-1.1561 -2.0117,3.7827 0.063,2.4375 7.7113,-0.3705 15.4323,-0.5304 23.1567,-0.6126 7.7244,-0.082 15.4521,1.213 23.1768,1.1533 7.7247,-0.06 16.17,-0.8046 23.8822,-1.1077 7.7122,-0.3032 14.6908,1.1358 22.3777,0.3234 1.4035,-0.2269 4.2998,-1.5408 3.0937,-3.2187 C -2199.6816,1615.6795 -2200.525,1615.7688 -2201.2709,1615.7956 Z"
       is_visible="true"
       id="path-effect1126-9"
       effect="skeletal" />
    <inkscape:path-effect
       fuse_tolerance="0"
       vertical_pattern="false"
       prop_units="false"
       tang_offset="0"
       normal_offset="0"
       spacing="0"
       scale_y_rel="false"
       prop_scale="1"
       copytype="single_stretched"
       pattern="m -2201.2709,1615.7956 c -7.7724,0.7229 -15.5563,0.5951 -23.3473,0.9309 -7.7909,0.3357 -15.5885,-0.1655 -23.3873,0.011 -7.7988,0.1763 -15.5988,-0.9698 -23.3948,-0.7252 -7.7959,0.2446 -15.5878,0.5803 -23.3702,1.1208 -2.1523,-1.1561 -2.0117,3.7827 0.063,2.4375 7.7113,-0.3705 15.4323,-0.5304 23.1567,-0.6126 7.7244,-0.082 15.4521,1.213 23.1768,1.1533 7.7247,-0.06 16.17,-0.8046 23.8822,-1.1077 7.7122,-0.3032 14.6908,1.1358 22.3777,0.3234 1.4035,-0.2269 4.2998,-1.5408 3.0937,-3.2187 C -2199.6816,1615.6795 -2200.525,1615.7688 -2201.2709,1615.7956 Z"
       is_visible="true"
       id="path-effect1088-90-8"
       effect="skeletal" />
    <linearGradient
       inkscape:collect="always"
       xlink:href="#linearGradient4825"
       id="linearGradient1820"
       x1="-1418.9211"
       y1="1611.8051"
       x2="-1257.4316"
       y2="1611.8051"
       gradientUnits="userSpaceOnUse"
       gradientTransform="matrix(0.9945701,-0.10406884,0.10406884,0.9945701,-175.00485,-130.51052)" />
    <linearGradient
       inkscape:collect="always"
       id="linearGradient4825">
      <stop
         style="stop-color:#000000;stop-opacity:0"
         offset="0"
         id="stop4827" />
      <stop
         id="stop4845"
         offset="0.06412536"
         style="stop-color:#000000;stop-opacity:0.15686275;" />
      <stop
         id="stop4841"
         offset="0.46409091"
         style="stop-color:#000000;stop-opacity:1" />
      <stop
         style="stop-color:#000000;stop-opacity:0.35686275;"
         offset="0.96680802"
         id="stop4843" />
      <stop
         style="stop-color:#000000;stop-opacity:0;"
         offset="1"
         id="stop4829" />
    </linearGradient>
    <inkscape:path-effect
       fuse_tolerance="0"
       vertical_pattern="false"
       prop_units="false"
       tang_offset="0"
       normal_offset="0"
       spacing="0"
       scale_y_rel="false"
       prop_scale="1"
       copytype="single_stretched"
       pattern="m -2201.2709,1615.7956 c -7.7724,0.7229 -15.5563,0.5951 -23.3473,0.9309 -7.7909,0.3357 -15.5885,-0.1655 -23.3873,0.011 -7.7988,0.1763 -15.5988,-0.9698 -23.3948,-0.7252 -7.7959,0.2446 -15.5878,0.5803 -23.3702,1.1208 -2.1523,-1.1561 -2.0117,3.7827 0.063,2.4375 7.7113,-0.3705 15.4323,-0.5304 23.1567,-0.6126 7.7244,-0.082 15.4521,1.213 23.1768,1.1533 7.7247,-0.06 16.17,-0.8046 23.8822,-1.1077 7.7122,-0.3032 14.6908,1.1358 22.3777,0.3234 1.4035,-0.2269 4.2998,-1.5408 3.0937,-3.2187 C -2199.6816,1615.6795 -2200.525,1615.7688 -2201.2709,1615.7956 Z"
       is_visible="true"
       id="path-effect1096-3-2"
       effect="skeletal" />
    <inkscape:path-effect
       fuse_tolerance="0"
       vertical_pattern="false"
       prop_units="false"
       tang_offset="0"
       normal_offset="0"
       spacing="0"
       scale_y_rel="false"
       prop_scale="1"
       copytype="single_stretched"
       pattern="m -2201.2709,1615.7956 c -7.7724,0.7229 -15.5563,0.5951 -23.3473,0.9309 -7.7909,0.3357 -15.5885,-0.1655 -23.3873,0.011 -7.7988,0.1763 -15.5988,-0.9698 -23.3948,-0.7252 -7.7959,0.2446 -15.5878,0.5803 -23.3702,1.1208 -2.1523,-1.1561 -2.0117,3.7827 0.063,2.4375 7.7113,-0.3705 15.4323,-0.5304 23.1567,-0.6126 7.7244,-0.082 15.4521,1.213 23.1768,1.1533 7.7247,-0.06 16.17,-0.8046 23.8822,-1.1077 7.7122,-0.3032 14.6908,1.1358 22.3777,0.3234 1.4035,-0.2269 4.2998,-1.5408 3.0937,-3.2187 C -2199.6816,1615.6795 -2200.525,1615.7688 -2201.2709,1615.7956 Z"
       is_visible="true"
       id="path-effect1126-9-7"
       effect="skeletal" />
  </defs>
  <sodipodi:namedview
     id="base"
     pagecolor="#ffffff"
     bordercolor="#666666"
     borderopacity="1.0"
     inkscape:pageopacity="0.0"
     inkscape:pageshadow="2"
     inkscape:zoom="0.56326389"
     inkscape:cx="94.235147"
     inkscape:cy="130.60452"
     inkscape:document-units="px"
     inkscape:current-layer="layer1"
     showgrid="false"
     fit-margin-top="0"
     fit-margin-left="0"
     fit-margin-right="0"
     fit-margin-bottom="0"
     inkscape:snap-page="true"
     inkscape:snap-center="true"
     inkscape:snap-object-midpoints="true"
     inkscape:snap-text-baseline="true"
     inkscape:snap-midpoints="true"
     inkscape:snap-smooth-nodes="true"
     inkscape:object-nodes="true"
     inkscape:snap-intersection-paths="true"
     inkscape:object-paths="true"
     inkscape:snap-bbox="true"
     inkscape:bbox-paths="true"
     inkscape:bbox-nodes="true"
     inkscape:snap-bbox-edge-midpoints="true"
     inkscape:snap-bbox-midpoints="true" />
  <metadata
     id="metadata5116">
    <rdf:RDF>
      <cc:Work
         rdf:about="">
        <dc:format>image/svg+xml</dc:format>
        <dc:type
           rdf:resource="http://purl.org/dc/dcmitype/StillImage" />
        <dc:title>Winter School -- Contact Topology</dc:title>
        <dc:date>2013</dc:date>
        <dc:creator>
          <cc:Agent>
            <dc:title>Marek Kaluba</dc:title>
          </cc:Agent>
        </dc:creator>
        <dc:rights>
          <cc:Agent>
            <dc:title>Marek Kaluba</dc:title>
          </cc:Agent>
        </dc:rights>
      </cc:Work>
    </rdf:RDF>
  </metadata>
  <g
     inkscape:label="Layer 1"
     inkscape:groupmode="layer"
     id="layer1"
     transform="translate(-160.96945,-333.1402)">
    <g
       transform="translate(1785.7974,-1095.8603)"
       id="g1853">
      <path
         inkscape:transform-center-y="-0.25567258"
         inkscape:transform-center-x="166.7285"
         style="fill:#000000;stroke:none"
         d="m -1481.9032,1674.3182 c 5.955,35.1857 22.4007,68.549 47.3846,93.9698 0,0 0,0 0,0 15.5679,15.8322 34.2663,28.5626 54.7143,37.2023 0,0 0,0 0,0 21.6797,9.1568 45.243,13.6574 68.7473,13.572 0,0 0,0 0,0 3.1998,-0.011 6.3993,-0.1177 9.5927,-0.3185 20.1738,-1.2686 40.1106,-6.2322 58.4159,-14.8033 20.0768,-9.4041 38.1208,-23.0219 52.9308,-39.5215 0,0 0,0 0,0 14.683,-16.3577 26.2337,-35.513 33.9273,-56.1158 7.05,-18.8762 10.8504,-38.9952 10.9204,-59.1485 0.01,-1.8786 -0.018,-3.7575 -0.075,-5.6357 0,0 0,0 0,0 -0.6343,-20.9526 -5.1872,-41.7681 -13.26,-61.1151 -8.0728,-19.3471 -19.6691,-37.2244 -34.3938,-52.2359 0,0 0,0 0,0 -14.3696,-14.6422 -31.5563,-26.5482 -50.3999,-34.7568 0,0 0,0 0,0 -18.7144,-8.1494 -39.0101,-12.5974 -59.4016,-13.1741 -0.9626,-0.027 -1.9254,-0.046 -2.8882,-0.056 -22.2852,-0.2355 -44.5122,4.1169 -65.2243,12.1598 -20.8121,8.0788 -40.163,19.8685 -56.8103,34.6873 0,0 -10e-5,0 -10e-5,0 -16.5447,14.7246 -30.4172,32.5176 -40.0498,52.4301 0,0 0,0 0,0 -7.376,15.2515 -12.1558,31.7417 -14.0159,48.5334 -0.9651,5.7492 -1.0512,10.054 -0.8491,12.8418 0.202,2.7877 0.6914,4.0713 1.1524,3.9348 0.461,-0.1365 0.8967,-1.6852 1.2462,-4.5616 0.3496,-2.8763 0.6152,-7.0776 0.95,-12.5969 1.9116,-16.2777 6.6163,-32.2547 13.7979,-47.0327 0,0 0,0 0,0 9.5073,-19.57 23.2111,-37.0644 39.5376,-51.5435 0,0 0,0 0,-10e-5 16.4336,-14.5715 35.5317,-26.1532 56.0479,-34.0712 20.4172,-7.8778 42.2969,-12.1214 64.1774,-11.8429 0.409,0.01 0.8179,0.012 1.2268,0.02 20.5674,0.4165 41.0648,4.8453 59.8854,13.0916 0,0 1e-4,0 1e-4,10e-5 18.4615,8.0871 35.2966,19.8043 49.3535,34.1834 0,0 0,0 0,0 14.4043,14.7272 25.7414,32.2832 33.6275,51.2715 7.8862,18.9882 12.325,39.4075 12.9267,59.9301 0,0 0,0 0,0 0.016,0.5354 0.029,1.0709 0.039,1.6064 0.4051,20.639 -3.1694,41.8565 -10.5644,61.9468 -7.4042,20.1101 -18.6276,39.1048 -33.0097,55.3472 0,10e-5 0,10e-5 0,10e-5 -14.5114,16.3874 -32.279,29.9339 -51.84,39.2128 -18.6556,8.8535 -38.8952,13.733 -58.8651,14.8149 -2.7085,0.1467 -5.4126,0.2227 -8.1087,0.2291 -23.6911,0.055 -46.7832,-4.6605 -67.7253,-13.6882 -20.1628,-8.6892 -38.3383,-21.3283 -53.5042,-36.9796 -10.9237,-11.2676 -20.2025,-24.1296 -27.6884,-38.1751 -7.4858,-14.0456 -13.1828,-29.2799 -16.7844,-45.3206 -0.8403,-3.6529 -1.8197,-8.2999 -2.6443,-13.0485 -0.8246,-4.7486 -1.4917,-9.5966 -1.9929,-13.5976 -0.5012,-4.001 -0.855,-7.1539 -1.2232,-8.4909 -0.1841,-0.6685 -0.3729,-0.8828 -0.5695,-0.5194 -0.1966,0.3633 -0.4025,1.3045 -0.5821,2.9486 -0.1483,3.6009 -0.036,7.7052 0.3033,11.9067 C -1483.1283,1666.0103 -1482.5605,1670.3073 -1481.9032,1674.3182 Z"
         id="path53-7"
         inkscape:connector-curvature="0"
         sodipodi:nodetypes="zzzzz"
         inkscape:path-effect="#path-effect1088-90-8"
         inkscape:original-d="m -1481.967,1646.7779 c 0,-93.0243 88.4367,-163.8745 176.2523,-162.6766 87.8157,1.198 156.6401,71.5332 159.1762,159.4521 2.5361,87.9189 -66.1931,174.2578 -164.5185,174.2578 C -1409.3825,1817.8112 -1481.967,1739.8022 -1481.967,1646.7779 Z" />
      <path
         inkscape:connector-curvature="0"
         id="path57-2"
         d="m -1402.8607,1723.5323 c -3.099,-13.9589 -4.7405,-28.2911 -5.842,-42.6558 -0.7742,-10.0825 -0.3795,-20.2602 0.7618,-30.3668 0.096,-0.8517 0.1992,-1.7026 0.3088,-2.5527 1.5371,-11.9068 4.39,-23.6458 8.173,-35.0601 0,0 0,0 0,0 3.6795,-11.0999 8.2422,-21.8968 13.5156,-32.3338 0.3832,-0.7583 0.7722,-1.5137 1.1669,-2.2659 0,0 0,0 0,0 5.8695,-11.1837 13.007,-21.6875 21.0926,-31.3332 7.1041,-8.4739 14.9359,-16.2913 23.3781,-23.3519 1.0183,-0.8516 2.0482,-1.6895 3.0898,-2.513 0,0 0,0 0,0 9.5418,-7.5441 20.0697,-13.8746 31.3437,-18.4603 10.0819,-4.103 20.7629,-6.7882 31.6349,-7.9503 1.7112,0.1452 2.9367,-0.016 3.7307,-0.3361 0.7939,-0.3206 1.1535,-0.8005 1.0941,-1.2594 -0.059,-0.459 -0.541,-0.8967 -1.4256,-1.1057 -0.8845,-0.209 -2.1748,-0.1885 -3.8064,0.29 -11.0424,1.1203 -21.908,3.7768 -32.194,7.877 -11.5662,4.6124 -22.3718,10.9998 -32.1633,18.6381 0,0 0,0 0,0 -0.9421,0.7349 -1.875,1.4812 -2.7987,2.2385 -8.8084,7.2207 -16.9724,15.234 -24.3547,23.9394 0,0 0,0 0,0 -8.2858,9.7699 -15.597,20.4151 -21.5926,31.7541 0,0 0,0 0,0 -0.2196,0.4153 -0.4374,0.8314 -0.6535,1.2486 -5.4766,10.5718 -10.1663,22.1427 -13.8067,34.0285 -3.6125,11.792 -6.1961,23.8993 -7.6854,35.6374 -0.1267,0.9973 -0.2458,1.9921 -0.3571,2.984 -1.1674,10.3971 -1.7427,20.4512 -1.2463,30.4475 0.3318,6.6962 0.7688,13.3706 1.4862,20.0984 0.7171,6.7277 1.7142,13.5108 3.1928,20.3867 0.5086,2.1785 1.5435,5.4647 2.5932,7.6694 1.0498,2.2046 2.0766,3.3283 2.4854,1.296 C -1401.7706,1728.3987 -1402.3945,1725.8283 -1402.8607,1723.5323 Z"
         style="fill:url(#linearGradient1820);fill-opacity:1;stroke:none" />
      <path
         style="fill:#000000;stroke:none"
         d="m -1152.3412,1656.4401 c -1.3106,2.2202 -2.825,4.3404 -4.4933,6.3368 0,0 0,0 0,0 -4.0128,4.8008 -8.9136,8.9038 -14.1938,12.4671 0,0 0,0 0,0 -12.383,8.3575 -26.6573,13.7818 -41.1774,18.0358 0,0 0,0 0,0 -5.1968,1.5196 -10.4425,2.8762 -15.7248,4.0987 -11.1442,2.5791 -22.4886,4.3717 -33.8814,5.6565 -15.9405,1.7962 -31.9886,2.5881 -48.0274,2.5167 0,0 0,0 0,0 -2.2866,-0.01 -4.5733,-0.036 -6.8599,-0.076 -14.7261,-0.2598 -29.4278,-1.608 -44.0274,-3.5531 -14.9406,-1.9923 -29.7756,-4.6029 -44.4211,-7.9096 -3.5159,-0.7939 -7.0176,-1.6468 -10.5028,-2.5644 0,0 0,0 0,0 -15.5932,-4.1244 -31.0685,-9.24 -44.3391,-18.1139 0,0 0,0 0,0 -5.193,-3.4764 -10.0145,-7.5625 -13.5862,-12.6081 0,0 0,0 0,0 -2.0604,-2.9062 -3.6605,-6.1652 -4.6237,-9.5977 -0.2258,-2.0102 -0.4863,-3.4142 -0.8544,-4.3412 -0.3681,-0.9269 -0.8408,-1.3691 -1.2992,-1.2994 -0.4584,0.07 -0.9008,0.667 -1.0393,1.7876 -0.1386,1.1207 0.037,2.7776 0.903,4.7117 1.0229,3.6394 2.6933,7.0804 4.8493,10.1527 0,0 0,0 0,0 3.7976,5.3998 8.8159,9.7365 14.1714,13.3446 0,0 0,0 10e-5,0 13.6272,9.1915 29.3579,14.5318 45.0589,18.7463 0,0 0,0 0,0 3.3288,0.8958 6.6718,1.733 10.0268,2.5163 14.9461,3.4895 30.072,6.2523 45.2835,8.3534 14.2121,1.9649 28.5365,3.3546 42.902,3.7117 2.7548,0.068 5.5345,0.1053 8.3339,0.1091 15.829,0.021 32.2608,-1.1374 48.3564,-3.2484 11.8022,-1.5466 23.4492,-3.6012 34.5395,-6.1755 5.2446,-1.2175 10.3759,-2.5056 15.4205,-3.9038 0,0 0,0 0,0 7.4661,-2.0663 14.7891,-4.3606 21.8815,-7.1861 7.0925,-2.8254 13.9606,-6.1806 20.4547,-10.4006 5.4595,-3.5481 10.6422,-7.7751 14.9908,-12.9489 1.0678,-1.2703 2.0798,-2.6006 3.0228,-3.9876 0.7619,-1.1555 1.6293,-2.685 2.3555,-4.3009 0.7262,-1.616 1.3073,-3.3154 1.6297,-4.751 0.3223,-1.4355 0.394,-2.6008 0.2082,-3.1621 -0.1858,-0.5613 -0.6088,-0.5122 -1.3906,0.3711 -0.6277,1.0554 -1.244,2.2748 -1.8956,3.5229 C -1150.9418,1653.9986 -1151.6291,1655.2755 -1152.3412,1656.4401 Z"
         id="path59-5"
         inkscape:connector-curvature="0"
         sodipodi:nodetypes="czc"
         inkscape:path-effect="#path-effect1096-3-2"
         inkscape:original-d="m -1479.8723,1645.4635 c 2.0056,46.0085 111.2893,60.8998 170.0241,61.3214 58.7348,0.4216 148.1241,-13.6323 163.5424,-57.9421" />
      <path
         sodipodi:nodetypes="czc"
         inkscape:connector-curvature="0"
         id="path61-2"
         d="m -1148.7,1632.0231 c -1.5478,-2.3594 -3.2857,-4.5817 -5.1669,-6.6534 0,0 0,0 0,0 -4.5079,-4.965 -9.7592,-9.1242 -15.3134,-12.6873 0,0 0,0 0,0 -12.9953,-8.3355 -27.5506,-13.7711 -42.2806,-17.843 0,0 0,0 0,0 -5.2751,-1.4612 -10.5951,-2.7417 -15.9486,-3.8547 -11.2944,-2.3483 -22.7005,-4.1403 -34.1469,-5.4947 -16.0162,-1.8965 -32.1573,-2.9319 -48.3006,-2.7723 0,0 -10e-5,0 -10e-5,0 -2.3001,0.023 -4.5999,0.068 -6.8987,0.1358 -14.8054,0.4361 -29.5997,1.3172 -44.3399,2.8137 -15.0845,1.5295 -30.1642,3.7113 -44.9324,7.3009 -3.5453,0.8617 -7.0759,1.7856 -10.5888,2.7775 0,0 0,0 0,0 -15.6842,4.41 -31.4142,10.0494 -44.8325,19.5336 0,0 0,0 0,0 -5.2733,3.7228 -10.1715,8.1711 -13.7744,13.6017 0,0 0,0 0,0 -2.089,3.1528 -3.6546,6.6602 -4.5373,10.3198 -0.8112,1.9737 -0.9175,3.5786 -0.736,4.6101 0.1814,1.0316 0.6433,1.5067 1.1059,1.479 0.4626,-0.028 0.9279,-0.5426 1.2821,-1.4867 0.3543,-0.9441 0.5968,-2.3114 0.7611,-4.2097 0.839,-3.283 2.286,-6.4448 4.1885,-9.2988 0,0 0,0 0,0 3.3769,-5.0763 8.0784,-9.274 13.1891,-12.8652 0,0 0,0 0,0 13.0618,-9.1667 28.5369,-14.5815 44.1127,-18.9012 0,0 0,0 0,0 3.2984,-0.9125 6.6134,-1.7646 9.9424,-2.5614 14.8305,-3.5493 29.999,-5.6561 45.1924,-7.1214 14.1954,-1.3671 28.4225,-2.173 42.6421,-2.5838 2.7268,-0.079 5.4776,-0.138 8.2479,-0.1742 15.6495,-0.2053 31.9387,0.4391 47.9717,2.0406 11.7568,1.1758 23.3762,2.8557 34.4346,5.1842 5.2295,1.1011 10.3243,2.385 15.3071,3.841 0,0 0,0 0,0 7.378,2.1591 14.542,4.6689 21.4167,7.664 6.8746,2.9952 13.4608,6.4694 19.705,10.6282 5.2376,3.488 10.2084,7.4577 14.5164,12.2054 1.0549,1.1626 2.0694,2.3745 3.0332,3.6355 0.811,1.0287 1.8341,2.3378 2.8367,3.7054 1.0026,1.3677 1.9819,2.7954 2.8134,3.9833 0.8316,1.1879 1.5238,2.1338 2.027,2.4669 0.5032,0.3332 0.8391,0.045 0.8029,-1.2313 -0.2692,-1.3127 -0.791,-2.7414 -1.4565,-4.1451 C -1147.0902,1634.6617 -1147.8984,1633.2839 -1148.7,1632.0231 Z"
         style="opacity:0.27999998;fill:#000000;stroke:none"
         inkscape:path-effect="#path-effect1126-9-7"
         inkscape:original-d="m -1479.8723,1645.2723 c 2.0056,-46.0085 111.2893,-60.8997 170.0241,-61.3214 58.7348,-0.4216 148.1241,13.6323 163.5424,57.9422" />
      <path
         transform="translate(-81.46527,107.02877)"
         d="m -1285.2569,1449.0822 c 0,3.4807 -2.8217,6.3024 -6.3024,6.3024 -3.4808,0 -6.3025,-2.8217 -6.3025,-6.3024 0,-3.4808 2.8217,-6.3025 6.3025,-6.3025 C -1288.0786,1442.7797 -1285.2569,1445.6014 -1285.2569,1449.0822 Z"
         sodipodi:ry="6.302443"
         sodipodi:rx="6.302443"
         sodipodi:cy="1449.0822"
         sodipodi:cx="-1291.5593"
         id="path1916"
         style="fill:#000000;fill-opacity:1;fill-rule:nonzero;stroke:none"
         sodipodi:type="arc" />
      <path
         inkscape:connector-curvature="0"
         id="path4971"
         d="m -1373.0246,1556.1108 59.5591,-100.0445"
         style="fill:none;stroke:#000000;stroke-width:1px;stroke-linecap:butt;stroke-linejoin:miter;stroke-opacity:1" />
      <path
         sodipodi:type="arc"
         style="fill:#000000;fill-opacity:1;fill-rule:nonzero;stroke:none"
         id="path4973"
         sodipodi:cx="-1291.5593"
         sodipodi:cy="1449.0822"
         sodipodi:rx="6.302443"
         sodipodi:ry="6.302443"
         d="m -1285.2569,1449.0822 c 0,3.4807 -2.8217,6.3024 -6.3024,6.3024 -3.4808,0 -6.3025,-2.8217 -6.3025,-6.3024 0,-3.4808 2.8217,-6.3025 6.3025,-6.3025 C -1288.0786,1442.7797 -1285.2569,1445.6014 -1285.2569,1449.0822 Z"
         transform="translate(-19.46527,55.02877)" />
      <path
         inkscape:connector-curvature="0"
         id="path4975"
         d="m -1313.4655,1456.0663 2.4409,48.0446"
         style="fill:none;stroke:#000000;stroke-width:1;stroke-linecap:butt;stroke-linejoin:miter;stroke-miterlimit:4;stroke-opacity:1;stroke-dasharray:1, 1;stroke-dashoffset:0" />
      <text
         sodipodi:linespacing="125%"
         id="text4977"
         y="1562.9966"
         x="-1351.0601"
         style="font-size:15px;font-style:normal;font-variant:normal;font-weight:500;font-stretch:normal;text-align:start;line-height:125%;letter-spacing:0px;word-spacing:0px;writing-mode:lr-tb;text-anchor:start;fill:#000000;fill-opacity:1;stroke:none;font-family:CMU Serif;-inkscape-font-specification:CMU Serif Medium"
         xml:space="preserve"><tspan
           y="1562.9966"
           x="-1351.0601"
           id="tspan4979"
           sodipodi:role="line">p</tspan></text>
      <g
         transform="translate(6.1905697,0)"
         id="g1848">
        <rect
           style="opacity:0.3;fill:#0000ff;fill-opacity:1;fill-rule:nonzero;stroke:none"
           id="rect1914"
           width="388.93509"
           height="284.20172"
           x="-789.78894"
           y="1597.5265"
           transform="matrix(1,0,-0.4470516,0.89450817,0,0)" />
        <text
           xml:space="preserve"
           style="font-size:15px;font-style:normal;font-variant:normal;font-weight:500;font-stretch:normal;text-align:start;line-height:125%;letter-spacing:0px;word-spacing:0px;writing-mode:lr-tb;text-anchor:start;fill:#000000;fill-opacity:1;stroke:none;font-family:CMU Serif;-inkscape-font-specification:CMU Serif Medium"
           x="-1124.1246"
           y="1501.9481"
           id="text4981"
           sodipodi:linespacing="125%"><tspan
             sodipodi:role="line"
             id="tspan4983"
             x="-1124.1246"
             y="1501.9481">T_pM</tspan></text>
      </g>
      <text
         sodipodi:linespacing="125%"
         id="text4985"
         y="1455.8105"
         x="-1343.245"
         style="font-size:15px;font-style:normal;font-variant:normal;font-weight:500;font-stretch:normal;text-align:start;line-height:125%;letter-spacing:0px;word-spacing:0px;writing-mode:lr-tb;text-anchor:start;fill:#000000;fill-opacity:1;stroke:none;font-family:CMU Serif;-inkscape-font-specification:CMU Serif Medium"
         xml:space="preserve"><tspan
           y="1455.8105"
           x="-1343.245"
           id="tspan4987"
           sodipodi:role="line">v</tspan></text>
      <text
         sodipodi:linespacing="125%"
         id="text4989"
         y="1526.3931"
         x="-1297.9125"
         style="font-size:15px;font-style:normal;font-variant:normal;font-weight:500;font-stretch:normal;text-align:start;line-height:125%;letter-spacing:0px;word-spacing:0px;writing-mode:lr-tb;text-anchor:start;fill:#000000;fill-opacity:1;stroke:none;font-family:CMU Serif;-inkscape-font-specification:CMU Serif Medium"
         xml:space="preserve"><tspan
           y="1526.3931"
           x="-1297.9125"
           id="tspan4991"
           sodipodi:role="line">exp_p(v)</tspan></text>
    </g>
  </g>
</svg>
