<?xml version="1.0" encoding="UTF-8" standalone="no"?>
<!-- Created with Inkscape (http://www.inkscape.org/) -->

<svg
   xmlns:dc="http://purl.org/dc/elements/1.1/"
   xmlns:cc="http://creativecommons.org/ns#"
   xmlns:rdf="http://www.w3.org/1999/02/22-rdf-syntax-ns#"
   xmlns:svg="http://www.w3.org/2000/svg"
   xmlns="http://www.w3.org/2000/svg"
   xmlns:sodipodi="http://sodipodi.sourceforge.net/DTD/sodipodi-0.dtd"
   xmlns:inkscape="http://www.inkscape.org/namespaces/inkscape"
   width="498.98132"
   height="315.85391"
   id="svg5334"
   version="1.1"
   inkscape:version="0.48+devel r"
   sodipodi:docname="gauss-curv.svg">
  <title
     id="title5882">Winter School -- Contact Topology</title>
  <defs
     id="defs5336">
    <inkscape:path-effect
       effect="skeletal"
       id="path-effect5298"
       is_visible="true"
       pattern="m -2156.463,-246.61053 c -7.7724,0.72284 -15.5564,0.59508 -23.3473,0.93083 -7.7909,0.33575 -15.5885,-0.16545 -23.3873,0.0109 -7.7988,0.17634 -15.5988,-0.96978 -23.3948,-0.72517 -7.7959,0.24461 -15.5878,0.58027 -23.3702,1.12082 -2.1523,-1.15612 -2.0117,3.78271 0.063,2.4375 7.7113,-0.37053 15.4323,-0.53042 23.1567,-0.61261 7.7244,-0.0822 15.4521,1.213 23.1768,1.15327 7.7247,-0.0597 16.17,-0.80459 23.8822,-1.10773 7.7122,-0.30315 14.6908,1.13589 22.3777,0.32345 1.4035,-0.22689 4.2998,-1.54077 3.0937,-3.21875 C -2154.8738,-246.72665 -2155.7171,-246.63737 -2156.463,-246.61053 Z"
       copytype="single_stretched"
       prop_scale="1"
       scale_y_rel="false"
       spacing="0"
       normal_offset="0"
       tang_offset="0"
       prop_units="false"
       vertical_pattern="false"
       fuse_tolerance="0" />
    <inkscape:path-effect
       effect="skeletal"
       id="path-effect5177"
       is_visible="true"
       pattern="m -1656.463,-112.61053 c -7.7724,0.72284 -15.5564,0.59508 -23.3473,0.93083 -7.7909,0.33575 -15.5885,-0.16545 -23.3873,0.0109 -7.7988,0.17634 -15.5988,-0.96978 -23.3948,-0.72517 -7.7959,0.24461 -15.5878,0.58027 -23.3702,1.12082 -2.1523,-1.15612 -2.0117,3.78271 0.063,2.4375 7.7113,-0.37053 15.4323,-0.53042 23.1567,-0.61261 7.7244,-0.0822 15.4521,1.213 23.1768,1.15327 7.7247,-0.0597 16.17,-0.80459 23.8822,-1.10773 7.7122,-0.30315 14.6908,1.13589 22.3777,0.32345 1.4035,-0.22689 4.2998,-1.54077 3.0937,-3.21875 C -1654.8738,-112.72665 -1655.7171,-112.63737 -1656.463,-112.61053 Z"
       copytype="single_stretched"
       prop_scale="1"
       scale_y_rel="false"
       spacing="0"
       normal_offset="0"
       tang_offset="0"
       prop_units="false"
       vertical_pattern="false"
       fuse_tolerance="0" />
    <inkscape:path-effect
       effect="skeletal"
       id="path-effect5278"
       is_visible="true"
       pattern="m -1584.0827,-370.38775 c -7.7724,0.72284 -15.5564,0.59508 -23.3473,0.93083 -7.791,0.33575 -15.5885,-0.16545 -23.3873,0.0109 -7.7988,0.17634 -15.5988,-0.96978 -23.3948,-0.72517 -7.7959,0.24461 -15.5878,0.58027 -23.3702,1.12082 -2.1523,-1.15612 -2.0117,3.78271 0.063,2.4375 7.7113,-0.37053 15.4323,-0.53042 23.1567,-0.61261 7.7244,-0.0822 15.4521,1.213 23.1768,1.15327 7.7247,-0.0597 16.17,-0.80459 23.8822,-1.10773 7.7121,-0.30315 14.6908,1.13589 22.3777,0.32345 1.4035,-0.22689 4.2998,-1.54077 3.0937,-3.21875 C -1582.4935,-370.50387 -1583.3369,-370.41459 -1584.0827,-370.38775 Z"
       copytype="single_stretched"
       prop_scale="1"
       scale_y_rel="false"
       spacing="0"
       normal_offset="0"
       tang_offset="0"
       prop_units="false"
       vertical_pattern="false"
       fuse_tolerance="0" />
    <inkscape:path-effect
       effect="skeletal"
       id="path-effect5290"
       is_visible="true"
       pattern="m -2084.0827,-504.38775 c -7.7724,0.72284 -15.5564,0.59508 -23.3473,0.93083 -7.791,0.33575 -15.5885,-0.16545 -23.3873,0.0109 -7.7988,0.17634 -15.5988,-0.96978 -23.3948,-0.72517 -7.7959,0.24461 -15.5878,0.58027 -23.3702,1.12082 -2.1523,-1.15612 -2.0117,3.78271 0.063,2.4375 7.7113,-0.37053 15.4323,-0.53042 23.1567,-0.61261 7.7244,-0.0822 15.4521,1.213 23.1768,1.15327 7.7247,-0.0597 16.17,-0.80459 23.8822,-1.10773 7.7121,-0.30315 14.6908,1.13589 22.3777,0.32345 1.4035,-0.22689 4.2998,-1.54077 3.0937,-3.21875 C -2082.4935,-504.50387 -2083.3369,-504.41459 -2084.0827,-504.38775 Z"
       copytype="single_stretched"
       prop_scale="1"
       scale_y_rel="false"
       spacing="0"
       normal_offset="0"
       tang_offset="0"
       prop_units="false"
       vertical_pattern="false"
       fuse_tolerance="0" />
    <inkscape:path-effect
       effect="skeletal"
       id="path-effect5298-1"
       is_visible="true"
       pattern="m -2078.444,-202.72481 c -7.7724,0.72284 -15.5564,0.59508 -23.3473,0.93083 -7.7909,0.33575 -15.5885,-0.16545 -23.3873,0.0109 -7.7988,0.17634 -15.5988,-0.96978 -23.3948,-0.72517 -7.7959,0.24461 -15.5878,0.58027 -23.3702,1.12082 -2.1523,-1.15612 -2.0117,3.78271 0.063,2.4375 7.7113,-0.37053 15.4323,-0.53042 23.1567,-0.61261 7.7244,-0.0822 15.4521,1.213 23.1768,1.15327 7.7247,-0.0597 16.17,-0.80459 23.8822,-1.10773 7.7122,-0.30315 14.6908,1.13589 22.3777,0.32345 1.4035,-0.22689 4.2998,-1.54077 3.0937,-3.21875 C -2076.8548,-202.84093 -2077.6981,-202.75165 -2078.444,-202.72481 Z"
       copytype="single_stretched"
       prop_scale="1"
       scale_y_rel="false"
       spacing="0"
       normal_offset="0"
       tang_offset="0"
       prop_units="false"
       vertical_pattern="false"
       fuse_tolerance="0" />
    <inkscape:path-effect
       effect="skeletal"
       id="path-effect5177-2"
       is_visible="true"
       pattern="m -1578.444,-68.724813 c -7.7724,0.72284 -15.5564,0.59508 -23.3473,0.93083 -7.7909,0.33575 -15.5885,-0.16545 -23.3873,0.0109 -7.7988,0.17634 -15.5988,-0.96978 -23.3948,-0.72517 -7.7959,0.24461 -15.5878,0.58027 -23.3702,1.12082 -2.1523,-1.15612 -2.0117,3.78271 0.063,2.4375 7.7113,-0.37053 15.4323,-0.53042 23.1567,-0.61261 7.7244,-0.0822 15.4521,1.213 23.1768,1.15327 7.7247,-0.0597 16.17,-0.80459 23.8822,-1.10773 7.7122,-0.30315 14.6908,1.13589 22.3777,0.32345 1.4035,-0.22689 4.2998,-1.54077 3.0937,-3.21875 C -1576.8548,-68.840933 -1577.6981,-68.751653 -1578.444,-68.724813 Z"
       copytype="single_stretched"
       prop_scale="1"
       scale_y_rel="false"
       spacing="0"
       normal_offset="0"
       tang_offset="0"
       prop_units="false"
       vertical_pattern="false"
       fuse_tolerance="0" />
  </defs>
  <sodipodi:namedview
     id="base"
     pagecolor="#ffffff"
     bordercolor="#666666"
     borderopacity="1.0"
     inkscape:pageopacity="0.0"
     inkscape:pageshadow="2"
     inkscape:zoom="1.3594887"
     inkscape:cx="225.10637"
     inkscape:cy="144.87109"
     inkscape:document-units="px"
     inkscape:current-layer="layer1"
     showgrid="false"
     fit-margin-top="0"
     fit-margin-left="0"
     fit-margin-right="0"
     fit-margin-bottom="0" />
  <metadata
     id="metadata5339">
    <rdf:RDF>
      <cc:Work
         rdf:about="">
        <dc:format>image/svg+xml</dc:format>
        <dc:type
           rdf:resource="http://purl.org/dc/dcmitype/StillImage" />
        <dc:title>Winter School -- Contact Topology</dc:title>
        <dc:date>2013</dc:date>
        <dc:creator>
          <cc:Agent>
            <dc:title>Marek Kaluba</dc:title>
          </cc:Agent>
        </dc:creator>
        <dc:rights>
          <cc:Agent>
            <dc:title>Marek Kaluba</dc:title>
          </cc:Agent>
        </dc:rights>
      </cc:Work>
    </rdf:RDF>
  </metadata>
  <g
     inkscape:label="Layer 1"
     inkscape:groupmode="layer"
     id="layer1"
     transform="translate(-102.81427,-268.44763)">
    <path
       sodipodi:nodetypes="cc"
       inkscape:connector-curvature="0"
       id="path5288"
       d="m 114.30574,422.71038 c 0.19096,-0.13442 0.38319,-0.26775 0.57656,-0.40005 0,0 0,0 0,0 5.38904,-3.68428 11.49639,-6.41486 17.76068,-8.82473 0,0 0,0 1e-5,0 8.20322,-3.14666 16.69602,-5.60696 25.2835,-7.75313 10.37242,-2.591 20.88196,-4.68467 31.44771,-6.50826 14.15137,-2.44236 28.39078,-4.40807 42.67761,-6.08442 11.18285,-1.31215 22.40502,-2.34963 33.64118,-3.2062 28.63113,-2.18216 57.35773,-3.12192 86.08824,-3.5034 0,0 0,0 1e-5,0 1.09011,-0.0145 2.18025,-0.0281 3.27041,-0.041 27.6239,-0.32642 55.25258,0.75506 82.79008,2.64114 13.43241,0.92047 26.84709,2.01416 40.23019,3.31612 12.09155,1.1763 24.14752,2.63634 36.14687,4.47306 10.59988,1.62258 21.14608,3.54371 31.56207,6.00222 8.66049,2.04536 17.23201,4.43355 25.51836,7.58054 0,0 0,0 0,0 6.41547,2.44153 12.69067,5.27666 18.24719,9.19182 0,0 0,0 0,0 1.85581,1.30749 3.62228,2.73426 5.20438,4.33292 0.25357,0.32504 0.49442,0.63692 0.72387,0.93581 1.40994,1.83917 2.39468,3.17853 3.17286,4.02513 0.77817,0.84659 1.36582,1.19923 1.73938,1.00203 0.37356,-0.19719 0.52219,-0.96696 0.14644,-2.20138 -0.37574,-1.23442 -1.30834,-2.93338 -3.04317,-4.61698 -0.37405,-0.36367 -0.78339,-0.72708 -1.22882,-1.08505 -1.63504,-1.63279 -3.41882,-3.08237 -5.2688,-4.3931 -1e-5,0 -1e-5,0 -1e-5,0 -5.80056,-4.10909 -12.2496,-7.07215 -18.76061,-9.56801 -1e-5,0 -1e-5,0 -1e-5,0 -8.41968,-3.23555 -17.09179,-5.69471 -25.81506,-7.79057 -10.4962,-2.52311 -21.10747,-4.5029 -31.75421,-6.17673 -11.78925,-1.85352 -23.62868,-3.3447 -35.49734,-4.55972 -13.69243,-1.40172 -27.41095,-2.58344 -41.13914,-3.57834 -26.96478,-1.95482 -54.01465,-3.124 -81.05333,-2.91798 -1.73499,0.0132 -3.4768,0.0309 -5.22479,0.0531 -13.99341,0.17697 -28.38754,0.64034 -42.86618,1.38209 -14.47864,0.74174 -29.04139,1.7625 -43.37849,3.01596 -11.65534,1.01877 -23.16777,2.18164 -34.36201,3.4955 -14.47466,1.69888 -28.43907,3.47621 -42.21123,5.636 -10.66919,1.67312 -21.22929,3.58443 -31.75484,6.05629 -8.61123,2.02125 -17.23089,4.40409 -25.72869,7.61232 -5.16977,1.94685 -10.35902,4.19571 -15.25603,7.13293 -0.95399,0.58576 -2.03541,1.30441 -3.14335,2.12357 -2.07646,1.53445 -4.22865,3.48055 -5.77864,5.43485 -0.80289,1.01072 -1.44657,2.02259 -1.88661,2.91602 -0.44004,0.89342 -0.6794,1.6654 -0.74648,2.20472 -0.0671,0.53931 0.0303,0.84338 0.27512,0.85309 0.24481,0.01 0.63138,-0.27482 1.26531,-0.83918 0.85238,-1.0267 1.86687,-2.1255 3.00758,-3.22546 C 110.73231,425.36962 112.52052,423.93712 114.30574,422.71038 Z"
       style="fill:#666666;stroke:none"
       inkscape:path-effect="#path-effect5290"
       inkscape:original-d="M 599.9775,430.0705 C 571.8311,365.77968 131.5999,374.62189 103.8837,430.43438" />
    <path
       inkscape:original-d="m 271.0311,544.16394 c 8.0732,-43.97302 155.6703,-48.03246 162.9384,0.13395"
       inkscape:path-effect="#path-effect5278"
       style="fill:#666666;stroke:none"
       d="m 434.75529,538.80758 c -0.57069,-1.35705 -1.24454,-2.66333 -2.01216,-3.90618 0,0 0,0 0,0 -1.75916,-2.83866 -3.95031,-5.32562 -6.37766,-7.48208 0,0 0,0 0,0 -5.64757,-5.00448 -12.3896,-8.4266 -19.29312,-10.94083 0,0 0,0 0,-10e-6 -3.21377,-1.1758 -6.48474,-2.16477 -9.79442,-2.98104 -5.21134,-1.28528 -10.48005,-2.29957 -15.7681,-3.09691 -9.49934,-1.43461 -19.12135,-2.1539 -28.72293,-1.93342 0,0 0,0 0,0 -0.23457,0.005 -0.46914,0.0113 -0.70369,0.0178 -9.39363,0.26 -18.80787,0.66536 -28.15596,1.96856 -5.75762,0.80079 -11.50602,1.94166 -17.0852,3.68104 -2.90691,0.90627 -5.77994,1.92488 -8.6049,3.07263 0,0 0,0 0,0 -6.83883,2.76528 -13.52983,6.34423 -19.02085,11.40791 0,0 0,0 -10e-6,0 -2.29595,2.11896 -4.35744,4.53313 -5.94645,7.24679 0,0 0,0 0,0 -0.94744,1.61917 -1.71049,3.34623 -2.24682,5.13584 -0.61918,0.93041 -0.72295,1.75585 -0.56103,2.3188 0.16193,0.56295 0.58513,0.87306 1.0429,0.9327 0.45776,0.0597 0.94925,-0.12075 1.30473,-0.53491 0.35547,-0.41416 0.57268,-1.0561 0.55765,-2.04305 0.48962,-1.55293 1.17679,-3.06021 2.02069,-4.48089 0,0 0,0 0,0 1.45246,-2.4482 3.37918,-4.65026 5.54292,-6.61828 0,0 0,0 0,0 5.19572,-4.73015 11.64803,-8.0645 18.3293,-10.7093 0,0 0,0 0,0 2.66879,-1.05322 5.38491,-1.98844 8.13602,-2.82141 5.54935,-1.68022 11.28795,-2.74989 17.05083,-3.48928 8.96388,-1.14772 17.98328,-1.46745 26.98497,-1.68105 0.46447,-0.011 0.93035,-0.0211 1.39754,-0.0303 9.16803,-0.17753 18.84764,0.0437 28.30262,1.13526 5.4048,0.62583 10.73461,1.51816 15.78631,2.78248 3.21968,0.8058 6.30831,1.82187 9.27801,3.02036 10e-6,0 10e-6,0 10e-6,0 3.35473,1.35841 6.57356,2.93965 9.57903,4.76964 3.00547,1.82999 5.79769,3.90411 8.32702,6.30527 2.12607,2.01336 4.05478,4.24443 5.62489,6.76335 0.40167,0.6425 0.7803,1.3057 1.13404,1.98865 0.31343,0.56249 0.73303,1.26972 1.16958,2.00379 0.43654,0.73407 0.88919,1.49588 1.32148,2.13155 0.43229,0.63566 0.84797,1.14531 1.24441,1.33275 0.39644,0.18744 0.78416,0.0512 1.08843,-0.64073 C 435.86876,542.00032 435.32431,540.27027 434.75529,538.80758 Z"
       id="path5158"
       inkscape:connector-curvature="0"
       sodipodi:nodetypes="cc" />
    <path
       inkscape:original-d="m 433.96951,548.10853 c 0,0 -11.5256,-256.4456 -80.6029,-256.4456 -66.5919,0 -82.3355,256.57955 -82.3355,256.57955 C 279.10431,592.2155 426.70141,596.27494 433.96951,548.10853 Z"
       inkscape:path-effect="#path-effect5177-2"
       sodipodi:nodetypes="cscc"
       inkscape:connector-curvature="0"
       id="path5156"
       d="m 422.8475,562.99375 c -4.79053,4.3017 -10.74963,7.38749 -16.95494,9.8356 -7.91326,3.10266 -16.2982,5.06396 -24.79453,6.36819 0,0 -10e-6,0 -10e-6,0 -9.33239,1.42899 -18.80387,2.02143 -28.2757,1.94092 0,0 0,0 -10e-6,0 -9.49698,-0.082 -18.99127,-0.84226 -28.35832,-2.38512 0,0 0,0 -1e-5,0 -8.56053,-1.41238 -17.01925,-3.44729 -25.0812,-6.52783 -1e-5,-10e-6 -1e-5,-10e-6 -1e-5,-10e-6 -6.68403,-2.56468 -13.15067,-5.77816 -18.44537,-10.39855 -2.20324,-1.92062 -4.18598,-4.07792 -5.71816,-6.50501 -1.41473,-2.1879 -2.44924,-4.61821 -2.93032,-7.14779 0.2459,-3.49906 0.49037,-7.00036 0.7331,-10.50445 0.009,-0.12304 0.017,-0.24609 0.0256,-0.36913 0,-10e-6 0,-10e-6 0,-10e-6 0.72042,-9.69144 1.5944,-19.37448 2.58985,-29.04711 0,0 0,-10e-6 0,-10e-6 3.03854,-29.52237 7.153,-58.94879 12.77816,-88.08645 3.05007,-15.79801 6.54699,-31.50738 10.82548,-46.99973 1.17629,-4.25748 2.40598,-8.50114 3.71257,-12.71796 2.9784,-9.61231 6.41058,-19.06887 10.56353,-28.20164 2.54425,-5.59484 5.36114,-11.05674 8.62577,-16.22236 2.80908,-4.44108 5.93258,-8.66934 9.57294,-12.3642 0,0 0,0 1e-5,0 3.09449,-3.13477 6.55369,-5.89655 10.42153,-7.77414 3.50825,-1.70839 7.38147,-2.66625 11.22917,-2.62805 3.98527,0.0284 7.96239,1.03798 11.55007,2.8078 3.89522,1.91348 7.3702,4.70272 10.47077,7.87239 0,0 10e-6,0 10e-6,0 3.61224,3.70056 6.69822,7.93645 9.47168,12.38983 0,0 0,0 10e-6,10e-6 3.20799,5.15747 5.96521,10.61087 8.46145,16.19824 3.85199,8.62243 7.07638,17.52497 9.93549,26.56983 1.48375,4.69388 2.86063,9.42861 4.16519,14.18378 4.23203,15.43662 7.61943,31.11341 10.54017,46.88138 5.38993,29.10097 9.1979,58.49092 12.08316,87.95644 0.91549,9.3506 1.73229,18.70936 2.42694,28.07598 -0.001,0.32032 -0.001,0.63393 5.7e-4,0.94086 0.0216,3.62357 0.2673,6.3167 0.61511,8.12726 l 0,0 c 0.1816,0.94537 0.39088,1.64957 0.60973,2.11893 l 0,0 c 0.11177,0.23971 0.22603,0.41808 0.34032,0.5359 l 0,0 0,0 c 0.0578,0.0595 0.11552,0.10359 0.17297,0.13225 0.0289,0.0144 0.0577,0.0249 0.0864,0.0315 0.0585,0.0135 0.11648,0.0108 0.1736,-0.008 0.0281,-0.009 0.056,-0.0224 0.0836,-0.0395 0,0 0,0 0,0 0.0551,-0.034 0.10909,-0.0835 0.16168,-0.14825 l 0,0 c 0,0 0,0 0,0 l 0,0 c 0.10462,-0.129 0.20355,-0.31895 0.29372,-0.56866 l 0,0 1e-5,0 c 0.17837,-0.49396 0.32243,-1.22317 0.40815,-2.17991 l 0,0 c 0.16749,-1.86922 0.11238,-4.6113 -0.34684,-8.16839 -0.0593,-0.45908 -0.12525,-0.93176 -0.19835,-1.41791 -0.66282,-9.22819 -1.44313,-18.44753 -2.31875,-27.65755 -2.80674,-29.52779 -6.54086,-59.0044 -11.86593,-88.22074 -2.88529,-15.83141 -6.24631,-31.59584 -10.46252,-47.14708 -1.19628,-4.41414 -2.45746,-8.81698 -3.81075,-13.19277 -2.94351,-9.51766 -6.28793,-18.91743 -10.33044,-28.04616 -2.51903,-5.68861 -5.32699,-11.27475 -8.61509,-16.59791 0,0 0,0 0,0 -2.83758,-4.59732 -6.05102,-9.01836 -9.85669,-12.94683 -3.26623,-3.37663 -7.02192,-6.38249 -11.31666,-8.52238 -3.98992,-1.98146 -8.42616,-3.10834 -12.92874,-3.15659 -4.38872,-0.0361 -8.74208,1.02358 -12.66738,2.93627 -4.28665,2.09557 -8.04715,5.06432 -11.32163,8.39439 0,0 0,10e-6 -10e-6,10e-6 -3.85517,3.91119 -7.13074,8.31535 -10.02693,12.89025 -3.37282,5.32115 -6.26992,10.90856 -8.8653,16.59757 -3.83712,8.41027 -7.06671,17.06345 -9.88623,25.83278 -1.64406,5.11338 -3.16726,10.30775 -4.60581,15.55148 -4.22085,15.37404 -7.66994,31.25787 -10.63157,47.31778 -5.4085,29.32551 -9.22333,59.27838 -12.06999,88.42476 -0.95818,9.80944 -1.80338,19.53172 -2.51933,29.11842 -0.0302,0.45494 -0.0605,0.90953 -0.0907,1.36375 -0.21886,3.28731 -0.44179,6.55532 -0.66818,9.80757 0.54559,2.95408 1.68423,5.75276 3.23429,8.26065 1.68091,2.67483 3.80078,5.01345 6.12445,7.05495 5.62602,4.93912 12.31317,8.33634 19.09545,10.98741 8.28101,3.2472 16.8802,5.41153 25.53012,6.93137 9.50755,1.67283 19.12741,2.55478 28.78492,2.7347 9.56816,0.17949 19.20053,-0.32837 28.80429,-1.73442 8.59772,-1.25568 17.22704,-3.22353 25.53956,-6.46197 4.36741,-1.69334 8.69714,-3.76509 12.68834,-6.4185 1.89908,-1.28196 4.10769,-3.01189 6.15519,-5.09014 1.1346,-1.15327 2.21064,-2.41794 3.15107,-3.73612 0.94044,-1.31818 1.74395,-2.68934 2.37236,-4.03157 0.77752,-1.66225 1.27499,-3.27208 1.54819,-4.63869 0.27319,-1.36661 0.32785,-2.4884 0.26524,-3.22283 -0.0626,-0.73442 -0.23394,-1.08218 -0.47666,-0.95323 -0.24272,0.12895 -0.54947,0.73688 -1.07186,1.85738 -0.62912,1.81248 -1.47035,3.75919 -2.58612,5.6368 -1.42954,2.41592 -3.34267,4.73044 -5.42517,6.69685 C 423.4497,562.45225 423.14948,562.72681 422.8475,562.99375 Z"
       style="color:#000000;color-interpolation:sRGB;color-interpolation-filters:linearRGB;fill:#000000;fill-opacity:1;fill-rule:nonzero;stroke:none;stroke-width:1;marker:none;visibility:visible;display:inline;overflow:visible;enable-background:accumulate;clip-rule:nonzero" />
    <path
       style="fill:#000000;stroke:none"
       d="m 323.49948,290.05119 c -32.4355,2.63873 -64.55267,9.34192 -94.68685,21.61613 -28.20371,11.49341 -54.46614,27.94419 -76.5492,48.95453 -15.11649,14.39102 -28.32926,30.83484 -38.77074,48.91773 -2.64241,5.61078 -5.28324,11.21613 -7.92207,16.8141 -0.91839,1.94824 -1.83717,3.8955 -2.75635,5.84195 1.03183,2.22454 2.44879,4.18556 4.0208,5.9174 1.90537,1.89647 4.03779,3.51264 6.24687,4.94965 0,0 0,0 1e-5,10e-6 5.78976,3.76757 12.13885,6.49766 18.53456,8.85043 0,0 1e-5,0 1e-5,0 8.39452,3.09369 17.00839,5.50867 25.67055,7.61139 10.47203,2.54294 21.04904,4.60974 31.66191,6.40428 25.35525,4.28748 50.94316,7.07015 76.56841,9.06021 28.69039,2.22862 57.46352,3.40172 86.23995,3.637 1.9076,0.0156 3.81527,0.0271 5.72298,0.0344 26.85665,0.10284 53.72175,-0.44653 80.5476,-1.92544 25.65034,-1.41343 51.29983,-3.61863 76.72966,-7.57698 0,-1e-5 0,-1e-5 1e-5,-1e-5 10.6591,-1.65908 21.28833,-3.63791 31.80352,-6.18068 8.73503,-2.11073 17.42635,-4.6027 25.86206,-7.88986 0,0 10e-6,-10e-6 10e-6,-10e-6 6.51959,-2.532 12.98839,-5.55624 18.79855,-9.73835 2.28774,-1.64695 4.4746,-3.5128 6.40231,-5.67621 1.66651,-2.09975 3.12371,-4.45551 4.17155,-7.0586 -0.18659,-0.77765 -0.37324,-1.5551 -0.55994,-2.33229 -0.58958,-1.55165 -1.22123,-3.07862 -1.87636,-4.58658 -1.31947,-3.03572 -2.74384,-6.02033 -4.25325,-8.95711 -1.25548,-2.44271 -2.56873,-4.85287 -3.92836,-7.23259 -10.33801,-18.09564 -23.45122,-34.54119 -38.48688,-48.90382 -21.96535,-20.98038 -48.14439,-37.3374 -76.24527,-48.63157 -33.59694,-13.49738 -69.6383,-19.87574 -105.72679,-21.24319 -6.1845,-0.56147 -10.74424,-0.53486 -13.70668,-0.28477 -2.96243,0.25008 -4.33252,0.7257 -4.18652,1.18673 0.146,0.46104 1.80554,0.90868 4.90829,1.2019 3.10274,0.29322 7.64701,0.43144 13.59875,0.36733 35.61897,1.48423 71.11181,7.87404 104.11616,21.22058 27.78751,11.23246 53.64739,27.45413 75.29099,48.21164 14.82359,14.21593 27.73694,30.46881 37.89034,48.32099 1.05213,1.84999 2.07498,3.7162 3.06296,5.59965 1.77401,3.38192 3.43345,6.82054 4.94599,10.32101 0.63597,1.47147 1.24495,2.95046 1.80831,4.44253 0.19513,0.40333 0.39023,0.8065 0.58528,1.20945 -0.87578,1.88875 -2.1572,3.61187 -3.64416,5.16192 -1.74158,1.95618 -3.77028,3.67166 -5.92829,5.22601 -5.50082,3.96244 -11.75221,6.85211 -18.15026,9.33835 0,10e-6 -10e-6,10e-6 -10e-6,10e-6 -8.26693,3.20614 -16.83296,5.64026 -25.48862,7.71768 -10.41455,2.49831 -20.96376,4.44075 -31.56481,6.07223 0,0 -10e-6,0 -10e-6,0 -25.29683,3.89295 -50.8423,6.04453 -76.4227,7.42 -1e-5,0 -1e-5,0 -1e-5,0 -25.34365,1.36177 -50.72582,1.89699 -76.10721,1.84429 -3.30081,-0.007 -6.61314,-0.0246 -9.93602,-0.0532 -28.12034,-0.24221 -56.99512,-1.26885 -86.0362,-3.36171 -25.50522,-1.83881 -51.14032,-4.44637 -76.36845,-8.55775 -1e-5,0 -1e-5,-1e-5 -2e-5,-1e-5 -10.61652,-1.73022 -21.1533,-3.73012 -31.51874,-6.19458 -8.65795,-2.0594 -17.19619,-4.41782 -25.43574,-7.42579 -6.35425,-2.32448 -12.55303,-4.96795 -18.09057,-8.57006 -1e-5,0 -1e-5,-10e-6 -1e-5,-10e-6 -2.12332,-1.38169 -4.13489,-2.89647 -5.88645,-4.64293 0,-10e-6 -1e-5,-10e-6 -1e-5,-10e-6 -1.44379,-1.28048 -2.7172,-2.70727 -3.59317,-4.31165 1.12808,-2.28392 2.25355,-4.56334 3.37627,-6.83772 2.43598,-4.93478 4.86362,-9.8449 7.28364,-14.72802 10.51722,-18.13309 23.68847,-34.19909 38.51984,-48.12419 11.0423,-10.37285 23.05199,-19.51621 35.78594,-27.4806 12.73396,-7.96439 26.1944,-14.7508 40.19385,-20.35874 26.37892,-10.57206 54.54547,-17.02858 84.10829,-20.24803 3.99562,-0.45491 9.06003,-1.00615 14.20384,-1.5022 5.14381,-0.49606 10.36597,-0.93747 14.65955,-1.32316 4.29357,-0.3857 7.65839,-0.72513 9.08284,-1.09024 1.42446,-0.36511 0.91029,-0.77427 -2.57332,-1.1672 -3.81816,-0.18511 -8.16876,-0.18103 -12.63926,-0.0361 C 332.39213,289.43578 327.8026,289.72248 323.49948,290.05119 Z"
       id="path5286"
       inkscape:connector-curvature="0"
       sodipodi:nodetypes="zccz"
       inkscape:path-effect="#path-effect5298-1"
       inkscape:original-d="m 352.815,291.1477 c 200.311,0 247.1625,141.40729 247.1625,141.40729 C 571.8311,496.8458 131.5999,488.0036 103.8837,432.19111 103.8837,432.19111 152.504,291.1477 352.815,291.1477 Z" />
    <path
       sodipodi:type="arc"
       style="fill:#000000;fill-opacity:1;fill-rule:nonzero;stroke:none"
       id="path821"
       sodipodi:cx="244.94714"
       sodipodi:cy="-15.859125"
       sodipodi:rx="5.5564008"
       sodipodi:ry="5.5564008"
       d="m 250.50354,-15.859125 c 0,3.068715 -2.48768,5.556401 -5.5564,5.556401 -3.06871,0 -5.5564,-2.487686 -5.5564,-5.556401 0,-3.068716 2.48769,-5.556401 5.5564,-5.556401 C 248.01586,-21.415526 250.50354,-18.927841 250.50354,-15.859125 Z"
       transform="translate(110.0911,307.70986)" />
    <text
       xml:space="preserve"
       style="font-size:15px;font-style:normal;font-variant:normal;font-weight:500;font-stretch:normal;text-align:start;line-height:125%;letter-spacing:0px;word-spacing:0px;writing-mode:lr-tb;text-anchor:start;fill:#000000;fill-opacity:1;stroke:none;font-family:CMU Serif;-inkscape-font-specification:CMU Serif Medium"
       x="260.35834"
       y="-14.107141"
       id="text823"
       sodipodi:linespacing="125%"
       transform="translate(102.81427,289.18477)"><tspan
         sodipodi:role="line"
         id="tspan825"
         x="260.35834"
         y="-14.107141">p</tspan></text>
    <text
       xml:space="preserve"
       style="font-size:15px;font-style:normal;font-variant:normal;font-weight:500;font-stretch:normal;text-align:start;line-height:125%;letter-spacing:0px;word-spacing:0px;writing-mode:lr-tb;text-anchor:start;fill:#000000;fill-opacity:1;stroke:none;font-family:CMU Serif;-inkscape-font-specification:CMU Serif Medium"
       x="483.17508"
       y="180.82475"
       id="text827"
       sodipodi:linespacing="125%"
       transform="translate(102.81427,289.18477)"><tspan
         sodipodi:role="line"
         id="tspan829"
         x="483.17508"
         y="180.82475">M</tspan></text>
    <text
       xml:space="preserve"
       style="font-size:15px;font-style:normal;font-variant:normal;font-weight:500;font-stretch:normal;text-align:start;line-height:125%;letter-spacing:0px;word-spacing:0px;writing-mode:lr-tb;text-anchor:start;fill:#000000;fill-opacity:1;stroke:none;font-family:CMU Serif;-inkscape-font-specification:CMU Serif Medium"
       x="335.26376"
       y="284.64987"
       id="text831"
       sodipodi:linespacing="125%"
       transform="translate(102.81427,289.18477)"><tspan
         sodipodi:role="line"
         id="tspan833"
         x="335.26376"
         y="284.64987">N</tspan></text>
  </g>
</svg>
