<?xml version="1.0" encoding="UTF-8" standalone="no"?>
<!-- Created with Inkscape (http://www.inkscape.org/) -->

<svg
   xmlns:dc="http://purl.org/dc/elements/1.1/"
   xmlns:cc="http://creativecommons.org/ns#"
   xmlns:rdf="http://www.w3.org/1999/02/22-rdf-syntax-ns#"
   xmlns:svg="http://www.w3.org/2000/svg"
   xmlns="http://www.w3.org/2000/svg"
   xmlns:sodipodi="http://sodipodi.sourceforge.net/DTD/sodipodi-0.dtd"
   xmlns:inkscape="http://www.inkscape.org/namespaces/inkscape"
   width="603.57385"
   height="542.74799"
   id="svg2208"
   version="1.1"
   inkscape:version="0.48+devel r"
   sodipodi:docname="geod-rot.svg">
  <title
     id="title2756">Winter School -- Contact Topology</title>
  <defs
     id="defs2210">
    <inkscape:path-effect
       effect="skeletal"
       id="path-effect1759"
       is_visible="true"
       pattern="m 3042.8187,2134.563 c -7.7724,0.7229 -15.5563,0.5951 -23.3473,0.9309 -7.7909,0.3357 -15.5885,-0.1655 -23.3873,0.011 -7.7988,0.1763 -15.5988,-0.9698 -23.3948,-0.7252 -7.7959,0.2446 -15.5878,0.5803 -23.3702,1.1208 -2.1523,-1.1561 -2.0117,3.7827 0.063,2.4375 7.7113,-0.3705 15.4323,-0.5304 23.1567,-0.6126 7.7244,-0.082 15.4521,1.213 23.1768,1.1533 7.7247,-0.06 16.17,-0.8046 23.8822,-1.1077 7.7122,-0.3032 14.6908,1.1358 22.3777,0.3234 1.4035,-0.2269 4.2998,-1.5408 3.0937,-3.2187 C 3044.408,2134.4469 3043.5646,2134.5362 3042.8187,2134.563 Z"
       copytype="single_stretched"
       prop_scale="1"
       scale_y_rel="false"
       spacing="0"
       normal_offset="0"
       tang_offset="0"
       prop_units="false"
       vertical_pattern="false"
       fuse_tolerance="0" />
    <inkscape:path-effect
       effect="skeletal"
       id="path-effect1756"
       is_visible="true"
       pattern="m 3042.8187,2134.563 c -7.7724,0.7229 -15.5563,0.5951 -23.3473,0.9309 -7.7909,0.3357 -15.5885,-0.1655 -23.3873,0.011 -7.7988,0.1763 -15.5988,-0.9698 -23.3948,-0.7252 -7.7959,0.2446 -15.5878,0.5803 -23.3702,1.1208 -2.1523,-1.1561 -2.0117,3.7827 0.063,2.4375 7.7113,-0.3705 15.4323,-0.5304 23.1567,-0.6126 7.7244,-0.082 15.4521,1.213 23.1768,1.1533 7.7247,-0.06 16.17,-0.8046 23.8822,-1.1077 7.7122,-0.3032 14.6908,1.1358 22.3777,0.3234 1.4035,-0.2269 4.2998,-1.5408 3.0937,-3.2187 C 3044.408,2134.4469 3043.5646,2134.5362 3042.8187,2134.563 Z"
       copytype="single_stretched"
       prop_scale="1"
       scale_y_rel="false"
       spacing="0"
       normal_offset="0"
       tang_offset="0"
       prop_units="false"
       vertical_pattern="false"
       fuse_tolerance="0" />
    <inkscape:path-effect
       fuse_tolerance="0"
       vertical_pattern="false"
       prop_units="false"
       tang_offset="0"
       normal_offset="0"
       spacing="0"
       scale_y_rel="false"
       prop_scale="1"
       copytype="single_stretched"
       pattern="m 3042.8187,2104.563 c -7.7724,0.7229 -15.5563,0.5951 -23.3473,0.9309 -7.7909,0.3357 -15.5885,-0.1655 -23.3873,0.011 -7.7988,0.1763 -15.5988,-0.9698 -23.3948,-0.7252 -7.7959,0.2446 -15.5878,0.5803 -23.3702,1.1208 -2.1523,-1.1561 -2.0117,3.7827 0.063,2.4375 7.7113,-0.3705 15.4323,-0.5304 23.1567,-0.6126 7.7244,-0.082 15.4521,1.213 23.1768,1.1533 7.7247,-0.06 16.17,-0.8046 23.8822,-1.1077 7.7122,-0.3032 14.6908,1.1358 22.3777,0.3234 1.4035,-0.2269 4.2998,-1.5408 3.0937,-3.2187 C 3044.408,2104.4469 3043.5646,2104.5362 3042.8187,2104.563 Z"
       is_visible="true"
       id="path-effect1753"
       effect="skeletal" />
    <inkscape:path-effect
       fuse_tolerance="0"
       vertical_pattern="false"
       prop_units="false"
       tang_offset="0"
       normal_offset="0"
       spacing="0"
       scale_y_rel="false"
       prop_scale="1"
       copytype="single_stretched"
       pattern="m 3042.8187,2104.563 c -7.7724,0.7229 -15.5563,0.5951 -23.3473,0.9309 -7.7909,0.3357 -15.5885,-0.1655 -23.3873,0.011 -7.7988,0.1763 -15.5988,-0.9698 -23.3948,-0.7252 -7.7959,0.2446 -15.5878,0.5803 -23.3702,1.1208 -2.1523,-1.1561 -2.0117,3.7827 0.063,2.4375 7.7113,-0.3705 15.4323,-0.5304 23.1567,-0.6126 7.7244,-0.082 15.4521,1.213 23.1768,1.1533 7.7247,-0.06 16.17,-0.8046 23.8822,-1.1077 7.7122,-0.3032 14.6908,1.1358 22.3777,0.3234 1.4035,-0.2269 4.2998,-1.5408 3.0937,-3.2187 C 3044.408,2104.4469 3043.5646,2104.5362 3042.8187,2104.563 Z"
       is_visible="true"
       id="path-effect1750"
       effect="skeletal" />
    <inkscape:path-effect
       effect="skeletal"
       id="path-effect1862"
       is_visible="true"
       pattern="m 3040.8187,2204.563 c -7.7724,0.7229 -15.5563,0.5951 -23.3473,0.9309 -7.7909,0.3357 -15.5885,-0.1655 -23.3873,0.011 -7.7988,0.1763 -15.5988,-0.9698 -23.3948,-0.7252 -7.7959,0.2446 -15.5878,0.5803 -23.3702,1.1208 -2.1523,-1.1561 -2.0117,3.7827 0.063,2.4375 7.7113,-0.3705 15.4323,-0.5304 23.1567,-0.6126 7.7244,-0.082 15.4521,1.213 23.1768,1.1533 7.7247,-0.06 16.17,-0.8046 23.8822,-1.1077 7.7122,-0.3032 14.6908,1.1358 22.3777,0.3234 1.4035,-0.2269 4.2998,-1.5408 3.0937,-3.2187 C 3042.408,2204.4469 3041.5646,2204.5362 3040.8187,2204.563 Z"
       copytype="single_stretched"
       prop_scale="1"
       scale_y_rel="false"
       spacing="0"
       normal_offset="0"
       tang_offset="0"
       prop_units="false"
       vertical_pattern="false"
       fuse_tolerance="0" />
    <inkscape:path-effect
       effect="skeletal"
       id="path-effect1866"
       is_visible="true"
       pattern="m 3040.8187,2204.563 c -7.7724,0.7229 -15.5563,0.5951 -23.3473,0.9309 -7.7909,0.3357 -15.5885,-0.1655 -23.3873,0.011 -7.7988,0.1763 -15.5988,-0.9698 -23.3948,-0.7252 -7.7959,0.2446 -15.5878,0.5803 -23.3702,1.1208 -2.1523,-1.1561 -2.0117,3.7827 0.063,2.4375 7.7113,-0.3705 15.4323,-0.5304 23.1567,-0.6126 7.7244,-0.082 15.4521,1.213 23.1768,1.1533 7.7247,-0.06 16.17,-0.8046 23.8822,-1.1077 7.7122,-0.3032 14.6908,1.1358 22.3777,0.3234 1.4035,-0.2269 4.2998,-1.5408 3.0937,-3.2187 C 3042.408,2204.4469 3041.5646,2204.5362 3040.8187,2204.563 Z"
       copytype="single_stretched"
       prop_scale="1"
       scale_y_rel="false"
       spacing="0"
       normal_offset="0"
       tang_offset="0"
       prop_units="false"
       vertical_pattern="false"
       fuse_tolerance="0" />
    <inkscape:path-effect
       fuse_tolerance="0"
       vertical_pattern="false"
       prop_units="false"
       tang_offset="0"
       normal_offset="0"
       spacing="0"
       scale_y_rel="false"
       prop_scale="1"
       copytype="single_stretched"
       pattern="m 2311.1946,2414.9769 c -7.7724,0.7228 -15.5563,0.5951 -23.3473,0.9308 -7.7909,0.3358 -15.5885,-0.1654 -23.3873,0.011 -7.7988,0.1764 -15.5988,-0.9698 -23.3948,-0.7251 -7.7959,0.2446 -15.5878,0.5802 -23.3702,1.1208 -2.1523,-1.1561 -2.0117,3.7827 0.063,2.4375 7.7113,-0.3706 15.4323,-0.5304 23.1567,-0.6126 7.7244,-0.082 15.4521,1.213 23.1768,1.1532 7.7247,-0.06 16.17,-0.8046 23.8822,-1.1077 7.7122,-0.3031 14.6908,1.1359 22.3777,0.3235 1.4035,-0.2269 4.2998,-1.5408 3.0937,-3.2188 C 2312.7839,2414.8608 2311.9405,2414.9501 2311.1946,2414.9769 Z"
       is_visible="true"
       id="path-effect1744"
       effect="skeletal" />
    <inkscape:path-effect
       fuse_tolerance="0"
       vertical_pattern="false"
       prop_units="false"
       tang_offset="0"
       normal_offset="0"
       spacing="0"
       scale_y_rel="false"
       prop_scale="1"
       copytype="single_stretched"
       pattern="m 3042.8187,2124.563 c -7.7724,0.7229 -15.5563,0.5951 -23.3473,0.9309 -7.7909,0.3357 -15.5885,-0.1655 -23.3873,0.011 -7.7988,0.1763 -15.5988,-0.9698 -23.3948,-0.7252 -7.7959,0.2446 -15.5878,0.5803 -23.3702,1.1208 -2.1523,-1.1561 -2.0117,3.7827 0.063,2.4375 7.7113,-0.3705 15.4323,-0.5304 23.1567,-0.6126 7.7244,-0.082 15.4521,1.213 23.1768,1.1533 7.7247,-0.06 16.17,-0.8046 23.8822,-1.1077 7.7122,-0.3032 14.6908,1.1358 22.3777,0.3234 1.4035,-0.2269 4.2998,-1.5408 3.0937,-3.2187 C 3044.408,2124.4469 3043.5646,2124.5362 3042.8187,2124.563 Z"
       is_visible="true"
       id="path-effect1741"
       effect="skeletal" />
    <inkscape:path-effect
       fuse_tolerance="0"
       vertical_pattern="false"
       prop_units="false"
       tang_offset="0"
       normal_offset="0"
       spacing="0"
       scale_y_rel="false"
       prop_scale="1"
       copytype="single_stretched"
       pattern="m 3042.8187,2124.563 c -7.7724,0.7229 -15.5563,0.5951 -23.3473,0.9309 -7.7909,0.3357 -15.5885,-0.1655 -23.3873,0.011 -7.7988,0.1763 -15.5988,-0.9698 -23.3948,-0.7252 -7.7959,0.2446 -15.5878,0.5803 -23.3702,1.1208 -2.1523,-1.1561 -2.0117,3.7827 0.063,2.4375 7.7113,-0.3705 15.4323,-0.5304 23.1567,-0.6126 7.7244,-0.082 15.4521,1.213 23.1768,1.1533 7.7247,-0.06 16.17,-0.8046 23.8822,-1.1077 7.7122,-0.3032 14.6908,1.1358 22.3777,0.3234 1.4035,-0.2269 4.2998,-1.5408 3.0937,-3.2187 C 3044.408,2124.4469 3043.5646,2124.5362 3042.8187,2124.563 Z"
       is_visible="true"
       id="path-effect1738"
       effect="skeletal" />
    <inkscape:path-effect
       fuse_tolerance="0"
       vertical_pattern="false"
       prop_units="false"
       tang_offset="0"
       normal_offset="0"
       spacing="0"
       scale_y_rel="false"
       prop_scale="1"
       copytype="single_stretched"
       pattern="m 3042.8187,2124.563 c -7.7724,0.7229 -15.5563,0.5951 -23.3473,0.9309 -7.7909,0.3357 -15.5885,-0.1655 -23.3873,0.011 -7.7988,0.1763 -15.5988,-0.9698 -23.3948,-0.7252 -7.7959,0.2446 -15.5878,0.5803 -23.3702,1.1208 -2.1523,-1.1561 -2.0117,3.7827 0.063,2.4375 7.7113,-0.3705 15.4323,-0.5304 23.1567,-0.6126 7.7244,-0.082 15.4521,1.213 23.1768,1.1533 7.7247,-0.06 16.17,-0.8046 23.8822,-1.1077 7.7122,-0.3032 14.6908,1.1358 22.3777,0.3234 1.4035,-0.2269 4.2998,-1.5408 3.0937,-3.2187 C 3044.408,2124.4469 3043.5646,2124.5362 3042.8187,2124.563 Z"
       is_visible="true"
       id="path-effect1735"
       effect="skeletal" />
    <inkscape:path-effect
       fuse_tolerance="0"
       vertical_pattern="false"
       prop_units="false"
       tang_offset="0"
       normal_offset="0"
       spacing="0"
       scale_y_rel="false"
       prop_scale="1"
       copytype="single_stretched"
       pattern="m 3042.8187,2124.563 c -7.7724,0.7229 -15.5563,0.5951 -23.3473,0.9309 -7.7909,0.3357 -15.5885,-0.1655 -23.3873,0.011 -7.7988,0.1763 -15.5988,-0.9698 -23.3948,-0.7252 -7.7959,0.2446 -15.5878,0.5803 -23.3702,1.1208 -2.1523,-1.1561 -2.0117,3.7827 0.063,2.4375 7.7113,-0.3705 15.4323,-0.5304 23.1567,-0.6126 7.7244,-0.082 15.4521,1.213 23.1768,1.1533 7.7247,-0.06 16.17,-0.8046 23.8822,-1.1077 7.7122,-0.3032 14.6908,1.1358 22.3777,0.3234 1.4035,-0.2269 4.2998,-1.5408 3.0937,-3.2187 C 3044.408,2124.4469 3043.5646,2124.5362 3042.8187,2124.563 Z"
       is_visible="true"
       id="path-effect1732"
       effect="skeletal" />
    <inkscape:path-effect
       effect="skeletal"
       id="path-effect1870"
       is_visible="true"
       pattern="m 3222.8187,2152.563 c -7.7724,0.7229 -15.5563,0.5951 -23.3473,0.9309 -7.7909,0.3357 -15.5885,-0.1655 -23.3873,0.011 -7.7988,0.1763 -15.5988,-0.9698 -23.3948,-0.7252 -7.7959,0.2446 -15.5878,0.5803 -23.3702,1.1208 -2.1523,-1.1561 -2.0117,3.7827 0.063,2.4375 7.7113,-0.3705 15.4323,-0.5304 23.1567,-0.6126 7.7244,-0.082 15.4521,1.213 23.1768,1.1533 7.7247,-0.06 16.17,-0.8046 23.8822,-1.1077 7.7122,-0.3032 14.6908,1.1358 22.3777,0.3234 1.4035,-0.2269 4.2998,-1.5408 3.0937,-3.2187 C 3224.408,2152.4469 3223.5646,2152.5362 3222.8187,2152.563 Z"
       copytype="single_stretched"
       prop_scale="1"
       scale_y_rel="false"
       spacing="0"
       normal_offset="0"
       tang_offset="0"
       prop_units="false"
       vertical_pattern="false"
       fuse_tolerance="0" />
  </defs>
  <sodipodi:namedview
     id="base"
     pagecolor="#ffffff"
     bordercolor="#666666"
     borderopacity="1.0"
     inkscape:pageopacity="0.0"
     inkscape:pageshadow="2"
     inkscape:zoom="0.67974437"
     inkscape:cx="361.03362"
     inkscape:cy="141.59131"
     inkscape:document-units="px"
     inkscape:current-layer="layer1"
     showgrid="false"
     borderlayer="false"
     fit-margin-top="0"
     fit-margin-left="0"
     fit-margin-right="0"
     fit-margin-bottom="0"
     units="mm"
     showguides="true"
     inkscape:guide-bbox="true"
     inkscape:snap-bbox="true"
     inkscape:bbox-paths="true"
     inkscape:bbox-nodes="true"
     inkscape:snap-bbox-edge-midpoints="true"
     inkscape:snap-bbox-midpoints="true"
     inkscape:object-paths="true"
     inkscape:snap-intersection-paths="true"
     inkscape:snap-page="true"
     inkscape:snap-object-midpoints="true"
     inkscape:snap-center="true"
     inkscape:snap-text-baseline="true"
     inkscape:snap-midpoints="true"
     inkscape:snap-smooth-nodes="true"
     inkscape:object-nodes="true"
     inkscape:snap-global="true">
    <sodipodi:guide
       orientation="1,0"
       position="526.54135,46.713068"
       id="guide871" />
    <sodipodi:guide
       orientation="1,0"
       position="73.457422,187.54177"
       id="guide873" />
  </sodipodi:namedview>
  <metadata
     id="metadata2213">
    <rdf:RDF>
      <cc:Work
         rdf:about="">
        <dc:format>image/svg+xml</dc:format>
        <dc:type
           rdf:resource="http://purl.org/dc/dcmitype/StillImage" />
        <dc:title>Winter School -- Contact Topology</dc:title>
        <dc:date>2013</dc:date>
        <dc:creator>
          <cc:Agent>
            <dc:title>Marek Kaluba</dc:title>
          </cc:Agent>
        </dc:creator>
        <dc:rights>
          <cc:Agent>
            <dc:title>Marek Kaluba</dc:title>
          </cc:Agent>
        </dc:rights>
      </cc:Work>
    </rdf:RDF>
  </metadata>
  <g
     inkscape:label="Layer 1"
     inkscape:groupmode="layer"
     id="layer1"
     transform="translate(-54.174969,-482.32144)">
    <g
       id="g925">
      <path
         inkscape:original-d="m 456.49335,837.6951 c 0,13.1663 -46.14033,23.8398 -103.05731,23.8398 -56.91698,0 -103.05721,-10.6735 -103.05721,-23.8398 0,-13.1664 46.14023,-23.8399 103.05721,-23.8399 C 410.35302,813.8552 456.49335,824.5287 456.49335,837.6951 Z"
         inkscape:path-effect="#path-effect1759"
         id="path1674"
         d="m 450.78658,827.30115 c -0.45824,-0.26074 -0.9182,-0.50717 -1.37683,-0.74175 0,0 0,0 0,0 -7.22282,-3.74899 -15.03137,-5.76367 -22.70519,-7.43348 0,0 0,0 -1e-5,0 -10.8988,-2.3918 -21.94928,-3.87226 -33.00747,-4.89435 -13.38395,-1.23857 -26.82837,-1.75824 -40.26104,-1.65001 -2.23346,0.0179 -4.46707,0.0532 -6.70039,0.10688 -11.18898,0.2691 -22.37316,0.86907 -33.52125,1.94558 0,0 -1e-5,0 -1e-5,0 -11.03635,1.06481 -22.06805,2.56331 -32.9212,5.03491 0,0 0,0 0,0 -7.64195,1.73072 -15.38731,3.82496 -22.41178,7.65657 0,10e-6 -1e-5,10e-6 -1e-5,10e-6 -2.2626,1.22367 -4.51507,2.70864 -6.33146,4.74887 -1.33733,1.4671 -2.34398,3.42187 -2.3849,5.62072 0.0224,0.87814 0.19857,1.71497 0.48766,2.49584 0.43477,1.17438 1.1232,2.22306 1.9276,3.098 1.82105,2.02621 4.06891,3.50213 6.32706,4.72825 7.01067,3.8378 14.7292,6.01613 22.35021,7.85793 1e-5,0 1e-5,0 1e-5,0 10.82452,2.63101 21.84785,4.3504 32.89063,5.55742 12.59089,1.37785 25.25727,2.04974 37.91043,2.02547 0.79254,-0.002 1.58501,-0.005 2.3774,-0.0107 13.44872,-0.0947 26.8991,-0.77647 40.26838,-2.21369 11.04304,-1.18588 22.06821,-2.85646 32.87812,-5.49684 0,0 0,0 1e-5,0 7.6171,-1.85107 15.32365,-4.06884 22.24268,-7.97474 0,0 0,0 1e-5,0 1.74653,-0.97995 3.4752,-2.10653 4.97582,-3.51322 0.4943,-0.3566 0.9315,-0.7333 1.31232,-1.11773 0.70669,-0.7015 1.19543,-1.47195 1.48253,-2.17744 0.28711,-0.70549 0.37871,-1.34449 0.35561,-1.84729 -0.0231,-0.5028 -0.15765,-0.87053 -0.32779,-1.09935 -0.17014,-0.22882 -0.37481,-0.32112 -0.57459,-0.31113 -0.39957,0.02 -0.7538,0.41399 -1.18373,0.99934 -0.42992,0.58536 -0.98757,1.39941 -1.83548,2.59286 -0.30807,0.4104 -0.65547,0.8529 -1.05396,1.33257 -1.2559,1.12643 -2.76083,2.07907 -4.33523,2.97562 0,0 0,0 0,0 -6.58437,3.70773 -14.08352,5.80524 -21.63988,7.62592 -10e-6,0 -10e-6,0 -10e-6,0 -10.67378,2.5567 -21.59174,4.15481 -32.56342,5.28269 -13.27554,1.36356 -26.63612,1.97642 -40.00139,2.00934 -0.56252,0.001 -1.12505,0.002 -1.68758,0.001 -12.79842,-0.016 -25.59524,-0.74748 -38.29532,-2.19921 0,0 0,0 0,0 -10.95095,-1.25285 -21.83144,-2.99729 -32.45841,-5.62749 0,-10e-6 0,-10e-6 0,-10e-6 -7.52716,-1.87776 -14.95951,-3.97467 -21.48241,-7.60586 0,0 0,0 0,0 -2.08695,-1.18009 -4.03072,-2.4215 -5.4131,-4.02191 -0.26483,-0.32539 -0.5147,-0.65771 -0.73388,-0.9913 -0.53059,-0.80753 -0.88322,-1.62595 -0.82575,-2.37431 -0.0916,-1.04872 0.62683,-2.25718 1.53539,-3.3871 0,0 0,0 0,0 1.36949,-1.60548 3.31081,-2.86263 5.40768,-4.05473 6.45452,-3.61438 13.91158,-5.72591 21.50299,-7.5909 10.62716,-2.59025 21.5753,-4.27661 32.47722,-5.48882 11.43235,-1.26999 22.81289,-1.97262 33.8725,-2.21597 2.0442,-0.045 4.07748,-0.0698 6.10067,-0.0765 0,0 0,0 1e-5,0 13.68957,-0.0442 26.91002,0.73896 39.98212,2.20103 10.90939,1.22124 21.71686,2.8661 32.52164,5.34968 6.72237,1.55679 13.4806,3.25003 19.79801,6.16497 0.62098,0.27696 1.31413,0.58979 2.0468,0.93404 1.04924,0.49791 2.17532,1.04786 3.24659,1.66703 1.07128,0.61917 2.0833,1.31306 2.95572,2.0577 0.77163,0.66481 1.43243,1.38591 1.91796,2.06217 0.48554,0.67626 0.80223,1.30942 1.05253,1.75739 0.2503,0.44798 0.45434,0.70909 0.67399,0.59219 0.21964,-0.1169 0.47023,-0.62848 0.47882,-1.65223 -0.18424,-1.59919 -0.964,-3.26297 -2.10645,-4.54361 C 454.50153,829.7196 452.58377,828.35234 450.78658,827.30115 Z"
         style="opacity:0.5;fill:#000080;stroke:none"
         inkscape:connector-curvature="0" />
      <path
         inkscape:original-d="m 456.49335,837.6951 c 0,13.1663 -46.14033,23.8398 -103.05731,23.8398 -56.91698,0 -103.05721,-10.6735 -103.05721,-23.8398"
         inkscape:path-effect="#path-effect1756"
         sodipodi:nodetypes="csc"
         style="fill:#000080;stroke:none"
         d="m 251.13236,844.21126 c 1.95658,1.93507 4.21117,3.30902 6.43684,4.42424 7.2244,3.66852 14.99246,5.68754 22.65898,7.36669 0,0 0,0 0,0 7.171,1.58189 14.41502,2.76048 21.69449,3.58175 3.76312,0.42457 7.52756,0.81347 11.29178,1.17156 13.36588,1.27257 26.79229,2.10774 40.22159,1.99319 0,0 0,0 0,0 0.35772,-0.003 0.71545,-0.007 1.07317,-0.0112 13.06797,-0.16064 26.16622,-0.1356 39.22531,-1.19628 4.4971,-0.3646 8.99278,-0.85295 13.46162,-1.54215 6.54176,-1.0089 13.04923,-2.26668 19.47513,-3.8788 0,0 0,0 0,0 7.61766,-1.89875 15.34291,-4.19843 22.24127,-8.19867 1e-5,0 1e-5,0 1e-5,0 2.22289,-1.27974 4.41816,-2.80991 6.13505,-4.84877 0,0 0,0 0,0 0.43669,-0.50933 0.83285,-1.07066 1.16246,-1.67154 0.46157,-0.50013 0.74512,-1.03825 0.88409,-1.52588 0.13898,-0.48763 0.13598,-0.9235 0.0481,-1.26233 -0.17578,-0.67766 -0.66959,-0.94194 -1.13029,-0.91614 -0.4607,0.0258 -0.89149,0.28527 -1.21405,0.66776 -0.32256,0.3825 -0.53994,0.89782 -0.76005,1.88573 -0.24048,0.40648 -0.52457,0.80744 -0.83147,1.19366 0,0 0,0 0,0 -1.4172,1.7092 -3.40061,3.03826 -5.50792,4.25763 0,0 0,0 0,0 -6.57318,3.76472 -14.08791,5.9005 -21.64852,7.73261 0,0 0,0 0,0 -6.23739,1.50406 -12.56096,2.66997 -18.92853,3.60002 -4.53717,0.66265 -9.10829,1.11487 -13.68678,1.44184 -12.6889,0.90495 -25.41148,0.78926 -38.10886,0.88484 -0.62781,0.005 -1.25777,0.009 -1.88973,0.0131 -12.94938,0.0802 -26.74139,-0.0545 -39.98666,-1.01968 -3.89878,-0.28451 -7.74916,-0.63222 -11.50886,-1.0658 -7.33793,-0.84617 -14.29265,-2.24779 -21.08019,-4.01918 -3.73435,-0.97952 -7.43665,-2.02237 -11.05436,-3.25202 -3.61771,-1.22964 -7.14912,-2.64167 -10.57537,-4.41973 0,0 0,0 0,0 -1.4981,-0.78655 -2.96251,-1.60963 -4.26687,-2.59895 -0.4812,-0.34498 -1.06378,-0.76286 -1.65371,-1.23994 -0.55943,-0.46104 -1.13798,-0.98019 -1.63581,-1.51374 -0.49783,-0.53356 -0.91005,-1.08508 -1.25076,-1.55532 -0.34071,-0.47023 -0.62229,-0.86138 -0.92389,-0.9674 -0.3016,-0.10602 -0.64809,0.0858 -0.88539,0.82806 -0.0794,0.92593 0.12792,1.96469 0.54641,2.90669 0.41849,0.942 1.04107,1.78591 1.70026,2.46824 C 250.95138,844.02259 251.04199,844.11786 251.13236,844.21126 Z"
         id="path1676"
         inkscape:connector-curvature="0" />
      <path
         inkscape:connector-curvature="0"
         style="opacity:0.5;fill:#000080;stroke:none"
         d="m 505.54285,632.37029 c -0.69688,-0.40312 -1.39856,-0.78655 -2.10017,-1.15402 -4.90728,-2.59999 -10.0535,-4.58448 -15.22358,-6.29354 0,0 -1e-5,0 -1e-5,-10e-6 -6.54042,-2.16616 -13.19401,-3.89801 -19.8762,-5.39253 0,0 0,0 -1e-5,0 -16.94283,-3.78995 -34.15383,-6.13488 -51.39108,-7.76154 -20.86024,-1.97008 -41.82234,-2.80962 -62.77307,-2.7014 -3.48354,0.0179 -6.96736,0.062 -10.45085,0.13385 -17.45215,0.35984 -34.89819,1.28327 -52.28293,2.96999 0,0 0,0 0,0 -17.21194,1.66905 -34.40426,4.03157 -51.30483,7.9021 0,0 0,0 -1e-5,0 -6.66001,1.52511 -13.28335,3.29494 -19.77594,5.50914 0,0 0,0 -1e-5,0 -5.13179,1.74807 -10.21941,3.77037 -15.03041,6.40004 -3.49759,1.89912 -6.95238,4.16563 -9.70144,7.26021 -1.04599,1.17839 -1.97271,2.51586 -2.63568,4.01983 -0.58713,1.33627 -0.9231,2.80071 -0.92423,4.29719 0.007,1.27478 0.25701,2.5239 0.69724,3.68877 0.0766,0.20258 0.15885,0.40262 0.24659,0.59981 0.66883,1.49829 1.59886,2.82871 2.64644,4.00158 2.7537,3.08054 6.20386,5.33803 9.69704,7.2396 4.80447,2.63204 9.88197,4.67162 15.00417,6.44834 6.47997,2.25026 13.09104,4.07409 19.74062,5.66219 16.87128,4.02978 34.0552,6.61327 51.27426,8.42459 0,0 10e-6,0 10e-6,0 19.63042,2.06661 39.36936,3.06201 59.0938,3.07348 1.23546,7.2e-4 2.47086,-0.002 3.70616,-0.007 20.96562,-0.0947 41.93375,-1.09623 62.78041,-3.26505 17.22141,-1.79038 34.40714,-4.32534 51.26173,-8.364 0,0 1e-5,0 1e-5,0 6.6461,-1.59237 13.24941,-3.42909 19.71092,-5.70411 0,0 0,-10e-6 0,-10e-6 5.10927,-1.7972 10.16488,-3.86318 14.92636,-6.52323 2.71472,-1.50946 5.39139,-3.23073 7.70574,-5.37754 0.73388,-0.57451 1.38365,-1.16789 1.95238,-1.76477 1.27781,-1.3423 2.10097,-2.74751 2.53365,-3.97156 0.48087,-1.36275 0.47243,-2.47131 0.31614,-3.16856 -0.15629,-0.69725 -0.44974,-1.00227 -0.72341,-0.99188 -0.27367,0.0104 -0.5332,0.32605 -0.83148,0.8627 -0.29829,0.53665 -0.64518,1.30008 -1.17623,2.23753 -0.50211,0.89342 -1.20864,1.94898 -2.20211,3.18877 -0.52721,0.65814 -1.12644,1.35307 -1.81214,2.0852 -2.04259,1.81789 -4.45093,3.33369 -6.94703,4.73434 -4.59028,2.55386 -9.52194,4.54699 -14.55754,6.30682 -10e-6,0 -10e-6,0 -10e-6,0 -6.3613,2.22007 -12.88602,4.01236 -19.47693,5.57171 0,0 -10e-6,0 -10e-6,0 -16.71846,3.95498 -33.797,6.41747 -50.94703,8.14985 -20.75303,2.09518 -41.63141,3.02778 -62.51342,3.0607 -0.8789,0.001 -1.75782,0.001 -2.63675,-7e-4 -19.99644,-0.0419 -39.99304,-1.09608 -59.85828,-3.24886 -17.12755,-1.85718 -34.16866,-4.46577 -50.84204,-8.49466 -6.5702,-1.58785 -13.0693,-3.39517 -19.40387,-5.61191 0,0 0,0 0,0 -5.01479,-1.75831 -9.91572,-3.73103 -14.47312,-6.24656 -1e-5,0 -1e-5,0 -1e-5,0 -3.32199,-1.85556 -6.46806,-3.87853 -8.78307,-6.53325 -0.47532,-0.54428 -0.91316,-1.10307 -1.28974,-1.67794 -0.30891,-0.47156 -0.57688,-0.95454 -0.79039,-1.44988 0,0 0,0 0,0 -0.41303,-0.95079 -0.66031,-1.96022 -0.65451,-2.93411 0,0 0,-10e-6 0,-10e-6 -0.011,-0.96989 0.22947,-1.98183 0.64029,-2.94037 0.46751,-1.09912 1.20475,-2.14451 2.0701,-3.14302 0,0 0,0 1e-5,0 2.29746,-2.65452 5.43994,-4.69533 8.77765,-6.56607 4.53339,-2.51185 9.43828,-4.49367 14.48012,-6.2585 0,0 1e-5,0 1e-5,0 6.31094,-2.2049 12.81991,-4.00636 19.41745,-5.58501 16.66739,-3.98751 33.81034,-6.5422 50.86085,-8.35601 17.88201,-1.90104 35.67144,-2.91913 52.95296,-3.2448 3.19426,-0.0602 6.37123,-0.0924 9.53234,-0.099 21.38879,-0.0442 42.04862,1.06889 62.49416,3.2524 17.06119,1.82316 33.98572,4.31879 50.90525,8.21687 6.53932,1.5068 13.06667,3.22443 19.51741,5.36793 3.9038,1.29918 7.77796,2.73238 11.52494,4.46973 0.97509,0.44253 2.059,0.94872 3.19705,1.51397 1.63544,0.8185 3.38954,1.7405 5.0476,2.7825 1.65806,1.04201 3.21246,2.21172 4.52469,3.45356 1.16751,1.10389 2.11654,2.26466 2.78726,3.35831 1.01466,1.654 1.37329,3.12337 1.70237,3.60742 0.16455,0.24203 0.33311,0.24101 0.49357,-0.10199 0.16047,-0.343 0.31854,-1.03601 0.2554,-2.13125 -0.10627,-0.7276 -0.29809,-1.46896 -0.57698,-2.19706 -0.59778,-1.55427 -1.52996,-3.03126 -2.64476,-4.31953 C 511.16144,636.04788 508.28256,633.98378 505.54285,632.37029 Z"
         id="path1678"
         inkscape:path-effect="#path-effect1753"
         inkscape:original-d="m 515.07127,647.5596 c 0,20.5553 -72.03416,37.2186 -160.89254,37.2186 -88.85858,0 -160.89254,-16.6633 -160.89254,-37.2186 0,-20.5553 72.03396,-37.2187 160.89254,-37.2187 C 443.03711,610.3409 515.07127,627.0043 515.07127,647.5596 Z" />
      <path
         inkscape:connector-curvature="0"
         id="path1680"
         d="m 195.34354,656.91417 c 2.8696,2.91795 6.27322,5.0334 9.678,6.7935 0,0 1e-5,0 1e-5,0 4.90609,2.56288 10.04201,4.52689 15.2058,6.22875 0,0 0,0 0,0 6.53003,2.15566 13.17204,3.89252 19.84776,5.39054 0,0 0,10e-6 0,10e-6 11.15435,2.50333 22.4331,4.37176 33.7704,5.72935 5.86086,0.70183 11.72919,1.32697 17.5995,1.89112 20.8423,2.00407 41.78726,3.1591 62.73372,3.04455 0,0 0,0 0,0 0.55793,-0.003 1.11587,-0.007 1.67381,-0.0118 20.38304,-0.17728 40.79842,-0.47407 61.1367,-2.24696 7.0048,-0.60996 14.00529,-1.38646 20.9694,-2.42497 10.19441,-1.52022 20.3341,-3.42034 30.35096,-5.86314 6.64951,-1.62139 13.25661,-3.49405 19.71685,-5.81124 5.10851,-1.83018 10.1648,-3.93686 14.91902,-6.64004 0,0 0,0 0,0 3.45811,-1.95529 6.85564,-4.26709 9.50504,-7.36012 0,0 0,0 10e-6,0 0.66014,-0.77101 1.26681,-1.60348 1.77912,-2.4973 0.37365,-0.45977 0.67076,-0.92722 0.89827,-1.38185 0.65336,-1.30951 0.68867,-2.46666 0.49259,-3.1854 -0.19608,-0.71874 -0.60451,-1.02369 -0.99162,-1.00902 -0.3871,0.0147 -0.75993,0.32633 -1.09418,0.83907 -0.33425,0.51275 -0.63141,1.22874 -0.98456,2.22367 -0.14824,0.41962 -0.31403,0.89066 -0.51085,1.42676 -0.40829,0.67587 -0.8957,1.32748 -1.43,1.95533 0,0 0,0 0,0 -2.3497,2.76336 -5.53537,4.87405 -8.8779,6.76898 0,0 0,0 0,0 -4.5866,2.58002 -9.52018,4.59573 -14.55696,6.37158 -6.36222,2.24049 -12.89123,4.04659 -19.48616,5.61363 -9.7668,2.32051 -19.65959,4.12092 -29.61638,5.55794 -7.09467,1.02389 -14.23345,1.77261 -21.38254,2.35109 -19.81482,1.60216 -39.69901,1.80951 -59.55552,1.93405 -0.98177,0.006 -1.96688,0.0113 -2.9551,0.0152 -10.12496,0.0401 -20.57559,-0.0425 -31.08318,-0.35828 -10.50758,-0.31579 -21.07197,-0.86611 -31.41561,-1.71276 -6.0888,-0.49879 -12.10208,-1.09137 -17.97465,-1.80633 -11.46157,-1.39534 -22.34961,-3.4813 -32.99803,-6.14582 -6.56915,-1.64395 -13.03772,-3.50892 -19.42099,-5.7504 -4.97721,-1.75035 -9.89866,-3.68859 -14.60333,-6.17395 -2.35885,-1.25731 -4.67544,-2.6057 -6.73988,-4.23801 -0.75557,-0.57708 -1.65811,-1.29304 -2.55067,-2.11223 -1.04884,-0.96065 -2.05852,-2.05844 -2.81413,-3.15723 -0.43636,-0.63308 -0.7936,-1.26578 -1.08463,-1.82291 -0.29104,-0.55713 -0.51834,-1.0392 -0.73087,-1.36213 -0.21253,-0.32293 -0.41617,-0.48717 -0.63282,-0.39022 -0.21666,0.0969 -0.45362,0.4586 -0.60366,1.18821 -0.0403,1.08905 0.17793,2.29686 0.63894,3.44641 0.64862,1.60981 1.68902,3.07332 2.77799,4.2644 C 195.07645,656.63169 195.21005,656.77434 195.34354,656.91417 Z"
         style="fill:#000080;stroke:none"
         sodipodi:nodetypes="csc"
         inkscape:path-effect="#path-effect1750"
         inkscape:original-d="m 515.07127,647.5596 c 0,20.5553 -72.03416,37.2186 -160.89254,37.2186 -88.85858,0 -160.89254,-16.6633 -160.89254,-37.2186" />
      <path
         inkscape:original-d="m 477.26206,747.6317 c 0,15.9831 -56.01155,28.94 -125.10508,28.94 -69.0937,0 -125.10509,-12.9569 -125.10509,-28.94 0,-15.9832 56.01139,-28.9401 125.10509,-28.9401 C 421.25051,718.6916 477.26206,731.6485 477.26206,747.6317 Z"
         inkscape:path-effect="#path-effect1862"
         id="path1860"
         d="m 470.0984,735.40966 c -0.54922,-0.31501 -1.10132,-0.61367 -1.65258,-0.89891 0,0 0,0 0,0 -8.68741,-4.54999 -18.12901,-7.00836 -27.43023,-9.05463 0,0 0,0 -10e-6,0 -13.20289,-2.92479 -26.60186,-4.7348 -40.01562,-5.98735 -16.23403,-1.51743 -32.54431,-2.15904 -48.84298,-2.05081 -2.71002,0.0179 -5.42024,0.0565 -8.13016,0.11716 -13.5766,0.30369 -27.14791,1.02696 -40.67352,2.33609 0,0 0,0 0,0 -13.3906,1.29515 -26.77084,3.12303 -39.92937,6.12792 -10e-6,0 -10e-6,0 -10e-6,0 -9.26871,2.10703 -18.64719,4.64481 -27.13682,9.27773 0,0 0,0 -1e-5,0 -2.7334,1.48117 -5.44421,3.26407 -7.61615,5.70624 -1.5906,1.75341 -2.79192,4.06749 -2.83284,6.6486 0.0224,1.0308 0.22962,2.01663 0.57214,2.93966 0.51513,1.38817 1.33454,2.63515 2.29106,3.68206 2.17659,2.42813 4.88278,4.202 7.61175,5.68561 8.47572,4.63906 17.82735,7.26095 27.07525,9.47909 10e-6,0 10e-6,0 10e-6,0 13.12965,3.16424 26.50152,5.21304 39.89881,6.65042 15.27447,1.64042 30.63703,2.43564 45.98587,2.42499 0.9614,-6.6e-4 1.92274,-0.004 2.88399,-0.009 16.31428,-0.0947 32.63055,-0.89836 48.85032,-2.61448 13.39835,-1.41633 26.77203,-3.41642 39.88627,-6.58985 0,0 10e-6,0 10e-6,0 9.24438,-2.2275 18.584,-4.88894 26.96772,-9.59589 0,0 10e-6,0 10e-6,-10e-6 2.11562,-1.1818 4.20567,-2.53508 6.0165,-4.22391 0.58564,-0.43967 1.10388,-0.89898 1.55634,-1.36441 0.83641,-0.84813 1.42099,-1.76415 1.77409,-2.5991 0.3531,-0.83494 0.48175,-1.58761 0.47999,-2.18191 -0.002,-0.59429 -0.13012,-1.03157 -0.29766,-1.30593 -0.16753,-0.27436 -0.37294,-0.3883 -0.57272,-0.37597 -0.39957,0.0246 -0.74452,0.52108 -1.22062,1.29102 -0.4761,0.76995 -1.15159,1.85619 -2.24652,3.32889 -0.39162,0.50484 -0.83503,1.04358 -1.34301,1.6195 -1.5558,1.39001 -3.40512,2.55733 -5.33088,3.64605 0,0 -1e-5,0 -1e-5,1e-5 -8.04905,4.50878 -17.18126,7.04996 -26.36492,9.24707 0,0 -1e-5,0 -1e-5,0 -12.97811,3.08975 -26.24459,5.01737 -39.57156,6.37569 -16.12608,1.64247 -32.35257,2.37722 -48.58334,2.41014 -0.68314,0.001 -1.3663,0.001 -2.04946,3.6e-4 -15.54242,-0.0258 -31.08392,-0.88038 -46.51547,-2.59935 0,0 -10e-6,0 -10e-6,-10e-6 -13.30558,-1.48322 -26.53461,-3.55709 -39.46658,-6.72049 0,-10e-6 0,-10e-6 -10e-6,-10e-6 -9.15412,-2.25412 -18.21957,-4.79462 -26.20744,-9.22702 0,0 0,0 0,0 -2.55778,-1.43759 -4.95988,-2.97694 -6.69779,-4.97927 -0.33871,-0.40889 -0.65745,-0.83092 -0.93716,-1.2592 -0.67709,-1.03672 -1.12788,-2.11429 -1.07041,-3.13429 -0.0916,-1.42936 0.82047,-2.9976 1.98332,-4.41498 0,0 0,0 0,0 1.72325,-2.00539 4.12247,-3.56128 6.69237,-5.01209 7.90425,-4.40726 16.99736,-6.96787 26.22804,-9.21206 12.92981,-3.12291 26.23953,-5.14028 39.4854,-6.58183 13.89106,-1.51055 27.71478,-2.33344 41.14629,-2.60816 2.48263,-0.0508 4.95191,-0.0785 7.40891,-0.0851 0,0 0,0 1e-5,0 16.62463,-0.0442 32.68109,0.86473 48.56406,2.60182 13.25457,1.4507 26.39396,3.41988 39.52979,6.44269 8.16839,1.89128 16.39606,3.97207 24.0849,7.55924 0.75495,0.34263 1.59664,0.73155 2.48495,1.16093 1.27271,0.62012 2.63821,1.3119 3.93317,2.09227 1.29497,0.78036 2.51376,1.65564 3.55384,2.58982 0.92215,0.83497 1.69749,1.73845 2.25292,2.57584 0.55544,0.83739 0.89897,1.61011 1.15904,2.15019 0.26006,0.54008 0.46089,0.84602 0.68044,0.70871 0.21956,-0.1373 0.47549,-0.73541 0.4469,-1.9187 -0.244,-1.8556 -1.17607,-3.78896 -2.52245,-5.30013 C 474.53906,738.30812 472.2549,736.67521 470.0984,735.40966 Z"
         style="opacity:0.5;fill:#800080;stroke:none"
         inkscape:connector-curvature="0" />
      <path
         inkscape:original-d="m 477.26206,747.6317 c 0,15.9831 -56.01155,28.94 -125.10508,28.94 -69.0937,0 -125.10509,-12.9569 -125.10509,-28.94"
         inkscape:path-effect="#path-effect1866"
         sodipodi:nodetypes="csc"
         style="fill:#800080;stroke:none"
         d="m 228.30247,755.22993 c 2.30465,2.30974 4.99726,3.96636 7.67242,5.32741 8.6886,4.46932 18.08972,6.93215 27.38402,8.98785 0,0 0,0 0,0 8.68953,1.93316 17.47167,3.37473 26.29805,4.40045 4.56282,0.53027 9.1293,1.00923 13.6964,1.44586 16.21602,1.55143 32.50864,2.50854 48.80362,2.39399 0,0 0,0 0,0 0.43403,-0.003 0.86807,-0.007 1.30211,-0.0114 15.8566,-0.16698 31.74427,-0.26463 47.57832,-1.59682 5.45306,-0.45813 10.90361,-1.05632 16.32369,-1.87869 7.93422,-1.20382 15.82636,-2.70647 23.6212,-4.63526 0,0 0,0 0,0 9.2452,-2.27523 18.60354,-5.01868 26.96632,-9.81983 0,0 0,0 0,0 2.69378,-1.53727 5.34737,-3.36541 7.41976,-5.80613 0,0 0,0 0,-10e-6 0.5249,-0.60904 1.00217,-1.27895 1.40001,-1.99515 0.52788,-0.61215 0.85647,-1.25343 1.02583,-1.8306 0.16936,-0.57717 0.18235,-1.08906 0.10357,-1.48836 -0.15756,-0.7986 -0.65643,-1.12113 -1.11713,-1.08921 -0.4607,0.0319 -0.88722,0.36186 -1.23221,0.87141 -0.34499,0.50955 -0.61649,1.21007 -0.96801,2.41203 -0.30532,0.51209 -0.66486,1.01277 -1.05328,1.49115 0,0 0,0 0,0 -1.77269,2.11106 -4.21442,3.73809 -6.79262,5.21499 0,0 0,0 -10e-6,10e-6 -8.03759,4.56562 -17.18542,7.14517 -26.37355,9.35376 0,0 -10e-6,0 -10e-6,0 -7.58287,1.8153 -15.26709,3.22309 -23.00294,4.34641 -5.51213,0.80035 -11.06208,1.36561 -16.62051,1.78846 -15.40543,1.17073 -30.85814,1.17819 -46.28471,1.28481 -0.76273,0.005 -1.52807,0.01 -2.29583,0.0139 -7.86624,0.0401 -15.98554,0.005 -24.15087,-0.20467 -8.16534,-0.20954 -16.37667,-0.59444 -24.41783,-1.21581 -4.73365,-0.36619 -9.40856,-0.80725 -13.97373,-1.34809 -8.90994,-1.05553 -17.36411,-2.71803 -25.62349,-4.82989 -4.54219,-1.16639 -9.0509,-2.41175 -13.46082,-3.89782 -4.40991,-1.48607 -8.71964,-3.2079 -12.89395,-5.39508 0,0 0,0 0,-10e-6 -1.82623,-0.966 -3.6155,-1.98934 -5.20961,-3.22377 -0.5858,-0.43346 -1.29037,-0.96498 -1.99567,-1.57248 -0.67228,-0.58862 -1.35502,-1.2559 -1.92697,-1.93464 -0.57194,-0.67874 -1.02748,-1.37171 -1.38813,-1.95129 -0.36064,-0.57959 -0.64159,-1.04771 -0.94328,-1.17341 -0.30168,-0.1257 -0.65344,0.10422 -0.87718,0.96 -0.062,1.07172 0.19396,2.27062 0.69015,3.36723 0.49619,1.09661 1.2245,2.08908 1.99624,2.89864 C 228.08866,755.00548 228.19567,755.11882 228.30247,755.22993 Z"
         id="path1864"
         inkscape:connector-curvature="0" />
      <path
         style="opacity:0.3;fill:none;stroke:#000000;stroke-width:1px;stroke-linecap:butt;stroke-linejoin:miter;stroke-opacity:1"
         d="m 352.4008,482.3215 0,542.748"
         id="path1682"
         inkscape:connector-curvature="0"
         sodipodi:nodetypes="cc" />
      <path
         inkscape:connector-curvature="0"
         style="fill:#000000;stroke:none"
         d="m 480.47761,550.57667 c -0.59008,-0.3394 -1.18357,-0.66152 -1.77643,-0.96951 -1e-5,-10e-6 -1e-5,-10e-6 -1e-5,-10e-6 -9.34521,-4.90976 -19.52027,-7.56743 -29.55242,-9.78278 0,0 0,0 -1e-5,0 -14.23775,-3.16419 -28.69154,-5.12221 -43.16328,-6.47829 -17.51413,-1.64267 -35.1116,-2.33905 -52.69753,-2.23086 -2.92407,0.0179 -5.84836,0.058 -8.77233,0.12176 -14.64898,0.31926 -29.29243,1.09794 -43.88586,2.51156 -1e-5,0 -1e-5,0 -1e-5,0 -14.44798,1.39862 -28.88305,3.37444 -43.07703,6.61884 0,10e-6 0,10e-6 -1e-5,10e-6 -9.99936,2.27604 -20.11134,5.01301 -29.25905,10.00582 0,0 -1e-5,0 -1e-5,10e-6 -2.94486,1.5968 -5.86154,3.51352 -8.19319,6.13621 -0.88805,0.99984 -1.6763,2.13959 -2.24344,3.42529 -0.50257,1.14362 -0.78947,2.39889 -0.79061,3.68498 0.007,1.09556 0.22141,2.16636 0.59882,3.16325 0.0656,0.17335 0.13617,0.34448 0.21138,0.51313 0.57301,1.28002 1.36456,2.41273 2.2542,3.40705 2.33629,2.60866 5.24836,4.51635 8.18879,6.11561 0,0 0,10e-6 0,10e-6 9.13375,4.99894 19.21888,7.82006 29.1975,10.20722 14.16498,3.40374 28.59166,5.6005 43.04646,7.14135 0,0 1e-5,10e-6 1e-5,10e-6 16.47979,1.75834 33.05332,2.60894 49.61292,2.60438 1.03723,-2.8e-4 2.07439,-0.003 3.11146,-0.009 17.60134,-0.0947 35.20481,-0.95311 52.70487,-2.79448 14.45621,-1.51982 28.88471,-3.66791 43.03393,-7.08076 0,0 1e-5,0 1e-5,0 9.97526,-2.39658 20.04836,-5.25731 29.08992,-10.32408 0,0 10e-6,0 10e-6,0 2.2814,-1.27248 4.53378,-2.7276 6.48394,-4.54318 0.62664,-0.47697 1.18126,-0.97337 1.66589,-1.47516 1.08961,-1.12956 1.78631,-2.32974 2.14138,-3.37701 0.39489,-1.16688 0.35885,-2.1165 0.19106,-2.70975 -0.1678,-0.59324 -0.4583,-0.84712 -0.73197,-0.83849 -0.27367,0.009 -0.53594,0.2696 -0.82204,0.70144 -0.2861,0.43183 -0.60413,1.03855 -1.05202,1.78659 -0.4239,0.71527 -1.00312,1.56552 -1.80986,2.59422 -0.42912,0.54726 -0.91564,1.1292 -1.47278,1.74833 -1.69049,1.50843 -3.69451,2.77219 -5.7781,3.94724 0,0 0,0 0,0 -8.70688,4.86859 -18.57257,7.60907 -28.48712,9.97526 0,0 -10e-6,0 -10e-6,0 -14.01309,3.32917 -28.33439,5.40479 -42.71923,6.8666 -17.40639,1.76773 -34.92008,2.55721 -52.43788,2.59013 -0.7373,0.001 -1.47462,0.001 -2.21194,6e-5 -16.77487,-0.0303 -33.54912,-0.94006 -50.2075,-2.77907 -14.36315,-1.5867 -28.64701,-3.80852 -42.61426,-7.2114 0,0 0,0 0,0 -9.88487,-2.42316 -19.68382,-5.16288 -28.32969,-9.95514 0,0 0,0 0,0 -2.76924,-1.55324 -5.37722,-3.22642 -7.27483,-5.40927 -0.38859,-0.44624 -0.74558,-0.90121 -1.05101,-1.36625 -0.25055,-0.38147 -0.46663,-0.77022 -0.63688,-1.16704 -0.32864,-0.75856 -0.52668,-1.55886 -0.52088,-2.32192 0,0 0,0 0,-10e-6 -0.011,-0.75992 0.18057,-1.56264 0.50665,-2.32815 0.37189,-0.88133 0.97078,-1.72891 1.67787,-2.5485 1.88215,-2.18501 4.48704,-3.87508 7.2694,-5.44209 0,0 0,0 0,0 8.5554,-4.76337 18.38332,-7.52568 28.35028,-9.94019 13.96402,-3.36215 28.33443,-5.5282 42.63306,-7.07275 14.99538,-1.6186 29.91641,-2.49551 44.41323,-2.78433 2.67955,-0.0534 5.34466,-0.0823 7.9965,-0.0889 0,0 0,0 10e-6,0 17.94291,-0.0442 35.27315,0.92128 52.41861,2.7819 14.30788,1.55377 28.49464,3.66863 42.67744,6.93363 8.81785,2.04151 17.70553,4.29637 26.01032,8.18546 0.81512,0.37213 1.72352,0.79522 2.68173,1.26283 1.37308,0.67501 2.8461,1.43049 4.24154,2.28325 1.39543,0.85276 2.70708,1.80951 3.82247,2.82881 0.99193,0.90541 1.807,1.85851 2.39501,2.76376 0.88952,1.36893 1.24121,2.60806 1.56899,3.02015 0.16389,0.20605 0.3321,0.20676 0.49389,-0.089 0.16179,-0.2958 0.32249,-0.89534 0.29187,-1.84815 -0.0843,-0.63109 -0.24385,-1.27438 -0.48034,-1.90587 -0.50638,-1.346 -1.3013,-2.6216 -2.25255,-3.72496 C 485.24419,553.6907 482.79548,551.93849 480.47761,550.57667 Z"
         id="path1688"
         inkscape:path-effect="#path-effect1744"
         inkscape:original-d="m 488.29563,563.6197 c 0,17.2483 -60.4451,31.2308 -135.0077,31.2308 -74.5627,0 -135.0077,-13.9825 -135.0077,-31.2308 0,-17.2483 60.445,-31.2308 135.0077,-31.2308 C 427.85053,532.3889 488.29563,546.3714 488.29563,563.6197 Z" />
      <path
         inkscape:connector-curvature="0"
         style="fill:#808080;stroke:#808080"
         d="m 480.47764,930.57662 c -0.59008,-0.33939 -1.18358,-0.66151 -1.77644,-0.9695 -10e-6,0 -10e-6,-10e-6 -10e-6,-10e-6 -9.34522,-4.90975 -19.52029,-7.5674 -29.55244,-9.78275 0,0 0,0 0,0 -14.23776,-3.16418 -28.69155,-5.1222 -43.16329,-6.47828 -17.51413,-1.64267 -35.1116,-2.33905 -52.69753,-2.23083 -2.92407,0.0179 -5.84835,0.0581 -8.77233,0.12178 -14.64898,0.31923 -29.29243,1.09789 -43.88586,2.5115 -1e-5,0 -1e-5,0 -1e-5,0 -14.44799,1.39861 -28.88305,3.37442 -43.07703,6.61884 -1e-5,0 -1e-5,0 -1e-5,0 -9.99936,2.27604 -20.11134,5.01303 -29.25905,10.00585 0,1e-5 0,1e-5 0,1e-5 -2.94486,1.59681 -5.86154,3.51353 -8.19318,6.13622 -0.88804,0.99984 -1.67629,2.13959 -2.24343,3.42529 -0.50256,1.14361 -0.78946,2.39888 -0.79059,3.68496 0.007,1.09556 0.22141,2.16635 0.59882,3.16323 0.0656,0.17335 0.13616,0.34448 0.21137,0.51313 0.57301,1.28001 1.36455,2.41272 2.25419,3.40704 2.33628,2.60866 5.24834,4.51635 8.18877,6.11562 0,0 0,0 1e-5,0 9.13373,4.99895 19.21886,7.82008 29.19748,10.20725 14.16498,3.40374 28.59166,5.6005 43.04646,7.14135 0,0 1e-5,0 1e-5,10e-6 16.47979,1.75835 33.05332,2.60895 49.61292,2.60443 1.03723,-2.8e-4 2.07439,-0.003 3.11146,-0.009 17.60134,-0.0947 35.20481,-0.95311 52.70487,-2.7945 14.45621,-1.51983 28.88471,-3.66793 43.03393,-7.08078 1e-5,0 1e-5,0 1e-5,0 9.97527,-2.39657 20.04836,-5.2573 29.08994,-10.32405 0,0 0,0 0,0 2.28141,-1.27248 4.5338,-2.7276 6.48396,-4.54317 0.62664,-0.47698 1.18127,-0.97337 1.66589,-1.47516 1.08962,-1.12958 1.78632,-2.32976 2.1414,-3.37703 0.39488,-1.16689 0.35885,-2.11651 0.19105,-2.70976 -0.16779,-0.59325 -0.45829,-0.84713 -0.73196,-0.8385 -0.27367,0.009 -0.53594,0.26961 -0.82204,0.70144 -0.28611,0.43184 -0.60414,1.03856 -1.05203,1.78661 -0.4239,0.71528 -1.00312,1.56553 -1.80986,2.59423 -0.42913,0.54726 -0.91564,1.12921 -1.47279,1.74834 -1.6905,1.50843 -3.69452,2.77219 -5.77811,3.94723 0,0 0,0 -10e-6,0 -8.70689,4.86858 -18.57258,7.60905 -28.48713,9.97523 0,0 0,0 -10e-6,0 -14.01309,3.32917 -28.33439,5.4048 -42.71923,6.86662 -17.40639,1.76774 -34.92008,2.55724 -52.43788,2.59016 -0.7373,0.001 -1.47462,0.001 -2.21194,6e-5 -16.77487,-0.0303 -33.54912,-0.94006 -50.20751,-2.77907 -14.36314,-1.58671 -28.647,-3.80854 -42.61425,-7.21143 0,-10e-6 0,-10e-6 -1e-5,-10e-6 -9.88486,-2.42316 -19.68381,-5.1629 -28.32966,-9.95517 0,0 -1e-5,0 -1e-5,0 -2.76924,-1.55325 -5.3772,-3.22643 -7.2748,-5.40928 -0.3886,-0.44624 -0.74558,-0.90121 -1.05101,-1.36625 -0.25055,-0.38147 -0.46663,-0.77022 -0.63688,-1.16703 -0.32863,-0.75855 -0.52667,-1.55885 -0.52087,-2.3219 0,0 0,0 0,-10e-6 -0.011,-0.75991 0.18057,-1.56263 0.50665,-2.32813 0.37189,-0.88132 0.97078,-1.7289 1.67786,-2.54849 1.88214,-2.185 4.48702,-3.87507 7.26938,-5.44208 0,0 1e-5,0 1e-5,0 8.55539,-4.76336 18.38331,-7.52567 28.35026,-9.94018 13.96402,-3.36215 28.33442,-5.5282 42.63306,-7.07275 14.99537,-1.6186 29.91641,-2.4955 44.41322,-2.78432 2.67955,-0.0534 5.34466,-0.0823 7.9965,-0.0889 0,0 0,0 10e-6,0 17.94291,-0.0442 35.27315,0.92123 52.41861,2.78184 14.30788,1.55376 28.49465,3.66861 42.67745,6.93361 8.81786,2.04152 17.70553,4.29638 26.01033,8.18547 0.81512,0.37212 1.72352,0.79521 2.68173,1.26283 1.37308,0.67501 2.84611,1.43049 4.24154,2.28325 1.39544,0.85276 2.70709,1.80952 3.82248,2.82883 0.99193,0.9054 1.80701,1.85851 2.39501,2.76376 0.88951,1.36894 1.2412,2.60808 1.56896,3.02017 0.16389,0.20605 0.33209,0.20676 0.49387,-0.089 0.16178,-0.29579 0.32247,-0.89533 0.29184,-1.84814 -0.0842,-0.63109 -0.24382,-1.27438 -0.48031,-1.90587 -0.50635,-1.34601 -1.30126,-2.62162 -2.25251,-3.72499 C 485.24423,933.69066 482.79551,931.93845 480.47764,930.57662 Z"
         id="path1690"
         inkscape:path-effect="#path-effect1741"
         inkscape:original-d="m 488.29563,943.6197 c 0,17.2483 -60.4451,31.2308 -135.0077,31.2308 -74.5627,0 -135.0077,-13.9825 -135.0077,-31.2308 0,-17.2483 60.445,-31.2308 135.0077,-31.2308 C 427.85053,912.3889 488.29563,926.3714 488.29563,943.6197 Z" />
      <path
         inkscape:connector-curvature="0"
         id="path1692"
         d="m 219.75402,951.7039 c 2.46098,2.47806 5.35035,4.26165 8.22741,5.73313 9.34623,4.829 19.48083,7.49118 29.50625,9.71601 0,0 0,0 0,0 9.37155,2.09093 18.8445,3.65061 28.36566,4.76817 4.922,0.57774 9.84873,1.09715 14.77645,1.56907 17.49614,1.67669 35.07608,2.68856 52.65814,2.57401 0,0 0,0 0,0 0.46832,-0.003 0.93664,-0.007 1.40496,-0.0115 17.10911,-0.16984 34.24962,-0.32259 51.33002,-1.77672 5.88244,-0.50015 11.76188,-1.14769 17.60921,-2.02986 8.55962,-1.29137 17.07366,-2.90401 25.48334,-4.97503 0,0 0,0 1e-5,0 9.97618,-2.44433 20.06801,-5.3871 29.08852,-10.54798 0,0 0,0 1e-5,0 2.90527,-1.65295 5.76472,-3.61492 7.99676,-6.23615 0,0 0,0 0,0 0.55659,-0.65393 1.06805,-1.36108 1.50008,-2.12096 0.32793,-0.38351 0.58778,-0.77786 0.78508,-1.16366 0.56678,-1.11231 0.57477,-2.11008 0.36732,-2.72499 -0.20745,-0.61492 -0.6129,-0.86946 -1,-0.85729 -0.3871,0.0122 -0.76262,0.26842 -1.08454,0.67619 -0.32193,0.40778 -0.58996,0.96754 -0.86056,1.77441 -0.11387,0.34134 -0.23632,0.72897 -0.37914,1.17826 -0.33203,0.55328 -0.73088,1.08965 -1.16946,1.6093 0,0 0,0 0,0 -1.93235,2.29156 -4.57993,4.05243 -7.36963,5.64501 0,0 0,0 0,0 -8.69532,4.92536 -18.57665,7.70423 -28.49577,10.08192 0,0 0,0 -1e-5,0 -8.18717,1.9551 -16.48251,3.47153 -24.8329,4.68165 -5.95003,0.86221 -11.93963,1.47823 -17.93821,1.94415 -16.62554,1.29011 -33.30447,1.35288 -49.95683,1.46446 -0.82334,0.006 -1.64949,0.0103 -2.47826,0.0143 -8.49124,0.0401 -17.25563,-0.008 -26.06907,-0.24718 -8.81344,-0.23894 -17.67588,-0.66961 -26.35414,-1.35332 -5.10865,-0.40288 -10.15391,-0.88587 -15.08086,-1.47489 -9.61597,-1.14956 -18.7436,-2.92923 -27.66403,-5.19402 -4.90503,-1.25032 -9.77594,-2.58664 -14.54167,-4.18789 -4.76573,-1.60124 -9.42503,-3.46223 -13.93532,-5.83317 0,0 0,0 0,0 -1.97362,-1.04663 -3.90882,-2.15992 -5.63309,-3.50445 -0.63277,-0.4732 -1.3921,-1.05575 -2.1492,-1.72182 -0.88886,-0.7798 -1.75498,-1.66595 -2.42189,-2.56269 -0.77016,-1.03253 -1.26291,-2.09084 -1.68333,-2.63608 -0.2102,-0.27262 -0.41467,-0.41419 -0.63136,-0.33086 -0.21669,0.0833 -0.45216,0.39485 -0.61312,1.03057 -0.057,0.94609 0.12035,1.99787 0.51477,2.99573 0.55437,1.39513 1.45162,2.65383 2.38575,3.66986 C 219.52548,951.46341 219.63984,951.58486 219.75402,951.7039 Z"
         style="fill:#000000;stroke:#000000"
         sodipodi:nodetypes="csc"
         inkscape:path-effect="#path-effect1738"
         inkscape:original-d="m 488.29563,943.6197 c 0,17.2483 -60.4451,31.2308 -135.0077,31.2308 -74.5627,0 -135.0077,-13.9825 -135.0077,-31.2308" />
      <path
         style="fill:#000000;stroke:none"
         d="m 225.08169,935.38412 c 8.71337,-18.00101 16.17236,-36.66178 20.85318,-56.13347 2.8492,-11.85728 4.58931,-24.01293 4.92286,-36.20344 0.16035,-5.86016 0.0388,-11.72561 -0.39887,-17.57547 -1.16498,-15.51101 -4.54995,-30.80495 -9.54972,-45.51627 0,0 0,-10e-6 0,-10e-6 -3.48073,-10.24131 -7.70012,-20.19496 -12.25299,-29.97451 -1.6221,-3.48432 -3.26054,-6.95868 -4.89936,-10.42851 0,0 0,0 0,0 -6.04414,-12.80252 -12.10305,-25.58178 -17.15608,-38.70144 0,-10e-6 0,-10e-6 0,-10e-6 -4.97005,-12.91347 -8.93529,-26.18746 -10.88257,-39.75646 -0.0192,-0.1334 -0.0383,-0.26682 -0.0571,-0.40027 -2.05213,-14.54307 -1.41498,-29.47255 1.71778,-43.87647 3.5859,-16.52138 10.22311,-32.31993 18.37977,-47.28112 2.68059,-3.55166 2.95129,-5.77643 2.10713,-6.16184 -0.84417,-0.3854 -2.82718,1.11435 -4.35823,5.18429 -8.26531,14.99794 -15.02674,30.91127 -18.77079,47.6529 -3.2359,14.49218 -3.99519,29.53416 -2.07615,44.25246 0.0447,0.34305 0.0908,0.68594 0.1381,1.02867 1.92539,13.9022 5.88102,27.4459 10.86112,40.53942 5.05426,13.29706 11.08827,26.16785 17.0814,38.95544 1.40978,3.0104 2.81863,6.01919 4.21614,9.02973 4.6144,9.94016 9.18586,20.25334 13.00312,30.95046 2.57455,7.21411 4.79447,14.61591 6.52229,22.09942 1.72783,7.48352 2.96219,15.04844 3.60633,22.57573 0.51572,6.00296 0.65796,11.97208 0.47409,17.83316 -0.38211,12.18111 -2.33492,23.86501 -5.27936,35.12241 -2.32932,8.9089 -5.25376,17.56375 -8.59734,26.17381 -3.34357,8.61006 -7.10908,17.17732 -11.19293,25.91844 -1.18175,2.6223 -2.86377,6.71023 -3.81866,9.68768 -0.95489,2.97745 -1.14745,4.86785 0.78128,3.08303 C 222.13958,941.26997 223.69858,938.14371 225.08169,935.38412 Z"
         id="path1697"
         inkscape:connector-curvature="0"
         sodipodi:nodetypes="cc"
         inkscape:path-effect="#path-effect1735"
         inkscape:original-d="m 218.28023,563.6197 c -92.8935,154.4682 104.6259,189.3862 0,380" />
      <path
         sodipodi:nodetypes="cc"
         inkscape:connector-curvature="0"
         id="path1702"
         d="m 485.31747,933.42648 c -9.39759,-17.37088 -17.01263,-35.73157 -21.82529,-54.87678 -2.9292,-11.64776 -4.76587,-23.59138 -5.34748,-35.59429 -0.27958,-5.76997 -0.22598,-11.55626 0.17765,-17.32396 1.06575,-15.29322 4.5947,-30.37546 9.63254,-44.89008 0,0 0,0 0,0 3.50865,-10.10929 7.72704,-19.96718 12.1539,-29.75582 1.57725,-3.48753 3.20693,-6.95414 4.864,-10.40779 0,0 0,-10e-6 0,-10e-6 6.11589,-12.74138 12.62097,-25.34676 18.11409,-38.47653 0,0 0,0 0,0 5.41342,-12.93106 9.77994,-26.46534 11.59942,-40.48393 0.0178,-0.13803 0.0354,-0.27609 0.0527,-0.41417 1.88526,-15.04791 0.94807,-30.38761 -2.58626,-45.06301 -4.05401,-16.80096 -11.20968,-32.62865 -19.92802,-47.40224 -0.84462,-2.07411 -1.75478,-3.43423 -2.53614,-4.20257 -0.78135,-0.76834 -1.43546,-0.94658 -1.80365,-0.66427 -0.73639,0.56463 -0.32912,2.93824 2.34427,6.2953 8.49309,14.60515 15.42414,30.16712 19.28142,46.57954 3.33924,14.18605 4.20171,28.97932 2.38785,43.46078 -0.0423,0.33753 -0.0862,0.67488 -0.13164,1.01201 -1.84156,13.68674 -6.21811,26.9515 -11.62088,39.70099 -5.49273,12.9545 -12.02297,25.46858 -18.18876,38.22254 -1.45231,3.00184 -2.88456,6.01835 -4.28028,9.05489 -4.60829,10.02611 -9.04675,20.56245 -12.67072,31.53155 -2.44574,7.40322 -4.49185,15.00189 -6.03003,22.667 -1.53818,7.66511 -2.56732,15.39579 -3.0236,23.0642 -0.36185,6.11553 -0.36089,12.17146 -0.0616,18.1036 0.62212,12.32883 2.3028,24.14964 4.95012,35.638 2.09412,9.0845 4.76059,17.95559 8.03444,26.71921 3.27384,8.76362 7.15827,17.41809 11.72455,26.00931 1.39588,2.54251 3.7795,6.30626 5.73593,8.75214 1.95642,2.44588 3.44598,3.59271 3.00335,1.02543 C 488.4228,939.12766 486.73034,936.12763 485.31747,933.42648 Z"
         style="fill:#000000;stroke:none"
         inkscape:path-effect="#path-effect1732"
         inkscape:original-d="m 488.29553,563.6197 c 92.8935,154.4682 -104.6259,189.3862 0,380" />
      <path
         inkscape:original-d="m 399.96054,591.6197 c 63.87585,154.4682 -65.64066,189.3862 6.59124,380"
         inkscape:path-effect="#path-effect1870"
         sodipodi:nodetypes="cc"
         inkscape:connector-curvature="0"
         id="path1868"
         d="m 405.09156,961.39586 c -6.74723,-17.74793 -12.03564,-36.0675 -15.49307,-54.75539 -2.16506,-11.70002 -3.59301,-23.54634 -4.23428,-35.43875 -0.3162,-5.86439 -0.39421,-11.74267 -0.22934,-17.61663 0.42273,-15.11692 2.47494,-30.17701 5.61976,-44.98835 0,0 0,0 0,-10e-6 2.06811,-9.74179 4.60266,-19.38618 7.27241,-29.00896 1.0372,-3.73837 2.12478,-7.46482 3.24077,-11.1834 3.84246,-12.79928 8.00556,-25.53405 11.42232,-38.52779 0,0 0,0 0,0 3.47136,-13.19768 6.1201,-26.69482 7.02054,-40.38053 0.0185,-0.28267 0.0363,-0.56538 0.0533,-0.84812 0.89399,-14.86509 -0.0251,-29.81039 -2.65649,-44.41937 -2.92419,-16.22 -7.86009,-31.97952 -14.08062,-47.14625 -1.02622,-4.22286 -2.69648,-5.72129 -3.5098,-5.27526 -0.81333,0.44603 -0.79107,2.80039 1.32864,6.39427 6.0446,15.00185 10.81251,30.5421 13.59265,46.47668 2.48314,14.22174 3.32128,28.74676 2.4263,43.17429 -0.0296,0.47687 -0.0614,0.95361 -0.0954,1.4302 0,0 0,10e-6 0,10e-6 -0.95857,13.46583 -3.65647,26.77527 -7.15881,39.83238 0,0 0,10e-6 0,10e-6 -3.45123,12.86345 -7.6562,25.5313 -11.54353,38.34118 0,0 0,0 0,0 -0.98783,3.25334 -1.95363,6.51663 -2.88266,9.79269 -2.80292,9.88444 -5.43303,20.17294 -7.50221,30.70608 -2.94714,15.00621 -4.67618,30.4731 -4.93041,45.55789 -0.10354,6.18681 0.0316,12.3019 0.36025,18.29272 0.66754,12.16601 1.90846,23.84209 3.78661,35.31912 1.44226,8.81176 3.25173,17.50129 5.51022,26.18099 2.25848,8.6797 4.96759,17.34893 8.23903,26.08061 1.0234,2.61953 2.83533,6.54238 4.40573,9.14904 1.57041,2.60666 2.86782,3.90621 2.80945,1.36743 C 407.33932,967.29194 406.10439,964.17981 405.09156,961.39586 Z"
         style="fill:#0000ff;stroke:none" />
      <path
         sodipodi:nodetypes="cc"
         inkscape:connector-curvature="0"
         id="path1876"
         d="m 191.52628,700.4025 0,-106.7056"
         style="fill:none;stroke:#000000;stroke-width:1px;stroke-linecap:butt;stroke-linejoin:miter;stroke-opacity:1" />
      <path
         style="fill:none;stroke:#000000;stroke-width:1px;stroke-linecap:butt;stroke-linejoin:miter;stroke-opacity:1"
         d="m 419.52628,732.4025 0,-106.7056"
         id="path1892"
         inkscape:connector-curvature="0"
         sodipodi:nodetypes="cc" />
      <path
         sodipodi:nodetypes="cc"
         inkscape:connector-curvature="0"
         id="path1894"
         d="m 515.52628,704.4025 0,-106.7056"
         style="fill:none;stroke:#000000;stroke-width:1px;stroke-linecap:butt;stroke-linejoin:miter;stroke-opacity:1" />
      <path
         style="fill:none;stroke:#000000;stroke-width:1px;stroke-linecap:butt;stroke-linejoin:miter;stroke-opacity:1"
         d="m 251.02584,892.4025 0,-106.7056"
         id="path1896"
         inkscape:connector-curvature="0"
         sodipodi:nodetypes="cc" />
      <path
         sodipodi:nodetypes="cc"
         inkscape:connector-curvature="0"
         id="path1898"
         d="m 455.02584,892.4025 0,-106.7056"
         style="fill:none;stroke:#000000;stroke-width:1px;stroke-linecap:butt;stroke-linejoin:miter;stroke-opacity:1" />
      <path
         style="fill:none;stroke:#000000;stroke-width:1px;stroke-linecap:butt;stroke-linejoin:miter;stroke-opacity:1"
         d="m 382.62584,914.4025 0,-106.7056"
         id="path1902"
         inkscape:connector-curvature="0"
         sodipodi:nodetypes="cc" />
      <path
         sodipodi:nodetypes="cc"
         inkscape:connector-curvature="0"
         id="path1905"
         d="M 419.79661,697.6215 379.77018,843.3451"
         style="fill:none;stroke:#ff0000;stroke-width:0.99999994px;stroke-linecap:butt;stroke-linejoin:miter;stroke-opacity:1" />
      <path
         sodipodi:nodetypes="cc"
         style="fill:none;stroke:#ff0000;stroke-width:1px;stroke-linecap:butt;stroke-linejoin:miter;stroke-opacity:1"
         d="m 196.6591,680.9357 64.77725,138.7006"
         id="path1907"
         inkscape:connector-curvature="0" />
      <path
         inkscape:connector-curvature="0"
         id="path1911"
         d="m 503.74052,695.281 -49.38549,106.01"
         style="fill:none;stroke:#ff0000;stroke-width:1px;stroke-linecap:butt;stroke-linejoin:miter;stroke-opacity:1"
         sodipodi:nodetypes="cc" />
      <text
         sodipodi:linespacing="125%"
         id="text1913"
         y="657.18768"
         x="55.754971"
         style="font-size:15px;font-style:normal;font-variant:normal;font-weight:500;font-stretch:normal;text-align:start;line-height:125%;letter-spacing:0px;word-spacing:0px;writing-mode:lr-tb;text-anchor:start;fill:#000000;fill-opacity:1;stroke:none;font-family:CMU Serif;-inkscape-font-specification:CMU Serif Medium"
         xml:space="preserve"><tspan
           y="657.18768"
           x="55.754971"
           id="tspan1915"
           sodipodi:role="line">geodezyjna</tspan></text>
      <text
         xml:space="preserve"
         style="font-size:15px;font-style:normal;font-variant:normal;font-weight:500;font-stretch:normal;text-align:start;line-height:125%;letter-spacing:0px;word-spacing:0px;writing-mode:lr-tb;text-anchor:start;fill:#000000;fill-opacity:1;stroke:none;font-family:CMU Serif;-inkscape-font-specification:CMU Serif Medium"
         x="55.754971"
         y="841.18768"
         id="text1929"
         sodipodi:linespacing="125%"><tspan
           sodipodi:role="line"
           id="tspan1931"
           x="55.754971"
           y="841.18768">geodezyjna</tspan></text>
      <path
         sodipodi:nodetypes="cc"
         inkscape:connector-curvature="0"
         id="path1933"
         d="m 138.43554,653.2641 46.85145,0"
         style="fill:none;stroke:#000000;stroke-width:1px;stroke-linecap:butt;stroke-linejoin:miter;stroke-opacity:1" />
      <path
         sodipodi:nodetypes="cc"
         inkscape:connector-curvature="0"
         id="path1935"
         d="m 137.97787,837.1358 98.74981,0"
         style="fill:none;stroke:#000000;stroke-width:1px;stroke-linecap:butt;stroke-linejoin:miter;stroke-opacity:1" />
      <path
         sodipodi:nodetypes="cc"
         inkscape:connector-curvature="0"
         id="path1937"
         d="m 552.8862,753.434 -64.30631,0"
         style="fill:none;stroke:#000000;stroke-width:1px;stroke-linecap:butt;stroke-linejoin:miter;stroke-opacity:1" />
      <text
         sodipodi:linespacing="125%"
         id="text1939"
         y="757.93744"
         x="561.73077"
         style="font-size:15px;font-style:normal;font-variant:normal;font-weight:500;font-stretch:normal;text-align:start;line-height:125%;letter-spacing:0px;word-spacing:0px;writing-mode:lr-tb;text-anchor:start;fill:#000000;fill-opacity:1;stroke:none;font-family:CMU Serif;-inkscape-font-specification:CMU Serif Medium"
         xml:space="preserve"><tspan
           y="757.93744"
           x="561.73077"
           id="tspan1941"
           sodipodi:role="line">nie-geodezyjna</tspan></text>
      <text
         sodipodi:linespacing="125%"
         id="text1943"
         y="961.18781"
         x="587.04138"
         style="font-size:15px;font-style:normal;font-variant:normal;font-weight:500;font-stretch:normal;text-align:start;line-height:125%;letter-spacing:0px;word-spacing:0px;writing-mode:lr-tb;text-anchor:start;fill:#000000;fill-opacity:1;stroke:none;font-family:CMU Serif;-inkscape-font-specification:CMU Serif Medium"
         xml:space="preserve"><tspan
           id="tspan1951"
           sodipodi:role="line"
           x="587.04138"
           y="961.18781">geodezyjne</tspan></text>
      <path
         sodipodi:nodetypes="cc"
         inkscape:connector-curvature="0"
         id="path1947"
         d="m 411.24186,983.0927 c 21.4525,66.8594 110.02566,-22.9802 169.47446,-24.3125"
         style="fill:none;stroke:#000000;stroke-width:1px;stroke-linecap:butt;stroke-linejoin:miter;stroke-opacity:1" />
      <path
         style="fill:none;stroke:#000000;stroke-width:1px;stroke-linecap:butt;stroke-linejoin:miter;stroke-opacity:1"
         d="m 495.17384,951.0251 c 18.65976,21.9559 44.75474,8.4549 85.54248,7.7551"
         id="path1949"
         inkscape:connector-curvature="0"
         sodipodi:nodetypes="cc" />
      <g
         transform="translate(796.79513,-1172.5964)"
         style="opacity:0.3"
         id="g2075">
        <path
           style="fill:none;stroke:#000000;stroke-width:1px;stroke-linecap:butt;stroke-linejoin:miter;stroke-opacity:1"
           d="m -414.07094,2032.0404 -30.32339,-16.2742"
           id="path1888"
           inkscape:connector-curvature="0" />
        <path
           style="fill:none;stroke:#000000;stroke-width:1px;stroke-linecap:butt;stroke-linejoin:miter;stroke-opacity:1"
           d="m -437.38,2019.7991 0,-10.4597 -7.01433,-3.4962"
           id="path1998"
           inkscape:connector-curvature="0" />
      </g>
      <g
         transform="translate(796.79513,-1172.5964)"
         style="opacity:0.3"
         id="g2079">
        <path
           style="fill:none;stroke:#000000;stroke-width:1px;stroke-linecap:butt;stroke-linejoin:miter;stroke-opacity:1"
           d="m -391.02686,2143.8317 -53.36747,-28.6416"
           id="path1890"
           inkscape:connector-curvature="0" />
        <path
           inkscape:connector-curvature="0"
           id="path2000"
           d="m -437.38,2119.2996 0,-10.4597 -7.01433,-3.4962"
           style="fill:none;stroke:#000000;stroke-width:1px;stroke-linecap:butt;stroke-linejoin:miter;stroke-opacity:1" />
      </g>
      <g
         transform="translate(796.79513,-1172.5964)"
         style="opacity:0.3"
         id="g2071">
        <path
           sodipodi:nodetypes="cc"
           inkscape:connector-curvature="0"
           id="path1874"
           d="m -400.50732,1946.0155 -43.88701,-24.4635"
           style="fill:none;stroke:#000000;stroke-width:1px;stroke-linecap:butt;stroke-linejoin:miter;stroke-opacity:1" />
        <path
           inkscape:connector-curvature="0"
           id="path2013"
           d="m -437.38,1925.0996 0,-10.4597 -7.01433,-3.4962"
           style="fill:none;stroke:#000000;stroke-width:1px;stroke-linecap:butt;stroke-linejoin:miter;stroke-opacity:1" />
      </g>
      <g
         transform="translate(796.79513,-1172.5964)"
         style="opacity:0.3"
         id="g2059">
        <path
           style="fill:none;stroke:#000000;stroke-width:1px;stroke-linecap:butt;stroke-linejoin:miter;stroke-opacity:1"
           d="m -396.70363,1764.374 -47.6907,-24.822"
           id="path1900"
           inkscape:connector-curvature="0"
           sodipodi:nodetypes="cc" />
        <path
           style="fill:none;stroke:#000000;stroke-width:1px;stroke-linecap:butt;stroke-linejoin:miter;stroke-opacity:1"
           d="m -437.38,1743.0996 0,-10.4597 -7.01433,-3.4962"
           id="path2015"
           inkscape:connector-curvature="0" />
      </g>
      <g
         transform="translate(796.79513,-1172.5964)"
         style="opacity:0.3"
         id="g2063">
        <path
           style="fill:none;stroke:#000000;stroke-width:1px;stroke-linecap:butt;stroke-linejoin:miter;stroke-opacity:1"
           d="m -379.76941,1853.4711 -64.62492,-34.3734"
           id="path1872"
           inkscape:connector-curvature="0"
           sodipodi:nodetypes="cc" />
        <path
           inkscape:connector-curvature="0"
           id="path2057"
           d="m -437.38,1823.0996 0,-10.4597 -7.01433,-3.4962"
           style="fill:none;stroke:#000000;stroke-width:1px;stroke-linecap:butt;stroke-linejoin:miter;stroke-opacity:1" />
      </g>
    </g>
  </g>
</svg>
