<?xml version="1.0" encoding="UTF-8" standalone="no"?>
<!-- Created with Inkscape (http://www.inkscape.org/) -->

<svg
   xmlns:dc="http://purl.org/dc/elements/1.1/"
   xmlns:cc="http://creativecommons.org/ns#"
   xmlns:rdf="http://www.w3.org/1999/02/22-rdf-syntax-ns#"
   xmlns:svg="http://www.w3.org/2000/svg"
   xmlns="http://www.w3.org/2000/svg"
   xmlns:sodipodi="http://sodipodi.sourceforge.net/DTD/sodipodi-0.dtd"
   xmlns:inkscape="http://www.inkscape.org/namespaces/inkscape"
   width="273.56754"
   height="499.33502"
   id="svg2675"
   version="1.1"
   inkscape:version="0.48+devel r"
   sodipodi:docname="hyperb-octagon.svg">
  <title
     id="title3223">Winter School -- Contact Topology</title>
  <defs
     id="defs2677">
    <inkscape:path-effect
       effect="skeletal"
       id="path-effect3488"
       is_visible="true"
       pattern="m 95.054236,0.02624778 c -7.77241,0.72284 -15.55638,0.59508 -23.34732,0.93083 -7.79095,0.33575002 -15.58849,-0.16545 -23.38728,0.0109 -7.7988,0.17634002 -15.59884,-0.96978 -23.39479,-0.72517 -7.79596,0.24461 -15.5878095,0.58027 -23.3702295,1.12082002 -2.15230001,-1.15612002 -2.01174001,3.78271 0.0625,2.4375 7.71127,-0.37053 15.4322995,-0.53042 23.1566795,-0.61261 7.72438,-0.0822 15.45212,1.213 23.1768,1.15327 7.72469,-0.0597 16.17001,-0.80459 23.88219,-1.10773 7.71218,-0.30315 14.69083,1.13589 22.3777,0.32345 1.40356,-0.22689 4.29984,-1.54077 3.09375,-3.21875002 C 96.643456,-0.08987222 95.800066,-5.9221925e-4 95.054236,0.02624778 Z"
       copytype="single_stretched"
       prop_scale="0.15"
       scale_y_rel="false"
       spacing="0"
       normal_offset="0"
       tang_offset="0"
       prop_units="false"
       vertical_pattern="false"
       fuse_tolerance="0" />
    <inkscape:path-effect
       effect="skeletal"
       id="path-effect3480"
       is_visible="true"
       pattern="m 95.054236,0.02624778 c -7.77241,0.72284 -15.55638,0.59508 -23.34732,0.93083 -7.79095,0.33575002 -15.58849,-0.16545 -23.38728,0.0109 -7.7988,0.17634002 -15.59884,-0.96978 -23.39479,-0.72517 -7.79596,0.24461 -15.5878095,0.58027 -23.3702295,1.12082002 -2.15230001,-1.15612002 -2.01174001,3.78271 0.0625,2.4375 7.71127,-0.37053 15.4322995,-0.53042 23.1566795,-0.61261 7.72438,-0.0822 15.45212,1.213 23.1768,1.15327 7.72469,-0.0597 16.17001,-0.80459 23.88219,-1.10773 7.71218,-0.30315 14.69083,1.13589 22.3777,0.32345 1.40356,-0.22689 4.29984,-1.54077 3.09375,-3.21875002 C 96.643456,-0.08987222 95.800066,-5.9221925e-4 95.054236,0.02624778 Z"
       copytype="single_stretched"
       prop_scale="5"
       scale_y_rel="false"
       spacing="0"
       normal_offset="0"
       tang_offset="0"
       prop_units="false"
       vertical_pattern="false"
       fuse_tolerance="0" />
    <inkscape:path-effect
       effect="skeletal"
       id="path-effect3472"
       is_visible="true"
       pattern="m 95.054236,0.02624778 c -7.77241,0.72284 -15.55638,0.59508 -23.34732,0.93083 -7.79095,0.33575002 -15.58849,-0.16545 -23.38728,0.0109 -7.7988,0.17634002 -15.59884,-0.96978 -23.39479,-0.72517 -7.79596,0.24461 -15.5878095,0.58027 -23.3702295,1.12082002 -2.15230001,-1.15612002 -2.01174001,3.78271 0.0625,2.4375 7.71127,-0.37053 15.4322995,-0.53042 23.1566795,-0.61261 7.72438,-0.0822 15.45212,1.213 23.1768,1.15327 7.72469,-0.0597 16.17001,-0.80459 23.88219,-1.10773 7.71218,-0.30315 14.69083,1.13589 22.3777,0.32345 1.40356,-0.22689 4.29984,-1.54077 3.09375,-3.21875002 C 96.643456,-0.08987222 95.800066,-5.9221925e-4 95.054236,0.02624778 Z"
       copytype="single_stretched"
       prop_scale="5"
       scale_y_rel="false"
       spacing="0"
       normal_offset="0"
       tang_offset="0"
       prop_units="false"
       vertical_pattern="false"
       fuse_tolerance="0" />
    <inkscape:path-effect
       effect="skeletal"
       id="path-effect3464"
       is_visible="true"
       pattern="m 95.054236,0.02624778 c -7.77241,0.72284 -15.55638,0.59508 -23.34732,0.93083 -7.79095,0.33575002 -15.58849,-0.16545 -23.38728,0.0109 -7.7988,0.17634002 -15.59884,-0.96978 -23.39479,-0.72517 -7.79596,0.24461 -15.5878095,0.58027 -23.3702295,1.12082002 -2.15230001,-1.15612002 -2.01174001,3.78271 0.0625,2.4375 7.71127,-0.37053 15.4322995,-0.53042 23.1566795,-0.61261 7.72438,-0.0822 15.45212,1.213 23.1768,1.15327 7.72469,-0.0597 16.17001,-0.80459 23.88219,-1.10773 7.71218,-0.30315 14.69083,1.13589 22.3777,0.32345 1.40356,-0.22689 4.29984,-1.54077 3.09375,-3.21875002 C 96.643456,-0.08987222 95.800066,-5.9221925e-4 95.054236,0.02624778 Z"
       copytype="single_stretched"
       prop_scale="1"
       scale_y_rel="false"
       spacing="0"
       normal_offset="0"
       tang_offset="0"
       prop_units="false"
       vertical_pattern="false"
       fuse_tolerance="0" />
    <inkscape:path-effect
       effect="skeletal"
       id="path-effect3456"
       is_visible="true"
       pattern="m 95.054236,0.02624778 c -7.77241,0.72284 -15.55638,0.59508 -23.34732,0.93083 -7.79095,0.33575002 -15.58849,-0.16545 -23.38728,0.0109 -7.7988,0.17634002 -15.59884,-0.96978 -23.39479,-0.72517 -7.79596,0.24461 -15.5878095,0.58027 -23.3702295,1.12082002 -2.15230001,-1.15612002 -2.01174001,3.78271 0.0625,2.4375 7.71127,-0.37053 15.4322995,-0.53042 23.1566795,-0.61261 7.72438,-0.0822 15.45212,1.213 23.1768,1.15327 7.72469,-0.0597 16.17001,-0.80459 23.88219,-1.10773 7.71218,-0.30315 14.69083,1.13589 22.3777,0.32345 1.40356,-0.22689 4.29984,-1.54077 3.09375,-3.21875002 C 96.643456,-0.08987222 95.800066,-5.9221925e-4 95.054236,0.02624778 Z"
       copytype="single_stretched"
       prop_scale="5"
       scale_y_rel="false"
       spacing="0"
       normal_offset="0"
       tang_offset="0"
       prop_units="false"
       vertical_pattern="false"
       fuse_tolerance="0" />
    <inkscape:path-effect
       effect="skeletal"
       id="path-effect3448"
       is_visible="true"
       pattern="m 95.054236,0.02624778 c -7.77241,0.72284 -15.55638,0.59508 -23.34732,0.93083 -7.79095,0.33575002 -15.58849,-0.16545 -23.38728,0.0109 -7.7988,0.17634002 -15.59884,-0.96978 -23.39479,-0.72517 -7.79596,0.24461 -15.5878095,0.58027 -23.3702295,1.12082002 -2.15230001,-1.15612002 -2.01174001,3.78271 0.0625,2.4375 7.71127,-0.37053 15.4322995,-0.53042 23.1566795,-0.61261 7.72438,-0.0822 15.45212,1.213 23.1768,1.15327 7.72469,-0.0597 16.17001,-0.80459 23.88219,-1.10773 7.71218,-0.30315 14.69083,1.13589 22.3777,0.32345 1.40356,-0.22689 4.29984,-1.54077 3.09375,-3.21875002 C 96.643456,-0.08987222 95.800066,-5.9221925e-4 95.054236,0.02624778 Z"
       copytype="single_stretched"
       prop_scale="1"
       scale_y_rel="false"
       spacing="0"
       normal_offset="0"
       tang_offset="0"
       prop_units="false"
       vertical_pattern="false"
       fuse_tolerance="0" />
    <inkscape:path-effect
       effect="skeletal"
       id="path-effect3437"
       is_visible="true"
       pattern="m 95.054236,0.02624778 c -7.77241,0.72284 -15.55638,0.59508 -23.34732,0.93083 -7.79095,0.33575002 -15.58849,-0.16545 -23.38728,0.0109 -7.7988,0.17634002 -15.59884,-0.96978 -23.39479,-0.72517 -7.79596,0.24461 -15.5878095,0.58027 -23.3702295,1.12082002 -2.15230001,-1.15612002 -2.01174001,3.78271 0.0625,2.4375 7.71127,-0.37053 15.4322995,-0.53042 23.1566795,-0.61261 7.72438,-0.0822 15.45212,1.213 23.1768,1.15327 7.72469,-0.0597 16.17001,-0.80459 23.88219,-1.10773 7.71218,-0.30315 14.69083,1.13589 22.3777,0.32345 1.40356,-0.22689 4.29984,-1.54077 3.09375,-3.21875002 C 96.643456,-0.08987222 95.800066,-5.9221925e-4 95.054236,0.02624778 Z"
       copytype="single_stretched"
       prop_scale="5"
       scale_y_rel="false"
       spacing="0"
       normal_offset="0"
       tang_offset="0"
       prop_units="false"
       vertical_pattern="false"
       fuse_tolerance="0" />
    <inkscape:path-effect
       effect="skeletal"
       id="path-effect3429"
       is_visible="true"
       pattern="m 95.054236,0.02624778 c -7.77241,0.72284 -15.55638,0.59508 -23.34732,0.93083 -7.79095,0.33575002 -15.58849,-0.16545 -23.38728,0.0109 -7.7988,0.17634002 -15.59884,-0.96978 -23.39479,-0.72517 -7.79596,0.24461 -15.5878095,0.58027 -23.3702295,1.12082002 -2.15230001,-1.15612002 -2.01174001,3.78271 0.0625,2.4375 7.71127,-0.37053 15.4322995,-0.53042 23.1566795,-0.61261 7.72438,-0.0822 15.45212,1.213 23.1768,1.15327 7.72469,-0.0597 16.17001,-0.80459 23.88219,-1.10773 7.71218,-0.30315 14.69083,1.13589 22.3777,0.32345 1.40356,-0.22689 4.29984,-1.54077 3.09375,-3.21875002 C 96.643456,-0.08987222 95.800066,-5.9221925e-4 95.054236,0.02624778 Z"
       copytype="single_stretched"
       prop_scale="0.15"
       scale_y_rel="false"
       spacing="0"
       normal_offset="0"
       tang_offset="0"
       prop_units="false"
       vertical_pattern="false"
       fuse_tolerance="0" />
    <inkscape:path-effect
       fuse_tolerance="0"
       vertical_pattern="false"
       prop_units="false"
       tang_offset="0"
       normal_offset="0"
       spacing="0"
       scale_y_rel="false"
       prop_scale="1"
       copytype="single_stretched"
       pattern="m 150.1633,1560.9154 c -7.7724,0.7229 -15.5563,0.5951 -23.3473,0.9309 -7.7909,0.3357 -15.5885,-0.1655 -23.3873,0.011 -7.798796,0.1763 -15.598796,-0.9698 -23.394696,-0.7252 -7.796,0.2446 -15.5879,0.5803 -23.3703,1.1208 -2.1523,-1.1561 -2.0117,3.7827 0.063,2.4375 7.7113,-0.3705 15.4323,-0.5304 23.1567,-0.6126 7.7244,-0.082 15.4521,1.213 23.176796,1.1533 7.7247,-0.06 16.17,-0.8046 23.8822,-1.1077 7.7122,-0.3032 14.6908,1.1358 22.3777,0.3234 1.4036,-0.2269 4.2998,-1.5408 3.0937,-3.2187 C 151.7526,1560.7993 150.9092,1560.8886 150.1633,1560.9154 Z"
       is_visible="true"
       id="path-effect2405-0"
       effect="skeletal" />
    <inkscape:path-effect
       fuse_tolerance="0"
       vertical_pattern="false"
       prop_units="false"
       tang_offset="0"
       normal_offset="0"
       spacing="0"
       scale_y_rel="false"
       prop_scale="1"
       copytype="single_stretched"
       pattern="m 885.82397,1229.7289 c -7.7724,0.7229 -15.5563,0.5951 -23.3473,0.9309 -7.7909,0.3357 -15.5885,-0.1655 -23.3873,0.011 -7.79879,0.1763 -15.59879,-0.9698 -23.39469,-0.7252 -7.796,0.2446 -15.5879,0.5803 -23.3703,1.1208 -2.1523,-1.1561 -2.0117,3.7827 0.063,2.4375 7.7113,-0.3705 15.4323,-0.5304 23.1567,-0.6126 7.7244,-0.082 15.4521,1.213 23.17679,1.1533 7.7247,-0.06 16.17,-0.8046 23.8822,-1.1077 7.7122,-0.3032 14.6908,1.1358 22.3777,0.3234 1.4036,-0.2269 4.2998,-1.5408 3.0937,-3.2187 C 887.41327,1229.6128 886.56987,1229.7021 885.82397,1229.7289 Z"
       is_visible="true"
       id="path-effect2405-0-9"
       effect="skeletal" />
  </defs>
  <sodipodi:namedview
     id="base"
     pagecolor="#ffffff"
     bordercolor="#666666"
     borderopacity="1.0"
     inkscape:pageopacity="0.0"
     inkscape:pageshadow="2"
     inkscape:zoom="6.5625"
     inkscape:cx="130.63089"
     inkscape:cy="30.270327"
     inkscape:document-units="px"
     inkscape:current-layer="layer1"
     showgrid="false"
     fit-margin-top="0"
     fit-margin-left="0"
     fit-margin-right="0"
     fit-margin-bottom="0"
     inkscape:snap-global="true"
     inkscape:snap-intersection-paths="true"
     inkscape:snap-bbox="true"
     inkscape:bbox-paths="true"
     inkscape:bbox-nodes="true"
     inkscape:snap-bbox-edge-midpoints="true"
     inkscape:snap-bbox-midpoints="true"
     inkscape:object-nodes="true"
     inkscape:snap-smooth-nodes="true"
     inkscape:snap-midpoints="true"
     inkscape:snap-object-midpoints="true"
     inkscape:snap-center="true"
     inkscape:snap-text-baseline="true"
     inkscape:snap-page="true" />
  <metadata
     id="metadata2680">
    <rdf:RDF>
      <cc:Work
         rdf:about="">
        <dc:format>image/svg+xml</dc:format>
        <dc:type
           rdf:resource="http://purl.org/dc/dcmitype/StillImage" />
        <dc:title>Winter School -- Contact Topology</dc:title>
        <dc:date>2013</dc:date>
        <dc:creator>
          <cc:Agent>
            <dc:title>Marek Kaluba</dc:title>
          </cc:Agent>
        </dc:creator>
        <dc:rights>
          <cc:Agent>
            <dc:title>Marek Kaluba</dc:title>
          </cc:Agent>
        </dc:rights>
      </cc:Work>
    </rdf:RDF>
  </metadata>
  <g
     inkscape:label="Layer 1"
     inkscape:groupmode="layer"
     id="layer1"
     transform="translate(-247.83596,-128.80023)">
    <g
       id="g3500"
       style="stroke:#999999">
      <path
         transform="matrix(0.23402279,0,0,-0.23855697,1131.3114,1082.0084)"
         style="color:#000000;color-interpolation:sRGB;color-interpolation-filters:linearRGB;fill:none;stroke:#999999;stroke-width:1.69291377;stroke-miterlimit:4;stroke-opacity:1;marker:none;visibility:visible;display:inline;overflow:visible;enable-background:accumulate;clip-rule:nonzero"
         d="m -2757.3581,1906.9052 c 1.0683,142.7439 -113.7824,259.3268 -256.5263,260.3951 -142.744,1.0684 -259.3269,-113.7824 -260.3952,-256.5263 -0.011,-1.407 -0.01,-2.8141 0,-4.2211"
         id="path2595" />
      <path
         transform="matrix(0.16598746,0,0,-0.17548138,882.96488,963.55496)"
         style="color:#000000;color-interpolation:sRGB;color-interpolation-filters:linearRGB;fill:none;stroke:#999999;stroke-width:2.34372616;stroke-miterlimit:4;stroke-opacity:1;marker:none;visibility:visible;display:inline;overflow:visible;enable-background:accumulate;clip-rule:nonzero"
         d="m -2757.4891,1917.292 c -4.6681,142.6716 -124.1106,254.5455 -266.7822,249.8773 -135.8491,-4.4449 -245.0445,-113.3479 -249.8537,-249.1846"
         id="path2629" />
      <path
         transform="matrix(0.23402279,0,0,-0.23855697,1045.0686,1082.0084)"
         style="color:#000000;color-interpolation:sRGB;color-interpolation-filters:linearRGB;fill:none;stroke:#999999;stroke-width:1.69291377;stroke-miterlimit:4;stroke-opacity:1;marker:none;visibility:visible;display:inline;overflow:visible;enable-background:accumulate;clip-rule:nonzero"
         d="m -2757.3509,1908.8396 c 0,142.7479 -115.72,258.468 -258.4679,258.468 -142.748,0 -258.468,-115.7201 -258.468,-258.468 0,-0.086 0,-0.1722 10e-5,-0.2582"
         id="path2633" />
      <path
         sodipodi:nodetypes="cc"
         inkscape:connector-curvature="0"
         id="path3496"
         d="m 382.63973,627.12194 0,-498.32171"
         style="fill:none;stroke:#999999;stroke-width:0.40000001;stroke-linecap:butt;stroke-linejoin:miter;stroke-miterlimit:4;stroke-opacity:1;stroke-dasharray:none" />
    </g>
    <g
       id="g3506">
      <path
         transform="matrix(-5.0501153,0,0,-4.9434729,-13645.638,10063.322)"
         style="color:#000000;color-interpolation:sRGB;color-interpolation-filters:linearRGB;fill:#000000;stroke:none;stroke-width:0.37495446;marker:none;visibility:visible;display:inline;overflow:visible;enable-background:accumulate;clip-rule:nonzero"
         d="m -2776.4562,2007.2144 c 2.9778,-7.5331 5.7206,-15.1707 8.0352,-22.9479 2.3146,-7.7773 4.3872,-15.638 5.989,-23.6011 1.6018,-7.963 3.0273,-15.9739 3.8665,-24.0533 0.8391,-8.0794 1.2841,-16.1941 1.3125,-24.2982 0.2037,-2.2386 -0.5386,-2.0993 -0.3665,0.06 -0.055,8.0181 -0.5194,16.0448 -1.3684,24.0343 -0.849,7.9895 -2.2746,15.9089 -3.8633,23.7798 -1.5888,7.871 -3.6385,16.4181 -5.9347,24.1042 -2.2961,7.686 -4.9286,14.4582 -7.8282,21.9086 -0.5185,1.3648 -1.5064,4.2202 -0.7862,3.16 C -2777.0736,2008.7515 -2776.7478,2007.9348 -2776.4562,2007.2144 Z"
         id="path2025" />
      <path
         transform="matrix(5.0501153,0,0,-4.9434729,14410.388,10063.322)"
         style="color:#000000;color-interpolation:sRGB;color-interpolation-filters:linearRGB;fill:#000000;stroke:none;stroke-width:0.37495446;marker:none;visibility:visible;display:inline;overflow:visible;enable-background:accumulate;clip-rule:nonzero"
         d="m -2776.4434,2007.1833 c 2.9746,-7.5282 5.7148,-15.1606 8.0272,-22.9325 2.3124,-7.7719 4.3834,-15.627 5.984,-23.5844 1.6007,-7.9574 3.0256,-15.9626 3.8647,-24.0361 0.8391,-8.0736 1.2845,-16.1826 1.314,-24.2809 0.204,-2.237 -0.5383,-2.0979 -0.3665,0.06 -0.056,8.0124 -0.5209,16.0334 -1.3698,24.0171 -0.849,7.9838 -2.274,15.8975 -3.8616,23.7628 -1.5876,7.8654 -3.6356,16.4065 -5.9297,24.0872 -2.294,7.6808 -4.9241,14.4484 -7.8205,21.8939 -0.518,1.3639 -1.5046,4.2174 -0.785,3.158 C -2777.0602,2008.7193 -2776.7347,2007.9033 -2776.4434,2007.1833 Z"
         id="path2016" />
      <path
         transform="matrix(0.12270666,0,0,-0.1288039,825.04927,872.99186)"
         style="color:#000000;color-interpolation:sRGB;color-interpolation-filters:linearRGB;fill:#000000;stroke:none;stroke-width:14.90207577;marker:none;visibility:visible;display:inline;overflow:visible;enable-background:accumulate;clip-rule:nonzero"
         d="m -3270.6566,1995.5481 c 7.6451,18.4006 16.7758,36.0079 27.4939,52.5511 10.7182,16.5432 23.0324,32.0174 36.9661,45.8906 11.0961,11.0425 23.1966,21.0417 36.1453,29.7331 12.2318,8.2103 24.9444,15.6394 38.1359,22.1218 13.1914,6.4824 26.8631,12.0158 40.938,16.3698 12.0848,3.737 24.4497,6.6146 36.9722,8.5143 12.5225,1.8998 25.2028,2.8204 37.8638,2.6468 9.9243,-0.1361 19.836,-0.6148 29.7302,-1.5296 0,0 0,0 0,0 16.9484,-1.5701 33.8338,-4.4067 50.3827,-8.8562 16.5489,-4.4496 32.7579,-10.5214 48.0583,-18.4673 9.7813,-5.0801 19.1775,-10.9195 28.0001,-17.5155 18.7918,-14.0492 35.6438,-30.5745 49.8931,-49.0251 19.4769,-25.2317 33.9623,-53.997 42.6315,-84.1607 2.5821,-3.083 2.9785,-5.8928 2.1687,-8.0144 -0.8097,-2.1216 -2.8208,-3.5692 -5.0553,-4.142 -2.2345,-0.5728 -4.6893,-0.2841 -6.4436,1.0609 -1.7544,1.345 -2.8043,3.7351 -2.3362,7.5437 -8.6623,28.4881 -22.808,55.5194 -41.5164,79.0306 -13.5401,17.0226 -29.4498,32.2279 -47.0725,45.1266 -8.6762,6.3504 -17.9271,11.9133 -27.5404,16.6923 -14.5647,7.2409 -29.9537,12.6813 -45.5977,16.604 -15.644,3.9227 -31.5394,6.3375 -47.4248,7.6199 -8.4618,0.6859 -16.9322,1.0476 -25.4103,1.1604 -11.8952,0.1582 -24.0777,-0.3612 -36.3472,-1.7006 -12.2695,-1.3394 -24.6245,-3.4997 -36.8117,-6.5599 0,0 0,0 0,0 -13.8259,-3.469 -27.4382,-8.1304 -40.4469,-13.8943 -13.0087,-5.764 -25.4095,-12.6302 -36.828,-20.3731 -12.3944,-8.4045 -23.2975,-18.2427 -32.9193,-28.9033 -5.9323,-6.5701 -11.3844,-13.459 -16.46,-20.5712 -5.0755,-7.1123 -9.7755,-14.4478 -14.2134,-21.963 -4.438,-7.5151 -8.6148,-15.2096 -12.6414,-23.093 -4.0266,-7.8834 -7.9039,-15.9552 -11.7265,-24.2837 -1.0732,-2.1037 -2.647,-4.6966 -4.4551,-7.2897 -1.808,-2.5931 -3.8504,-5.189 -5.9251,-7.2451 -2.0746,-2.056 -4.1866,-3.5726 -6.1615,-3.9345 -1.9748,-0.3618 -3.8238,0.4335 -5.2771,3.0581 -0.4097,2.5507 -0.069,5.2599 0.6096,7.9464 C -3272.5987,1990.3828 -3271.5816,1993.0452 -3270.6566,1995.5481 Z"
         id="path2597" />
      <path
         transform="matrix(0.05548307,0,0,-0.05636333,580.15711,734.71434)"
         style="color:#000000;color-interpolation:sRGB;color-interpolation-filters:linearRGB;fill:#000000;stroke:#000000;stroke-width:14.30577564;stroke-miterlimit:4;marker:none;visibility:visible;display:inline;overflow:visible;enable-background:accumulate;clip-rule:nonzero"
         d="m -3260.5146,2021.0235 c 5.4626,9.7647 11.2819,19.2447 17.5184,28.4052 6.2364,9.1604 12.8908,18.0007 20.0097,26.4366 14.2379,16.8718 30.3736,32.1559 48.4315,44.7252 0.7554,0.5257 1.5139,1.0465 2.2756,1.5625 14.2148,9.6298 28.974,18.356 44.4106,25.7855 15.4367,7.4294 31.5559,13.5529 48.2132,17.8017 10.2313,2.6076 20.6462,4.5069 31.1397,5.5922 11.6681,1.2068 23.3558,2.0891 35.106,2.4079 11.7502,0.3187 23.5628,0.071 35.3536,-1.0023 10.7719,-0.9811 21.5169,-2.6523 32.0784,-5.1723 10.5615,-2.5199 20.939,-5.8903 30.8957,-10.2284 11.694,-5.0951 22.9906,-11.0456 33.7522,-17.806 27.6269,-17.3645 51.5792,-40.0639 70.1088,-66.2199 3.0523,-1.4905 4.0852,-3.5892 3.8629,-5.6024 -0.2223,-2.0132 -1.6922,-3.9504 -3.579,-5.2764 -1.8868,-1.3261 -4.1843,-2.0504 -6.0973,-1.6536 -1.913,0.3968 -3.4352,1.9069 -3.8992,5.1619 -18.0349,24.509 -41.1354,45.5813 -67.454,61.472 -10.0559,6.074 -20.5791,11.4037 -31.4398,15.9557 -9.594,4.0211 -19.5912,7.0718 -29.7412,9.285 -10.15,2.2131 -20.4524,3.5905 -30.7449,4.309 -10.7819,0.7529 -21.5577,0.7858 -32.2559,0.3485 -10.6982,-0.4372 -21.3189,-1.3422 -31.9073,-2.4844 -10.28,-1.109 -20.7583,-2.6816 -31.2649,-4.8661 -15.8944,-3.2989 -31.8736,-8.0405 -47.1971,-14.3099 -15.3234,-6.2694 -29.9769,-14.0676 -43.1657,-23.0889 -0.5365,-0.3669 -1.0696,-0.7371 -1.5994,-1.1103 0,0 0,0 0,0 -8.5295,-6.0066 -16.1877,-12.8197 -23.1547,-20.0917 -6.9671,-7.272 -13.2466,-15.0029 -19.1038,-22.9846 -5.8572,-7.9817 -11.2947,-16.2133 -16.6164,-24.6319 -5.3217,-8.4187 -10.5304,-17.0224 -15.929,-25.9152 -1.0895,-1.6063 -2.6864,-3.5422 -4.5291,-5.4338 -1.8427,-1.8917 -3.9314,-3.7413 -6.0419,-5.1304 -2.1106,-1.3892 -4.2464,-2.318 -6.1923,-2.3084 -1.9459,0.01 -3.7094,0.9601 -5.0025,3.3715 C -3264.8302,2012.6992 -3262.4621,2017.1083 -3260.5146,2021.0235 Z"
         id="path2601" />
      <path
         transform="matrix(0.03891472,0,0,-0.0384206,508.41847,700.48455)"
         style="color:#000000;color-interpolation:sRGB;color-interpolation-filters:linearRGB;fill:none;stroke:#000000;stroke-width:25.86194038;stroke-miterlimit:4;marker:none;visibility:visible;display:inline;overflow:visible;enable-background:accumulate;clip-rule:nonzero"
         d="m -3232.3198,2053.9058 c 9.9754,14.3294 21.2677,27.7192 33.7412,39.9069 12.4735,12.1878 26.1298,23.1718 40.7865,32.6276 5.9915,3.8654 12.1459,7.4777 18.4425,10.8202 24.2591,12.8775 50.3987,22.2602 77.4409,27.1984 14.3138,2.6132 28.858,3.9843 43.4089,4.0581 18.8364,0.096 37.6922,-1.5781 56.192,-5.2566 22.7896,-4.5315 45.0398,-12.1223 65.6727,-22.8609 9.0618,-4.7163 17.8399,-9.9675 26.2667,-15.7271 26.3367,-18.0027 49.1559,-40.9827 67.0099,-67.2234 1.8969,-2.2077 3.0056,-4.0316 3.5374,-5.3388 0.5319,-1.3073 0.488,-2.1001 0.065,-2.2951 -0.4232,-0.195 -1.225,0.2059 -2.2389,1.2682 -1.014,1.0624 -2.2393,2.7847 -3.5518,5.2416 -17.7572,25.8095 -40.3772,48.3703 -66.3983,66.005 -8.1334,5.5125 -16.5932,10.5467 -25.3167,15.0793 -20.647,10.7278 -42.9237,18.2547 -65.7085,22.6998 -17.6414,3.4418 -35.5971,5.0485 -53.5343,5.0451 -14.6464,-0 -29.7865,-1.1849 -44.8546,-3.7486 -13.6088,-2.3147 -27.1469,-5.764 -40.1961,-10.2386 -13.0492,-4.4746 -25.6053,-9.9726 -37.3016,-16.2299 -6.1194,-3.2739 -11.9874,-6.7836 -17.6288,-10.4985 -13.9302,-9.1731 -26.4674,-19.5828 -38.0642,-31.034 -11.5969,-11.4512 -22.2677,-23.9473 -32.296,-37.7491 -2.2341,-3.008 -5.7163,-7.5842 -8.3143,-10.6942 -1.299,-1.5549 -2.3894,-2.734 -3.0427,-3.1196 -0.6532,-0.3856 -0.8753,0.025 -0.3912,1.6371 C -3237.1137,2046.7565 -3234.5903,2050.5699 -3232.3198,2053.9058 Z"
         id="path2605" />
      <path
         transform="matrix(-0.12270666,0,0,-0.1288039,-60.302587,872.99186)"
         style="color:#000000;color-interpolation:sRGB;color-interpolation-filters:linearRGB;fill:#000000;stroke:none;stroke-width:14.90207577;marker:none;visibility:visible;display:inline;overflow:visible;enable-background:accumulate;clip-rule:nonzero"
         d="m -3270.1653,1996.9792 c 7.7133,18.2691 16.8916,35.7444 27.6359,52.1588 10.7442,16.4144 23.0628,31.7632 36.9785,45.5217 11.2009,11.0692 23.4137,21.0801 36.4792,29.7633 12.1488,8.0741 24.7648,15.3809 37.8465,21.7593 13.0816,6.3784 26.6303,11.8262 40.5719,16.1194 12.1822,3.7503 24.6474,6.6292 37.2705,8.5155 12.6231,1.8862 25.4044,2.7784 38.1623,2.5586 9.7288,-0.1676 19.4442,-0.664 29.142,-1.5775 0,0 0,0 0,0 16.9448,-1.5995 33.8243,-4.4593 50.3668,-8.9282 16.5425,-4.4689 32.7445,-10.5563 48.0374,-18.5159 9.867,-5.1359 19.3417,-11.0447 28.2297,-17.7234 18.6759,-14.0337 35.4227,-30.5175 49.5865,-48.9066 19.4486,-25.2625 33.8984,-54.054 42.5263,-84.2361 2.5759,-3.0803 2.9672,-5.886 2.1538,-8.0036 -0.8134,-2.1176 -2.8267,-3.5613 -5.0618,-4.1314 -2.2352,-0.5702 -4.6892,-0.2799 -6.4409,1.0644 -1.7517,1.3443 -2.7972,3.7314 -2.322,7.5338 -8.6241,28.5062 -22.7372,55.5625 -41.4198,79.1026 -13.4593,16.9652 -29.2701,32.1318 -46.7845,45.0161 -8.738,6.4281 -18.0635,12.055 -27.7579,16.8848 -14.558,7.2533 -29.9406,12.7079 -45.5784,16.6488 -15.6378,3.9409 -31.5275,6.3778 -47.4092,7.6886 -8.2792,0.6862 -16.5673,1.0635 -24.8637,1.2028 -11.9807,0.2011 -24.2557,-0.284 -36.6207,-1.6015 -12.3649,-1.3174 -24.8182,-3.4683 -37.1002,-6.5333 0,0 0,0 0,0 -13.7001,-3.4162 -27.1895,-8.0028 -40.0881,-13.6724 -12.8985,-5.6697 -25.2023,-12.4219 -36.546,-20.0384 -12.5102,-8.3996 -23.515,-18.2587 -33.2282,-28.9525 -5.9223,-6.5175 -11.3713,-13.3515 -16.4498,-20.4078 -5.0784,-7.0563 -9.787,-14.3348 -14.2382,-21.7922 -4.4513,-7.4575 -8.646,-15.0935 -12.6941,-22.9174 -4.0481,-7.8239 -7.9505,-15.8351 -11.8014,-24.1007 -1.0836,-2.0939 -2.6701,-4.6731 -4.4911,-7.2511 -1.821,-2.578 -3.8764,-5.1571 -5.9615,-7.1972 -2.0851,-2.04 -4.2048,-3.5411 -6.1813,-3.8902 -1.9765,-0.3491 -3.821,0.4564 -5.2603,3.0857 -0.3962,2.5491 -0.042,5.2518 0.651,7.9299 C -3272.1334,1991.8339 -3271.1029,1994.4859 -3270.1653,1996.9792 Z"
         id="path2616" />
      <path
         transform="matrix(-0.05548307,0,0,-0.05636333,184.58956,734.71434)"
         style="color:#000000;color-interpolation:sRGB;color-interpolation-filters:linearRGB;fill:#000000;stroke:#000000;stroke-width:14.30577564;stroke-miterlimit:4;marker:none;visibility:visible;display:inline;overflow:visible;enable-background:accumulate;clip-rule:nonzero"
         d="m -3260.3645,2021.3505 c 5.4624,9.7328 11.279,19.182 17.51,28.3128 6.231,9.1309 12.8772,17.9428 19.9849,26.3523 14.2155,16.8189 30.3166,32.0573 48.329,44.5967 0.8233,0.573 1.6504,1.1404 2.4812,1.7019 14.1907,9.5917 28.9216,18.2841 44.3253,25.6865 15.4038,7.4024 31.4856,13.5056 48.1027,17.7442 10.2853,2.6215 20.756,4.5277 31.3058,5.611 11.6413,1.1954 23.3017,2.0683 35.024,2.381 11.7223,0.3128 23.5064,0.063 35.2689,-1.0088 10.7861,-0.9828 21.5453,-2.657 32.1205,-5.182 10.5753,-2.5251 20.966,-5.9027 30.9342,-10.251 11.665,-5.0884 22.934,-11.0284 33.6705,-17.7744 27.627,-17.3684 51.5781,-40.0721 70.1049,-66.2325 3.051,-1.4894 4.0828,-3.5871 3.8598,-5.5995 -0.223,-2.0125 -1.6933,-3.9492 -3.5802,-5.2752 -1.8869,-1.3259 -4.1842,-2.0503 -6.0966,-1.6541 -1.9124,0.3963 -3.4338,1.9056 -3.8963,5.1592 -18.0325,24.5131 -41.1323,45.5892 -67.4511,61.4833 -10.032,6.0608 -20.5293,11.3808 -31.3628,15.9267 -9.6049,4.0305 -19.6146,7.0877 -29.7776,9.3052 -10.163,2.2175 -20.4787,3.5972 -30.7845,4.317 -10.7553,0.7514 -21.5045,0.7872 -32.1767,0.3558 -10.6722,-0.4315 -21.2675,-1.3277 -31.831,-2.4595 -10.3306,-1.1069 -20.8619,-2.6816 -31.4214,-4.8744 -15.8595,-3.2878 -31.8025,-8.0122 -47.0927,-14.2575 -15.2902,-6.2452 -29.9137,-14.0125 -43.0804,-22.9983 -0.6026,-0.4112 -1.201,-0.8265 -1.7953,-1.2457 0,0 0,0 0,0 -8.5014,-5.9948 -16.1372,-12.7904 -23.0869,-20.0419 -6.9497,-7.2515 -13.2169,-14.9589 -19.0652,-22.9159 -5.8484,-7.9569 -11.2807,-16.1624 -16.599,-24.5541 -5.3184,-8.3917 -10.5254,-16.9675 -15.9227,-25.8306 -1.0911,-1.6039 -2.69,-3.5363 -4.5346,-5.4242 -1.8446,-1.8879 -3.9353,-3.7332 -6.0472,-5.1184 -2.1119,-1.3851 -4.2487,-2.31 -6.1944,-2.2974 -1.9457,0.013 -3.7079,0.9655 -4.9982,3.3776 C -3264.6889,2013.0371 -3262.3161,2017.4402 -3260.3645,2021.3505 Z"
         id="path2618" />
      <path
         transform="matrix(-0.03891472,0,0,-0.0384206,256.32821,700.48455)"
         style="color:#000000;color-interpolation:sRGB;color-interpolation-filters:linearRGB;fill:none;stroke:#000000;stroke-width:25.86194038;stroke-miterlimit:4;marker:none;visibility:visible;display:inline;overflow:visible;enable-background:accumulate;clip-rule:nonzero"
         d="m -3232.5512,2053.5593 c 10.2004,14.7043 21.788,28.4224 34.6138,40.8728 12.8259,12.4503 26.8919,23.6308 41.9978,33.1929 5.4692,3.4618 11.0709,6.7136 16.7896,9.7428 24.8506,13.1636 51.6739,22.6571 79.4057,27.4759 13.8997,2.4148 28.0059,3.6581 42.1142,3.6823 19.2792,0.033 38.5733,-1.7908 57.4761,-5.7164 22.5274,-4.6784 44.4976,-12.3578 64.8654,-23.1091 9.2369,-4.8757 18.174,-10.3087 26.7396,-16.2699 26.1714,-18.2161 48.787,-41.3748 66.4165,-67.7499 1.8869,-2.2355 2.9862,-4.0777 3.5108,-5.3953 0.5246,-1.3176 0.4758,-2.1128 0.051,-2.3039 -0.4251,-0.1912 -1.2255,0.2198 -2.2345,1.2969 -1.009,1.077 -2.2258,2.8185 -3.5258,5.2978 -17.5357,25.943 -39.9548,48.6811 -65.8134,66.5271 -8.2714,5.7089 -16.8886,10.9203 -25.7847,15.6086 -20.385,10.7433 -42.3856,18.3619 -64.9133,22.9555 -18.0384,3.6783 -36.4233,5.4297 -54.7939,5.489 -14.2314,0.046 -28.93,-1.0201 -43.5813,-3.3886 -13.9396,-2.2526 -27.8243,-5.694 -41.2073,-10.2141 -13.3831,-4.5201 -26.2597,-10.1169 -38.2375,-16.5115 -5.5311,-2.9529 -10.8578,-6.0987 -15.9978,-9.4144 -14.4091,-9.295 -27.3376,-19.9077 -39.2672,-31.6128 -11.9295,-11.7051 -22.876,-24.5066 -33.1396,-38.6787 -2.2405,-3.0269 -5.7314,-7.6331 -8.3347,-10.765 -1.3016,-1.5659 -2.3939,-2.7539 -3.0482,-3.1436 -0.6543,-0.3898 -0.8765,0.022 -0.3911,1.6415 C -3237.3572,2046.3654 -3234.8279,2050.2028 -3232.5512,2053.5593 Z"
         id="path2620" />
    </g>
    <path
       style="fill:none;stroke:#000000;stroke-width:1px;stroke-linecap:butt;stroke-linejoin:miter;stroke-opacity:1"
       d="m 247.83596,627.63524 273.56753,0"
       id="path3498"
       inkscape:connector-curvature="0"
       sodipodi:nodetypes="cc" />
  </g>
</svg>
