<?xml version="1.0" encoding="UTF-8" standalone="no"?>
<!-- Created with Inkscape (http://www.inkscape.org/) -->

<svg
   xmlns:dc="http://purl.org/dc/elements/1.1/"
   xmlns:cc="http://creativecommons.org/ns#"
   xmlns:rdf="http://www.w3.org/1999/02/22-rdf-syntax-ns#"
   xmlns:svg="http://www.w3.org/2000/svg"
   xmlns="http://www.w3.org/2000/svg"
   xmlns:sodipodi="http://sodipodi.sourceforge.net/DTD/sodipodi-0.dtd"
   xmlns:inkscape="http://www.inkscape.org/namespaces/inkscape"
   width="1169.3849"
   height="404.98291"
   id="svg2212"
   version="1.1"
   inkscape:version="0.48+devel r"
   sodipodi:docname="hyperb-parallels.svg">
  <title
     id="title2760">Winter School -- Contact Topology</title>
  <defs
     id="defs2214">
    <inkscape:path-effect
       fuse_tolerance="0"
       vertical_pattern="false"
       prop_units="false"
       tang_offset="0"
       normal_offset="0"
       spacing="0"
       scale_y_rel="false"
       prop_scale="0.3"
       copytype="single_stretched"
       pattern="m -3407.665,448.70887 c -7.7724,0.72284 -15.5563,0.59508 -23.3473,0.93083 -7.7909,0.33575 -15.5885,-0.16545 -23.3873,0.0109 -7.7988,0.17634 -15.5988,-0.96978 -23.3948,-0.72517 -7.7959,0.24461 -15.5878,0.58027 -23.3702,1.12082 -2.1523,-1.15612 -2.0117,3.78271 0.063,2.4375 7.7113,-0.37053 15.4323,-0.53042 23.1567,-0.61261 7.7244,-0.0822 15.4521,1.213 23.1768,1.15327 7.7247,-0.0597 16.17,-0.80459 23.8822,-1.10773 7.7122,-0.30315 14.6908,1.13589 22.3777,0.32345 1.4035,-0.22689 4.2998,-1.54077 3.0937,-3.21875 C -3406.0757,448.59275 -3406.9191,448.68203 -3407.665,448.70887 Z"
       is_visible="true"
       id="path-effect894"
       effect="skeletal" />
    <inkscape:path-effect
       effect="skeletal"
       id="path-effect890"
       is_visible="true"
       pattern="m -3601.665,448.70887 c -7.7724,0.72284 -15.5563,0.59508 -23.3473,0.93083 -7.7909,0.33575 -15.5885,-0.16545 -23.3873,0.0109 -7.7988,0.17634 -15.5988,-0.96978 -23.3948,-0.72517 -7.7959,0.24461 -15.5878,0.58027 -23.3702,1.12082 -2.1523,-1.15612 -2.0117,3.78271 0.063,2.4375 7.7113,-0.37053 15.4323,-0.53042 23.1567,-0.61261 7.7244,-0.0822 15.4521,1.213 23.1768,1.15327 7.7247,-0.0597 16.17,-0.80459 23.8822,-1.10773 7.7122,-0.30315 14.6908,1.13589 22.3777,0.32345 1.4035,-0.22689 4.2998,-1.54077 3.0937,-3.21875 C -3600.0757,448.59275 -3600.9191,448.68203 -3601.665,448.70887 Z"
       copytype="single_stretched"
       prop_scale="0.7"
       scale_y_rel="false"
       spacing="0"
       normal_offset="0"
       tang_offset="0"
       prop_units="false"
       vertical_pattern="false"
       fuse_tolerance="0" />
    <inkscape:path-effect
       fuse_tolerance="0"
       vertical_pattern="false"
       prop_units="false"
       tang_offset="0"
       normal_offset="0"
       spacing="0"
       scale_y_rel="false"
       prop_scale="0.7"
       copytype="single_stretched"
       pattern="m -3407.665,448.70887 c -7.7724,0.72284 -15.5563,0.59508 -23.3473,0.93083 -7.7909,0.33575 -15.5885,-0.16545 -23.3873,0.0109 -7.7988,0.17634 -15.5988,-0.96978 -23.3948,-0.72517 -7.7959,0.24461 -15.5878,0.58027 -23.3702,1.12082 -2.1523,-1.15612 -2.0117,3.78271 0.063,2.4375 7.7113,-0.37053 15.4323,-0.53042 23.1567,-0.61261 7.7244,-0.0822 15.4521,1.213 23.1768,1.15327 7.7247,-0.0597 16.17,-0.80459 23.8822,-1.10773 7.7122,-0.30315 14.6908,1.13589 22.3777,0.32345 1.4035,-0.22689 4.2998,-1.54077 3.0937,-3.21875 C -3406.0757,448.59275 -3406.9191,448.68203 -3407.665,448.70887 Z"
       is_visible="true"
       id="path-effect884"
       effect="skeletal" />
    <inkscape:path-effect
       fuse_tolerance="0"
       vertical_pattern="false"
       prop_units="false"
       tang_offset="0"
       normal_offset="0"
       spacing="0"
       scale_y_rel="false"
       prop_scale="0.47"
       copytype="single_stretched"
       pattern="m -3407.665,448.70887 c -7.7724,0.72284 -15.5563,0.59508 -23.3473,0.93083 -7.7909,0.33575 -15.5885,-0.16545 -23.3873,0.0109 -7.7988,0.17634 -15.5988,-0.96978 -23.3948,-0.72517 -7.7959,0.24461 -15.5878,0.58027 -23.3702,1.12082 -2.1523,-1.15612 -2.0117,3.78271 0.063,2.4375 7.7113,-0.37053 15.4323,-0.53042 23.1567,-0.61261 7.7244,-0.0822 15.4521,1.213 23.1768,1.15327 7.7247,-0.0597 16.17,-0.80459 23.8822,-1.10773 7.7122,-0.30315 14.6908,1.13589 22.3777,0.32345 1.4035,-0.22689 4.2998,-1.54077 3.0937,-3.21875 C -3406.0757,448.59275 -3406.9191,448.68203 -3407.665,448.70887 Z"
       is_visible="true"
       id="path-effect1911"
       effect="skeletal" />
    <inkscape:path-effect
       effect="skeletal"
       id="path-effect1915"
       is_visible="true"
       pattern="m -3407.665,448.70887 c -7.7724,0.72284 -15.5563,0.59508 -23.3473,0.93083 -7.7909,0.33575 -15.5885,-0.16545 -23.3873,0.0109 -7.7988,0.17634 -15.5988,-0.96978 -23.3948,-0.72517 -7.7959,0.24461 -15.5878,0.58027 -23.3702,1.12082 -2.1523,-1.15612 -2.0117,3.78271 0.063,2.4375 7.7113,-0.37053 15.4323,-0.53042 23.1567,-0.61261 7.7244,-0.0822 15.4521,1.213 23.1768,1.15327 7.7247,-0.0597 16.17,-0.80459 23.8822,-1.10773 7.7122,-0.30315 14.6908,1.13589 22.3777,0.32345 1.4035,-0.22689 4.2998,-1.54077 3.0937,-3.21875 C -3406.0757,448.59275 -3406.9191,448.68203 -3407.665,448.70887 Z"
       copytype="single_stretched"
       prop_scale="0.7"
       scale_y_rel="false"
       spacing="0"
       normal_offset="0"
       tang_offset="0"
       prop_units="false"
       vertical_pattern="false"
       fuse_tolerance="0" />
    <inkscape:path-effect
       fuse_tolerance="0"
       vertical_pattern="false"
       prop_units="false"
       tang_offset="0"
       normal_offset="0"
       spacing="0"
       scale_y_rel="false"
       prop_scale="0.8"
       copytype="single_stretched"
       pattern="m -3407.665,448.70887 c -7.7724,0.72284 -15.5563,0.59508 -23.3473,0.93083 -7.7909,0.33575 -15.5885,-0.16545 -23.3873,0.0109 -7.7988,0.17634 -15.5988,-0.96978 -23.3948,-0.72517 -7.7959,0.24461 -15.5878,0.58027 -23.3702,1.12082 -2.1523,-1.15612 -2.0117,3.78271 0.063,2.4375 7.7113,-0.37053 15.4323,-0.53042 23.1567,-0.61261 7.7244,-0.0822 15.4521,1.213 23.1768,1.15327 7.7247,-0.0597 16.17,-0.80459 23.8822,-1.10773 7.7122,-0.30315 14.6908,1.13589 22.3777,0.32345 1.4035,-0.22689 4.2998,-1.54077 3.0937,-3.21875 C -3406.0757,448.59275 -3406.9191,448.68203 -3407.665,448.70887 Z"
       is_visible="true"
       id="path-effect1919"
       effect="skeletal" />
    <inkscape:path-effect
       effect="skeletal"
       id="path-effect1923"
       is_visible="true"
       pattern="m -3407.665,448.70887 c -7.7724,0.72284 -15.5563,0.59508 -23.3473,0.93083 -7.7909,0.33575 -15.5885,-0.16545 -23.3873,0.0109 -7.7988,0.17634 -15.5988,-0.96978 -23.3948,-0.72517 -7.7959,0.24461 -15.5878,0.58027 -23.3702,1.12082 -2.1523,-1.15612 -2.0117,3.78271 0.063,2.4375 7.7113,-0.37053 15.4323,-0.53042 23.1567,-0.61261 7.7244,-0.0822 15.4521,1.213 23.1768,1.15327 7.7247,-0.0597 16.17,-0.80459 23.8822,-1.10773 7.7122,-0.30315 14.6908,1.13589 22.3777,0.32345 1.4035,-0.22689 4.2998,-1.54077 3.0937,-3.21875 C -3406.0757,448.59275 -3406.9191,448.68203 -3407.665,448.70887 Z"
       copytype="single_stretched"
       prop_scale="0.7"
       scale_y_rel="false"
       spacing="0"
       normal_offset="0"
       tang_offset="0"
       prop_units="false"
       vertical_pattern="false"
       fuse_tolerance="0" />
    <inkscape:path-effect
       fuse_tolerance="0"
       vertical_pattern="false"
       prop_units="false"
       tang_offset="0"
       normal_offset="0"
       spacing="0"
       scale_y_rel="false"
       prop_scale="1"
       copytype="single_stretched"
       pattern="m -3407.665,448.70887 c -7.7724,0.72284 -15.5563,0.59508 -23.3473,0.93083 -7.7909,0.33575 -15.5885,-0.16545 -23.3873,0.0109 -7.7988,0.17634 -15.5988,-0.96978 -23.3948,-0.72517 -7.7959,0.24461 -15.5878,0.58027 -23.3702,1.12082 -2.1523,-1.15612 -2.0117,3.78271 0.063,2.4375 7.7113,-0.37053 15.4323,-0.53042 23.1567,-0.61261 7.7244,-0.0822 15.4521,1.213 23.1768,1.15327 7.7247,-0.0597 16.17,-0.80459 23.8822,-1.10773 7.7122,-0.30315 14.6908,1.13589 22.3777,0.32345 1.4035,-0.22689 4.2998,-1.54077 3.0937,-3.21875 C -3406.0757,448.59275 -3406.9191,448.68203 -3407.665,448.70887 Z"
       is_visible="true"
       id="path-effect1088-99"
       effect="skeletal" />
    <inkscape:path-effect
       effect="skeletal"
       id="path-effect1934"
       is_visible="true"
       pattern="m -3407.665,448.70887 c -7.7724,0.72284 -15.5563,0.59508 -23.3473,0.93083 -7.7909,0.33575 -15.5885,-0.16545 -23.3873,0.0109 -7.7988,0.17634 -15.5988,-0.96978 -23.3948,-0.72517 -7.7959,0.24461 -15.5878,0.58027 -23.3702,1.12082 -2.1523,-1.15612 -2.0117,3.78271 0.063,2.4375 7.7113,-0.37053 15.4323,-0.53042 23.1567,-0.61261 7.7244,-0.0822 15.4521,1.213 23.1768,1.15327 7.7247,-0.0597 16.17,-0.80459 23.8822,-1.10773 7.7122,-0.30315 14.6908,1.13589 22.3777,0.32345 1.4035,-0.22689 4.2998,-1.54077 3.0937,-3.21875 C -3406.0757,448.59275 -3406.9191,448.68203 -3407.665,448.70887 Z"
       copytype="single_stretched"
       prop_scale="0.47"
       scale_y_rel="false"
       spacing="0"
       normal_offset="0"
       tang_offset="0"
       prop_units="false"
       vertical_pattern="false"
       fuse_tolerance="0" />
    <inkscape:path-effect
       fuse_tolerance="0"
       vertical_pattern="false"
       prop_units="false"
       tang_offset="0"
       normal_offset="0"
       spacing="0"
       scale_y_rel="false"
       prop_scale="0.7"
       copytype="single_stretched"
       pattern="m -3407.665,448.70887 c -7.7724,0.72284 -15.5563,0.59508 -23.3473,0.93083 -7.7909,0.33575 -15.5885,-0.16545 -23.3873,0.0109 -7.7988,0.17634 -15.5988,-0.96978 -23.3948,-0.72517 -7.7959,0.24461 -15.5878,0.58027 -23.3702,1.12082 -2.1523,-1.15612 -2.0117,3.78271 0.063,2.4375 7.7113,-0.37053 15.4323,-0.53042 23.1567,-0.61261 7.7244,-0.0822 15.4521,1.213 23.1768,1.15327 7.7247,-0.0597 16.17,-0.80459 23.8822,-1.10773 7.7122,-0.30315 14.6908,1.13589 22.3777,0.32345 1.4035,-0.22689 4.2998,-1.54077 3.0937,-3.21875 C -3406.0757,448.59275 -3406.9191,448.68203 -3407.665,448.70887 Z"
       is_visible="true"
       id="path-effect1088-99-43"
       effect="skeletal" />
    <inkscape:path-effect
       effect="skeletal"
       id="path-effect2056"
       is_visible="true"
       pattern="m -3407.665,448.70887 c -7.7724,0.72284 -15.5563,0.59508 -23.3473,0.93083 -7.7909,0.33575 -15.5885,-0.16545 -23.3873,0.0109 -7.7988,0.17634 -15.5988,-0.96978 -23.3948,-0.72517 -7.7959,0.24461 -15.5878,0.58027 -23.3702,1.12082 -2.1523,-1.15612 -2.0117,3.78271 0.063,2.4375 7.7113,-0.37053 15.4323,-0.53042 23.1567,-0.61261 7.7244,-0.0822 15.4521,1.213 23.1768,1.15327 7.7247,-0.0597 16.17,-0.80459 23.8822,-1.10773 7.7122,-0.30315 14.6908,1.13589 22.3777,0.32345 1.4035,-0.22689 4.2998,-1.54077 3.0937,-3.21875 C -3406.0757,448.59275 -3406.9191,448.68203 -3407.665,448.70887 Z"
       copytype="single_stretched"
       prop_scale="0.8"
       scale_y_rel="false"
       spacing="0"
       normal_offset="0"
       tang_offset="0"
       prop_units="false"
       vertical_pattern="false"
       fuse_tolerance="0" />
    <inkscape:path-effect
       fuse_tolerance="0"
       vertical_pattern="false"
       prop_units="false"
       tang_offset="0"
       normal_offset="0"
       spacing="0"
       scale_y_rel="false"
       prop_scale="0.7"
       copytype="single_stretched"
       pattern="m -3407.665,448.70887 c -7.7724,0.72284 -15.5563,0.59508 -23.3473,0.93083 -7.7909,0.33575 -15.5885,-0.16545 -23.3873,0.0109 -7.7988,0.17634 -15.5988,-0.96978 -23.3948,-0.72517 -7.7959,0.24461 -15.5878,0.58027 -23.3702,1.12082 -2.1523,-1.15612 -2.0117,3.78271 0.063,2.4375 7.7113,-0.37053 15.4323,-0.53042 23.1567,-0.61261 7.7244,-0.0822 15.4521,1.213 23.1768,1.15327 7.7247,-0.0597 16.17,-0.80459 23.8822,-1.10773 7.7122,-0.30315 14.6908,1.13589 22.3777,0.32345 1.4035,-0.22689 4.2998,-1.54077 3.0937,-3.21875 C -3406.0757,448.59275 -3406.9191,448.68203 -3407.665,448.70887 Z"
       is_visible="true"
       id="path-effect2060"
       effect="skeletal" />
    <inkscape:path-effect
       effect="skeletal"
       id="path-effect1923-5"
       is_visible="true"
       pattern="m -3407.665,448.70887 c -7.7724,0.72284 -15.5563,0.59508 -23.3473,0.93083 -7.7909,0.33575 -15.5885,-0.16545 -23.3873,0.0109 -7.7988,0.17634 -15.5988,-0.96978 -23.3948,-0.72517 -7.7959,0.24461 -15.5878,0.58027 -23.3702,1.12082 -2.1523,-1.15612 -2.0117,3.78271 0.063,2.4375 7.7113,-0.37053 15.4323,-0.53042 23.1567,-0.61261 7.7244,-0.0822 15.4521,1.213 23.1768,1.15327 7.7247,-0.0597 16.17,-0.80459 23.8822,-1.10773 7.7122,-0.30315 14.6908,1.13589 22.3777,0.32345 1.4035,-0.22689 4.2998,-1.54077 3.0937,-3.21875 C -3406.0757,448.59275 -3406.9191,448.68203 -3407.665,448.70887 Z"
       copytype="single_stretched"
       prop_scale="0.7"
       scale_y_rel="false"
       spacing="0"
       normal_offset="0"
       tang_offset="0"
       prop_units="false"
       vertical_pattern="false"
       fuse_tolerance="0" />
  </defs>
  <sodipodi:namedview
     id="base"
     pagecolor="#ffffff"
     bordercolor="#666666"
     borderopacity="1.0"
     inkscape:pageopacity="0.0"
     inkscape:pageshadow="2"
     inkscape:zoom="0.6901064"
     inkscape:cx="570.93424"
     inkscape:cy="260.45353"
     inkscape:document-units="px"
     inkscape:current-layer="layer1"
     showgrid="false"
     fit-margin-top="0"
     fit-margin-left="0"
     fit-margin-right="0"
     fit-margin-bottom="0" />
  <metadata
     id="metadata2217">
    <rdf:RDF>
      <cc:Work
         rdf:about="">
        <dc:format>image/svg+xml</dc:format>
        <dc:type
           rdf:resource="http://purl.org/dc/dcmitype/StillImage" />
        <dc:title>Winter School -- Contact Topology</dc:title>
        <dc:date>2013</dc:date>
        <dc:creator>
          <cc:Agent>
            <dc:title>Marek Kaluba</dc:title>
          </cc:Agent>
        </dc:creator>
        <dc:rights>
          <cc:Agent>
            <dc:title>Marek Kaluba</dc:title>
          </cc:Agent>
        </dc:rights>
      </cc:Work>
    </rdf:RDF>
  </metadata>
  <g
     inkscape:label="Layer 1"
     inkscape:groupmode="layer"
     id="layer1"
     transform="translate(403.05433,-392.7279)">
    <path
       sodipodi:nodetypes="cc"
       inkscape:connector-curvature="0"
       id="path1866"
       d="m -403.0538,724.6608 556.1537,-0.594"
       style="fill:none;stroke:#000000;stroke-width:1px;stroke-linecap:butt;stroke-linejoin:miter;stroke-opacity:1" />
    <path
       sodipodi:nodetypes="cc"
       inkscape:connector-curvature="0"
       id="path1870"
       d="m -104.7851,797.7101 0.5698,-404.9815"
       style="fill:none;stroke:#000000;stroke-width:1px;stroke-linecap:butt;stroke-linejoin:miter;stroke-opacity:1" />
    <path
       transform="matrix(0.58173192,0,0,-0.58173192,1587.1216,1835.2022)"
       style="color:#000000;color-interpolation:sRGB;color-interpolation-filters:linearRGB;fill:#ff0000;stroke:none;stroke-width:1;marker:none;visibility:visible;display:inline;overflow:visible;enable-background:accumulate;clip-rule:nonzero"
       d="m -3275.5852,1929.855 c 2.5329,27.584 9.2776,54.7585 20.1509,80.2092 13.1321,30.7336 32.2199,58.9137 55.951,82.4398 0,0 0,0 0,0 2.8984,2.8734 5.8656,5.6768 8.8981,8.4074 21.7733,19.6057 46.7421,35.6626 73.718,47.127 31.8347,13.5279 66.4385,20.5625 101.0483,20.4827 0,0 0,0 1e-4,0 1.2846,-0 2.5692,-0.016 3.8536,-0.038 33.3127,-0.5847 66.5486,-7.2262 97.3799,-20.0067 29.5203,-12.2388 56.7795,-30.0592 79.6977,-52.3656 1.0709,-1.0423 2.1327,-2.0938 3.1853,-3.1544 0,0 0,0 0,0 23.592,-23.7725 42.5283,-52.1036 55.3666,-82.948 11.6484,-27.989 18.21,-58.0106 19.4684,-88.1932 0.5132,-4.473 0.4787,-7.7826 0.2245,-9.9317 -0.2542,-2.149 -0.7284,-3.1418 -1.1895,-3.0361 -0.461,0.1057 -0.9097,1.3067 -1.1965,3.5469 -0.2868,2.2402 -0.4123,5.5174 -0.2995,9.8196 -1.3741,29.7197 -7.941,59.2501 -19.4715,86.7523 -12.7813,30.4891 -31.5936,58.4715 -54.9764,81.9163 0,0 0,0 0,0 -0.7495,0.7515 -1.5038,1.4984 -2.2627,2.2406 -22.9038,22.3997 -50.2263,40.2417 -79.7901,52.413 -29.5365,12.1618 -61.2891,18.6296 -93.1452,19.5103 -2.2736,0.063 -4.5556,0.097 -6.8446,0.1004 -16.6147,0.028 -33.6127,-1.5326 -50.4593,-4.7967 -16.8466,-3.2641 -33.5364,-8.2323 -49.5124,-14.8572 -13.7774,-5.7124 -27.0201,-12.6396 -39.4441,-20.5553 -12.424,-7.9157 -24.0273,-16.8182 -34.5919,-26.417 -2.7497,-2.4983 -5.4266,-5.0467 -8.0312,-7.642 0,0 0,0 0,0 -12.0567,-12.0132 -22.5701,-25.0132 -31.6606,-38.7401 -9.0904,-13.727 -16.7625,-28.1849 -23.0465,-43.2878 -4.7186,-11.339 -8.6439,-23.0445 -11.7899,-35.1009 -3.146,-12.0565 -5.5137,-24.465 -7.0555,-37.2278 -0.2856,-2.2374 -0.6301,-4.9378 -0.9703,-7.7701 -0.3401,-2.8324 -0.6753,-5.7967 -0.9837,-8.5561 -0.6166,-5.5188 -1.1181,-10.2223 -1.692,-11.356 -0.1689,-0.3337 -0.3447,-0.3576 -0.5262,0 0,0 0,0 0,0 -0.1742,0.3431 -0.354,1.0373 -0.5287,2.1467 -0.1914,2.7732 -0.2029,5.9333 -0.09,9.1776 C -3276.088,1923.4082 -3275.8503,1926.736 -3275.5852,1929.855 Z"
       id="path1878" />
    <path
       transform="translate(1200.7271,-935.113)"
       style="fill:#000000;fill-opacity:1;fill-rule:nonzero;stroke:none"
       d="m -1285.2569,1449.0822 c 0,3.4807 -2.8217,6.3024 -6.3024,6.3024 -3.4808,0 -6.3025,-2.8217 -6.3025,-6.3024 0,-3.4808 2.8217,-6.3025 6.3025,-6.3025 C -1288.0786,1442.7797 -1285.2569,1445.6014 -1285.2569,1449.0822 Z"
       id="path1916-3" />
    <path
       transform="matrix(1.2998161,0,0,-1.2998161,3566.5064,3205.7308)"
       style="opacity:0.3;color:#000000;color-interpolation:sRGB;color-interpolation-filters:linearRGB;fill:#0000ff;stroke:none;stroke-width:1;marker:none;visibility:visible;display:inline;overflow:visible;enable-background:accumulate;clip-rule:nonzero"
       d="m -2961.515,2162.5697 c 13.3882,-3.031 26.5553,-7.0343 39.3426,-12.0293 12.7872,-4.9951 25.1942,-10.9829 37.0208,-17.97 1.2096,-0.7146 2.4131,-1.4396 3.6103,-2.1749 12.0526,-7.4023 23.5439,-15.7219 34.3018,-24.9163 10.7578,-9.1944 20.7811,-19.2648 29.8557,-30.1329 0.3771,-0.4517 0.7527,-0.9048 1.1265,-1.3592 9.1819,-11.161 17.5501,-22.9983 24.8868,-35.4616 7.3367,-12.4634 13.6395,-25.5543 18.6396,-39.1296 0.076,-0.2054 0.1511,-0.4109 0.2262,-0.6166 9.8544,-26.9707 15.0844,-55.5791 15.4696,-84.1827 0.3604,-3.9786 -0.1087,-5.8476 -0.542,-5.7536 -0.4334,0.094 -0.836,2.1291 -0.6087,5.9603 -0.4843,28.3974 -5.7702,56.7722 -15.615,83.4966 0,0 0,0 0,0 -0.011,0.031 -0.023,0.061 -0.034,0.092 -4.9332,13.3758 -11.14,26.2747 -18.3525,38.5601 -7.2124,12.2854 -15.428,23.9588 -24.4292,34.9765 -0.6542,0.8007 -1.315,1.6004 -1.9825,2.3987 -8.8517,10.5872 -18.9016,20.9268 -29.7388,30.3431 -10.8371,9.4162 -22.4542,17.9012 -34.1578,25.0523 -1.0655,0.651 -2.1321,1.2901 -3.1999,1.9179 -11.6381,6.8421 -23.3934,12.343 -35.4693,16.9967 -12.0759,4.6536 -24.4797,8.4657 -37.6602,11.6406 -2.5128,0.6243 -6.358,1.6115 -9.0278,2.3871 -2.6698,0.7756 -4.1575,1.3873 -1.8854,1.3777 C -2967.2879,2163.8045 -2964.2202,2163.1617 -2961.515,2162.5697 Z"
       id="path1932" />
    <path
       transform="matrix(0.81497833,0,0,-0.81497833,2351.3006,2280.3717)"
       style="opacity:0.3;color:#000000;color-interpolation:sRGB;color-interpolation-filters:linearRGB;fill:#0000ff;stroke:none;stroke-width:1;marker:none;visibility:visible;display:inline;overflow:visible;enable-background:accumulate;clip-rule:nonzero"
       d="m -3274.9436,1929.8032 c 2.4356,27.5237 9.1216,54.6613 19.947,80.0758 13.0741,30.6907 32.1178,58.833 55.7833,82.355 0,0 0,1e-4 0,1e-4 2.8904,2.8728 5.8493,5.6763 8.8733,8.4077 21.7125,19.6116 46.6593,35.6485 73.6051,47.0838 31.7987,13.4938 66.3548,20.4873 100.916,20.4315 0,0 0,0 1e-4,0 1.2828,-0 2.5656,-0.014 3.8482,-0.035 33.2668,-0.5571 66.4527,-7.2677 97.1974,-20.0897 29.4382,-12.2782 56.5916,-30.1066 79.4835,-52.3377 1.0697,-1.0388 2.1303,-2.0868 3.1818,-3.1439 0,0 0,0 0,0 23.5667,-23.693 42.505,-51.9407 55.3742,-82.7106 11.6765,-27.9209 18.2919,-57.8863 19.6243,-88.037 0.4263,-4.4732 0.4192,-7.7759 0.2489,-9.9221 -0.1704,-2.1463 -0.5046,-3.1393 -0.8273,-3.0336 -0.3228,0.1058 -0.6349,1.3081 -0.845,3.5537 -0.2102,2.2457 -0.319,5.5331 -0.3074,9.8382 -1.4288,29.7734 -8.0448,59.3394 -19.6184,86.8712 -12.8293,30.5214 -31.681,58.5251 -55.101,81.9885 0,0 0,0 0,0 -0.7508,0.7522 -1.5062,1.4996 -2.2663,2.2424 -22.9396,22.4175 -50.2344,40.3532 -79.8178,52.6327 -29.5568,12.2697 -61.376,18.8491 -93.3131,19.7231 -2.2794,0.062 -4.5672,0.095 -6.862,0.098 -16.6568,0.019 -33.6952,-1.5665 -50.5748,-4.8661 -16.8795,-3.2997 -33.5947,-8.3134 -49.5876,-14.9851 -13.7917,-5.753 -27.0414,-12.7212 -39.4682,-20.6741 -12.4268,-7.9529 -24.0286,-16.8887 -34.5925,-26.5143 -2.7495,-2.5054 -5.4271,-5.0594 -8.0335,-7.6592 0,0 0,0 0,0 -12.0646,-12.0342 -22.6073,-25.0325 -31.7377,-38.7597 -9.1304,-13.7273 -16.8527,-28.1878 -23.1748,-43.307 -4.7471,-11.3514 -8.6934,-23.0761 -11.8416,-35.1565 -3.1481,-12.0804 -5.4989,-24.5179 -6.994,-37.3065 -0.2729,-2.2424 -0.5924,-4.9495 -0.8968,-7.7884 -0.3043,-2.8389 -0.5929,-5.8095 -0.8454,-8.5735 -0.505,-5.5281 -0.8579,-10.2322 -1.2597,-11.3649 -0.1182,-0.3334 -0.2413,-0.357 -0.3684,0 0,0 0,0 0,0 -0.1219,0.3425 -0.2478,1.0355 -0.3674,2.1422 -0.1272,2.7668 -0.1134,5.9181 0.01,9.1539 C -3275.4325,1923.3716 -3275.204,1926.6916 -3274.9436,1929.8032 Z"
       id="path1878-2" />
    <path
       transform="matrix(0.82574982,0,0,-0.82574982,2366.591,2300.93)"
       style="color:#000000;color-interpolation:sRGB;color-interpolation-filters:linearRGB;fill:#000000;stroke:none;stroke-width:1.00030291;marker:none;visibility:visible;display:inline;overflow:visible;enable-background:accumulate;clip-rule:nonzero"
       d="m -3275.1575,1929.8205 c 2.4681,27.5438 9.1736,54.6936 20.015,80.1203 13.0934,30.705 32.1518,58.8599 55.8392,82.3832 0,0 0,0 0,10e-5 2.893,2.8729 5.8548,5.6765 8.8816,8.4076 21.7327,19.6096 46.6868,35.6532 73.6427,47.0982 31.8107,13.5051 66.3827,20.5123 100.9601,20.4485 0,0 0,0 1e-4,0 1.2834,-0 2.5668,-0.014 3.85,-0.036 33.2821,-0.5662 66.4847,-7.2538 97.2583,-20.0619 29.4655,-12.2651 56.6542,-30.0908 79.5549,-52.347 1.07,-1.04 2.1311,-2.0892 3.1829,-3.1474 0,0 0,-1e-4 0,-1e-4 23.5751,-23.7195 42.5128,-51.9949 55.3717,-82.7897 11.6671,-27.9436 18.2646,-57.9277 19.5723,-88.0891 0.4553,-4.4731 0.4391,-7.7781 0.2407,-9.9253 -0.1983,-2.1472 -0.5792,-3.1401 -0.948,-3.0344 -0.3688,0.1058 -0.7264,1.3076 -0.9622,3.5515 -0.2357,2.2438 -0.3501,5.5278 -0.3047,9.8319 -1.4106,29.7555 -8.0102,59.3097 -19.5694,86.8316 -12.8134,30.5106 -31.6519,58.5072 -55.0595,81.9644 0,0 0,0 0,0 -0.7504,0.752 -1.5054,1.4993 -2.2651,2.2418 -22.9277,22.4116 -50.2317,40.316 -79.8086,52.5595 -29.55,12.2337 -61.347,18.7759 -93.2571,19.6522 -2.2775,0.063 -4.5633,0.096 -6.8562,0.099 -16.6428,0.022 -33.6677,-1.5552 -50.5363,-4.843 -16.8685,-3.2878 -33.5752,-8.2863 -49.5625,-14.9425 -13.7869,-5.7394 -27.0343,-12.694 -39.4602,-20.6344 -12.4259,-7.9405 -24.0282,-16.8652 -34.5923,-26.4819 -2.7496,-2.503 -5.427,-5.0552 -8.0327,-7.6534 0,0 0,0 0,0 -12.062,-12.0272 -22.595,-25.0262 -31.712,-38.7533 -9.1171,-13.7271 -16.8227,-28.1868 -23.1321,-43.3005 -4.7376,-11.3473 -8.6769,-23.0656 -11.8243,-35.138 -3.1475,-12.0724 -5.5039,-24.5003 -7.0145,-37.2803 -0.2772,-2.2407 -0.605,-4.9456 -0.9213,-7.7823 -0.3163,-2.8367 -0.6204,-5.8052 -0.8915,-8.5677 -0.5422,-5.5249 -0.9447,-10.2289 -1.4038,-11.3619 -0.1352,-0.3335 -0.2758,-0.3572 -0.421,0 0,0 0,0 0,0 -0.1394,0.3427 -0.2832,1.0361 -0.4212,2.1437 -0.1486,2.7689 -0.1432,5.9231 -0.025,9.1618 C -3275.651,1923.3838 -3275.4194,1926.7064 -3275.1575,1929.8205 Z"
       id="path2054" />
    <path
       transform="matrix(1.0390675,0,0,-1.0390675,2874.6344,2708.064)"
       style="color:#000000;color-interpolation:sRGB;color-interpolation-filters:linearRGB;fill:#000000;stroke:none;stroke-width:1.00030291;marker:none;visibility:visible;display:inline;overflow:visible;enable-background:accumulate;clip-rule:nonzero"
       d="m -3039.5652,2167.7226 c 7.9012,0.6107 15.8253,0.89 23.7464,0.826 27.406,-0.2212 54.8143,-4.5561 80.8107,-13.2425 6.7944,-2.2703 13.501,-4.8015 20.0969,-7.6003 25.9343,-11.005 50.1797,-26.1213 71.2058,-44.9109 3.841,-3.4324 7.5928,-6.9639 11.2463,-10.5956 10.7164,-10.6524 20.59,-22.1698 29.3831,-34.4809 8.793,-12.3111 16.503,-25.4178 22.839,-39.161 1.3112,-2.8443 2.5699,-5.7124 3.7749,-8.6027 12.4239,-29.8041 19.0526,-61.9347 19.5813,-94.0731 0.537,-4.8627 -0.1616,-7.1527 -0.807,-7.0379 -0.6455,0.1149 -1.2451,2.5947 -0.9065,7.2749 -0.6625,31.829 -7.3539,63.6092 -19.7379,93.0452 -1.1169,2.655 -2.2796,5.2908 -3.4869,7.9062 -6.3401,13.7339 -14.0665,26.8214 -22.8746,39.1044 -8.8081,12.2829 -18.6953,23.763 -29.4148,34.3755 -3.2355,3.2033 -6.5475,6.3281 -9.9292,9.3754 -10.228,9.2164 -21.5435,17.9992 -33.61,25.8435 -12.0666,7.8443 -24.8792,14.7445 -37.9174,20.3909 -6.7988,2.9446 -13.6556,5.5488 -20.4796,7.8079 -13.3103,4.4065 -26.52,7.3831 -39.7451,9.3234 -13.2251,1.9403 -26.4727,2.8475 -40.029,2.8734 -6.4931,0.012 -13.0591,-0.1814 -19.7366,-0.5845 -3.1572,-0.163 -8.0022,-0.3674 -11.4072,-0.3814 -1.7025,-0.01 -3.0455,0.044 -3.6354,0.2206 -0.5899,0.1763 -0.4274,0.482 0.8924,0.9518 C -3046.7665,2167.0602 -3042.9442,2167.4315 -3039.5652,2167.7226 Z"
       id="path2058" />
    <path
       style="fill:none;stroke:#000000;stroke-width:1px;stroke-linecap:butt;stroke-linejoin:miter;stroke-opacity:1"
       d="M 174.5463,724.6608 730.7,724.0668"
       id="path1880"
       inkscape:connector-curvature="0"
       sodipodi:nodetypes="cc" />
    <path
       style="fill:none;stroke:#000000;stroke-width:1px;stroke-linecap:butt;stroke-linejoin:miter;stroke-opacity:1"
       d="m 472.815,797.7101 0.5698,-399.005"
       id="path1882"
       inkscape:connector-curvature="0"
       sodipodi:nodetypes="cc" />
    <path
       style="fill:#ff0000;stroke:none"
       d="m 679.86803,407.16328 c 0.46061,25.91764 0.32573,51.87258 0.51527,77.85177 0.18953,25.97885 -0.20683,51.97901 -0.12892,77.98401 0.0779,26.005 -0.76992,52.01238 -0.64421,78.00813 0.12571,25.99541 0.31517,51.9776 0.64812,77.92836 -0.82185,7.17534 2.63615,6.71256 1.70661,-0.20709 -0.21434,-25.71347 -0.28119,-51.45903 -0.29362,-77.21583 -0.0124,-25.7568 0.93932,-51.52291 0.94261,-77.28068 0.003,-25.75778 -0.4688,-53.9192 -0.63597,-79.63559 -0.16718,-25.71639 0.88089,-48.98448 0.35707,-74.61714 -0.15063,-4.68019 -1.05344,-14.33939 -2.23506,-10.31976 C 679.79603,401.86368 679.8536,404.67607 679.86803,407.16328 Z"
       id="path2043" />
    <path
       transform="translate(1778.3272,-935.113)"
       style="fill:#000000;fill-opacity:1;fill-rule:nonzero;stroke:none"
       d="m -1285.2569,1449.0822 c 0,3.4807 -2.8217,6.3024 -6.3024,6.3024 -3.4808,0 -6.3025,-2.8217 -6.3025,-6.3024 0,-3.4808 2.8217,-6.3025 6.3025,-6.3025 C -1288.0786,1442.7797 -1285.2569,1445.6014 -1285.2569,1449.0822 Z"
       id="path1893" />
    <path
       transform="matrix(0.81497833,0,0,-0.81497833,2928.9007,2280.3717)"
       style="opacity:0.3;color:#000000;color-interpolation:sRGB;color-interpolation-filters:linearRGB;fill:#0000ff;stroke:none;stroke-width:1;marker:none;visibility:visible;display:inline;overflow:visible;enable-background:accumulate;clip-rule:nonzero"
       d="m -3274.9436,1929.8032 c 2.4356,27.5237 9.1216,54.6613 19.947,80.0758 13.0741,30.6907 32.1178,58.833 55.7833,82.355 0,0 0,1e-4 0,1e-4 2.8904,2.8728 5.8493,5.6763 8.8733,8.4077 21.7125,19.6116 46.6593,35.6485 73.6051,47.0838 31.7987,13.4938 66.3548,20.4873 100.916,20.4315 0,0 0,0 1e-4,0 1.2828,-0 2.5656,-0.014 3.8482,-0.035 33.2668,-0.5571 66.4527,-7.2677 97.1974,-20.0897 29.4382,-12.2782 56.5916,-30.1066 79.4835,-52.3377 1.0697,-1.0388 2.1303,-2.0868 3.1818,-3.1439 0,0 0,0 0,0 23.5667,-23.693 42.505,-51.9407 55.3742,-82.7106 11.6765,-27.9209 18.2919,-57.8863 19.6243,-88.037 0.4263,-4.4732 0.4192,-7.7759 0.2489,-9.9221 -0.1704,-2.1463 -0.5046,-3.1393 -0.8273,-3.0336 -0.3228,0.1058 -0.6349,1.3081 -0.845,3.5537 -0.2102,2.2457 -0.319,5.5331 -0.3074,9.8382 -1.4288,29.7734 -8.0448,59.3394 -19.6184,86.8712 -12.8293,30.5214 -31.681,58.5251 -55.101,81.9885 0,0 0,0 0,0 -0.7508,0.7522 -1.5062,1.4996 -2.2663,2.2424 -22.9396,22.4175 -50.2344,40.3532 -79.8178,52.6327 -29.5568,12.2697 -61.376,18.8491 -93.3131,19.7231 -2.2794,0.062 -4.5672,0.095 -6.862,0.098 -16.6568,0.019 -33.6952,-1.5665 -50.5748,-4.8661 -16.8795,-3.2997 -33.5947,-8.3134 -49.5876,-14.9851 -13.7917,-5.753 -27.0414,-12.7212 -39.4682,-20.6741 -12.4268,-7.9529 -24.0286,-16.8887 -34.5925,-26.5143 -2.7495,-2.5054 -5.4271,-5.0594 -8.0335,-7.6592 0,0 0,0 0,0 -12.0646,-12.0342 -22.6073,-25.0325 -31.7377,-38.7597 -9.1304,-13.7273 -16.8527,-28.1878 -23.1748,-43.307 -4.7471,-11.3514 -8.6934,-23.0761 -11.8416,-35.1565 -3.1481,-12.0804 -5.4989,-24.5179 -6.994,-37.3065 -0.2729,-2.2424 -0.5924,-4.9495 -0.8968,-7.7884 -0.3043,-2.8389 -0.5929,-5.8095 -0.8454,-8.5735 -0.505,-5.5281 -0.8579,-10.2322 -1.2597,-11.3649 -0.1182,-0.3334 -0.2413,-0.357 -0.3684,0 0,0 0,0 0,0 -0.1219,0.3425 -0.2478,1.0355 -0.3674,2.1422 -0.1272,2.7668 -0.1134,5.9181 0.01,9.1539 C -3275.4325,1923.3716 -3275.204,1926.6916 -3274.9436,1929.8032 Z"
       id="path1913" />
    <path
       transform="matrix(0.82574982,0,0,-0.82574982,2944.1911,2300.93)"
       style="color:#000000;color-interpolation:sRGB;color-interpolation-filters:linearRGB;fill:#000000;stroke:none;stroke-width:1.00030291;marker:none;visibility:visible;display:inline;overflow:visible;enable-background:accumulate;clip-rule:nonzero"
       d="m -3275.1575,1929.8205 c 2.4681,27.5438 9.1736,54.6936 20.015,80.1203 13.0934,30.705 32.1518,58.8599 55.8392,82.3832 0,0 0,0 0,10e-5 2.893,2.8729 5.8548,5.6765 8.8816,8.4076 21.7327,19.6096 46.6868,35.6532 73.6427,47.0982 31.8107,13.5051 66.3827,20.5123 100.9601,20.4485 0,0 0,0 1e-4,0 1.2834,-0 2.5668,-0.014 3.85,-0.036 33.2821,-0.5662 66.4847,-7.2538 97.2583,-20.0619 29.4655,-12.2651 56.6542,-30.0908 79.5549,-52.347 1.07,-1.04 2.1311,-2.0892 3.1829,-3.1474 0,0 0,-1e-4 0,-1e-4 23.5751,-23.7195 42.5128,-51.9949 55.3717,-82.7897 11.6671,-27.9436 18.2646,-57.9277 19.5723,-88.0891 0.4553,-4.4731 0.4391,-7.7781 0.2407,-9.9253 -0.1983,-2.1472 -0.5792,-3.1401 -0.948,-3.0344 -0.3688,0.1058 -0.7264,1.3076 -0.9622,3.5515 -0.2357,2.2438 -0.3501,5.5278 -0.3047,9.8319 -1.4106,29.7555 -8.0102,59.3097 -19.5694,86.8316 -12.8134,30.5106 -31.6519,58.5072 -55.0595,81.9644 0,0 0,0 0,0 -0.7504,0.752 -1.5054,1.4993 -2.2651,2.2418 -22.9277,22.4116 -50.2317,40.316 -79.8086,52.5595 -29.55,12.2337 -61.347,18.7759 -93.2571,19.6522 -2.2775,0.063 -4.5633,0.096 -6.8562,0.099 -16.6428,0.022 -33.6677,-1.5552 -50.5363,-4.843 -16.8685,-3.2878 -33.5752,-8.2863 -49.5625,-14.9425 -13.7869,-5.7394 -27.0343,-12.694 -39.4602,-20.6344 -12.4259,-7.9405 -24.0282,-16.8652 -34.5923,-26.4819 -2.7496,-2.503 -5.427,-5.0552 -8.0327,-7.6534 0,0 0,0 0,0 -12.062,-12.0272 -22.595,-25.0262 -31.712,-38.7533 -9.1171,-13.7271 -16.8227,-28.1868 -23.1321,-43.3005 -4.7376,-11.3473 -8.6769,-23.0656 -11.8243,-35.138 -3.1475,-12.0724 -5.5039,-24.5003 -7.0145,-37.2803 -0.2772,-2.2407 -0.605,-4.9456 -0.9213,-7.7823 -0.3163,-2.8367 -0.6204,-5.8052 -0.8915,-8.5677 -0.5422,-5.5249 -0.9447,-10.2289 -1.4038,-11.3619 -0.1352,-0.3335 -0.2758,-0.3572 -0.421,0 0,0 0,0 0,0 -0.1394,0.3427 -0.2832,1.0361 -0.4212,2.1437 -0.1486,2.7689 -0.1432,5.9231 -0.025,9.1618 C -3275.651,1923.3838 -3275.4194,1926.7064 -3275.1575,1929.8205 Z"
       id="path1917" />
    <path
       transform="matrix(1.0390675,0,0,-1.0390675,3452.2345,2708.064)"
       style="color:#000000;color-interpolation:sRGB;color-interpolation-filters:linearRGB;fill:#000000;stroke:none;stroke-width:1.00030291;marker:none;visibility:visible;display:inline;overflow:visible;enable-background:accumulate;clip-rule:nonzero"
       d="m -3039.5652,2167.7226 c 7.9012,0.6107 15.8253,0.89 23.7464,0.826 27.406,-0.2212 54.8143,-4.5561 80.8107,-13.2425 6.7944,-2.2703 13.501,-4.8015 20.0969,-7.6003 25.9343,-11.005 50.1797,-26.1213 71.2058,-44.9109 3.841,-3.4324 7.5928,-6.9639 11.2463,-10.5956 10.7164,-10.6524 20.59,-22.1698 29.3831,-34.4809 8.793,-12.3111 16.503,-25.4178 22.839,-39.161 1.3112,-2.8443 2.5699,-5.7124 3.7749,-8.6027 12.4239,-29.8041 19.0526,-61.9347 19.5813,-94.0731 0.537,-4.8627 -0.1616,-7.1527 -0.807,-7.0379 -0.6455,0.1149 -1.2451,2.5947 -0.9065,7.2749 -0.6625,31.829 -7.3539,63.6092 -19.7379,93.0452 -1.1169,2.655 -2.2796,5.2908 -3.4869,7.9062 -6.3401,13.7339 -14.0665,26.8214 -22.8746,39.1044 -8.8081,12.2829 -18.6953,23.763 -29.4148,34.3755 -3.2355,3.2033 -6.5475,6.3281 -9.9292,9.3754 -10.228,9.2164 -21.5435,17.9992 -33.61,25.8435 -12.0666,7.8443 -24.8792,14.7445 -37.9174,20.3909 -6.7988,2.9446 -13.6556,5.5488 -20.4796,7.8079 -13.3103,4.4065 -26.52,7.3831 -39.7451,9.3234 -13.2251,1.9403 -26.4727,2.8475 -40.029,2.8734 -6.4931,0.012 -13.0591,-0.1814 -19.7366,-0.5845 -3.1572,-0.163 -8.0022,-0.3674 -11.4072,-0.3814 -1.7025,-0.01 -3.0455,0.044 -3.6354,0.2206 -0.5899,0.1763 -0.4274,0.482 0.8924,0.9518 C -3046.7665,2167.0602 -3042.9442,2167.4315 -3039.5652,2167.7226 Z"
       id="path1921" />
    <g
       id="g1192">
      <text
         sodipodi:linespacing="125%"
         id="text1898"
         y="621.1048"
         x="-211.42528"
         style="font-size:15px;font-style:normal;font-variant:normal;font-weight:500;font-stretch:normal;text-align:start;line-height:125%;letter-spacing:0px;word-spacing:0px;writing-mode:lr-tb;text-anchor:start;fill:#000000;fill-opacity:1;stroke:none;font-family:CMU Serif;-inkscape-font-specification:CMU Serif Medium"
         xml:space="preserve"><tspan
           y="621.1048"
           x="-211.42528"
           id="tspan1900"
           sodipodi:role="line">\mathcal{D}</tspan></text>
      <text
         sodipodi:linespacing="125%"
         id="text2048"
         y="495.55255"
         x="-86.336166"
         style="font-size:15px;font-style:normal;font-variant:normal;font-weight:500;font-stretch:normal;text-align:start;line-height:125%;letter-spacing:0px;word-spacing:0px;writing-mode:lr-tb;text-anchor:start;fill:#000000;fill-opacity:1;stroke:none;font-family:CMU Serif;-inkscape-font-specification:CMU Serif Medium"
         xml:space="preserve"><tspan
           y="495.55255"
           x="-86.336166"
           id="tspan2050"
           sodipodi:role="line">p</tspan></text>
      <text
         xml:space="preserve"
         style="font-size:15px;font-style:normal;font-variant:normal;font-weight:500;font-stretch:normal;text-align:start;line-height:125%;letter-spacing:0px;word-spacing:0px;writing-mode:lr-tb;text-anchor:start;fill:#000000;fill-opacity:1;stroke:none;font-family:CMU Serif;-inkscape-font-specification:CMU Serif Medium"
         x="681.02979"
         y="440.63895"
         id="text1888"
         sodipodi:linespacing="125%"><tspan
           sodipodi:role="line"
           id="tspan1890"
           x="681.02979"
           y="440.63895">\mathcal{D}</tspan></text>
      <text
         sodipodi:linespacing="125%"
         id="text2052"
         y="496.52493"
         x="493.04617"
         style="font-size:15px;font-style:normal;font-variant:normal;font-weight:500;font-stretch:normal;text-align:start;line-height:125%;letter-spacing:0px;word-spacing:0px;writing-mode:lr-tb;text-anchor:start;fill:#000000;fill-opacity:1;stroke:none;font-family:CMU Serif;-inkscape-font-specification:CMU Serif Medium"
         xml:space="preserve"><tspan
           y="496.52493"
           x="493.04617"
           id="tspan2054"
           sodipodi:role="line">p</tspan></text>
    </g>
    <path
       style="opacity:0.3;fill:#0000ff;stroke:none"
       d="m 488.54321,715.66046 c -0.46061,-25.91764 -0.32573,-51.87258 -0.51527,-77.85177 -0.18953,-25.97885 0.20683,-51.97901 0.12892,-77.98401 -0.0779,-26.005 0.76992,-52.01238 0.64421,-78.00813 -0.12571,-25.99541 -0.31517,-51.9776 -0.64812,-77.92836 0.82185,-7.17534 -2.63615,-6.71256 -1.70661,0.20709 0.21434,25.71347 0.28119,51.45903 0.29362,77.21583 0.0124,25.7568 -0.93932,51.52291 -0.94261,77.28068 -0.003,25.75778 0.4688,53.9192 0.63597,79.63559 0.16718,25.71639 -0.88089,48.98448 -0.35707,74.61714 0.15063,4.68019 1.05344,14.33939 2.23506,10.31976 C 488.61521,720.96006 488.55764,718.14767 488.54321,715.66046 Z"
       id="path888" />
    <path
       transform="matrix(2.1413479,0,0,-2.1413479,6432.8793,4812.1405)"
       style="color:#000000;color-interpolation:sRGB;color-interpolation-filters:linearRGB;fill:#000000;stroke:none;stroke-width:1.00030291;marker:none;visibility:visible;display:inline;overflow:visible;enable-background:accumulate;clip-rule:nonzero"
       d="m -2805.7366,2060.5092 c 7.573,-10.8719 14.5049,-22.2047 20.4181,-34.0757 5.9132,-11.8709 11.1546,-24.1061 15.2547,-36.7348 4.1002,-12.6286 7.632,-25.4811 9.7539,-38.5919 2.1219,-13.1106 3.2099,-26.3764 3.1875,-39.6216 0.1928,-1.8295 -0.096,-2.6873 -0.3729,-2.644 -0.2766,0.043 -0.5418,0.9809 -0.3594,2.7432 -0.032,13.0855 -1.1546,26.184 -3.2844,39.1244 -2.1297,12.9404 -5.6428,25.6202 -9.6913,38.0797 -2.0243,6.2298 -4.3357,12.6894 -6.8963,19.0501 -2.5607,6.3607 -5.3703,12.6213 -8.2979,18.4771 -2.9277,5.8557 -6.0441,11.2648 -9.325,16.5574 -3.2809,5.2927 -6.726,10.4702 -10.4123,15.8534 -0.6634,0.9897 -1.6408,2.5347 -2.2601,3.6593 -0.6194,1.1246 -0.8728,1.8355 -0.057,1.1616 C -2807.3032,2062.7205 -2806.4737,2061.5451 -2805.7366,2060.5092 Z"
       id="path892" />
  </g>
</svg>
