<?xml version="1.0" encoding="UTF-8" standalone="no"?>
<!-- Created with Inkscape (http://www.inkscape.org/) -->

<svg
   xmlns:dc="http://purl.org/dc/elements/1.1/"
   xmlns:cc="http://creativecommons.org/ns#"
   xmlns:rdf="http://www.w3.org/1999/02/22-rdf-syntax-ns#"
   xmlns:svg="http://www.w3.org/2000/svg"
   xmlns="http://www.w3.org/2000/svg"
   xmlns:sodipodi="http://sodipodi.sourceforge.net/DTD/sodipodi-0.dtd"
   xmlns:inkscape="http://www.inkscape.org/namespaces/inkscape"
   width="824.43738"
   height="399.00644"
   id="svg2221"
   version="1.1"
   inkscape:version="0.48+devel r"
   sodipodi:docname="hyperb-halflines.svg">
  <title
     id="title2769">Winter School -- Contact Topology</title>
  <defs
     id="defs2223">
    <inkscape:path-effect
       effect="skeletal"
       id="path-effect2129"
       is_visible="true"
       pattern="m -735.6595,-676.67779 c -7.7724,0.72284 -15.5563,0.59508 -23.3473,0.93083 -7.7909,0.33575 -15.5885,-0.16545 -23.3873,0.0109 -7.7988,0.17634 -15.5988,-0.96978 -23.3948,-0.72517 -7.7959,0.24461 -15.5878,0.58027 -23.3702,1.12082 -2.1523,-1.15612 -2.0117,3.78271 0.063,2.4375 7.7113,-0.37053 15.4323,-0.53042 23.1567,-0.61261 7.7244,-0.0822 15.4521,1.213 23.1768,1.15327 7.7247,-0.0597 16.17,-0.80459 23.8822,-1.10773 7.7122,-0.30315 14.6908,1.13589 22.3777,0.32345 1.4035,-0.22689 4.2998,-1.54077 3.0937,-3.21875 C -734.0702,-676.79391 -734.9136,-676.70463 -735.6595,-676.67779 Z"
       copytype="single_stretched"
       prop_scale="1"
       scale_y_rel="false"
       spacing="0"
       normal_offset="0"
       tang_offset="0"
       prop_units="false"
       vertical_pattern="false"
       fuse_tolerance="0" />
    <inkscape:path-effect
       fuse_tolerance="0"
       vertical_pattern="false"
       prop_units="false"
       tang_offset="0"
       normal_offset="0"
       spacing="0"
       scale_y_rel="false"
       prop_scale="1"
       copytype="single_stretched"
       pattern="m -3407.665,448.70887 c -7.7724,0.72284 -15.5563,0.59508 -23.3473,0.93083 -7.7909,0.33575 -15.5885,-0.16545 -23.3873,0.0109 -7.7988,0.17634 -15.5988,-0.96978 -23.3948,-0.72517 -7.7959,0.24461 -15.5878,0.58027 -23.3702,1.12082 -2.1523,-1.15612 -2.0117,3.78271 0.063,2.4375 7.7113,-0.37053 15.4323,-0.53042 23.1567,-0.61261 7.7244,-0.0822 15.4521,1.213 23.1768,1.15327 7.7247,-0.0597 16.17,-0.80459 23.8822,-1.10773 7.7122,-0.30315 14.6908,1.13589 22.3777,0.32345 1.4035,-0.22689 4.2998,-1.54077 3.0937,-3.21875 C -3406.0757,448.59275 -3406.9191,448.68203 -3407.665,448.70887 Z"
       is_visible="true"
       id="path-effect1088-99"
       effect="skeletal" />
  </defs>
  <sodipodi:namedview
     id="base"
     pagecolor="#ffffff"
     bordercolor="#666666"
     borderopacity="1.0"
     inkscape:pageopacity="0.0"
     inkscape:pageshadow="2"
     inkscape:zoom="1.281949"
     inkscape:cx="291.94839"
     inkscape:cy="144.31221"
     inkscape:document-units="px"
     inkscape:current-layer="layer1"
     showgrid="false"
     fit-margin-top="0"
     fit-margin-left="0"
     fit-margin-right="0"
     fit-margin-bottom="0"
     inkscape:snap-bbox="true"
     inkscape:bbox-nodes="true"
     inkscape:bbox-paths="true"
     inkscape:snap-bbox-edge-midpoints="true"
     inkscape:snap-bbox-midpoints="true"
     inkscape:object-paths="true"
     inkscape:snap-intersection-paths="true"
     inkscape:object-nodes="true"
     inkscape:snap-smooth-nodes="true"
     inkscape:snap-midpoints="true"
     inkscape:snap-object-midpoints="true"
     inkscape:snap-center="true"
     inkscape:snap-text-baseline="true"
     inkscape:snap-page="true" />
  <metadata
     id="metadata2226">
    <rdf:RDF>
      <cc:Work
         rdf:about="">
        <dc:format>image/svg+xml</dc:format>
        <dc:type
           rdf:resource="http://purl.org/dc/dcmitype/StillImage" />
        <dc:title>Winter School -- Contact Topology</dc:title>
        <dc:date>2013</dc:date>
        <dc:creator>
          <cc:Agent>
            <dc:title>Marek Kaluba</dc:title>
          </cc:Agent>
        </dc:creator>
        <dc:rights>
          <cc:Agent>
            <dc:title>Marek Kaluba</dc:title>
          </cc:Agent>
        </dc:rights>
      </cc:Work>
    </rdf:RDF>
  </metadata>
  <g
     inkscape:label="Layer 1"
     inkscape:groupmode="layer"
     id="layer1"
     transform="translate(220.0315,-356.64289)">
    <g
       id="g1988"
       transform="translate(3147.7678,-1427.0496)">
      <path
         sodipodi:nodetypes="cc"
         inkscape:connector-curvature="0"
         id="path2584-0-9"
         d="m -3367.7993,2109.6489 824.4374,0"
         style="fill:none;stroke:#000000;stroke-width:1px;stroke-linecap:butt;stroke-linejoin:miter;stroke-opacity:1" />
      <path
         sodipodi:nodetypes="cc"
         inkscape:connector-curvature="0"
         id="path2582-4-4"
         d="m -3069.5306,2182.6982 0.5698,-399.005"
         style="fill:none;stroke:#000000;stroke-width:1px;stroke-linecap:butt;stroke-linejoin:miter;stroke-opacity:1" />
    </g>
    <path
       sodipodi:end="3.1415927"
       sodipodi:start="0.78539816"
       transform="matrix(1,0,0,-1,3140.5045,2591.4389)"
       d="m -3275.9219,1924.7961 c 1.9155,24.372 7.1362,48.4346 15.4712,71.389 8.335,22.9544 19.7922,44.7971 34.1346,64.5457 8.1505,11.2227 17.1448,21.8277 26.9574,31.6487 12.2203,12.2291 25.6341,23.2776 40.0195,32.8886 14.3854,9.6109 29.7435,17.7828 45.8046,24.2331 0,0 0,0 0,0 0.3647,0.1464 0.7298,0.292 1.0952,0.4367 15.3401,6.074 31.2084,10.8018 47.3945,14.0498 16.1861,3.2481 32.6903,5.0138 49.2261,5.1397 15.9392,0.1212 31.9024,-1.2833 47.5625,-4.2601 17.2326,-3.2757 34.1222,-8.2891 50.3103,-14.9785 29.0465,-12.0047 55.7546,-29.4311 78.454,-50.9623 2.6662,-2.0791 4.3785,-3.8757 5.3302,-5.2026 0.9518,-1.3269 1.145,-2.1862 0.763,-2.4562 -0.3821,-0.2699 -1.3379,0.047 -2.7188,1.0419 -1.3809,0.9945 -3.1856,2.6644 -5.3188,5.0954 -22.4944,21.1297 -48.8998,38.1967 -77.5489,49.9209 -15.7469,6.4448 -32.1559,11.2871 -48.8869,14.473 -15.79,3.0068 -31.8879,4.3928 -47.9466,4.2141 -15.9576,-0.1775 -31.877,-1.8978 -47.494,-5.0078 -15.617,-3.11 -30.932,-7.6074 -45.7526,-13.3621 -1.0676,-0.4145 -2.135,-0.8369 -3.2018,-1.2672 -15.3545,-6.1915 -30.5866,-14.0542 -45.0204,-23.4446 -14.4337,-9.3904 -28.0603,-20.3045 -40.3025,-32.3205 -10.1591,-9.9696 -19.3153,-20.7205 -27.3319,-31.8433 -7.0012,-9.714 -13.0765,-19.7472 -18.3682,-30.0126 -5.2918,-10.2654 -9.8012,-20.7648 -13.6302,-31.4891 -3.829,-10.7243 -6.9787,-21.6747 -9.4924,-32.8984 -2.5136,-11.2236 -4.3928,-22.7214 -5.6005,-34.5803 -0.24,-2.1636 -0.564,-4.9026 -0.8946,-7.6844 -0.3307,-2.7819 -0.6676,-5.607 -1.0011,-7.9331 -0.3334,-2.3261 -0.6677,-4.1533 -1.0317,-4.9277 -0.364,-0.7744 -0.767,-0.4959 -1.1725,1.4026 C -3276.5112,1914.8042 -3276.2471,1920.1155 -3275.9219,1924.7961 Z"
       sodipodi:ry="258.46799"
       sodipodi:rx="258.46799"
       sodipodi:cy="1908.8396"
       sodipodi:cx="-3015.8188"
       id="path2010"
       style="color:#000000;color-interpolation:sRGB;color-interpolation-filters:linearRGB;fill:#000000;stroke:none;stroke-width:1;marker:none;visibility:visible;display:inline;overflow:visible;enable-background:accumulate;clip-rule:nonzero"
       sodipodi:type="arc"
       inkscape:path-effect="#path-effect1088-99"
       sodipodi:open="true" />
    <path
       style="fill:none;stroke:#000000;stroke-width:1px;stroke-linecap:butt;stroke-linejoin:miter;stroke-opacity:1"
       d="m 124.5441,675.1125 0,14.0656"
       id="path2032"
       inkscape:connector-curvature="0"
       sodipodi:nodetypes="cc" />
    <text
       xml:space="preserve"
       style="font-size:15px;font-style:normal;font-variant:normal;font-weight:500;font-stretch:normal;text-align:start;line-height:125%;letter-spacing:0px;word-spacing:0px;writing-mode:lr-tb;text-anchor:start;fill:#000000;fill-opacity:1;stroke:none;font-family:CMU Serif;-inkscape-font-specification:CMU Serif Medium"
       x="130.17809"
       y="718.74866"
       id="text2036"
       sodipodi:linespacing="125%"><tspan
         sodipodi:role="line"
         id="tspan2038"
         x="130.17809"
         y="718.74866">x_0</tspan></text>
    <g
       id="g1992"
       transform="translate(2906.3668,-1422.8206)" />
    <path
       style="fill:#000000;stroke:none"
       d="m 462.16405,424.43301 c 0.72284,21.03938 0.59508,42.10989 0.93083,63.19962 0.33575,21.08946 -0.16545,42.19706 0.0109,63.3079 0.17634,21.11085 -0.96978,42.22494 -0.72517,63.32821 0.24461,21.10299 0.58027,42.19516 1.12082,63.26161 -1.15612,5.82614 3.78271,5.44554 2.4375,-0.17054 -0.37053,-20.87398 -0.53042,-41.77423 -0.61261,-62.68368 -0.0822,-20.90945 1.213,-41.82783 1.15327,-62.73809 -0.0597,-20.91026 -0.80459,-43.77114 -1.10773,-64.64757 -0.30315,-20.87642 1.13589,-39.76704 0.32345,-60.57498 -0.22689,-3.79918 -1.54077,-11.63928 -3.21875,-8.37444 C 462.04793,420.13087 462.13721,422.4139 462.16405,424.43301 Z"
       id="path2040"
       inkscape:connector-curvature="0"
       inkscape:path-effect="#path-effect2129"
       inkscape:original-d="m 464.3097,681.7384 0,-264.1745"
       sodipodi:nodetypes="cc" />
    <path
       style="fill:none;stroke:#000000;stroke-width:1px;stroke-linecap:butt;stroke-linejoin:miter;stroke-opacity:1"
       d="m 464.6885,677.6608 0,14.0656"
       id="path2032-8"
       inkscape:connector-curvature="0"
       sodipodi:nodetypes="cc" />
    <text
       xml:space="preserve"
       style="font-size:15px;font-style:normal;font-variant:normal;font-weight:500;font-stretch:normal;text-align:start;line-height:125%;letter-spacing:0px;word-spacing:0px;writing-mode:lr-tb;text-anchor:start;fill:#000000;fill-opacity:1;stroke:none;font-family:CMU Serif;-inkscape-font-specification:CMU Serif Medium"
       x="470.32239"
       y="721.29706"
       id="text2036-5"
       sodipodi:linespacing="125%"><tspan
         sodipodi:role="line"
         x="470.32239"
         y="721.29706"
         id="tspan944">x_1</tspan></text>
    <text
       xml:space="preserve"
       style="font-size:15px;font-style:normal;font-variant:normal;font-weight:500;font-stretch:normal;text-align:start;line-height:125%;letter-spacing:0px;word-spacing:0px;writing-mode:lr-tb;text-anchor:start;fill:#000000;fill-opacity:1;stroke:none;font-family:CMU Serif;-inkscape-font-specification:CMU Serif Medium"
       x="563.47406"
       y="149.20039"
       id="text932"
       sodipodi:linespacing="125%"
       transform="translate(-220.0315,354.3321)"><tspan
         sodipodi:role="line"
         id="tspan934"
         x="563.47406"
         y="149.20039">B</tspan></text>
    <text
       xml:space="preserve"
       style="font-size:15px;font-style:normal;font-variant:normal;font-weight:500;font-stretch:normal;text-align:start;line-height:125%;letter-spacing:0px;word-spacing:0px;writing-mode:lr-tb;text-anchor:start;fill:#000000;fill-opacity:1;stroke:none;font-family:CMU Serif;-inkscape-font-specification:CMU Serif Medium"
       x="483.79834"
       y="413.49042"
       id="text940"
       sodipodi:linespacing="125%"><tspan
         sodipodi:role="line"
         id="tspan942"
         x="483.79834"
         y="413.49042">D</tspan></text>
  </g>
</svg>
