<?xml version="1.0" encoding="UTF-8" standalone="no"?>
<!-- Created with Inkscape (http://www.inkscape.org/) -->

<svg
   xmlns:dc="http://purl.org/dc/elements/1.1/"
   xmlns:cc="http://creativecommons.org/ns#"
   xmlns:rdf="http://www.w3.org/1999/02/22-rdf-syntax-ns#"
   xmlns:svg="http://www.w3.org/2000/svg"
   xmlns="http://www.w3.org/2000/svg"
   xmlns:sodipodi="http://sodipodi.sourceforge.net/DTD/sodipodi-0.dtd"
   xmlns:inkscape="http://www.inkscape.org/namespaces/inkscape"
   width="596.47931"
   height="571.46942"
   id="svg1934"
   version="1.1"
   inkscape:version="0.48+devel r"
   sodipodi:docname="levels.svg">
  <title
     id="title1942">Winter School -- Contact Topology</title>
  <defs
     id="defs1936">
    <filter
       id="filter1667"
       style="color-interpolation-filters:sRGB"
       inkscape:label="Nudge RGB">
      <feFlood
         id="feFlood1669"
         flood-opacity="1"
         flood-color="rgb(0,0,255)"
         result="flood" />
      <feColorMatrix
         id="feColorMatrix1671"
         in="SourceGraphic"
         values="0 0 0 0 1 0 0 0 0 0 0 0 0 0 0 1 0 0 0 0 "
         result="colormatrix1" />
      <feOffset
         id="feOffset1673"
         dy="-7"
         dx="5"
         result="offset1" />
      <feBlend
         id="feBlend1675"
         in2="flood"
         mode="screen"
         result="blend1" />
      <feColorMatrix
         id="feColorMatrix1677"
         in="SourceGraphic"
         values="0 0 0 0 0 0 0 0 0 1 0 0 0 0 0 0 1 0 0 0 "
         result="colormatrix2" />
      <feOffset
         id="feOffset1679"
         dy="0"
         dx="10"
         result="offset2" />
      <feBlend
         id="feBlend1681"
         in2="blend1"
         mode="screen"
         result="blend2" />
      <feOffset
         id="feOffset1683"
         dy="3"
         dx="-9"
         result="offset3" />
      <feColorMatrix
         id="feColorMatrix1685"
         in="SourceGraphic"
         values="0 0 0 0 0 0 0 0 0 0 0 0 0 0 1 0 0 1 0 0 "
         result="colormatrix3" />
      <feBlend
         id="feBlend1687"
         in2="offset3"
         mode="screen"
         result="blend3" />
      <feComposite
         id="feComposite1689"
         in2="SourceGraphic"
         operator="in" />
    </filter>
    <inkscape:path-effect
       fuse_tolerance="0"
       vertical_pattern="false"
       prop_units="false"
       tang_offset="0"
       normal_offset="0"
       spacing="0"
       scale_y_rel="false"
       prop_scale="1"
       copytype="single_stretched"
       pattern="m 1340.7836,-1756.0413 c -7.7724,0.7229 -15.5563,0.5951 -23.3473,0.9309 -7.7909,0.3357 -15.5885,-0.1655 -23.3873,0.011 -7.7988,0.1763 -15.5988,-0.9698 -23.3948,-0.7252 -7.7959,0.2446 -15.5878,0.5803 -23.3702,1.1208 -2.1523,-1.1561 -2.0117,3.7827 0.063,2.4375 7.7113,-0.3705 15.4323,-0.5304 23.1567,-0.6126 7.7244,-0.082 15.4521,1.213 23.1768,1.1533 7.7247,-0.06 16.17,-0.8046 23.8822,-1.1077 7.7122,-0.3032 14.6908,1.1358 22.3777,0.3234 1.4035,-0.2269 4.2998,-1.5408 3.0937,-3.2187 C 1342.3729,-1756.1574 1341.5295,-1756.0681 1340.7836,-1756.0413 Z"
       is_visible="true"
       id="path-effect1088-4"
       effect="skeletal" />
    <inkscape:path-effect
       fuse_tolerance="0"
       vertical_pattern="false"
       prop_units="false"
       tang_offset="0"
       normal_offset="0"
       spacing="0"
       scale_y_rel="false"
       prop_scale="1"
       copytype="single_stretched"
       pattern="m 1340.7836,-1756.0413 c -7.7724,0.7229 -15.5563,0.5951 -23.3473,0.9309 -7.7909,0.3357 -15.5885,-0.1655 -23.3873,0.011 -7.7988,0.1763 -15.5988,-0.9698 -23.3948,-0.7252 -7.7959,0.2446 -15.5878,0.5803 -23.3702,1.1208 -2.1523,-1.1561 -2.0117,3.7827 0.063,2.4375 7.7113,-0.3705 15.4323,-0.5304 23.1567,-0.6126 7.7244,-0.082 15.4521,1.213 23.1768,1.1533 7.7247,-0.06 16.17,-0.8046 23.8822,-1.1077 7.7122,-0.3032 14.6908,1.1358 22.3777,0.3234 1.4035,-0.2269 4.2998,-1.5408 3.0937,-3.2187 C 1342.3729,-1756.1574 1341.5295,-1756.0681 1340.7836,-1756.0413 Z"
       is_visible="true"
       id="path-effect1110-5"
       effect="skeletal" />
    <inkscape:path-effect
       fuse_tolerance="0"
       vertical_pattern="false"
       prop_units="false"
       tang_offset="0"
       normal_offset="0"
       spacing="0"
       scale_y_rel="false"
       prop_scale="1"
       copytype="single_stretched"
       pattern="m 1340.7836,-1756.0413 c -7.7724,0.7229 -15.5563,0.5951 -23.3473,0.9309 -7.7909,0.3357 -15.5885,-0.1655 -23.3873,0.011 -7.7988,0.1763 -15.5988,-0.9698 -23.3948,-0.7252 -7.7959,0.2446 -15.5878,0.5803 -23.3702,1.1208 -2.1523,-1.1561 -2.0117,3.7827 0.063,2.4375 7.7113,-0.3705 15.4323,-0.5304 23.1567,-0.6126 7.7244,-0.082 15.4521,1.213 23.1768,1.1533 7.7247,-0.06 16.17,-0.8046 23.8822,-1.1077 7.7122,-0.3032 14.6908,1.1358 22.3777,0.3234 1.4035,-0.2269 4.2998,-1.5408 3.0937,-3.2187 C 1342.3729,-1756.1574 1341.5295,-1756.0681 1340.7836,-1756.0413 Z"
       is_visible="true"
       id="path-effect1118-9"
       effect="skeletal" />
    <inkscape:path-effect
       fuse_tolerance="0"
       vertical_pattern="false"
       prop_units="false"
       tang_offset="0"
       normal_offset="0"
       spacing="0"
       scale_y_rel="false"
       prop_scale="1"
       copytype="single_stretched"
       pattern="m 1340.7836,-1756.0413 c -7.7724,0.7229 -15.5563,0.5951 -23.3473,0.9309 -7.7909,0.3357 -15.5885,-0.1655 -23.3873,0.011 -7.7988,0.1763 -15.5988,-0.9698 -23.3948,-0.7252 -7.7959,0.2446 -15.5878,0.5803 -23.3702,1.1208 -2.1523,-1.1561 -2.0117,3.7827 0.063,2.4375 7.7113,-0.3705 15.4323,-0.5304 23.1567,-0.6126 7.7244,-0.082 15.4521,1.213 23.1768,1.1533 7.7247,-0.06 16.17,-0.8046 23.8822,-1.1077 7.7122,-0.3032 14.6908,1.1358 22.3777,0.3234 1.4035,-0.2269 4.2998,-1.5408 3.0937,-3.2187 C 1342.3729,-1756.1574 1341.5295,-1756.0681 1340.7836,-1756.0413 Z"
       is_visible="true"
       id="path-effect1096-2"
       effect="skeletal" />
    <inkscape:path-effect
       fuse_tolerance="0"
       vertical_pattern="false"
       prop_units="false"
       tang_offset="0"
       normal_offset="0"
       spacing="0"
       scale_y_rel="false"
       prop_scale="1"
       copytype="single_stretched"
       pattern="m 1340.7836,-1756.0413 c -7.7724,0.7229 -15.5563,0.5951 -23.3473,0.9309 -7.7909,0.3357 -15.5885,-0.1655 -23.3873,0.011 -7.7988,0.1763 -15.5988,-0.9698 -23.3948,-0.7252 -7.7959,0.2446 -15.5878,0.5803 -23.3702,1.1208 -2.1523,-1.1561 -2.0117,3.7827 0.063,2.4375 7.7113,-0.3705 15.4323,-0.5304 23.1567,-0.6126 7.7244,-0.082 15.4521,1.213 23.1768,1.1533 7.7247,-0.06 16.17,-0.8046 23.8822,-1.1077 7.7122,-0.3032 14.6908,1.1358 22.3777,0.3234 1.4035,-0.2269 4.2998,-1.5408 3.0937,-3.2187 C 1342.3729,-1756.1574 1341.5295,-1756.0681 1340.7836,-1756.0413 Z"
       is_visible="true"
       id="path-effect1126-3"
       effect="skeletal" />
    <filter
       id="filter1631"
       style="color-interpolation-filters:sRGB"
       inkscape:label="Nudge RGB">
      <feFlood
         id="feFlood1633"
         flood-opacity="1"
         flood-color="rgb(255,0,0)"
         result="flood" />
      <feColorMatrix
         id="feColorMatrix1635"
         in="SourceGraphic"
         values="0 0 0 0 1 0 0 0 0 0 0 0 0 0 0 1 0 0 0 0 "
         result="colormatrix1" />
      <feOffset
         id="feOffset1637"
         dy="-7"
         dx="5"
         result="offset1" />
      <feBlend
         id="feBlend1639"
         in2="flood"
         mode="screen"
         result="blend1" />
      <feColorMatrix
         id="feColorMatrix1641"
         in="SourceGraphic"
         values="0 0 0 0 0 0 0 0 0 1 0 0 0 0 0 0 1 0 0 0 "
         result="colormatrix2" />
      <feOffset
         id="feOffset1643"
         dy="0"
         dx="10"
         result="offset2" />
      <feBlend
         id="feBlend1645"
         in2="blend1"
         mode="screen"
         result="blend2" />
      <feOffset
         id="feOffset1647"
         dy="3"
         dx="-9"
         result="offset3" />
      <feColorMatrix
         id="feColorMatrix1649"
         in="SourceGraphic"
         values="0 0 0 0 0 0 0 0 0 0 0 0 0 0 1 0 0 1 0 0 "
         result="colormatrix3" />
      <feBlend
         id="feBlend1651"
         in2="offset3"
         mode="screen"
         result="blend3" />
      <feComposite
         id="feComposite1653"
         in2="SourceGraphic"
         operator="in" />
    </filter>
    <inkscape:path-effect
       fuse_tolerance="0"
       vertical_pattern="false"
       prop_units="false"
       tang_offset="0"
       normal_offset="0"
       spacing="0"
       scale_y_rel="false"
       prop_scale="1"
       copytype="single_stretched"
       pattern="m 1340.7836,-1756.0413 c -7.7724,0.7229 -15.5563,0.5951 -23.3473,0.9309 -7.7909,0.3357 -15.5885,-0.1655 -23.3873,0.011 -7.7988,0.1763 -15.5988,-0.9698 -23.3948,-0.7252 -7.7959,0.2446 -15.5878,0.5803 -23.3702,1.1208 -2.1523,-1.1561 -2.0117,3.7827 0.063,2.4375 7.7113,-0.3705 15.4323,-0.5304 23.1567,-0.6126 7.7244,-0.082 15.4521,1.213 23.1768,1.1533 7.7247,-0.06 16.17,-0.8046 23.8822,-1.1077 7.7122,-0.3032 14.6908,1.1358 22.3777,0.3234 1.4035,-0.2269 4.2998,-1.5408 3.0937,-3.2187 C 1342.3729,-1756.1574 1341.5295,-1756.0681 1340.7836,-1756.0413 Z"
       is_visible="true"
       id="path-effect1883"
       effect="skeletal" />
    <inkscape:path-effect
       fuse_tolerance="0"
       vertical_pattern="false"
       prop_units="false"
       tang_offset="0"
       normal_offset="0"
       spacing="0"
       scale_y_rel="false"
       prop_scale="1"
       copytype="single_stretched"
       pattern="m 1340.7836,-1756.0413 c -7.7724,0.7229 -15.5563,0.5951 -23.3473,0.9309 -7.7909,0.3357 -15.5885,-0.1655 -23.3873,0.011 -7.7988,0.1763 -15.5988,-0.9698 -23.3948,-0.7252 -7.7959,0.2446 -15.5878,0.5803 -23.3702,1.1208 -2.1523,-1.1561 -2.0117,3.7827 0.063,2.4375 7.7113,-0.3705 15.4323,-0.5304 23.1567,-0.6126 7.7244,-0.082 15.4521,1.213 23.1768,1.1533 7.7247,-0.06 16.17,-0.8046 23.8822,-1.1077 7.7122,-0.3032 14.6908,1.1358 22.3777,0.3234 1.4035,-0.2269 4.2998,-1.5408 3.0937,-3.2187 C 1342.3729,-1756.1574 1341.5295,-1756.0681 1340.7836,-1756.0413 Z"
       is_visible="true"
       id="path-effect1885"
       effect="skeletal" />
    <inkscape:path-effect
       fuse_tolerance="0"
       vertical_pattern="false"
       prop_units="false"
       tang_offset="0"
       normal_offset="0"
       spacing="0"
       scale_y_rel="false"
       prop_scale="1"
       copytype="single_stretched"
       pattern="m 1340.7836,-1756.0413 c -7.7724,0.7229 -15.5563,0.5951 -23.3473,0.9309 -7.7909,0.3357 -15.5885,-0.1655 -23.3873,0.011 -7.7988,0.1763 -15.5988,-0.9698 -23.3948,-0.7252 -7.7959,0.2446 -15.5878,0.5803 -23.3702,1.1208 -2.1523,-1.1561 -2.0117,3.7827 0.063,2.4375 7.7113,-0.3705 15.4323,-0.5304 23.1567,-0.6126 7.7244,-0.082 15.4521,1.213 23.1768,1.1533 7.7247,-0.06 16.17,-0.8046 23.8822,-1.1077 7.7122,-0.3032 14.6908,1.1358 22.3777,0.3234 1.4035,-0.2269 4.2998,-1.5408 3.0937,-3.2187 C 1342.3729,-1756.1574 1341.5295,-1756.0681 1340.7836,-1756.0413 Z"
       is_visible="true"
       id="path-effect1887"
       effect="skeletal" />
    <inkscape:path-effect
       fuse_tolerance="0"
       vertical_pattern="false"
       prop_units="false"
       tang_offset="0"
       normal_offset="0"
       spacing="0"
       scale_y_rel="false"
       prop_scale="1"
       copytype="single_stretched"
       pattern="m 1340.7836,-1756.0413 c -7.7724,0.7229 -15.5563,0.5951 -23.3473,0.9309 -7.7909,0.3357 -15.5885,-0.1655 -23.3873,0.011 -7.7988,0.1763 -15.5988,-0.9698 -23.3948,-0.7252 -7.7959,0.2446 -15.5878,0.5803 -23.3702,1.1208 -2.1523,-1.1561 -2.0117,3.7827 0.063,2.4375 7.7113,-0.3705 15.4323,-0.5304 23.1567,-0.6126 7.7244,-0.082 15.4521,1.213 23.1768,1.1533 7.7247,-0.06 16.17,-0.8046 23.8822,-1.1077 7.7122,-0.3032 14.6908,1.1358 22.3777,0.3234 1.4035,-0.2269 4.2998,-1.5408 3.0937,-3.2187 C 1342.3729,-1756.1574 1341.5295,-1756.0681 1340.7836,-1756.0413 Z"
       is_visible="true"
       id="path-effect1889"
       effect="skeletal" />
    <inkscape:path-effect
       fuse_tolerance="0"
       vertical_pattern="false"
       prop_units="false"
       tang_offset="0"
       normal_offset="0"
       spacing="0"
       scale_y_rel="false"
       prop_scale="1"
       copytype="single_stretched"
       pattern="m 1340.7836,-1756.0413 c -7.7724,0.7229 -15.5563,0.5951 -23.3473,0.9309 -7.7909,0.3357 -15.5885,-0.1655 -23.3873,0.011 -7.7988,0.1763 -15.5988,-0.9698 -23.3948,-0.7252 -7.7959,0.2446 -15.5878,0.5803 -23.3702,1.1208 -2.1523,-1.1561 -2.0117,3.7827 0.063,2.4375 7.7113,-0.3705 15.4323,-0.5304 23.1567,-0.6126 7.7244,-0.082 15.4521,1.213 23.1768,1.1533 7.7247,-0.06 16.17,-0.8046 23.8822,-1.1077 7.7122,-0.3032 14.6908,1.1358 22.3777,0.3234 1.4035,-0.2269 4.2998,-1.5408 3.0937,-3.2187 C 1342.3729,-1756.1574 1341.5295,-1756.0681 1340.7836,-1756.0413 Z"
       is_visible="true"
       id="path-effect1891"
       effect="skeletal" />
    <inkscape:path-effect
       fuse_tolerance="0"
       vertical_pattern="false"
       prop_units="false"
       tang_offset="0"
       normal_offset="0"
       spacing="0"
       scale_y_rel="false"
       prop_scale="1"
       copytype="single_stretched"
       pattern="m 1340.7836,-1756.0413 c -7.7724,0.7229 -15.5563,0.5951 -23.3473,0.9309 -7.7909,0.3357 -15.5885,-0.1655 -23.3873,0.011 -7.7988,0.1763 -15.5988,-0.9698 -23.3948,-0.7252 -7.7959,0.2446 -15.5878,0.5803 -23.3702,1.1208 -2.1523,-1.1561 -2.0117,3.7827 0.063,2.4375 7.7113,-0.3705 15.4323,-0.5304 23.1567,-0.6126 7.7244,-0.082 15.4521,1.213 23.1768,1.1533 7.7247,-0.06 16.17,-0.8046 23.8822,-1.1077 7.7122,-0.3032 14.6908,1.1358 22.3777,0.3234 1.4035,-0.2269 4.2998,-1.5408 3.0937,-3.2187 C 1342.3729,-1756.1574 1341.5295,-1756.0681 1340.7836,-1756.0413 Z"
       is_visible="true"
       id="path-effect1893"
       effect="skeletal" />
    <inkscape:path-effect
       fuse_tolerance="0"
       vertical_pattern="false"
       prop_units="false"
       tang_offset="0"
       normal_offset="0"
       spacing="0"
       scale_y_rel="false"
       prop_scale="1"
       copytype="single_stretched"
       pattern="m 1340.7836,-1756.0413 c -7.7724,0.7229 -15.5563,0.5951 -23.3473,0.9309 -7.7909,0.3357 -15.5885,-0.1655 -23.3873,0.011 -7.7988,0.1763 -15.5988,-0.9698 -23.3948,-0.7252 -7.7959,0.2446 -15.5878,0.5803 -23.3702,1.1208 -2.1523,-1.1561 -2.0117,3.7827 0.063,2.4375 7.7113,-0.3705 15.4323,-0.5304 23.1567,-0.6126 7.7244,-0.082 15.4521,1.213 23.1768,1.1533 7.7247,-0.06 16.17,-0.8046 23.8822,-1.1077 7.7122,-0.3032 14.6908,1.1358 22.3777,0.3234 1.4035,-0.2269 4.2998,-1.5408 3.0937,-3.2187 C 1342.3729,-1756.1574 1341.5295,-1756.0681 1340.7836,-1756.0413 Z"
       is_visible="true"
       id="path-effect1895"
       effect="skeletal" />
    <inkscape:path-effect
       fuse_tolerance="0"
       vertical_pattern="false"
       prop_units="false"
       tang_offset="0"
       normal_offset="0"
       spacing="0"
       scale_y_rel="false"
       prop_scale="1"
       copytype="single_stretched"
       pattern="m 1340.7836,-1756.0413 c -7.7724,0.7229 -15.5563,0.5951 -23.3473,0.9309 -7.7909,0.3357 -15.5885,-0.1655 -23.3873,0.011 -7.7988,0.1763 -15.5988,-0.9698 -23.3948,-0.7252 -7.7959,0.2446 -15.5878,0.5803 -23.3702,1.1208 -2.1523,-1.1561 -2.0117,3.7827 0.063,2.4375 7.7113,-0.3705 15.4323,-0.5304 23.1567,-0.6126 7.7244,-0.082 15.4521,1.213 23.1768,1.1533 7.7247,-0.06 16.17,-0.8046 23.8822,-1.1077 7.7122,-0.3032 14.6908,1.1358 22.3777,0.3234 1.4035,-0.2269 4.2998,-1.5408 3.0937,-3.2187 C 1342.3729,-1756.1574 1341.5295,-1756.0681 1340.7836,-1756.0413 Z"
       is_visible="true"
       id="path-effect1897"
       effect="skeletal" />
    <inkscape:path-effect
       fuse_tolerance="0"
       vertical_pattern="false"
       prop_units="false"
       tang_offset="0"
       normal_offset="0"
       spacing="0"
       scale_y_rel="false"
       prop_scale="1"
       copytype="single_stretched"
       pattern="m 1340.7836,-1756.0413 c -7.7724,0.7229 -15.5563,0.5951 -23.3473,0.9309 -7.7909,0.3357 -15.5885,-0.1655 -23.3873,0.011 -7.7988,0.1763 -15.5988,-0.9698 -23.3948,-0.7252 -7.7959,0.2446 -15.5878,0.5803 -23.3702,1.1208 -2.1523,-1.1561 -2.0117,3.7827 0.063,2.4375 7.7113,-0.3705 15.4323,-0.5304 23.1567,-0.6126 7.7244,-0.082 15.4521,1.213 23.1768,1.1533 7.7247,-0.06 16.17,-0.8046 23.8822,-1.1077 7.7122,-0.3032 14.6908,1.1358 22.3777,0.3234 1.4035,-0.2269 4.2998,-1.5408 3.0937,-3.2187 C 1342.3729,-1756.1574 1341.5295,-1756.0681 1340.7836,-1756.0413 Z"
       is_visible="true"
       id="path-effect1899"
       effect="skeletal" />
    <inkscape:path-effect
       fuse_tolerance="0"
       vertical_pattern="false"
       prop_units="false"
       tang_offset="0"
       normal_offset="0"
       spacing="0"
       scale_y_rel="false"
       prop_scale="1"
       copytype="single_stretched"
       pattern="m 1340.7836,-1756.0413 c -7.7724,0.7229 -15.5563,0.5951 -23.3473,0.9309 -7.7909,0.3357 -15.5885,-0.1655 -23.3873,0.011 -7.7988,0.1763 -15.5988,-0.9698 -23.3948,-0.7252 -7.7959,0.2446 -15.5878,0.5803 -23.3702,1.1208 -2.1523,-1.1561 -2.0117,3.7827 0.063,2.4375 7.7113,-0.3705 15.4323,-0.5304 23.1567,-0.6126 7.7244,-0.082 15.4521,1.213 23.1768,1.1533 7.7247,-0.06 16.17,-0.8046 23.8822,-1.1077 7.7122,-0.3032 14.6908,1.1358 22.3777,0.3234 1.4035,-0.2269 4.2998,-1.5408 3.0937,-3.2187 C 1342.3729,-1756.1574 1341.5295,-1756.0681 1340.7836,-1756.0413 Z"
       is_visible="true"
       id="path-effect1901"
       effect="skeletal" />
  </defs>
  <sodipodi:namedview
     id="base"
     pagecolor="#ffffff"
     bordercolor="#666666"
     borderopacity="1.0"
     inkscape:pageopacity="0.0"
     inkscape:pageshadow="2"
     inkscape:zoom="0.78651685"
     inkscape:cx="350.29677"
     inkscape:cy="256.47753"
     inkscape:document-units="px"
     inkscape:current-layer="layer1"
     showgrid="false"
     fit-margin-top="0"
     fit-margin-left="0"
     fit-margin-right="0"
     fit-margin-bottom="0" />
  <metadata
     id="metadata1939">
    <rdf:RDF>
      <cc:Work
         rdf:about="">
        <dc:format>image/svg+xml</dc:format>
        <dc:type
           rdf:resource="http://purl.org/dc/dcmitype/StillImage" />
        <dc:title>Winter School -- Contact Topology</dc:title>
        <dc:date>2013</dc:date>
        <dc:creator>
          <cc:Agent>
            <dc:title>Marek Kaluba</dc:title>
          </cc:Agent>
        </dc:creator>
        <dc:rights>
          <cc:Agent>
            <dc:title>Marek Kaluba</dc:title>
          </cc:Agent>
        </dc:rights>
      </cc:Work>
    </rdf:RDF>
  </metadata>
  <g
     inkscape:label="Layer 1"
     inkscape:groupmode="layer"
     id="layer1"
     transform="translate(-24.703235,-217.37029)">
    <g
       transform="translate(-1886.1309,2235.3934)"
       id="g1812">
      <g
         style="filter:url(#filter1667)"
         transform="matrix(1.3588222,0,0,1.3588222,-799.33173,617.61172)"
         id="g531">
        <path
           inkscape:original-d="m 2060.0875,-1725.059 c 0,-93.0243 88.4367,-163.8745 176.2523,-162.6766 87.8157,1.198 156.6401,71.5332 159.1762,159.4521 2.5361,87.9189 -66.1931,174.2578 -164.5186,174.2578 C 2132.672,-1554.0257 2060.0875,-1632.0347 2060.0875,-1725.059 Z"
           inkscape:path-effect="#path-effect1088-4"
           sodipodi:nodetypes="zzzzz"
           inkscape:connector-curvature="0"
           id="path53-0"
           d="m 2060.1513,-1697.5187 c 5.955,35.1857 22.4007,68.549 47.3845,93.9698 0,0 0,0 10e-5,0 15.5679,15.8322 34.2662,28.5626 54.7143,37.2023 0,0 0,0 0,0 21.6796,9.1568 45.2429,13.6574 68.7472,13.572 0,0 0,0 0,0 3.1999,-0.011 6.3994,-0.1177 9.5928,-0.3185 20.1738,-1.2686 40.1105,-6.2322 58.4159,-14.8033 20.0768,-9.4041 38.1208,-23.0219 52.9307,-39.5215 0,0 1e-4,0 1e-4,0 14.683,-16.3577 26.2337,-35.513 33.9273,-56.1158 7.05,-18.8762 10.8504,-38.9952 10.9204,-59.1485 0.01,-1.8786 -0.018,-3.7575 -0.075,-5.6357 0,0 0,0 0,0 -0.6343,-20.9526 -5.1872,-41.7681 -13.26,-61.1151 -8.0728,-19.3471 -19.6691,-37.2244 -34.3938,-52.2359 0,0 0,0 0,0 -14.3696,-14.6422 -31.5563,-26.5482 -50.3999,-34.7568 0,0 0,0 0,0 -18.7144,-8.1494 -39.0101,-12.5974 -59.4016,-13.1741 -0.9626,-0.027 -1.9254,-0.046 -2.8882,-0.056 -22.2852,-0.2355 -44.5122,4.1169 -65.2243,12.1598 -20.8121,8.0788 -40.163,19.8685 -56.8103,34.6873 0,0 -1e-4,0 -1e-4,0 -16.5447,14.7246 -30.4172,32.5176 -40.0498,52.4301 0,0 0,0 0,0 -7.376,15.2515 -12.1558,31.7417 -14.0159,48.5334 -0.9651,5.7492 -1.0512,10.054 -0.8491,12.8418 0.202,2.7877 0.6914,4.0713 1.1524,3.9348 0.461,-0.1365 0.8967,-1.6852 1.2462,-4.5616 0.3496,-2.8763 0.6152,-7.0776 0.95,-12.5969 1.9116,-16.2777 6.6163,-32.2547 13.7979,-47.0327 0,0 0,0 0,0 9.5073,-19.57 23.2111,-37.0644 39.5376,-51.5435 0,0 0,0 0,-10e-5 16.4336,-14.5715 35.5317,-26.1532 56.0479,-34.0712 20.4172,-7.8778 42.2969,-12.1214 64.1774,-11.8429 0.409,0.01 0.8179,0.012 1.2268,0.02 20.5674,0.4165 41.0648,4.8453 59.8854,13.0916 0,0 1e-4,0 1e-4,10e-5 18.4615,8.0871 35.2966,19.8043 49.3535,34.1834 0,0 0,0 0,0 14.4043,14.7272 25.7414,32.2832 33.6275,51.2715 7.8862,18.9882 12.325,39.4075 12.9267,59.9301 0,0 0,0 0,0 0.016,0.5354 0.029,1.0709 0.04,1.6064 0.4051,20.639 -3.1694,41.8565 -10.5644,61.9468 -7.4042,20.1101 -18.6276,39.1048 -33.0098,55.3472 0,10e-5 0,10e-5 0,10e-5 -14.5114,16.3874 -32.2789,29.9339 -51.84,39.2128 -18.6556,8.8535 -38.8952,13.733 -58.865,14.8149 -2.7086,0.1467 -5.4126,0.2227 -8.1088,0.2291 -23.691,0.055 -46.7832,-4.6605 -67.7252,-13.6882 -20.1628,-8.6892 -38.3383,-21.3283 -53.5042,-36.9796 -10.9237,-11.2676 -20.2025,-24.1296 -27.6884,-38.1751 -7.4858,-14.0456 -13.1828,-29.2799 -16.7844,-45.3206 -0.8403,-3.6529 -1.8197,-8.2999 -2.6443,-13.0485 -0.8246,-4.7486 -1.4917,-9.5966 -1.9929,-13.5976 -0.5012,-4.001 -0.855,-7.1539 -1.2232,-8.4909 -0.1841,-0.6685 -0.3729,-0.8828 -0.5695,-0.5194 -0.1966,0.3633 -0.4025,1.3045 -0.5821,2.9486 -0.1483,3.6009 -0.036,7.7052 0.3033,11.9067 C 2058.9262,-1705.8266 2059.494,-1701.5296 2060.1513,-1697.5187 Z"
           style="fill:#000000;stroke:none" />
        <path
           inkscape:original-d="m 2168.3581,-1874.8192 c 92.9965,-11.5258 147.3405,88.8604 157.7301,144.0989 9.9756,53.0367 7.4975,138.4286 -73.5016,175.4964"
           inkscape:path-effect="#path-effect1110-5"
           sodipodi:nodetypes="csc"
           inkscape:connector-curvature="0"
           id="path55-2"
           d="m 2263.8572,-1558.525 c 14.0544,-8.215 26.7918,-18.6601 36.9988,-31.3118 11.0763,-13.7497 19.0313,-29.8639 23.8065,-46.7947 0,0 0,0 0,0 0.4588,-1.6266 0.8896,-3.2601 1.293,-4.8997 3.5884,-14.5837 5.2409,-29.6027 5.3707,-44.5989 0.1319,-15.0201 -1.2366,-30.0554 -4.0167,-44.8199 -10e-5,0 -10e-5,0 -10e-5,0 -0.9951,-5.2802 -2.2689,-10.498 -3.7854,-15.6432 -3.2414,-10.9981 -7.3915,-21.7305 -12.1597,-32.1452 0,0 0,0 0,0 -8.2573,-18.0516 -18.6367,-35.2761 -31.6812,-50.3538 -2.6907,-3.1125 -5.5026,-6.1322 -8.4344,-9.0329 -11.6367,-11.5134 -24.9689,-21.3455 -39.8231,-28.1868 0,0 0,0 0,-10e-5 -9.4797,-4.3608 -19.5372,-7.4509 -29.8213,-9.0485 -8.7131,-1.3519 -17.5614,-1.6267 -26.3119,-0.925 -2.4596,-0.1302 -4.2488,0.1477 -5.3788,0.5533 -1.13,0.4056 -1.6057,0.9398 -1.4922,1.3903 0.1135,0.4504 0.8125,0.8184 2.041,0.9435 1.2285,0.1252 2.9835,0.01 5.2678,-0.472 8.4825,-0.6215 17.0411,-0.3063 25.4488,1.0396 10.0337,1.604 19.8457,4.6709 29.0881,8.9734 0,0 0,0 0,0 14.2901,6.646 27.1433,16.1779 38.4132,27.3376 3.0402,3.0104 5.9511,6.1532 8.7318,9.3975 12.7704,14.9061 22.9091,31.9384 30.9929,49.7782 0,0 0,0 10e-5,0 4.4382,9.8071 8.3253,19.8605 11.4155,30.1124 1.6549,5.4903 3.0893,11.1309 4.2153,16.8974 2.8036,14.3384 4.4631,29.2887 4.5699,44.188 0.053,7.6264 -0.2994,15.2435 -1.1185,22.7197 -0.819,7.4761 -2.1052,14.8107 -3.8781,21.879 -0.3604,1.4366 -0.743,2.8617 -1.1477,4.2751 0,0 0,0 0,0 -2.452,8.5643 -5.7408,16.6901 -9.7576,24.2945 -4.0167,7.6045 -8.7595,14.6913 -14.2152,21.2087 -4.5917,5.4933 -9.6824,10.5572 -15.2098,15.2536 -5.5274,4.6964 -11.4925,9.0265 -17.8734,13.0214 -1.3209,0.8502 -2.9841,1.9465 -4.6736,3.067 -1.6895,1.1204 -3.4055,2.2648 -4.7959,3.2619 -1.3903,0.9972 -2.4535,1.8506 -2.8122,2.4148 -0.3586,0.5641 -0.01,0.8469 1.4167,0.6424 C 2257.4604,-1555.0012 2260.8816,-1556.8351 2263.8572,-1558.525 Z"
           style="fill:#000000;stroke:none" />
        <path
           inkscape:original-d="m 2325.4538,-1860.8285 c -112.7387,-45.866 -197.4584,78.4517 -200.3934,162.1014 -2.7481,78.3228 13.099,114.4153 54.1717,136.3707"
           inkscape:path-effect="#path-effect1118-9"
           style="fill:#000000;stroke:none"
           d="m 2170.2514,-1570.2383 c -5.7649,-3.7052 -11.1408,-7.9862 -15.8748,-12.9152 0,0 0,0 0,0 -7.3833,-7.6681 -13.1401,-16.9113 -17.2362,-26.8298 0,0 0,0 0,0 -4.9242,-11.9146 -7.6092,-24.7248 -9.222,-37.6379 0,0 0,0 0,0 -0.6649,-5.3352 -1.1483,-10.6933 -1.4911,-16.067 -0.7416,-11.6236 -0.6905,-23.3234 -0.2674,-35.0003 0.8281,-22.9749 7.4032,-45.5092 16.7133,-66.6088 0,0 0,0 0,0 0.6277,-1.4208 1.269,-2.836 1.9237,-4.2452 4.979,-10.7162 10.9291,-20.993 17.7261,-30.6379 6.797,-9.645 14.4389,-18.6582 22.8284,-26.9009 0,0 0,0 0,0 8.8311,-8.6768 18.5014,-16.4686 28.9449,-23.026 0,0 0,0 0,0 0.1672,-0.105 0.3347,-0.2097 0.5024,-0.3141 10.1542,-6.3215 21.1292,-11.3514 32.6296,-14.5996 0,0 0,0 0,0 12.0083,-3.3946 24.5906,-4.8184 37.0871,-4.1767 11.4939,0.5873 22.895,2.9089 33.8729,6.5622 2.2668,1.0985 4.0018,1.6718 5.2171,1.8495 1.2152,0.1776 1.9074,-0.04 2.0258,-0.4901 0.1185,-0.4495 -0.3398,-1.1314 -1.4414,-1.837 -1.1015,-0.7056 -2.8499,-1.4358 -5.2783,-1.9227 -11.0625,-3.7154 -22.5785,-6.1006 -34.2324,-6.7583 -12.7816,-0.718 -25.6629,0.6745 -37.9828,4.0929 0,0 0,0 0,0 -11.5651,3.2108 -22.6048,8.1633 -32.833,14.3996 -0.3739,0.228 -0.7468,0.4576 -1.1187,0.6886 0,0 0,0 0,0 -10.6932,6.6435 -20.5884,14.5346 -29.6087,23.3263 0,0 0,0 0,0 -8.3585,8.1468 -15.9916,17.0383 -22.8032,26.5455 -6.8117,9.5073 -12.7998,19.6305 -17.8433,30.1905 -0.9248,1.9364 -1.8251,3.897 -2.6993,5.8795 -4.6034,10.4175 -8.5451,21.5135 -11.3745,32.9497 -2.8293,11.4362 -4.5388,23.2077 -4.8096,34.9434 -0.2755,12.1313 -0.1756,24.1714 0.5813,35.8058 0.3438,5.2844 0.792,10.4875 1.3807,15.6287 0,0 0,0 0,0 1.5188,13.287 4.0118,26.2329 8.8047,38.484 4.0014,10.2202 9.7459,19.8709 17.5003,28.0547 3.9379,4.147 8.3474,7.8819 13.134,11.2087 1.3771,0.9332 3.1771,2.0319 5.0594,3.0348 1.8823,1.0029 3.8451,1.91 5.5082,2.5414 1.6631,0.6314 3.0233,0.992 3.7024,0.9454 0.679,-0.047 0.6726,-0.4923 -0.3438,-1.5288 C 2176.4683,-1566.4455 2173.105,-1568.3537 2170.2514,-1570.2383 Z"
           id="path57-9"
           inkscape:connector-curvature="0"
           sodipodi:nodetypes="csc" />
        <path
           inkscape:original-d="m 2062.1822,-1726.3734 c 2.0056,46.0085 111.2893,60.8998 170.0241,61.3214 58.7348,0.4216 148.1241,-13.6323 163.5424,-57.9421"
           inkscape:path-effect="#path-effect1096-2"
           sodipodi:nodetypes="czc"
           inkscape:connector-curvature="0"
           id="path59-7"
           d="m 2389.7133,-1715.3968 c -1.3106,2.2202 -2.825,4.3404 -4.4933,6.3368 0,0 0,0 0,0 -4.0128,4.8008 -8.9136,8.9038 -14.1938,12.4671 0,0 0,0 0,0 -12.383,8.3575 -26.6573,13.7818 -41.1774,18.0358 0,0 0,0 0,0 -5.1968,1.5196 -10.4425,2.8762 -15.7248,4.0987 -11.1442,2.5791 -22.4886,4.3717 -33.8814,5.6565 -15.9405,1.7962 -31.9886,2.5881 -48.0274,2.5167 0,0 0,0 0,0 -2.2866,-0.01 -4.5733,-0.036 -6.8599,-0.076 -14.7261,-0.2598 -29.4278,-1.608 -44.0274,-3.5531 -14.9406,-1.9923 -29.7756,-4.6029 -44.4211,-7.9096 -3.5159,-0.7939 -7.0176,-1.6468 -10.5028,-2.5644 0,0 0,0 0,0 -15.5932,-4.1244 -31.0685,-9.24 -44.3391,-18.1139 0,0 0,0 0,0 -5.193,-3.4764 -10.0145,-7.5625 -13.5862,-12.6081 0,0 0,0 0,0 -2.0604,-2.9062 -3.6605,-6.1652 -4.6237,-9.5977 -0.2258,-2.0102 -0.4863,-3.4142 -0.8544,-4.3412 -0.3681,-0.9269 -0.8408,-1.3691 -1.2992,-1.2994 -0.4584,0.07 -0.9008,0.667 -1.0393,1.7876 -0.1386,1.1207 0.037,2.7776 0.903,4.7117 1.0229,3.6394 2.6933,7.0804 4.8493,10.1527 0,0 0,0 0,0 3.7976,5.3998 8.8159,9.7365 14.1714,13.3446 0,0 0,0 1e-4,0 13.6272,9.1915 29.3579,14.5318 45.0589,18.7463 0,0 0,0 0,0 3.3288,0.8958 6.6718,1.733 10.0268,2.5163 14.9461,3.4895 30.072,6.2523 45.2835,8.3534 14.2121,1.9649 28.5365,3.3546 42.902,3.7117 2.7548,0.068 5.5345,0.1053 8.3339,0.1091 15.829,0.021 32.2608,-1.1374 48.3564,-3.2484 11.8022,-1.5466 23.4492,-3.6012 34.5395,-6.1755 5.2446,-1.2175 10.3759,-2.5056 15.4205,-3.9038 0,0 0,0 0,0 7.4661,-2.0663 14.7891,-4.3606 21.8815,-7.1861 7.0925,-2.8254 13.9606,-6.1806 20.4547,-10.4006 5.4595,-3.5481 10.6422,-7.7751 14.9908,-12.9489 1.0678,-1.2703 2.0798,-2.6006 3.0228,-3.9876 0.7619,-1.1555 1.6293,-2.685 2.3555,-4.3009 0.7262,-1.616 1.3073,-3.3154 1.6297,-4.751 0.3223,-1.4355 0.394,-2.6008 0.2082,-3.1621 -0.1858,-0.5613 -0.6088,-0.5122 -1.3906,0.3711 -0.6277,1.0554 -1.244,2.2748 -1.8956,3.5229 C 2391.1127,-1717.8383 2390.4254,-1716.5614 2389.7133,-1715.3968 Z"
           style="fill:#000000;stroke:none" />
        <path
           inkscape:original-d="m 2062.1822,-1726.5646 c 2.0056,-46.0085 111.2893,-60.8997 170.0241,-61.3214 58.7348,-0.4216 148.1241,13.6323 163.5424,57.9422"
           inkscape:path-effect="#path-effect1126-3"
           style="opacity:0.27999998;fill:#000000;stroke:none"
           d="m 2393.3545,-1739.8138 c -1.5478,-2.3594 -3.2857,-4.5817 -5.1669,-6.6534 0,0 0,0 0,0 -4.5079,-4.965 -9.7592,-9.1242 -15.3134,-12.6873 0,0 0,0 0,0 -12.9953,-8.3355 -27.5506,-13.7711 -42.2806,-17.843 0,0 0,0 0,0 -5.2751,-1.4612 -10.5951,-2.7417 -15.9486,-3.8547 -11.2944,-2.3483 -22.7005,-4.1403 -34.1469,-5.4947 -16.0162,-1.8965 -32.1573,-2.9319 -48.3006,-2.7723 0,0 -1e-4,0 -1e-4,0 -2.3001,0.023 -4.5999,0.068 -6.8987,0.1358 -14.8054,0.4361 -29.5997,1.3172 -44.3399,2.8137 -15.0845,1.5295 -30.1642,3.7113 -44.9324,7.3009 -3.5453,0.8617 -7.0759,1.7856 -10.5888,2.7775 0,0 0,0 0,0 -15.6842,4.41 -31.4142,10.0494 -44.8325,19.5336 0,0 0,0 0,0 -5.2733,3.7228 -10.1715,8.1711 -13.7744,13.6017 0,0 0,0 0,0 -2.089,3.1528 -3.6546,6.6602 -4.5373,10.3198 -0.8112,1.9737 -0.9175,3.5786 -0.736,4.6101 0.1814,1.0316 0.6433,1.5067 1.1059,1.479 0.4626,-0.028 0.9279,-0.5426 1.2821,-1.4867 0.3543,-0.9441 0.5968,-2.3114 0.7611,-4.2097 0.839,-3.283 2.286,-6.4448 4.1885,-9.2988 0,0 0,0 0,0 3.3769,-5.0763 8.0784,-9.274 13.1891,-12.8652 0,0 0,0 0,0 13.0618,-9.1667 28.5369,-14.5815 44.1127,-18.9012 0,0 0,0 0,0 3.2984,-0.9125 6.6134,-1.7646 9.9424,-2.5614 14.8305,-3.5493 29.999,-5.6561 45.1924,-7.1214 14.1954,-1.3671 28.4225,-2.173 42.6421,-2.5838 2.7268,-0.079 5.4776,-0.138 8.2479,-0.1742 15.6495,-0.2053 31.9387,0.4391 47.9717,2.0406 11.7568,1.1758 23.3762,2.8557 34.4346,5.1842 5.2295,1.1011 10.3243,2.385 15.3071,3.841 0,0 0,0 0,0 7.378,2.1591 14.542,4.6689 21.4167,7.664 6.8746,2.9952 13.4608,6.4694 19.705,10.6282 5.2376,3.488 10.2084,7.4577 14.5164,12.2054 1.0549,1.1626 2.0694,2.3745 3.0332,3.6355 0.811,1.0287 1.8341,2.3378 2.8367,3.7054 1.0026,1.3677 1.9819,2.7954 2.8134,3.9833 0.8316,1.1879 1.5238,2.1338 2.027,2.4669 0.5032,0.3332 0.8391,0.045 0.8029,-1.2313 -0.2692,-1.3127 -0.791,-2.7414 -1.4565,-4.1451 C 2394.9643,-1737.1752 2394.1561,-1738.553 2393.3545,-1739.8138 Z"
           id="path61-3"
           inkscape:connector-curvature="0"
           sodipodi:nodetypes="czc" />
      </g>
      <g
         transform="translate(-8.3098794,0)"
         id="g518">
        <path
           sodipodi:nodetypes="cc"
           inkscape:connector-curvature="0"
           id="path962-4"
           d="m 2235.8625,-1720.7386 -316.5334,126.1315"
           style="fill:none;stroke:#000000;stroke-width:1px;stroke-linecap:butt;stroke-linejoin:miter;stroke-opacity:1" />
        <path
           sodipodi:nodetypes="cc"
           inkscape:connector-curvature="0"
           id="path964-5"
           d="m 2235.8625,-1720.7386 -0.8954,-297.283"
           style="fill:none;stroke:#000000;stroke-width:1px;stroke-linecap:butt;stroke-linejoin:miter;stroke-opacity:1" />
        <path
           sodipodi:nodetypes="cc"
           inkscape:connector-curvature="0"
           id="path966-1"
           d="m 2235.8625,-1720.7386 279.5633,120.1998"
           style="fill:none;stroke:#000000;stroke-width:1px;stroke-linecap:butt;stroke-linejoin:miter;stroke-opacity:1" />
        <text
           sodipodi:linespacing="125%"
           id="text1158-4"
           y="-1618.6924"
           x="2507.9136"
           style="font-size:15px;font-style:normal;font-variant:normal;font-weight:500;font-stretch:normal;text-align:start;line-height:125%;letter-spacing:0px;word-spacing:0px;writing-mode:lr-tb;text-anchor:start;fill:#000000;fill-opacity:1;stroke:none;font-family:CMU Serif;-inkscape-font-specification:CMU Serif Medium"
           xml:space="preserve"><tspan
             y="-1618.6924"
             x="2507.9136"
             id="tspan1160-4"
             sodipodi:role="line">y</tspan></text>
        <text
           sodipodi:linespacing="125%"
           id="text1162-0"
           y="-1996.2976"
           x="2245.0063"
           style="font-size:15px;font-style:normal;font-variant:normal;font-weight:500;font-stretch:normal;text-align:start;line-height:125%;letter-spacing:0px;word-spacing:0px;writing-mode:lr-tb;text-anchor:start;fill:#000000;fill-opacity:1;stroke:none;font-family:CMU Serif;-inkscape-font-specification:CMU Serif Medium"
           xml:space="preserve"><tspan
             y="-1996.2976"
             x="2245.0063"
             id="tspan1164-9"
             sodipodi:role="line">z</tspan></text>
        <text
           sodipodi:linespacing="125%"
           id="text1166-7"
           y="-1577.5968"
           x="1938.9106"
           style="font-size:15px;font-style:normal;font-variant:normal;font-weight:500;font-stretch:normal;text-align:start;line-height:125%;letter-spacing:0px;word-spacing:0px;writing-mode:lr-tb;text-anchor:start;fill:#000000;fill-opacity:1;stroke:none;font-family:CMU Serif;-inkscape-font-specification:CMU Serif Medium"
           xml:space="preserve"><tspan
             y="-1577.5968"
             x="1938.9106"
             id="tspan1168-1"
             sodipodi:role="line">x</tspan></text>
        <text
           sodipodi:linespacing="125%"
           id="text1170-6"
           y="-1695.3203"
           x="2225.6143"
           style="font-size:15px;font-style:normal;font-variant:normal;font-weight:500;font-stretch:normal;text-align:start;line-height:125%;letter-spacing:0px;word-spacing:0px;writing-mode:lr-tb;text-anchor:start;fill:#000000;fill-opacity:1;stroke:none;font-family:CMU Serif;-inkscape-font-specification:CMU Serif Medium"
           xml:space="preserve"><tspan
             y="-1695.3203"
             x="2225.6143"
             id="tspan1172-0"
             sodipodi:role="line">0</tspan></text>
      </g>
      <g
         style="filter:url(#filter1631)"
         transform="matrix(0.35985081,0,0,0.35985081,1425.5269,-1101.8372)"
         id="g559">
        <path
           style="fill:#000000;stroke:none"
           d="m 2060.1513,-1697.5187 c 5.955,35.1857 22.4007,68.549 47.3845,93.9698 0,0 0,0 10e-5,0 15.5679,15.8322 34.2662,28.5626 54.7143,37.2023 0,0 0,0 0,0 21.6796,9.1568 45.2429,13.6574 68.7472,13.572 0,0 0,0 0,0 3.1999,-0.011 6.3994,-0.1177 9.5928,-0.3185 20.1738,-1.2686 40.1105,-6.2322 58.4159,-14.8033 20.0768,-9.4041 38.1208,-23.0219 52.9307,-39.5215 0,0 1e-4,0 1e-4,0 14.683,-16.3577 26.2337,-35.513 33.9273,-56.1158 7.05,-18.8762 10.8504,-38.9952 10.9204,-59.1485 0.01,-1.8786 -0.018,-3.7575 -0.075,-5.6357 0,0 0,0 0,0 -0.6343,-20.9526 -5.1872,-41.7681 -13.26,-61.1151 -8.0728,-19.3471 -19.6691,-37.2244 -34.3938,-52.2359 0,0 0,0 0,0 -14.3696,-14.6422 -31.5563,-26.5482 -50.3999,-34.7568 0,0 0,0 0,0 -18.7144,-8.1494 -39.0101,-12.5974 -59.4016,-13.1741 -0.9626,-0.027 -1.9254,-0.046 -2.8882,-0.056 -22.2852,-0.2355 -44.5122,4.1169 -65.2243,12.1598 -20.8121,8.0788 -40.163,19.8685 -56.8103,34.6873 0,0 -1e-4,0 -1e-4,0 -16.5447,14.7246 -30.4172,32.5176 -40.0498,52.4301 0,0 0,0 0,0 -7.376,15.2515 -12.1558,31.7417 -14.0159,48.5334 -0.9651,5.7492 -1.0512,10.054 -0.8491,12.8418 0.202,2.7877 0.6914,4.0713 1.1524,3.9348 0.461,-0.1365 0.8967,-1.6852 1.2462,-4.5616 0.3496,-2.8763 0.6152,-7.0776 0.95,-12.5969 1.9116,-16.2777 6.6163,-32.2547 13.7979,-47.0327 0,0 0,0 0,0 9.5073,-19.57 23.2111,-37.0644 39.5376,-51.5435 0,0 0,0 0,-10e-5 16.4336,-14.5715 35.5317,-26.1532 56.0479,-34.0712 20.4172,-7.8778 42.2969,-12.1214 64.1774,-11.8429 0.409,0.01 0.8179,0.012 1.2268,0.02 20.5674,0.4165 41.0648,4.8453 59.8854,13.0916 0,0 1e-4,0 1e-4,10e-5 18.4615,8.0871 35.2966,19.8043 49.3535,34.1834 0,0 0,0 0,0 14.4043,14.7272 25.7414,32.2832 33.6275,51.2715 7.8862,18.9882 12.325,39.4075 12.9267,59.9301 0,0 0,0 0,0 0.016,0.5354 0.029,1.0709 0.04,1.6064 0.4051,20.639 -3.1694,41.8565 -10.5644,61.9468 -7.4042,20.1101 -18.6276,39.1048 -33.0098,55.3472 0,10e-5 0,10e-5 0,10e-5 -14.5114,16.3874 -32.2789,29.9339 -51.84,39.2128 -18.6556,8.8535 -38.8952,13.733 -58.865,14.8149 -2.7086,0.1467 -5.4126,0.2227 -8.1088,0.2291 -23.691,0.055 -46.7832,-4.6605 -67.7252,-13.6882 -20.1628,-8.6892 -38.3383,-21.3283 -53.5042,-36.9796 -10.9237,-11.2676 -20.2025,-24.1296 -27.6884,-38.1751 -7.4858,-14.0456 -13.1828,-29.2799 -16.7844,-45.3206 -0.8403,-3.6529 -1.8197,-8.2999 -2.6443,-13.0485 -0.8246,-4.7486 -1.4917,-9.5966 -1.9929,-13.5976 -0.5012,-4.001 -0.855,-7.1539 -1.2232,-8.4909 -0.1841,-0.6685 -0.3729,-0.8828 -0.5695,-0.5194 -0.1966,0.3633 -0.4025,1.3045 -0.5821,2.9486 -0.1483,3.6009 -0.036,7.7052 0.3033,11.9067 C 2058.9262,-1705.8266 2059.494,-1701.5296 2060.1513,-1697.5187 Z"
           id="path561"
           inkscape:connector-curvature="0"
           sodipodi:nodetypes="zzzzz"
           inkscape:path-effect="#path-effect1088-4"
           inkscape:original-d="m 2060.0875,-1725.059 c 0,-93.0243 88.4367,-163.8745 176.2523,-162.6766 87.8157,1.198 156.6401,71.5332 159.1762,159.4521 2.5361,87.9189 -66.1931,174.2578 -164.5186,174.2578 C 2132.672,-1554.0257 2060.0875,-1632.0347 2060.0875,-1725.059 Z" />
        <path
           style="fill:#000000;stroke:none"
           d="m 2263.8572,-1558.525 c 14.0544,-8.215 26.7918,-18.6601 36.9988,-31.3118 11.0763,-13.7497 19.0313,-29.8639 23.8065,-46.7947 0,0 0,0 0,0 0.4588,-1.6266 0.8896,-3.2601 1.293,-4.8997 3.5884,-14.5837 5.2409,-29.6027 5.3707,-44.5989 0.1319,-15.0201 -1.2366,-30.0554 -4.0167,-44.8199 -10e-5,0 -10e-5,0 -10e-5,0 -0.9951,-5.2802 -2.2689,-10.498 -3.7854,-15.6432 -3.2414,-10.9981 -7.3915,-21.7305 -12.1597,-32.1452 0,0 0,0 0,0 -8.2573,-18.0516 -18.6367,-35.2761 -31.6812,-50.3538 -2.6907,-3.1125 -5.5026,-6.1322 -8.4344,-9.0329 -11.6367,-11.5134 -24.9689,-21.3455 -39.8231,-28.1868 0,0 0,0 0,-10e-5 -9.4797,-4.3608 -19.5372,-7.4509 -29.8213,-9.0485 -8.7131,-1.3519 -17.5614,-1.6267 -26.3119,-0.925 -2.4596,-0.1302 -4.2488,0.1477 -5.3788,0.5533 -1.13,0.4056 -1.6057,0.9398 -1.4922,1.3903 0.1135,0.4504 0.8125,0.8184 2.041,0.9435 1.2285,0.1252 2.9835,0.01 5.2678,-0.472 8.4825,-0.6215 17.0411,-0.3063 25.4488,1.0396 10.0337,1.604 19.8457,4.6709 29.0881,8.9734 0,0 0,0 0,0 14.2901,6.646 27.1433,16.1779 38.4132,27.3376 3.0402,3.0104 5.9511,6.1532 8.7318,9.3975 12.7704,14.9061 22.9091,31.9384 30.9929,49.7782 0,0 0,0 10e-5,0 4.4382,9.8071 8.3253,19.8605 11.4155,30.1124 1.6549,5.4903 3.0893,11.1309 4.2153,16.8974 2.8036,14.3384 4.4631,29.2887 4.5699,44.188 0.053,7.6264 -0.2994,15.2435 -1.1185,22.7197 -0.819,7.4761 -2.1052,14.8107 -3.8781,21.879 -0.3604,1.4366 -0.743,2.8617 -1.1477,4.2751 0,0 0,0 0,0 -2.452,8.5643 -5.7408,16.6901 -9.7576,24.2945 -4.0167,7.6045 -8.7595,14.6913 -14.2152,21.2087 -4.5917,5.4933 -9.6824,10.5572 -15.2098,15.2536 -5.5274,4.6964 -11.4925,9.0265 -17.8734,13.0214 -1.3209,0.8502 -2.9841,1.9465 -4.6736,3.067 -1.6895,1.1204 -3.4055,2.2648 -4.7959,3.2619 -1.3903,0.9972 -2.4535,1.8506 -2.8122,2.4148 -0.3586,0.5641 -0.01,0.8469 1.4167,0.6424 C 2257.4604,-1555.0012 2260.8816,-1556.8351 2263.8572,-1558.525 Z"
           id="path563"
           inkscape:connector-curvature="0"
           sodipodi:nodetypes="csc"
           inkscape:path-effect="#path-effect1110-5"
           inkscape:original-d="m 2168.3581,-1874.8192 c 92.9965,-11.5258 147.3405,88.8604 157.7301,144.0989 9.9756,53.0367 7.4975,138.4286 -73.5016,175.4964" />
        <path
           sodipodi:nodetypes="csc"
           inkscape:connector-curvature="0"
           id="path565"
           d="m 2170.2514,-1570.2383 c -5.7649,-3.7052 -11.1408,-7.9862 -15.8748,-12.9152 0,0 0,0 0,0 -7.3833,-7.6681 -13.1401,-16.9113 -17.2362,-26.8298 0,0 0,0 0,0 -4.9242,-11.9146 -7.6092,-24.7248 -9.222,-37.6379 0,0 0,0 0,0 -0.6649,-5.3352 -1.1483,-10.6933 -1.4911,-16.067 -0.7416,-11.6236 -0.6905,-23.3234 -0.2674,-35.0003 0.8281,-22.9749 7.4032,-45.5092 16.7133,-66.6088 0,0 0,0 0,0 0.6277,-1.4208 1.269,-2.836 1.9237,-4.2452 4.979,-10.7162 10.9291,-20.993 17.7261,-30.6379 6.797,-9.645 14.4389,-18.6582 22.8284,-26.9009 0,0 0,0 0,0 8.8311,-8.6768 18.5014,-16.4686 28.9449,-23.026 0,0 0,0 0,0 0.1672,-0.105 0.3347,-0.2097 0.5024,-0.3141 10.1542,-6.3215 21.1292,-11.3514 32.6296,-14.5996 0,0 0,0 0,0 12.0083,-3.3946 24.5906,-4.8184 37.0871,-4.1767 11.4939,0.5873 22.895,2.9089 33.8729,6.5622 2.2668,1.0985 4.0018,1.6718 5.2171,1.8495 1.2152,0.1776 1.9074,-0.04 2.0258,-0.4901 0.1185,-0.4495 -0.3398,-1.1314 -1.4414,-1.837 -1.1015,-0.7056 -2.8499,-1.4358 -5.2783,-1.9227 -11.0625,-3.7154 -22.5785,-6.1006 -34.2324,-6.7583 -12.7816,-0.718 -25.6629,0.6745 -37.9828,4.0929 0,0 0,0 0,0 -11.5651,3.2108 -22.6048,8.1633 -32.833,14.3996 -0.3739,0.228 -0.7468,0.4576 -1.1187,0.6886 0,0 0,0 0,0 -10.6932,6.6435 -20.5884,14.5346 -29.6087,23.3263 0,0 0,0 0,0 -8.3585,8.1468 -15.9916,17.0383 -22.8032,26.5455 -6.8117,9.5073 -12.7998,19.6305 -17.8433,30.1905 -0.9248,1.9364 -1.8251,3.897 -2.6993,5.8795 -4.6034,10.4175 -8.5451,21.5135 -11.3745,32.9497 -2.8293,11.4362 -4.5388,23.2077 -4.8096,34.9434 -0.2755,12.1313 -0.1756,24.1714 0.5813,35.8058 0.3438,5.2844 0.792,10.4875 1.3807,15.6287 0,0 0,0 0,0 1.5188,13.287 4.0118,26.2329 8.8047,38.484 4.0014,10.2202 9.7459,19.8709 17.5003,28.0547 3.9379,4.147 8.3474,7.8819 13.134,11.2087 1.3771,0.9332 3.1771,2.0319 5.0594,3.0348 1.8823,1.0029 3.8451,1.91 5.5082,2.5414 1.6631,0.6314 3.0233,0.992 3.7024,0.9454 0.679,-0.047 0.6726,-0.4923 -0.3438,-1.5288 C 2176.4683,-1566.4455 2173.105,-1568.3537 2170.2514,-1570.2383 Z"
           style="fill:#000000;stroke:none"
           inkscape:path-effect="#path-effect1118-9"
           inkscape:original-d="m 2325.4538,-1860.8285 c -112.7387,-45.866 -197.4584,78.4517 -200.3934,162.1014 -2.7481,78.3228 13.099,114.4153 54.1717,136.3707" />
        <path
           style="fill:#000000;stroke:none"
           d="m 2389.7133,-1715.3968 c -1.3106,2.2202 -2.825,4.3404 -4.4933,6.3368 0,0 0,0 0,0 -4.0128,4.8008 -8.9136,8.9038 -14.1938,12.4671 0,0 0,0 0,0 -12.383,8.3575 -26.6573,13.7818 -41.1774,18.0358 0,0 0,0 0,0 -5.1968,1.5196 -10.4425,2.8762 -15.7248,4.0987 -11.1442,2.5791 -22.4886,4.3717 -33.8814,5.6565 -15.9405,1.7962 -31.9886,2.5881 -48.0274,2.5167 0,0 0,0 0,0 -2.2866,-0.01 -4.5733,-0.036 -6.8599,-0.076 -14.7261,-0.2598 -29.4278,-1.608 -44.0274,-3.5531 -14.9406,-1.9923 -29.7756,-4.6029 -44.4211,-7.9096 -3.5159,-0.7939 -7.0176,-1.6468 -10.5028,-2.5644 0,0 0,0 0,0 -15.5932,-4.1244 -31.0685,-9.24 -44.3391,-18.1139 0,0 0,0 0,0 -5.193,-3.4764 -10.0145,-7.5625 -13.5862,-12.6081 0,0 0,0 0,0 -2.0604,-2.9062 -3.6605,-6.1652 -4.6237,-9.5977 -0.2258,-2.0102 -0.4863,-3.4142 -0.8544,-4.3412 -0.3681,-0.9269 -0.8408,-1.3691 -1.2992,-1.2994 -0.4584,0.07 -0.9008,0.667 -1.0393,1.7876 -0.1386,1.1207 0.037,2.7776 0.903,4.7117 1.0229,3.6394 2.6933,7.0804 4.8493,10.1527 0,0 0,0 0,0 3.7976,5.3998 8.8159,9.7365 14.1714,13.3446 0,0 0,0 1e-4,0 13.6272,9.1915 29.3579,14.5318 45.0589,18.7463 0,0 0,0 0,0 3.3288,0.8958 6.6718,1.733 10.0268,2.5163 14.9461,3.4895 30.072,6.2523 45.2835,8.3534 14.2121,1.9649 28.5365,3.3546 42.902,3.7117 2.7548,0.068 5.5345,0.1053 8.3339,0.1091 15.829,0.021 32.2608,-1.1374 48.3564,-3.2484 11.8022,-1.5466 23.4492,-3.6012 34.5395,-6.1755 5.2446,-1.2175 10.3759,-2.5056 15.4205,-3.9038 0,0 0,0 0,0 7.4661,-2.0663 14.7891,-4.3606 21.8815,-7.1861 7.0925,-2.8254 13.9606,-6.1806 20.4547,-10.4006 5.4595,-3.5481 10.6422,-7.7751 14.9908,-12.9489 1.0678,-1.2703 2.0798,-2.6006 3.0228,-3.9876 0.7619,-1.1555 1.6293,-2.685 2.3555,-4.3009 0.7262,-1.616 1.3073,-3.3154 1.6297,-4.751 0.3223,-1.4355 0.394,-2.6008 0.2082,-3.1621 -0.1858,-0.5613 -0.6088,-0.5122 -1.3906,0.3711 -0.6277,1.0554 -1.244,2.2748 -1.8956,3.5229 C 2391.1127,-1717.8383 2390.4254,-1716.5614 2389.7133,-1715.3968 Z"
           id="path567"
           inkscape:connector-curvature="0"
           sodipodi:nodetypes="czc"
           inkscape:path-effect="#path-effect1096-2"
           inkscape:original-d="m 2062.1822,-1726.3734 c 2.0056,46.0085 111.2893,60.8998 170.0241,61.3214 58.7348,0.4216 148.1241,-13.6323 163.5424,-57.9421" />
        <path
           sodipodi:nodetypes="czc"
           inkscape:connector-curvature="0"
           id="path569"
           d="m 2393.3545,-1739.8138 c -1.5478,-2.3594 -3.2857,-4.5817 -5.1669,-6.6534 0,0 0,0 0,0 -4.5079,-4.965 -9.7592,-9.1242 -15.3134,-12.6873 0,0 0,0 0,0 -12.9953,-8.3355 -27.5506,-13.7711 -42.2806,-17.843 0,0 0,0 0,0 -5.2751,-1.4612 -10.5951,-2.7417 -15.9486,-3.8547 -11.2944,-2.3483 -22.7005,-4.1403 -34.1469,-5.4947 -16.0162,-1.8965 -32.1573,-2.9319 -48.3006,-2.7723 0,0 -1e-4,0 -1e-4,0 -2.3001,0.023 -4.5999,0.068 -6.8987,0.1358 -14.8054,0.4361 -29.5997,1.3172 -44.3399,2.8137 -15.0845,1.5295 -30.1642,3.7113 -44.9324,7.3009 -3.5453,0.8617 -7.0759,1.7856 -10.5888,2.7775 0,0 0,0 0,0 -15.6842,4.41 -31.4142,10.0494 -44.8325,19.5336 0,0 0,0 0,0 -5.2733,3.7228 -10.1715,8.1711 -13.7744,13.6017 0,0 0,0 0,0 -2.089,3.1528 -3.6546,6.6602 -4.5373,10.3198 -0.8112,1.9737 -0.9175,3.5786 -0.736,4.6101 0.1814,1.0316 0.6433,1.5067 1.1059,1.479 0.4626,-0.028 0.9279,-0.5426 1.2821,-1.4867 0.3543,-0.9441 0.5968,-2.3114 0.7611,-4.2097 0.839,-3.283 2.286,-6.4448 4.1885,-9.2988 0,0 0,0 0,0 3.3769,-5.0763 8.0784,-9.274 13.1891,-12.8652 0,0 0,0 0,0 13.0618,-9.1667 28.5369,-14.5815 44.1127,-18.9012 0,0 0,0 0,0 3.2984,-0.9125 6.6134,-1.7646 9.9424,-2.5614 14.8305,-3.5493 29.999,-5.6561 45.1924,-7.1214 14.1954,-1.3671 28.4225,-2.173 42.6421,-2.5838 2.7268,-0.079 5.4776,-0.138 8.2479,-0.1742 15.6495,-0.2053 31.9387,0.4391 47.9717,2.0406 11.7568,1.1758 23.3762,2.8557 34.4346,5.1842 5.2295,1.1011 10.3243,2.385 15.3071,3.841 0,0 0,0 0,0 7.378,2.1591 14.542,4.6689 21.4167,7.664 6.8746,2.9952 13.4608,6.4694 19.705,10.6282 5.2376,3.488 10.2084,7.4577 14.5164,12.2054 1.0549,1.1626 2.0694,2.3745 3.0332,3.6355 0.811,1.0287 1.8341,2.3378 2.8367,3.7054 1.0026,1.3677 1.9819,2.7954 2.8134,3.9833 0.8316,1.1879 1.5238,2.1338 2.027,2.4669 0.5032,0.3332 0.8391,0.045 0.8029,-1.2313 -0.2692,-1.3127 -0.791,-2.7414 -1.4565,-4.1451 C 2394.9643,-1737.1752 2394.1561,-1738.553 2393.3545,-1739.8138 Z"
           style="opacity:0.27999998;fill:#000000;stroke:none"
           inkscape:path-effect="#path-effect1126-3"
           inkscape:original-d="m 2062.1822,-1726.5646 c 2.0056,-46.0085 111.2893,-60.8997 170.0241,-61.3214 58.7348,-0.4216 148.1241,13.6323 163.5424,57.9422" />
      </g>
      <g
         transform="matrix(0.73059594,0,0,0.73059594,600.13913,-463.70343)"
         id="g1655">
        <path
           style="fill:#000000;stroke:none"
           d="m 2060.1513,-1697.5187 c 5.955,35.1857 22.4007,68.549 47.3845,93.9698 0,0 0,0 10e-5,0 15.5679,15.8322 34.2662,28.5626 54.7143,37.2023 0,0 0,0 0,0 21.6796,9.1568 45.2429,13.6574 68.7472,13.572 0,0 0,0 0,0 3.1999,-0.011 6.3994,-0.1177 9.5928,-0.3185 20.1738,-1.2686 40.1105,-6.2322 58.4159,-14.8033 20.0768,-9.4041 38.1208,-23.0219 52.9307,-39.5215 0,0 1e-4,0 1e-4,0 14.683,-16.3577 26.2337,-35.513 33.9273,-56.1158 7.05,-18.8762 10.8504,-38.9952 10.9204,-59.1485 0.01,-1.8786 -0.018,-3.7575 -0.075,-5.6357 0,0 0,0 0,0 -0.6343,-20.9526 -5.1872,-41.7681 -13.26,-61.1151 -8.0728,-19.3471 -19.6691,-37.2244 -34.3938,-52.2359 0,0 0,0 0,0 -14.3696,-14.6422 -31.5563,-26.5482 -50.3999,-34.7568 0,0 0,0 0,0 -18.7144,-8.1494 -39.0101,-12.5974 -59.4016,-13.1741 -0.9626,-0.027 -1.9254,-0.046 -2.8882,-0.056 -22.2852,-0.2355 -44.5122,4.1169 -65.2243,12.1598 -20.8121,8.0788 -40.163,19.8685 -56.8103,34.6873 0,0 -1e-4,0 -1e-4,0 -16.5447,14.7246 -30.4172,32.5176 -40.0498,52.4301 0,0 0,0 0,0 -7.376,15.2515 -12.1558,31.7417 -14.0159,48.5334 -0.9651,5.7492 -1.0512,10.054 -0.8491,12.8418 0.202,2.7877 0.6914,4.0713 1.1524,3.9348 0.461,-0.1365 0.8967,-1.6852 1.2462,-4.5616 0.3496,-2.8763 0.6152,-7.0776 0.95,-12.5969 1.9116,-16.2777 6.6163,-32.2547 13.7979,-47.0327 0,0 0,0 0,0 9.5073,-19.57 23.2111,-37.0644 39.5376,-51.5435 0,0 0,0 0,-10e-5 16.4336,-14.5715 35.5317,-26.1532 56.0479,-34.0712 20.4172,-7.8778 42.2969,-12.1214 64.1774,-11.8429 0.409,0.01 0.8179,0.012 1.2268,0.02 20.5674,0.4165 41.0648,4.8453 59.8854,13.0916 0,0 1e-4,0 1e-4,10e-5 18.4615,8.0871 35.2966,19.8043 49.3535,34.1834 0,0 0,0 0,0 14.4043,14.7272 25.7414,32.2832 33.6275,51.2715 7.8862,18.9882 12.325,39.4075 12.9267,59.9301 0,0 0,0 0,0 0.016,0.5354 0.029,1.0709 0.04,1.6064 0.4051,20.639 -3.1694,41.8565 -10.5644,61.9468 -7.4042,20.1101 -18.6276,39.1048 -33.0098,55.3472 0,10e-5 0,10e-5 0,10e-5 -14.5114,16.3874 -32.2789,29.9339 -51.84,39.2128 -18.6556,8.8535 -38.8952,13.733 -58.865,14.8149 -2.7086,0.1467 -5.4126,0.2227 -8.1088,0.2291 -23.691,0.055 -46.7832,-4.6605 -67.7252,-13.6882 -20.1628,-8.6892 -38.3383,-21.3283 -53.5042,-36.9796 -10.9237,-11.2676 -20.2025,-24.1296 -27.6884,-38.1751 -7.4858,-14.0456 -13.1828,-29.2799 -16.7844,-45.3206 -0.8403,-3.6529 -1.8197,-8.2999 -2.6443,-13.0485 -0.8246,-4.7486 -1.4917,-9.5966 -1.9929,-13.5976 -0.5012,-4.001 -0.855,-7.1539 -1.2232,-8.4909 -0.1841,-0.6685 -0.3729,-0.8828 -0.5695,-0.5194 -0.1966,0.3633 -0.4025,1.3045 -0.5821,2.9486 -0.1483,3.6009 -0.036,7.7052 0.3033,11.9067 C 2058.9262,-1705.8266 2059.494,-1701.5296 2060.1513,-1697.5187 Z"
           id="path1657"
           inkscape:connector-curvature="0"
           sodipodi:nodetypes="zzzzz"
           inkscape:path-effect="#path-effect1088-4"
           inkscape:original-d="m 2060.0875,-1725.059 c 0,-93.0243 88.4367,-163.8745 176.2523,-162.6766 87.8157,1.198 156.6401,71.5332 159.1762,159.4521 2.5361,87.9189 -66.1931,174.2578 -164.5186,174.2578 C 2132.672,-1554.0257 2060.0875,-1632.0347 2060.0875,-1725.059 Z" />
        <path
           style="fill:#000000;stroke:none"
           d="m 2263.8572,-1558.525 c 14.0544,-8.215 26.7918,-18.6601 36.9988,-31.3118 11.0763,-13.7497 19.0313,-29.8639 23.8065,-46.7947 0,0 0,0 0,0 0.4588,-1.6266 0.8896,-3.2601 1.293,-4.8997 3.5884,-14.5837 5.2409,-29.6027 5.3707,-44.5989 0.1319,-15.0201 -1.2366,-30.0554 -4.0167,-44.8199 -10e-5,0 -10e-5,0 -10e-5,0 -0.9951,-5.2802 -2.2689,-10.498 -3.7854,-15.6432 -3.2414,-10.9981 -7.3915,-21.7305 -12.1597,-32.1452 0,0 0,0 0,0 -8.2573,-18.0516 -18.6367,-35.2761 -31.6812,-50.3538 -2.6907,-3.1125 -5.5026,-6.1322 -8.4344,-9.0329 -11.6367,-11.5134 -24.9689,-21.3455 -39.8231,-28.1868 0,0 0,0 0,-10e-5 -9.4797,-4.3608 -19.5372,-7.4509 -29.8213,-9.0485 -8.7131,-1.3519 -17.5614,-1.6267 -26.3119,-0.925 -2.4596,-0.1302 -4.2488,0.1477 -5.3788,0.5533 -1.13,0.4056 -1.6057,0.9398 -1.4922,1.3903 0.1135,0.4504 0.8125,0.8184 2.041,0.9435 1.2285,0.1252 2.9835,0.01 5.2678,-0.472 8.4825,-0.6215 17.0411,-0.3063 25.4488,1.0396 10.0337,1.604 19.8457,4.6709 29.0881,8.9734 0,0 0,0 0,0 14.2901,6.646 27.1433,16.1779 38.4132,27.3376 3.0402,3.0104 5.9511,6.1532 8.7318,9.3975 12.7704,14.9061 22.9091,31.9384 30.9929,49.7782 0,0 0,0 10e-5,0 4.4382,9.8071 8.3253,19.8605 11.4155,30.1124 1.6549,5.4903 3.0893,11.1309 4.2153,16.8974 2.8036,14.3384 4.4631,29.2887 4.5699,44.188 0.053,7.6264 -0.2994,15.2435 -1.1185,22.7197 -0.819,7.4761 -2.1052,14.8107 -3.8781,21.879 -0.3604,1.4366 -0.743,2.8617 -1.1477,4.2751 0,0 0,0 0,0 -2.452,8.5643 -5.7408,16.6901 -9.7576,24.2945 -4.0167,7.6045 -8.7595,14.6913 -14.2152,21.2087 -4.5917,5.4933 -9.6824,10.5572 -15.2098,15.2536 -5.5274,4.6964 -11.4925,9.0265 -17.8734,13.0214 -1.3209,0.8502 -2.9841,1.9465 -4.6736,3.067 -1.6895,1.1204 -3.4055,2.2648 -4.7959,3.2619 -1.3903,0.9972 -2.4535,1.8506 -2.8122,2.4148 -0.3586,0.5641 -0.01,0.8469 1.4167,0.6424 C 2257.4604,-1555.0012 2260.8816,-1556.8351 2263.8572,-1558.525 Z"
           id="path1659"
           inkscape:connector-curvature="0"
           sodipodi:nodetypes="csc"
           inkscape:path-effect="#path-effect1110-5"
           inkscape:original-d="m 2168.3581,-1874.8192 c 92.9965,-11.5258 147.3405,88.8604 157.7301,144.0989 9.9756,53.0367 7.4975,138.4286 -73.5016,175.4964" />
        <path
           sodipodi:nodetypes="csc"
           inkscape:connector-curvature="0"
           id="path1661"
           d="m 2170.2514,-1570.2383 c -5.7649,-3.7052 -11.1408,-7.9862 -15.8748,-12.9152 0,0 0,0 0,0 -7.3833,-7.6681 -13.1401,-16.9113 -17.2362,-26.8298 0,0 0,0 0,0 -4.9242,-11.9146 -7.6092,-24.7248 -9.222,-37.6379 0,0 0,0 0,0 -0.6649,-5.3352 -1.1483,-10.6933 -1.4911,-16.067 -0.7416,-11.6236 -0.6905,-23.3234 -0.2674,-35.0003 0.8281,-22.9749 7.4032,-45.5092 16.7133,-66.6088 0,0 0,0 0,0 0.6277,-1.4208 1.269,-2.836 1.9237,-4.2452 4.979,-10.7162 10.9291,-20.993 17.7261,-30.6379 6.797,-9.645 14.4389,-18.6582 22.8284,-26.9009 0,0 0,0 0,0 8.8311,-8.6768 18.5014,-16.4686 28.9449,-23.026 0,0 0,0 0,0 0.1672,-0.105 0.3347,-0.2097 0.5024,-0.3141 10.1542,-6.3215 21.1292,-11.3514 32.6296,-14.5996 0,0 0,0 0,0 12.0083,-3.3946 24.5906,-4.8184 37.0871,-4.1767 11.4939,0.5873 22.895,2.9089 33.8729,6.5622 2.2668,1.0985 4.0018,1.6718 5.2171,1.8495 1.2152,0.1776 1.9074,-0.04 2.0258,-0.4901 0.1185,-0.4495 -0.3398,-1.1314 -1.4414,-1.837 -1.1015,-0.7056 -2.8499,-1.4358 -5.2783,-1.9227 -11.0625,-3.7154 -22.5785,-6.1006 -34.2324,-6.7583 -12.7816,-0.718 -25.6629,0.6745 -37.9828,4.0929 0,0 0,0 0,0 -11.5651,3.2108 -22.6048,8.1633 -32.833,14.3996 -0.3739,0.228 -0.7468,0.4576 -1.1187,0.6886 0,0 0,0 0,0 -10.6932,6.6435 -20.5884,14.5346 -29.6087,23.3263 0,0 0,0 0,0 -8.3585,8.1468 -15.9916,17.0383 -22.8032,26.5455 -6.8117,9.5073 -12.7998,19.6305 -17.8433,30.1905 -0.9248,1.9364 -1.8251,3.897 -2.6993,5.8795 -4.6034,10.4175 -8.5451,21.5135 -11.3745,32.9497 -2.8293,11.4362 -4.5388,23.2077 -4.8096,34.9434 -0.2755,12.1313 -0.1756,24.1714 0.5813,35.8058 0.3438,5.2844 0.792,10.4875 1.3807,15.6287 0,0 0,0 0,0 1.5188,13.287 4.0118,26.2329 8.8047,38.484 4.0014,10.2202 9.7459,19.8709 17.5003,28.0547 3.9379,4.147 8.3474,7.8819 13.134,11.2087 1.3771,0.9332 3.1771,2.0319 5.0594,3.0348 1.8823,1.0029 3.8451,1.91 5.5082,2.5414 1.6631,0.6314 3.0233,0.992 3.7024,0.9454 0.679,-0.047 0.6726,-0.4923 -0.3438,-1.5288 C 2176.4683,-1566.4455 2173.105,-1568.3537 2170.2514,-1570.2383 Z"
           style="fill:#000000;stroke:none"
           inkscape:path-effect="#path-effect1118-9"
           inkscape:original-d="m 2325.4538,-1860.8285 c -112.7387,-45.866 -197.4584,78.4517 -200.3934,162.1014 -2.7481,78.3228 13.099,114.4153 54.1717,136.3707" />
        <path
           style="fill:#000000;stroke:none"
           d="m 2389.7133,-1715.3968 c -1.3106,2.2202 -2.825,4.3404 -4.4933,6.3368 0,0 0,0 0,0 -4.0128,4.8008 -8.9136,8.9038 -14.1938,12.4671 0,0 0,0 0,0 -12.383,8.3575 -26.6573,13.7818 -41.1774,18.0358 0,0 0,0 0,0 -5.1968,1.5196 -10.4425,2.8762 -15.7248,4.0987 -11.1442,2.5791 -22.4886,4.3717 -33.8814,5.6565 -15.9405,1.7962 -31.9886,2.5881 -48.0274,2.5167 0,0 0,0 0,0 -2.2866,-0.01 -4.5733,-0.036 -6.8599,-0.076 -14.7261,-0.2598 -29.4278,-1.608 -44.0274,-3.5531 -14.9406,-1.9923 -29.7756,-4.6029 -44.4211,-7.9096 -3.5159,-0.7939 -7.0176,-1.6468 -10.5028,-2.5644 0,0 0,0 0,0 -15.5932,-4.1244 -31.0685,-9.24 -44.3391,-18.1139 0,0 0,0 0,0 -5.193,-3.4764 -10.0145,-7.5625 -13.5862,-12.6081 0,0 0,0 0,0 -2.0604,-2.9062 -3.6605,-6.1652 -4.6237,-9.5977 -0.2258,-2.0102 -0.4863,-3.4142 -0.8544,-4.3412 -0.3681,-0.9269 -0.8408,-1.3691 -1.2992,-1.2994 -0.4584,0.07 -0.9008,0.667 -1.0393,1.7876 -0.1386,1.1207 0.037,2.7776 0.903,4.7117 1.0229,3.6394 2.6933,7.0804 4.8493,10.1527 0,0 0,0 0,0 3.7976,5.3998 8.8159,9.7365 14.1714,13.3446 0,0 0,0 1e-4,0 13.6272,9.1915 29.3579,14.5318 45.0589,18.7463 0,0 0,0 0,0 3.3288,0.8958 6.6718,1.733 10.0268,2.5163 14.9461,3.4895 30.072,6.2523 45.2835,8.3534 14.2121,1.9649 28.5365,3.3546 42.902,3.7117 2.7548,0.068 5.5345,0.1053 8.3339,0.1091 15.829,0.021 32.2608,-1.1374 48.3564,-3.2484 11.8022,-1.5466 23.4492,-3.6012 34.5395,-6.1755 5.2446,-1.2175 10.3759,-2.5056 15.4205,-3.9038 0,0 0,0 0,0 7.4661,-2.0663 14.7891,-4.3606 21.8815,-7.1861 7.0925,-2.8254 13.9606,-6.1806 20.4547,-10.4006 5.4595,-3.5481 10.6422,-7.7751 14.9908,-12.9489 1.0678,-1.2703 2.0798,-2.6006 3.0228,-3.9876 0.7619,-1.1555 1.6293,-2.685 2.3555,-4.3009 0.7262,-1.616 1.3073,-3.3154 1.6297,-4.751 0.3223,-1.4355 0.394,-2.6008 0.2082,-3.1621 -0.1858,-0.5613 -0.6088,-0.5122 -1.3906,0.3711 -0.6277,1.0554 -1.244,2.2748 -1.8956,3.5229 C 2391.1127,-1717.8383 2390.4254,-1716.5614 2389.7133,-1715.3968 Z"
           id="path1663"
           inkscape:connector-curvature="0"
           sodipodi:nodetypes="czc"
           inkscape:path-effect="#path-effect1096-2"
           inkscape:original-d="m 2062.1822,-1726.3734 c 2.0056,46.0085 111.2893,60.8998 170.0241,61.3214 58.7348,0.4216 148.1241,-13.6323 163.5424,-57.9421" />
        <path
           sodipodi:nodetypes="czc"
           inkscape:connector-curvature="0"
           id="path1665"
           d="m 2393.3545,-1739.8138 c -1.5478,-2.3594 -3.2857,-4.5817 -5.1669,-6.6534 0,0 0,0 0,0 -4.5079,-4.965 -9.7592,-9.1242 -15.3134,-12.6873 0,0 0,0 0,0 -12.9953,-8.3355 -27.5506,-13.7711 -42.2806,-17.843 0,0 0,0 0,0 -5.2751,-1.4612 -10.5951,-2.7417 -15.9486,-3.8547 -11.2944,-2.3483 -22.7005,-4.1403 -34.1469,-5.4947 -16.0162,-1.8965 -32.1573,-2.9319 -48.3006,-2.7723 0,0 -1e-4,0 -1e-4,0 -2.3001,0.023 -4.5999,0.068 -6.8987,0.1358 -14.8054,0.4361 -29.5997,1.3172 -44.3399,2.8137 -15.0845,1.5295 -30.1642,3.7113 -44.9324,7.3009 -3.5453,0.8617 -7.0759,1.7856 -10.5888,2.7775 0,0 0,0 0,0 -15.6842,4.41 -31.4142,10.0494 -44.8325,19.5336 0,0 0,0 0,0 -5.2733,3.7228 -10.1715,8.1711 -13.7744,13.6017 0,0 0,0 0,0 -2.089,3.1528 -3.6546,6.6602 -4.5373,10.3198 -0.8112,1.9737 -0.9175,3.5786 -0.736,4.6101 0.1814,1.0316 0.6433,1.5067 1.1059,1.479 0.4626,-0.028 0.9279,-0.5426 1.2821,-1.4867 0.3543,-0.9441 0.5968,-2.3114 0.7611,-4.2097 0.839,-3.283 2.286,-6.4448 4.1885,-9.2988 0,0 0,0 0,0 3.3769,-5.0763 8.0784,-9.274 13.1891,-12.8652 0,0 0,0 0,0 13.0618,-9.1667 28.5369,-14.5815 44.1127,-18.9012 0,0 0,0 0,0 3.2984,-0.9125 6.6134,-1.7646 9.9424,-2.5614 14.8305,-3.5493 29.999,-5.6561 45.1924,-7.1214 14.1954,-1.3671 28.4225,-2.173 42.6421,-2.5838 2.7268,-0.079 5.4776,-0.138 8.2479,-0.1742 15.6495,-0.2053 31.9387,0.4391 47.9717,2.0406 11.7568,1.1758 23.3762,2.8557 34.4346,5.1842 5.2295,1.1011 10.3243,2.385 15.3071,3.841 0,0 0,0 0,0 7.378,2.1591 14.542,4.6689 21.4167,7.664 6.8746,2.9952 13.4608,6.4694 19.705,10.6282 5.2376,3.488 10.2084,7.4577 14.5164,12.2054 1.0549,1.1626 2.0694,2.3745 3.0332,3.6355 0.811,1.0287 1.8341,2.3378 2.8367,3.7054 1.0026,1.3677 1.9819,2.7954 2.8134,3.9833 0.8316,1.1879 1.5238,2.1338 2.027,2.4669 0.5032,0.3332 0.8391,0.045 0.8029,-1.2313 -0.2692,-1.3127 -0.791,-2.7414 -1.4565,-4.1451 C 2394.9643,-1737.1752 2394.1561,-1738.553 2393.3545,-1739.8138 Z"
           style="opacity:0.27999998;fill:#000000;stroke:none"
           inkscape:path-effect="#path-effect1126-3"
           inkscape:original-d="m 2062.1822,-1726.5646 c 2.0056,-46.0085 111.2893,-60.8997 170.0241,-61.3214 58.7348,-0.4216 148.1241,13.6323 163.5424,57.9422" />
      </g>
    </g>
  </g>
</svg>
