<?xml version="1.0" encoding="UTF-8" standalone="no"?>
<!-- Created with Inkscape (http://www.inkscape.org/) -->

<svg
   xmlns:dc="http://purl.org/dc/elements/1.1/"
   xmlns:cc="http://creativecommons.org/ns#"
   xmlns:rdf="http://www.w3.org/1999/02/22-rdf-syntax-ns#"
   xmlns:svg="http://www.w3.org/2000/svg"
   xmlns="http://www.w3.org/2000/svg"
   xmlns:sodipodi="http://sodipodi.sourceforge.net/DTD/sodipodi-0.dtd"
   xmlns:inkscape="http://www.inkscape.org/namespaces/inkscape"
   width="642.75867"
   height="726.96399"
   id="svg23777"
   version="1.1"
   inkscape:version="0.48+devel r"
   sodipodi:docname="monge.svg">
  <title
     id="title23785">Winter School -- Contact Topology</title>
  <defs
     id="defs23779">
    <inkscape:path-effect
       effect="construct_grid"
       id="path-effect23719"
       is_visible="true"
       nr_x="13"
       nr_y="11" />
    <inkscape:path-effect
       effect="envelope"
       id="path-effect23725"
       is_visible="true"
       yy="true"
       xx="true"
       bendpath1="m 840.4227,-2189.6867 c 160.6899,122.3808 597.3117,-247.5341 641.013,0"
       bendpath2="m 1481.4357,-2189.6867 c 46.1987,26.7911 -110.8576,167.238 0,254.3768"
       bendpath3="m 840.4227,-1935.3099 c 104.43224,-68.3775 200.5206,-52.0787 285.0549,-12.3534 107.451,50.4946 250.1919,61.5165 355.9581,12.3534"
       bendpath4="m 840.4227,-2189.6867 c -180.38703,47.1929 -84.99803,121.6431 0,254.3768"
       bendpath1-nodetypes="cc"
       bendpath2-nodetypes="cc"
       bendpath3-nodetypes="csc"
       bendpath4-nodetypes="cc" />
    <inkscape:path-effect
       nr_y="11"
       nr_x="13"
       is_visible="true"
       id="path-effect23723"
       effect="construct_grid" />
  </defs>
  <sodipodi:namedview
     id="base"
     pagecolor="#ffffff"
     bordercolor="#666666"
     borderopacity="1.0"
     inkscape:pageopacity="0.0"
     inkscape:pageshadow="2"
     inkscape:zoom="0.78651685"
     inkscape:cx="410.30792"
     inkscape:cy="480.43909"
     inkscape:document-units="px"
     inkscape:current-layer="layer1"
     showgrid="false"
     fit-margin-top="0"
     fit-margin-left="0"
     fit-margin-right="0"
     fit-margin-bottom="0" />
  <metadata
     id="metadata23782">
    <rdf:RDF>
      <cc:Work
         rdf:about="">
        <dc:format>image/svg+xml</dc:format>
        <dc:type
           rdf:resource="http://purl.org/dc/dcmitype/StillImage" />
        <dc:title>Winter School -- Contact Topology</dc:title>
        <dc:date>2013</dc:date>
        <dc:creator>
          <cc:Agent>
            <dc:title>Marek Kaluba</dc:title>
          </cc:Agent>
        </dc:creator>
        <dc:rights>
          <cc:Agent>
            <dc:title>Marek Kaluba</dc:title>
          </cc:Agent>
        </dc:rights>
      </cc:Work>
    </rdf:RDF>
  </metadata>
  <g
     inkscape:label="Layer 1"
     inkscape:groupmode="layer"
     id="layer1"
     transform="translate(35.307919,-489.26587)">
    <g
       transform="translate(-875.37753,2769.7792)"
       id="g23739">
      <path
         style="fill:none;stroke:#000000;stroke-width:0.92034137px;stroke-linecap:butt;stroke-linejoin:miter;stroke-opacity:1"
         d="m 840.80219,-2175.0398 0,579.9545"
         id="path3138"
         inkscape:connector-curvature="0"
         sodipodi:nodetypes="cc" />
      <path
         style="fill:none;stroke:#000000;stroke-width:1px;stroke-linecap:butt;stroke-linejoin:miter;stroke-opacity:1"
         d="m 835.16348,-1896.7482 288.20682,-288.2069"
         id="path3140"
         inkscape:connector-curvature="0"
         transform="translate(5.6387085,301.66294)" />
      <path
         sodipodi:nodetypes="cc"
         style="fill:none;stroke:#000000;stroke-width:1px;stroke-linecap:butt;stroke-linejoin:miter;stroke-opacity:1"
         d="m 835.16348,-1896.7482 642.02612,0"
         id="path3142"
         inkscape:connector-curvature="0"
         transform="translate(5.6387085,301.66294)" />
      <path
         inkscape:original-d="m 1191.5727,-1935.5799 35.115,-0.027 19.596,-19.5446"
         inkscape:path-effect="#path-effect23719;#path-effect23725"
         sodipodi:nodetypes="ccc"
         inkscape:connector-curvature="0"
         id="path22889"
         d="m 1219.8958,-1912.5778 c -14.5791,-3.3398 -28.9044,-7.3866 -42.8732,-12.0545 -18.563,-6.2019 -36.4968,-13.5047 -53.6769,-21.5913 -13.111,-6.1706 -26.3841,-11.5006 -39.8372,-15.6709 0,0 0,0 0,0 -7.7936,-2.4156 -15.6463,-4.4442 -23.5612,-6.0452 0,0 0,0 0,0 -10.8532,-2.195 -21.8269,-3.5742 -32.8619,-4.1076 -11.0351,-0.5335 -22.1308,-0.2203 -33.24556,0.8911 -0.54923,0.055 -1.0985,0.1117 -1.64779,0.1704 -14.04181,1.5016 -28.0827,4.2817 -42.05857,7.8359 -10e-6,0 -10e-6,0 -10e-6,0 -8.80907,2.2395 -17.58933,4.7868 -26.35284,7.4842 -3.94325,1.2132 -7.88277,2.4549 -11.82394,3.7065 -11.60236,3.684 -23.21076,7.4701 -35.00008,10.8571 -11.51223,3.3111 -23.21703,6.2507 -35.31959,8.3313 m 407.97208,-2.3706 c -19.7912,-2.487 -39.5628,-6.139 -59.1421,-10.8544 -17.6696,-4.2617 -35.1292,-9.3913 -52.3167,-15.1562 -14.0375,-4.8218 -28.4712,-8.9992 -43.277,-12.2744 0,0 0,0 0,0 -8.5663,-1.8964 -17.2653,-3.4919 -26.0866,-4.7553 0,0 0,0 -1e-4,0 -12.1073,-1.7357 -24.4406,-2.8056 -36.9107,-3.1966 -12.4702,-0.391 -25.0766,-0.1022 -37.73398,0.8112 -0.626,0.046 -1.25198,0.093 -1.87795,0.1417 -16.01428,1.2478 -32.07392,3.495 -48.00294,6.2883 -10.03867,1.7653 -20.05803,3.7231 -30.02139,5.7387 -4.47856,0.9093 -8.94194,1.8258 -13.39043,2.7346 -13.10903,2.6832 -26.11118,5.2072 -39.01332,7.2444 -5.53505,0.8658 -11.03039,1.6315 -16.49448,2.2778 m 418.59619,-9.7001 c -12.173,-0.6767 -24.441,-1.6699 -36.8057,-3.0201 -12.3648,-1.3503 -24.8258,-3.0579 -37.3769,-5.1234 -17.1471,-2.829 -34.3766,-6.3377 -51.6797,-10.3662 -14.6655,-3.742 -29.871,-6.9934 -45.5564,-9.5384 0,0 0,0 0,0 -9.0697,-1.4731 -18.3133,-2.7105 -27.7093,-3.6857 0,0 0,0 0,0 -12.9017,-1.3423 -26.0811,-2.1341 -39.4224,-2.3645 -13.3413,-0.2304 -26.84397,0.1013 -40.38343,0.95 -0.66987,0.043 -1.33964,0.087 -2.00928,0.1323 -17.13753,1.1625 -34.29531,3.1505 -51.19626,5.596 -10.65053,1.5489 -21.24942,3.2425 -31.71743,4.9795 -4.70346,0.7854 -9.37504,1.5738 -14.01068,2.3553 -12.02115,2.0336 -23.82914,3.9089 -35.33235,5.5262 m 419.88673,-23.6842 c -2.5087,-0.072 -5.0293,-0.1484 -7.5629,-0.2306 -13.2422,-0.4218 -26.6204,-0.9873 -40.2125,-1.8351 -13.5921,-0.8479 -27.3974,-1.979 -41.4585,-3.4556 -16.9359,-1.7842 -34.1417,-4.0803 -51.6558,-6.7918 -15.1087,-2.8618 -30.8346,-5.3416 -47.0915,-7.2488 -9.3975,-1.1035 -18.9889,-2.0156 -28.7437,-2.7104 0,0 -10e-5,0 -10e-5,0 -13.3971,-0.9587 -27.0908,-1.4442 -40.9452,-1.4356 -13.85438,0.01 -27.86906,0.5117 -41.88952,1.4887 -0.69377,0.049 -1.38734,0.1 -2.08067,0.1514 -17.74605,1.3235 -35.46183,3.4026 -52.79119,5.9818 -10e-6,0 -10e-6,0 -2e-5,0 -10.92029,1.6343 -21.74389,3.426 -32.35812,5.3152 -4.76862,0.8543 -9.48915,1.7225 -14.15413,2.5998 -4.5532,0.859 -9.05808,1.71 -13.50559,2.5533 m 421.86964,-35.2819 c -7.8804,-0.4266 -15.841,-0.7498 -23.9418,-1.0473 -13.1097,-0.4727 -26.3507,-0.8588 -39.8491,-1.3613 -13.4984,-0.5024 -27.2536,-1.1225 -41.3462,-1.9756 -16.9701,-1.031 -34.322,-2.4101 -52.1374,-4.0986 -15.4626,-2.1324 -31.5782,-3.9478 -48.249,-5.2734 -9.636,-0.7664 -19.475,-1.3687 -29.4824,-1.7797 0,0 0,0 -10e-5,0 -27.4896,-1.14 -56.22379,-0.5498 -84.94792,1.9437 -0.7107,0.063 -1.42113,0.1265 -2.13129,0.1915 -18.17718,1.6651 -36.30152,4.0772 -53.97546,7.0973 -11.13746,1.9122 -22.15305,4.0246 -32.91408,6.3197 -1.73798,0.3727 -3.4686,0.7494 -5.19143,1.1303 m 427.03258,-38.1209 c -2.0447,-0.2535 -4.1005,-0.4932 -6.1696,-0.7215 -2.6885,-0.2913 -5.3827,-0.5552 -8.0861,-0.7952 -8.5957,-0.7759 -17.2689,-1.3142 -26.1073,-1.7323 -13.1793,-0.6142 -26.4876,-0.9431 -40.0773,-1.2399 -13.5896,-0.2968 -27.4603,-0.5629 -41.7183,-0.9591 0,0 0,0 0,0 -17.1687,-0.479 -34.7894,-1.1558 -52.9841,-2.0474 -15.7929,-1.5372 -32.2579,-2.7959 -49.2994,-3.6214 -9.8503,-0.4769 -19.9111,-0.8078 -30.1478,-0.9659 -28.1189,-0.4464 -57.53824,0.6847 -87.01913,3.7025 -0.72938,0.076 -1.45856,0.1524 -2.1875,0.2304 -18.65724,1.9961 -37.29057,4.7372 -55.49764,8.1812 -4.99141,0.948 -9.96115,1.9417 -14.89774,2.982 m 433.32311,-30.996 c -7.3549,-1.5942 -14.7627,-2.8549 -22.3481,-3.9047 -2.7184,-0.371 -5.4426,-0.7069 -8.1763,-1.0113 -8.6916,-0.9802 -17.4628,-1.6473 -26.4032,-2.1278 -13.3307,-0.7071 -26.7997,-0.9827 -40.5677,-1.1097 -13.768,-0.127 -27.8349,-0.1073 -42.322,-0.1368 -17.4453,-0.036 -35.3905,-0.1508 -53.9928,-0.4192 -16.1124,-1.0603 -32.9114,-1.875 -50.3145,-2.3151 -10.0597,-0.2535 -20.3394,-0.3804 -30.8074,-0.3561 0,0 0,0 0,0 -28.7533,0.054 -58.90026,1.5065 -89.3027,4.7163 -0.75215,0.08 -1.5042,0.1617 -2.25615,0.2443 -15.70738,1.7249 -31.45141,3.915 -47.02775,6.5757 m 438.1202,-15.53 c -2.8621,-0.8315 -5.736,-1.6224 -8.6322,-2.3859 -9.7677,-2.527 -19.5901,-4.376 -29.7551,-5.8123 -2.741,-0.3821 -5.4897,-0.7264 -8.2495,-1.0364 -8.7745,-0.9976 -17.6442,-1.6526 -26.6925,-2.088 -13.4914,-0.6401 -27.1417,-0.7757 -41.1043,-0.6893 -13.9627,0.086 -28.2375,0.3926 -42.9517,0.7014 -17.7195,0.3726 -35.9662,0.7445 -54.9265,0.9769 -16.388,-0.6747 -33.472,-1.1472 -51.1911,-1.3295 -10.2427,-0.1042 -20.716,-0.1097 -31.3939,3e-4 0,0 0,0 0,0 -29.329,0.2888 -60.17111,1.6995 -91.55903,4.4852 -0.7765,0.07 -1.55308,0.1405 -2.32975,0.2121 -7.11892,0.6568 -14.26008,1.3841 -21.40871,2.1815 m 436.39889,4.9555 c -7.9574,-2.1956 -15.9063,-4.0411 -24.0944,-5.7606 -9.7499,-2.0003 -19.62,-3.4544 -29.8621,-4.5631 -2.7618,-0.2936 -5.5334,-0.5544 -8.3177,-0.7847 0,0 0,0 0,0 -8.8525,-0.7453 -17.8163,-1.1866 -26.9647,-1.421 0,0 0,0 0,0 -27.2808,-0.6818 -55.2584,0.5354 -84.9949,1.8758 -17.9058,0.8091 -36.3346,1.6696 -55.4902,2.3684 -16.5353,-0.3143 -33.7582,-0.4813 -51.6301,-0.4844 -10.3313,-4e-4 -20.8981,0.056 -31.6806,0.1675 -28.4791,0.2826 -58.42936,1.1901 -89.16089,2.5985 m 418.54819,12.2988 c -1.899,-0.1775 -3.7773,-0.3595 -5.6362,-0.5466 -3.3032,-0.3341 -6.5451,-0.6868 -9.7283,-1.0627 -8.7182,-1.0719 -17.401,-2.0418 -26.3012,-3.0574 -10.1525,-1.1129 -20.3633,-1.9111 -30.8822,-2.4942 0,0 0,0 0,0 -2.8365,-0.1517 -5.6781,-0.2802 -8.5281,-0.3862 0,0 0,0 0,0 -9.0608,-0.351 -18.1888,-0.4763 -27.4668,-0.4284 -13.8331,0.079 -27.763,0.5624 -41.9625,1.3268 -14.1995,0.7643 -28.6687,1.807 -43.5511,2.9406 -17.9239,1.3689 -36.3402,2.8787 -55.4459,4.2344 -16.4697,0.2044 -33.5893,0.5226 -51.3132,0.8719 -10.2458,0.2037 -20.7116,0.4191 -31.3751,0.6194 -19.6899,0.3608 -40.0322,0.7863 -60.78529,1.0423 m 410.68379,-15.8493 c -2.9439,-0.081 -5.8054,-0.1637 -8.5883,-0.233 -5.5311,-0.1881 -10.896,-0.466 -16.1219,-0.8168 -3.5,-0.2365 -6.9365,-0.5082 -10.3098,-0.8109 -9.2346,-0.8751 -18.4008,-1.7045 -27.7043,-2.5842 -10.6109,-0.9587 -21.1807,-1.6169 -31.9597,-2.0435 0,0 0,0 0,0 -2.9069,-0.1095 -5.8123,-0.1951 -8.72,-0.2568 0,0 0,0 0,0 -9.2433,-0.2096 -18.4933,-0.1775 -27.8489,0.058 -13.9473,0.3575 -27.905,1.1834 -42.0953,2.3938 -14.1902,1.2104 -28.6134,2.8022 -43.4341,4.5813 -17.8524,2.1487 -36.1832,4.5866 -55.1627,6.9452 -16.2753,1.0228 -33.1553,2.1662 -50.5721,3.2759 -10.0688,0.6441 -20.3338,1.2788 -30.7659,1.8595 -10.9709,0.6053 -22.1185,1.186 -33.392,1.6797 m 413.5939,-34.7897 c -10.5489,-0.3957 -20.2015,-1.3161 -29.1948,-2.144 -5.5052,-0.5575 -10.8994,-1.208 -16.1948,-1.904 -3.5464,-0.4676 -7.0473,-0.958 -10.4977,-1.4589 -9.4347,-1.4068 -18.8538,-2.6467 -28.3642,-3.7989 -10.8431,-1.273 -21.6112,-2.1111 -32.5151,-2.5985 0,0 0,0 0,0 -2.941,-0.1266 -5.8775,-0.2216 -8.8131,-0.2851 0,0 0,0 0,0 -9.3292,-0.2135 -18.6353,-0.107 -28.0193,0.276 -13.9863,0.5763 -27.9533,1.7778 -42.1444,3.5235 -14.1912,1.7458 -28.6069,4.0325 -43.4172,6.6394 -17.847,3.1489 -36.1848,6.7902 -55.1504,10.4861 -16.0277,2.165 -32.6118,4.4869 -49.6743,6.752 -9.8663,1.313 -19.9068,2.6103 -30.0893,3.8328 -2.6157,0.3127 -5.2402,0.6223 -7.873,0.9276 m 412.6206,-39.6982 c -6.4977,-0.031 -12.6477,-0.4691 -18.5857,-1.1793 -10.6141,-1.2204 -20.4537,-3.4605 -29.9665,-5.6605 -5.3693,-1.2831 -10.7288,-2.6374 -16.0659,-3.9768 -3.5739,-0.8978 -7.1365,-1.7907 -10.675,-2.6558 -9.6439,-2.377 -19.3497,-4.3938 -29.0793,-6.106 -11.0845,-1.9213 -22.0717,-3.2353 -33.1031,-4.0351 -2.9766,-0.2126 -5.9468,-0.3839 -8.914,-0.5136 0,0 0,0 0,0 -9.4238,-0.4198 -18.808,-0.4174 -28.2472,-0.035 -14.0612,0.5738 -28.1183,1.9928 -42.4205,4.2027 -14.3021,2.21 -28.85,5.2073 -43.8096,8.7529 0,0 0,0 0,0 -18.042,4.2831 -36.6307,9.4047 -55.8655,14.8508 0,0 0,0 0,0 -15.7643,3.7365 -32.0322,7.7353 -48.7237,11.7026 -4.4703,1.0641 -8.9727,2.1269 -13.5043,3.1806 m 406.7769,-35.0811 c -9.8685,4.6135 -18.6269,4.7346 -27.6987,2.1429 -7.5895,-2.1621 -15.4615,-6.2108 -24.1019,-10.6097 -4.8996,-2.5015 -10.0415,-5.1053 -15.3596,-7.6576 -3.5602,-1.7087 -7.1985,-3.3949 -10.8854,-5.0167 -9.9838,-4.3926 -20.3304,-8.3376 -30.7162,-11.7615 0,0 0,0 0,0 -11.8152,-3.8907 -23.6796,-7.1028 -35.5226,-9.6089 -3.1981,-0.6764 -6.394,-1.3017 -9.5887,-1.8731 -10.1349,-1.8135 -20.2567,-3.0757 -30.3932,-3.7619 -15.0859,-1.0205 -30.1931,-0.7752 -45.4398,0.8699 -15.2468,1.6452 -30.634,4.6863 -46.2533,8.9422 -18.8646,5.1412 -38.063,12.1153 -57.6574,20.3077 0,0 0,0 0,0 -12.3034,5.0462 -24.7707,10.5594 -37.3925,16.301 m 110.5876,277.5318 c 14.8736,-7.0095 25.0965,-15.6225 32.2418,-25.9959 7.1453,-10.3735 11.2193,-22.511 13.769,-36.3397 0.7236,-3.723 1.3823,-7.5256 2.0115,-11.3897 1.622,-10.0069 3.0317,-20.4275 4.7363,-30.9626 1.7046,-10.5351 3.7046,-21.1844 6.36,-31.6743 0.094,-0.3538 0.1892,-0.7069 0.2846,-1.0595 0.1902,-0.7066 0.3824,-1.4109 0.5766,-2.1128 1.6296,-5.8204 3.4284,-11.4155 5.4286,-16.7357 2.7744,-7.3583 5.9109,-14.2 9.4546,-20.4426 3.5437,-6.2426 7.4946,-11.8864 11.8507,-16.9067 0.6016,-0.7048 1.2112,-1.39 1.8287,-2.0558 3.8474,-4.1823 7.93,-7.6402 12.234,-10.4234 6.1188,-3.9477 12.6554,-6.5811 19.5123,-8.1887 5.2638,-1.0095 10.3583,-0.8532 15.305,0.1578 0.1332,0.031 0.2659,0.062 0.398,0.094 2.3374,0.5473 4.4848,1.2412 6.464,2.0473 1.7248,0.7009 3.3277,1.4828 4.8246,2.3204 2.1257,1.287 3.9895,2.2337 5.6514,2.8431 0,0 0,0 0,0 0.7861,0.288 1.5271,0.5007 2.2302,0.6391 2.3501,0.3165 5.0388,-0.821 8.0646,-3.1097 0.8147,-0.6727 1.6722,-1.3849 2.5705,-2.1345 0,0 0,-10e-5 0,-10e-5 0.1888,-0.158 0.3796,-0.3176 0.5723,-0.4786 4.0961,-3.5006 9.0156,-7.4953 14.537,-11.8525 5.5214,-4.3573 11.644,-9.0768 18.1334,-13.9389 2.1937,-1.6063 4.4139,-3.2051 6.6565,-4.7949 0.028,-0.02 0.056,-0.039 0.083,-0.059 6.2978,-4.4158 12.7321,-8.4213 19.1489,-12.2925 0,0 0,0 0,0 5.2235,-3.2139 10.6032,-5.9614 15.743,-8.7333 4.2307,-2.2119 8.6193,-4.4493 12.4153,-6.8051 2.8478,-1.7311 5.2663,-3.6571 7.3348,-5.4216 m -296.6692,265.9107 c 15.7119,-4.998 26.8357,-11.9874 34.8115,-21.0669 7.9758,-9.0794 12.8103,-20.2533 15.9549,-33.4327 2.7169,-10.9617 4.7186,-22.9075 6.9426,-35.3041 2.224,-12.3967 4.6714,-25.2435 7.9967,-38.0595 0,0 0,0 0,-10e-5 0.2972,-1.0878 0.5983,-2.1719 0.9034,-3.2519 0.638,-2.2321 1.2978,-4.4385 1.9814,-6.616 3.0974,-9.8909 6.6709,-19.1773 10.8497,-27.6353 4.1788,-8.4579 8.9625,-16.088 14.3779,-22.7978 0,0 0,0 0,0 0.5138,-0.6461 1.0333,-1.2782 1.5586,-1.8964 0.099,-0.1164 0.1975,-0.2322 0.2965,-0.3476 3.5667,-4.1922 7.3348,-7.77 11.3004,-10.7517 0,0 0,0 0,0 6.5429,-4.9053 13.5837,-8.2003 21.0443,-10.1584 5.4077,-1.17 10.6399,-1.0121 15.7194,0.2124 0.1369,0.037 0.2731,0.075 0.4086,0.113 3.9528,1.0881 7.3276,2.6926 10.2116,4.672 0.4038,0.2793 0.7977,0.5655 1.1821,0.8582 0,0 0,0 0,0 3.0311,2.5069 5.3201,4.2964 7.047,5.3633 1.8371,0.9814 3.9343,0.388 6.3093,-1.5448 0.7886,-0.7243 1.6418,-1.5133 2.557,-2.3642 1.3907,-1.3334 2.9133,-2.7754 4.5583,-4.3196 3.5653,-3.4058 7.7705,-7.3429 12.4913,-11.6962 0,0 0,0 0,0 3.5459,-3.2724 7.3823,-6.777 11.4578,-10.4375 2.0519,-1.7851 4.1409,-3.5718 6.2662,-5.3563 0,0 0,0 0,0 2.0492,-1.7191 4.13,-3.374 6.2385,-4.9743 0,0 0,-10e-5 0,-10e-5 3.9408,-2.9978 8.0024,-5.7803 12.1577,-8.4127 0,0 0,0 0,0 5.1596,-3.3903 10.7649,-5.8286 16.4812,-7.8019 4.6564,-1.411 10.2535,-2.4282 16.0707,-3.2039 3.3207,-0.4208 6.526,-1.1737 9.6322,-2.1202 1.1357,-0.3453 2.258,-0.7167 3.3679,-1.1081 m -304.9962,250.855 c 20.7137,-3.6232 33.9909,-11.218 42.7448,-22.7936 4.8106,-6.3486 8.2618,-13.8897 10.8301,-22.5698 3.1048,-10.1937 5.4399,-21.5657 7.9202,-33.57 2.4803,-12.0042 5.1075,-24.64 8.541,-37.4125 0.3065,-1.0839 0.6165,-2.1655 0.9301,-3.2442 3.305,-11.2427 7.1234,-21.9479 11.6694,-31.7436 4.5459,-9.7956 9.8189,-18.6822 15.8829,-26.4856 0,0 0,0 0,0 0.6158,-0.8038 1.24,-1.5882 1.8725,-2.3532 1.5347,-1.8729 3.1066,-3.6368 4.7158,-5.2912 4.1946,-4.3169 8.6328,-7.885 13.3073,-10.7336 4.6746,-2.8485 9.5856,-4.9779 14.7094,-6.4688 4.7968,-1.1669 9.4662,-1.2705 14.0206,-0.4572 0.6755,0.1201 1.3484,0.2604 2.0188,0.4201 0.1397,0.038 0.2787,0.076 0.417,0.115 3.6343,0.9972 6.7744,2.4621 9.4744,4.2999 0.7178,0.4893 1.404,1.0043 2.0596,1.5432 3.0214,2.7074 5.2305,4.7262 6.7876,6.0277 1.6467,1.2209 3.5307,0.8051 5.6698,-1.0699 0.7192,-0.7191 1.5052,-1.5081 2.3558,-2.3657 0,0 0,0 0,0 2.1358,-2.2272 4.6437,-4.7834 7.4861,-7.659 5.4752,-5.5334 12.1471,-12.3585 19.7588,-20.1671 1.9814,-1.9635 3.9993,-3.9466 6.0558,-5.9495 0,0 0,0 0,0 4.7339,-4.6106 9.6543,-8.9025 14.7741,-13.0438 1.001,-0.8168 2.0111,-1.6283 3.0305,-2.4353 4.8123,-3.9728 10.1764,-7.0157 15.8732,-9.5961 0,0 0,0 0,0 0.2082,-0.094 0.4168,-0.188 0.6258,-0.2811 4.807,-1.8951 10.9948,-3.3459 17.8716,-4.5751 5.3917,-0.9047 10.7075,-2.73 15.9761,-5.1112 m -310.5277,248.3021 c 5.8681,-0.3524 11.2245,-0.9812 16.1073,-1.9123 0,0 0,0 0,0 10.4472,-2.0851 18.4045,-5.973 24.5356,-11.6152 6.1311,-5.6421 10.4381,-13.0408 13.5974,-22.0954 3.5659,-9.9795 6.2547,-21.5078 9.1539,-33.8973 2.5074,-10.6486 5.1583,-21.9339 8.4559,-33.4578 0.3181,-1.0575 0.6393,-2.1136 0.9638,-3.1679 3.4189,-10.9888 7.3159,-21.556 11.9123,-31.3041 4.5963,-9.7481 9.8917,-18.6773 15.9637,-26.5829 0.6167,-0.8142 1.2416,-1.6097 1.8748,-2.3861 4.7777,-5.913 9.9091,-10.7911 15.3954,-14.6367 5.4862,-3.8456 11.3271,-6.6594 17.4892,-8.5528 5.5608,-1.4393 10.9589,-1.4476 16.2117,-0.2348 0.1415,0.037 0.2824,0.075 0.4225,0.1136 1.1693,0.3129 2.288,0.6747 3.3573,1.0829 0,0 0,0 10e-5,0 3.188,1.2197 5.9291,2.853 8.2695,4.817 3.015,2.7653 5.1935,4.8487 6.6817,6.2069 1.5692,1.2749 3.3704,0.871 5.415,-1.0672 0.3425,-0.3687 0.7014,-0.7556 1.0767,-1.1606 0,0 0,0 0,0 0.3817,-0.4141 0.7803,-0.8471 1.1955,-1.2988 1.861,-2.093 4.0252,-4.4747 6.4649,-7.1487 5.5066,-6.0162 12.3542,-13.563 20.2299,-22.4716 1.9507,-2.1318 3.9354,-4.2973 5.9557,-6.5002 5.5616,-6.0694 11.3652,-11.776 17.4427,-17.5293 0,0 0,0 0,0 0.711,-0.702 1.4343,-1.3841 2.1693,-2.0486 4.3008,-3.8856 8.9914,-7.1821 13.9554,-10.2988 4.7009,-2.7107 10.8861,-5.1303 17.8384,-7.6313 5.4472,-1.8226 10.8279,-4.7908 16.1496,-8.5439 m -311.1904,250.9272 c 0.5076,-0.024 1.0114,-0.051 1.5114,-0.08 13.7223,-0.7892 24.5608,-3.2944 33.0594,-7.9235 8.4985,-4.6292 14.6668,-11.3848 19.3002,-20.411 0.1581,-0.3775 0.3136,-0.7591 0.4666,-1.1447 3.3577,-8.2886 6.0026,-18.0481 8.7701,-28.718 2.7675,-10.6699 5.6603,-22.2494 9.3047,-34.2247 0,0 0,0 0,0 0.3248,-1.015 0.6527,-2.0295 0.9838,-3.043 3.5923,-10.881 7.6872,-21.4166 12.524,-31.159 0,0 0,0 0,0 4.5709,-9.1749 9.7894,-17.6481 15.7292,-25.2155 0,0 0,0 0,0 0.6219,-0.8039 1.2519,-1.5895 1.89,-2.3567 4.8158,-5.8425 9.9802,-10.6828 15.4977,-14.5092 5.5174,-3.8264 11.388,-6.6394 17.58,-8.538 5.5878,-1.4421 11.0105,-1.4519 16.2844,-0.2291 0.1422,0.038 0.2836,0.076 0.4243,0.1146 4.6785,1.2575 8.5391,3.3053 11.6802,5.9555 0,0 0,0 0,0 3.03,2.7952 5.2182,4.9043 6.7041,6.2758 1.566,1.2867 3.3635,0.868 5.3981,-1.1275 0.6894,-0.7649 1.4463,-1.6071 2.2683,-2.5266 0,0 0,0 0,0 0.587,-0.6782 1.204,-1.3869 1.8502,-2.1264 3.0036,-3.4426 6.6273,-7.558 10.7745,-12.3566 4.1471,-4.7986 8.8168,-10.2806 13.9085,-16.414 1.9348,-2.2547 3.901,-4.554 5.8992,-6.9042 1.3947,-1.6426 2.8036,-3.2681 4.2267,-4.8847 0,0 0,0 0,0 4.184,-4.7621 8.4881,-9.4458 12.9233,-14.2603 0.2802,-0.3166 0.5624,-0.6305 0.8463,-0.9418 4.5484,-4.9791 9.5567,-9.3008 14.8563,-13.6386 4.5551,-3.5176 10.5309,-6.9367 17.1176,-10.782 5.1322,-2.7831 10.1345,-6.8134 14.9743,-11.7226 m -310.3868,255.1627 c 6.5252,-0.5337 12.4195,-1.4759 17.7091,-2.8964 0,0 0,0 0,0 11.6562,-3.1326 20.3286,-8.6405 26.8109,-17.0254 0,0 0,0 0,0 2.2102,-2.852 4.1739,-6.0327 5.9347,-9.5487 3.7247,-7.3382 6.9609,-15.7636 10.3002,-24.947 3.3394,-9.1835 6.7855,-19.1233 10.8239,-29.4663 0,0 0,0 0,0 0.3703,-1.185 0.7481,-2.3761 1.1342,-3.5727 0.3272,-0.9633 0.6574,-1.9268 0.991,-2.8901 3.5133,-10.0402 7.5043,-19.8347 12.1899,-28.9608 4.6857,-9.126 10.0665,-17.5831 16.2257,-25.1295 0.6255,-0.7783 1.2592,-1.5389 1.9011,-2.2815 6.8158,-7.9554 14.3412,-13.968 22.5721,-18.0443 0,0 0,-1e-4 0,-1e-4 3.4782,-1.7188 7.0779,-3.099 10.791,-4.1641 5.6485,-1.349 11.134,-1.275 16.4723,0.026 0.1439,0.04 0.287,0.08 0.4295,0.121 4.7362,1.3276 8.6545,3.4411 11.8516,6.1519 3.087,2.8571 5.3303,5.0206 6.867,6.4344 1.6213,1.3328 3.4699,0.9451 5.5467,-1.0397 0.7025,-0.7614 1.4715,-1.6019 2.3046,-2.522 3.0676,-3.5007 6.9218,-7.8448 11.4244,-13.075 4.5027,-5.2302 9.6524,-11.3465 15.2946,-18.3287 1.9359,-2.321 3.9009,-4.6957 5.8948,-7.1317 3.3159,-4.0576 6.7039,-8.054 10.1636,-12.1148 2.2656,-2.6611 4.5605,-5.3502 6.8867,-8.1034 10e-5,0 10e-5,0 10e-5,0 4.7167,-5.7939 9.9373,-10.9503 15.4348,-16.4077 4.4548,-4.2486 10.1982,-8.6153 16.3081,-13.757 4.7125,-3.6996 9.2133,-8.6733 13.4309,-14.5291 m -309.9471,260.7564 c 10.9467,-1.935 20.0942,-5.2554 27.4987,-10.4841 7.4044,-5.2286 13.0804,-12.3717 17.5407,-21.6966 0.4186,-0.8616 0.8323,-1.7364 1.2421,-2.6239 0,0 0,0 0,0 5.0514,-10.9734 9.5034,-23.9449 14.8625,-38.0236 2.0564,-5.382 4.2452,-10.9239 6.6347,-16.5707 0.4054,-0.9134 0.8138,-1.8262 1.2254,-2.7381 4.189,-9.2003 8.8135,-18.095 14.0574,-26.3501 5.2439,-8.2551 11.1084,-15.869 17.6736,-22.6361 10e-5,0 10e-5,-10e-5 10e-5,-10e-5 0.3891,-0.4671 0.7813,-0.9308 1.1768,-1.391 0.629,-0.7445 1.2664,-1.4717 1.9122,-2.1814 4.8744,-5.403 10.1131,-9.8582 15.7239,-13.3366 5.6109,-3.4783 11.5941,-5.98 17.9165,-7.5899 5.7052,-1.1821 11.2602,-0.9487 16.6808,0.5069 0.1461,0.044 0.2915,0.088 0.4361,0.1334 4.8105,1.4653 8.8132,3.7126 12.1042,6.5516 0,0 0,0 0,0 1.8711,1.7564 3.4556,3.2719 4.7774,4.5336 0,10e-5 0,10e-5 0,10e-5 0.9309,0.8846 1.7323,1.6445 2.4151,2.2758 1.7528,1.4624 3.7339,1.1963 5.9376,-0.6776 0.742,-0.7257 1.5498,-1.532 2.4204,-2.4194 3.2048,-3.3801 7.1816,-7.6257 11.7834,-12.7926 4.6018,-5.1669 9.8275,-11.2553 15.5109,-18.2553 1.9497,-2.3289 3.9251,-4.7184 5.926,-7.1774 0,0 0,0 10e-5,0 5.5101,-6.7822 11.1905,-13.478 17.0539,-20.73 0,0 0,0 0,0 4.7139,-6.0334 9.9024,-11.585 15.3177,-17.7154 4.3986,-4.8386 9.9357,-10.0113 15.5756,-16.2946 4.2936,-4.497 8.2927,-10.2659 11.8927,-16.8853 m -309.83979,267.4364 c 4.71545,-1.748 9.13195,-3.8272 13.1879,-6.329 0.56371,-0.3479 1.12057,-0.7039 1.67053,-1.0682 5.03126,-3.3317 9.46196,-7.3676 13.31316,-12.2657 3.8513,-4.8981 7.1255,-10.6592 9.9493,-17.3785 3.4823,-8.1174 6.7464,-17.1971 10.319,-26.9556 3.5725,-9.7585 7.4599,-20.1935 12.1283,-30.9616 0,-10e-5 0,-10e-5 0,-10e-5 0.2528,-0.5561 0.5068,-1.1119 0.7621,-1.6672 0,0 0,0 0,0 0.1622,-0.3536 0.3248,-0.707 0.488,-1.0602 6.5016,-13.9566 14.0953,-27.1237 23.322,-38.4699 0,0 0,0 0,0 3.2956,-4.0435 6.7963,-7.8611 10.5097,-11.4263 0,0 0,0 0,0 0.7164,-0.7018 1.441,-1.3858 2.1739,-2.0517 5.5397,-5.0687 11.4355,-9.1578 17.6999,-12.2435 6.2643,-3.0857 12.8976,-5.1676 19.8671,-6.3327 4.1209,-0.5128 8.1766,-0.4114 12.1711,0.2564 1.9366,0.2735 3.8585,0.7009 5.7662,1.2727 0.1493,0.049 0.2978,0.099 0.4456,0.1498 4.9159,1.6481 9.0364,4.0821 12.4549,7.1131 3.3133,3.1841 5.8028,5.6756 7.597,7.4127 1.9032,1.6868 4.0432,1.6495 6.4049,0 0.7915,-0.654 1.6485,-1.3887 2.5677,-2.205 0,0 0,0 0,0 4.2174,-3.89 9.6256,-9.1422 15.914,-15.8786 0,0 0,0 0,0 3.8074,-4.0695 7.9308,-8.6782 12.2931,-13.8231 1.9865,-2.2724 3.9951,-4.6111 6.0253,-7.0257 0,0 0,-1e-4 10e-5,-1e-4 5.5928,-6.6604 11.328,-13.3017 17.2198,-20.6278 4.7431,-6.0896 9.9263,-11.8298 15.2854,-18.3905 4.3624,-5.223 9.7285,-10.9688 14.9578,-18.1196 3.9281,-5.0923 7.4857,-11.4523 10.5421,-18.6297 m -309.52202,274.0919 c 1.23082,-0.9234 2.45184,-1.8797 3.65597,-2.8742 5.51656,-4.5553 10.64487,-9.9125 15.09227,-16.4847 4.4474,-6.5721 8.22365,-14.3643 11.4316,-23.647 0.46885,-1.3187 0.93656,-2.6572 1.40468,-4.0147 0,0 10e-6,0 10e-6,0 0.28127,-0.8177 0.56286,-1.6422 0.84513,-2.4734 2.66372,-7.8582 5.36653,-16.3236 8.41748,-25.2315 3.05094,-8.9079 6.45367,-18.2572 10.49531,-27.8391 0.40847,-0.9244 0.8207,-1.8475 1.23686,-2.7691 4.37401,-9.6055 9.28741,-18.8302 14.92941,-27.3327 5.6419,-8.5025 12.0146,-16.2803 19.2033,-23.1081 0,0 0,0 0,0 0.7286,-0.7061 1.4658,-1.394 2.2117,-2.0638 0.079,-0.072 0.1589,-0.1433 0.2384,-0.2147 0,0 0,0 0,0 5.5654,-5.0031 11.4988,-9.0476 17.8178,-12.1012 6.3191,-3.0536 13.0241,-5.1158 20.0866,-6.2581 0.095,-0.015 0.1894,-0.03 0.2842,-0.045 6.4763,-0.7537 12.8318,-0.05 19.0815,1.9298 0.1684,0.058 0.336,0.1164 0.503,0.1757 5.5537,1.937 10.3226,4.6999 14.3916,8.102 3.9772,3.5632 7.1324,6.4768 9.5767,8.67 2.4568,2.0538 5.1082,2.6194 7.922,1.77 0.1522,-0.067 0.3051,-0.1404 0.4589,-0.2192 0.8544,-0.5494 1.7731,-1.1786 2.753,-1.8888 3.6043,-2.7319 7.9567,-6.3279 12.8927,-10.8768 4.9359,-4.549 10.4544,-10.0513 16.3665,-16.5232 2.0275,-2.1504 4.0741,-4.3701 6.139,-6.6698 5.6895,-6.3419 11.4974,-12.7016 17.4357,-19.8359 0,0 0,0 0,0 4.1701,-5.168 8.6554,-10.1371 13.2679,-15.7368 0.6802,-0.825 1.3631,-1.6639 2.0482,-2.5196 4.3485,-5.3248 9.6082,-11.3112 14.5448,-18.9324 3.667,-5.4011 6.8997,-12.0808 9.5449,-19.5657 m -308.55045,278.7763 c 0.0657,-0.1078 0.13159,-0.2157 0.19761,-0.3238 2.09049,-3.4218 4.31766,-6.9819 6.51504,-10.8118 2.44498,-4.2546 4.8513,-8.837 7.09031,-13.8977 2.23901,-5.0606 4.31239,-10.5999 6.19043,-16.7318 0.68538,-2.2352 1.34728,-4.5476 1.98725,-6.9411 2.49414,-8.9739 5.05957,-18.703 8.08471,-29.0022 3.02515,-10.2992 6.51808,-21.1663 10.88391,-32.3241 0,0 10e-6,0 10e-6,0 0.38698,-0.9452 0.77817,-1.8891 1.17369,-2.8316 0.0435,-0.1027 0.087,-0.2054 0.13062,-0.308 0,0 0,0 0,0 0.42642,-1.0056 0.85908,-2.0072 1.29824,-3.0046 10e-6,0 10e-6,0 10e-6,0 4.03573,-9.1749 8.60797,-17.9846 13.87599,-26.1502 5.26803,-8.1655 11.2338,-15.6849 17.97791,-22.3599 0.72435,-0.7303 1.45784,-1.4428 2.20059,-2.1371 5.61703,-5.2864 11.65193,-9.5881 18.13263,-12.8515 6.4808,-3.2635 13.408,-5.488 20.7578,-6.7282 6.0278,-0.7758 11.9944,-0.3259 17.9116,1.2393 0,0 0,0 0,0 0.5889,0.1558 1.1773,0.3225 1.7652,0.4999 0.1748,0.057 0.3489,0.1153 0.5224,0.1741 5.7698,1.9194 10.7953,4.7049 15.1492,8.1862 4.2686,3.644 7.7439,6.7006 10.5157,9.0959 0.7991,0.647 1.6152,1.1777 2.4467,1.5925 0,0 0,0 0,0 2.2668,1.128 4.6493,1.3971 7.1288,0.8414 1.1154,-0.3766 2.2923,-0.8275 3.5268,-1.3549 4.5354,-2.0645 9.7737,-4.9314 15.5217,-8.7297 5.748,-3.7983 12.0048,-8.5284 18.5421,-14.2503 2.2412,-1.8937 4.4878,-3.8589 6.7377,-5.9083 0,0 0,0 0,0 0.3439,-0.3132 0.6877,-0.6264 1.0316,-0.94 5.4889,-5.5183 11.0503,-11.0936 16.6949,-17.3996 4.815,-5.5535 10.0217,-10.8657 15.3249,-17.27 4.3235,-5.1129 9.5286,-10.9566 14.3087,-18.575 3.5284,-5.374 6.58,-12.0559 8.9839,-19.5588 m -307.01534,279.4361 c 1.36082,-6.2767 3.42611,-12.4019 5.55855,-18.9723 2.13244,-6.5705 4.33858,-13.5858 6.3501,-21.4735 1.00776,-3.9651 1.97333,-8.1393 2.89169,-12.5585 0.35129,-1.6134 0.70685,-3.2491 1.06823,-4.9068 3.056,-13.9437 6.45944,-29.4672 11.44129,-45.9892 1.10126,-3.6487 2.2835,-7.3419 3.56094,-11.0698 0.34352,-0.9596 0.6915,-1.9185 1.04409,-2.8765 3.70711,-9.984 8.01547,-19.673 13.13928,-28.7127 5.1238,-9.0398 11.06618,-17.4273 17.95186,-24.8924 0.6977,-0.7684 1.40518,-1.5197 2.12263,-2.2536 0.41468,-0.4271 0.83204,-0.8487 1.25211,-1.2647 10e-6,0 10e-6,0 10e-6,0 0.73419,-0.7279 1.47688,-1.4386 2.22822,-2.132 5.02323,-4.6344 10.42699,-8.488 16.23714,-11.5121 5.81016,-3.0242 12.02708,-5.2185 18.64004,-6.6032 6.6633,-1.1363 13.32531,-0.7819 20.00186,0.9539 0.1798,0.051 0.359,0.1032 0.5376,0.156 5.9423,1.7211 11.2134,4.3604 15.8654,7.7767 4.5752,3.5764 8.4115,6.6671 11.5635,9.193 3.3874,2.5491 7.0204,3.5973 10.8249,3.1763 0.77,-0.1673 1.5632,-0.3601 2.3788,-0.579 0,0 0,0 0,0 0.5025,-0.1354 1.0135,-0.2808 1.5327,-0.4365 4.5207,-1.4732 9.6071,-3.5336 15.1189,-6.2964 5.5117,-2.7628 11.4482,-6.2284 17.6446,-10.4617 0,0 0,0 0,-1e-4 1.3064,-0.8912 2.6243,-1.8163 3.9522,-2.7756 2.3892,-1.658 4.7827,-3.3812 7.1782,-5.1827 6.6049,-4.9585 13.2013,-9.8944 19.7581,-15.6485 0,0 0,0 0,0 5.2883,-4.7994 10.8918,-9.3253 16.4813,-14.9665 4.5567,-4.4682 9.9661,-9.6786 14.8631,-16.7333 3.2051,-4.3999 5.9891,-9.8799 8.22,-16.1038 0.2784,-0.7851 0.5485,-1.5817 0.8101,-2.3891 m -305.75698,273.9292 c 0.43656,-7.4024 1.68356,-14.0947 3.15139,-20.8645 1.46783,-6.7699 3.15924,-13.6154 4.78106,-21.1042 0.88013,-4.1096 1.73114,-8.4031 2.53403,-12.945 1.15895,-6.2906 2.34977,-12.9538 3.68355,-19.9848 1.33377,-7.031 2.81259,-14.4287 4.58672,-22.1405 1.34703,-5.8741 2.86976,-11.9178 4.64049,-18.0925 0.28463,-0.9534 0.57366,-1.9073 0.86726,-2.8614 0.11278,-0.3634 0.22632,-0.7265 0.34066,-1.0895 5.1812,-16.3958 11.97664,-32.3596 21.37605,-46.2827 1.77859,-2.6324 3.6505,-5.1919 5.61968,-7.6699 0.6387,-0.8135 1.28774,-1.6114 1.94739,-2.3935 4.99011,-5.9593 10.49244,-11.0504 16.57421,-15.1438 6.08177,-4.0934 12.74378,-7.188 19.993,-9.2575 6.39718,-1.5865 12.88973,-1.7701 19.49311,-0.5873 10e-6,0 10e-6,0 2e-5,0 0.14334,0.026 0.28674,0.052 0.43019,0.079 0.18168,0.038 0.36289,0.078 0.54363,0.1178 0.67589,0.1464 1.34487,0.3048 2.00692,0.4752 5.22168,1.3508 10.00286,3.4554 14.36006,6.2416 0,0 1e-5,0 1e-5,0 4.84364,3.2904 9.03312,6.2346 12.57211,8.7455 3.81164,2.5375 7.88356,3.7462 12.11669,3.599 1.3793,-0.1832 2.81784,-0.4233 4.31222,-0.7239 5.48523,-1.2357 11.64813,-3.0653 18.30493,-5.6724 6.6568,-2.6072 13.8069,-5.9925 21.2274,-10.2602 2.5432,-1.3939 5.0895,-2.8435 7.6366,-4.362 0,0 0,0 0,0 2.0314,-1.2065 4.0614,-2.4043 6.0889,-3.6117 4.979,-2.9686 9.9423,-5.9951 14.8798,-9.3867 0,0 0,0 0,0 5.602,-3.9976 11.5309,-7.5993 17.4601,-12.1834 3.4641,-2.559 7.416,-5.4492 11.3615,-9.0712 1.5557,-1.4276 3.1098,-2.9695 4.63,-4.6524 3.9652,-4.1627 7.4145,-9.7374 10.1515,-16.256"
         style="fill:none;stroke:#000000;stroke-width:1px;stroke-linecap:butt;stroke-linejoin:miter;stroke-opacity:1" />
      <path
         style="opacity:0.33699999;fill:none;stroke:#000000;stroke-width:1px;stroke-linecap:butt;stroke-linejoin:miter;stroke-opacity:1"
         d="m 1226.6877,-1595.6069 -386.265,0.297 m 405.861,-19.8416 -386.265,0.297 m 405.861,-19.8416 -386.265,0.297 m 405.861,-19.8416 -386.265,0.297 m 405.861,-19.8416 -386.265,0.297 m 405.861,-19.8416 -386.265,0.297 m 405.861,-19.8416 -386.265,0.297 m 405.861,-19.8416 -386.265,0.297 m 405.861,-19.8416 -386.265,0.297 m 405.861,-19.8416 -386.265,0.297 m 405.861,-19.8416 -386.265,0.297 m 405.861,-19.8416 -386.265,0.297 m 405.861,-19.8416 -386.265,0.297 m 405.861,-19.8416 -386.265,0.297 m 131.517,253.7828 254.748,-254.0798 m -289.863,254.1068 254.748,-254.0798 m -289.863,254.1068 254.748,-254.0798 m -289.863,254.1068 254.748,-254.0798 m -289.863,254.1068 254.748,-254.0798 m -289.863,254.1068 254.748,-254.0798 m -289.863,254.1068 254.748,-254.0798 m -289.863,254.1068 254.748,-254.0798 m -289.863,254.1068 254.748,-254.0798 m -289.863,254.1068 254.748,-254.0798 m -289.863,254.1068 254.748,-254.0798 m -289.863,254.1068 254.748,-254.0798"
         id="path23721"
         inkscape:connector-curvature="0"
         sodipodi:nodetypes="ccc"
         inkscape:path-effect="#path-effect23723"
         inkscape:original-d="m 1191.5727,-1595.5799 35.115,-0.027 19.596,-19.5446" />
      <text
         sodipodi:linespacing="125%"
         id="text23727"
         y="-1553.7144"
         x="1460.2699"
         style="font-size:15px;font-style:normal;font-variant:normal;font-weight:500;font-stretch:normal;text-align:start;line-height:125%;letter-spacing:0px;word-spacing:0px;writing-mode:lr-tb;text-anchor:start;fill:#000000;fill-opacity:1;stroke:none;font-family:CMU Serif;-inkscape-font-specification:CMU Serif Medium"
         xml:space="preserve"><tspan
           y="-1553.7144"
           x="1460.2699"
           id="tspan23729"
           sodipodi:role="line">s</tspan></text>
      <text
         sodipodi:linespacing="125%"
         id="text23731"
         y="-1864.1678"
         x="1058.4153"
         style="font-size:15px;font-style:normal;font-variant:normal;font-weight:500;font-stretch:normal;text-align:start;line-height:125%;letter-spacing:0px;word-spacing:0px;writing-mode:lr-tb;text-anchor:start;fill:#000000;fill-opacity:1;stroke:none;font-family:CMU Serif;-inkscape-font-specification:CMU Serif Medium"
         xml:space="preserve"><tspan
           y="-1864.1678"
           x="1058.4153"
           id="tspan23733"
           sodipodi:role="line">t</tspan></text>
      <text
         transform="translate(5.6387085,301.66294)"
         sodipodi:linespacing="125%"
         id="text23735"
         y="-2570.9263"
         x="1253.0146"
         style="font-size:15px;font-style:normal;font-variant:normal;font-weight:500;font-stretch:normal;text-align:start;line-height:125%;letter-spacing:0px;word-spacing:0px;writing-mode:lr-tb;text-anchor:start;fill:#000000;fill-opacity:1;stroke:none;font-family:CMU Serif;-inkscape-font-specification:CMU Serif Medium"
         xml:space="preserve"><tspan
           y="-2570.9263"
           x="1253.0146"
           id="tspan23737"
           sodipodi:role="line">f(s,t)</tspan></text>
    </g>
  </g>
</svg>
