<?xml version="1.0" encoding="UTF-8" standalone="no"?>
<!-- Created with Inkscape (http://www.inkscape.org/) -->

<svg
   xmlns:dc="http://purl.org/dc/elements/1.1/"
   xmlns:cc="http://creativecommons.org/ns#"
   xmlns:rdf="http://www.w3.org/1999/02/22-rdf-syntax-ns#"
   xmlns:svg="http://www.w3.org/2000/svg"
   xmlns="http://www.w3.org/2000/svg"
   xmlns:sodipodi="http://sodipodi.sourceforge.net/DTD/sodipodi-0.dtd"
   xmlns:inkscape="http://www.inkscape.org/namespaces/inkscape"
   width="1405.6042"
   height="422.09793"
   id="svg3128"
   version="1.1"
   inkscape:version="0.48+devel r"
   sodipodi:docname="octagon-2-torus.svg">
  <title
     id="title3676">Winter School -- Contact Topology</title>
  <defs
     id="defs3130">
    <inkscape:path-effect
       fuse_tolerance="0"
       vertical_pattern="false"
       prop_units="false"
       tang_offset="0"
       normal_offset="0"
       spacing="0"
       scale_y_rel="false"
       prop_scale="1"
       copytype="single_stretched"
       pattern="m 1258.7694,3881.2388 c -7.7724,0.7229 -15.5563,0.5951 -23.3473,0.9309 -7.7909,0.3357 -15.5885,-0.1655 -23.3873,0.011 -7.7988,0.1763 -15.5988,-0.9698 -23.3947,-0.7252 -7.796,0.2446 -15.5879,0.5803 -23.3703,1.1208 -2.1523,-1.1561 -2.0117,3.7827 0.063,2.4375 7.7113,-0.3705 15.4323,-0.5304 23.1567,-0.6126 7.7244,-0.082 15.4521,1.213 23.1768,1.1533 7.7247,-0.06 16.17,-0.8046 23.8822,-1.1077 7.7122,-0.3032 14.6908,1.1358 22.3777,0.3234 1.4036,-0.2269 4.2998,-1.5408 3.0937,-3.2187 C 1260.3587,3881.1227 1259.5153,3881.212 1258.7694,3881.2388 Z"
       is_visible="true"
       id="path-effect2405-0"
       effect="skeletal" />
    <inkscape:path-effect
       effect="skeletal"
       id="path-effect2967"
       is_visible="true"
       pattern="m 1290.7694,3881.2388 c -7.7724,0.7229 -15.5563,0.5951 -23.3473,0.9309 -7.7909,0.3357 -15.5885,-0.1655 -23.3873,0.011 -7.7988,0.1763 -15.5988,-0.9698 -23.3947,-0.7252 -7.796,0.2446 -15.5879,0.5803 -23.3703,1.1208 -2.1523,-1.1561 -2.0117,3.7827 0.063,2.4375 7.7113,-0.3705 15.4323,-0.5304 23.1567,-0.6126 7.7244,-0.082 15.4521,1.213 23.1768,1.1533 7.7247,-0.06 16.17,-0.8046 23.8822,-1.1077 7.7122,-0.3032 14.6908,1.1358 22.3777,0.3234 1.4036,-0.2269 4.2998,-1.5408 3.0937,-3.2187 C 1292.3587,3881.1227 1291.5153,3881.212 1290.7694,3881.2388 Z"
       copytype="single_stretched"
       prop_scale="1"
       scale_y_rel="false"
       spacing="0"
       normal_offset="0"
       tang_offset="0"
       prop_units="false"
       vertical_pattern="false"
       fuse_tolerance="0" />
    <inkscape:path-effect
       fuse_tolerance="0"
       vertical_pattern="false"
       prop_units="false"
       tang_offset="0"
       normal_offset="0"
       spacing="0"
       scale_y_rel="false"
       prop_scale="1"
       copytype="single_stretched"
       pattern="m 1290.7694,3881.2388 c -7.7724,0.7229 -15.5563,0.5951 -23.3473,0.9309 -7.7909,0.3357 -15.5885,-0.1655 -23.3873,0.011 -7.7988,0.1763 -15.5988,-0.9698 -23.3947,-0.7252 -7.796,0.2446 -15.5879,0.5803 -23.3703,1.1208 -2.1523,-1.1561 -2.0117,3.7827 0.063,2.4375 7.7113,-0.3705 15.4323,-0.5304 23.1567,-0.6126 7.7244,-0.082 15.4521,1.213 23.1768,1.1533 7.7247,-0.06 16.17,-0.8046 23.8822,-1.1077 7.7122,-0.3032 14.6908,1.1358 22.3777,0.3234 1.4036,-0.2269 4.2998,-1.5408 3.0937,-3.2187 C 1292.3587,3881.1227 1291.5153,3881.212 1290.7694,3881.2388 Z"
       is_visible="true"
       id="path-effect2512-8"
       effect="skeletal" />
    <inkscape:path-effect
       fuse_tolerance="0"
       vertical_pattern="false"
       prop_units="false"
       tang_offset="0"
       normal_offset="0"
       spacing="0"
       scale_y_rel="false"
       prop_scale="1"
       copytype="single_stretched"
       pattern="m 1258.7694,3873.2388 c -7.7724,0.7229 -15.5563,0.5951 -23.3473,0.9309 -7.7909,0.3357 -15.5885,-0.1655 -23.3873,0.011 -7.7988,0.1763 -15.5988,-0.9698 -23.3947,-0.7252 -7.796,0.2446 -15.5879,0.5803 -23.3703,1.1208 -2.1523,-1.1561 -2.0117,3.7827 0.063,2.4375 7.7113,-0.3705 15.4323,-0.5304 23.1567,-0.6126 7.7244,-0.082 15.4521,1.213 23.1768,1.1533 7.7247,-0.06 16.17,-0.8046 23.8822,-1.1077 7.7122,-0.3032 14.6908,1.1358 22.3777,0.3234 1.4036,-0.2269 4.2998,-1.5408 3.0937,-3.2187 C 1260.3587,3873.1227 1259.5153,3873.212 1258.7694,3873.2388 Z"
       is_visible="true"
       id="path-effect2477-6"
       effect="skeletal" />
    <inkscape:path-effect
       fuse_tolerance="0"
       vertical_pattern="false"
       prop_units="false"
       tang_offset="0"
       normal_offset="0"
       spacing="0"
       scale_y_rel="false"
       prop_scale="1"
       copytype="single_stretched"
       pattern="m 1258.7694,3873.2388 c -7.7724,0.7229 -15.5563,0.5951 -23.3473,0.9309 -7.7909,0.3357 -15.5885,-0.1655 -23.3873,0.011 -7.7988,0.1763 -15.5988,-0.9698 -23.3947,-0.7252 -7.796,0.2446 -15.5879,0.5803 -23.3703,1.1208 -2.1523,-1.1561 -2.0117,3.7827 0.063,2.4375 7.7113,-0.3705 15.4323,-0.5304 23.1567,-0.6126 7.7244,-0.082 15.4521,1.213 23.1768,1.1533 7.7247,-0.06 16.17,-0.8046 23.8822,-1.1077 7.7122,-0.3032 14.6908,1.1358 22.3777,0.3234 1.4036,-0.2269 4.2998,-1.5408 3.0937,-3.2187 C 1260.3587,3873.1227 1259.5153,3873.212 1258.7694,3873.2388 Z"
       is_visible="true"
       id="path-effect2469-0"
       effect="skeletal" />
    <inkscape:path-effect
       fuse_tolerance="0"
       vertical_pattern="false"
       prop_units="false"
       tang_offset="0"
       normal_offset="0"
       spacing="0"
       scale_y_rel="false"
       prop_scale="1"
       copytype="single_stretched"
       pattern="m -251.28325,3107.1324 c -7.7724,0.7229 -15.5563,0.5951 -23.3473,0.9309 -7.7909,0.3357 -15.5885,-0.1655 -23.3873,0.011 -7.7988,0.1763 -15.5988,-0.9698 -23.3948,-0.7252 -7.7959,0.2446 -15.5878,0.5803 -23.3702,1.1208 -2.1523,-1.1561 -2.0117,3.7827 0.063,2.4375 7.7113,-0.3705 15.4323,-0.5304 23.1567,-0.6126 7.7244,-0.082 15.4521,1.213 23.1768,1.1533 7.7247,-0.06 16.17,-0.8046 23.8822,-1.1077 7.7122,-0.3032 14.6908,1.1358 22.3777,0.3234 1.4035,-0.2269 4.2998,-1.5408 3.0937,-3.2187 C -249.69395,3107.0163 -250.53735,3107.1056 -251.28325,3107.1324 Z"
       is_visible="true"
       id="path-effect1096-3-2"
       effect="skeletal" />
    <inkscape:path-effect
       fuse_tolerance="0"
       vertical_pattern="false"
       prop_units="false"
       tang_offset="0"
       normal_offset="0"
       spacing="0"
       scale_y_rel="false"
       prop_scale="1"
       copytype="single_stretched"
       pattern="m -251.28325,3107.1324 c -7.7724,0.7229 -15.5563,0.5951 -23.3473,0.9309 -7.7909,0.3357 -15.5885,-0.1655 -23.3873,0.011 -7.7988,0.1763 -15.5988,-0.9698 -23.3948,-0.7252 -7.7959,0.2446 -15.5878,0.5803 -23.3702,1.1208 -2.1523,-1.1561 -2.0117,3.7827 0.063,2.4375 7.7113,-0.3705 15.4323,-0.5304 23.1567,-0.6126 7.7244,-0.082 15.4521,1.213 23.1768,1.1533 7.7247,-0.06 16.17,-0.8046 23.8822,-1.1077 7.7122,-0.3032 14.6908,1.1358 22.3777,0.3234 1.4035,-0.2269 4.2998,-1.5408 3.0937,-3.2187 C -249.69395,3107.0163 -250.53735,3107.1056 -251.28325,3107.1324 Z"
       is_visible="true"
       id="path-effect1126-9-9"
       effect="skeletal" />
    <inkscape:path-effect
       fuse_tolerance="0"
       vertical_pattern="false"
       prop_units="false"
       tang_offset="0"
       normal_offset="0"
       spacing="0"
       scale_y_rel="false"
       prop_scale="1"
       copytype="single_stretched"
       pattern="m 1258.7694,3881.2388 c -7.7724,0.7229 -15.5563,0.5951 -23.3473,0.9309 -7.7909,0.3357 -15.5885,-0.1655 -23.3873,0.011 -7.7988,0.1763 -15.5988,-0.9698 -23.3947,-0.7252 -7.796,0.2446 -15.5879,0.5803 -23.3703,1.1208 -2.1523,-1.1561 -2.0117,3.7827 0.063,2.4375 7.7113,-0.3705 15.4323,-0.5304 23.1567,-0.6126 7.7244,-0.082 15.4521,1.213 23.1768,1.1533 7.7247,-0.06 16.17,-0.8046 23.8822,-1.1077 7.7122,-0.3032 14.6908,1.1358 22.3777,0.3234 1.4036,-0.2269 4.2998,-1.5408 3.0937,-3.2187 C 1260.3587,3881.1227 1259.5153,3881.212 1258.7694,3881.2388 Z"
       is_visible="true"
       id="path-effect2504-8"
       effect="skeletal" />
    <inkscape:path-effect
       fuse_tolerance="0"
       vertical_pattern="false"
       prop_units="false"
       tang_offset="0"
       normal_offset="0"
       spacing="0"
       scale_y_rel="false"
       prop_scale="1"
       copytype="single_stretched"
       pattern="m 1258.7694,3881.2388 c -7.7724,0.7229 -15.5563,0.5951 -23.3473,0.9309 -7.7909,0.3357 -15.5885,-0.1655 -23.3873,0.011 -7.7988,0.1763 -15.5988,-0.9698 -23.3947,-0.7252 -7.796,0.2446 -15.5879,0.5803 -23.3703,1.1208 -2.1523,-1.1561 -2.0117,3.7827 0.063,2.4375 7.7113,-0.3705 15.4323,-0.5304 23.1567,-0.6126 7.7244,-0.082 15.4521,1.213 23.1768,1.1533 7.7247,-0.06 16.17,-0.8046 23.8822,-1.1077 7.7122,-0.3032 14.6908,1.1358 22.3777,0.3234 1.4036,-0.2269 4.2998,-1.5408 3.0937,-3.2187 C 1260.3587,3881.1227 1259.5153,3881.212 1258.7694,3881.2388 Z"
       is_visible="true"
       id="path-effect3096"
       effect="skeletal" />
  </defs>
  <sodipodi:namedview
     id="base"
     pagecolor="#ffffff"
     bordercolor="#666666"
     borderopacity="1.0"
     inkscape:pageopacity="0.0"
     inkscape:pageshadow="2"
     inkscape:zoom="0.58004853"
     inkscape:cx="631.30337"
     inkscape:cy="133.46456"
     inkscape:document-units="px"
     inkscape:current-layer="layer1"
     showgrid="false"
     fit-margin-top="0"
     fit-margin-left="0"
     fit-margin-right="0"
     fit-margin-bottom="0" />
  <metadata
     id="metadata3133">
    <rdf:RDF>
      <cc:Work
         rdf:about="">
        <dc:format>image/svg+xml</dc:format>
        <dc:type
           rdf:resource="http://purl.org/dc/dcmitype/StillImage" />
        <dc:title>Winter School -- Contact Topology</dc:title>
        <dc:date>2013</dc:date>
        <dc:creator>
          <cc:Agent>
            <dc:title>Marek Kaluba</dc:title>
          </cc:Agent>
        </dc:creator>
        <dc:rights>
          <cc:Agent>
            <dc:title>Marek Kaluba</dc:title>
          </cc:Agent>
        </dc:rights>
      </cc:Work>
    </rdf:RDF>
  </metadata>
  <g
     inkscape:label="Layer 1"
     inkscape:groupmode="layer"
     id="layer1"
     transform="translate(296.85925,-6.265615)">
    <g
       transform="translate(-138.30846,-2572.6617)"
       id="g3047">
      <g
         id="g3001">
        <path
           sodipodi:nodetypes="caaaaaaac"
           inkscape:connector-curvature="0"
           id="path1960-2"
           d="m 602.2569,2666.1063 c 6.59739,1.41 13.16452,2.9878 19.69482,4.7006 23.2797,6.1079 46.13744,13.9065 68.97953,21.8106 10e-6,0 2e-5,0 2e-5,0 22.69416,7.8553 45.41357,15.8383 68.61876,22.3486 23.03971,6.4659 46.61383,11.4323 70.54762,13.2431 25.55446,1.9187 51.16844,-1.5049 76.11703,-6.7396 25.74973,-5.3957 50.99345,-12.7299 76.4024,-19.1692 10e-6,0 2e-5,0 2e-5,0 24.5771,-6.2226 49.4158,-11.7695 74.6268,-13.1749 5.8942,-0.3293 11.8038,-0.4239 17.6984,-0.2312 6.1243,0.2002 12.2323,0.7125 18.2894,1.5956 11.9495,1.7413 23.6948,4.951 34.7836,9.7144 0,0 0,0 0,0 15.4607,6.639 30.163,15.0264 44.0221,24.6099 0,0 0,0 0,0 14.6836,10.157 28.4456,21.7007 40.4322,34.8945 11.1006,12.2291 20.8054,25.9326 26.6033,41.2912 2.6495,7.0118 4.4396,14.357 4.9792,21.7994 0.537,7.3775 -0.1797,14.8494 -2.1829,21.9601 -1.8729,6.6517 -4.9697,12.9603 -9.1092,18.4871 0,0 0,0 0,0 -4.0981,5.4783 -9.1938,10.1996 -14.8044,14.1795 -12.4296,8.8262 -27.1224,14.1206 -42.0313,17.8934 0,0 0,0 0,0 -16.4398,4.1491 -33.3424,6.3672 -50.2932,7.8433 -16.1029,1.4007 -32.2811,2.0415 -48.472,2.6914 -14.3164,0.5789 -28.6471,-0.7096 -42.7844,-3.303 -9.0413,-1.6585 -18.0021,-3.8571 -26.8262,-6.4481 -23.18695,-6.8114 -45.56377,-16.2115 -67.81851,-25.8355 -22.44714,-9.7106 -44.82888,-19.7447 -67.97953,-27.9004 -10e-6,0 -2e-5,0 -2e-5,0 -22.6598,-7.987 -46.18776,-14.122 -70.27749,-15.7795 -15.65379,-1.0684 -31.38585,0.017 -46.83789,2.4572 -10e-6,0 -10e-6,0 -2e-5,0 -16.09273,2.5401 -31.91072,6.5118 -47.46851,11.1803 -10e-6,0 -2e-5,0 -2e-5,0 -32.16982,9.653 -63.2836,22.2375 -94.74945,33.4722 0,0 -10e-6,0 -2e-5,0 -14.13913,5.0469 -28.35384,9.842 -42.76548,13.8759 -1.15573,0.3235 -2.31274,0.642 -3.4711,0.9553 -14.72219,3.9801 -29.66807,7.1314 -44.78241,8.5818 -10e-6,0 -10e-6,0 -2e-5,0 -14.29036,1.3696 -28.75213,1.1929 -42.81625,-1.3472 -10e-6,0 -10e-6,0 -2e-5,0 -14.21523,-2.562 -27.9892,-7.6074 -40.45906,-14.9006 -11.86657,-6.9284 -22.09381,-16.5538 -30.72522,-27.3727 0,0 -10e-6,0 -10e-6,0 -9.1815,-11.5201 -16.57427,-24.4654 -22.02155,-38.175 0,0 0,0 -1e-5,0 -5.35813,-13.4986 -8.85476,-27.7796 -9.6148,-42.2435 -0.70265,-13.4913 1.02422,-27.2227 6.31821,-39.5671 0,0 1e-5,0 1e-5,0 6.39779,-14.9741 16.73567,-28.145 29.00102,-38.9795 13.03527,-11.5099 28.24144,-20.4992 44.36791,-27.1282 10e-6,0 2e-5,0 3e-5,0 16.62359,-6.8305 34.28204,-11.1718 52.19357,-12.7665 6.87018,-0.6109 13.78654,-0.8164 20.68144,-0.5704 5.55809,0.3617 10.3464,0.8892 14.40101,1.4161 4.05461,0.527 7.37717,1.0528 10.00602,1.4597 2.62886,0.4068 4.56469,0.6943 5.83099,0.8006 1.26631,0.1063 1.863,0.031 1.79438,-0.2258 -0.0686,-0.257 -0.80321,-0.6958 -2.21299,-1.2552 -1.40979,-0.5594 -3.49583,-1.239 -6.26776,-1.9204 -2.77194,-0.6814 -6.23111,-1.3637 -10.36945,-1.8832 -4.13833,-0.5195 -8.95729,-0.8746 -14.41013,-0.875 -6.56199,-0.188 -13.1352,0.025 -19.66388,0.6007 -18.16399,1.5982 -36.06923,5.9791 -52.9332,12.8876 -10e-6,0 -2e-5,0 -2e-5,0 -16.36222,6.6989 -31.81727,15.8196 -45.11507,27.5265 -12.52555,11.022 -23.1017,24.489 -29.71414,39.8744 0,0 -10e-6,0 -10e-6,0 -5.48212,12.801 -7.29536,26.9246 -6.57209,40.7401 0.76888,14.7992 4.31155,29.3684 9.75481,43.1054 1e-5,0 1e-5,0 2e-5,0 5.52538,13.9549 13.03809,27.1402 22.38341,38.8946 0,0 10e-6,0 10e-6,0 8.77597,11.0461 19.24905,20.9054 31.46741,28.0747 12.75285,7.4749 26.82982,12.6497 41.36872,15.2861 10e-6,0 2e-5,0 3e-5,0 14.37441,2.6035 29.09794,2.8067 43.59892,1.4249 10e-6,0 2e-5,0 3e-5,0 15.33058,-1.4599 30.44115,-4.625 45.27373,-8.6233 0.15681,-0.042 0.31359,-0.085 0.47034,-0.1271 15.5589,-4.2131 30.84647,-9.3288 46.00916,-14.7239 10e-6,0 2e-5,0 2e-5,0 31.56039,-11.2278 62.64252,-23.7639 94.64032,-33.3232 10e-6,0 10e-6,0 2e-5,0 15.47458,-4.6228 31.16052,-8.5472 47.07025,-11.0383 15.27393,-2.3905 30.7706,-3.4496 46.12966,-2.3796 23.69112,1.6372 46.92802,7.7352 69.41229,15.6669 10e-6,0 10e-6,0 2e-5,0 22.97567,8.1109 45.27688,18.1335 67.7433,27.8675 22.26699,9.6533 44.76379,19.1123 68.18197,26.0129 6.4507,1.9024 12.9824,3.596 19.5739,5.0247 16.6181,3.6019 33.7816,5.5685 51.1173,4.8692 16.0848,-0.6568 32.3249,-1.3197 48.6249,-2.7675 16.9628,-1.5039 34.0459,-3.7825 50.7855,-8.0501 15.0739,-3.827 30.1124,-9.3212 43.0093,-18.4989 5.8161,-4.1452 11.1192,-9.1012 15.4219,-14.8793 0,0 0,0 0,0 4.3401,-5.8387 7.5728,-12.4795 9.5183,-19.4807 2.0694,-7.4532 2.7912,-15.2551 2.2035,-22.9478 -0.5956,-7.7548 -2.4709,-15.3531 -5.2286,-22.561 -6.0513,-15.7956 -15.9909,-29.7429 -27.2593,-42.0494 -12.2365,-13.3787 -26.1933,-24.9992 -40.9564,-35.1544 -14.0785,-9.688 -28.953,-18.108 -44.4796,-24.7525 0,0 0,0 0,0 -11.3576,-4.8586 -23.305,-8.0942 -35.3672,-9.8459 -7.0497,-1.0232 -14.1296,-1.552 -21.1857,-1.6845 -5.1046,-0.096 -10.1968,0.014 -15.2589,0.2951 -12.8944,0.7161 -25.5762,2.4772 -38.0812,4.813 -12.5049,2.3357 -24.83292,5.2469 -37.01344,8.3007 -25.69483,6.4374 -50.88848,13.6559 -76.3589,18.886 -24.911,5.1094 -50.23618,8.3903 -75.33978,6.3822 -23.60543,-1.8749 -46.9173,-6.8738 -69.8908,-13.3934 -22.88624,-6.4968 -45.48478,-14.4941 -68.37305,-22.4528 -22.57798,-7.8529 -45.47466,-15.699 -69.21975,-21.911 -0.90682,-0.2373 -1.81494,-0.4721 -2.72436,-0.7043 -7.09597,-1.7914 -16.14827,-3.8258 -25.3936,-5.4534 -9.24533,-1.6276 -18.67863,-2.8266 -26.44684,-3.439 -7.7682,-0.6124 -13.86379,-0.6729 -16.44908,-0.4606 -1.29264,0.1061 -1.70869,0.2763 -1.02725,0.5108 0.68144,0.2346 2.46059,0.5302 5.54925,0.9721 6.79136,0.7244 14.4962,1.6563 22.38939,2.8716 C 586.63408,2662.9776 594.71449,2664.4726 602.2569,2666.1063 Z"
           style="fill:#000000;fill-opacity:1;stroke:none"
           inkscape:path-effect="#path-effect2405-0"
           inkscape:original-d="m 560.24962,2657.9802 c -66.98729,-17.9492 -153.73867,15.4796 -179.38583,75.0002 -21.05777,48.8698 10.51411,122.397 56.39897,149.3463 105.80406,62.1413 241.66558,-62.1743 364.10552,-54.1433 95.4295,6.2594 180.28055,82.6997 275.83982,78.9057 58.9525,-2.3406 149.8307,-5.2133 165.7765,-62.0166 16.7104,-59.5268 -57.737,-121.4498 -114.522,-145.9068 -91.6945,-39.4923 -198.70232,35.148 -298.24685,27.5053 -95.82043,-7.3568 -180.78191,-64.6912 -279.68256,-69.9911" />
        <path
           sodipodi:nodetypes="czc"
           inkscape:connector-curvature="0"
           id="path1962-2"
           d="m 619.37451,2770.9008 c -0.76753,0.7297 -1.55344,1.4452 -2.35365,2.1489 -5.32444,4.6812 -11.21153,8.7547 -17.40967,12.291 0,0 0,0 0,0 -6.54438,3.7327 -13.44523,6.8502 -20.56013,9.3935 -2.35896,0.8432 -4.75266,1.5925 -7.1723,2.249 -5.9522,1.6155 -12.05952,2.6584 -18.20314,3.2041 -6.14361,0.5458 -12.32332,0.5958 -18.47791,0.2315 0,0 0,0 0,0 -0.94925,-0.056 -1.89789,-0.1231 -2.84584,-0.2006 -5.74589,-0.47 -11.43375,-1.5923 -16.96858,-3.1895 -5.53484,-1.5972 -10.91774,-3.6673 -16.13769,-6.0473 -3.84653,-1.7534 -7.61014,-3.6711 -11.32406,-5.6926 -5.44497,-2.9637 -10.68617,-6.3286 -15.69339,-10.0206 0,0 0,0 0,0 -6.11401,-4.5098 -11.89023,-9.4932 -17.22939,-14.9287 -1.37102,-1.3958 -2.71179,-2.819 -4.0073,-4.2815 -0.11689,-0.2536 -0.23906,-0.4789 -0.36508,-0.6782 -0.42425,-0.6707 -0.8903,-1.0443 -1.33466,-1.2018 l 0,0 c -0.2291,-0.081 -0.45157,-0.1038 -0.65788,-0.078 l 0,0 c -0.1048,0.013 -0.20526,0.038 -0.29994,0.075 0,0 0,0 0,0 -0.0477,0.019 -0.094,0.04 -0.13849,0.064 0,0 0,0 0,0 -0.0931,0.051 -0.17885,0.1139 -0.25505,0.1883 -0.0366,0.036 -0.071,0.074 -0.10295,0.1151 0,0 0,0 0,0 -0.0637,0.081 -0.11759,0.1729 -0.16031,0.2723 0,0 0,0 0,0 l 0,0 c -0.0843,0.1982 -0.12259,0.4306 -0.10372,0.6825 0,0 0,0 0,0 l 0,0 c 0.0373,0.4975 0.30442,1.0805 0.88955,1.6403 0.20426,0.1954 0.44753,0.3885 0.73346,0.5746 1.28631,1.4808 2.61229,2.9188 3.96361,4.3248 5.37998,5.598 11.20922,10.7428 17.39117,15.407 0,0 0,1e-4 0,1e-4 4.98208,3.7599 10.20822,7.2031 15.65202,10.2567 3.86523,2.1682 7.79187,4.2284 11.81704,6.1134 5.22481,2.4465 10.62135,4.5849 16.17966,6.2559 5.55831,1.671 11.27938,2.8727 17.07341,3.4328 1.22408,0.1183 2.45944,0.2127 3.70378,0.2824 6.19266,0.3455 12.59254,0.1118 18.92693,-0.6711 6.33439,-0.7828 12.60044,-2.1134 18.57564,-3.8551 2.57029,-0.7495 5.08719,-1.5715 7.53942,-2.4478 7.40042,-2.6445 14.35105,-5.4665 21.01203,-8.9087 6.39602,-3.3041 12.54597,-7.1823 18.17501,-12.1609 0,0 0,0 0,0 0.38473,-0.3403 0.76714,-0.6859 1.14675,-1.0373 0.93789,-0.9162 2.18738,-2.4308 2.9584,-3.796 0.34856,-0.6172 0.60157,-1.2028 0.69666,-1.6779 0.0435,-0.217 0.0537,-0.4106 0.0262,-0.5735 l 0,0 0,0 0,0 c 0.0851,0.017 0.169,0.049 0.22857,0.075 l 0,0 0,0 c 0.0932,0.073 0.17303,0.1379 0.23029,0.1847 0.11526,0.098 0.13829,0.1206 -0.0127,-0.026 -0.082,-0.057 -0.19774,-0.1566 -0.36417,-0.3011 l 0,0 0,0 c -0.13674,-0.1023 -0.34469,-0.2591 -0.6541,-0.4961 l 0,0 0,0 c -0.15356,-0.027 -0.33961,-0.025 -0.56577,0.011 -0.004,6e-4 -0.007,0 -0.0107,0 -0.45963,0.2274 -0.90966,0.535 -1.35558,0.8875 C 620.78795,2769.5793 620.06747,2770.2787 619.37451,2770.9008 Z"
           style="fill:#000000;fill-opacity:1;stroke:none"
           inkscape:path-effect="#path-effect2967"
           inkscape:original-d="m 448.39549,2754.0778 c 0,0 32.02172,43.982 86.72186,47.5671 54.70011,3.5851 89.46977,-32.651 89.46977,-32.651" />
        <path
           sodipodi:nodetypes="cc"
           inkscape:connector-curvature="0"
           id="path1982-0"
           d="m 602.62915,2780.2568 c -5.03796,-2.9453 -10.1108,-5.8363 -15.30613,-8.4876 -5.19532,-2.6513 -10.51568,-5.062 -15.991,-7.0115 -5.34883,-1.9045 -10.73256,-3.6584 -16.22352,-5.0433 -5.49096,-1.3848 -11.09175,-2.3997 -16.77863,-2.8024 -0.26899,-0.019 -0.538,-0.036 -0.80701,-0.052 -5.82611,-0.3409 -11.63825,-0.501 -17.46177,-0.1906 -5.82353,0.3105 -11.65426,1.0953 -17.30467,2.6243 -11.30097,3.0579 -22.13966,7.8229 -32.02548,13.8878 -1.68217,0.2664 -1.86593,1.4696 -1.37582,2.2515 0.49012,0.7819 1.62688,1.1618 2.63339,-0.1589 9.71451,-5.7575 20.30405,-10.2342 31.26451,-13.0706 5.48026,-1.4182 11.11895,-2.1091 16.72927,-2.3486 5.61032,-0.2395 11.18813,-0.031 16.75914,0.3292 0.43533,0.028 0.87227,0.058 1.31071,0.091 5.39901,0.3839 10.98612,1.0912 16.51547,2.2023 5.52935,1.1111 10.99773,2.6231 16.11146,4.4679 5.32166,1.9198 10.12137,4.4738 14.79006,7.1912 4.66869,2.7174 9.21433,5.5995 14.15815,8.3725 0.92441,0.4735 2.45104,1.0364 3.6837,1.1976 1.23265,0.1611 2.18005,-0.086 1.92065,-1.2899 C 604.66661,2781.5 603.57238,2780.8576 602.62915,2780.2568 Z"
           style="fill:#000000;fill-opacity:1;stroke:none"
           inkscape:path-effect="#path-effect2512-8"
           inkscape:original-d="m 469.11505,2775.0162 c 47.10231,-26.9223 92.0648,-21.176 135.41734,9.1486" />
        <g
           id="g2969"
           transform="matrix(0.88610464,0,0,0.88610464,122.84989,319.1771)">
          <path
             inkscape:original-d="m 985.44881,2765.5046 c 0,0 31.18469,61.0569 89.41989,70.5154 58.2352,9.4585 97.9244,-35.5839 97.9244,-35.5839"
             inkscape:path-effect="#path-effect2477-6"
             style="fill:#000000;fill-opacity:1;stroke:none"
             d="m 1167.1867,2803.0537 c -0.922,0.9457 -1.8691,1.8725 -2.8357,2.7832 -5.9036,5.5611 -12.4743,10.4443 -19.4626,14.6381 0,0 0,0 0,0 -7.1447,4.2859 -14.7413,7.8373 -22.6251,10.5735 -2.5622,0.8893 -5.165,1.6641 -7.7988,2.3212 -6.4191,1.6028 -13.0194,2.4823 -19.632,2.6985 -6.6125,0.2162 -13.237,-0.2289 -19.7652,-1.2712 0,0 0,0 0,0 -1.8766,-0.2989 -3.7439,-0.6515 -5.6012,-1.0538 -5.761,-1.248 -11.37,-3.1862 -16.7452,-5.6227 -5.3752,-2.4365 -10.5183,-5.3699 -15.4168,-8.6275 -5.0129,-3.3341 -9.786,-6.997 -14.4203,-10.8484 -4.6844,-3.893 -9.1306,-8.0971 -13.3422,-12.5266 0,0 0,0 0,0 -6.3498,-6.6815 -12.17973,-13.8725 -17.44196,-21.4741 -1.45306,-2.0993 -2.86178,-4.2274 -4.20584,-6.3954 -0.0595,-0.1954 -0.12262,-0.3785 -0.18899,-0.5499 -0.36108,-0.9324 -0.81578,-1.5165 -1.27609,-1.8319 l 0,0 c -0.23802,-0.1631 -0.47686,-0.2531 -0.70353,-0.2805 l 0,0 c -0.11528,-0.014 -0.22728,-0.012 -0.33415,0.01 0,0 0,0 0,0 -0.0539,0.01 -0.10646,0.022 -0.15746,0.039 0,0 0,0 0,0 -0.10577,0.035 -0.20481,0.086 -0.29452,0.1527 -0.0435,0.032 -0.0847,0.068 -0.12349,0.108 0,0 0,0 0,0 -0.0773,0.079 -0.14456,0.1717 -0.19992,0.2768 0,0 0,0 0,0 l 0,0 c -0.10952,0.2096 -0.17057,0.47 -0.16737,0.7673 0,0 0,0 0,0 l 0,0 c 0.006,0.5859 0.26716,1.3243 0.90485,2.1094 0.1477,0.1819 0.31566,0.3665 0.5054,0.5524 1.32606,2.18 2.71186,4.3166 4.13803,6.4195 5.26396,7.7628 11.11164,15.1222 17.50054,21.9752 0,0 0,0 0,0 4.1576,4.461 8.5578,8.7094 13.2064,12.6634 4.7767,4.063 9.7157,7.9377 14.9282,11.4723 4.886,3.3134 10.0274,6.3079 15.4139,8.8176 5.3865,2.5097 11.0199,4.5334 16.8244,5.8873 2.1775,0.5078 4.4008,0.9369 6.6589,1.2789 6.6439,1.0014 13.549,1.2796 20.3972,0.8438 6.8482,-0.4358 13.6355,-1.5836 20.0923,-3.3045 2.8107,-0.7497 5.5584,-1.6011 8.2313,-2.5306 8.2081,-2.8545 15.8514,-6.1358 23.108,-10.1371 7.2065,-3.9719 14.0581,-8.6561 20.2842,-14.5425 0,0 0,0 0,0 0.5111,-0.4831 1.018,-0.9746 1.52,-1.4752 0.9996,-1.0453 2.3248,-2.7292 3.1758,-4.2392 0.405,-0.7188 0.7051,-1.397 0.8273,-1.9359 0.056,-0.2459 0.074,-0.4624 0.05,-0.6404 l 0,0 0,0 0,0 c -0.012,-0.085 -0.035,-0.161 -0.068,-0.2271 l 0,0 0,0 c 0.1844,0.1441 0.3439,0.2706 0.4584,0.3621 0,0 0,0 0,0 0.1118,0.089 0.1808,0.1452 0.1872,0.1504 0,0 0,0 0,0 0,0 0,0 0,0 0,0 0,0 0,0 0,0 0,0 0,0 0,0 0,0 0,0 0,0 0,0 0,0 7e-4,5e-4 7e-4,5e-4 0,0 0,0 0,0 0,0 -0.01,-0.01 -0.076,-0.061 -0.2285,-0.187 -0.1526,-0.1254 -0.3884,-0.3198 -0.7292,-0.6024 0,0 0,0 0,0 l 0,0 c -0.067,-0.025 -0.1435,-0.042 -0.2304,-0.049 l 0,0 c 0,0 0,0 0,0 -0.1632,-0.01 -0.3613,0.016 -0.6019,0.081 -0.01,0 -0.013,0.01 -0.02,0.012 -0.5185,0.3127 -1.0287,0.717 -1.5348,1.1685 0,0 0,0 0,0 C 1168.6732,2801.5504 1167.9159,2802.3426 1167.1867,2803.0537 Z"
             id="path1962-7-5"
             inkscape:connector-curvature="0"
             sodipodi:nodetypes="czc" />
          <path
             inkscape:original-d="m 1006.4234,2794.4859 c 48.5955,-26.2741 96.93,-25.8514 144.7846,23.6158"
             inkscape:path-effect="#path-effect2469-0"
             style="fill:#000000;fill-opacity:1;stroke:none"
             d="m 1149.7967,2813.6155 c -4.829,-4.2842 -9.7246,-8.4896 -14.8363,-12.4143 -5.1116,-3.9246 -10.443,-7.5693 -16.0871,-10.6835 -1.0262,-0.5662 -2.057,-1.124 -3.0937,-1.6721 -5.1862,-2.741 -10.5271,-5.2126 -16.048,-7.2245 -5.5209,-2.012 -11.2241,-3.5621 -17.0437,-4.4292 -1.1474,-0.171 -2.2964,-0.3312 -3.4478,-0.4784 -5.8485,-0.7442 -11.7432,-1.152 -17.6581,-1.0233 -5.9149,0.1288 -11.8465,0.7989 -17.5984,2.1963 -0.5362,0.1303 -1.0713,0.2646 -1.6052,0.4028 -12.0369,3.1183 -23.4484,8.1277 -34.0801,14.2827 -1.8383,0.3103 -2.1197,1.5454 -1.6446,2.3367 0.4751,0.7913 1.684,1.1537 2.8669,-0.2241 10.5424,-5.915 21.7844,-10.6712 33.5346,-13.5514 0.4428,-0.1085 0.8863,-0.2144 1.3305,-0.3174 5.658,-1.3119 11.4783,-1.8955 17.2577,-1.9532 5.7793,-0.058 11.5139,0.4056 17.1831,1.1735 0.9137,0.1228 1.826,0.2536 2.7374,0.3911 5.5208,0.8326 11.2271,2.0958 16.8448,3.8454 5.6177,1.7495 11.1416,3.9835 16.2638,6.5938 1.0946,0.5577 2.1712,1.1311 3.2275,1.7183 5.4747,3.0434 10.2276,6.71 14.7736,10.5695 4.5461,3.8594 8.8939,7.9189 13.655,12.0063 0.8969,0.7183 2.409,1.6825 3.6721,2.161 1.263,0.4784 2.2875,0.465 2.1944,-0.8354 C 1151.7408,2815.4026 1150.6935,2814.4681 1149.7967,2813.6155 Z"
             id="path1984-3"
             inkscape:connector-curvature="0"
             sodipodi:nodetypes="cc" />
        </g>
        <path
           inkscape:original-d="m 821.88128,2727.6602 c -14.18555,0.6183 -18.77691,34.3132 -18.9069,52.4226 -0.12999,18.1093 4.20318,45.6703 17.86498,50.4241"
           inkscape:path-effect="#path-effect1096-3-2"
           sodipodi:nodetypes="czc"
           inkscape:connector-curvature="0"
           id="path59-5-9"
           d="m 819.29309,2827.4105 c -2.14163,-1.092 -4.05219,-3.0154 -5.62225,-5.1652 -2.58443,-3.6063 -4.25295,-7.9103 -5.62756,-12.3145 0,0 0,0 0,0 -0.48983,-1.5783 -0.94072,-3.1699 -1.36342,-4.7721 -1.0697,-4.055 -1.68639,-8.232 -2.03433,-12.4305 -0.34793,-4.1984 -0.42886,-8.4205 -0.43799,-12.6365 -0.001,-0.7004 2e-5,-1.4009 0.003,-2.1017 0.0192,-4.513 0.59639,-9.0139 1.35122,-13.4667 0.77433,-4.5567 1.72754,-9.0461 2.64929,-13.5192 0.22127,-1.0739 0.45969,-2.1435 0.71693,-3.2085 0,0 0,0 0,0 1.17291,-4.7764 2.569,-9.4597 5.09397,-13.5003 0,0 0,0 0,0 0.98668,-1.5733 2.12123,-3.0334 3.54379,-4.1238 0,0 0,0 0,0 0.81073,-0.6254 1.72964,-1.1307 2.70942,-1.4555 0.63244,0.1328 0.99585,-8e-4 1.2455,-0.3044 0.24965,-0.3035 0.37456,-0.7725 0.33853,-1.2323 -0.036,-0.4599 -0.24866,-0.9101 -0.65521,-1.1233 -0.40654,-0.2132 -1.01758,-0.1825 -1.62631,0.3275 -1.24539,0.379 -2.4029,0.9713 -3.42567,1.7237 0,0 0,0 0,0 -1.77676,1.3164 -3.16195,2.9732 -4.28025,4.7091 0,0 -10e-6,0 -10e-6,0 -2.84251,4.3972 -4.46331,9.3357 -5.72636,14.22 0,0 0,0 0,0 -0.27044,1.0369 -0.52339,2.0773 -0.76023,3.1207 -1.0552,4.6483 -2.13392,9.2972 -3.00167,13.9935 -0.81254,4.3878 -1.44293,8.838 -1.53446,13.3176 -0.0175,0.8591 -0.0212,1.7262 -0.0111,2.5994 0.0466,4.2708 0.41422,8.6959 1.052,13.052 0.63778,4.3562 1.54653,8.6398 2.60298,12.6852 0.42273,1.6187 0.82619,3.2102 1.23655,4.7847 0.60497,2.3324 1.23788,4.6453 2.05034,6.9074 0.81246,2.262 1.80576,4.4772 3.12805,6.5659 1.37669,2.2101 3.25229,4.2926 5.62983,5.7154 0.39763,0.2153 0.94074,0.427 1.51965,0.5554 0.57891,0.1283 1.1917,0.1715 1.71705,0.096 0.52535,-0.075 0.95999,-0.2678 1.21201,-0.5638 0.25202,-0.296 0.31941,-0.6896 0.18229,-1.184 C 820.69444,2828.0555 819.93774,2827.7864 819.29309,2827.4105 Z"
           style="fill:#aa0000;stroke:none" />
        <path
           inkscape:original-d="m 821.94023,2727.6602 c 14.18556,0.6183 18.77689,34.3132 18.9069,52.4226 0.12999,18.1093 -4.20317,45.6703 -17.86501,50.4241"
           inkscape:path-effect="#path-effect1126-9-9"
           style="opacity:0.27999998;fill:#aa0000;stroke:none"
           d="m 826.78694,2831.0169 c 2.61416,-1.8863 4.63066,-4.3414 6.17319,-6.9237 2.5624,-4.2185 4.24228,-8.8034 5.43476,-13.4176 0,0 0,0 0,0 0.42922,-1.6505 0.80289,-3.3127 1.11574,-4.9848 0.79181,-4.2316 1.46636,-8.472 1.92881,-12.7461 0.46244,-4.2741 0.71104,-8.5798 0.64085,-12.8708 -0.0114,-0.7139 -0.0321,-1.4275 -0.0624,-2.1406 -0.19542,-4.5922 -0.30555,-9.1856 -0.61179,-13.779 -0.31154,-4.7007 -0.83597,-9.4348 -2.04052,-14.0306 -0.28917,-1.1033 -0.59858,-2.2019 -0.93009,-3.2946 0,0 0,0 0,0 -1.45847,-4.8673 -3.37841,-9.8053 -6.5137,-13.9935 0,0 0,0 0,0 -1.23303,-1.6537 -2.72982,-3.1905 -4.53735,-4.3121 0,0 0,0 0,0 -1.05741,-0.654 -2.22472,-1.1248 -3.43163,-1.3691 -0.5959,-0.4525 -1.16021,-0.432 -1.51441,-0.186 -0.3542,0.246 -0.51212,0.7116 -0.5181,1.1728 -0.006,0.4612 0.12429,0.9185 0.35435,1.1982 0.23006,0.2796 0.55144,0.3777 1.12434,0.1855 0.88899,0.1951 1.76728,0.564 2.57171,1.0629 0,0 0,0 0,0 1.45331,0.8957 2.69948,2.2357 3.80089,3.7268 0,0 0,0 0,0 2.81778,3.8317 4.51302,8.5147 5.88129,13.2738 0,0 0,0 0,0 0.28712,1.0064 0.55501,2.0188 0.80533,3.0362 1.11504,4.5327 1.53775,9.2242 1.7696,13.9025 0.21483,4.3709 0.26135,8.7238 0.4066,13.0576 0.0279,0.8311 0.0538,1.6693 0.0762,2.5134 0.10699,4.1404 0.14627,8.4337 -0.0509,12.7048 -0.19711,4.2711 -0.63424,8.5197 -1.40182,12.5331 -0.30711,1.6059 -0.70727,3.1637 -1.17694,4.6809 -0.6978,2.2444 -1.54612,4.3983 -2.52829,6.4426 -0.98217,2.0443 -2.09453,3.9775 -3.35564,5.8163 -1.32465,1.8967 -2.78906,3.7221 -4.52541,5.2688 -0.54126,0.5341 -1.32297,1.4425 -1.88114,2.3021 -0.27909,0.4298 -0.49452,0.8573 -0.51814,1.2511 -0.0236,0.3938 0.14831,0.7604 0.67573,1.003 C 824.93119,2832.1748 825.95031,2831.5687 826.78694,2831.0169 Z"
           id="path61-2-9"
           inkscape:connector-curvature="0"
           sodipodi:nodetypes="czc" />
        <g
           id="g2996"
           transform="translate(140,-40)">
          <path
             transform="translate(125.63871,501.66294)"
             d="m -8.9298162,2416.9253 -121.4474438,120.7146 -171.23442,-0.5181 -120.71461,-121.4475 0.51819,-171.2344 121.44744,-120.7146 171.23443,0.5182 L -8.4116253,2245.6909 Z"
             inkscape:randomized="0"
             inkscape:rounded="0"
             inkscape:flatsided="true"
             sodipodi:arg2="0.78842436"
             sodipodi:arg1="0.39572528"
             sodipodi:r2="206.69919"
             sodipodi:r1="223.72958"
             sodipodi:cy="2330.6826"
             sodipodi:cx="-215.36896"
             sodipodi:sides="8"
             id="path2892"
             style="opacity:0.3;color:#000000;color-interpolation:sRGB;color-interpolation-filters:linearRGB;fill:#ffff00;fill-opacity:1;fill-rule:nonzero;stroke:none;stroke-width:1;marker:none;visibility:visible;display:inline;overflow:visible;enable-background:accumulate;clip-rule:nonzero"
             sodipodi:type="star" />
          <path
             inkscape:original-d="m -8.9298162,2416.9253 -121.4474438,120.7146 -171.23442,-0.5181 -120.71461,-121.4475 0.51819,-171.2344 121.44744,-120.7146 171.23443,0.5182 L -8.4116253,2245.6909 Z"
             inkscape:path-effect="#path-effect2504-8"
             id="path2894"
             d="m -6.741179,2381.154 c -0.2358846,-45.3579 -0.2993948,-90.6788 -0.3099056,-136.0218 -40.5872954,-40.6796 -81.0971374,-81.3824 -121.6215454,-121.9744 0,0 -1e-5,-10e-5 -1e-5,-10e-5 -7,-0.01 -13.99942,-0.01 -20.99793,-0.013 -50.39632,-0.021 -100.69971,-0.1921 -151.08836,-0.3889 -40.68414,40.3676 -81.45881,80.7783 -122.08389,121.2521 -10e-6,0 -10e-6,0 -10e-6,0 -0.004,2.241 -0.008,4.482 -0.0119,6.723 -0.0457,27.575 -0.16222,55.1136 -0.31323,82.6843 -0.151,27.5706 -0.33653,55.1734 -0.52021,82.8187 19.27994,19.5383 38.59213,39.1062 57.95,58.6663 19.35787,19.5601 38.76143,39.1124 58.18392,58.5789 1.75395,1.758 3.50777,3.5157 5.26147,5.2733 0,0 10e-6,0 2e-5,0 57.59498,0.063 115.09477,0.1048 172.41746,0.1102 35.426914,-35.3342 70.776014,-70.6597 106.002427,-105.9658 5.560167,-5.1194 9.446342,-9.0995 11.816995,-11.845 2.3706542,-2.7454 3.2290005,-4.2574 2.7775047,-4.4586 -0.4514958,-0.2011 -2.2098717,0.9074 -5.0749837,3.4041 -2.865112,2.4966 -6.83425,6.3803 -11.752129,11.7477 -34.818324,34.9396 -69.736387,69.888 -104.707184,104.8351 -56.7256,-0.079 -113.56421,-0.1942 -170.43552,-0.3281 0,0 -10e-6,0 -2e-5,0 -1.23649,-1.2424 -2.47301,-2.4848 -3.70955,-3.7272 -19.42153,-19.5141 -38.8133,-39.1068 -58.1481,-58.6957 -19.3348,-19.5889 -38.61263,-39.174 -57.85008,-58.7173 0.20798,-26.4409 0.41494,-52.8278 0.58667,-79.1727 0.17173,-26.3449 0.30822,-52.6478 0.37541,-78.9736 0.01,-3.9053 0.0192,-7.8242 0.0277,-11.7558 38.99788,-38.8288 79.61186,-79.4647 120.18233,-120.0794 51.13556,-0.028 102.21871,-0.069 151.26498,-0.039 6.37751,0 12.71888,0.013 19.02719,0.027 1e-5,0 1e-5,0 1e-5,0 20.61435,20.7026 40.709276,41.0196 60.562978,61.1313 19.853702,20.1117 39.466589,40.0186 59.1984035,59.983 -0.2899885,40.4609 -0.5139595,81.136 -0.3858205,123.369 0.06748,9.812 0.3792476,24.8344 0.9053807,35.325 0.5261332,10.4906 1.2712718,16.4606 2.1197908,7.9592 C -6.6498836,2403.567 -6.7278007,2391.6686 -6.741179,2381.154 Z"
             style="color:#000000;color-interpolation:sRGB;color-interpolation-filters:linearRGB;fill:#000000;stroke:#000000;stroke-width:1;marker:none;visibility:visible;display:inline;overflow:visible;enable-background:accumulate;clip-rule:nonzero"
             transform="translate(125.63871,501.66294)"
             inkscape:connector-curvature="0" />
          <path
             inkscape:original-d="m -180.36066,2323.7253 169.983404,413.9146"
             inkscape:path-effect="#path-effect2504-8"
             transform="translate(5.6387085,301.66294)"
             inkscape:connector-curvature="0"
             id="path2932"
             d="m -12.812318,2726.0621 c -14.206522,-32.6904 -27.646148,-65.7527 -41.526987,-98.669 -13.880571,-32.9159 -26.998653,-66.1782 -40.745719,-99.1881 -13.746886,-33.0099 -26.272586,-66.5274 -40.077596,-99.4991 -13.80519,-32.9722 -27.6875,-65.8923 -41.74271,-98.6944 -2.67941,-9.5677 -7.00307,-7.0952 -2.14504,1.1932 13.77412,32.5651 27.37032,65.2513 40.90056,97.9815 13.53007,32.7302 25.79211,65.9976 39.302062,98.7376 13.510234,32.7398 28.908873,68.2759 42.622211,100.8704 13.71343,32.5945 24.537497,62.7394 38.677887,95.0331 2.654653,5.8669 8.9145989,17.6514 8.3659508,11.8986 C -9.9367102,2732.7586 -11.488333,2729.2155 -12.812318,2726.0621 Z"
             style="fill:#aa0000;stroke:none" />
        </g>
      </g>
      <text
         transform="translate(5.6387085,301.66294)"
         sodipodi:linespacing="125%"
         id="text3015"
         y="2283.9844"
         x="45.256557"
         style="font-size:15px;font-style:normal;font-variant:normal;font-weight:500;font-stretch:normal;text-align:start;line-height:125%;letter-spacing:0px;word-spacing:0px;writing-mode:lr-tb;text-anchor:start;fill:#000000;fill-opacity:1;stroke:none;font-family:CMU Serif;-inkscape-font-specification:CMU Serif Medium"
         xml:space="preserve"><tspan
           y="2283.9844"
           x="45.256557"
           id="tspan3017"
           sodipodi:role="line">a</tspan></text>
      <text
         transform="translate(5.6387085,301.66294)"
         sodipodi:linespacing="125%"
         id="text3019"
         y="2344.9673"
         x="191.23106"
         style="font-size:15px;font-style:normal;font-variant:normal;font-weight:500;font-stretch:normal;text-align:start;line-height:125%;letter-spacing:0px;word-spacing:0px;writing-mode:lr-tb;text-anchor:start;fill:#000000;fill-opacity:1;stroke:none;font-family:CMU Serif;-inkscape-font-specification:CMU Serif Medium"
         xml:space="preserve"><tspan
           y="2344.9673"
           x="191.23106"
           id="tspan3021"
           sodipodi:role="line">b</tspan></text>
      <text
         transform="translate(5.6387085,301.66294)"
         sodipodi:linespacing="125%"
         id="text3023"
         y="2491.3081"
         x="251.32928"
         style="font-size:15px;font-style:normal;font-variant:normal;font-weight:500;font-stretch:normal;text-align:start;line-height:125%;letter-spacing:0px;word-spacing:0px;writing-mode:lr-tb;text-anchor:start;fill:#000000;fill-opacity:1;stroke:none;font-family:CMU Serif;-inkscape-font-specification:CMU Serif Medium"
         xml:space="preserve"><tspan
           y="2491.3081"
           x="251.32928"
           id="tspan3025"
           sodipodi:role="line">a^{-1}</tspan></text>
      <text
         transform="translate(5.6387085,301.66294)"
         sodipodi:linespacing="125%"
         id="text3027"
         y="2637.2827"
         x="190.34647"
         style="font-size:15px;font-style:normal;font-variant:normal;font-weight:500;font-stretch:normal;text-align:start;line-height:125%;letter-spacing:0px;word-spacing:0px;writing-mode:lr-tb;text-anchor:start;fill:#000000;fill-opacity:1;stroke:none;font-family:CMU Serif;-inkscape-font-specification:CMU Serif Medium"
         xml:space="preserve"><tspan
           y="2637.2827"
           x="190.34647"
           id="tspan3029"
           sodipodi:role="line">b^{-1}</tspan></text>
      <text
         transform="translate(5.6387085,301.66294)"
         sodipodi:linespacing="125%"
         id="text3031"
         y="2697.3809"
         x="44.005531"
         style="font-size:15px;font-style:normal;font-variant:normal;font-weight:500;font-stretch:normal;text-align:start;line-height:125%;letter-spacing:0px;word-spacing:0px;writing-mode:lr-tb;text-anchor:start;fill:#000000;fill-opacity:1;stroke:none;font-family:CMU Serif;-inkscape-font-specification:CMU Serif Medium"
         xml:space="preserve"><tspan
           y="2697.3809"
           x="44.005531"
           id="tspan3033"
           sodipodi:role="line">c</tspan></text>
      <text
         transform="translate(5.6387085,301.66294)"
         sodipodi:linespacing="125%"
         id="text3035"
         y="2636.3979"
         x="-101.96898"
         style="font-size:15px;font-style:normal;font-variant:normal;font-weight:500;font-stretch:normal;text-align:start;line-height:125%;letter-spacing:0px;word-spacing:0px;writing-mode:lr-tb;text-anchor:start;fill:#000000;fill-opacity:1;stroke:none;font-family:CMU Serif;-inkscape-font-specification:CMU Serif Medium"
         xml:space="preserve"><tspan
           y="2636.3979"
           x="-101.96898"
           id="tspan3037"
           sodipodi:role="line">d</tspan></text>
      <text
         transform="translate(5.6387085,301.66294)"
         sodipodi:linespacing="125%"
         id="text3039"
         y="2490.0571"
         x="-162.06718"
         style="font-size:15px;font-style:normal;font-variant:normal;font-weight:500;font-stretch:normal;text-align:start;line-height:125%;letter-spacing:0px;word-spacing:0px;writing-mode:lr-tb;text-anchor:start;fill:#000000;fill-opacity:1;stroke:none;font-family:CMU Serif;-inkscape-font-specification:CMU Serif Medium"
         xml:space="preserve"><tspan
           y="2490.0571"
           x="-162.06718"
           id="tspan3041"
           sodipodi:role="line">c^{-1}</tspan></text>
      <text
         transform="translate(5.6387085,301.66294)"
         sodipodi:linespacing="125%"
         id="text3043"
         y="2344.0825"
         x="-101.08438"
         style="font-size:15px;font-style:normal;font-variant:normal;font-weight:500;font-stretch:normal;text-align:start;line-height:125%;letter-spacing:0px;word-spacing:0px;writing-mode:lr-tb;text-anchor:start;fill:#000000;fill-opacity:1;stroke:none;font-family:CMU Serif;-inkscape-font-specification:CMU Serif Medium"
         xml:space="preserve"><tspan
           y="2344.0825"
           x="-101.08438"
           id="tspan3045"
           sodipodi:role="line">d^{-1}</tspan></text>
    </g>
  </g>
</svg>
