<?xml version="1.0" encoding="UTF-8" standalone="no"?>
<!-- Created with Inkscape (http://www.inkscape.org/) -->

<svg
   xmlns:dc="http://purl.org/dc/elements/1.1/"
   xmlns:cc="http://creativecommons.org/ns#"
   xmlns:rdf="http://www.w3.org/1999/02/22-rdf-syntax-ns#"
   xmlns:svg="http://www.w3.org/2000/svg"
   xmlns="http://www.w3.org/2000/svg"
   xmlns:sodipodi="http://sodipodi.sourceforge.net/DTD/sodipodi-0.dtd"
   xmlns:inkscape="http://www.inkscape.org/namespaces/inkscape"
   width="806.62762"
   height="311.4061"
   id="svg2791"
   version="1.1"
   inkscape:version="0.48+devel r"
   sodipodi:docname="param-curve.svg">
  <title
     id="title2799">Winter School -- Contact Topology</title>
  <defs
     id="defs2793">
    <inkscape:path-effect
       effect="envelope"
       id="path-effect2381"
       is_visible="true"
       yy="true"
       xx="true"
       bendpath1="m 2598.0626,-1316.1356 c 48.8711,-112.4468 97.0605,-89.6466 156.3897,-55.5779"
       bendpath2="m 2764.9304,-1351.7031 c 78.9958,-3.5973 106.4918,53.84 81.9837,124.53"
       bendpath3="m 2699.9113,-1120.0286 c 38.259,-87.4927 153.0021,-87.1847 185.7536,-64.862"
       bendpath4="m 2609.9615,-1329.3914 c 60.6972,9.8639 62.6162,89.2771 28.8448,161.6471"
       bendpath1-nodetypes="cc"
       bendpath3-nodetypes="cc"
       bendpath2-nodetypes="cc"
       bendpath4-nodetypes="cc" />
    <inkscape:path-effect
       effect="skeletal"
       id="path-effect2481"
       is_visible="true"
       pattern="m 95.054236,0.02624778 c -7.77241,0.72284 -15.55638,0.59508 -23.34732,0.93083 -7.79095,0.33575002 -15.58849,-0.16545 -23.38728,0.0109 -7.7988,0.17634002 -15.59884,-0.96978 -23.39479,-0.72517 -7.79596,0.24461 -15.5878095,0.58027 -23.3702295,1.12082002 -2.15230001,-1.15612002 -2.01174001,3.78271 0.0625,2.4375 7.71127,-0.37053 15.4322995,-0.53042 23.1566795,-0.61261 7.72438,-0.0822 15.45212,1.213 23.1768,1.15327 7.72469,-0.0597 16.17001,-0.80459 23.88219,-1.10773 7.71218,-0.30315 14.69083,1.13589 22.3777,0.32345 1.40356,-0.22689 4.29984,-1.54077 3.09375,-3.21875002 C 96.643456,-0.08987222 95.800066,-5.9221925e-4 95.054236,0.02624778 Z"
       copytype="single_stretched"
       prop_scale="1"
       scale_y_rel="false"
       spacing="0"
       normal_offset="0"
       tang_offset="0"
       prop_units="false"
       vertical_pattern="false"
       fuse_tolerance="0" />
    <inkscape:path-effect
       effect="skeletal"
       id="path-effect2540"
       is_visible="true"
       pattern="m 95.054236,0.02624778 c -7.77241,0.72284 -15.55638,0.59508 -23.34732,0.93083 -7.79095,0.33575002 -15.58849,-0.16545 -23.38728,0.0109 -7.7988,0.17634002 -15.59884,-0.96978 -23.39479,-0.72517 -7.79596,0.24461 -15.5878095,0.58027 -23.3702295,1.12082002 -2.15230001,-1.15612002 -2.01174001,3.78271 0.0625,2.4375 7.71127,-0.37053 15.4322995,-0.53042 23.1566795,-0.61261 7.72438,-0.0822 15.45212,1.213 23.1768,1.15327 7.72469,-0.0597 16.17001,-0.80459 23.88219,-1.10773 7.71218,-0.30315 14.69083,1.13589 22.3777,0.32345 1.40356,-0.22689 4.29984,-1.54077 3.09375,-3.21875002 C 96.643456,-0.08987222 95.800066,-5.9221925e-4 95.054236,0.02624778 Z"
       copytype="single_stretched"
       prop_scale="1"
       scale_y_rel="false"
       spacing="0"
       normal_offset="0"
       tang_offset="0"
       prop_units="false"
       vertical_pattern="false"
       fuse_tolerance="0" />
  </defs>
  <sodipodi:namedview
     id="base"
     pagecolor="#ffffff"
     bordercolor="#666666"
     borderopacity="1.0"
     inkscape:pageopacity="0.0"
     inkscape:pageshadow="2"
     inkscape:zoom="0.78651685"
     inkscape:cx="403.3138"
     inkscape:cy="155.70303"
     inkscape:document-units="px"
     inkscape:current-layer="layer1"
     showgrid="false"
     fit-margin-top="0"
     fit-margin-left="0"
     fit-margin-right="0"
     fit-margin-bottom="0" />
  <metadata
     id="metadata2796">
    <rdf:RDF>
      <cc:Work
         rdf:about="">
        <dc:format>image/svg+xml</dc:format>
        <dc:type
           rdf:resource="http://purl.org/dc/dcmitype/StillImage" />
        <dc:title>Winter School -- Contact Topology</dc:title>
        <dc:date>2013</dc:date>
        <dc:creator>
          <cc:Agent>
            <dc:title>Marek Kaluba</dc:title>
          </cc:Agent>
        </dc:creator>
        <dc:rights>
          <cc:Agent>
            <dc:title>Marek Kaluba</dc:title>
          </cc:Agent>
        </dc:rights>
      </cc:Work>
    </rdf:RDF>
  </metadata>
  <g
     inkscape:label="Layer 1"
     inkscape:groupmode="layer"
     id="layer1"
     transform="translate(28.3138,-376.6591)">
    <g
       transform="translate(-2186.6262,1813.8454)"
       id="g2637">
      <path
         sodipodi:nodetypes="cscscscsc"
         inkscape:connector-curvature="0"
         id="rect2258"
         d="m 2604.3644,-1320.7346 c 23.465,-11.4484 24.8959,-59.0326 58.1833,-70.746 27.1238,-9.5445 54.5997,8.1129 96.8422,30.2336 12.2378,14.991 61.2138,13.5121 81.1657,45.4743 16.2392,26.0146 7.8916,72.7797 23.5145,114.6657 -17.7147,2.6049 -46.0967,6.3808 -81.2207,13.9999 -32.3488,7.0171 -54.9336,35.1217 -114.0838,48.6773 -27.5691,-40.9342 -5.0183,-119.2687 -13.6338,-142.1186 C 2646.4409,-1303.5985 2633.6777,-1309.8484 2604.3644,-1320.7346 Z"
         style="opacity:0.15;fill:#0000ff;fill-opacity:1;fill-rule:nonzero;stroke:none" />
      <g
         transform="translate(504.9405,471.81661)"
         id="g518">
        <text
           sodipodi:linespacing="125%"
           id="text1158-4"
           y="-1698.6924"
           x="2407.9136"
           style="font-size:15px;font-style:normal;font-variant:normal;font-weight:500;font-stretch:normal;text-align:start;line-height:125%;letter-spacing:0px;word-spacing:0px;writing-mode:lr-tb;text-anchor:start;fill:#000000;fill-opacity:1;stroke:none;font-family:CMU Serif;-inkscape-font-specification:CMU Serif Medium"
           xml:space="preserve"><tspan
             y="-1698.6924"
             x="2407.9136"
             id="tspan1160-4"
             sodipodi:role="line">y</tspan></text>
        <text
           sodipodi:linespacing="125%"
           id="text1162-0"
           y="-1896.2976"
           x="2245.0063"
           style="font-size:15px;font-style:normal;font-variant:normal;font-weight:500;font-stretch:normal;text-align:start;line-height:125%;letter-spacing:0px;word-spacing:0px;writing-mode:lr-tb;text-anchor:start;fill:#000000;fill-opacity:1;stroke:none;font-family:CMU Serif;-inkscape-font-specification:CMU Serif Medium"
           xml:space="preserve"><tspan
             y="-1896.2976"
             x="2245.0063"
             id="tspan1164-9"
             sodipodi:role="line">z</tspan></text>
        <text
           sodipodi:linespacing="125%"
           id="text1166-7"
           y="-1597.5968"
           x="2118.9106"
           style="font-size:15px;font-style:normal;font-variant:normal;font-weight:500;font-stretch:normal;text-align:start;line-height:125%;letter-spacing:0px;word-spacing:0px;writing-mode:lr-tb;text-anchor:start;fill:#000000;fill-opacity:1;stroke:none;font-family:CMU Serif;-inkscape-font-specification:CMU Serif Medium"
           xml:space="preserve"><tspan
             y="-1597.5968"
             x="2118.9106"
             id="tspan1168-1"
             sodipodi:role="line">x</tspan></text>
      </g>
      <path
         inkscape:connector-curvature="0"
         id="path2157"
         d="m 2203.551,-1153.4041 0,-210.5035"
         style="fill:none;stroke:#000000;stroke-width:1px;stroke-linecap:butt;stroke-linejoin:miter;stroke-opacity:1" />
      <path
         inkscape:connector-curvature="0"
         id="path2159"
         d="m 2158.3124,-1202.1696 270.75,0"
         style="fill:none;stroke:#000000;stroke-width:1px;stroke-linecap:butt;stroke-linejoin:miter;stroke-opacity:1" />
      <rect
         y="-1329.3914"
         x="2229.9614"
         height="105.79105"
         width="172.29288"
         id="rect2161"
         style="opacity:0.15;fill:#0000ff;fill-opacity:1;fill-rule:nonzero;stroke:none" />
      <g
         transform="translate(60,-20)"
         id="g2568">
        <path
           style="fill:none;stroke:#000000;stroke-width:1px;stroke-linecap:butt;stroke-linejoin:miter;stroke-opacity:1"
           d="m 2670.6587,-1221.8688 -127.1963,101.1359"
           id="path2163"
           inkscape:connector-curvature="0" />
        <path
           style="fill:none;stroke:#000000;stroke-width:1px;stroke-linecap:butt;stroke-linejoin:miter;stroke-opacity:1"
           d="m 2670.6587,-1221.8688 172.8324,36.7302"
           id="path2165"
           inkscape:connector-curvature="0" />
        <path
           style="fill:none;stroke:#000000;stroke-width:1px;stroke-linecap:butt;stroke-linejoin:miter;stroke-opacity:1"
           d="m 2670.6587,-1221.8688 0,-195.3175"
           id="path2167"
           inkscape:connector-curvature="0" />
      </g>
      <path
         inkscape:connector-curvature="0"
         id="path2169"
         d="m 2239.4677,-1329.3914 0,105.791"
         style="opacity:0.3;fill:none;stroke:#000000;stroke-width:1px;stroke-linecap:butt;stroke-linejoin:miter;stroke-opacity:1" />
      <path
         style="opacity:0.3;fill:none;stroke:#000000;stroke-width:1px;stroke-linecap:butt;stroke-linejoin:miter;stroke-opacity:1"
         d="m 2249.4677,-1329.3914 0,105.791"
         id="path2171"
         inkscape:connector-curvature="0" />
      <path
         inkscape:connector-curvature="0"
         id="path2173"
         d="m 2259.4677,-1329.3914 0,105.791"
         style="opacity:0.3;fill:none;stroke:#000000;stroke-width:1px;stroke-linecap:butt;stroke-linejoin:miter;stroke-opacity:1" />
      <path
         style="opacity:0.3;fill:none;stroke:#000000;stroke-width:1px;stroke-linecap:butt;stroke-linejoin:miter;stroke-opacity:1"
         d="m 2269.4677,-1329.3914 0,105.791"
         id="path2175"
         inkscape:connector-curvature="0" />
      <path
         inkscape:connector-curvature="0"
         id="path2177"
         d="m 2279.4677,-1329.3914 0,105.791"
         style="opacity:0.3;fill:none;stroke:#000000;stroke-width:1px;stroke-linecap:butt;stroke-linejoin:miter;stroke-opacity:1" />
      <path
         style="opacity:0.3;fill:none;stroke:#000000;stroke-width:1px;stroke-linecap:butt;stroke-linejoin:miter;stroke-opacity:1"
         d="m 2289.4677,-1329.3914 0,105.791"
         id="path2179"
         inkscape:connector-curvature="0" />
      <path
         inkscape:connector-curvature="0"
         id="path2181"
         d="m 2299.4677,-1329.3914 0,105.791"
         style="opacity:0.3;fill:none;stroke:#000000;stroke-width:1px;stroke-linecap:butt;stroke-linejoin:miter;stroke-opacity:1" />
      <path
         style="opacity:0.3;fill:none;stroke:#000000;stroke-width:1px;stroke-linecap:butt;stroke-linejoin:miter;stroke-opacity:1"
         d="m 2309.4677,-1329.3914 0,105.791"
         id="path2183"
         inkscape:connector-curvature="0" />
      <path
         inkscape:connector-curvature="0"
         id="path2185"
         d="m 2319.4677,-1329.3914 0,105.791"
         style="opacity:0.3;fill:none;stroke:#000000;stroke-width:1px;stroke-linecap:butt;stroke-linejoin:miter;stroke-opacity:1" />
      <path
         style="fill:none;stroke:#ff0000;stroke-width:1px;stroke-linecap:butt;stroke-linejoin:miter;stroke-opacity:1"
         d="m 2329.4677,-1329.3914 0,105.791"
         id="path2187"
         inkscape:connector-curvature="0" />
      <path
         inkscape:connector-curvature="0"
         id="path2189"
         d="m 2339.4677,-1329.3914 0,105.791"
         style="opacity:0.3;fill:none;stroke:#000000;stroke-width:1px;stroke-linecap:butt;stroke-linejoin:miter;stroke-opacity:1" />
      <path
         style="opacity:0.3;fill:none;stroke:#000000;stroke-width:1px;stroke-linecap:butt;stroke-linejoin:miter;stroke-opacity:1"
         d="m 2349.4677,-1329.3914 0,105.791"
         id="path2191"
         inkscape:connector-curvature="0" />
      <path
         inkscape:connector-curvature="0"
         id="path2193"
         d="m 2359.4677,-1329.3914 0,105.791"
         style="opacity:0.3;fill:none;stroke:#000000;stroke-width:1px;stroke-linecap:butt;stroke-linejoin:miter;stroke-opacity:1" />
      <path
         style="opacity:0.3;fill:none;stroke:#000000;stroke-width:1px;stroke-linecap:butt;stroke-linejoin:miter;stroke-opacity:1"
         d="m 2369.4677,-1329.3914 0,105.791"
         id="path2195"
         inkscape:connector-curvature="0" />
      <path
         inkscape:connector-curvature="0"
         id="path2197"
         d="m 2379.4677,-1329.3914 0,105.791"
         style="opacity:0.3;fill:none;stroke:#000000;stroke-width:1px;stroke-linecap:butt;stroke-linejoin:miter;stroke-opacity:1" />
      <path
         style="opacity:0.3;fill:none;stroke:#000000;stroke-width:1px;stroke-linecap:butt;stroke-linejoin:miter;stroke-opacity:1"
         d="m 2389.4677,-1329.3914 0,105.791"
         id="path2199"
         inkscape:connector-curvature="0" />
      <path
         inkscape:connector-curvature="0"
         id="path2201"
         d="m 2399.4677,-1329.3914 0,105.791"
         style="opacity:0.3;fill:none;stroke:#000000;stroke-width:1px;stroke-linecap:butt;stroke-linejoin:miter;stroke-opacity:1" />
      <path
         inkscape:connector-curvature="0"
         id="path2203"
         d="m 2229.9615,-1329.3914 172.2928,0"
         style="opacity:0.3;fill:none;stroke:#000000;stroke-width:1px;stroke-linecap:butt;stroke-linejoin:miter;stroke-opacity:1" />
      <path
         style="opacity:0.3;fill:none;stroke:#000000;stroke-width:1px;stroke-linecap:butt;stroke-linejoin:miter;stroke-opacity:1"
         d="m 2229.9615,-1319.3914 172.2928,0"
         id="path2205"
         inkscape:connector-curvature="0" />
      <path
         inkscape:connector-curvature="0"
         id="path2207"
         d="m 2229.9615,-1309.3914 172.2928,0"
         style="opacity:0.3;fill:none;stroke:#000000;stroke-width:1px;stroke-linecap:butt;stroke-linejoin:miter;stroke-opacity:1" />
      <path
         style="opacity:0.3;fill:none;stroke:#000000;stroke-width:1px;stroke-linecap:butt;stroke-linejoin:miter;stroke-opacity:1"
         d="m 2229.9615,-1299.3914 172.2928,0"
         id="path2209"
         inkscape:connector-curvature="0" />
      <path
         inkscape:connector-curvature="0"
         id="path2211"
         d="m 2229.9615,-1289.3914 172.2928,0"
         style="fill:none;stroke:#0000ff;stroke-width:1px;stroke-linecap:butt;stroke-linejoin:miter;stroke-opacity:1" />
      <path
         style="opacity:0.3;fill:none;stroke:#000000;stroke-width:1px;stroke-linecap:butt;stroke-linejoin:miter;stroke-opacity:1"
         d="m 2229.9615,-1279.3914 172.2928,0"
         id="path2213"
         inkscape:connector-curvature="0" />
      <path
         inkscape:connector-curvature="0"
         id="path2215"
         d="m 2229.9615,-1269.3914 172.2928,0"
         style="opacity:0.3;fill:none;stroke:#000000;stroke-width:1px;stroke-linecap:butt;stroke-linejoin:miter;stroke-opacity:1" />
      <path
         style="opacity:0.3;fill:none;stroke:#000000;stroke-width:1px;stroke-linecap:butt;stroke-linejoin:miter;stroke-opacity:1"
         d="m 2229.9615,-1259.3914 172.2928,0"
         id="path2217"
         inkscape:connector-curvature="0" />
      <path
         inkscape:connector-curvature="0"
         id="path2219"
         d="m 2229.9615,-1249.3914 172.2928,0"
         style="opacity:0.3;fill:none;stroke:#000000;stroke-width:1px;stroke-linecap:butt;stroke-linejoin:miter;stroke-opacity:1" />
      <path
         style="opacity:0.3;fill:none;stroke:#000000;stroke-width:1px;stroke-linecap:butt;stroke-linejoin:miter;stroke-opacity:1"
         d="m 2229.9615,-1239.3914 172.2928,0"
         id="path2221"
         inkscape:connector-curvature="0" />
      <path
         inkscape:connector-curvature="0"
         id="path2223"
         d="m 2229.9615,-1229.3914 172.2928,0"
         style="opacity:0.3;fill:none;stroke:#000000;stroke-width:1px;stroke-linecap:butt;stroke-linejoin:miter;stroke-opacity:1" />
      <path
         style="opacity:0.3;fill:none;stroke:#000000;stroke-width:1px;stroke-linecap:butt;stroke-linejoin:miter;stroke-opacity:1"
         d="m 2229.9615,-1229.3914 172.2928,0"
         id="path2225"
         inkscape:connector-curvature="0" />
      <path
         inkscape:connector-curvature="0"
         inkscape:original-d="m 2609.9615,-1229.3914 172.2928,0 m -172.2928,0 172.2928,0 m -172.2928,-10 172.2928,0 m -172.2928,-10 172.2928,0 m -172.2928,-10 172.2928,0 m -172.2928,-10 172.2928,0 m -172.2928,-10 172.2928,0 m -172.2928,-10 172.2928,0 m -172.2928,-10 172.2928,0 m -172.2928,-10 172.2928,0 m -172.2928,-10 172.2928,0 m -172.2928,-10 172.2928,0 m -2.7866,0 0,105.791 m -10,-105.791 0,105.791 m -10,-105.791 0,105.791 m -10,-105.791 0,105.791 m -10,-105.791 0,105.791 m -10,-105.791 0,105.791 m -10,-105.791 0,105.791 m -10,-105.791 0,105.791 m -10,-105.791 0,105.791 m -10,-105.791 0,105.791 m -10,-105.791 0,105.791 m -10,-105.791 0,105.791 m -10,-105.791 0,105.791 m -10,-105.791 0,105.791 m -10,-105.791 0,105.791 m -10,-105.791 0,105.791 m -10,-105.791 0,105.791"
         inkscape:path-effect="#path-effect2381"
         d="m 2660.5184,-1155.307 c 9.5759,-0.129 18.1254,-1.8631 26.2179,-4.5111 8.0924,-2.6481 15.7255,-6.2068 23.2554,-10.0427 7.1086,-3.619 14.1022,-7.4728 21.1298,-11.1087 3.554,-1.833 7.1002,-3.6146 10.6421,-5.3112 0,0 0,0 0,0 8.1775,-3.9067 16.2716,-7.3554 24.2182,-10.1242 6.6661,-2.3286 13.2503,-4.2605 19.6698,-5.8153 0.3331,-0.082 0.6661,-0.1623 0.999,-0.2419 0,0 0,0 0,0 5.856,-1.4085 11.6926,-2.5336 17.4501,-3.4647 0,0 0,0 0,0 6.5148,-1.048 12.9377,-1.784 19.1852,-2.4852 3.2389,-0.3606 6.4188,-0.7102 9.533,-1.1033 5.9637,-0.7552 11.7203,-1.6202 17.1727,-3.0161 3.4783,-0.9052 6.8869,-1.9911 10.1182,-3.4013 m -199.5914,60.6257 c 9.5759,-0.129 18.1254,-1.8631 26.2179,-4.5111 8.0924,-2.6481 15.7255,-6.2068 23.2554,-10.0427 7.1086,-3.619 14.1022,-7.4728 21.1298,-11.1087 3.554,-1.833 7.1002,-3.6146 10.6421,-5.3112 0,0 0,0 0,0 8.1775,-3.9067 16.2716,-7.3554 24.2182,-10.1242 6.6661,-2.3286 13.2503,-4.2605 19.6698,-5.8153 0.3331,-0.082 0.6661,-0.1623 0.999,-0.2419 0,0 0,0 0,0 5.856,-1.4085 11.6926,-2.5336 17.4501,-3.4647 0,0 0,0 0,0 6.5148,-1.048 12.9377,-1.784 19.1852,-2.4852 3.2389,-0.3606 6.4188,-0.7102 9.533,-1.1033 5.9637,-0.7552 11.7203,-1.6202 17.1727,-3.0161 3.4783,-0.9052 6.8869,-1.9911 10.1182,-3.4013 m -205.3779,35.7812 c 8.9951,0.8015 17.0276,-0.1907 24.6531,-2.231 7.6255,-2.0404 14.8423,-5.1258 22.0089,-8.588 6.7701,-3.2655 13.447,-6.8416 20.1808,-10.2462 3.4002,-1.7053 6.7944,-3.3677 10.1878,-4.9482 0,0 0,0 0,0 7.8323,-3.6231 15.5014,-6.8213 22.9784,-9.311 6.2368,-2.0905 12.3998,-3.8783 18.4385,-5.372 0.3138,-0.08 0.6281,-0.1591 0.9429,-0.2375 0,0 0,0 0,0 5.5246,-1.393 11.2233,-2.5761 17.0358,-3.6624 0,0 0,0 0,0 6.5978,-1.2189 13.3644,-2.164 20.1935,-3.1694 3.5476,-0.5149 7.0832,-1.0389 10.5978,-1.6341 6.7331,-1.1458 13.4725,-2.4805 20.06,-4.551 4.1955,-1.3508 8.425,-2.9094 12.5425,-4.9416 m -200.8396,35.7657 c 8.3143,1.8082 15.7347,1.6097 22.8016,0.211 7.0669,-1.3986 13.7789,-3.9944 20.4949,-7.0777 6.3464,-2.9076 12.6393,-6.2201 19.0292,-9.4242 3.224,-1.5993 6.4512,-3.1699 9.6885,-4.6679 0,0 0,0 0,0 7.4707,-3.4255 14.7909,-6.4808 21.958,-8.8306 5.9602,-1.9713 11.8931,-3.6942 17.772,-5.1714 0.3057,-0.08 0.6124,-0.1588 0.9199,-0.2373 0,0 0,0 0,0 5.3911,-1.3974 11.0879,-2.6267 17.0287,-3.8229 0,0 0,0 0,0 6.7516,-1.3412 13.8442,-2.4532 21.15,-3.723 3.7975,-0.6506 7.6161,-1.3345 11.4448,-2.1213 7.3356,-1.5137 14.8087,-3.326 22.2049,-6.0874 4.7113,-1.7943 9.4913,-3.8709 14.1562,-6.5857 m -197.0978,35.8847 c 7.5988,2.8767 14.3663,3.5033 20.8297,2.7583 6.4634,-0.7449 12.6219,-2.8586 18.8359,-5.5794 5.8729,-2.5655 11.7377,-5.6425 17.748,-8.6809 3.0312,-1.5144 6.0787,-3.017 9.1505,-4.4587 0,0 0,0 0,0 7.0882,-3.2936 14.088,-6.2798 21.0162,-8.5722 5.7536,-1.9225 11.5449,-3.6227 17.3595,-5.0991 0.3025,-0.08 0.6062,-0.1593 0.911,-0.2381 0,0 0,0 0,0 5.3417,-1.404 11.078,-2.6584 17.1415,-3.9225 0,0 0,0 0,0 6.8928,-1.4173 14.2348,-2.6498 21.8765,-4.1395 3.9717,-0.7641 7.9859,-1.5882 12.0289,-2.5498 7.7456,-1.8482 15.6987,-4.123 23.593,-7.5641 5.0317,-2.2256 10.1277,-4.8294 15.0699,-8.2305 m -193.53,35.9981 c 7.0691,3.892 13.301,5.2857 19.2356,5.1348 5.9345,-0.1509 11.5711,-1.8435 17.2911,-4.2599 5.4063,-2.2784 10.8312,-5.1734 16.445,-8.0953 2.8305,-1.4553 5.6892,-2.9153 8.5866,-4.3254 0,0 0,0 0,0 6.6854,-3.2204 13.3584,-6.19 20.0563,-8.4652 5.5588,-1.9079 11.2252,-3.5952 16.9819,-5.0536 0.2996,-0.079 0.6004,-0.1575 0.9026,-0.2354 0,0 0,0 0,0 5.2954,-1.3882 11.0437,-2.623 17.1614,-3.8912 0,0 0,0 0,0 6.9543,-1.4219 14.4121,-2.6898 22.1923,-4.3037 4.0431,-0.8285 8.1349,-1.7413 12.2567,-2.8239 7.8963,-2.0795 16.0028,-4.7074 23.9922,-8.6971 5.0947,-2.5725 10.2179,-5.6134 15.1181,-9.5789 m -189.7054,35.8243 c 6.805,4.7038 12.683,6.6868 18.2164,6.9723 5.5333,0.2854 10.722,-1.124 15.991,-3.356 4.9807,-2.1044 9.9782,-4.9145 15.1965,-7.7998 2.6304,-1.4369 5.2976,-2.8906 8.0163,-4.3012 0,0 0,0 0,0 6.2728,-3.2217 12.6043,-6.2268 19.057,-8.5007 5.3523,-1.9068 10.8802,-3.5641 16.5451,-4.9493 0.2947,-0.075 0.591,-0.1498 0.8886,-0.2237 0,0 0,0 0,0 5.2154,-1.3176 10.9185,-2.447 16.996,-3.606 0,0 0,0 0,0 6.9088,-1.2985 14.3283,-2.4412 22.035,-3.9875 4.0049,-0.7936 8.0491,-1.6874 12.1069,-2.7742 7.7737,-2.0876 15.6979,-4.8113 23.3757,-9.0384 4.8962,-2.7231 9.7643,-5.9759 14.3229,-10.2274 m -185.4314,34.8549 c 6.874,4.876 12.6262,6.9533 17.9202,7.2758 5.294,0.3224 10.1301,-1.1076 15.0069,-3.398 4.6109,-2.1596 9.2023,-5.0591 14.0348,-8.0441 2.435,-1.4872 4.9123,-2.9937 7.4522,-4.4553 0,0 0,0 10e-5,0 5.86,-3.3392 11.8457,-6.4524 18.054,-8.7415 5.1467,-1.9196 10.5402,-3.518 16.0995,-4.744 0.2892,-0.067 0.5801,-0.133 0.8724,-0.1981 0,0 0,0 0,0 5.121,-1.1631 10.7464,-2.0564 16.7174,-2.9269 0,0 0,0 0,0 6.7887,-0.9728 14.0528,-1.7259 21.5139,-2.8654 3.8782,-0.5831 7.7711,-1.2618 11.6438,-2.1321 7.4194,-1.6734 14.8699,-3.9797 21.8759,-7.7923 4.4654,-2.4602 8.828,-5.4454 12.7827,-9.4054 m -181.0115,32.9656 c 6.7641,4.0384 12.268,5.4491 17.2337,5.2071 4.9658,-0.242 9.3942,-2.1344 13.8423,-4.8319 4.2066,-2.5435 8.3737,-5.7781 12.8161,-9.0593 2.2376,-1.6374 4.5265,-3.2837 6.8936,-4.8733 0,0 0,0 0,0 5.4608,-3.6355 11.1413,-6.9832 17.1735,-9.3517 5.0005,-1.9866 10.3363,-3.5265 15.8666,-4.5217 0.2878,-0.055 0.5771,-0.1085 0.8679,-0.1607 0,0 0,0 0,0 5.0957,-0.9344 10.7013,-1.4574 16.6069,-1.8394 0,0 0,0 0,0 6.7141,-0.4215 13.8468,-0.4814 21.0839,-0.8068 3.7624,-0.1618 7.5152,-0.3868 11.2173,-0.7676 7.0931,-0.7363 14.1108,-1.9763 20.5413,-4.5288 4.0951,-1.6587 8.041,-3.7519 11.5331,-6.6738 m -177.4996,31.0785 c 6.251,2.2066 11.2462,2.2032 15.7064,0.8022 4.4603,-1.4011 8.387,-4.1977 12.3526,-7.661 3.7509,-3.2663 7.4826,-7.1037 11.5478,-10.9135 2.0475,-1.907 4.1631,-3.8037 6.3788,-5.6255 0,0 0,0 0,0 5.1119,-4.1748 10.5905,-7.9655 16.6015,-10.573 4.9905,-2.1887 10.4348,-3.7468 16.1174,-4.5095 0.2955,-0.043 0.5926,-0.083 0.8912,-0.1215 0,0 0,0 0,0 5.235,-0.6912 10.9669,-0.7633 16.9372,-0.5091 0,0 0,0 0,0 6.7829,0.2958 13.9048,1.1636 21.0569,1.9737 3.7173,0.4254 7.4087,0.842 11.0348,1.1677 6.9475,0.6162 13.7623,0.9584 19.9758,0.3464 3.955,-0.4206 7.7612,-1.1243 11.1529,-2.4165 m -175.236,30.195 c 5.2369,0.071 9.4336,-1.6331 13.2127,-4.4719 3.7791,-2.8387 7.1425,-6.8103 10.6081,-11.3095 3.2768,-4.2442 6.6047,-8.9449 10.3436,-13.5477 1.8852,-2.3144 3.8632,-4.6012 5.9694,-6.7956 0,0 0,0 0,0 4.8603,-5.0445 10.3032,-9.6061 16.5214,-12.7401 5.1852,-2.6337 10.9739,-4.3782 17.0612,-4.9857 0.3163,-0.034 0.6339,-0.064 0.9529,-0.092 0,0 0,0 0,0 5.6017,-0.4984 11.6391,-0.093 17.8129,0.8821 0,0 0,0 0,0 7.0007,1.1068 14.204,3.034 21.3676,5.1212 3.7189,1.0846 7.404,2.2149 11.0289,3.3173 6.9436,2.1048 13.7473,4.1485 20.098,5.5729 4.0456,0.8862 7.9857,1.6061 11.6446,1.951 m -173.0373,30.7169 c 4.3101,-2.0701 7.8022,-5.5881 10.9786,-10.0462 3.1765,-4.458 6.0395,-9.8542 9.0391,-15.676 2.8317,-5.4933 5.7795,-11.3729 9.214,-17.1047 1.7374,-2.8991 3.5969,-5.7598 5.6184,-8.5144 0,0 0,0 0,0 4.6676,-6.3576 10.2292,-12.1381 16.918,-16.1974 5.6232,-3.4165 12.053,-5.5731 18.8745,-6.125 0.3537,-0.029 0.7085,-0.054 1.0642,-0.074 0,0 0,0 0,0 6.2639,-0.3643 12.8232,0.5681 19.3303,2.3865 0,0 0,0 0,0 7.3511,2.054 14.6489,5.2101 21.7459,8.7181 3.6744,1.8161 7.2947,3.72 10.8531,5.6404 6.8124,3.6755 13.4135,7.4152 19.7082,10.7302 4.0216,2.1149 7.9314,4.0717 11.6812,5.7501 m -2.8368,-1.3067 c 6.0305,4.643 12.452,8.1704 19.0475,11.2415 6.7883,3.1757 13.6718,5.8601 20.3153,8.6841 0,0 0,0 0,0 3.8846,1.6678 7.6835,3.3467 11.3357,5.1395 4.7755,2.3292 9.2921,4.8755 13.3898,7.7381 4.0977,2.8625 7.7749,6.0404 10.9067,9.5723 0,0 0,0 0,0 2.4912,2.78 4.6669,5.7866 6.4905,9.0204 2.9832,5.205 5.0796,10.9928 6.5555,17.2196 1.476,6.2268 2.3341,12.8875 2.9845,19.818 0.1794,1.8939 0.3445,3.8093 0.505,5.7433 0,0 0,0 0,0 0.8302,10.1483 1.4981,20.8163 3.5939,32.0052 2.0959,11.1889 5.634,22.8924 12.3926,35.2647 M 2745.948,-1367.931 c 5.855,5.756 12.2992,10.4495 19.038,14.767 6.9366,4.4774 13.9866,8.5356 20.6625,12.7639 0,0 0,0 0,0 3.8717,2.5027 7.6084,4.9787 11.1342,7.5039 4.5764,3.2555 8.8316,6.5866 12.6152,10.0561 3.7836,3.4695 7.0941,7.0764 9.8318,10.8427 0,0 0,0 0,0 2.1984,2.9458 4.1,6.0055 5.6852,9.1837 2.6713,5.1238 4.5784,10.6788 6.0032,16.5694 1.4248,5.8907 2.37,12.1122 3.252,18.5556 0.2451,1.763 0.4874,3.5456 0.7363,5.346 0,0 0,0 0,0 1.279,9.4818 2.5939,19.4454 5.5899,29.9594 2.9959,10.5139 7.6866,21.5722 15.9422,33.3811 m -121.6746,-175.032 c 5.6602,6.8184 12.0482,12.5562 18.8185,17.9405 6.9692,5.5849 14.0859,10.7702 20.7426,16.125 0,0 0,0 0,0 3.8414,3.1706 7.5155,6.285 10.9353,9.3983 4.4164,4.0057 8.4672,7.9789 12.013,11.9548 3.5458,3.9759 6.5853,7.9533 9.0419,11.9421 0,0 0,0 0,0 1.9884,3.1092 3.6976,6.2458 5.1228,9.4188 2.4607,5.1206 4.2609,10.5474 5.6945,16.228 1.4336,5.6806 2.5032,11.6104 3.6243,17.7263 0.312,1.6748 0.6299,3.3677 0.9633,5.0776 0,0 0,0 0,0 1.7116,9.0284 3.6247,18.5058 7.3951,28.5417 3.7704,10.0359 9.4114,20.6246 18.8196,31.987 M 2723.1,-1380.3349 c 5.5013,7.8141 11.8213,14.4871 18.5816,20.7914 6.9591,6.5355 14.1036,12.657 20.7327,18.927 0,0 0,0 0,0 3.8152,3.7117 7.4418,7.3443 10.7842,10.9368 4.3031,4.6226 8.2067,9.1308 11.5828,13.5381 3.3761,4.4073 6.2236,8.7125 8.4872,12.9168 0,0 0,0 10e-5,0 1.8431,3.2719 3.4211,6.5047 4.7423,9.7113 2.3221,5.1781 4.0662,10.5574 5.5356,16.1228 1.4694,5.5654 2.6669,11.3126 4.0033,17.2167 0.3716,1.6178 0.7559,3.252 1.1618,4.9023 0,0 0,0 0,0 2.0868,8.728 4.5067,17.8716 8.9012,27.566 4.3944,9.6944 10.776,19.9342 21.0285,30.9351 m -127.6162,-189.4978 c 5.4246,8.7213 11.7159,16.2183 18.4775,23.3098 6.9604,7.3452 14.1366,14.2424 20.7567,21.2561 0,0 0,0 0,0 3.8062,4.1503 7.4079,8.204 10.7035,12.1872 4.2361,5.1302 8.0441,10.0845 11.3071,14.8596 3.2631,4.7751 5.9805,9.3697 8.1162,13.7786 0,0 0,0 0,0 1.7461,3.4295 3.237,6.769 4.4922,10.0351 2.2319,5.2754 3.9475,10.664 5.4586,16.1824 1.5111,5.5183 2.8202,11.1622 4.3318,16.938 0.4199,1.5832 0.8573,3.1812 1.3205,4.7941 0,0 1e-4,0 1e-4,0 2.3848,8.5381 5.2018,17.4571 10.0617,26.9066 4.86,9.4495 11.7747,19.4244 22.5897,30.1237 m -129.9923,-195.2112 c 5.5242,9.4886 11.9045,17.6674 18.7452,25.3987 7.0417,8.0011 14.2987,15.516 20.9555,23.1153 0,0 0,0 0,0 3.8273,4.4949 7.4335,8.8807 10.714,13.174 4.2145,5.5359 7.9706,10.8519 11.1649,15.9313 3.1943,5.0795 5.8261,9.9212 7.8783,14.5145 0,0 0,0 0,0 1.6819,3.5733 3.1141,7.0186 4.3263,10.3554 2.1701,5.39 3.8679,10.8218 5.4114,16.3374 1.5435,5.5157 2.9353,11.1113 4.5702,16.8178 0.4537,1.5644 0.9278,3.1422 1.4304,4.7338 0,0 0,0 0,0 2.5894,8.4282 5.6719,17.2041 10.8011,26.4849 5.1292,9.2807 12.3164,19.0614 23.3277,29.5191 m -131.8209,-199.3064 c 5.8462,10.036 12.4741,18.6974 19.5086,26.8821 7.2411,8.465 14.6535,16.4188 21.4057,24.4373 0,0 0,0 0,0 3.8847,4.7411 7.5263,9.3673 10.8209,13.8875 4.2334,5.8342 7.9725,11.4213 11.1301,16.7337 3.1576,5.3123 5.7331,10.3485 7.7278,15.0924 0,0 0,0 0,0 1.6372,3.6918 3.026,7.2288 4.2048,10.6324 2.1195,5.4977 3.7945,10.9834 5.348,16.5181 1.5534,5.5346 2.9879,11.1146 4.6847,16.7896 0.4706,1.5558 0.9629,3.1239 1.4843,4.7048 0,0 0,0 0,0 2.6886,8.3721 5.8914,17.0653 11.0754,26.2413 5.184,9.176 12.36,18.8302 23.1692,29.121 m -132.7758,-201.306 c 6.3593,10.231 13.373,19.0792 20.7021,27.4606 7.5442,8.6654 15.1733,16.8348 22.064,25.078 0,0 0,0 0,0 3.9676,4.873 7.664,9.6355 10.9895,14.289 4.2746,6.0101 8.0137,11.7659 11.1481,17.2274 3.1344,5.4616 5.6637,10.6275 7.6076,15.4745 0,0 0,0 0,0 1.5972,3.7731 2.9437,7.3752 4.0859,10.8282 2.0614,5.5772 3.6937,11.1069 5.2227,16.663 1.529,5.5562 2.9574,11.1352 4.6497,16.8023 0.4693,1.5535 0.9603,3.1188 1.4798,4.6967 0,0 0,0 0,0 2.6785,8.3555 5.8574,17.0225 10.8917,26.1801 5.0344,9.1576 11.9344,18.8013 22.1786,29.0985 m -132.4082,-200.9805 c 6.8751,10.0155 14.2745,18.7124 21.8935,27.0036 7.8426,8.5717 15.6723,16.7146 22.6831,24.9778 0,0 0,0 0,0 4.0388,4.8846 7.7779,9.6747 11.1229,14.3642 4.3006,6.0579 8.0261,11.8743 11.1241,17.3957 3.098,5.5214 5.5682,10.7462 7.4464,15.6411 0,0 0,0 0,0 1.5453,3.8111 2.8363,7.4447 3.9257,10.9218 3.9528,11.2319 6.1946,22.2161 9.4496,33.5647 0.4516,1.5555 0.9243,3.123 1.4244,4.7036 0,0 0,0 0,0 2.5772,8.3697 5.6274,17.0634 10.3992,26.2949 4.7719,9.2314 11.2749,18.9965 20.8328,29.5061 m -130.3547,-198.7168 c 7.2312,9.4682 14.8935,17.7378 22.7013,25.7038 8.0369,8.2376 15.9775,16.1547 23.0314,24.2685 0,0 0,0 0,0 4.0637,4.7969 7.8039,9.524 11.1311,14.1677 4.2768,5.9975 7.9473,11.7824 10.9718,17.2867 3.0246,5.5043 5.4031,10.7263 7.1841,15.6209 1e-4,0 1e-4,0 1e-4,0 1.4682,3.8108 2.6793,7.4462 3.6902,10.9248 3.7002,11.2368 5.7172,22.2236 8.7408,33.6115 0.4201,1.5609 0.8608,3.1347 1.3281,4.7227 0,0 0,0 0,0 2.4055,8.4089 5.2628,17.1715 9.7413,26.544 4.4785,9.3726 10.5871,19.3513 19.5373,30.2112 m -126.5678,-195.2156 c 7.3616,8.7532 15.1127,16.4458 22.966,23.9523 8.0838,7.7667 16.0138,15.3355 23.0079,23.1905 0,0 0,0 0,0 4.0273,4.645 7.7142,9.2478 10.975,13.7894 4.1889,5.8625 7.7513,11.5502 10.6559,16.9827 2.9046,5.4326 5.1516,10.6081 6.798,15.4692 0,0 0,0 0,0 1.3617,3.7845 2.4647,7.4025 3.3688,10.8696 3.3559,11.1993 5.0457,22.2041 7.7513,33.657 0.3767,1.5698 0.774,3.1536 1.1979,4.753 0,0 0,0 0,0 2.1776,8.4685 4.8015,17.3238 8.9978,26.8529 4.1963,9.529 9.9733,19.7282 18.4859,30.9259 m -121.3053,-191.218 c 7.2937,7.9608 14.9791,14.9992 22.7484,21.9719 7.9974,7.22 15.8053,14.3659 22.6455,21.8908 0,0 0,0 0,0 3.9355,4.4511 7.5198,8.8884 10.6708,13.2895 4.0444,5.6774 7.4517,11.2237 10.1957,16.5494 2.744,5.3256 4.8251,10.4287 6.3059,15.2403 0,0 0,0 0,0 1.2301,3.7458 2.2014,7.3401 2.9749,10.7948 2.9312,11.1591 4.2018,22.2254 6.5107,33.7914 0.3225,1.5853 0.6662,3.1856 1.0368,4.8027 0,0 0,0 0,0 1.8987,8.5618 4.2539,17.5427 8.181,27.2448 3.9271,9.702 9.4338,20.1219 17.669,31.6231 m -114.9103,-187.3411 c 7.1068,7.1552 14.6287,13.5112 22.2248,19.9128 7.8192,6.6348 15.4241,13.3097 22.0408,20.4508 0,0 0,0 0,10e-5 3.8039,4.2253 7.2503,8.4648 10.261,12.6952 3.8613,5.4546 7.0816,10.8272 9.6383,16.0232 2.5568,5.196 4.4506,10.2135 5.7481,14.9728 0,0 0,0 0,0 1.0835,3.7063 1.9085,7.2823 2.5364,10.7364 2.4496,11.1557 3.2262,22.3606 5.0633,34.1185 0.258,1.6113 0.5376,3.2388 0.8448,4.884 0,0 0,0 0,0 1.5674,8.7078 3.6108,17.8629 7.2548,27.7633 3.6439,9.9005 8.8956,20.543 16.9289,32.3014 m -107.7504,-183.989 c 6.8607,6.3345 14.1628,11.9757 21.5246,17.7625 7.5781,6.0029 14.9214,12.1489 21.2654,18.8405 0,0 0,0 0,0 3.6466,3.96 6.9327,7.9632 9.7858,11.9883 3.659,5.19 6.6775,10.3558 9.0373,15.402 2.3598,5.0462 4.0615,9.9706 5.176,14.684 0,0 0,0 0,0 0.9349,3.6737 1.6113,7.2464 2.0904,10.7229 1.9423,11.2245 2.1719,22.6768 3.471,34.7424 0.1841,1.653 0.3901,3.3232 0.6242,5.0119 0,0 0,0 0,0 1.1868,8.9307 2.874,18.3344 6.2071,28.4891 3.3331,10.1548 8.3186,21.0578 16.1729,33.0731 m -100.2167,-181.4395 c 6.5856,5.4767 13.6291,10.3493 20.7036,15.4545 7.2824,5.2986 14.3137,10.8328 20.3465,16.9815 0,0 0,0 0,0 3.4723,3.6382 6.5854,7.353 9.2749,11.1264 3.4543,4.8708 6.2726,9.7897 8.4429,14.6632 2.1702,4.8736 3.6931,9.6996 4.6443,14.3799 0,0 0,0 0,0 0.7989,3.6546 1.3377,7.2476 1.6775,10.7805 0.7209,5.6998 1.0026,11.5142 1.182,17.4649 0.1794,5.9507 0.2593,12.0358 0.6094,18.2979 0.1015,1.7149 0.2246,3.4479 0.3757,5.2001 0,0 0,0 0,0 0.7571,9.2524 2.0413,19.0013 5.0253,29.4944 2.984,10.4931 7.6738,21.7278 15.3383,34.0457 m -92.5552,-179.7254 c 6.2927,4.5495 13.0394,8.5667 19.7658,12.8884 6.9238,4.4836 13.5881,9.2847 19.2722,14.7565 0,0 0,0 0,0 3.2848,3.2353 6.2179,6.5879 8.7457,10.0453 3.2609,4.4763 5.8951,9.094 7.8992,13.7644 2.0042,4.6705 3.3793,9.3916 4.2078,14.056 0,0 0,0 0,0 0.6903,3.6541 1.117,7.2991 1.3408,10.9334 0.491,5.8579 0.5127,11.8908 0.4046,18.1013 -0.1081,6.2106 -0.3434,12.5972 -0.3205,19.1822 0.011,1.8018 0.042,3.6224 0.1,5.4628 0,0 0,0 0,0 0.2781,9.695 1.1104,19.9066 3.6976,30.8457 2.5872,10.9392 6.9349,22.6034 14.366,35.3043 m -84.9304,-178.7837 c 5.96,3.5234 12.3459,6.564 18.6338,9.9606 6.4719,3.5141 12.6946,7.4144 17.984,12.0249 0,0 0,0 0,0 3.0822,2.7206 5.8306,5.6107 8.2049,8.6641 3.0901,3.9796 5.5696,8.2227 7.4476,12.6482 1.878,4.4255 3.1558,9.0312 3.9248,13.7007 0,0 0,0 0,0 0.6254,3.6764 0.9806,7.4137 1.1266,11.2068 0.2986,6.1057 0.081,12.4544 -0.3105,19.0289 -0.3915,6.5744 -0.9545,13.3732 -1.2851,20.3958 -0.088,1.9194 -0.1586,3.8581 -0.2042,5.8167 0,0 0,0 0,0 -0.2514,10.283 0.079,21.0977 2.2209,32.611 2.1424,11.5133 6.1021,23.7231 13.2583,36.9035"
         style="opacity:0.3;fill:none;stroke:#000000;stroke-width:1px;stroke-linecap:butt;stroke-linejoin:miter;stroke-opacity:1"
         id="path2318" />
      <path
         inkscape:original-d="m 2686.1539,-1394.0301 c 14.6107,27.6213 49.2551,53.3655 67.0308,89.4382 19.7053,39.9886 15.1899,76.8385 53.5273,111.5995"
         inkscape:path-effect="#path-effect2481"
         sodipodi:nodetypes="csc"
         inkscape:connector-curvature="0"
         id="path2383"
         d="m 2803.7607,-1198.7699 c -6.7812,-6.2893 -12.7016,-13.5344 -17.4903,-21.4806 -4.8509,-8.0368 -8.5444,-16.7756 -11.7366,-25.7077 -0.1484,-0.4152 -0.295,-0.8311 -0.44,-1.2475 -3.2231,-9.2663 -5.6735,-18.8264 -8.5088,-28.3083 0,0 0,0 0,0 -2.491,-8.3358 -5.3192,-16.6192 -8.9538,-24.5626 -0.7727,-1.6888 -1.5645,-3.3695 -2.3813,-5.0402 -3.8079,-7.7704 -8.2044,-15.1903 -13.0975,-22.3075 -4.893,-7.1172 -10.2766,-13.9193 -15.9967,-20.363 -1.7594,-1.982 -3.5316,-3.9466 -5.3076,-5.8985 0,0 0,0 0,0 -6.24,-6.8691 -12.5588,-13.6098 -18.522,-20.6309 -4.5535,-5.3661 -8.9234,-10.8842 -12.6337,-16.8187 -0.4065,-1.2651 -0.9403,-2.0465 -1.4814,-2.4585 -0.5412,-0.412 -1.0886,-0.4522 -1.4816,-0.2091 -0.393,0.243 -0.6297,0.772 -0.5319,1.485 0.098,0.7129 0.5319,1.6114 1.4722,2.5471 3.7348,6.0755 8.0974,11.698 12.6171,17.1127 5.9587,7.1446 12.2417,13.9718 18.4054,20.8755 0,0 0,0 0,0 1.6708,1.8731 3.3366,3.7544 4.9895,5.6479 5.6773,6.5032 10.995,13.3297 15.7993,20.4216 4.8043,7.092 9.0886,14.4361 12.7673,22.0755 0.662,1.3687 1.3076,2.7453 1.9406,4.1287 3.5709,7.804 6.7432,16.2458 9.6007,24.8512 3.1305,9.4366 5.9617,19.0783 9.137,28.1676 0.1813,0.5191 0.3638,1.0363 0.5476,1.5516 3.2935,9.2339 6.6569,17.9759 11.2305,26.1976 4.2395,7.6096 9.5013,14.7005 16.1,20.9821 1.2815,1.1656 3.4363,2.752 5.1572,3.5887 1.7209,0.8368 2.9716,0.9519 2.4727,-0.6443 C 2806.5563,-1196.2018 2805.0396,-1197.5258 2803.7607,-1198.7699 Z"
         style="fill:#ff0000;stroke:none" />
      <path
         inkscape:original-d="m 2655.1242,-1280.9178 c 30.8063,24.5549 46.1336,-17.6426 98.0605,-23.6741 35.5693,-4.1315 63.6818,-10.4488 75.9133,-23.7532"
         inkscape:path-effect="#path-effect2540"
         sodipodi:nodetypes="csc"
         inkscape:connector-curvature="0"
         id="path2385"
         d="m 2824.1951,-1326.6813 c -2.349,2.1134 -5.07,3.9197 -7.928,5.5032 -5.2372,2.8888 -10.9512,4.9835 -16.7798,6.7457 0,0 0,0 0,0 -5.187,1.5668 -10.4526,2.8749 -15.7619,4.0605 -10.0615,2.2469 -20.3812,3.4389 -30.6813,4.5699 -4.6505,0.511 -9.2571,1.3825 -13.762,2.6206 -6.6965,1.8403 -13.2893,4.0864 -19.6566,6.9037 -7.5382,3.3389 -14.6557,7.4366 -21.5577,11.6787 -0.9246,0.5683 -1.8492,1.1335 -2.7751,1.6934 -3.2625,1.9682 -6.5275,3.8505 -9.9309,5.3509 -3.0225,1.3276 -6.1499,2.3649 -9.3495,2.7345 0,0 0,0 0,0 -3.1865,0.3786 -6.4791,0.066 -9.5944,-0.8872 0,0 0,0 0,0 -2.9599,-0.8995 -5.7721,-2.3429 -8.4344,-4.075 -0.6658,-0.8231 -1.3051,-1.1976 -1.8623,-1.2756 -0.5573,-0.078 -1.0276,0.1419 -1.2957,0.5177 -0.2681,0.3759 -0.3319,0.91 -0.063,1.4425 0.269,0.5325 0.8755,1.0665 1.9169,1.384 2.7545,1.8307 5.724,3.3852 8.9149,4.4183 0,0 0,0 0,0 3.4358,1.1036 7.0823,1.5 10.6588,1.1289 0,0 0,0 0,0 3.5619,-0.3787 6.9695,-1.4441 10.1769,-2.8211 3.6031,-1.5431 7.0026,-3.4439 10.3236,-5.403 0.8573,-0.5051 1.7119,-1.0138 2.5648,-1.5244 7.0718,-4.2337 14.2457,-8.2673 21.6973,-11.4625 6.0082,-2.5794 12.1956,-4.6467 18.4514,-6.3634 4.4772,-1.2287 9.1526,-2.2468 13.9413,-2.9242 10.4374,-1.4705 21.1081,-3.3233 31.0013,-5.5228 5.4266,-1.2065 10.6657,-2.3268 15.8285,-3.6463 5.9968,-1.5315 11.9373,-3.3679 17.5874,-6.3154 2.523,-1.3109 4.9996,-2.8696 7.2706,-4.764 0.5245,-0.4631 1.1435,-1.1066 1.7033,-1.8193 0.5598,-0.7127 1.0587,-1.4943 1.379,-2.204 0.3204,-0.7097 0.4636,-1.3443 0.3558,-1.7619 -0.1077,-0.4176 -0.4609,-0.6135 -1.1395,-0.5068 C 2826.2626,-1328.6339 2825.2267,-1327.5523 2824.1951,-1326.6813 Z"
         style="fill:#0000ff;stroke:none" />
      <path
         inkscape:connector-curvature="0"
         id="path2477"
         d="m 2813.5527,-1311.9462 -60.368,7.3543"
         style="fill:none;stroke:#000000;stroke-width:1px;stroke-linecap:butt;stroke-linejoin:miter;stroke-opacity:1" />
      <path
         inkscape:connector-curvature="0"
         id="path2387"
         d="m 2753.1847,-1304.5919 30.2204,62.2927"
         style="fill:none;stroke:#000000;stroke-width:1px;stroke-linecap:butt;stroke-linejoin:miter;stroke-opacity:1" />
      <path
         transform="translate(5.6387085,301.66294)"
         inkscape:connector-curvature="0"
         id="path2479"
         d="m 2748.2463,-1606.4886 66.3565,-66.5174"
         style="fill:none;stroke:#000000;stroke-width:1px;stroke-linecap:butt;stroke-linejoin:miter;stroke-opacity:1" />
      <text
         transform="translate(5.6387085,301.66294)"
         sodipodi:linespacing="125%"
         id="text2548"
         y="-1473.3928"
         x="2408.8484"
         style="font-size:15px;font-style:normal;font-variant:normal;font-weight:500;font-stretch:normal;text-align:start;line-height:125%;letter-spacing:0px;word-spacing:0px;writing-mode:lr-tb;text-anchor:start;fill:#000000;fill-opacity:1;stroke:none;font-family:CMU Serif;-inkscape-font-specification:CMU Serif Medium"
         xml:space="preserve"><tspan
           y="-1473.3928"
           x="2408.8484"
           id="tspan2550"
           sodipodi:role="line">s</tspan></text>
      <text
         transform="translate(5.6387085,301.66294)"
         sodipodi:linespacing="125%"
         id="text2552"
         y="-1662.1368"
         x="2211.8628"
         style="font-size:15px;font-style:normal;font-variant:normal;font-weight:500;font-stretch:normal;text-align:start;line-height:125%;letter-spacing:0px;word-spacing:0px;writing-mode:lr-tb;text-anchor:start;fill:#000000;fill-opacity:1;stroke:none;font-family:CMU Serif;-inkscape-font-specification:CMU Serif Medium"
         xml:space="preserve"><tspan
           y="-1662.1368"
           x="2211.8628"
           id="tspan2554"
           sodipodi:role="line">t</tspan></text>
      <path
         sodipodi:nodetypes="cc"
         inkscape:connector-curvature="0"
         id="path2556"
         d="m 2434.738,-1279.7713 c 59.6696,-26.2171 122.2966,-29.5199 189.1361,-0.182"
         style="fill:none;stroke:#000000;stroke-width:1px;stroke-linecap:butt;stroke-linejoin:miter;stroke-opacity:1" />
      <text
         transform="translate(5.6387085,301.66294)"
         sodipodi:linespacing="125%"
         id="text2558"
         y="-1612.1906"
         x="2500.21"
         style="font-size:15px;font-style:normal;font-variant:normal;font-weight:500;font-stretch:normal;text-align:start;line-height:125%;letter-spacing:0px;word-spacing:0px;writing-mode:lr-tb;text-anchor:start;fill:#000000;fill-opacity:1;stroke:none;font-family:CMU Serif;-inkscape-font-specification:CMU Serif Medium"
         xml:space="preserve"><tspan
           y="-1612.1906"
           x="2500.21"
           id="tspan2560"
           sodipodi:role="line">x(s,t)</tspan></text>
      <text
         sodipodi:linespacing="125%"
         id="text2562"
         y="-1296.4114"
         x="2792.5276"
         style="font-size:15px;font-style:normal;font-variant:normal;font-weight:500;font-stretch:normal;text-align:start;line-height:125%;letter-spacing:0px;word-spacing:0px;writing-mode:lr-tb;text-anchor:start;fill:#000000;fill-opacity:1;stroke:none;font-family:CMU Serif;-inkscape-font-specification:CMU Serif Medium"
         xml:space="preserve"><tspan
           y="-1296.4114"
           x="2792.5276"
           id="tspan2564"
           sodipodi:role="line">x_s</tspan></text>
      <path
         sodipodi:nodetypes="cc"
         transform="translate(5.6387085,301.66294)"
         inkscape:connector-curvature="0"
         id="path2566"
         d="m 2892.4088,-1626.224 c -18.272,-19.0194 -38.8391,-24.441 -59.3566,-12.0316"
         style="fill:none;stroke:#000000;stroke-width:1px;stroke-linecap:butt;stroke-linejoin:miter;stroke-opacity:1" />
      <text
         sodipodi:linespacing="125%"
         id="text2573"
         y="-1253.7841"
         x="2786.7576"
         style="font-size:15px;font-style:normal;font-variant:normal;font-weight:500;font-stretch:normal;text-align:start;line-height:125%;letter-spacing:0px;word-spacing:0px;writing-mode:lr-tb;text-anchor:start;fill:#000000;fill-opacity:1;stroke:none;font-family:CMU Serif;-inkscape-font-specification:CMU Serif Medium"
         xml:space="preserve"><tspan
           id="tspan2577"
           y="-1253.7841"
           x="2786.7576"
           sodipodi:role="line">x_t</tspan></text>
      <path
         sodipodi:nodetypes="cc"
         transform="translate(5.6387085,301.66294)"
         inkscape:connector-curvature="0"
         id="path2581"
         d="m 2833.0531,-1469.3725 c 1.7378,-9.7453 -8.4342,-18.2664 -21.7454,-21.3315"
         style="fill:none;stroke:#000000;stroke-width:1px;stroke-linecap:butt;stroke-linejoin:miter;stroke-opacity:1" />
      <text
         sodipodi:linespacing="125%"
         id="text2587"
         y="-1311.1481"
         x="2863.5752"
         style="font-size:15px;font-style:normal;font-variant:normal;font-weight:500;font-stretch:normal;text-align:start;line-height:125%;letter-spacing:0px;word-spacing:0px;writing-mode:lr-tb;text-anchor:start;fill:#000000;fill-opacity:1;stroke:none;font-family:CMU Serif;-inkscape-font-specification:CMU Serif Medium"
         xml:space="preserve"><tspan
           y="-1311.1481"
           x="2863.5752"
           id="tspan2599"
           sodipodi:role="line">linia parametru</tspan></text>
      <text
         xml:space="preserve"
         style="font-size:15px;font-style:normal;font-variant:normal;font-weight:500;font-stretch:normal;text-align:start;line-height:125%;letter-spacing:0px;word-spacing:0px;writing-mode:lr-tb;text-anchor:start;fill:#000000;fill-opacity:1;stroke:none;font-family:CMU Serif;-inkscape-font-specification:CMU Serif Medium"
         x="2781.6987"
         y="-1153.2643"
         id="text2593"
         sodipodi:linespacing="125%"><tspan
           y="-1153.2643"
           x="2781.6987"
           id="tspan2597"
           sodipodi:role="line">linia parametru</tspan></text>
      <text
         sodipodi:linespacing="125%"
         id="text2601"
         y="-1377.8693"
         x="2758.647"
         style="font-size:15px;font-style:normal;font-variant:normal;font-weight:500;font-stretch:normal;text-align:start;line-height:125%;letter-spacing:0px;word-spacing:0px;writing-mode:lr-tb;text-anchor:start;fill:#000000;fill-opacity:1;stroke:none;font-family:CMU Serif;-inkscape-font-specification:CMU Serif Medium"
         xml:space="preserve"><tspan
           y="-1377.8693"
           x="2758.647"
           id="tspan2605"
           sodipodi:role="line">x_s\times x_t</tspan></text>
    </g>
  </g>
</svg>
