<?xml version="1.0" encoding="UTF-8" standalone="no"?>
<!-- Created with Inkscape (http://www.inkscape.org/) -->

<svg
   xmlns:dc="http://purl.org/dc/elements/1.1/"
   xmlns:cc="http://creativecommons.org/ns#"
   xmlns:rdf="http://www.w3.org/1999/02/22-rdf-syntax-ns#"
   xmlns:svg="http://www.w3.org/2000/svg"
   xmlns="http://www.w3.org/2000/svg"
   xmlns:sodipodi="http://sodipodi.sourceforge.net/DTD/sodipodi-0.dtd"
   xmlns:inkscape="http://www.inkscape.org/namespaces/inkscape"
   width="1097.4642"
   height="587.12628"
   id="svg2996"
   version="1.1"
   inkscape:version="0.48+devel r"
   sodipodi:docname="pseudosphere.png.svg">
  <title
     id="title3544">Winter School -- Contact Topology</title>
  <defs
     id="defs2998">
    <inkscape:path-effect
       effect="skeletal"
       id="path-effect3726"
       is_visible="true"
       pattern="m 9644.5873,2052.4744 c -7.7724,0.7229 -15.5564,0.5951 -23.3473,0.9308 -7.791,0.3357 -15.5885,-0.1655 -23.3873,0.011 -7.7988,0.1763 -15.5989,-0.9697 -23.3948,-0.7251 -7.796,0.2445 -15.5878,0.5803 -23.3702,1.1208 -2.1523,-1.1562 -2.0118,3.7827 0.063,2.4375 7.7112,-0.3705 15.4323,-0.5304 23.1566,-0.6126 7.7244,-0.082 15.4522,1.213 23.1768,1.1533 7.7247,-0.06 16.17,-0.8046 23.8822,-1.1079 7.7122,-0.3031 14.6909,1.136 22.3777,0.3235 1.4036,-0.2269 4.2999,-1.5409 3.0938,-3.2188 C 9646.1765,2052.3583 9645.3331,2052.4476 9644.5873,2052.4744 Z"
       copytype="single_stretched"
       prop_scale="0.85"
       scale_y_rel="false"
       spacing="0"
       normal_offset="0"
       tang_offset="0"
       prop_units="false"
       vertical_pattern="false"
       fuse_tolerance="0" />
    <inkscape:path-effect
       fuse_tolerance="0"
       vertical_pattern="false"
       prop_units="false"
       tang_offset="0"
       normal_offset="0"
       spacing="0"
       scale_y_rel="false"
       prop_scale="0.85"
       copytype="single_stretched"
       pattern="m 4588.5273,2497.4754 c -7.7724,0.7229 -15.5564,0.5951 -23.3473,0.9309 -7.791,0.3357 -15.5885,-0.1655 -23.3873,0.011 -7.7988,0.1763 -15.5989,-0.9698 -23.3948,-0.7252 -7.796,0.2446 -15.5878,0.5803 -23.3702,1.1208 -2.1523,-1.1561 -2.0118,3.7827 0.063,2.4375 7.7112,-0.3705 15.4323,-0.5304 23.1566,-0.6126 7.7244,-0.082 15.4522,1.213 23.1768,1.1533 7.7247,-0.06 16.17,-0.8046 23.8822,-1.1078 7.7122,-0.3031 14.6909,1.1359 22.3777,0.3235 1.4036,-0.227 4.2999,-1.5409 3.0938,-3.2188 C 4590.1165,2497.3593 4589.2731,2497.4486 4588.5273,2497.4754 Z"
       is_visible="true"
       id="path-effect2892"
       effect="skeletal" />
    <inkscape:path-effect
       fuse_tolerance="0"
       vertical_pattern="false"
       prop_units="false"
       tang_offset="0"
       normal_offset="0"
       spacing="0"
       scale_y_rel="false"
       prop_scale="0.85"
       copytype="single_stretched"
       pattern="m -467.5327,2942.4764 c -7.7724,0.7229 -15.5564,0.5951 -23.3473,0.9309 -7.791,0.3357 -15.5885,-0.1655 -23.3873,0.011 -7.7988,0.1763 -15.5989,-0.9698 -23.3948,-0.7252 -7.796,0.2446 -15.5878,0.5803 -23.3702,1.1208 -2.1523,-1.1561 -2.0118,3.7827 0.063,2.4375 7.7112,-0.3705 15.4323,-0.5304 23.1566,-0.6126 7.7244,-0.082 15.4522,1.213 23.1768,1.1533 7.7247,-0.06 16.17,-0.8046 23.8822,-1.1078 7.7122,-0.3031 14.6909,1.1359 22.3777,0.3235 1.4036,-0.2269 4.2999,-1.5408 3.0938,-3.2188 C -465.9435,2942.3603 -466.7869,2942.4496 -467.5327,2942.4764 Z"
       is_visible="true"
       id="path-effect2970"
       effect="skeletal" />
    <inkscape:path-effect
       effect="skeletal"
       id="path-effect3610-1"
       is_visible="true"
       pattern="m -467.5327,2942.4764 c -7.7724,0.7229 -15.5564,0.5951 -23.3473,0.9309 -7.791,0.3357 -15.5885,-0.1655 -23.3873,0.011 -7.7988,0.1763 -15.5989,-0.9698 -23.3948,-0.7252 -7.796,0.2446 -15.5878,0.5803 -23.3702,1.1208 -2.1523,-1.1561 -2.0118,3.7827 0.063,2.4375 7.7112,-0.3705 15.4323,-0.5304 23.1566,-0.6126 7.7244,-0.082 15.4522,1.213 23.1768,1.1533 7.7247,-0.06 16.17,-0.8046 23.8822,-1.1078 7.7122,-0.3031 14.6909,1.1359 22.3777,0.3235 1.4036,-0.2269 4.2999,-1.5408 3.0938,-3.2188 C -465.9435,2942.3603 -466.7869,2942.4496 -467.5327,2942.4764 Z"
       copytype="single_stretched"
       prop_scale="1"
       scale_y_rel="false"
       spacing="0"
       normal_offset="0"
       tang_offset="0"
       prop_units="false"
       vertical_pattern="false"
       fuse_tolerance="0" />
    <inkscape:path-effect
       effect="skeletal"
       id="path-effect3607-8"
       is_visible="true"
       pattern="m -467.5327,2942.4764 c -7.7724,0.7229 -15.5564,0.5951 -23.3473,0.9309 -7.791,0.3357 -15.5885,-0.1655 -23.3873,0.011 -7.7988,0.1763 -15.5989,-0.9698 -23.3948,-0.7252 -7.796,0.2446 -15.5878,0.5803 -23.3702,1.1208 -2.1523,-1.1561 -2.0118,3.7827 0.063,2.4375 7.7112,-0.3705 15.4323,-0.5304 23.1566,-0.6126 7.7244,-0.082 15.4522,1.213 23.1768,1.1533 7.7247,-0.06 16.17,-0.8046 23.8822,-1.1078 7.7122,-0.3031 14.6909,1.1359 22.3777,0.3235 1.4036,-0.2269 4.2999,-1.5408 3.0938,-3.2188 C -465.9435,2942.3603 -466.7869,2942.4496 -467.5327,2942.4764 Z"
       copytype="single_stretched"
       prop_scale="1"
       scale_y_rel="false"
       spacing="0"
       normal_offset="0"
       tang_offset="0"
       prop_units="false"
       vertical_pattern="false"
       fuse_tolerance="0" />
    <inkscape:path-effect
       fuse_tolerance="0"
       vertical_pattern="false"
       prop_units="false"
       tang_offset="0"
       normal_offset="0"
       spacing="0"
       scale_y_rel="false"
       prop_scale="0.87"
       copytype="single_stretched"
       pattern="m 4588.5273,2497.4754 c -7.7724,0.7229 -15.5564,0.5951 -23.3473,0.9309 -7.791,0.3357 -15.5885,-0.1655 -23.3873,0.011 -7.7988,0.1763 -15.5989,-0.9698 -23.3948,-0.7252 -7.796,0.2446 -15.5878,0.5803 -23.3702,1.1208 -2.1523,-1.1561 -2.0118,3.7827 0.063,2.4375 7.7112,-0.3705 15.4323,-0.5304 23.1566,-0.6126 7.7244,-0.082 15.4522,1.213 23.1768,1.1533 7.7247,-0.06 16.17,-0.8046 23.8822,-1.1078 7.7122,-0.3031 14.6909,1.1359 22.3777,0.3235 1.4036,-0.227 4.2999,-1.5409 3.0938,-3.2188 C 4590.1165,2497.3593 4589.2731,2497.4486 4588.5273,2497.4754 Z"
       is_visible="true"
       id="path-effect2700"
       effect="skeletal" />
    <inkscape:path-effect
       fuse_tolerance="0"
       vertical_pattern="false"
       prop_units="false"
       tang_offset="0"
       normal_offset="0"
       spacing="0"
       scale_y_rel="false"
       prop_scale="0.8"
       copytype="single_stretched"
       pattern="m 4588.5273,2497.4754 c -7.7724,0.7229 -15.5564,0.5951 -23.3473,0.9309 -7.791,0.3357 -15.5885,-0.1655 -23.3873,0.011 -7.7988,0.1763 -15.5989,-0.9698 -23.3948,-0.7252 -7.796,0.2446 -15.5878,0.5803 -23.3702,1.1208 -2.1523,-1.1561 -2.0118,3.7827 0.063,2.4375 7.7112,-0.3705 15.4323,-0.5304 23.1566,-0.6126 7.7244,-0.082 15.4522,1.213 23.1768,1.1533 7.7247,-0.06 16.17,-0.8046 23.8822,-1.1078 7.7122,-0.3031 14.6909,1.1359 22.3777,0.3235 1.4036,-0.227 4.2999,-1.5409 3.0938,-3.2188 C 4590.1165,2497.3593 4589.2731,2497.4486 4588.5273,2497.4754 Z"
       is_visible="true"
       id="path-effect2697"
       effect="skeletal" />
    <inkscape:path-effect
       effect="skeletal"
       id="path-effect2826"
       is_visible="true"
       pattern="m 3088.4312,2268.0178 c -7.7724,0.7228 -15.5563,0.5951 -23.3473,0.9308 -7.7909,0.3358 -15.5885,-0.1654 -23.3873,0.011 -7.7988,0.1763 -15.5988,-0.9698 -23.3948,-0.7251 -7.7959,0.2446 -15.5878,0.5801 -23.3702,1.1208 -2.1523,-1.1561 -2.0117,3.7827 0.063,2.4375 7.7113,-0.3707 15.4323,-0.5304 23.1567,-0.6126 7.7244,-0.082 15.4521,1.213 23.1768,1.1532 7.7247,-0.06 16.17,-0.8046 23.8822,-1.1077 7.7122,-0.3031 14.6908,1.1359 22.3777,0.3235 1.4035,-0.2269 4.2998,-1.5408 3.0937,-3.2188 C 3090.0205,2267.9017 3089.1771,2267.991 3088.4312,2268.0178 Z"
       copytype="single_stretched"
       prop_scale="1"
       scale_y_rel="false"
       spacing="0"
       normal_offset="0"
       tang_offset="0"
       prop_units="false"
       vertical_pattern="false"
       fuse_tolerance="0" />
    <inkscape:path-effect
       effect="skeletal"
       id="path-effect2823"
       is_visible="true"
       pattern="m 3088.4312,2268.0178 c -7.7724,0.7228 -15.5563,0.5951 -23.3473,0.9308 -7.7909,0.3358 -15.5885,-0.1654 -23.3873,0.011 -7.7988,0.1763 -15.5988,-0.9698 -23.3948,-0.7251 -7.7959,0.2446 -15.5878,0.5801 -23.3702,1.1208 -2.1523,-1.1561 -2.0117,3.7827 0.063,2.4375 7.7113,-0.3707 15.4323,-0.5304 23.1567,-0.6126 7.7244,-0.082 15.4521,1.213 23.1768,1.1532 7.7247,-0.06 16.17,-0.8046 23.8822,-1.1077 7.7122,-0.3031 14.6908,1.1359 22.3777,0.3235 1.4035,-0.2269 4.2998,-1.5408 3.0937,-3.2188 C 3090.0205,2267.9017 3089.1771,2267.991 3088.4312,2268.0178 Z"
       copytype="single_stretched"
       prop_scale="1"
       scale_y_rel="false"
       spacing="0"
       normal_offset="0"
       tang_offset="0"
       prop_units="false"
       vertical_pattern="false"
       fuse_tolerance="0" />
    <inkscape:path-effect
       effect="skeletal"
       id="path-effect2861"
       is_visible="true"
       pattern="m 4588.5273,2497.4754 c -7.7724,0.7229 -15.5564,0.5951 -23.3473,0.9309 -7.791,0.3357 -15.5885,-0.1655 -23.3873,0.011 -7.7988,0.1763 -15.5989,-0.9698 -23.3948,-0.7252 -7.796,0.2446 -15.5878,0.5803 -23.3702,1.1208 -2.1523,-1.1561 -2.0118,3.7827 0.063,2.4375 7.7112,-0.3705 15.4323,-0.5304 23.1566,-0.6126 7.7244,-0.082 15.4522,1.213 23.1768,1.1533 7.7247,-0.06 16.17,-0.8046 23.8822,-1.1078 7.7122,-0.3031 14.6909,1.1359 22.3777,0.3235 1.4036,-0.227 4.2999,-1.5409 3.0938,-3.2188 C 4590.1165,2497.3593 4589.2731,2497.4486 4588.5273,2497.4754 Z"
       copytype="single_stretched"
       prop_scale="0.8"
       scale_y_rel="false"
       spacing="0"
       normal_offset="0"
       tang_offset="0"
       prop_units="false"
       vertical_pattern="false"
       fuse_tolerance="0" />
  </defs>
  <sodipodi:namedview
     id="base"
     pagecolor="#ffffff"
     bordercolor="#666666"
     borderopacity="1.0"
     inkscape:pageopacity="0.0"
     inkscape:pageshadow="2"
     inkscape:zoom="0.41015625"
     inkscape:cx="384.53722"
     inkscape:cy="235.21075"
     inkscape:document-units="px"
     inkscape:current-layer="layer1"
     showgrid="false"
     fit-margin-top="0"
     fit-margin-left="0"
     fit-margin-right="0"
     fit-margin-bottom="0" />
  <metadata
     id="metadata3001">
    <rdf:RDF>
      <cc:Work
         rdf:about="">
        <dc:format>image/svg+xml</dc:format>
        <dc:type
           rdf:resource="http://purl.org/dc/dcmitype/StillImage" />
        <dc:title>Winter School -- Contact Topology</dc:title>
        <dc:date>2013</dc:date>
        <dc:creator>
          <cc:Agent>
            <dc:title>Marek Kaluba</dc:title>
          </cc:Agent>
        </dc:creator>
        <dc:rights>
          <cc:Agent>
            <dc:title>Marek Kaluba</dc:title>
          </cc:Agent>
        </dc:rights>
      </cc:Work>
    </rdf:RDF>
  </metadata>
  <g
     inkscape:label="Layer 1"
     inkscape:groupmode="layer"
     id="layer1"
     transform="translate(-189.41488,613.09719)">
    <g
       id="g6915">
      <g
         transform="translate(-72.901121,-552.22105)"
         id="g3745">
        <path
           style="fill:none;stroke:#000000;stroke-width:1px;stroke-linecap:butt;stroke-linejoin:miter;stroke-opacity:1"
           d="m 262.316,265.08005 456.0317,0"
           id="path2584-0"
           inkscape:connector-curvature="0"
           sodipodi:nodetypes="cc" />
        <path
           style="fill:none;stroke:#000000;stroke-width:1px;stroke-linecap:butt;stroke-linejoin:miter;stroke-opacity:1"
           d="m 352.179,526.24965 0.5698,-587.1253"
           id="path2582-4"
           inkscape:connector-curvature="0"
           sodipodi:nodetypes="cc" />
        <path
           style="fill:#000000;stroke:none"
           d="m 700.12895,222.74026 c -35.03823,-5.41967 -70.07119,-10.90056 -104.72418,-18.42446 -0.28141,-0.0611 -0.5628,-0.12237 -0.84418,-0.18374 -17.46725,-3.80985 -34.82193,-8.37451 -51.85542,-13.83366 -17.0335,-5.45915 -33.74217,-11.81017 -49.97721,-19.21195 -5.60428,-2.5551 -11.13173,-5.28173 -16.57427,-8.17974 -10e-6,0 -10e-6,0 -10e-6,0 -15.24098,-8.11373 -30.35359,-16.463 -44.72521,-25.8881 -10.29674,-6.75544 -20.20614,-14.10187 -29.24916,-22.34823 -2.35768,-2.14998 -4.65091,-4.36829 -6.86984,-6.66147 0,0 0,0 0,0 C 384.43462,96.779524 375.46369,83.698359 368.85107,69.498119 361.82569,54.423803 357.3296,38.230334 354.41324,21.762706 c -0.31269,-4.950731 -1.38206,-7.118995 -2.14279,-6.897053 -0.76073,0.221942 -1.20167,2.879392 0.1433,7.51975 2.87253,16.514595 7.34602,32.806176 14.36581,48.054933 6.66088,14.459053 15.72541,27.79652 26.74839,39.272094 1e-5,0 1e-5,0 1e-5,0 2.08789,2.17263 4.23899,4.27891 6.44533,6.324 9.28449,8.606 19.46089,16.2394 30.0198,23.21672 0,0 1e-5,0 1e-5,0 14.45857,9.55704 29.61425,18.00041 44.84476,26.154 4.98195,2.66599 10.03372,5.1879 15.14911,7.56519 16.15288,7.50664 33.64852,14.00768 51.4587,19.47531 17.81018,5.46763 35.9233,9.92362 53.25424,13.70028 0.0928,0.0202 0.18566,0.0404 0.27845,0.0607 1e-5,0 1e-5,0 1e-5,0 17.27671,3.76387 33.76994,7.12844 50.30459,10.24477 16.53464,3.11633 33.10409,5.96041 50.51836,8.58986 6.38798,0.89704 19.68914,2.10724 14.47623,-0.26296 C 707.34661,223.892 703.5122,223.30019 700.12895,222.74026 Z"
           id="path2472"
           inkscape:connector-curvature="0"
           sodipodi:nodetypes="csc"
           inkscape:path-effect="#path-effect3726"
           inkscape:original-d="m 352.6753,14.80615 c 11.8842,87.0977 57.7598,114.6858 122.9967,149.0159 75.2992,39.6251 164.8346,50.1549 235.6331,62.7228" />
      </g>
      <g
         transform="translate(496.59577,-1199.2666)"
         id="g3730">
        <path
           inkscape:connector-curvature="0"
           style="fill:#000000;stroke:none"
           d="m 322.04285,677.94044 c -1.13548,1.58344 -2.19837,3.20893 -3.20471,4.84908 -4.51373,7.32049 -8.04594,15.15034 -11.10751,23.08804 0,10e-6 -1e-5,10e-6 -1e-5,10e-6 -3.82754,9.91392 -6.9184,20.079 -9.59146,30.32612 0,0 -1e-5,10e-6 -1e-5,10e-6 -6.72795,25.7896 -10.92451,52.16525 -13.83996,78.62128 -3.51748,31.90467 -5.04143,64.02311 -4.95046,96.12787 0.0151,5.35969 0.0752,10.71996 0.18263,16.07963 0.53566,26.72313 2.13898,53.43372 5.10724,80.01032 0,0 0,0 0,0 2.9505,26.4262 7.15959,52.7839 13.95223,78.5396 0,0 0,0 0,0 2.69666,10.2254 5.81663,20.3625 9.68092,30.2335 0,0 0,0 10e-6,0 3.09124,7.9013 6.65081,15.678 11.1829,22.9139 0,0 0,0 0,0 3.38678,5.4231 7.36964,10.6503 12.52334,14.6374 2.04583,1.5807 4.30303,2.9377 6.75778,3.8788 2.23955,0.857 4.6366,1.334 7.05492,1.3329 1.72837,-0 3.44494,-0.252 5.09976,-0.7088 0.65638,-0.1812 1.30308,-0.3951 1.93699,-0.6397 2.44037,-0.9434 4.68219,-2.3003 6.71265,-3.8801 5.11013,-3.9811 9.04812,-9.194 12.39767,-14.5992 4.48479,-7.2165 8.00616,-14.9669 11.07041,-22.8387 3.83425,-9.8437 6.9398,-19.9496 9.63307,-30.1426 0,0 0,0 0,0 6.79242,-25.7053 11.06909,-52.0165 14.05272,-78.4041 0,0 0,0 0,0 3.39822,-30.03881 5.00495,-60.26867 5.09844,-90.48164 0.006,-1.87352 0.006,-3.74698 0.002,-5.62031 -0.0793,-32.1288 -1.68634,-64.26402 -5.2692,-96.18014 -2.96938,-26.46331 -7.20801,-52.84554 -13.99967,-78.60558 0,-10e-6 -10e-6,-10e-6 -10e-6,-10e-6 -2.6964,-10.22772 -5.81131,-20.36432 -9.66326,-30.22998 0,0 0,-10e-6 0,-10e-6 -3.07987,-7.89241 -6.62064,-15.65602 -11.12596,-22.86913 -2.89871,-4.651 -6.22641,-9.15044 -10.34814,-12.82226 -0.6633,-0.64857 -1.3279,-1.24427 -1.98848,-1.7897 -2.34421,-1.93349 -4.66315,-3.16692 -6.65622,-3.86075 -2.27572,-0.79103 -4.09328,-0.89104 -5.26131,-0.79746 -1.16802,0.0936 -1.71032,0.36883 -1.69057,0.61507 0.0197,0.24624 0.59389,0.46877 1.64245,0.78202 1.04856,0.31325 2.5829,0.72893 4.48115,1.54921 1.74583,0.75182 3.80128,1.87723 6.0718,3.52549 0.81313,0.58924 1.64971,1.23971 2.5066,1.95814 3.68247,3.40422 6.72614,7.58336 9.45484,11.94483 4.40121,7.06161 7.87031,14.71297 10.91301,22.53494 0,0 0,0 0,1e-5 3.79865,9.77266 6.87112,19.83565 9.53685,30.01074 0,0 0,0 0,10e-6 6.71464,25.63131 10.88825,51.912 13.80775,78.30693 3.51923,31.8278 5.06738,63.87834 5.09502,95.92763 0.001,1.32185 -3.5e-4,2.64372 -0.004,3.96561 -0.0948,30.68546 -1.74744,61.37524 -5.24634,91.84784 -3.02105,26.3008 -7.31407,52.4765 -14.09666,77.9937 -2.68945,10.1173 -5.77453,20.118 -9.5709,29.8262 0,1e-4 -10e-6,1e-4 -10e-6,1e-4 -3.04126,7.7689 -6.49238,15.3587 -10.85838,22.3557 -10e-6,0 -10e-6,0 -10e-6,0 -3.28712,5.2403 -7.00475,10.2002 -11.73408,13.8389 -1.34468,1.0372 -2.76133,1.9608 -4.24492,2.6992 -0.57054,0.284 -1.15143,0.5407 -1.74243,0.766 -1e-5,0 -1e-5,0 -2e-5,0 -1.92605,0.7373 -3.97496,1.1552 -6.01181,1.1536 0,0 -10e-6,0 -10e-6,0 -2.03034,0.01 -4.08525,-0.4056 -6.02845,-1.1436 -2.1344,-0.8076 -4.15084,-2.0259 -6.03367,-3.4673 0,0 -1e-5,0 -1e-5,0 -4.74985,-3.6277 -8.52569,-8.5934 -11.87394,-13.8738 -4.40075,-6.9749 -7.91741,-14.5856 -11.02321,-22.4142 0,0 0,0 0,0 -3.83906,-9.6867 -6.9831,-19.7186 -9.72596,-29.8958 -6.8804,-25.5314 -11.25493,-51.894 -14.31717,-78.1141 -3.19828,-27.39606 -4.85854,-54.67248 -5.34356,-81.17745 -0.09,-4.91625 -0.13604,-9.80605 -0.14169,-14.6715 -0.0376,-32.80863 1.73861,-64.51957 5.40593,-95.85772 3.07366,-26.25532 7.36108,-52.29145 14.21055,-78.1545 2.66977,-10.0802 5.73645,-20.12353 9.55417,-29.98688 2.59305,-6.69397 5.50183,-13.31632 9.07922,-19.61301 0.53149,-0.94519 1.11513,-1.95575 1.74777,-3.00807 1.47206,-2.44067 3.19883,-5.12155 5.16023,-7.66126 1.96141,-2.53971 4.16791,-4.92319 6.48231,-6.88269 2.07304,-1.75654 4.23196,-3.13241 6.20515,-4.05223 2.9526,-1.37669 5.42597,-1.73277 6.29716,-2.0308 0.43559,-0.14902 0.48017,-0.29546 0.0118,-0.43719 -0.46839,-0.14173 -1.45699,-0.28645 -3.05114,-0.16662 -1.2774,0.16464 -2.59698,0.47467 -3.90804,0.93757 -2.4406,0.86423 -4.8297,2.2194 -6.99919,3.87856 C 327.79757,670.75474 324.63391,674.36001 322.04285,677.94044 Z"
           id="path2884"
           inkscape:path-effect="#path-effect2892"
           inkscape:original-d="m 345.7907,664.35805 c 36.0971,0 64.3775,110.7154 64.3775,246.9057 0,136.19075 -28.2804,246.28385 -64.3775,246.28385 -36.0973,0 -65.3598,-110.4041 -65.3598,-246.59475 C 280.4309,774.76255 309.6934,664.35805 345.7907,664.35805 Z"
           sodipodi:nodetypes="sssss" />
        <path
           style="fill:#808080;stroke:none"
           d="m 399.7575,1054.3284 c 0.3771,-2.1052 0.7405,-4.2129 1.0907,-6.3229 0.7005,-4.2198 1.3484,-8.4486 1.9476,-12.6843 1.3301,-9.4022 2.8837,-18.8288 3.9036,-28.2634 3.4499,-31.90045 5.4316,-64.00395 5.3182,-96.10495 l 0,0 c 0,-0.8644 -0.01,-1.7288 -0.013,-2.5932 -0.2095,-31.2284 -1.6581,-62.4952 -4.826,-93.5965 -1.1384,-11.1847 -2.5481,-22.3573 -4.3732,-33.4623 -0.6237,-3.7947 -1.2853,-7.5831 -1.9887,-11.3634 1.7002,-2.5641 -4.633,-10.2028 -4.0098,-5.6252 0.359,1.8427 0.7075,3.6877 1.0459,5.5349 0.6769,3.6944 1.3137,7.3971 1.9141,11.1068 1.8325,11.3227 3.2286,22.7234 4.346,34.1432 2.9666,30.333 4.3279,60.8185 4.5107,91.2707 0.01,1.5232 0.016,3.0515 0.02,4.5847 0.04,15.5354 -0.1963,31.5656 -0.8525,47.6784 -0.6562,16.1128 -1.935,32.3077 -3.4991,48.16405 -0.9658,9.7862 -2.5006,19.4474 -3.85,28.8673 -0.6136,4.2835 -1.284,8.5148 -2.0116,12.7007 -0.3638,2.0929 -0.7419,4.1745 -1.1343,6.2456 C 396.9036,1056.6798 399.3805,1056.4336 399.7575,1054.3284 Z"
           id="path2886"
           inkscape:connector-curvature="0"
           sodipodi:nodetypes="ssscccccsccsscccscssss" />
        <g
           id="g2686"
           transform="matrix(0,-0.63722531,-1,0,1950.1599,-1100.1531)">
          <path
             inkscape:connector-curvature="0"
             style="fill:#808080;stroke:none"
             d="m -3007.4113,1470.5202 c -0.6854,-0.3962 -1.3754,-0.7731 -2.0653,-1.1342 -4.8256,-2.5552 -9.8849,-4.5052 -14.9669,-6.1841 0,0 0,0 0,0 -6.429,-2.128 -12.9687,-3.8292 -19.5361,-5.2971 0,0 0,0 0,0 -16.6518,-3.7226 -33.5662,-6.0259 -50.5059,-7.6235 -20.5003,-1.9348 -41.1004,-2.759 -61.689,-2.6507 -3.4233,0.018 -6.8469,0.062 -10.2702,0.1325 -17.1507,0.3555 -34.2952,1.2633 -51.3796,2.9207 0,0 0,0 0,0 -16.9146,1.6399 -33.8102,3.9608 -50.4196,7.764 0,0 0,0 0,0 -6.5452,1.4985 -13.0547,3.2377 -19.4358,5.4137 0,0 0,10e-5 0,10e-5 -5.0437,1.7178 -10.0444,3.7056 -14.7737,6.2906 -3.4381,1.8665 -6.835,4.0954 -9.5392,7.1392 -1.029,1.1592 -1.9408,2.4754 -2.5934,3.9559 -0.5781,1.3155 -0.9088,2.7575 -0.9099,4.2313 0.01,1.2555 0.2532,2.4854 0.6866,3.6321 0.075,0.1995 0.1565,0.3965 0.2429,0.5906 0.6585,1.4748 1.5736,2.784 2.6042,3.9376 2.7088,3.0298 6.1011,5.2496 9.5348,7.1187 4.7227,2.5873 9.7133,4.5924 14.7474,6.3389 6.3685,2.2121 12.8657,4.0053 19.4005,5.5669 16.5801,3.9624 33.4674,6.5043 50.3891,8.2865 0,0 0,0 0,0 19.2915,2.0335 38.6898,3.0133 58.0735,3.023 1.2142,6e-4 2.4284,-0 3.6424,-0.01 20.6038,-0.095 41.2099,-1.0809 61.6964,-3.2145 16.9239,-1.7612 33.813,-4.2546 50.3765,-8.2259 0,0 0,0 0,0 6.5313,-1.5658 13.0207,-3.3719 19.3708,-5.6088 10e-5,0 10e-5,0 10e-5,0 5.0211,-1.767 9.9898,-3.7984 14.6695,-6.4138 2.6681,-1.4839 5.299,-3.1765 7.5741,-5.2876 0.7225,-0.5641 1.3621,-1.1471 1.9218,-1.7338 1.2575,-1.3194 2.0671,-2.7025 2.4914,-3.9076 0.4716,-1.3416 0.4602,-2.4331 0.3027,-3.1191 -0.1575,-0.6861 -0.4507,-0.9856 -0.7243,-0.9754 -0.2737,0.01 -0.5335,0.3199 -0.8305,0.8453 -0.297,0.5254 -0.6407,1.2719 -1.1628,2.189 -0.4937,0.8743 -1.1866,1.9077 -2.16,3.1248 -0.5167,0.6463 -1.1038,1.3291 -1.7758,2.0491 -2.0046,1.7846 -4.3694,3.2732 -6.821,4.6495 -4.5086,2.5092 -9.3533,4.4678 -14.3008,6.1974 0,0 0,0 0,0 -6.2499,2.1819 -12.6607,3.9436 -19.1369,5.4764 0,0 0,0 0,0 -16.4274,3.8876 -33.2093,6.3085 -50.0618,8.0118 -20.3931,2.06 -40.9095,2.9772 -61.4294,3.0101 -0.8635,0 -1.727,0 -2.5905,-6e-4 -19.65,-0.041 -39.3001,-1.0793 -58.8205,-3.1984 -16.8302,-1.828 -33.5746,-4.395 -49.9568,-8.3566 -6.4555,-1.5613 -12.8407,-3.338 -19.0638,-5.5165 0,0 0,0 0,0 -4.9267,-1.7282 -9.7407,-3.6663 -14.2164,-6.1372 0,0 0,0 0,0 -3.2625,-1.823 -6.3507,-3.8083 -8.6208,-6.4123 -0.4659,-0.5336 -0.8949,-1.0811 -1.2638,-1.644 -0.3027,-0.462 -0.5652,-0.935 -0.7741,-1.4198 0,0 0,-10e-5 0,-10e-5 -0.404,-0.9301 -0.6459,-1.917 -0.6401,-2.8682 0,0 0,0 0,0 -0.011,-0.9473 0.2242,-1.9367 0.6259,-2.8745 0.4572,-1.0757 1.1795,-2.0998 2.0279,-3.0791 0,0 0,0 0,0 2.2528,-2.604 5.3374,-4.607 8.6154,-6.4451 4.4521,-2.4674 9.27,-4.4145 14.2233,-6.149 0,0 0,0 0,0 6.2,-2.167 12.595,-3.9377 19.0774,-5.4897 16.3765,-3.9202 33.2212,-6.4331 49.9756,-8.218 17.5712,-1.8706 35.0518,-2.8735 52.0336,-3.1953 3.1391,-0.059 6.2612,-0.091 9.3677,-0.098 21.018,-0.044 41.3196,1.0531 61.4101,3.2019 16.7651,1.7942 33.395,4.2488 50.0201,8.0788 6.4255,1.4804 12.839,3.1676 19.1773,5.2725 3.8356,1.2759 7.6418,2.683 11.3231,4.3885 0.9582,0.4344 2.0235,0.9312 3.1421,1.4858 1.6073,0.8031 3.3312,1.7072 4.961,2.7288 1.6298,1.0216 3.158,2.1684 4.4491,3.3863 1.1486,1.0825 2.0832,2.221 2.745,3.2943 1.0012,1.6234 1.3591,3.068 1.6881,3.5443 0.1644,0.2382 0.333,0.2373 0.4936,-0.1006 0.1606,-0.3379 0.319,-1.0209 0.2593,-2.1008 -0.1039,-0.7172 -0.2923,-1.4481 -0.5666,-2.1657 -0.588,-1.532 -1.5054,-2.9873 -2.6026,-4.2556 C -3001.8845,1474.137 -3004.7172,1472.1065 -3007.4113,1470.5202 Z"
             id="path3602-6"
             inkscape:path-effect="#path-effect3610-1"
             inkscape:original-d="m -2998.0669,1485.4786 c 0,20.1995 -70.7873,36.5744 -158.1076,36.5744 -87.3205,0 -158.1076,-16.3749 -158.1076,-36.5744 0,-20.1995 70.7871,-36.5744 158.1076,-36.5744 C -3068.8542,1448.9042 -2998.0669,1465.2791 -2998.0669,1485.4786 Z" />
          <path
             inkscape:connector-curvature="0"
             id="path3604-9"
             d="m -3312.2875,1494.6965 c 2.8256,2.8706 6.1739,4.9504 9.5219,6.6794 0,0 0,0 0,0 4.8244,2.5182 9.8734,4.4477 14.949,6.1193 0,0 0,0 0,0 6.4187,2.1176 12.9468,3.8238 19.5077,5.2952 0,0 0,0 0,0 10.9626,2.459 22.0471,4.2942 33.1889,5.626 5.7599,0.6885 11.5269,1.3022 17.2958,1.8565 20.4824,1.9688 41.0652,3.1084 61.6497,2.9939 0,0 0,0 0,0 0.5483,-0 1.0965,-0.01 1.6448,-0.012 20.0308,-0.1765 40.094,-0.4578 60.0817,-2.1964 6.884,-0.5981 13.7639,-1.3608 20.6078,-2.3824 10.0186,-1.4956 19.9834,-3.3648 29.8273,-5.7676 6.5348,-1.5949 13.028,-3.4369 19.3768,-5.7159 5.0204,-1.8 9.9897,-3.8722 14.6623,-6.5307 0,0 0,0 0,0 3.3986,-1.9227 6.7382,-4.1969 9.3427,-7.2391 0,0 0,0 0,-10e-5 0.649,-0.7583 1.2454,-1.5773 1.7491,-2.4566 0.3687,-0.4516 0.6618,-0.9113 0.8861,-1.3585 0.644,-1.2883 0.6764,-2.4283 0.4791,-3.1359 -0.1973,-0.7075 -0.6054,-1.0071 -0.9925,-0.9927 -0.3871,0.014 -0.7602,0.3201 -1.0931,0.8215 -0.3329,0.5015 -0.627,1.2007 -0.9713,2.1754 -0.1445,0.4112 -0.3057,0.8733 -0.4967,1.4001 -0.4001,0.6627 -0.8779,1.3018 -1.4019,1.918 0,0 0,0 0,0 -2.3048,2.7126 -5.4326,4.7857 -8.7156,6.6481 0,0 0,0 0,0 -4.5049,2.5353 -9.3516,4.5165 -14.3002,6.2621 -6.2508,2.2024 -12.666,3.9778 -19.1461,5.5183 -9.5968,2.2812 -19.3177,4.051 -29.1015,5.4636 -6.9716,1.0065 -13.9868,1.741 -21.0122,2.3074 -19.4717,1.5686 -39.0111,1.7604 -58.5225,1.8835 -0.9648,0.01 -1.9329,0.011 -2.9041,0.015 -9.9492,0.04 -20.2184,-0.039 -30.5437,-0.3463 -10.3253,-0.3075 -20.7066,-0.8449 -30.8711,-1.674 -5.9832,-0.4885 -11.8922,-1.0692 -17.663,-1.7706 -11.2631,-1.369 -21.9618,-3.422 -32.4244,-6.0436 -6.4545,-1.6174 -12.8097,-3.4519 -19.0809,-5.655 -4.89,-1.7205 -9.7247,-3.6245 -14.3466,-6.0646 -2.3173,-1.2346 -4.5928,-2.5576 -6.6206,-4.1588 -0.7424,-0.566 -1.6296,-1.2677 -2.5077,-2.0705 -1.0316,-0.9412 -2.0259,-2.0162 -2.7719,-3.0932 -0.4309,-0.6206 -0.7845,-1.2411 -1.0735,-1.788 -0.2889,-0.5468 -0.5155,-1.0205 -0.7278,-1.338 -0.2123,-0.3175 -0.4161,-0.4793 -0.6327,-0.3838 -0.2167,0.095 -0.4535,0.4517 -0.6047,1.1712 -0.042,1.0738 0.1718,2.2648 0.6256,3.3979 0.6386,1.5868 1.6636,3.0283 2.7358,4.2005 C -3312.5505,1494.4185 -3312.4189,1494.5589 -3312.2875,1494.6965 Z"
             style="fill:#000000;stroke:none"
             sodipodi:nodetypes="csc"
             inkscape:path-effect="#path-effect3607-8"
             inkscape:original-d="m -2998.0669,1485.4786 c 0,20.1995 -70.7873,36.5744 -158.1076,36.5744 -87.3205,0 -158.1076,-16.3749 -158.1076,-36.5744" />
        </g>
        <path
           inkscape:connector-curvature="0"
           style="fill:#808080;stroke:none"
           d="m 592.24976,857.02472 c 0.23348,0.30602 0.46203,0.62818 0.68844,0.96019 10e-6,0 10e-6,0 10e-6,0 2.34985,3.50754 3.75896,7.73275 4.97967,12.04613 0,0 0,0 0,0 3.72236,13.28711 4.69995,27.3049 4.87525,41.26261 0,0 0,0 0,0 0.0151,1.28485 0.0235,2.57052 0.0241,3.8566 0.007,12.66767 -1.18146,25.35983 -4.43559,37.52727 -1.1694,4.34056 -2.51379,8.62603 -4.80872,12.31731 0,0 0,0 0,0 -0.76543,1.21851 -1.59519,2.35218 -2.63321,3.15564 -0.76352,0.57682 -1.62492,1.00692 -2.44366,0.98548 -0.29924,0.0131 -0.60584,-0.0342 -0.91247,-0.12744 -0.53229,-0.16181 -1.06386,-0.46392 -1.55426,-0.82856 -1.04967,-0.79932 -1.88667,-1.9374 -2.64915,-3.161 -2.28625,-3.70533 -3.55493,-8.01718 -4.62663,-12.37885 0,0 0,0 0,0 -3.16979,-13.02124 -3.76886,-26.51852 -3.98042,-39.98317 -0.007,-0.45444 -0.0133,-0.90888 -0.0184,-1.36328 0,0 0,0 0,0 -0.14094,-13.92859 0.61962,-27.90744 3.87995,-41.37759 0,0 0,0 10e-6,0 1.06621,-4.36824 2.3042,-8.69112 4.53743,-12.47646 0,0 0,0 0,-1e-5 0.63635,-1.07052 1.33401,-2.08926 2.1921,-2.90752 0.18316,-0.11097 0.35628,-0.21367 0.52035,-0.30986 0.90044,-0.5146 1.49385,-0.85074 1.92023,-1.18109 0.42637,-0.33034 0.70664,-0.67128 0.69066,-1.03471 -0.016,-0.36344 -0.38363,-0.75135 -1.15438,-0.82677 -0.38538,-0.0377 -0.86346,0.009 -1.37555,0.19354 -0.51208,0.18427 -1.05664,0.50907 -1.53498,0.99053 -0.2189,0.21691 -0.42984,0.46082 -0.62635,0.73105 -1.01156,0.97954 -1.80399,2.09483 -2.46135,3.21365 0,0 0,0 0,0 -2.43123,4.08877 -3.78876,8.6047 -4.88385,13.03859 0,0 0,0 -10e-6,0 -3.41901,13.71996 -4.31197,27.90084 -4.25605,41.94665 0,0 0,0 0,0 0.001,0.32725 0.003,0.65458 0.005,0.98198 0.0449,6.8579 0.19374,13.74557 0.73084,20.61312 0.5371,6.86756 1.46389,13.7184 3.06446,20.47074 0,0 0,0 0,10e-6 1.04371,4.46169 2.40229,9.0409 4.90361,13.18901 0,1e-5 0,1e-5 0,1e-5 0.82439,1.38936 1.88433,2.78507 3.32037,3.93506 0.39005,0.32085 0.82531,0.60687 1.29908,0.84469 0.87061,0.43704 1.87405,0.71375 2.96992,0.74354 1.67714,-0.0561 3.1452,-0.69232 4.25023,-1.61222 0,0 0,0 0,0 1.41747,-1.14976 2.4693,-2.54466 3.29205,-3.94019 0,0 0,0 0,0 2.45895,-4.1058 3.84381,-8.68134 4.91921,-13.16814 1.54995,-6.3857 2.52377,-12.90388 3.09826,-19.37789 0.57449,-6.47402 0.75377,-12.90349 0.74867,-19.126 -9.7e-4,-1.19195 -0.005,-2.37632 -0.0108,-3.55372 0,0 0,0 0,0 -0.0327,-7.22577 -0.15136,-14.26408 -0.69897,-21.235 -0.54761,-6.97092 -1.52005,-13.88329 -3.3276,-20.77283 0,0 0,0 0,-10e-6 -1.05846,-4.07548 -2.41726,-8.28173 -4.77295,-12.09275 -0.15681,-0.2438 -0.33366,-0.50321 -0.52852,-0.77106 -0.4213,-0.58482 -0.94538,-1.21844 -1.54932,-1.79495 -0.60394,-0.57651 -1.28863,-1.09126 -1.98454,-1.45829 -0.62892,-0.337 -1.28185,-0.52483 -1.82904,-0.56861 -0.54719,-0.0438 -0.98515,0.0522 -1.25613,0.20628 -0.27097,0.15411 -0.37686,0.35753 -0.34481,0.55705 0.032,0.19951 0.196,0.39202 0.44287,0.65741 0.46216,0.26328 0.96238,0.6251 1.50144,1.04682 C 591.09025,855.59482 591.70747,856.28132 592.24976,857.02472 Z"
           id="path2692"
           inkscape:path-effect="#path-effect2700"
           inkscape:original-d="m 588.4961,852.39525 c -8.508,0 -15.4051,26.3698 -15.4051,58.8984 0,32.5286 6.8971,58.8983 15.4051,58.8983 8.508,0 15.4051,-26.3697 15.4051,-58.8983 C 603.9012,878.76505 597.0041,852.39525 588.4961,852.39525 Z" />
        <path
           inkscape:connector-curvature="0"
           id="path2694"
           d="m 586.50398,967.68266 c -0.0193,-0.0117 -0.0386,-0.0234 -0.0579,-0.0353 0,0 0,0 0,0 -1.00859,-0.65615 -1.86671,-1.70687 -2.67322,-2.8712 0,0 0,0 0,0 -2.41239,-3.53298 -3.81559,-7.80619 -5.02436,-12.13473 0,0 0,0 0,0 -1.07292,-3.87291 -1.92436,-7.80476 -2.65986,-11.77049 -0.89832,-4.8439 -1.37646,-9.77389 -1.64315,-14.71812 -0.26668,-4.94422 -0.32306,-9.90541 -0.38342,-14.85918 -0.002,-0.20591 -0.005,-0.41183 -0.007,-0.61778 -0.0584,-5.05774 0.27679,-10.12353 0.80825,-15.14381 0.53146,-5.02029 1.2569,-9.98963 1.98726,-14.94423 0.52534,-3.56373 1.18687,-7.10341 2.00993,-10.61275 0,0 0,0 0,0 1.03569,-4.36935 2.21836,-8.68234 4.38772,-12.48853 0,0 0,0 0,0 0.72358,-1.25883 1.52522,-2.44851 2.57717,-3.34019 10e-6,0 10e-6,0 10e-6,0 0.31475,-0.26337 0.65323,-0.50263 1.0084,-0.69672 0.65801,-0.0616 1.00311,-0.19991 1.26,-0.45321 0.25689,-0.2533 0.41945,-0.61766 0.40113,-0.98631 -0.0183,-0.36864 -0.25175,-0.74057 -0.73673,-0.87562 -0.48498,-0.13505 -1.22901,-0.0116 -1.85876,0.5943 -0.47068,0.24271 -0.90223,0.537 -1.28816,0.86571 0,0 0,0 0,0 -1.32648,1.10962 -2.30226,2.46254 -3.08963,3.82436 0,0 0,0 0,0 -2.38145,4.07695 -3.70976,8.56977 -4.80093,12.99654 0,0 0,0 0,0 -0.86968,3.50383 -1.58179,7.03597 -2.15902,10.58926 -0.80977,4.98423 -1.6124,9.97796 -2.21378,15.01484 -0.60138,5.03689 -0.99929,10.11155 -0.99136,15.16825 5.8e-4,0.36753 0.003,0.7362 0.006,1.10589 0.0387,4.90163 0.32102,10.02522 0.82912,15.11183 0.50811,5.08661 1.24511,10.13226 2.12552,14.91278 0.75142,4.08029 1.42562,8.00543 2.28423,11.88479 0.48634,2.21712 1.03113,4.4485 1.78442,6.64346 0.7533,2.19496 1.71539,4.35709 3.03513,6.38411 0.65794,1.02174 1.45401,2.03329 2.44257,2.89182 0.25466,0.20774 0.57586,0.42862 0.93984,0.62476 0.47786,0.26428 1.04668,0.46404 1.59102,0.53798 0.54434,0.0739 1.05699,0.0215 1.42708,-0.12596 0.37009,-0.14744 0.59382,-0.38225 0.65561,-0.63326 0.0618,-0.25101 -0.0329,-0.50921 -0.21428,-0.80283 -0.25582,-0.18968 -0.5219,-0.33517 -0.82214,-0.49718 C 587.14028,968.06394 586.80813,967.8859 586.50398,967.68266 Z"
           style="fill:#000000;stroke:none"
           sodipodi:nodetypes="csc"
           inkscape:path-effect="#path-effect2697"
           inkscape:original-d="m 588.4961,852.39525 c -8.508,0 -15.4051,26.3698 -15.4051,58.8984 0,32.5286 6.8971,58.8983 15.4051,58.8983" />
        <path
           style="fill:none;stroke:#000000;stroke-width:1px;stroke-linecap:butt;stroke-linejoin:miter;stroke-opacity:1"
           d="m 256.5348,912.12565 533.7485,0"
           id="path2584-0-1"
           inkscape:connector-curvature="0"
           sodipodi:nodetypes="cc" />
        <path
           style="fill:none;stroke:#000000;stroke-width:1px;stroke-linecap:butt;stroke-linejoin:miter;stroke-opacity:1"
           d="m 346.3979,1173.2952 0.5697,-587.12525"
           id="path2582-4-7"
           inkscape:connector-curvature="0"
           sodipodi:nodetypes="cc" />
        <path
           style="fill:#000000;stroke:none"
           d="m 694.40241,869.46868 c -35.06029,-5.31452 -70.08262,-10.81152 -104.73845,-18.2862 -0.28146,-0.0607 -0.56292,-0.12159 -0.84436,-0.18256 -17.46864,-3.78464 -34.81822,-8.35431 -51.84333,-13.82027 -17.02511,-5.46597 -33.72145,-11.82514 -49.95405,-19.2114 -5.60341,-2.54972 -11.12758,-5.27631 -16.56465,-8.17744 0,0 0,0 0,0 -15.23356,-8.1263 -30.32061,-16.51189 -44.66455,-25.95333 -10.27604,-6.76706 -20.16321,-14.11167 -29.19892,-22.33402 -2.3557,-2.14366 -4.647,-4.35539 -6.86406,-6.64179 0,0 0,-10e-6 0,-10e-6 -10.86544,-11.19423 -19.83777,-24.23969 -26.46281,-38.40767 -7.04008,-15.04117 -11.56257,-31.21187 -14.5154,-47.66546 -0.22674,-4.96242 -1.43636,-7.10823 -2.33411,-6.8675 -0.89774,0.24073 -1.47176,2.92139 -0.0265,7.54963 2.90075,16.52639 7.39847,32.83001 14.43899,48.09181 6.68175,14.47229 15.76406,27.81922 26.80397,39.30332 0,0 0,0 0,0 2.09112,2.17409 4.24525,4.28171 6.45444,6.32801 9.29609,8.61078 19.46548,16.26648 30.01571,23.27258 0,0 10e-6,0 10e-6,1e-5 14.44593,9.59644 29.58362,18.09271 44.80525,26.26606 4.98345,2.67461 10.03854,5.20207 15.15918,7.58016 16.16911,7.50902 33.6889,13.98728 51.51838,19.42486 17.82948,5.43758 35.95758,9.85666 53.29691,13.61169 0.0928,0.0201 0.18552,0.0402 0.27825,0.0602 0,0 0,0 0,0 17.28519,3.74316 33.77183,7.14982 50.30252,10.2989 16.5307,3.14908 33.0969,6.01618 50.52068,8.58563 6.3929,0.86333 19.72853,1.87957 14.55872,-0.73871 C 701.62452,870.60354 697.78716,870.0248 694.40241,869.46868 Z"
           id="path2472-8"
           inkscape:connector-curvature="0"
           sodipodi:nodetypes="csc"
           inkscape:path-effect="#path-effect2826"
           inkscape:original-d="m 346.8942,661.85175 c 11.8842,87.0977 57.7598,114.6858 122.9967,149.0159 75.2992,39.6251 164.8346,50.1549 235.633,62.7228" />
        <path
           sodipodi:nodetypes="csc"
           inkscape:connector-curvature="0"
           id="path2519"
           d="m 693.67358,948.16867 c -34.76563,6.7177 -69.92373,11.99745 -104.54714,20.12972 -0.28115,0.066 -0.56227,0.13219 -0.84337,0.19857 -17.44719,4.11959 -34.8649,8.62215 -52.00268,13.99748 -17.13778,5.37533 -33.99983,11.62667 -50.26477,19.22056 -5.61459,2.6213 -11.18201,5.3482 -16.69139,8.2075 0,0 -10e-6,0 -10e-6,0 -15.3325,7.9587 -30.75961,15.86 -45.47311,25.0839 -10.55181,6.6119 -20.73591,13.9808 -29.87068,22.5245 -2.38155,2.2274 -4.69832,4.5262 -6.9399,6.9026 0,0 0,0 0,0 -10.98994,11.6618 -19.94387,25.1839 -26.40348,39.7831 -6.84413,15.484 -11.01453,31.9596 -13.48198,48.6003 -1.37323,4.8064 -0.71262,7.2502 0.21675,7.2592 0.92936,0.01 2.13009,-2.3621 2.23788,-7.1489 2.52577,-16.3716 6.7006,-32.5144 13.4644,-47.6021 6.40304,-14.2953 15.24726,-27.516 26.06231,-38.8875 0,0 0,0 0,0 2.04898,-2.1555 4.16377,-4.2463 6.33609,-6.2773 9.14101,-8.5463 19.40266,-15.9035 30.06732,-22.525 0,0 0,0 0,0 14.61389,-9.0705 29.99088,-16.8611 45.33241,-24.7712 4.96445,-2.5603 9.97679,-5.0141 15.02897,-7.382 15.95286,-7.47719 33.15067,-14.25905 50.72277,-20.09742 17.5721,-5.83838 35.50042,-10.75007 52.72767,-14.79455 0.0922,-0.0216 0.18433,-0.0433 0.27647,-0.0648 0,0 10e-6,0 10e-6,0 17.17307,-4.01947 33.74709,-6.86446 50.33053,-9.57674 16.58344,-2.71228 33.19354,-5.27261 50.49422,-8.64347 6.32134,-1.31169 19.19713,-4.91517 13.45298,-5.60365 C 700.84235,946.80772 697.04429,947.56071 693.67358,948.16867 Z"
           style="fill:#000000;stroke:none"
           inkscape:path-effect="#path-effect2823"
           inkscape:original-d="m 346.8942,1160.0152 c 11.8842,-87.0977 57.7598,-114.6858 122.9967,-149.0159 75.2992,-39.62515 164.8346,-50.15495 235.633,-62.72285" />
        <path
           style="fill:none;stroke:#000000;stroke-width:1px;stroke-linecap:butt;stroke-linejoin:miter;stroke-opacity:1"
           d="M 430.8734,767.18445 214.6443,1139.3069"
           id="path2582-5-3"
           inkscape:connector-curvature="0"
           sodipodi:nodetypes="cc" />
        <path
           inkscape:original-d="m 588.4961,852.39525 c -8.508,0 -15.4051,26.3698 -15.4051,58.8984 0,32.5286 6.8971,58.8983 15.4051,58.8983"
           inkscape:path-effect="#path-effect2861"
           sodipodi:nodetypes="csc"
           style="fill:#000000;stroke:none"
           d="m 586.50398,967.68266 c -0.0193,-0.0117 -0.0386,-0.0234 -0.0579,-0.0353 0,0 0,0 0,0 -1.00859,-0.65615 -1.86671,-1.70687 -2.67322,-2.8712 0,0 0,0 0,0 -2.41239,-3.53298 -3.81559,-7.80619 -5.02436,-12.13473 0,0 0,0 0,0 -1.07292,-3.87291 -1.92436,-7.80476 -2.65986,-11.77049 -0.89832,-4.8439 -1.37646,-9.77389 -1.64315,-14.71812 -0.26668,-4.94422 -0.32306,-9.90541 -0.38342,-14.85918 -0.002,-0.20591 -0.005,-0.41183 -0.007,-0.61778 -0.0584,-5.05774 0.27679,-10.12353 0.80825,-15.14381 0.53146,-5.02029 1.2569,-9.98963 1.98726,-14.94423 0.52534,-3.56373 1.18687,-7.10341 2.00993,-10.61275 0,0 0,0 0,0 1.03569,-4.36935 2.21836,-8.68234 4.38772,-12.48853 0,0 0,0 0,0 0.72358,-1.25883 1.52522,-2.44851 2.57717,-3.34019 10e-6,0 10e-6,0 10e-6,0 0.31475,-0.26337 0.65323,-0.50263 1.0084,-0.69672 0.65801,-0.0616 1.00311,-0.19991 1.26,-0.45321 0.25689,-0.2533 0.41945,-0.61766 0.40113,-0.98631 -0.0183,-0.36864 -0.25175,-0.74057 -0.73673,-0.87562 -0.48498,-0.13505 -1.22901,-0.0116 -1.85876,0.5943 -0.47068,0.24271 -0.90223,0.537 -1.28816,0.86571 0,0 0,0 0,0 -1.32648,1.10962 -2.30226,2.46254 -3.08963,3.82436 0,0 0,0 0,0 -2.38145,4.07695 -3.70976,8.56977 -4.80093,12.99654 0,0 0,0 0,0 -0.86968,3.50383 -1.58179,7.03597 -2.15902,10.58926 -0.80977,4.98423 -1.6124,9.97796 -2.21378,15.01484 -0.60138,5.03689 -0.99929,10.11155 -0.99136,15.16825 5.8e-4,0.36753 0.003,0.7362 0.006,1.10589 0.0387,4.90163 0.32102,10.02522 0.82912,15.11183 0.50811,5.08661 1.24511,10.13226 2.12552,14.91278 0.75142,4.08029 1.42562,8.00543 2.28423,11.88479 0.48634,2.21712 1.03113,4.4485 1.78442,6.64346 0.7533,2.19496 1.71539,4.35709 3.03513,6.38411 0.65794,1.02174 1.45401,2.03329 2.44257,2.89182 0.25466,0.20774 0.57586,0.42862 0.93984,0.62476 0.47786,0.26428 1.04668,0.46404 1.59102,0.53798 0.54434,0.0739 1.05699,0.0215 1.42708,-0.12596 0.37009,-0.14744 0.59382,-0.38225 0.65561,-0.63326 0.0618,-0.25101 -0.0329,-0.50921 -0.21428,-0.80283 -0.25582,-0.18968 -0.5219,-0.33517 -0.82214,-0.49718 C 587.14028,968.06394 586.80813,967.8859 586.50398,967.68266 Z"
           id="path2859"
           inkscape:connector-curvature="0" />
      </g>
      <text
         sodipodi:linespacing="125%"
         id="text6907"
         y="-525.79175"
         x="393.44702"
         style="font-size:15px;font-style:normal;font-variant:normal;font-weight:500;font-stretch:normal;text-align:start;line-height:125%;letter-spacing:0px;word-spacing:0px;writing-mode:lr-tb;text-anchor:start;fill:#000000;fill-opacity:1;stroke:none;font-family:CMU Serif;-inkscape-font-specification:CMU Serif Medium"
         xml:space="preserve"><tspan
           y="-525.79175"
           x="393.44702"
           id="tspan6909"
           sodipodi:role="line">traktrysa</tspan></text>
      <text
         sodipodi:linespacing="125%"
         id="text6911"
         y="-448.92236"
         x="392.90701"
         style="font-size:15px;font-style:normal;font-variant:normal;font-weight:500;font-stretch:normal;text-align:start;line-height:125%;letter-spacing:0px;word-spacing:0px;writing-mode:lr-tb;text-anchor:start;fill:#000000;fill-opacity:1;stroke:none;font-family:CMU Serif;-inkscape-font-specification:CMU Serif Medium"
         xml:space="preserve"><tspan
           y="-448.92236"
           x="392.90701"
           id="tspan6913"
           sodipodi:role="line">$\alpha(t)=(\sin(t), \ln(\tan(\frac{t}{2})+\cos(t))$</tspan></text>
    </g>
  </g>
</svg>
