<?xml version="1.0" encoding="UTF-8" standalone="no"?>
<!-- Created with Inkscape (http://www.inkscape.org/) -->

<svg
   xmlns:dc="http://purl.org/dc/elements/1.1/"
   xmlns:cc="http://creativecommons.org/ns#"
   xmlns:rdf="http://www.w3.org/1999/02/22-rdf-syntax-ns#"
   xmlns:svg="http://www.w3.org/2000/svg"
   xmlns="http://www.w3.org/2000/svg"
   xmlns:sodipodi="http://sodipodi.sourceforge.net/DTD/sodipodi-0.dtd"
   xmlns:inkscape="http://www.inkscape.org/namespaces/inkscape"
   width="455.28357"
   height="549.9751"
   id="svg3696"
   version="1.1"
   inkscape:version="0.48+devel r"
   sodipodi:docname="rotation.svg">
  <title
     id="title4244">Winter School -- Contact Topology</title>
  <defs
     id="defs3698">
    <inkscape:path-effect
       fuse_tolerance="0"
       vertical_pattern="false"
       prop_units="false"
       tang_offset="0"
       normal_offset="0"
       spacing="0"
       scale_y_rel="false"
       prop_scale="1"
       copytype="single_stretched"
       pattern="m 95.054236,0.02624778 c -7.77241,0.72284 -15.55638,0.59508 -23.34732,0.93083 -7.79095,0.33575002 -15.58849,-0.16545 -23.38728,0.0109 -7.7988,0.17634002 -15.59884,-0.96978 -23.39479,-0.72517 -7.79596,0.24461 -15.5878095,0.58027 -23.3702295,1.12082002 -2.15230001,-1.15612002 -2.01174001,3.78271 0.0625,2.4375 7.71127,-0.37053 15.4322995,-0.53042 23.1566795,-0.61261 7.72438,-0.0822 15.45212,1.213 23.1768,1.15327 7.72469,-0.0597 16.17001,-0.80459 23.88219,-1.10773 7.71218,-0.30315 14.69083,1.13589 22.3777,0.32345 1.40356,-0.22689 4.29984,-1.54077 3.09375,-3.21875002 C 96.643456,-0.08987222 95.800066,-5.9221925e-4 95.054236,0.02624778 Z"
       is_visible="true"
       id="path-effect3590"
       effect="skeletal" />
    <inkscape:path-effect
       fuse_tolerance="0"
       vertical_pattern="false"
       prop_units="false"
       tang_offset="0"
       normal_offset="0"
       spacing="0"
       scale_y_rel="false"
       prop_scale="1"
       copytype="single_stretched"
       pattern="m 95.054236,0.02624778 c -7.77241,0.72284 -15.55638,0.59508 -23.34732,0.93083 -7.79095,0.33575002 -15.58849,-0.16545 -23.38728,0.0109 -7.7988,0.17634002 -15.59884,-0.96978 -23.39479,-0.72517 -7.79596,0.24461 -15.5878095,0.58027 -23.3702295,1.12082002 -2.15230001,-1.15612002 -2.01174001,3.78271 0.0625,2.4375 7.71127,-0.37053 15.4322995,-0.53042 23.1566795,-0.61261 7.72438,-0.0822 15.45212,1.213 23.1768,1.15327 7.72469,-0.0597 16.17001,-0.80459 23.88219,-1.10773 7.71218,-0.30315 14.69083,1.13589 22.3777,0.32345 1.40356,-0.22689 4.29984,-1.54077 3.09375,-3.21875002 C 96.643456,-0.08987222 95.800066,-5.9221925e-4 95.054236,0.02624778 Z"
       is_visible="true"
       id="path-effect3594"
       effect="skeletal" />
    <inkscape:path-effect
       effect="skeletal"
       id="path-effect3610"
       is_visible="true"
       pattern="m 95.054236,0.02624778 c -7.77241,0.72284 -15.55638,0.59508 -23.34732,0.93083 -7.79095,0.33575002 -15.58849,-0.16545 -23.38728,0.0109 -7.7988,0.17634002 -15.59884,-0.96978 -23.39479,-0.72517 -7.79596,0.24461 -15.5878095,0.58027 -23.3702295,1.12082002 -2.15230001,-1.15612002 -2.01174001,3.78271 0.0625,2.4375 7.71127,-0.37053 15.4322995,-0.53042 23.1566795,-0.61261 7.72438,-0.0822 15.45212,1.213 23.1768,1.15327 7.72469,-0.0597 16.17001,-0.80459 23.88219,-1.10773 7.71218,-0.30315 14.69083,1.13589 22.3777,0.32345 1.40356,-0.22689 4.29984,-1.54077 3.09375,-3.21875002 C 96.643456,-0.08987222 95.800066,-5.9221925e-4 95.054236,0.02624778 Z"
       copytype="single_stretched"
       prop_scale="1"
       scale_y_rel="false"
       spacing="0"
       normal_offset="0"
       tang_offset="0"
       prop_units="false"
       vertical_pattern="false"
       fuse_tolerance="0" />
    <inkscape:path-effect
       effect="skeletal"
       id="path-effect3607"
       is_visible="true"
       pattern="m 95.054236,0.02624778 c -7.77241,0.72284 -15.55638,0.59508 -23.34732,0.93083 -7.79095,0.33575002 -15.58849,-0.16545 -23.38728,0.0109 -7.7988,0.17634002 -15.59884,-0.96978 -23.39479,-0.72517 -7.79596,0.24461 -15.5878095,0.58027 -23.3702295,1.12082002 -2.15230001,-1.15612002 -2.01174001,3.78271 0.0625,2.4375 7.71127,-0.37053 15.4322995,-0.53042 23.1566795,-0.61261 7.72438,-0.0822 15.45212,1.213 23.1768,1.15327 7.72469,-0.0597 16.17001,-0.80459 23.88219,-1.10773 7.71218,-0.30315 14.69083,1.13589 22.3777,0.32345 1.40356,-0.22689 4.29984,-1.54077 3.09375,-3.21875002 C 96.643456,-0.08987222 95.800066,-5.9221925e-4 95.054236,0.02624778 Z"
       copytype="single_stretched"
       prop_scale="1"
       scale_y_rel="false"
       spacing="0"
       normal_offset="0"
       tang_offset="0"
       prop_units="false"
       vertical_pattern="false"
       fuse_tolerance="0" />
    <inkscape:path-effect
       effect="skeletal"
       id="path-effect3548"
       is_visible="true"
       pattern="m 95.054236,0.02624778 c -7.77241,0.72284 -15.55638,0.59508 -23.34732,0.93083 -7.79095,0.33575002 -15.58849,-0.16545 -23.38728,0.0109 -7.7988,0.17634002 -15.59884,-0.96978 -23.39479,-0.72517 -7.79596,0.24461 -15.5878095,0.58027 -23.3702295,1.12082002 -2.15230001,-1.15612002 -2.01174001,3.78271 0.0625,2.4375 7.71127,-0.37053 15.4322995,-0.53042 23.1566795,-0.61261 7.72438,-0.0822 15.45212,1.213 23.1768,1.15327 7.72469,-0.0597 16.17001,-0.80459 23.88219,-1.10773 7.71218,-0.30315 14.69083,1.13589 22.3777,0.32345 1.40356,-0.22689 4.29984,-1.54077 3.09375,-3.21875002 C 96.643456,-0.08987222 95.800066,-5.9221925e-4 95.054236,0.02624778 Z"
       copytype="single_stretched"
       prop_scale="1"
       scale_y_rel="false"
       spacing="0"
       normal_offset="0"
       tang_offset="0"
       prop_units="false"
       vertical_pattern="false"
       fuse_tolerance="0" />
    <inkscape:path-effect
       effect="skeletal"
       id="path-effect3572"
       is_visible="true"
       pattern="m 95.054236,0.02624778 c -7.77241,0.72284 -15.55638,0.59508 -23.34732,0.93083 -7.79095,0.33575002 -15.58849,-0.16545 -23.38728,0.0109 -7.7988,0.17634002 -15.59884,-0.96978 -23.39479,-0.72517 -7.79596,0.24461 -15.5878095,0.58027 -23.3702295,1.12082002 -2.15230001,-1.15612002 -2.01174001,3.78271 0.0625,2.4375 7.71127,-0.37053 15.4322995,-0.53042 23.1566795,-0.61261 7.72438,-0.0822 15.45212,1.213 23.1768,1.15327 7.72469,-0.0597 16.17001,-0.80459 23.88219,-1.10773 7.71218,-0.30315 14.69083,1.13589 22.3777,0.32345 1.40356,-0.22689 4.29984,-1.54077 3.09375,-3.21875002 C 96.643456,-0.08987222 95.800066,-5.9221925e-4 95.054236,0.02624778 Z"
       copytype="single_stretched"
       prop_scale="1"
       scale_y_rel="false"
       spacing="0"
       normal_offset="0"
       tang_offset="0"
       prop_units="false"
       vertical_pattern="false"
       fuse_tolerance="0" />
    <inkscape:path-effect
       effect="skeletal"
       id="path-effect3580"
       is_visible="true"
       pattern="m 95.054236,0.02624778 c -7.77241,0.72284 -15.55638,0.59508 -23.34732,0.93083 -7.79095,0.33575002 -15.58849,-0.16545 -23.38728,0.0109 -7.7988,0.17634002 -15.59884,-0.96978 -23.39479,-0.72517 -7.79596,0.24461 -15.5878095,0.58027 -23.3702295,1.12082002 -2.15230001,-1.15612002 -2.01174001,3.78271 0.0625,2.4375 7.71127,-0.37053 15.4322995,-0.53042 23.1566795,-0.61261 7.72438,-0.0822 15.45212,1.213 23.1768,1.15327 7.72469,-0.0597 16.17001,-0.80459 23.88219,-1.10773 7.71218,-0.30315 14.69083,1.13589 22.3777,0.32345 1.40356,-0.22689 4.29984,-1.54077 3.09375,-3.21875002 C 96.643456,-0.08987222 95.800066,-5.9221925e-4 95.054236,0.02624778 Z"
       copytype="single_stretched"
       prop_scale="1"
       scale_y_rel="false"
       spacing="0"
       normal_offset="0"
       tang_offset="0"
       prop_units="false"
       vertical_pattern="false"
       fuse_tolerance="0" />
    <inkscape:path-effect
       effect="skeletal"
       id="path-effect3564"
       is_visible="true"
       pattern="m 95.054236,0.02624778 c -7.77241,0.72284 -15.55638,0.59508 -23.34732,0.93083 -7.79095,0.33575002 -15.58849,-0.16545 -23.38728,0.0109 -7.7988,0.17634002 -15.59884,-0.96978 -23.39479,-0.72517 -7.79596,0.24461 -15.5878095,0.58027 -23.3702295,1.12082002 -2.15230001,-1.15612002 -2.01174001,3.78271 0.0625,2.4375 7.71127,-0.37053 15.4322995,-0.53042 23.1566795,-0.61261 7.72438,-0.0822 15.45212,1.213 23.1768,1.15327 7.72469,-0.0597 16.17001,-0.80459 23.88219,-1.10773 7.71218,-0.30315 14.69083,1.13589 22.3777,0.32345 1.40356,-0.22689 4.29984,-1.54077 3.09375,-3.21875002 C 96.643456,-0.08987222 95.800066,-5.9221925e-4 95.054236,0.02624778 Z"
       copytype="single_stretched"
       prop_scale="1"
       scale_y_rel="false"
       spacing="0"
       normal_offset="0"
       tang_offset="0"
       prop_units="false"
       vertical_pattern="false"
       fuse_tolerance="0" />
    <inkscape:path-effect
       effect="skeletal"
       id="path-effect3556"
       is_visible="true"
       pattern="m 95.054236,0.02624778 c -7.77241,0.72284 -15.55638,0.59508 -23.34732,0.93083 -7.79095,0.33575002 -15.58849,-0.16545 -23.38728,0.0109 -7.7988,0.17634002 -15.59884,-0.96978 -23.39479,-0.72517 -7.79596,0.24461 -15.5878095,0.58027 -23.3702295,1.12082002 -2.15230001,-1.15612002 -2.01174001,3.78271 0.0625,2.4375 7.71127,-0.37053 15.4322995,-0.53042 23.1566795,-0.61261 7.72438,-0.0822 15.45212,1.213 23.1768,1.15327 7.72469,-0.0597 16.17001,-0.80459 23.88219,-1.10773 7.71218,-0.30315 14.69083,1.13589 22.3777,0.32345 1.40356,-0.22689 4.29984,-1.54077 3.09375,-3.21875002 C 96.643456,-0.08987222 95.800066,-5.9221925e-4 95.054236,0.02624778 Z"
       copytype="single_stretched"
       prop_scale="2.02"
       scale_y_rel="false"
       spacing="0"
       normal_offset="0"
       tang_offset="0"
       prop_units="false"
       vertical_pattern="false"
       fuse_tolerance="0" />
  </defs>
  <sodipodi:namedview
     id="base"
     pagecolor="#ffffff"
     bordercolor="#666666"
     borderopacity="1.0"
     inkscape:pageopacity="0.0"
     inkscape:pageshadow="2"
     inkscape:zoom="0.8203125"
     inkscape:cx="174.91275"
     inkscape:cy="290.25083"
     inkscape:document-units="px"
     inkscape:current-layer="layer1"
     showgrid="false"
     fit-margin-top="0"
     fit-margin-left="0"
     fit-margin-right="0"
     fit-margin-bottom="0" />
  <metadata
     id="metadata3701">
    <rdf:RDF>
      <cc:Work
         rdf:about="">
        <dc:format>image/svg+xml</dc:format>
        <dc:type
           rdf:resource="http://purl.org/dc/dcmitype/StillImage" />
        <dc:title>Winter School -- Contact Topology</dc:title>
        <dc:date>2013</dc:date>
        <dc:creator>
          <cc:Agent>
            <dc:title>Marek Kaluba</dc:title>
          </cc:Agent>
        </dc:creator>
        <dc:rights>
          <cc:Agent>
            <dc:title>Marek Kaluba</dc:title>
          </cc:Agent>
        </dc:rights>
      </cc:Work>
    </rdf:RDF>
  </metadata>
  <g
     inkscape:label="Layer 1"
     inkscape:groupmode="layer"
     id="layer1"
     transform="translate(-173.42489,-122.74609)">
    <g
       transform="translate(2933.0824,1766.7171)"
       id="g3632">
      <path
         inkscape:connector-curvature="0"
         style="fill:#808080;stroke:none"
         d="m -2496.3141,-1307.2948 c -0.4618,-0.2629 -0.9254,-0.5114 -1.3877,-0.748 0,0 0,0 0,0 -7.2698,-3.7747 -15.1308,-5.8036 -22.8569,-7.4855 0,0 0,0 0,0 -10.9728,-2.409 -22.0988,-3.9 -33.2326,-4.9295 -13.4756,-1.2475 -27.012,-1.7711 -40.5367,-1.6629 -2.2482,0.018 -4.4966,0.053 -6.7446,0.1072 -11.2663,0.2702 -22.5277,0.8741 -33.7527,1.9581 0,0 0,0 0,0 -11.112,1.0722 -22.2191,2.5813 -33.1463,5.07 0,0 0,0 0,0 -7.6942,1.7428 -15.492,3.8513 -22.5636,7.7086 0,0 0,0 0,0 -2.2777,1.232 -4.5449,2.7265 -6.3727,4.7796 -1.3455,1.4763 -2.3584,3.4426 -2.3994,5.6538 0.023,0.8825 0.1994,1.7236 0.4899,2.5087 0.4373,1.1818 1.1302,2.2374 1.9398,3.1182 1.8325,2.0391 4.0951,3.5246 6.3684,4.759 7.0577,3.8636 14.8287,6.0561 22.502,7.91 0,0 0,0 0,0 10.8985,2.6482 21.9973,4.3781 33.1157,5.5925 12.6768,1.3863 25.4295,2.0621 38.1689,2.0383 0.7983,-0 1.5965,-0.01 2.3946,-0.011 13.5408,-0.095 27.0832,-0.7804 40.544,-2.2265 11.1187,-1.1933 22.2193,-2.8745 33.1033,-5.532 0,0 0,0 0,0 7.6693,-1.8631 15.4284,-4.0952 22.3944,-8.0268 0,0 0,0 0,0 1.7583,-0.9864 3.4985,-2.1202 5.009,-3.5358 0.4974,-0.3593 0.9373,-0.7388 1.3205,-1.1259 0.7108,-0.7062 1.2027,-1.4814 1.4919,-2.1911 0.2892,-0.7096 0.3819,-1.3523 0.3595,-1.858 -0.022,-0.5058 -0.1568,-0.8757 -0.3269,-1.106 -0.1701,-0.2303 -0.3748,-0.3232 -0.5746,-0.3132 -0.3996,0.02 -0.7535,0.4175 -1.1849,1.0088 -0.4314,0.5912 -0.9927,1.414 -1.8484,2.6165 -0.3105,0.4131 -0.6605,0.8583 -1.062,1.3406 -1.2658,1.1354 -2.7823,2.0953 -4.3685,2.9983 0,0 0,0 0,0 -6.6315,3.7335 -14.1831,5.8453 -21.7917,7.678 0,0 0,0 0,0 -10.7478,2.5739 -21.7412,4.1826 -32.7885,5.3178 -13.3672,1.3725 -26.8198,1.9893 -40.2771,2.0222 -0.5659,0 -1.1318,0 -1.6977,10e-4 -12.887,-0.016 -25.7725,-0.7516 -38.5609,-2.212 0,0 0,0 0,0 -11.0266,-1.2602 -21.9825,-3.0153 -32.6835,-5.6626 0,0 0,0 0,0 -7.5794,-1.8899 -15.0642,-4.001 -21.6342,-7.658 0,0 0,0 0,0 -2.1021,-1.1883 -4.0606,-2.4393 -5.4544,-4.0526 -0.267,-0.3279 -0.5189,-0.6628 -0.7399,-0.9992 -0.5356,-0.8152 -0.8916,-1.6422 -0.8341,-2.3995 -0.091,-1.061 0.6331,-2.281 1.5498,-3.4201 0,0 0,0 0,0 1.3809,-1.6183 3.3369,-2.8851 5.449,-4.0855 6.5011,-3.6398 14.0107,-5.7657 21.6548,-7.6429 10.7011,-2.6074 21.7251,-4.3044 32.7023,-5.524 11.5111,-1.2777 22.9698,-1.9843 34.1054,-2.2286 2.0585,-0.045 4.106,-0.07 6.1434,-0.077 0,0 0,0 0,0 13.7838,-0.044 27.0954,0.7431 40.2578,2.214 10.9847,1.2286 21.8671,2.8839 32.7467,5.3848 6.7688,1.5675 13.5741,3.2731 19.9355,6.2096 0.6254,0.2791 1.3234,0.5944 2.0611,0.9414 1.0565,0.5019 2.1903,1.0564 3.2687,1.6807 1.0785,0.6244 2.0971,1.3241 2.9749,2.0748 0.7765,0.6703 1.441,1.3973 1.9288,2.0787 0.4877,0.6815 0.8053,1.3191 1.0559,1.77 0.2506,0.451 0.4546,0.7135 0.6742,0.596 0.2197,-0.1176 0.4704,-0.632 0.4779,-1.6608 -0.1861,-1.6071 -0.9707,-3.2797 -2.12,-4.5679 C -2492.5772,-1304.8614 -2494.506,-1306.2369 -2496.3141,-1307.2948 Z"
         id="path3588"
         inkscape:path-effect="#path-effect3590"
         inkscape:original-d="m -2490.5625,-1296.8434 c 0,13.2568 -46.4574,24.0036 -103.7655,24.0036 -57.3081,0 -103.7654,-10.7468 -103.7654,-24.0036 0,-13.2569 46.4573,-24.0037 103.7654,-24.0037 C -2537.0199,-1320.8471 -2490.5625,-1310.1003 -2490.5625,-1296.8434 Z" />
      <path
         inkscape:connector-curvature="0"
         id="path3592"
         d="m -2697.3247,-1290.2935 c 1.9679,1.9476 4.2369,3.3309 6.4774,4.4542 7.2714,3.6942 15.0919,5.7275 22.8107,7.4188 0,0 0,0 0,0 7.2195,1.5931 14.5127,2.7801 21.8415,3.6079 3.7891,0.428 7.5796,0.8199 11.3699,1.1805 13.4574,1.2815 26.9758,2.1206 40.4972,2.0062 0,0 0,0 0,0 0.36,-0 0.7199,-0.01 1.0799,-0.011 13.1577,-0.1609 26.3458,-0.1397 39.4942,-1.2092 4.5277,-0.3675 9.0539,-0.8594 13.5531,-1.5529 6.5867,-1.0151 13.1388,-2.2808 19.6088,-3.9031 0,0 0,0 0,0 7.67,-1.9108 15.4476,-4.2248 22.3931,-8.2508 0,0 0,0 0,0 2.238,-1.288 4.448,-2.8277 6.1763,-4.8795 0,0 0,0 0,0 0.4395,-0.5125 0.8382,-1.0772 1.17,-1.6818 0.4637,-0.5037 0.7487,-1.0451 0.8887,-1.5356 0.1399,-0.4905 0.1375,-0.9289 0.05,-1.2697 -0.1752,-0.6815 -0.6692,-0.9477 -1.1299,-0.9218 -0.4607,0.026 -0.8913,0.2876 -1.2146,0.6741 -0.3232,0.3864 -0.5422,0.9076 -0.7663,1.9022 -0.2427,0.4101 -0.5293,0.8145 -0.839,1.2039 0,0 0,0 0,0 -1.4286,1.7221 -3.4268,3.0607 -5.5492,4.2884 0,0 0,0 0,0 -6.6202,3.7904 -14.1874,5.9405 -21.8003,7.7847 0,0 0,0 0,0 -6.2804,1.514 -12.6474,2.6876 -19.0587,3.6238 -4.5687,0.6672 -9.1715,1.1231 -13.7817,1.4532 -12.776,0.9134 -25.5862,0.8016 -38.371,0.8976 -0.6323,0 -1.2668,0.01 -1.9033,0.013 -13.0388,0.08 -26.9259,-0.059 -40.2623,-1.0326 -3.9255,-0.2871 -7.8023,-0.6377 -11.5877,-1.0747 -7.3885,-0.8529 -14.3916,-2.263 -21.2265,-4.0454 -3.7603,-0.9855 -7.4885,-2.0348 -11.1316,-3.2727 -3.6432,-1.2379 -7.1996,-2.6599 -10.6499,-4.4511 0,0 0,0 0,0 -1.5086,-0.7923 -2.9834,-1.6217 -4.2971,-2.6189 -0.4846,-0.3478 -1.0711,-0.7694 -1.6648,-1.2507 -0.563,-0.4652 -1.1449,-0.9891 -1.6451,-1.5273 -0.5002,-0.5382 -0.9139,-1.0943 -1.2552,-1.568 -0.3414,-0.4738 -0.6229,-0.8674 -0.9245,-0.9741 -0.3016,-0.1066 -0.6483,0.087 -0.8852,0.8323 -0.079,0.9303 0.13,1.9742 0.551,2.9212 0.421,0.947 1.0471,1.7958 1.71,2.4823 C -2697.5062,-1290.4827 -2697.4153,-1290.3871 -2697.3247,-1290.2935 Z"
         style="fill:#000000;stroke:none"
         sodipodi:nodetypes="csc"
         inkscape:path-effect="#path-effect3594"
         inkscape:original-d="m -2490.5625,-1296.8434 c 0,13.2568 -46.4574,24.0036 -103.7655,24.0036 -57.3081,0 -103.7654,-10.7468 -103.7654,-24.0036" />
      <path
         inkscape:original-d="m -2435.4799,-1456.9716 c 0,20.1995 -70.7873,36.5744 -158.1076,36.5744 -87.3205,0 -158.1076,-16.3749 -158.1076,-36.5744 0,-20.1995 70.7871,-36.5744 158.1076,-36.5744 C -2506.2672,-1493.546 -2435.4799,-1477.1711 -2435.4799,-1456.9716 Z"
         inkscape:path-effect="#path-effect3610"
         id="path3602"
         d="m -2444.8213,-1471.9281 c -0.6864,-0.3969 -1.3775,-0.7743 -2.0684,-1.1359 -4.8255,-2.5553 -9.8848,-4.5053 -14.9668,-6.1842 0,0 0,0 0,0 -6.429,-2.128 -12.9687,-3.8292 -19.5361,-5.2972 0,0 0,0 0,0 -16.6518,-3.7226 -33.5662,-6.0259 -50.5059,-7.6234 -20.5003,-1.9349 -41.1004,-2.759 -61.689,-2.6508 -3.4225,0.018 -6.8453,0.062 -10.2677,0.1325 -17.1515,0.3554 -34.2968,1.2633 -51.382,2.9207 0,0 -10e-5,0 -10e-5,0 -16.9145,1.64 -33.8102,3.9609 -50.4196,7.764 0,0 0,0 0,0 -6.5452,1.4986 -13.0547,3.2377 -19.4358,5.4138 0,0 0,0 0,0 -5.0437,1.7178 -10.0444,3.7056 -14.7737,6.2905 0,0 0,0 0,0 -3.4381,1.8666 -6.835,4.0955 -9.5392,7.1393 -1.029,1.1592 -1.9408,2.4754 -2.5935,3.9559 -0.578,1.3155 -0.9087,2.7574 -0.9099,4.2313 0.01,1.2547 0.2529,2.4839 0.6859,3.6301 0.076,0.2002 0.1569,0.3978 0.2436,0.5926 0.6585,1.4748 1.5737,2.784 2.6042,3.9377 2.7088,3.0298 6.1011,5.2496 9.5348,7.1187 4.7228,2.5873 9.7134,4.5923 14.7474,6.3389 6.3686,2.2121 12.8658,4.0053 19.4006,5.5668 16.5801,3.9625 33.4674,6.5043 50.389,8.2866 1e-4,0 1e-4,0 1e-4,0 19.291,2.0334 38.6889,3.0132 58.0723,3.023 1.2146,6e-4 2.4292,-0 3.6436,-0.01 20.6037,-0.095 41.2098,-1.0808 61.6964,-3.2144 16.9239,-1.7613 33.813,-4.2546 50.3765,-8.226 0,0 0,0 0,0 6.5313,-1.5658 13.0208,-3.3719 19.3709,-5.6087 0,0 0,0 0,0 5.0211,-1.7671 9.9898,-3.7985 14.6696,-6.4139 2.6679,-1.4838 5.2988,-3.1764 7.5738,-5.2874 0.7226,-0.5641 1.3622,-1.1472 1.922,-1.7339 1.2576,-1.3195 2.0671,-2.7026 2.4914,-3.9077 0.4716,-1.3417 0.4602,-2.4331 0.3026,-3.1192 -0.1575,-0.6861 -0.4507,-0.9856 -0.7244,-0.9753 -0.2737,0.01 -0.5335,0.32 -0.8305,0.8453 -0.2969,0.5254 -0.6407,1.2719 -1.1627,2.189 -0.4937,0.8743 -1.1865,1.9078 -2.1598,3.1249 -0.5161,0.6457 -1.1026,1.3278 -1.7736,2.0471 -2.0052,1.7854 -4.3708,3.2746 -6.8233,4.6515 -4.5086,2.5092 -9.3533,4.4677 -14.3008,6.1974 0,0 0,0 0,0 -6.2499,2.1819 -12.6607,3.9436 -19.1369,5.4764 0,0 0,0 0,0 -16.4274,3.8876 -33.2093,6.3085 -50.0618,8.0118 -20.393,2.0599 -40.9094,2.9771 -61.4294,3.01 -0.8629,0 -1.7258,0 -2.5887,-6e-4 -19.6506,-0.041 -39.3013,-1.0791 -58.8223,-3.1983 -16.8301,-1.828 -33.5746,-4.395 -49.9568,-8.3566 -6.4555,-1.5613 -12.8407,-3.338 -19.0638,-5.5166 0,0 0,0 0,0 -4.9267,-1.7281 -9.7407,-3.6663 -14.2164,-6.1371 0,0 0,0 0,0 -3.2625,-1.8231 -6.3507,-3.8084 -8.6208,-6.4124 -0.4657,-0.5333 -0.8945,-1.0805 -1.2633,-1.6432 -0.303,-0.4622 -0.5656,-0.9355 -0.7747,-1.4206 0,0 0,0 0,0 -0.4039,-0.9301 -0.6459,-1.9171 -0.6401,-2.8683 0,0 0,0 0,0 -0.011,-0.9473 0.2242,-1.9367 0.626,-2.8745 0.4572,-1.0757 1.1795,-2.0998 2.0279,-3.0791 0,0 0,0 0,0 2.2528,-2.6039 5.3374,-4.607 8.6154,-6.4451 4.4521,-2.4673 9.27,-4.4145 14.2233,-6.149 0,0 0,0 0,0 6.2,-2.1669 12.595,-3.9376 19.0774,-5.4896 16.3766,-3.9203 33.2212,-6.4332 49.9756,-8.218 17.5711,-1.8707 35.0516,-2.8736 52.0331,-3.1953 3.1393,-0.06 6.2615,-0.091 9.3682,-0.098 21.018,-0.044 41.3196,1.0531 61.4101,3.2018 16.765,1.7942 33.395,4.2489 50.0201,8.0788 6.4255,1.4805 12.839,3.1676 19.1773,5.2726 3.8357,1.2758 7.642,2.683 11.3233,4.3886 0.9582,0.4344 2.0234,0.9311 3.142,1.4856 1.6072,0.8031 3.3311,1.7072 4.9609,2.7289 1.6298,1.0216 3.158,2.1684 4.4491,3.3863 1.1486,1.0825 2.0832,2.221 2.745,3.2943 1.0012,1.6234 1.3591,3.068 1.6881,3.5443 0.1645,0.2382 0.333,0.2373 0.4936,-0.1006 0.1606,-0.3379 0.319,-1.0209 0.2593,-2.1008 -0.1038,-0.7171 -0.2922,-1.448 -0.5665,-2.1658 -0.5879,-1.5316 -1.5053,-2.987 -2.6027,-4.2555 C -2439.2965,-1468.3119 -2442.128,-1470.342 -2444.8213,-1471.9281 Z"
         style="fill:#808080;stroke:none"
         inkscape:connector-curvature="0" />
      <path
         inkscape:original-d="m -2435.4799,-1456.9716 c 0,20.1995 -70.7873,36.5744 -158.1076,36.5744 -87.3205,0 -158.1076,-16.3749 -158.1076,-36.5744"
         inkscape:path-effect="#path-effect3607"
         sodipodi:nodetypes="csc"
         style="fill:#000000;stroke:none"
         d="m -2749.7017,-1447.7551 c 2.8258,2.8713 6.1746,4.9514 9.5231,6.6807 1e-4,0 1e-4,0 1e-4,0 4.8243,2.5182 9.8733,4.4477 14.949,6.1194 0,0 0,0 0,0 6.4186,2.1175 12.9467,3.8237 19.5076,5.2952 0,0 0,0 0,0 10.9622,2.4589 22.0463,4.294 33.1877,5.6258 5.7602,0.6885 11.5277,1.3023 17.297,1.8566 20.4824,1.9689 41.0652,3.1085 61.6497,2.9941 0,0 0,0 0,0 0.548,-0 1.0959,-0.01 1.6439,-0.012 20.0311,-0.1765 40.0945,-0.4578 60.0826,-2.1964 6.8838,-0.5982 13.7635,-1.3608 20.6072,-2.3824 10.0188,-1.4956 19.9838,-3.3648 29.8279,-5.7677 6.5348,-1.5948 13.028,-3.4368 19.3768,-5.7159 5.0204,-1.8 9.9898,-3.8721 14.6623,-6.5306 0,0 0,0 0,0 3.3986,-1.9228 6.7382,-4.197 9.3427,-7.2392 0,0 0,0 0,0 0.649,-0.7584 1.2454,-1.5773 1.749,-2.4566 0.3688,-0.4516 0.662,-0.9113 0.8863,-1.3586 0.644,-1.2884 0.6763,-2.4284 0.479,-3.1359 -0.1974,-0.7076 -0.6055,-1.0071 -0.9927,-0.9927 -0.3871,0.014 -0.7602,0.3201 -1.0931,0.8216 -0.3329,0.5014 -0.6268,1.2006 -0.971,2.1753 -0.1444,0.4109 -0.3053,0.8726 -0.496,1.399 -0.4003,0.663 -0.8784,1.3026 -1.4027,1.9191 0,0 0,0 0,10e-5 -2.3048,2.7126 -5.4325,4.7856 -8.7156,6.648 0,0 0,0 0,0 -4.5049,2.5354 -9.3516,4.5165 -14.3002,6.2622 -6.2508,2.2023 -12.6659,3.9778 -19.1461,5.5183 -9.5965,2.2811 -19.317,4.0509 -29.1006,5.4634 -6.9718,1.0067 -13.9874,1.7412 -21.0131,2.3076 -19.4714,1.5686 -39.0105,1.7603 -58.522,1.8835 -0.965,0.01 -1.9333,0.011 -2.9046,0.015 -9.9492,0.04 -20.2184,-0.039 -30.5437,-0.3464 -10.3253,-0.3076 -20.7066,-0.8449 -30.8711,-1.674 -5.9831,-0.4885 -11.8921,-1.0692 -17.6628,-1.7706 -11.2631,-1.3689 -21.9619,-3.422 -32.4246,-6.0435 -6.4545,-1.6175 -12.8097,-3.452 -19.081,-5.6551 -4.8899,-1.7205 -9.7246,-3.6244 -14.3465,-6.0645 -2.3174,-1.2346 -4.5929,-2.5577 -6.6207,-4.159 -0.7424,-0.5659 -1.6296,-1.2676 -2.5076,-2.0703 -1.0317,-0.9413 -2.0259,-2.0163 -2.7719,-3.0933 -0.4309,-0.6205 -0.7846,-1.2411 -1.0735,-1.788 -0.2889,-0.5468 -0.5156,-1.0205 -0.7278,-1.338 -0.2123,-0.3175 -0.4161,-0.4793 -0.6327,-0.3838 -0.2167,0.095 -0.4535,0.4517 -0.6047,1.1712 -0.042,1.0734 0.1717,2.2645 0.6256,3.3979 0.6385,1.5866 1.6636,3.0282 2.7359,4.2004 C -2749.9638,-1448.0322 -2749.8327,-1447.8923 -2749.7017,-1447.7551 Z"
         id="path3604"
         inkscape:connector-curvature="0" />
      <path
         sodipodi:nodetypes="cc"
         inkscape:connector-curvature="0"
         id="path2584-4"
         d="m -2596.9283,-1636.7439 0,542.748"
         style="fill:none;stroke:#000000;stroke-width:1px;stroke-linecap:butt;stroke-linejoin:miter;stroke-opacity:1" />
      <path
         sodipodi:nodetypes="cc"
         inkscape:connector-curvature="0"
         id="path2586-9"
         d="m -2759.6079,-1313.7862 346.4455,34.5424"
         style="fill:none;stroke:#000000;stroke-width:1px;stroke-linecap:butt;stroke-linejoin:miter;stroke-opacity:1" />
      <path
         sodipodi:nodetypes="cc"
         inkscape:connector-curvature="0"
         id="path2582-5"
         d="m -2758.3585,-1219.1127 359.7614,-176.3634"
         style="fill:none;stroke:#000000;stroke-width:1px;stroke-linecap:butt;stroke-linejoin:miter;stroke-opacity:1" />
      <path
         inkscape:connector-curvature="0"
         inkscape:original-d="m -1727.8448,-1851.3309 c 0,17.2483 -60.4451,31.2308 -135.0077,31.2308 -74.5627,0 -135.0077,-13.9825 -135.0077,-31.2308 0,-17.2483 60.445,-31.2308 135.0077,-31.2308 C -1788.2899,-1882.5617 -1727.8448,-1868.5792 -1727.8448,-1851.3309 Z"
         inkscape:path-effect="#path-effect3548"
         id="path3507"
         d="m -1735.6602,-1864.3723 c -0.591,-0.34 -1.1854,-0.6626 -1.7791,-0.9711 0,0 0,0 0,0 -9.3452,-4.9097 -19.5202,-7.5674 -29.5524,-9.7828 0,0 0,0 0,0 -14.2378,-3.1641 -28.6916,-5.1222 -43.1633,-6.4783 -17.5142,-1.6426 -35.1117,-2.339 -52.6975,-2.2308 -2.9233,0.018 -5.8469,0.058 -8.7701,0.1217 -14.6498,0.3192 -29.294,1.0979 -43.8881,2.5116 0,0 0,0 0,0 -14.448,1.3986 -28.8831,3.3744 -43.077,6.6188 0,0 0,0 0,0 -9.9994,2.276 -20.1114,5.013 -29.2591,10.0058 0,0 0,0 0,0 -2.9449,1.5968 -5.8615,3.5135 -8.1932,6.1362 -0.888,0.9999 -1.6763,2.1396 -2.2434,3.4253 -0.5026,1.1436 -0.7895,2.3989 -0.7907,3.685 0.01,1.0949 0.2212,2.165 0.5982,3.1614 0.066,0.174 0.1366,0.3457 0.212,0.515 0.5731,1.28 1.3646,2.4127 2.2542,3.407 2.3363,2.6087 5.2484,4.5164 8.1888,6.1157 9.1338,4.9989 19.2189,7.8201 29.1975,10.2072 14.165,3.4038 28.5917,5.6005 43.0465,7.1414 0,0 0,0 0,0 16.4794,1.7583 33.0526,2.6089 49.6117,2.6044 1.0377,-3e-4 2.0752,-0 3.1127,-0.01 17.6014,-0.095 35.2049,-0.9531 52.7049,-2.7945 14.4562,-1.5198 28.8847,-3.6679 43.0339,-7.0808 0,0 0,0 0,0 9.9753,-2.3965 20.0484,-5.2573 29.09,-10.324 0,0 0,0 0,0 2.2812,-1.2724 4.5335,-2.7275 6.4836,-4.5429 0.6268,-0.4771 1.1815,-0.9736 1.6662,-1.4755 1.0897,-1.1296 1.7863,-2.3297 2.1414,-3.377 0.3949,-1.1669 0.3588,-2.1166 0.191,-2.7098 -0.1679,-0.5933 -0.4584,-0.8471 -0.7321,-0.8385 -0.2737,0.01 -0.5359,0.2696 -0.822,0.7015 -0.2861,0.4318 -0.6041,1.0385 -1.052,1.7865 -0.4238,0.7153 -1.003,1.5656 -1.8097,2.5944 -0.4287,0.5468 -0.9146,1.1282 -1.4711,1.7468 -1.6909,1.5091 -3.6955,2.7733 -5.7798,3.9487 0,0 0,0 0,0 -8.7069,4.8686 -18.5726,7.6091 -28.4872,9.9753 0,0 0,0 0,0 -14.0131,3.3291 -28.3344,5.4048 -42.7192,6.8666 -17.4064,1.7677 -34.9201,2.5572 -52.4379,2.5901 -0.7366,0 -1.4733,0 -2.2099,10e-5 -16.7755,-0.03 -33.5505,-0.9399 -50.2096,-2.779 -14.3631,-1.5867 -28.647,-3.8086 -42.6142,-7.2115 0,0 0,0 0,0 -9.8849,-2.4232 -19.6839,-5.1629 -28.3297,-9.9552 0,0 0,0 0,0 -2.7693,-1.5532 -5.3772,-3.2264 -7.2748,-5.4093 -0.3884,-0.4459 -0.7451,-0.9005 -1.0504,-1.3652 -0.2508,-0.3818 -0.4671,-0.7709 -0.6375,-1.1681 -0.3287,-0.7585 -0.5267,-1.5588 -0.5209,-2.3219 0,0 0,0 0,0 -0.011,-0.7599 0.1806,-1.5626 0.5067,-2.3282 0.3719,-0.8813 0.9708,-1.7289 1.6779,-2.5484 1.8821,-2.185 4.487,-3.8751 7.2694,-5.4421 0,0 0,0 0,0 8.5554,-4.7633 18.3833,-7.5256 28.3502,-9.9401 13.9641,-3.3622 28.3345,-5.5283 42.6331,-7.0729 14.9951,-1.6186 29.9158,-2.4955 44.4123,-2.7843 2.6798,-0.053 5.3453,-0.082 7.9974,-0.089 0,0 0,0 0,0 17.9429,-0.044 35.2731,0.9213 52.4186,2.7819 14.3079,1.5538 28.4947,3.6687 42.6775,6.9336 8.8177,2.0415 17.7053,4.2964 26.01,8.1853 0.8152,0.3722 1.7237,0.7954 2.6821,1.263 1.3731,0.675 2.8461,1.4305 4.2415,2.2833 1.3955,0.8528 2.7071,1.8095 3.8225,2.8288 0.9919,0.9054 1.807,1.8585 2.395,2.7638 0.8895,1.3689 1.2412,2.6081 1.569,3.0202 0.1639,0.206 0.3321,0.2067 0.4939,-0.089 0.1618,-0.2957 0.3225,-0.8953 0.2918,-1.8481 -0.084,-0.631 -0.2438,-1.2743 -0.4803,-1.9059 -0.5063,-1.3458 -1.3012,-2.6215 -2.2526,-3.725 C -1730.8954,-1861.2589 -1733.3432,-1863.0108 -1735.6602,-1864.3723 Z"
         style="fill:#000000;stroke:none"
         transform="translate(-731.62411,290.41384)" />
      <path
         inkscape:original-d="m -2459.4689,-1180.9171 c 0,17.2483 -60.4451,31.2308 -135.0077,31.2308 -74.5627,0 -135.0077,-13.9825 -135.0077,-31.2308 0,-17.2483 60.445,-31.2308 135.0077,-31.2308 C -2519.914,-1212.1479 -2459.4689,-1198.1654 -2459.4689,-1180.9171 Z"
         inkscape:path-effect="#path-effect3572"
         id="path3509"
         d="m -2467.2843,-1193.9585 c -0.591,-0.34 -1.1854,-0.6626 -1.7791,-0.9711 0,0 0,0 0,0 -9.3452,-4.9097 -19.5202,-7.5674 -29.5524,-9.7828 0,0 0,0 0,0 -14.2378,-3.1641 -28.6916,-5.1222 -43.1633,-6.4783 -17.5142,-1.6426 -35.1117,-2.339 -52.6975,-2.2308 -2.9233,0.018 -5.8469,0.058 -8.7701,0.1217 -14.6498,0.3192 -29.294,1.0979 -43.8881,2.5116 0,0 0,0 0,0 -14.448,1.3986 -28.8831,3.3744 -43.077,6.6188 0,0 0,0 0,0 -9.9994,2.276 -20.1114,5.013 -29.2591,10.0058 0,0 0,0 0,0 -2.9449,1.5968 -5.8615,3.5135 -8.1932,6.1362 -0.888,0.9999 -1.6763,2.1396 -2.2434,3.4253 -0.5026,1.1436 -0.7895,2.3989 -0.7907,3.685 0.01,1.0949 0.2212,2.165 0.5982,3.1614 0.066,0.174 0.1366,0.3457 0.212,0.515 0.5731,1.28 1.3646,2.4127 2.2542,3.407 2.3363,2.6087 5.2484,4.5164 8.1888,6.1157 0,0 0,0 0,0 9.1338,4.9989 19.2189,7.8201 29.1975,10.2072 14.165,3.4038 28.5917,5.6005 43.0465,7.1414 0,0 0,0 0,0 16.4794,1.7583 33.0526,2.6089 49.6117,2.6044 1.0377,-3e-4 2.0752,-0 3.1127,-0.01 17.6014,-0.095 35.2049,-0.9531 52.7049,-2.7945 14.4562,-1.5198 28.8847,-3.6679 43.0339,-7.0808 0,0 0,0 0,0 9.9753,-2.3965 20.0484,-5.2573 29.09,-10.324 0,0 0,0 0,0 2.2812,-1.2724 4.5335,-2.7275 6.4836,-4.5429 0.6268,-0.4771 1.1815,-0.9736 1.6662,-1.4755 1.0897,-1.1296 1.7863,-2.3297 2.1414,-3.377 0.3949,-1.1669 0.3588,-2.1166 0.191,-2.7098 -0.1679,-0.5933 -0.4584,-0.8471 -0.7321,-0.8385 -0.2737,0.01 -0.5359,0.2696 -0.822,0.7015 -0.2861,0.4318 -0.6041,1.0385 -1.052,1.7865 -0.4238,0.7153 -1.003,1.5656 -1.8097,2.5944 -0.4287,0.5468 -0.9146,1.1282 -1.4711,1.7468 -1.6909,1.5091 -3.6955,2.7733 -5.7798,3.9487 0,0 0,0 0,0 -8.7069,4.8686 -18.5726,7.6091 -28.4872,9.9753 0,0 0,0 0,0 -14.0131,3.3291 -28.3344,5.4048 -42.7192,6.8666 -17.4064,1.7677 -34.9201,2.5572 -52.4379,2.5901 -0.7366,0 -1.4733,0 -2.2099,1e-4 -16.7755,-0.03 -33.5505,-0.9399 -50.2096,-2.779 -14.3631,-1.5867 -28.647,-3.8086 -42.6142,-7.2115 0,0 0,0 0,0 -9.8849,-2.4232 -19.6839,-5.1629 -28.3297,-9.9552 0,0 0,0 0,0 -2.7693,-1.5532 -5.3772,-3.2264 -7.2748,-5.4093 -0.3884,-0.4459 -0.7451,-0.9005 -1.0504,-1.3652 -0.2508,-0.3818 -0.4671,-0.7709 -0.6375,-1.1681 -0.3287,-0.7585 -0.5267,-1.5588 -0.5209,-2.3219 0,0 0,0 0,0 -0.011,-0.7599 0.1806,-1.5626 0.5067,-2.3282 0.3719,-0.8813 0.9708,-1.7289 1.6779,-2.5484 1.8821,-2.185 4.487,-3.8751 7.2694,-5.4421 0,0 0,0 0,0 8.5554,-4.7633 18.3833,-7.5256 28.3502,-9.9401 13.9641,-3.3622 28.3345,-5.5283 42.6331,-7.0729 14.9951,-1.6186 29.9158,-2.4955 44.4123,-2.7843 2.6798,-0.053 5.3453,-0.082 7.9974,-0.089 0,0 0,0 0,0 17.9429,-0.044 35.2731,0.9213 52.4186,2.7819 14.3079,1.5538 28.4947,3.6687 42.6775,6.9336 8.8177,2.0415 17.7053,4.2964 26.01,8.1853 0.8152,0.3722 1.7237,0.7954 2.6821,1.263 1.3731,0.675 2.8461,1.4305 4.2415,2.2833 1.3955,0.8528 2.7071,1.8095 3.8225,2.8288 0.9919,0.9054 1.807,1.8585 2.395,2.7638 0.8895,1.3689 1.2412,2.6081 1.569,3.0202 0.1639,0.206 0.3321,0.2067 0.4939,-0.089 0.1618,-0.2957 0.3225,-0.8953 0.2918,-1.8481 -0.084,-0.631 -0.2438,-1.2743 -0.4803,-1.9059 -0.5063,-1.3458 -1.3012,-2.6215 -2.2526,-3.725 C -2462.5195,-1190.8451 -2464.9673,-1192.597 -2467.2843,-1193.9585 Z"
         style="fill:#808080;stroke:#808080"
         inkscape:connector-curvature="0" />
      <path
         inkscape:original-d="m -2459.4689,-1180.9171 c 0,17.2483 -60.4451,31.2308 -135.0077,31.2308 -74.5627,0 -135.0077,-13.9825 -135.0077,-31.2308"
         inkscape:path-effect="#path-effect3580"
         sodipodi:nodetypes="csc"
         style="fill:#000000;stroke:#000000"
         d="m -2728.0115,-1172.8341 c 2.4612,2.4786 5.351,4.2625 8.2285,5.7342 9.3462,4.8291 19.4808,7.4913 29.5062,9.7161 0,0 0,0 0,0 9.3712,2.0908 18.8438,3.6505 28.3645,4.768 4.9224,0.5778 9.8495,1.0973 14.7776,1.5692 17.4962,1.6767 35.076,2.6886 52.6581,2.5742 0,0 0,0 0,0 0.468,-0 0.9361,-0.01 1.4041,-0.012 17.1094,-0.1698 34.2502,-0.3225 51.3309,-1.7767 5.8822,-0.5001 11.7615,-1.1476 17.6086,-2.0298 8.5598,-1.2914 17.0741,-2.904 25.4839,-4.9751 0,0 0,0 0,0 9.9762,-2.4443 20.0681,-5.3871 29.0886,-10.548 0,0 0,0 0,0 2.9053,-1.6529 5.7647,-3.6149 7.9968,-6.2362 0,0 0,0 0,0 0.5565,-0.6538 1.0679,-1.3609 1.4999,-2.1207 0.328,-0.3836 0.5879,-0.778 0.7852,-1.1639 0.5668,-1.1123 0.5747,-2.1101 0.3672,-2.725 -0.2075,-0.6149 -0.6129,-0.8695 -1.0001,-0.8573 -0.3871,0.012 -0.7626,0.2685 -1.0845,0.6762 -0.3219,0.4078 -0.5898,0.9676 -0.8603,1.7745 -0.1137,0.3411 -0.236,0.7284 -0.3786,1.1773 -0.3322,0.5536 -0.7312,1.0903 -1.1701,1.6102 0,0 0,0 0,0 -1.9323,2.2916 -4.5799,4.0525 -7.3696,5.645 0,0 0,0 0,0 -8.6953,4.9254 -18.5766,7.7043 -28.4958,10.082 0,0 0,0 0,0 -8.1868,1.955 -16.4819,3.4714 -24.8319,4.6815 -5.9503,0.8623 -11.9403,1.4784 -17.9392,1.9443 -16.6253,1.2901 -33.304,1.3528 -49.9561,1.4644 -0.8236,0.01 -1.65,0.01 -2.479,0.014 -8.4912,0.04 -17.2556,-0.01 -26.0691,-0.2473 -8.8134,-0.2389 -17.6759,-0.6695 -26.3541,-1.3532 -5.1085,-0.4029 -10.1536,-0.8858 -15.0804,-1.4748 -9.6161,-1.1496 -18.7439,-2.9293 -27.6645,-5.1941 -4.905,-1.2504 -9.776,-2.5867 -14.5417,-4.1879 -4.7657,-1.6013 -9.425,-3.4623 -13.9353,-5.8332 0,0 0,0 0,0 -1.9736,-1.0466 -3.9087,-2.1599 -5.633,-3.5043 -0.6328,-0.4733 -1.3922,-1.0559 -2.1493,-1.722 -0.8889,-0.7798 -1.755,-1.6659 -2.4219,-2.5627 -0.7702,-1.0325 -1.2629,-2.0908 -1.6833,-2.6361 -0.2103,-0.2726 -0.4147,-0.4142 -0.6314,-0.3308 -0.2167,0.083 -0.4522,0.3948 -0.6132,1.0305 -0.057,0.9459 0.1203,1.9978 0.5149,2.9958 0.5544,1.395 1.4517,2.6537 2.3858,3.6698 C -2728.2393,-1173.0739 -2728.1254,-1172.9528 -2728.0115,-1172.8341 Z"
         id="path3512"
         inkscape:connector-curvature="0" />
      <path
         inkscape:original-d="m -2729.4843,-1560.9171 c -92.8935,154.4682 104.6259,189.3862 0,380"
         inkscape:path-effect="#path-effect3564"
         sodipodi:nodetypes="cc"
         inkscape:connector-curvature="0"
         id="path3514"
         d="m -2722.6839,-1189.1509 c 8.7138,-18.0015 16.1732,-36.6629 20.8542,-56.1353 2.8491,-11.8568 4.5892,-24.0119 4.9228,-36.2018 0.1604,-5.8607 0.039,-11.7267 -0.3988,-17.5771 -1.165,-15.511 -4.55,-30.8049 -9.5497,-45.5162 0,0 0,0 0,0 -3.4806,-10.241 -7.6998,-20.1942 -12.2524,-29.9735 -1.6223,-3.4847 -3.2609,-6.9594 -4.8999,-10.4296 0,0 0,0 0,0 -6.0441,-12.8025 -12.103,-25.5818 -17.1561,-38.7014 0,0 0,0 0,0 -4.97,-12.9135 -8.9353,-26.1875 -10.8825,-39.7565 -0.019,-0.1331 -0.038,-0.2662 -0.057,-0.3994 -2.0523,-14.5434 -1.4152,-29.4732 1.7176,-43.8773 3.5859,-16.5213 10.223,-32.3197 18.3796,-47.2808 2.6806,-3.5517 2.9513,-5.7765 2.1073,-6.1622 -0.844,-0.3856 -2.8267,1.1137 -4.3574,5.1828 -8.2656,14.9984 -15.0274,30.9122 -18.7716,47.6544 -3.2358,14.4918 -3.9951,29.5332 -2.0763,44.2511 0.045,0.3435 0.091,0.6868 0.1383,1.03 1.9254,13.9022 5.881,27.4459 10.8611,40.5394 5.0543,13.2971 11.0883,26.1679 17.0814,38.9555 1.4096,3.0101 2.8183,6.0186 4.2157,9.0288 4.6145,9.9405 9.1861,20.254 13.0034,30.9514 2.5746,7.2141 4.7945,14.6159 6.5224,22.0994 1.7278,7.4836 2.9622,15.0485 3.6064,22.5757 0.5157,6.0028 0.658,11.9717 0.4741,17.8326 -0.3821,12.1813 -2.3349,23.8654 -5.2794,35.123 -2.3293,8.9089 -5.2538,17.5637 -8.5973,26.1738 -3.3436,8.61 -7.1091,17.1772 -11.1929,25.9183 -1.1818,2.6224 -2.8638,6.7104 -3.8187,9.6878 -0.9549,2.9775 -1.1475,4.8679 0.7813,3.0831 C -2725.6258,-1183.2654 -2724.0668,-1186.3916 -2722.6839,-1189.1509 Z"
         style="fill:#000000;stroke:none" />
      <path
         inkscape:original-d="m -2459.469,-1560.9171 c 92.8935,154.4682 -104.6259,189.3862 0,380"
         inkscape:path-effect="#path-effect3556"
         style="fill:#000000;stroke:none"
         d="m -2460.4964,-1192.1068 c -9.7469,-17.0501 -17.4419,-35.2584 -22.3219,-54.2378 -2.9699,-11.5404 -4.8558,-23.3754 -5.5639,-35.2821 -0.3405,-5.7245 -0.3216,-11.4709 0.065,-17.1972 1.0151,-15.1822 4.6175,-30.1565 9.6748,-44.5707 0,0 0,0 0,0 3.5228,-10.0416 7.7406,-19.8503 12.1031,-29.6431 1.5545,-3.4896 3.1799,-6.9526 4.8464,-10.3984 0,0 0,0 0,0 6.1525,-12.7102 12.8851,-25.2269 18.6027,-38.3618 0,0 0,0 0,0 2.8198,-6.4701 5.3711,-13.1105 7.4381,-19.9253 2.0671,-6.8148 3.6497,-13.8058 4.5269,-20.9297 0.017,-0.1401 0.034,-0.2802 0.05,-0.4204 1.8003,-15.3057 0.7101,-30.8549 -3.0291,-45.669 -4.2927,-16.9435 -11.7127,-32.7859 -20.7175,-47.4638 -0.5918,-2.2262 -1.5888,-3.548 -2.617,-4.1733 -1.0283,-0.6254 -2.0903,-0.5578 -2.8616,-0.033 -0.7713,0.5245 -1.2539,1.5036 -1.1386,2.7142 0.1153,1.2107 0.8271,2.65 2.4549,4.1463 8.6097,14.4052 15.6276,29.7885 19.5428,46.0336 3.3918,14.0295 4.3069,28.6955 2.5469,43.0557 -0.041,0.3352 -0.084,0.6701 -0.1285,1.0049 -0.8993,6.7884 -2.4982,13.4756 -4.5731,20.0246 -2.075,6.5491 -4.626,12.9618 -7.4352,19.2488 -5.7163,12.7798 -12.4997,25.112 -18.7535,37.8488 -1.4739,2.9972 -2.9179,6.0173 -4.3126,9.0668 -4.6055,10.0701 -8.9763,20.7206 -12.5018,31.8287 -2.3801,7.4997 -4.3375,15.1988 -5.7789,22.9565 -1.4415,7.7578 -2.3659,15.573 -2.7263,23.3134 -0.2833,6.1727 -0.2093,12.2726 0.1489,18.2408 0.7444,12.4043 2.2863,24.2952 4.7821,35.9016 1.9741,9.174 4.509,18.1554 7.7473,26.9973 3.2383,8.8419 7.1833,17.5408 11.9956,26.0555 1.5052,2.5019 4.2466,6.1004 6.7138,8.2752 2.4673,2.1748 4.6183,2.9424 4.9337,-0.024 C -2457.3079,-1186.5001 -2459.0684,-1189.4358 -2460.4964,-1192.1068 Z"
         id="path3516"
         inkscape:connector-curvature="0"
         sodipodi:nodetypes="cc" />
      <path
         sodipodi:nodetypes="cc"
         transform="translate(5.6387085,301.66294)"
         inkscape:connector-curvature="0"
         id="path3614"
         d="m -2375.1386,-1861.6774 c -33.8679,-5.716 -48.395,9.0738 -59.0155,28.0054"
         style="fill:none;stroke:#000000;stroke-width:1px;stroke-linecap:butt;stroke-linejoin:miter;stroke-opacity:1" />
      <text
         transform="translate(5.6387085,301.66294)"
         sodipodi:linespacing="125%"
         id="text3616"
         y="-1939.1689"
         x="-2583.3782"
         style="font-size:15px;font-style:normal;font-variant:normal;font-weight:500;font-stretch:normal;text-align:start;line-height:125%;letter-spacing:0px;word-spacing:0px;writing-mode:lr-tb;text-anchor:start;fill:#000000;fill-opacity:1;stroke:none;font-family:CMU Serif;-inkscape-font-specification:CMU Serif Medium"
         xml:space="preserve"><tspan
           y="-1939.1689"
           x="-2583.3782"
           id="tspan3618"
           sodipodi:role="line">z</tspan></text>
      <text
         transform="translate(5.6387085,301.66294)"
         sodipodi:linespacing="125%"
         id="text3620"
         y="-1675.9324"
         x="-2401.7661"
         style="font-size:15px;font-style:normal;font-variant:normal;font-weight:500;font-stretch:normal;text-align:start;line-height:125%;letter-spacing:0px;word-spacing:0px;writing-mode:lr-tb;text-anchor:start;fill:#000000;fill-opacity:1;stroke:none;font-family:CMU Serif;-inkscape-font-specification:CMU Serif Medium"
         xml:space="preserve"><tspan
           y="-1675.9324"
           x="-2401.7661"
           id="tspan3622"
           sodipodi:role="line">y</tspan></text>
      <text
         transform="translate(5.6387085,301.66294)"
         sodipodi:linespacing="125%"
         id="text3624"
         y="-1555.4612"
         x="-2430.2839"
         style="font-size:15px;font-style:normal;font-variant:normal;font-weight:500;font-stretch:normal;text-align:start;line-height:125%;letter-spacing:0px;word-spacing:0px;writing-mode:lr-tb;text-anchor:start;fill:#000000;fill-opacity:1;stroke:none;font-family:CMU Serif;-inkscape-font-specification:CMU Serif Medium"
         xml:space="preserve"><tspan
           y="-1555.4612"
           x="-2430.2839"
           id="tspan3626"
           sodipodi:role="line">x</tspan></text>
      <text
         transform="translate(5.6387085,301.66294)"
         sodipodi:linespacing="125%"
         id="text3628"
         y="-1861.6774"
         x="-2375.1387"
         style="font-size:15px;font-style:normal;font-variant:normal;font-weight:500;font-stretch:normal;text-align:start;line-height:125%;letter-spacing:0px;word-spacing:0px;writing-mode:lr-tb;text-anchor:start;fill:#000000;fill-opacity:1;stroke:none;font-family:CMU Serif;-inkscape-font-specification:CMU Serif Medium"
         xml:space="preserve"><tspan
           y="-1861.6774"
           x="-2375.1387"
           id="tspan3630"
           sodipodi:role="line"> \alpha(z)</tspan></text>
    </g>
  </g>
</svg>
