<?xml version="1.0" encoding="UTF-8" standalone="no"?>
<!-- Created with Inkscape (http://www.inkscape.org/) -->

<svg
   xmlns:dc="http://purl.org/dc/elements/1.1/"
   xmlns:cc="http://creativecommons.org/ns#"
   xmlns:rdf="http://www.w3.org/1999/02/22-rdf-syntax-ns#"
   xmlns:svg="http://www.w3.org/2000/svg"
   xmlns="http://www.w3.org/2000/svg"
   xmlns:sodipodi="http://sodipodi.sourceforge.net/DTD/sodipodi-0.dtd"
   xmlns:inkscape="http://www.inkscape.org/namespaces/inkscape"
   width="907.00623"
   height="755.89709"
   id="svg1249"
   version="1.1"
   inkscape:version="0.48+devel r"
   sodipodi:docname="ruled.svg">
  <title
     id="title1797">Winter School -- Contact Topology</title>
  <defs
     id="defs1251">
    <inkscape:path-effect
       effect="skeletal"
       id="path-effect1218"
       is_visible="true"
       pattern="m 1276.5981,3132.7004 c -7.7724,0.7228 -15.5563,0.595 -23.3473,0.9308 -7.7909,0.3357 -15.5885,-0.1655 -23.3873,0.011 -7.7988,0.1763 -15.5988,-0.9698 -23.3947,-0.7252 -7.796,0.2446 -15.5878,0.5803 -23.3703,1.1208 -2.1523,-1.1561 -2.0117,3.7827 0.063,2.4375 7.7113,-0.3705 15.4323,-0.5304 23.1567,-0.6126 7.7244,-0.082 15.4521,1.213 23.1768,1.1533 7.7247,-0.06 16.17,-0.8046 23.8822,-1.1077 7.7122,-0.3032 14.6908,1.1359 22.3777,0.3234 1.4036,-0.2269 4.2998,-1.5408 3.0937,-3.2187 C 1278.1874,3132.5842 1277.344,3132.6735 1276.5981,3132.7004 Z"
       copytype="single_stretched"
       prop_scale="1"
       scale_y_rel="false"
       spacing="0"
       normal_offset="0"
       tang_offset="0"
       prop_units="false"
       vertical_pattern="false"
       fuse_tolerance="0" />
    <inkscape:path-effect
       fuse_tolerance="0"
       vertical_pattern="true"
       prop_units="false"
       tang_offset="0"
       normal_offset="0"
       spacing="2.2"
       scale_y_rel="false"
       prop_scale="1"
       copytype="repeated"
       pattern="m 1095.8005,2789.0044 -307.80265,4.2413"
       is_visible="true"
       id="path-effect1160"
       effect="skeletal" />
  </defs>
  <sodipodi:namedview
     id="base"
     pagecolor="#ffffff"
     bordercolor="#666666"
     borderopacity="1.0"
     inkscape:pageopacity="0.0"
     inkscape:pageshadow="2"
     inkscape:zoom="0.8203125"
     inkscape:cx="419.43786"
     inkscape:cy="392.04378"
     inkscape:document-units="px"
     inkscape:current-layer="layer1"
     showgrid="false"
     fit-margin-top="0"
     fit-margin-left="0"
     fit-margin-right="0"
     fit-margin-bottom="0" />
  <metadata
     id="metadata1254">
    <rdf:RDF>
      <cc:Work
         rdf:about="">
        <dc:format>image/svg+xml</dc:format>
        <dc:type
           rdf:resource="http://purl.org/dc/dcmitype/StillImage" />
        <dc:title>Winter School -- Contact Topology</dc:title>
        <dc:date>2013</dc:date>
        <dc:creator>
          <cc:Agent>
            <dc:title>Marek Kaluba</dc:title>
          </cc:Agent>
        </dc:creator>
        <dc:rights>
          <cc:Agent>
            <dc:title>Marek Kaluba</dc:title>
          </cc:Agent>
        </dc:rights>
      </cc:Work>
    </rdf:RDF>
  </metadata>
  <g
     inkscape:label="Layer 1"
     inkscape:groupmode="layer"
     id="layer1"
     transform="translate(167.02692,-168.50889)">
    <path
       inkscape:original-d="m 286.87825,772.99659 c 0,0 -277.7179658,-40.0863 -298.082366,-154.8584 -20.3644,-114.7722 130.482596,-7.338 216.632846,-239.2311 86.15029,-231.893 333.79054,340.4819 385.10717,69.5486"
       inkscape:path-effect="#path-effect1160"
       style="fill:none;stroke:#0000ff"
       d="m 309.10298,620.70845 c -0.0436,0.31598 -0.0874,0.63195 -0.13131,0.94789 -0.12888,0.92723 -0.25902,1.85428 -0.39037,2.78115 0,10e-6 0,10e-6 0,2e-5 -0.51977,3.66779 -1.0585,7.33279 -1.61307,10.99546 l 0,1e-5 c -2.1383,14.45323 -4.38341,28.89041 -6.69199,43.31798 l 0,1e-5 c -9.00818,56.29956 -18.5662,112.51288 -28.3458,168.68821 0,0 0,0 0,0 -4.46307,25.63536 -8.98131,51.26151 -13.5508,76.87898 m 47.06218,-304.19043 c -17.63554,101.07874 -36.06515,202.02359 -55.04815,302.86779 m 50.14305,-303.69873 c -18.705,100.88816 -37.95245,201.67777 -57.7182,302.36999 M 295.3954,618.38213 C 275.88001,719.11578 255.84662,819.75211 235.31936,920.29226 M 290.20731,617.41602 C 269.91864,717.99727 249.13641,818.48241 227.88477,918.8726 M 284.97234,616.40078 C 263.94751,716.83173 242.45356,817.1678 220.51463,917.41012 M 279.6904,615.33874 C 257.96651,715.62151 235.79795,815.8106 213.20885,915.90717 m 61.15033,-301.67696 c -22.38853,100.13361 -45.18326,200.18504 -68.39483,300.14736 m 63.03953,-301.30719 c -23.01002,100.00087 -46.437,199.9125 -70.29158,299.72796 m 64.96925,-300.91186 c -23.64778,99.85729 -47.72328,199.61829 -72.23715,299.27605 m 66.94846,-300.48505 c -24.30181,99.70288 -49.04211,199.30241 -74.23154,298.79164 m 68.97715,-300.02677 c -24.97212,99.53763 -50.39348,198.96486 -76.27475,298.27473 m 71.05532,-299.53703 c -25.65869,99.36156 -51.7774,198.60565 -78.36676,297.72532 m 73.18298,-299.01581 c -26.36155,99.17465 -53.19387,198.22477 -80.50762,297.14341 m 75.36013,-298.46312 c -27.08067,98.9769 -54.64288,197.82221 -82.69728,296.52898 m 77.58676,-297.87894 c -27.81607,98.76831 -56.12444,197.39798 -84.93576,295.88205 m 79.86288,-297.2633 c -28.56774,98.5489 -57.63855,196.95209 -87.22307,295.20262 m 82.18848,-296.61619 c -29.33569,98.31865 -59.1852,196.48453 -89.55919,294.49069 m 84.56357,-295.9376 c -30.11991,98.07756 -60.7644,195.99529 -91.94414,293.74625 m 86.98815,-295.22754 c -30.9204,97.82564 -62.37615,195.48439 -94.3779,292.96931 m 89.4622,-294.48601 c -31.73716,97.56288 -64.02043,194.95182 -96.86048,292.15986 m 91.98575,-293.713 c -32.57019,97.28929 -65.69727,194.39758 -99.39188,291.31791 m 94.55878,-292.90852 c -31.48968,91.40327 -63.48334,182.63956 -95.98989,273.70307 -1.99249,5.58076 -3.986966,11.16085 -5.983431,16.74029 M 193.0193,592.21063 C 158.73502,688.92135 123.85395,785.43241 88.343147,881.72054 M 188.34847,590.57477 C 153.14312,686.96367 117.3077,783.12929 80.809271,879.04835 M 183.77504,588.93146 C 147.59834,684.96232 110.75827,780.74625 73.221924,876.26001 M 179.30127,587.27752 C 142.1029,682.91409 104.2079,778.28012 65.583337,873.35233 M 174.92938,585.60976 C 136.65906,680.81581 97.658816,775.72769 57.895739,870.32213 M 170.6616,583.92499 C 131.26902,678.66429 91.113249,773.08578 50.161362,867.16621 M 166.50015,582.22003 C 125.93503,676.45634 84.573431,770.35121 42.382437,863.88139 M 162.44728,580.49168 C 120.65931,674.18877 78.041592,767.52079 34.561195,860.46448 M 158.50522,578.73676 C 123.44499,654.55611 87.812642,730.11779 51.590407,805.40924 43.325147,822.59298 35.029501,839.76361 26.70303,856.92069 M 154.6704,576.92887 C 110.29092,669.44883 65.01783,761.5753 18.78253,853.23829 M 151.00457,575.13918 C 105.23732,667.01538 58.507177,758.42706 10.745531,849.30421 M 147.54245,573.41701 C 100.28294,664.54084 51.991247,755.1291 2.5987585,845.1118 M 144.29077,571.75572 C 95.43451,662.01855 45.476767,751.67478 -5.651059,840.6544 M 141.25626,570.14865 C 90.698749,659.44187 38.970464,748.05745 -13.997194,835.92537 M 138.44564,568.58915 C 86.082387,656.80414 32.479066,744.27044 -22.43292,830.91805 M 135.86565,567.07057 C 81.592152,654.0987 26.009301,740.30711 -30.951508,825.62579 M 133.523,565.58624 C 77.234773,651.31891 19.567895,736.1608 -39.546231,820.04193 M 131.42443,564.12953 c -8.45158,12.20239 -16.93349,24.38464 -25.44592,36.54654 C 55.673862,672.53604 4.2793013,743.7639 -48.270307,814.21213 M 129.68303,562.6659 C 69.014181,645.52974 6.7656478,727.32466 -57.16667,807.81487 M 128.29624,561.57104 C 65.188036,642.67224 0.39529951,722.46556 -66.186075,800.71521 M 127.27936,560.85571 C 61.575059,639.83025 -5.9186294,717.25795 -75.305808,792.90302 M 126.65511,560.50977 C 58.197962,636.99362 -12.153425,711.69166 -84.503154,784.36812 M 126.4462,560.52305 C 55.079459,634.15219 -18.286374,705.75656 -93.755402,775.10038 M 126.67535,560.88542 C 52.242265,631.29581 -24.294762,699.44247 -103.03984,765.08963 M 127.36526,561.5867 c -77.656168,66.82763 -157.521136,131.15256 -239.699,192.73902 m 240.87773,-191.609 C 47.501466,625.63665 -35.869244,685.63861 -121.52493,742.27593 M 130.05338,564.79404 C 45.532117,623.02791 -41.272545,677.89166 -130.3174,728.93865 M 131.79475,567.6827 C 43.867504,620.54428 -46.298355,669.5836 -138.65962,714.35402 M 133.81124,571.38667 C 99.143752,589.16594 64.159685,606.32839 28.861409,622.84955 -28.760388,649.82649 -87.228561,675.0569 -146.46278,698.45988 M 135.97817,576.00214 C 41.465646,616.00801 -55.033913,651.2584 -153.18366,681.41412 M 137.85728,581.27715 c -97.303522,32.59097 -196.252242,60.08381 -296.50931,82.13934 M 139.4535,587.18314 c -95.461389,23.64129 -192.120748,42.28175 -289.68125,55.62247 -4.19129,0.63474 -8.38348,1.26493 -12.57657,1.89049 m 303.19359,-53.51621 c -101.295485,16.45776 -203.111873,30.18865 -305.29721,40.21473 m 305.42619,-38.89429 c -101.969967,11.80792 -204.30471,19.89916 -306.85227,23.29578 m 307.01081,-19.75314 c -94.431299,5.21639 -189.040043,6.43006 -283.70705,2.87402 -7.99073,-0.30433 -15.98196,-0.64415 -23.97315,-1.02035 m 307.92684,4.20059 c -102.669681,-1.9386 -205.314062,-9.90787 -306.7734,-25.76155 m 305.61481,35.93568 C 37.813322,600.22922 -62.934364,580.28223 -161.31847,550.57665 M 136.66,626.958 C 37.077286,602.11052 -59.914699,566.83931 -151.8771,520.82706 M 129.49673,645.24715 C 35.218868,604.45607 -53.998235,552.92566 -135.71573,490.33861 M 117.67129,664.53136 C 32.520271,607.06015 -44.764548,538.97641 -114.06844,462.91779 M 104.02084,680.00876 C 34.092481,610.95581 -28.528794,534.62741 -83.74239,453.33636 c -2.480157,-3.63425 -4.94665,-7.27808 -7.399611,-10.93134 M 91.39436,690.00806 C 30.684183,607.32432 -22.685402,519.52396 -70.357134,428.45689 M 82.747759,695.57277 C 38.650254,617.27599 -1.0997648,536.49056 -37.604347,454.4575 c -5.2013,-11.67948 -10.338022,-23.38798 -15.412564,-35.12417 M 78.194856,697.6988 C 35.560366,604.40041 -3.0854822,509.32253 -38.982628,413.13517 M 76.974904,698.29669 C 39.770709,602.67058 5.29818,505.94048 -27.682623,408.77637 M 78.76357,697.60241 C 45.045017,600.6976 12.658814,503.33817 -18.906076,405.6994 M 82.602663,696.27502 C 50.647092,598.779 19.506048,501.00462 -11.331507,403.12719 m 98.97427,291.48015 C 56.661869,596.7824 25.977678,498.8554 -4.9208477,401.00161 M 93.866722,692.55011 C 63.0722,594.65857 32.056557,496.84125 0.30875647,399.27341 M 101.2574,690.05408 C 69.86094,592.35825 37.72554,494.91291 4.3401586,397.89335 M 109.77862,687.08068 C 76.941213,589.86883 42.911122,493.0305 7.5578356,396.67278 M 118.72821,683.80275 C 84.007088,587.19965 47.960893,491.0782 10.459116,395.54549 M 127.92916,680.14836 C 91.122124,584.31685 52.857626,489.07512 13.005159,394.53025 M 137.37107,676.10497 C 98.275924,581.20788 57.590925,487.0087 15.185569,393.61451 M 147.04356,671.66001 C 105.45809,577.86019 62.150394,484.86639 16.98995,392.78572 M 156.93621,666.80095 C 112.65823,574.26122 66.525637,482.63565 18.407907,392.03133 M 167.03864,661.51522 C 157.6862,643.45044 148.25566,625.42584 138.74599,607.44226 100.28104,534.70905 60.534203,462.67564 19.530316,391.37001 M 177.11103,655.76194 C 126.89655,566.25789 74.726924,477.88686 20.650324,390.70314 M 186.95415,649.68622 C 133.78268,561.911 78.704714,475.32389 21.768428,389.97918 M 196.5702,643.30557 C 140.51505,557.34336 82.602063,472.62434 22.879408,389.20281 M 205.95395,636.62466 C 147.08844,552.55963 86.413751,469.79288 23.978043,388.37871 M 215.10018,629.64817 C 153.49764,547.56449 90.134558,466.83419 25.059115,387.51155 M 224.00369,622.38076 C 159.73742,542.36262 93.759264,463.75294 26.117402,386.606 M 232.65924,614.82713 C 172.5674,544.83775 111.13189,476.03073 48.38769,408.44548 41.327235,400.83674 34.250995,393.24329 27.159055,385.66512 m 213.827745,221.35 C 171.61949,531.38637 100.71981,457.24948 28.369349,384.58121 M 248.89759,599.09232 C 177.22965,525.70217 104.11199,453.78055 29.626207,383.30422 M 256.47988,591.08799 C 182.63708,519.90188 107.42723,450.16096 30.931907,381.84201 m 232.804043,201.168 C 187.84408,513.99337 110.66781,446.39859 32.288728,380.20245 M 270.66807,574.86624 C 192.85292,507.9845 113.83601,442.50129 33.698947,378.3934 M 277.27854,566.66455 C 197.66587,501.88313 116.93411,438.47694 35.164844,376.42272 M 283.56962,558.41279 C 202.28522,495.69715 119.96438,434.33339 36.688696,374.29829 M 289.5436,550.11883 C 206.71325,489.4344 122.92911,430.07851 38.272783,372.02796 M 295.20275,541.79055 C 210.95222,483.10275 125.83057,425.72018 39.919383,369.6196 M 300.54935,533.4358 c -1.03916,-0.68908 -2.07843,-1.37796 -3.11782,-2.06666 C 212.89737,475.38291 127.62101,420.60974 41.639997,367.01451 M 305.59176,525.16964 C 218.88817,470.32702 131.46306,416.69112 43.35536,364.22553 M 310.42944,516.92126 C 222.63784,463.88544 134.16423,412.01957 45.047538,361.2872 M 315.0663,508.69366 C 226.24707,457.40919 136.78535,407.25787 46.720062,358.20328 M 319.50586,500.49058 C 229.71941,450.902 139.32996,402.40978 48.376468,354.9775 M 323.75165,492.31576 C 233.05837,444.36761 141.8016,397.47904 50.020287,351.61361 M 327.80722,484.17295 C 236.26749,437.80977 144.20379,392.46938 51.655053,348.11535 M 331.67609,476.0659 C 239.35031,431.23222 146.54006,387.38455 53.2843,344.48645 M 335.36179,467.99833 C 242.31035,424.63871 148.81396,382.2283 54.911561,340.73067 M 338.86787,459.974 C 245.15116,418.03297 151.02902,377.00436 56.540369,336.85175 M 342.19785,451.99665 C 247.87627,411.41875 153.18876,371.71648 58.174258,332.85342 M 345.35527,444.07002 C 250.4892,404.79979 155.29672,366.3684 59.81676,328.73944 M 348.34365,436.19786 C 280.02009,408.95588 211.54922,382.12572 142.94536,355.69398 115.85022,345.08197 88.793059,334.32602 61.78244,323.41793 M 350.2631,431.5653 C 254.709,393.9996 159.73979,354.53674 65.732232,312.81747 M 350.82293,430.4755 C 256.3749,389.85301 162.89406,346.9705 70.757153,301.46873 M 350.7395,430.31491 C 257.98196,386.08853 166.57389,339.23928 76.892051,289.4079 M 350.04764,431.11974 C 259.565,382.74238 170.81412,331.37929 84.171771,276.67122 M 348.78222,432.92621 C 261.15889,379.85077 175.64962,323.42673 92.631159,263.29487 M 346.97806,435.77052 C 279.78592,389.21902 214.18427,340.30287 150.3647,288.83938 134.24712,275.8166 118.2583,262.6231 102.40772,249.25598 M 344.16111,439.90473 C 264.02265,375.75304 187.29404,307.33618 115.12824,234.30125 M 339.00519,445.43956 C 264.68835,374.67517 194.94952,299.29099 130.94167,218.93414 M 331.59011,452.26338 C 264.81906,374.34109 203.9278,291.34211 150.33327,203.67964 M 321.32861,459.54336 C 264.26748,374.19945 214.51981,284.20051 173.50255,189.95973 M 308.21082,466.56498 C 263.02567,374.37964 226.80222,278.00631 199.94545,178.78638 M 293.27638,471.9941 C 261.94141,374.23777 239.97506,273.65251 227.78234,171.5797 m 49.976,303.58738 C 260.9904,373.89181 253.84673,271.29101 255.3896,168.51639 m 8.31475,307.6391 C 261.07231,373.55239 267.11241,270.78766 280.88691,169.013 M 252.03209,475.22319 C 262.1021,373.11575 279.55275,272.12231 303.3566,172.41548 m -60.24991,301.20968 c 20.73629,-100.25951 47.81256,-199.23265 80.20139,-296.74682 m -86.88035,295.32881 c 29.82024,-98.16068 64.93982,-194.86262 104.3313,-289.93322 M 231.97809,470.87006 c 37.32187,-95.81094 78.90243,-189.99078 123.71425,-282.3669 M 229.73413,469.53719 C 272.93902,376.43135 319.33756,284.93977 368.55019,194.94474 M 228.77705,468.96112 C 276.62091,378.27591 327.27441,289.0849 380.358,201.27038 M 228.55779,468.91532 C 280.45866,380.46437 334.78515,293.38757 391.15773,207.56721 M 229.08755,469.36308 C 284.46345,382.96005 341.88098,297.8111 400.96058,213.79853 M 230.37751,470.26772 C 288.64649,385.72624 348.57309,302.31879 409.77775,219.92765 M 232.43888,471.59256 c 1.48668,-2.0336 2.97412,-4.06658 4.46233,-6.09896 59.11242,-80.7768 119.47577,-160.61188 180.97036,-239.57825 M 234.80138,473.30244 C 297.26174,391.92283 360.90956,311.4549 425.61587,231.81999 m -188.2419,243.48477 c 64.18857,-80.0244 129.43423,-159.21708 195.608,-237.65671 M 240.16742,477.58644 c 65.71962,-78.792 132.36593,-156.83223 199.81,-234.19936 M 243.18928,480.13499 C 310.24276,402.4526 378.09257,325.44201 446.60975,249.02457 M 246.44708,482.93794 C 314.63725,406.24235 383.49338,330.13861 452.8865,254.54804 M 249.93304,485.97846 C 319.05045,410.14302 388.73596,334.82835 458.93405,259.98768 M 253.4969,489.1888 C 323.44351,414.12557 393.90211,339.53562 464.81719,265.37221 M 257.14524,492.55464 C 327.83634,418.19092 398.98333,344.25301 470.5307,270.69417 M 260.88256,496.07059 c 71.35088,-73.7369 143.10155,-147.09544 215.19651,-220.1224 M 264.71333,499.73126 C 336.63929,426.54851 408.90894,353.69664 481.46677,281.12889 M 268.64206,503.53129 C 341.05838,430.83 413.76231,358.41212 486.69831,286.23089 M 272.67322,507.46528 c 17.01499,-16.89127 34.04261,-33.76966 51.08216,-50.63577 C 379.64041,401.50943 435.66005,346.32492 491.7984,291.26013 M 276.77012,511.50601 C 349.92517,439.55668 423.28198,367.81067 496.80522,296.23273 M 280.92637,515.6444 C 354.36785,443.98745 427.97541,372.49804 501.7137,301.14094 M 285.14919,519.87909 C 358.82327,448.45981 432.62772,377.17232 506.52721,305.98134 M 289.44196,524.20666 C 363.29479,452.97035 437.24231,381.83005 511.24916,310.75051 M 293.80807,528.62367 C 367.78582,457.51564 441.82255,386.46783 515.88292,315.44501 M 298.25091,533.12672 C 372.29973,462.09224 446.37183,391.08223 520.43187,320.06142 M 302.7679,537.70846 C 376.83369,466.69282 450.89597,395.67187 524.91592,324.60706 M 307.35899,542.36535 C 381.39986,471.32134 455.39801,400.23289 529.31458,329.06145 M 312.04486,547.10603 C 386.00166,475.97381 459.87649,404.75802 533.63052,333.42011 M 316.82924,551.92675 C 390.64278,480.64647 464.33512,409.2435 537.86743,337.67927 M 321.71582,556.82373 C 395.32693,485.33556 468.77761,413.68556 542.02903,341.83517 M 326.70831,561.7932 c 73.3495,-71.7559 146.49935,-143.71277 219.4107,-215.90916 M 331.81042,566.83142 c 18.29203,-18.05528 36.56907,-36.12561 54.83052,-54.21161 C 441.2827,458.4978 495.79661,404.24208 550.1518,349.82697 M 337.01885,571.93421 C 409.6777,499.46832 482.05326,426.7178 554.07221,353.62171 M 342.41699,577.144 C 414.61136,504.21069 486.44834,430.93089 557.85465,357.24364 M 348.01862,582.45808 C 419.63663,508.96262 490.82318,435.05879 561.50496,360.68566 M 353.82958,587.86934 C 424.75937,513.71699 495.18361,439.09441 565.029,363.94067 m -205.17328,229.43 C 429.98542,518.4667 499.53549,443.03064 568.43262,367.00155 M 366.1029,598.95498 c 22.02746,-24.10636 43.98873,-48.27288 65.88142,-72.5015 46.89429,-51.90775 93.50485,-104.0918 139.76612,-156.5905 M 372.56793,604.63188 C 440.79231,527.94621 508.26287,450.5816 574.77263,372.41703 M 379.54304,610.49979 C 446.52408,532.71059 512.54203,454.11945 577.38989,374.60537 M 387.07452,616.54894 C 452.49567,537.46722 516.74444,457.46056 579.61383,376.40795 M 395.17398,622.7593 C 458.71866,542.19605 520.88167,460.58487 581.45601,377.80475 m -177.603,251.30607 c 51.20525,-68.63387 101.30225,-138.0834 150.17067,-208.41895 9.69418,-13.93979 19.3438,-27.91585 28.94543,-41.929 M 413.0518,635.64842 C 471.97016,551.55092 529.12508,466.09334 583.7586,379.09455 M 423.69425,642.45178 C 479.55943,556.16919 532.89418,468.34136 582.94055,378.78715 M 436.23517,649.41056 C 487.88423,560.65363 536.23586,470.1663 580.53211,377.76743 M 450.69173,656.45149 C 496.9617,564.93098 539.16725,471.49491 576.55044,375.96213 M 467.09668,663.50358 c 39.88429,-94.55447 74.78511,-191.33317 102.85536,-290.04109 m -82.50855,296.53115 c 31.38315,-97.85099 55.91198,-197.63182 71.7394,-299.04749 M 512.29571,675.09137 C 532.39769,574.31334 543.57871,471.80315 543.79,369.17894 m -1.59742,307.62629 c 4.55719,-85.11151 1.55836,-170.29074 -10.16303,-254.61635 -2.43618,-17.40038 -5.24526,-34.75439 -8.42617,-52.04938 m 52.91484,303.08022 C 564.02135,571.06648 538.82928,470.95939 501.15161,375.4166 M 611.21299,662.63408 C 602.23425,634.92555 592.25462,607.58537 581.27887,580.67068 553.43956,512.47449 519.27162,447.19712 479.70898,385.12252 M 642.62177,645.98343 C 592.41517,556.28448 531.74195,472.83266 463.13681,396.39855 M 667.49684,626.49274 C 602.53835,546.71845 530.00999,473.93695 451.85332,407.39701 M 686.07554,606.93364 C 610.55579,537.33256 529.43371,473.96818 444.65087,416.08928 M 699.60195,588.6386 C 616.54891,528.14158 529.98074,472.99392 440.71559,422.43908 M 709.60005,572.05104 C 621.58184,519.25971 530.87862,471.05366 438.30855,426.67636 M 717.2924,556.97693 C 656.88554,526.52314 595.67402,497.72701 533.8916,470.37238 501.87707,456.1835 469.7186,442.36004 437.4229,428.88995 M 722.84727,543.59921 C 628.77281,502.66836 533.52351,464.76678 437.26826,429.59223 M 727.47608,531.11979 C 631.67572,494.62325 534.87221,460.85036 437.23446,429.4989 m 294.2286,89.74911 C 634.20076,486.72342 536.10703,456.61687 437.35074,428.62613 m 297.48672,79.37392 C 636.37721,478.98504 537.25721,452.08246 437.64636,426.99009 m 299.98217,70.40197 C 638.23429,471.42428 538.35201,447.26331 438.15058,424.60694 m 301.71495,62.83329 C 639.80127,464.05731 539.42068,442.17559 438.89262,421.49286"
       id="path1158"
       inkscape:connector-curvature="0"
       sodipodi:nodetypes="czzc" />
    <path
       sodipodi:nodetypes="czzc"
       inkscape:connector-curvature="0"
       id="path1214"
       d="m 580.64702,478.77711 c -1.15049,3.44343 -2.42346,6.84011 -3.84374,10.17668 -2.0389,4.79123 -4.38261,9.43322 -7.21811,13.73139 0,0 -10e-6,10e-6 -10e-6,10e-6 -2.33492,3.53591 -4.98895,6.84082 -8.06844,9.65404 0,0 0,0 -10e-6,10e-6 -2.64383,2.4161 -5.60317,4.47746 -8.81543,5.96459 -10e-6,0 -10e-6,0 -2e-5,1e-5 -3.01118,1.39959 -6.26365,2.30257 -9.57809,2.69052 -3.43488,0.40523 -6.95394,0.25978 -10.42634,-0.27709 -10e-6,0 -10e-6,-10e-6 -10e-6,-10e-6 -3.82336,-0.59191 -7.59154,-1.66673 -11.27006,-3.03095 0,0 -10e-6,0 -10e-6,-1e-5 -8.72879,-3.23479 -16.87848,-8.03803 -24.68541,-13.34515 -9.40162,-6.39893 -18.26511,-13.61179 -26.88087,-21.12607 0,0 -1e-5,-10e-6 -1e-5,-10e-6 -9.74701,-8.50256 -19.14976,-17.41686 -28.42364,-26.47798 0,0 -1e-5,-1e-5 -1e-5,-1e-5 -9.90428,-9.67743 -19.64995,-19.5311 -29.40489,-29.38845 -9.89515,-9.99916 -19.79504,-20.00811 -29.85995,-29.86195 -5.72148,-5.60163 -11.49571,-11.15639 -17.36132,-16.61685 -4.09677,-3.8138 -8.23522,-7.58464 -12.42874,-11.2965 -9.35633,-8.28234 -18.98948,-16.29109 -29.14829,-23.61653 0,-10e-6 -10e-6,-10e-6 -10e-6,-10e-6 -8.84261,-6.37858 -18.10783,-12.27846 -28.04062,-16.90744 -8.34735,-3.8959 -17.26325,-6.89518 -26.53377,-7.72652 0,0 -1e-5,0 -1e-5,0 -4.17483,-0.37152 -8.40645,-0.27506 -12.56511,0.39507 -4.13424,0.66768 -8.17387,1.90918 -11.97064,3.67974 -4.06441,1.89733 -7.83196,4.37994 -11.24664,7.25534 -3.89963,3.28413 -7.35048,7.05714 -10.42411,11.08541 0,0 0,0 -1e-5,1e-5 -7.98377,10.46971 -13.61323,22.49872 -18.1676,34.74381 0,0 0,10e-6 0,10e-6 -9.32377,25.01626 -20.53758,49.38376 -34.76379,71.92413 -1.57601,2.49699 -3.19002,4.97108 -4.84304,7.41888 -9.61759,14.24173 -20.60745,27.55875 -33.14042,39.26309 -11.63441,10.86791 -24.6111,20.29256 -38.548578,27.95589 -11.588826,6.37447 -23.841081,11.51594 -36.344927,15.93503 -10.404042,3.67597 -21.047437,6.81692 -31.551003,10.56271 -4.447819,1.58509 -8.884706,3.30362 -13.199623,5.36482 -3.8454619,1.83437 -7.6064101,3.96793 -11.06434329,6.597 -3.23014181,2.45645 -6.15370321,5.37532 -8.51645091,8.74659 -2.4772448,3.55108 -4.2730738,7.52964 -5.4210678,11.66214 -1.378337,4.97348 -1.891181,10.10684 -1.900848,15.17028 -0.01697,6.54527 0.745957,13.03336 1.874518,19.3979 2e-6,10e-6 2e-6,10e-6 3e-6,2e-5 1.298644,7.33573 3.6588241,14.45785 6.8678145,21.15287 2.3140516,4.82629 5.0521489,9.42853 8.1093892,13.79592 1.3131132,1.87583 2.6845403,3.70874 4.1060094,5.49802 10.4089549,13.09304 23.3103039,23.93046 36.9998429,33.28824 5e-6,0 8e-6,1e-5 1.2e-5,1e-5 15.278973,10.45275 31.655335,19.15678 48.429973,26.8131 17.479569,7.97995 35.444669,14.81982 53.633799,20.89842 1e-5,0 1e-5,0 1e-5,0 32.07925,10.7209 64.87178,19.14099 97.94621,25.93013 0,0 1e-5,0 1e-5,1e-5 8.12531,1.668 16.27113,3.23506 24.43793,4.67881 2.73054,0.61918 5.17456,1.10625 7.33134,1.48271 3.92637,0.68533 6.90226,1.00253 8.93116,1.06847 l 0,0 c 1.05524,0.0343 1.85496,5.4e-4 2.4003,-0.0857 l 0,0 c 0.27798,-0.0439 0.48993,-0.10154 0.6361,-0.17074 l 0,0 0,0 c 0.0738,-0.0349 0.13086,-0.0728 0.17123,-0.11341 0.0203,-0.0204 0.0364,-0.0415 0.0482,-0.0632 0.0242,-0.0442 0.031,-0.0911 0.0205,-0.14041 -0.005,-0.0243 -0.0145,-0.0492 -0.028,-0.0746 0,0 0,0 0,0 -0.0269,-0.0507 -0.0705,-0.10379 -0.13073,-0.15897 l 0,0 c 0,0 0,0 0,0 l 0,0 c -0.11962,-0.10974 -0.30465,-0.2279 -0.55523,-0.35335 l 0,0 0,0 c -0.49572,-0.24818 -1.24614,-0.52464 -2.24992,-0.82063 l 0,0 c -1.9617,-0.57845 -4.88578,-1.23034 -8.75818,-1.89415 -2.36733,-0.40581 -5.08813,-0.8152 -8.15949,-1.21666 -7.87893,-1.41428 -15.73992,-2.94354 -23.58349,-4.56747 -1e-5,0 -1e-5,0 -1e-5,0 -32.98371,-6.82981 -65.66421,-15.27999 -97.60598,-26.01717 0,0 0,0 -1e-5,0 -18.1095,-6.08769 -35.97496,-12.92364 -53.332868,-20.88509 -16.65968,-7.64249 -32.882745,-16.29592 -47.966611,-26.65746 -3e-6,-10e-6 -7e-6,-10e-6 -1.1e-5,-10e-6 -13.51122,-9.28583 -26.185337,-19.94972 -36.3146176,-32.75888 -0.993452,-1.25581 -1.9611798,-2.53219 -2.9001189,-3.82886 -3.4111548,-4.71083 -6.4384842,-9.6924 -8.9343284,-14.92875 -3.0870643,-6.4756 -5.3523251,-13.3463 -6.5842941,-20.39746 0,-10e-6 -1e-6,-10e-6 -1e-6,-2e-5 -1.092002,-6.25509 -1.827967,-12.56718 -1.794015,-18.86769 0.02824,-4.8697 0.513301,-9.7327 1.816282,-14.35735 1.0768506,-3.82792 2.7328774,-7.49059 5.0002419,-10.71436 2.1524013,-3.07061 4.86093798,-5.75398 7.8713298,-8.04146 3.2336246,-2.45754 6.8167918,-4.47318 10.5319973,-6.2444 4.172968,-1.98723 8.512992,-3.65662 12.910072,-5.21799 10.399812,-3.69073 21.044581,-6.81382 31.560347,-10.5111 12.628957,-4.43895 25.04802,-9.63519 36.84689,-16.1009 4e-6,0 9e-6,0 1.3e-5,0 14.186472,-7.77826 27.393362,-17.34653 39.236722,-28.3871 0,0 0,-10e-6 1e-5,-10e-6 11.60415,-10.82218 21.89457,-22.97383 30.9974,-35.93484 2.60637,-3.71109 5.12782,-7.50379 7.56459,-11.36562 14.12944,-22.3914 25.49992,-47.07725 34.87962,-72.62677 4.44156,-12.05959 9.85443,-23.86689 17.55565,-34.05224 2.94743,-3.90192 6.22982,-7.54073 9.92233,-10.68183 3.22886,-2.74716 6.77302,-5.11767 10.5786,-6.91747 3.55267,-1.68288 7.3431,-2.87242 11.22225,-3.52197 3.9086,-0.65659 7.91784,-0.76798 11.89464,-0.43945 8.87604,0.72449 17.52603,3.60847 25.70504,7.35819 9.80292,4.50313 18.96468,10.29909 27.70984,16.55445 10.17844,7.28352 19.77449,15.23634 29.01887,23.39941 4.603,4.06491 9.11577,8.18603 13.55372,12.33736 5.48532,5.13104 10.85108,10.31364 16.13773,15.51138 10.13416,9.96393 19.97151,19.98994 29.72614,29.94499 9.7701,9.97096 19.45264,19.87842 29.26459,29.59141 9.2547,9.16167 18.6222,18.16422 28.3629,26.77797 8.60315,7.6092 17.50376,14.94901 27.03594,21.52279 7.8571,5.42487 16.20138,10.39702 25.31315,13.83756 3.82614,1.44374 7.80579,2.59354 11.90904,3.25036 3.71598,0.59547 7.53934,0.76262 11.34116,0.33389 10e-6,0 10e-6,0 2e-5,0 3.6595,-0.41548 7.26407,-1.40383 10.63162,-2.95614 10e-6,0 10e-6,0 2e-5,-10e-6 3.56462,-1.64829 6.82286,-3.89514 9.70469,-6.52951 0,0 0,-10e-6 10e-6,-10e-6 3.32527,-3.04058 6.16988,-6.55649 8.6299,-10.29425 2.96349,-4.49951 5.4068,-9.32333 7.50463,-14.28431 0.055,-0.13016 0.10984,-0.26041 0.16444,-0.39075 1.71039,-4.13375 3.56863,-9.47377 5.07792,-14.98131 1.5093,-5.50754 2.68855,-11.172 3.45192,-15.85289 0.76336,-4.68089 1.13426,-8.37299 1.07173,-9.97316 -0.0625,-1.60017 -0.54172,-1.10645 -1.69612,2.52357 -1.02475,4.02819 -2.10912,8.61866 -3.32833,13.296 C 583.49784,469.6262 582.13584,474.38797 580.64702,478.77711 Z"
       style="fill:#000000;stroke:none"
       inkscape:path-effect="#path-effect1218"
       inkscape:original-d="m 286.87825,772.99659 c 0,0 -277.7179658,-40.0863 -298.082366,-154.8584 -20.3644,-114.7722 130.482596,-7.338 216.632846,-239.2311 86.15029,-231.893 333.79054,340.4819 385.10717,69.5486" />
  </g>
</svg>
