<?xml version="1.0" encoding="UTF-8" standalone="no"?>
<!-- Created with Inkscape (http://www.inkscape.org/) -->

<svg
   xmlns:dc="http://purl.org/dc/elements/1.1/"
   xmlns:cc="http://creativecommons.org/ns#"
   xmlns:rdf="http://www.w3.org/1999/02/22-rdf-syntax-ns#"
   xmlns:svg="http://www.w3.org/2000/svg"
   xmlns="http://www.w3.org/2000/svg"
   xmlns:sodipodi="http://sodipodi.sourceforge.net/DTD/sodipodi-0.dtd"
   xmlns:inkscape="http://www.inkscape.org/namespaces/inkscape"
   width="725.22699"
   height="376.35431"
   id="svg2759"
   version="1.1"
   inkscape:version="0.48+devel r"
   sodipodi:docname="saddle.svg">
  <title
     id="title3307">Winter School -- Contact Topology</title>
  <defs
     id="defs2761">
    <inkscape:path-effect
       effect="skeletal"
       id="path-effect2683"
       is_visible="true"
       pattern="m 2222.398,683.77886 c -7.7724,0.72284 -15.5563,0.59508 -23.3473,0.93083 -7.7909,0.33575 -15.5885,-0.16545 -23.3873,0.0109 -7.7988,0.17634 -15.5988,-0.96978 -23.3948,-0.72517 -7.7959,0.24461 -15.5878,0.58027 -23.3702,1.12082 -2.1523,-1.15612 -2.0117,3.78271 0.063,2.4375 7.7113,-0.37053 15.4323,-0.53042 23.1567,-0.61261 7.7244,-0.0822 15.4521,1.213 23.1768,1.15327 7.7247,-0.0597 16.17,-0.80459 23.8822,-1.10773 7.7122,-0.30315 14.6908,1.13589 22.3777,0.32345 1.4035,-0.22689 4.2998,-1.54077 3.0937,-3.21875 C 2223.9873,683.66274 2223.1439,683.75202 2222.398,683.77886 Z"
       copytype="single_stretched"
       prop_scale="1"
       scale_y_rel="false"
       spacing="0"
       normal_offset="0"
       tang_offset="0"
       prop_units="false"
       vertical_pattern="false"
       fuse_tolerance="0" />
    <inkscape:path-effect
       effect="skeletal"
       id="path-effect2691"
       is_visible="true"
       pattern="m 2222.398,683.77886 c -7.7724,0.72284 -15.5563,0.59508 -23.3473,0.93083 -7.7909,0.33575 -15.5885,-0.16545 -23.3873,0.0109 -7.7988,0.17634 -15.5988,-0.96978 -23.3948,-0.72517 -7.7959,0.24461 -15.5878,0.58027 -23.3702,1.12082 -2.1523,-1.15612 -2.0117,3.78271 0.063,2.4375 7.7113,-0.37053 15.4323,-0.53042 23.1567,-0.61261 7.7244,-0.0822 15.4521,1.213 23.1768,1.15327 7.7247,-0.0597 16.17,-0.80459 23.8822,-1.10773 7.7122,-0.30315 14.6908,1.13589 22.3777,0.32345 1.4035,-0.22689 4.2998,-1.54077 3.0937,-3.21875 C 2223.9873,683.66274 2223.1439,683.75202 2222.398,683.77886 Z"
       copytype="single_stretched"
       prop_scale="1"
       scale_y_rel="false"
       spacing="0"
       normal_offset="0"
       tang_offset="0"
       prop_units="false"
       vertical_pattern="false"
       fuse_tolerance="0" />
    <inkscape:path-effect
       effect="skeletal"
       id="path-effect2659"
       is_visible="true"
       pattern="m 2222.398,683.77886 c -7.7724,0.72284 -15.5563,0.59508 -23.3473,0.93083 -7.7909,0.33575 -15.5885,-0.16545 -23.3873,0.0109 -7.7988,0.17634 -15.5988,-0.96978 -23.3948,-0.72517 -7.7959,0.24461 -15.5878,0.58027 -23.3702,1.12082 -2.1523,-1.15612 -2.0117,3.78271 0.063,2.4375 7.7113,-0.37053 15.4323,-0.53042 23.1567,-0.61261 7.7244,-0.0822 15.4521,1.213 23.1768,1.15327 7.7247,-0.0597 16.17,-0.80459 23.8822,-1.10773 7.7122,-0.30315 14.6908,1.13589 22.3777,0.32345 1.4035,-0.22689 4.2998,-1.54077 3.0937,-3.21875 C 2223.9873,683.66274 2223.1439,683.75202 2222.398,683.77886 Z"
       copytype="single_stretched"
       prop_scale="1"
       scale_y_rel="false"
       spacing="0"
       normal_offset="0"
       tang_offset="0"
       prop_units="false"
       vertical_pattern="false"
       fuse_tolerance="0" />
    <inkscape:path-effect
       effect="skeletal"
       id="path-effect2651"
       is_visible="true"
       pattern="m 2222.398,683.77886 c -7.7724,0.72284 -15.5563,0.59508 -23.3473,0.93083 -7.7909,0.33575 -15.5885,-0.16545 -23.3873,0.0109 -7.7988,0.17634 -15.5988,-0.96978 -23.3948,-0.72517 -7.7959,0.24461 -15.5878,0.58027 -23.3702,1.12082 -2.1523,-1.15612 -2.0117,3.78271 0.063,2.4375 7.7113,-0.37053 15.4323,-0.53042 23.1567,-0.61261 7.7244,-0.0822 15.4521,1.213 23.1768,1.15327 7.7247,-0.0597 16.17,-0.80459 23.8822,-1.10773 7.7122,-0.30315 14.6908,1.13589 22.3777,0.32345 1.4035,-0.22689 4.2998,-1.54077 3.0937,-3.21875 C 2223.9873,683.66274 2223.1439,683.75202 2222.398,683.77886 Z"
       copytype="single_stretched"
       prop_scale="1"
       scale_y_rel="false"
       spacing="0"
       normal_offset="0"
       tang_offset="0"
       prop_units="false"
       vertical_pattern="false"
       fuse_tolerance="0" />
    <inkscape:path-effect
       effect="skeletal"
       id="path-effect2667"
       is_visible="true"
       pattern="m 2222.398,683.77886 c -7.7724,0.72284 -15.5563,0.59508 -23.3473,0.93083 -7.7909,0.33575 -15.5885,-0.16545 -23.3873,0.0109 -7.7988,0.17634 -15.5988,-0.96978 -23.3948,-0.72517 -7.7959,0.24461 -15.5878,0.58027 -23.3702,1.12082 -2.1523,-1.15612 -2.0117,3.78271 0.063,2.4375 7.7113,-0.37053 15.4323,-0.53042 23.1567,-0.61261 7.7244,-0.0822 15.4521,1.213 23.1768,1.15327 7.7247,-0.0597 16.17,-0.80459 23.8822,-1.10773 7.7122,-0.30315 14.6908,1.13589 22.3777,0.32345 1.4035,-0.22689 4.2998,-1.54077 3.0937,-3.21875 C 2223.9873,683.66274 2223.1439,683.75202 2222.398,683.77886 Z"
       copytype="single_stretched"
       prop_scale="1"
       scale_y_rel="false"
       spacing="0"
       normal_offset="0"
       tang_offset="0"
       prop_units="false"
       vertical_pattern="false"
       fuse_tolerance="0" />
    <inkscape:path-effect
       effect="skeletal"
       id="path-effect2699"
       is_visible="true"
       pattern="m 2222.398,683.77886 c -7.7724,0.72284 -15.5563,0.59508 -23.3473,0.93083 -7.7909,0.33575 -15.5885,-0.16545 -23.3873,0.0109 -7.7988,0.17634 -15.5988,-0.96978 -23.3948,-0.72517 -7.7959,0.24461 -15.5878,0.58027 -23.3702,1.12082 -2.1523,-1.15612 -2.0117,3.78271 0.063,2.4375 7.7113,-0.37053 15.4323,-0.53042 23.1567,-0.61261 7.7244,-0.0822 15.4521,1.213 23.1768,1.15327 7.7247,-0.0597 16.17,-0.80459 23.8822,-1.10773 7.7122,-0.30315 14.6908,1.13589 22.3777,0.32345 1.4035,-0.22689 4.2998,-1.54077 3.0937,-3.21875 C 2223.9873,683.66274 2223.1439,683.75202 2222.398,683.77886 Z"
       copytype="single_stretched"
       prop_scale="1"
       scale_y_rel="false"
       spacing="0"
       normal_offset="0"
       tang_offset="0"
       prop_units="false"
       vertical_pattern="false"
       fuse_tolerance="0" />
    <inkscape:path-effect
       effect="skeletal"
       id="path-effect2675"
       is_visible="true"
       pattern="m 2222.398,683.77886 c -7.7724,0.72284 -15.5563,0.59508 -23.3473,0.93083 -7.7909,0.33575 -15.5885,-0.16545 -23.3873,0.0109 -7.7988,0.17634 -15.5988,-0.96978 -23.3948,-0.72517 -7.7959,0.24461 -15.5878,0.58027 -23.3702,1.12082 -2.1523,-1.15612 -2.0117,3.78271 0.063,2.4375 7.7113,-0.37053 15.4323,-0.53042 23.1567,-0.61261 7.7244,-0.0822 15.4521,1.213 23.1768,1.15327 7.7247,-0.0597 16.17,-0.80459 23.8822,-1.10773 7.7122,-0.30315 14.6908,1.13589 22.3777,0.32345 1.4035,-0.22689 4.2998,-1.54077 3.0937,-3.21875 C 2223.9873,683.66274 2223.1439,683.75202 2222.398,683.77886 Z"
       copytype="single_stretched"
       prop_scale="1"
       scale_y_rel="false"
       spacing="0"
       normal_offset="0"
       tang_offset="0"
       prop_units="false"
       vertical_pattern="false"
       fuse_tolerance="0" />
  </defs>
  <sodipodi:namedview
     id="base"
     pagecolor="#ffffff"
     bordercolor="#666666"
     borderopacity="1.0"
     inkscape:pageopacity="0.0"
     inkscape:pageshadow="2"
     inkscape:zoom="2.3201941"
     inkscape:cx="434.38479"
     inkscape:cy="181.44682"
     inkscape:document-units="px"
     inkscape:current-layer="layer1"
     showgrid="false"
     fit-margin-top="0"
     fit-margin-left="0"
     fit-margin-right="0"
     fit-margin-bottom="0" />
  <metadata
     id="metadata2764">
    <rdf:RDF>
      <cc:Work
         rdf:about="">
        <dc:format>image/svg+xml</dc:format>
        <dc:type
           rdf:resource="http://purl.org/dc/dcmitype/StillImage" />
        <dc:title>Winter School -- Contact Topology</dc:title>
        <dc:date>2013</dc:date>
        <dc:creator>
          <cc:Agent>
            <dc:title>Marek Kaluba</dc:title>
          </cc:Agent>
        </dc:creator>
        <dc:rights>
          <cc:Agent>
            <dc:title>Marek Kaluba</dc:title>
          </cc:Agent>
        </dc:rights>
      </cc:Work>
    </rdf:RDF>
  </metadata>
  <g
     inkscape:label="Layer 1"
     inkscape:groupmode="layer"
     id="layer1"
     transform="translate(-101.8437,-349.74693)">
    <path
       style="fill:none;stroke:#000000;stroke-width:1px;stroke-linecap:butt;stroke-linejoin:miter;stroke-opacity:1"
       d="m 464.454,349.74693 2e-4,173.78349 -2e-4,87.82395 0,68.77455"
       id="path2584"
       inkscape:connector-curvature="0"
       sodipodi:nodetypes="cccc" />
    <path
       sodipodi:nodetypes="cssc"
       inkscape:connector-curvature="0"
       id="path2596"
       d="m 794.68448,544.11865 c -19.31712,3.99687 -38.93768,6.61601 -58.6728,8.43395 -19.73512,1.81793 -39.58948,2.83598 -59.43575,3.64364 -0.86235,0.0351 -1.7247,0.0692 -2.58705,0.1023 -38.82867,1.48853 -77.73888,0.97143 -116.65317,0.72858 -9.96069,-0.0622 -19.92118,-0.23172 -29.88055,-0.45152 -29.76853,-0.65637 -59.40597,-3.3478 -88.95607,-6.68221 -39.42085,-4.4482 -78.59458,-11.33642 -117.33049,-19.95063 -5.20599,-1.82651 -7.91479,-1.52368 -8.00694,-0.59711 -0.0921,0.92657 2.44622,2.47849 7.75855,3.04349 38.42467,8.7058 77.30709,15.72476 116.46791,20.33697 29.88392,3.51961 59.87663,6.39219 90.02043,7.14733 9.33509,0.23364 18.67222,0.4188 28.01063,0.50719 19.17135,0.18147 39.21954,0.1222 59.28018,-0.18425 20.06064,-0.30645 40.13236,-0.86659 59.3597,-1.61682 1.08093,-0.0421 2.15933,-0.0847 3.23503,-0.12795 19.67149,-0.79004 38.44907,-1.43816 57.16082,-2.80341 18.71174,-1.36525 37.37736,-3.4269 56.64174,-7.28468 3.51045,-0.74299 8.83559,-2.15484 12.46317,-3.48182 3.62758,-1.32699 5.56113,-2.51906 2.39,-2.70109 C 802.5752,542.46147 798.39997,543.39328 794.68448,544.11865 Z"
       style="fill:#000000;stroke:none"
       inkscape:path-effect="#path-effect2683"
       inkscape:original-d="m 313.2711,528.87684 c 64.1038,15.62381 132.0879,27.81622 214.166,28.97625 41.2024,0.58233 96.7974,1.17078 146.5885,-0.36101 49.7911,-1.53179 93.7782,-5.18383 133.7378,-13.82601" />
    <path
       style="fill:#999999;stroke:#999999;stroke-width:1px;stroke-linecap:butt;stroke-linejoin:miter;stroke-opacity:1"
       d="m 664.5285,555.61815 c -28.86918,1.49283 -57.83127,1.60217 -86.81867,1.83004 -14.81338,0.11645 -29.63418,-0.0756 -44.45603,-0.34854 -14.16562,-0.26059 -28.31798,-0.89203 -42.46185,-1.69754 -14.46307,-0.8237 -28.88305,-2.32815 -43.25359,-4.15116 -14.37054,-1.82302 -28.69233,-3.96426 -43.02045,-6.06752 -28.65588,-4.20646 -57.1535,-9.54787 -85.43481,-15.73674 -3.75928,-1.49085 -5.79639,-1.0196 -5.92267,-0.10134 -0.12627,0.91826 1.66859,2.28507 5.58555,2.52701 28.04419,6.3022 56.31699,11.78205 84.76544,16.13594 14.22422,2.17694 28.44607,4.39407 42.72046,6.29326 14.27439,1.89918 28.60201,3.48007 42.9765,4.37867 14.20995,0.88834 29.10638,1.30522 44.00488,1.28807 15.21782,-0.0184 30.43835,-0.14019 44.95865,-0.24135 14.35598,-0.10002 28.02829,0.15067 41.69277,0.24315 13.66449,0.0925 27.3223,0.028 41.61917,-0.74044 5.21875,-0.35914 15.95202,-1.99588 11.41829,-3.53727 C 670.43156,555.33842 667.30015,555.5174 664.5285,555.61815 Z"
       id="path2600"
       inkscape:connector-curvature="0"
       sodipodi:nodetypes="csc"
       inkscape:path-effect="#path-effect2691"
       inkscape:original-d="m 313.2711,528.87684 c 64.1038,15.62381 137.8883,28.21634 219.9664,29.37637 41.2024,0.58233 90.997,0.77066 140.7881,-0.76113" />
    <path
       style="fill:none;stroke:#000000;stroke-width:1px;stroke-linecap:butt;stroke-linejoin:miter;stroke-opacity:1"
       d="m 111.8299,449.18261 77.6113,16.28053 94.9362,19.91487 172.5476,36.1954 172.5475,36.1954 43.1369,9.04885 43.1369,9.04885 86.2738,18.0977"
       id="path2586"
       inkscape:connector-curvature="0"
       sodipodi:nodetypes="cccccccc" />
    <path
       style="fill:none;stroke:#000000;stroke-width:1px;stroke-linecap:butt;stroke-linejoin:miter;stroke-opacity:1"
       d="m 101.9645,613.78533 362.4897,-90.25491 181.2448,-45.12745 90.6224,-22.56373 46.7934,-11.06762 43.829,-11.4961"
       id="path2582"
       inkscape:connector-curvature="0"
       sodipodi:nodetypes="cccccc" />
    <path
       sodipodi:nodetypes="cc"
       inkscape:connector-curvature="0"
       id="path2711"
       d="m 464.4542,523.53042 -2e-4,87.82395"
       style="fill:none;stroke:#808080;stroke-width:1px;stroke-linecap:butt;stroke-linejoin:miter;stroke-opacity:1" />
    <path
       style="fill:#000000;stroke:none"
       d="m 649.71726,698.06323 c -11.37109,-12.51455 -23.6005,-24.25118 -36.82401,-34.79628 -15.59414,-12.43477 -32.5867,-23.17112 -50.73201,-31.4898 -10e-6,0 -10e-6,0 -10e-6,0 -6.59501,-3.02146 -13.33235,-5.70063 -20.1819,-8.04023 -15.21014,-5.19532 -30.92075,-8.88192 -46.86483,-11.09682 -15.94408,-2.21491 -32.12099,-2.95611 -48.20465,-2.24442 -11.91366,0.52804 -23.76282,1.78081 -35.50789,3.68649 -16.70144,2.70985 -33.24595,6.44879 -49.56829,11.08796 -16.32234,4.63917 -32.41898,10.17942 -48.14839,16.47499 -9.45726,3.7834 -18.79714,7.83869 -28.00375,12.16849 -39.83148,18.73244 -77.70717,41.42255 -113.97235,66.14711 -5.37591,2.87485 -7.19432,5.25587 -6.56014,5.94035 0.63419,0.68448 3.71082,-0.31696 8.20412,-4.10496 35.96173,-24.29975 73.46181,-46.57117 112.79894,-64.95558 9.43215,-4.40816 19.00098,-8.52503 28.68835,-12.35459 15.35721,-6.06914 31.04297,-11.41848 46.92043,-15.91719 15.87746,-4.49871 31.94333,-8.14756 48.13403,-10.83207 12.04509,-1.99713 24.49363,-3.45654 37.16218,-4.13572 16.05485,-0.8627 32.45549,-0.33825 48.49566,1.74056 16.04017,2.0788 31.71002,5.71575 46.3429,10.77582 6.64012,2.29616 13.05688,4.91106 19.26148,7.82199 9.09289,4.2638 17.72245,9.11806 25.98064,14.44705 8.2582,5.32899 16.14614,11.13369 23.75268,17.36194 11.50203,9.41729 22.3737,19.78489 33.02419,31.11599 2.72653,2.8434 6.97293,7.14772 10.10254,10.0278 1.5648,1.44003 2.85959,2.51479 3.58132,2.82991 0.72174,0.31512 0.87471,-0.1325 0.12071,-1.72116 C 655.68506,704.82766 652.5308,701.22295 649.71726,698.06323 Z"
       id="path2576"
       inkscape:connector-curvature="0"
       sodipodi:nodetypes="cc"
       inkscape:path-effect="#path-effect2659"
       inkscape:original-d="M 164.8757,725.50478 C 375.1287,583.79189 542.7167,568.56194 657.3178,710.41533" />
    <path
       sodipodi:nodetypes="cccc"
       inkscape:connector-curvature="0"
       id="path2709"
       d="m 464.4542,523.53042 181.2448,-45.12745 90.6224,-22.56373 46.7934,-11.06762"
       style="fill:none;stroke:#808080;stroke-width:1px;stroke-linecap:butt;stroke-linejoin:miter;stroke-opacity:1" />
    <path
       sodipodi:nodetypes="cssc"
       inkscape:connector-curvature="0"
       id="path2592"
       d="m 167.57599,711.18349 c 1.06394,-43.85207 3.80657,-87.70596 7.57012,-131.50796 0.0239,-0.27828 0.0479,-0.55656 0.0719,-0.83484 3.20774,-37.22096 7.93482,-74.3468 15.0292,-111.01937 1.30805,-6.76114 2.69853,-13.50562 4.21667,-20.21747 1.59461,-7.04993 3.38228,-14.05209 5.40872,-20.98294 3.02662,-10.34482 6.52723,-20.55162 11.19138,-30.177 1e-5,-1e-5 1e-5,-1e-5 1e-5,-1e-5 3.27538,-6.72475 6.98898,-13.26694 12.19929,-18.26654 1.88596,-1.80928 3.94657,-3.38986 6.20863,-4.43176 0,0 0,0 0,0 1.95547,-0.90528 4.0816,-1.42184 6.17204,-1.39499 2.6307,0.005 5.285,0.85807 7.72203,2.14484 0,0 0,0 0,0 3.11526,1.65092 5.88025,4.04007 8.44455,6.67847 4.56577,4.70896 8.39168,10.10118 11.84641,15.80869 2.42266,4.00243 4.64946,8.16713 6.79925,12.36265 17.88812,35.02316 29.21193,73.10853 39.78529,111.19089 1.00543,6.06387 2.63867,8.58713 3.49405,8.21374 0.85538,-0.37339 0.93363,-3.64804 -1.22668,-9.18421 -10.40393,-38.04356 -21.62424,-76.21024 -39.4693,-111.5193 -2.01129,-3.98691 -4.11404,-7.96888 -6.40811,-11.83785 -3.6277,-6.11812 -7.70362,-11.96966 -12.65001,-17.14225 -2.67661,-2.80244 -5.68651,-5.39418 -9.18494,-7.28771 0,0 0,0 0,0 -2.76901,-1.5015 -5.89865,-2.48476 -9.15254,-2.53283 -2.60627,-0.0228 -5.18328,0.58619 -7.5227,1.67444 -2.66716,1.24477 -5.0188,3.01706 -7.07818,5.00644 -5.62863,5.43654 -9.58315,12.27283 -12.90741,19.13639 0,0 0,0 0,0 -4.79849,9.84722 -8.39048,20.21019 -11.46013,30.63769 0,0 0,1e-5 0,1e-5 -1.86246,6.31952 -3.52555,12.69111 -5.02254,19.09688 -1.71256,7.32817 -3.25278,14.81397 -4.67299,22.39162 -3.45102,18.41099 -6.2188,37.39456 -8.4859,56.30237 -2.26711,18.90781 -4.04345,37.73903 -5.61014,55.85188 -0.003,0.0399 -0.007,0.0798 -0.0104,0.11974 0,0 0,0 0,0 -1.88797,21.81772 -3.76082,42.59064 -5.31906,63.3768 -1.55825,20.78615 -2.79705,41.58417 -3.30892,63.41085 -0.1086,7.98096 0.59148,24.47462 2.52209,17.69163 C 167.33512,720.20575 167.43074,715.41689 167.57599,711.18349 Z"
       style="fill:#000000;stroke:none"
       inkscape:path-effect="#path-effect2667"
       inkscape:original-d="M 313.2711,528.87684 C 298.9,473.97283 285.1115,434.38113 272.1066,408.51543 c -13.0049,-25.86569 -25.2261,-38.00538 -36.4627,-38.00538 -37.8094,0 -62.9128,140.53566 -70.7682,354.99473" />
    <path
       style="fill:#999999;stroke:#999999;stroke-width:1px;stroke-linecap:butt;stroke-linejoin:miter;stroke-opacity:1"
       d="m 271.65345,412.42586 c 5.08536,8.72858 8.99625,18.06413 13.00316,27.37176 4.00686,9.30752 6.90156,19.06161 10.19911,28.68319 3.29754,9.62157 5.09071,19.71603 8.08184,29.45178 2.99109,9.73563 5.93589,19.49417 9.0371,29.18574 -0.40561,3.01153 4.32611,1.58264 2.33759,-0.698 -2.91168,-9.65127 -5.66457,-19.38012 -8.47942,-29.09681 -2.81485,-9.71669 -4.44724,-19.80229 -7.61608,-29.42235 -3.1688,-9.62007 -7.54018,-19.81481 -11.5035,-29.08691 -1.98167,-4.63605 -3.5513,-9.17579 -5.26609,-13.66541 -1.71479,-4.48962 -3.57485,-8.93105 -6.14,-13.28316 -1.00731,-1.55494 -3.87312,-4.34508 -4.67103,-2.19381 C 270.63784,410.63108 271.20359,411.56949 271.65345,412.42586 Z"
       id="path2604"
       inkscape:connector-curvature="0"
       sodipodi:nodetypes="cc"
       inkscape:path-effect="#path-effect2699"
       inkscape:original-d="M 313.2711,528.87684 C 298.9,473.97283 285.1115,434.38113 272.1066,408.51543" />
    <path
       sodipodi:nodetypes="ccccc"
       inkscape:connector-curvature="0"
       id="path2707"
       d="m 189.4412,465.46314 94.9362,19.91487 172.5476,36.1954 172.5475,36.1954 43.1369,9.04885"
       style="fill:none;stroke:#808080;stroke-width:1px;stroke-linecap:butt;stroke-linejoin:miter;stroke-opacity:1" />
    <path
       style="fill:#000000;stroke:none"
       d="m 660.84536,695.62731 c 2.83171,-36.17375 6.52926,-72.31155 10.71502,-108.41958 1.13196,-9.76427 2.29622,-19.52701 3.49722,-29.28681 2.92034,-23.73165 6.4033,-47.39952 10.4829,-70.96732 3.80398,-21.97078 8.02469,-43.877 13.48102,-65.46012 0.71917,-2.84472 1.46767,-5.68198 2.24702,-8.511 2.43778,-8.84781 5.1807,-17.60555 8.54604,-26.10425 0,0 0,-10e-6 0,-10e-6 2.51822,-6.35073 5.32854,-12.57207 8.97337,-18.22735 1.37785,-2.13734 2.86578,-4.17849 4.5481,-6.00758 1.37339,-1.48839 2.85181,-2.83821 4.48817,-3.86867 1.36698,-0.85818 2.8338,-1.51103 4.33168,-1.7827 1.40675,-0.2669 2.8864,-0.20791 4.2869,0.14103 1.58883,0.38662 3.1185,1.16505 4.55843,2.12995 1.78307,1.20088 3.39415,2.71482 4.90759,4.36316 0,0 0,0 0,1e-5 4.24499,4.6264 7.5274,10.15591 10.56686,15.85488 3.85127,7.2486 7.1373,14.8126 10.20362,22.49214 0.41233,1.03267 0.81997,2.0677 1.2237,3.10457 0,0 0,0 0,0 4.55426,11.70271 8.5347,23.64223 12.25381,35.67174 9.5793,30.9859 17.46763,62.48552 24.84208,94.08284 0.81324,6.35686 2.36488,9.06974 3.23374,8.72616 0.86885,-0.34358 1.05274,-3.74979 -0.93418,-9.61754 -7.24296,-31.53076 -15.00616,-62.99803 -24.46456,-93.99941 -3.68662,-12.08387 -7.646,-24.10256 -12.19245,-35.91229 0,0 0,0 0,0 -0.29531,-0.76731 -0.59296,-1.53401 -0.89327,-2.29991 -3.1526,-8.04028 -6.55456,-16.00774 -10.59275,-23.68379 -3.05222,-5.81429 -6.46516,-11.56905 -10.96664,-16.53782 -1.61363,-1.78185 -3.40609,-3.46086 -5.45362,-4.85907 -1.65897,-1.13664 -3.52224,-2.06741 -5.5613,-2.58654 -1.82916,-0.45867 -3.75942,-0.53205 -5.63899,-0.18263 -1.97435,0.37836 -3.8144,1.17642 -5.44951,2.21896 -1.94178,1.23502 -3.63753,2.76148 -5.13836,4.39797 -1.8449,2.00525 -3.44978,4.18774 -4.89782,6.4307 -3.82151,5.91769 -6.74405,12.3187 -9.3059,18.76087 0,10e-6 0,10e-6 -10e-6,10e-6 -3.44149,8.63619 -6.23937,17.49433 -8.70891,26.40233 0,0 0,0 0,0 -0.59407,2.14235 -1.17031,4.28896 -1.72938,6.4395 -2.82444,10.86474 -5.30891,22.06839 -7.53966,33.44709 -2.23075,11.3787 -4.20965,22.9321 -6.06403,34.49322 -3.8939,24.26774 -7.128,48.63991 -9.99857,71.90022 -1.19549,9.68706 -2.38836,19.17379 -3.57089,28.54539 -4.3632,34.57749 -8.57543,67.61493 -11.33145,103.39985 -0.56139,8.31205 -0.82691,25.54076 1.49847,18.57157 C 660.08446,705.02154 660.45778,700.03357 660.84536,695.62731 Z"
       id="path2578"
       inkscape:connector-curvature="0"
       sodipodi:nodetypes="cc"
       inkscape:path-effect="#path-effect2651"
       inkscape:original-d="M 807.7634,543.66607 C 735.0681,209.56048 690.0257,353.39568 657.3178,710.41533" />
    <path
       style="fill:#000000;stroke:none"
       d="m 712.60044,368.19473 c -14.73723,16.47497 -31.58749,31.17228 -49.03914,45.01088 -19.38513,15.3658 -39.70737,29.56655 -60.57064,42.95845 -4.67015,2.99772 -9.37724,5.93979 -14.11612,8.83017 -23.36206,14.24785 -47.47728,27.30387 -72.40661,38.56305 -9.71392,4.3868 -19.543,8.50229 -29.58592,11.98527 -3.34286,1.15701 -6.69968,2.27014 -10.08143,3.23644 -3.96067,1.13172 -7.9602,2.04713 -12.01075,2.58054 -1.14209,0.1585 -2.3666,0.082 -3.63938,-0.0242 -1.9089,-0.16799 -3.81973,-0.4855 -5.73425,-0.86327 -5.73213,-1.13234 -11.36569,-2.81062 -16.94183,-4.69491 -18.04727,-6.10123 -35.26687,-14.47515 -51.93712,-23.75697 -12.79612,-7.12536 -25.24102,-14.81622 -37.405,-22.93736 -39.04958,-26.07099 -74.49281,-57.66016 -106.59746,-92.11525 -3.95643,-5.20421 -6.6599,-6.86114 -7.24729,-6.13388 -0.58739,0.72727 0.96171,3.85671 5.7014,8.05866 31.80963,34.35629 66.95802,65.92852 105.74198,92.11772 12.44527,8.40378 25.19135,16.36473 38.3149,23.73636 16.74655,9.40726 34.11734,17.91475 52.39918,24.15189 0,0 0,0 0,0 5.64413,1.92686 11.40892,3.65402 17.33742,4.84157 1.97945,0.39727 4.00544,0.73504 6.08027,0.92405 1.34015,0.13267 2.80763,0.20611 4.36943,0.0149 3.49098,-0.46071 6.91825,-1.17681 10.28768,-2.05647 4.20416,-1.09758 8.35532,-2.45534 12.46114,-3.89376 10.03716,-3.50431 19.96901,-7.73152 29.79654,-12.28754 24.96744,-11.57306 49.40151,-25.34133 72.29877,-39.46148 5.00217,-3.08439 9.93318,-6.18799 14.77853,-9.29998 21.40325,-13.74655 41.37642,-27.30565 60.5734,-42.0968 8.04314,-6.19484 15.98398,-12.59981 23.73189,-19.4095 7.7479,-6.80969 15.3055,-14.02378 22.52589,-21.85132 1.43147,-1.58077 3.18606,-3.63541 4.88736,-5.78031 1.7013,-2.1449 3.3482,-4.3802 4.60876,-6.28659 1.26056,-1.90639 2.13728,-3.48098 2.33348,-4.28865 0.1962,-0.80767 -0.28154,-0.84274 -1.76394,0.28039 C 718.87806,361.02425 715.61724,364.88593 712.60044,368.19473 Z"
       id="path2580"
       inkscape:connector-curvature="0"
       sodipodi:nodetypes="csc"
       inkscape:path-effect="#path-effect2675"
       inkscape:original-d="m 235.6439,370.51008 c 109.6376,123.57527 213.9621,154.06921 229.3026,152.0253 47.778,-6.36578 197.8147,-89.68509 259.3211,-164.453" />
    <text
       xml:space="preserve"
       style="font-size:15px;font-style:normal;font-variant:normal;font-weight:500;font-stretch:normal;text-align:start;line-height:125%;letter-spacing:0px;word-spacing:0px;writing-mode:lr-tb;text-anchor:start;fill:#000000;fill-opacity:1;stroke:none;font-family:CMU Serif;-inkscape-font-specification:CMU Serif Medium"
       x="690.8363"
       y="270.26215"
       id="text3394"
       sodipodi:linespacing="125%"
       transform="translate(101.8437,349.74693)"><tspan
         sodipodi:role="line"
         id="tspan3396"
         x="690.8363"
         y="270.26215">u</tspan></text>
    <text
       xml:space="preserve"
       style="font-size:15px;font-style:normal;font-variant:normal;font-weight:500;font-stretch:normal;text-align:start;line-height:125%;letter-spacing:0px;word-spacing:0px;writing-mode:lr-tb;text-anchor:start;fill:#000000;fill-opacity:1;stroke:none;font-family:CMU Serif;-inkscape-font-specification:CMU Serif Medium"
       x="716.22119"
       y="77.487068"
       id="text3398"
       sodipodi:linespacing="125%"
       transform="translate(101.8437,349.74693)"><tspan
         sodipodi:role="line"
         id="tspan3400"
         x="716.22119"
         y="77.487068">v</tspan></text>
    <text
       xml:space="preserve"
       style="font-size:15px;font-style:normal;font-variant:normal;font-weight:500;font-stretch:normal;text-align:start;line-height:125%;letter-spacing:0px;word-spacing:0px;writing-mode:lr-tb;text-anchor:start;fill:#000000;fill-opacity:1;stroke:none;font-family:CMU Serif;-inkscape-font-specification:CMU Serif Medium"
       x="372.68695"
       y="12.317032"
       id="text3402"
       sodipodi:linespacing="125%"
       transform="translate(101.8437,349.74693)"><tspan
         sodipodi:role="line"
         id="tspan3404"
         x="372.68695"
         y="12.317032">f(u,v)</tspan></text>
  </g>
</svg>
