<?xml version="1.0" encoding="UTF-8" standalone="no"?>
<!-- Created with Inkscape (http://www.inkscape.org/) -->

<svg
   xmlns:dc="http://purl.org/dc/elements/1.1/"
   xmlns:cc="http://creativecommons.org/ns#"
   xmlns:rdf="http://www.w3.org/1999/02/22-rdf-syntax-ns#"
   xmlns:svg="http://www.w3.org/2000/svg"
   xmlns="http://www.w3.org/2000/svg"
   xmlns:sodipodi="http://sodipodi.sourceforge.net/DTD/sodipodi-0.dtd"
   xmlns:inkscape="http://www.inkscape.org/namespaces/inkscape"
   width="1124.3601"
   height="441.79089"
   id="svg2926"
   version="1.1"
   inkscape:version="0.48+devel r"
   sodipodi:docname="smth-func-on-mfld.svg">
  <title
     id="title2934">Winter School -- Contact Topology</title>
  <defs
     id="defs2928">
    <inkscape:path-effect
       effect="skeletal"
       id="path-effect2626"
       is_visible="true"
       pattern="m -212.10816,-705.96241 c -7.77241,0.72284 -15.55638,0.59508 -23.34732,0.93083 -7.79095,0.33575 -15.58849,-0.16545 -23.38728,0.0109 -7.7988,0.17634 -15.59884,-0.96978 -23.39479,-0.72517 -7.79596,0.24461 -15.58781,0.58027 -23.37023,1.12082 -2.1523,-1.15612 -2.01174,3.78271 0.0625,2.4375 7.71127,-0.37053 15.4323,-0.53042 23.15668,-0.61261 7.72438,-0.0822 15.45212,1.213 23.1768,1.15327 7.72469,-0.0597 16.17001,-0.80459 23.88219,-1.10773 7.71218,-0.30315 14.69083,1.13589 22.3777,0.32345 1.40356,-0.22689 4.29984,-1.54077 3.09375,-3.21875 C -210.51894,-706.07853 -211.36233,-705.98925 -212.10816,-705.96241 Z"
       copytype="single_stretched"
       prop_scale="1"
       scale_y_rel="false"
       spacing="0"
       normal_offset="0"
       tang_offset="0"
       prop_units="false"
       vertical_pattern="false"
       fuse_tolerance="0" />
    <inkscape:path-effect
       effect="skeletal"
       id="path-effect2634"
       is_visible="true"
       pattern="m -212.10816,-705.96241 c -7.77241,0.72284 -15.55638,0.59508 -23.34732,0.93083 -7.79095,0.33575 -15.58849,-0.16545 -23.38728,0.0109 -7.7988,0.17634 -15.59884,-0.96978 -23.39479,-0.72517 -7.79596,0.24461 -15.58781,0.58027 -23.37023,1.12082 -2.1523,-1.15612 -2.01174,3.78271 0.0625,2.4375 7.71127,-0.37053 15.4323,-0.53042 23.15668,-0.61261 7.72438,-0.0822 15.45212,1.213 23.1768,1.15327 7.72469,-0.0597 16.17001,-0.80459 23.88219,-1.10773 7.71218,-0.30315 14.69083,1.13589 22.3777,0.32345 1.40356,-0.22689 4.29984,-1.54077 3.09375,-3.21875 C -210.51894,-706.07853 -211.36233,-705.98925 -212.10816,-705.96241 Z"
       copytype="single_stretched"
       prop_scale="1"
       scale_y_rel="false"
       spacing="0"
       normal_offset="0"
       tang_offset="0"
       prop_units="false"
       vertical_pattern="false"
       fuse_tolerance="0" />
    <inkscape:path-effect
       effect="skeletal"
       id="path-effect2642"
       is_visible="true"
       pattern="m 95.054236,0.02624778 c -7.77241,0.72284 -15.55638,0.59508 -23.34732,0.93083 -7.79095,0.33575002 -15.58849,-0.16545 -23.38728,0.0109 -7.7988,0.17634002 -15.59884,-0.96978 -23.39479,-0.72517 -7.79596,0.24461 -15.5878095,0.58027 -23.3702295,1.12082002 -2.15230001,-1.15612002 -2.01174001,3.78271 0.0625,2.4375 7.71127,-0.37053 15.4322995,-0.53042 23.1566795,-0.61261 7.72438,-0.0822 15.45212,1.213 23.1768,1.15327 7.72469,-0.0597 16.17001,-0.80459 23.88219,-1.10773 7.71218,-0.30315 14.69083,1.13589 22.3777,0.32345 1.40356,-0.22689 4.29984,-1.54077 3.09375,-3.21875002 C 96.643456,-0.08987222 95.800066,-5.9221925e-4 95.054236,0.02624778 Z"
       copytype="single_stretched"
       prop_scale="1"
       scale_y_rel="false"
       spacing="0"
       normal_offset="0"
       tang_offset="0"
       prop_units="false"
       vertical_pattern="false"
       fuse_tolerance="0" />
    <inkscape:path-effect
       effect="skeletal"
       id="path-effect2650"
       is_visible="true"
       pattern="m 95.054236,0.02624778 c -7.77241,0.72284 -15.55638,0.59508 -23.34732,0.93083 -7.79095,0.33575002 -15.58849,-0.16545 -23.38728,0.0109 -7.7988,0.17634002 -15.59884,-0.96978 -23.39479,-0.72517 -7.79596,0.24461 -15.5878095,0.58027 -23.3702295,1.12082002 -2.15230001,-1.15612002 -2.01174001,3.78271 0.0625,2.4375 7.71127,-0.37053 15.4322995,-0.53042 23.1566795,-0.61261 7.72438,-0.0822 15.45212,1.213 23.1768,1.15327 7.72469,-0.0597 16.17001,-0.80459 23.88219,-1.10773 7.71218,-0.30315 14.69083,1.13589 22.3777,0.32345 1.40356,-0.22689 4.29984,-1.54077 3.09375,-3.21875002 C 96.643456,-0.08987222 95.800066,-5.9221925e-4 95.054236,0.02624778 Z"
       copytype="single_stretched"
       prop_scale="1"
       scale_y_rel="false"
       spacing="0"
       normal_offset="0"
       tang_offset="0"
       prop_units="false"
       vertical_pattern="false"
       fuse_tolerance="0" />
    <inkscape:path-effect
       effect="skeletal"
       id="path-effect2666"
       is_visible="true"
       pattern="m 95.054236,0.02624778 c -7.77241,0.72284 -15.55638,0.59508 -23.34732,0.93083 -7.79095,0.33575002 -15.58849,-0.16545 -23.38728,0.0109 -7.7988,0.17634002 -15.59884,-0.96978 -23.39479,-0.72517 -7.79596,0.24461 -15.5878095,0.58027 -23.3702295,1.12082002 -2.15230001,-1.15612002 -2.01174001,3.78271 0.0625,2.4375 7.71127,-0.37053 15.4322995,-0.53042 23.1566795,-0.61261 7.72438,-0.0822 15.45212,1.213 23.1768,1.15327 7.72469,-0.0597 16.17001,-0.80459 23.88219,-1.10773 7.71218,-0.30315 14.69083,1.13589 22.3777,0.32345 1.40356,-0.22689 4.29984,-1.54077 3.09375,-3.21875002 C 96.643456,-0.08987222 95.800066,-5.9221925e-4 95.054236,0.02624778 Z"
       copytype="single_stretched"
       prop_scale="1"
       scale_y_rel="false"
       spacing="0"
       normal_offset="0"
       tang_offset="0"
       prop_units="false"
       vertical_pattern="false"
       fuse_tolerance="0" />
    <inkscape:path-effect
       effect="skeletal"
       id="path-effect2658"
       is_visible="true"
       pattern="m 95.054236,0.02624778 c -7.77241,0.72284 -15.55638,0.59508 -23.34732,0.93083 -7.79095,0.33575002 -15.58849,-0.16545 -23.38728,0.0109 -7.7988,0.17634002 -15.59884,-0.96978 -23.39479,-0.72517 -7.79596,0.24461 -15.5878095,0.58027 -23.3702295,1.12082002 -2.15230001,-1.15612002 -2.01174001,3.78271 0.0625,2.4375 7.71127,-0.37053 15.4322995,-0.53042 23.1566795,-0.61261 7.72438,-0.0822 15.45212,1.213 23.1768,1.15327 7.72469,-0.0597 16.17001,-0.80459 23.88219,-1.10773 7.71218,-0.30315 14.69083,1.13589 22.3777,0.32345 1.40356,-0.22689 4.29984,-1.54077 3.09375,-3.21875002 C 96.643456,-0.08987222 95.800066,-5.9221925e-4 95.054236,0.02624778 Z"
       copytype="single_stretched"
       prop_scale="1"
       scale_y_rel="false"
       spacing="0"
       normal_offset="0"
       tang_offset="0"
       prop_units="false"
       vertical_pattern="false"
       fuse_tolerance="0" />
  </defs>
  <sodipodi:namedview
     id="base"
     pagecolor="#ffffff"
     bordercolor="#666666"
     borderopacity="1.0"
     inkscape:pageopacity="0.0"
     inkscape:pageshadow="2"
     inkscape:zoom="1.39"
     inkscape:cx="470.95938"
     inkscape:cy="337.84811"
     inkscape:document-units="px"
     inkscape:current-layer="layer1"
     showgrid="false"
     fit-margin-top="0"
     fit-margin-left="0"
     fit-margin-right="0"
     fit-margin-bottom="0"
     inkscape:snap-bbox="true"
     inkscape:object-paths="true"
     inkscape:snap-intersection-paths="true"
     inkscape:object-nodes="true"
     inkscape:snap-smooth-nodes="true"
     inkscape:snap-midpoints="true" />
  <metadata
     id="metadata2931">
    <rdf:RDF>
      <cc:Work
         rdf:about="">
        <dc:format>image/svg+xml</dc:format>
        <dc:type
           rdf:resource="http://purl.org/dc/dcmitype/StillImage" />
        <dc:title>Winter School -- Contact Topology</dc:title>
        <dc:date>2013</dc:date>
        <dc:creator>
          <cc:Agent>
            <dc:title>Marek Kaluba</dc:title>
          </cc:Agent>
        </dc:creator>
        <dc:rights>
          <cc:Agent>
            <dc:title>Marek Kaluba</dc:title>
          </cc:Agent>
        </dc:rights>
      </cc:Work>
    </rdf:RDF>
  </metadata>
  <g
     inkscape:label="Layer 1"
     inkscape:groupmode="layer"
     id="layer1"
     transform="translate(20.551475,-448.76671)">
    <g
       id="g1688">
      <path
         sodipodi:nodetypes="ccccc"
         transform="translate(-20.551475,448.76671)"
         inkscape:connector-curvature="0"
         id="path1655"
         d="m 230.30464,116.89404 c 21.24961,7.30339 54.65543,47.13611 50.96923,73.19123 38.78572,-35.07498 69.65483,-76.63965 108.27079,-83.08864 C 382.47514,86.078611 370.19953,64.581585 341.80371,59.060878 292.84024,68.078465 250.07079,80.839688 230.30464,116.89404 Z"
         style="opacity:0.3;fill:#0000ff;stroke:none" />
      <path
         style="opacity:0.5;fill:#ff0000;stroke:none"
         d="m 234.19302,538.31672 c 31.79824,15.19402 33.59667,58.00168 33.69429,72.11522 15.14772,-25.20879 19.43728,-30.46944 48.11161,-34.60378 9.03897,-17.98333 -8.93005,-28.88051 -1.61297,-41.68655 C 308.6288,523.29857 291.09456,516.59842 279.04614,517.56117 259.63142,522.6439 246.61583,530.35841 234.19302,538.31672 Z"
         id="path1665"
         inkscape:connector-curvature="0"
         sodipodi:nodetypes="cccccc" />
      <path
         inkscape:original-d="m 193.57282,477.45844 c -59.06453,4.7365 -123.15652,17.3014 -169.15028,54.6595 -21.71806,17.6403 -52.84692,47.2488 -41.63629,72.8843 33.26753,76.0733 159.94177,63.0405 242.68259,56.1248 72.46034,-6.0564 187.90632,-12.3044 201.42119,-83.7504 6.79445,-35.9187 -46.13493,-59.9456 -78.88695,-76.182 C 301.34092,478.06244 245.48741,473.29534 193.57282,477.45844 Z"
         inkscape:path-effect="#path-effect2626"
         sodipodi:nodetypes="sssssss"
         inkscape:connector-curvature="0"
         id="path2905"
         d="m 220.68644,478.28767 c 17.31615,-0.42369 34.65624,0.33798 51.8306,2.57798 0,0 0,0 10e-6,0 25.87269,3.37822 51.43284,10.16224 74.81087,21.69089 0,0 10e-6,0 10e-6,0 9.08751,4.47932 18.19895,8.85777 27.08401,13.62098 0,1e-5 10e-6,1e-5 10e-6,1e-5 9.39125,5.03694 18.5817,10.43838 27.02599,16.83026 0,0 0,10e-6 10e-6,10e-6 7.56988,5.74615 14.66841,12.2524 19.47403,20.26754 10e-6,10e-6 10e-6,10e-6 10e-6,10e-6 2.13996,3.56136 3.79066,7.4171 4.64081,11.44029 0.86628,4.07075 0.89755,8.32546 0.13824,12.4342 -0.0808,0.43659 -0.16596,0.8724 -0.25552,1.30734 -1.61863,7.86004 -4.682,15.43235 -9.06151,22.15923 -4.55899,7.01212 -10.49753,13.10842 -17.14227,18.26477 -10e-6,0 -10e-6,0 -10e-6,0 -7.14337,5.54232 -15.09256,10.03124 -23.36141,13.79491 -8.98746,4.08918 -18.36497,7.31959 -27.89383,10.01423 -20.38776,5.76557 -41.41448,9.12015 -62.51221,11.63523 -19.95594,2.37733 -40.02694,3.87488 -60.09809,5.57341 -6.0825,0.51457 -12.16338,1.03926 -18.24379,1.55264 -16.60832,1.40228 -33.22075,2.6405 -49.8524,3.28723 -23.8949,0.92753 -47.86366,0.7806 -71.512472,-2.1172 -4e-6,0 -8e-6,0 -1.2e-5,0 -11.124589,-1.36294 -22.165125,-3.34505 -32.924613,-6.30422 -9.994315,-2.75045 -19.752793,-6.33676 -28.8485,-11.15559 -3e-6,0 -7e-6,0 -1.1e-5,0 -8.538532,-4.52468 -16.4945938,-10.15439 -23.21713088,-16.99797 -2.26e-6,0 -4.53e-6,0 -6.79e-6,-10e-6 C -6.0240207,621.25972 -11.532034,613.0951 -15.437284,604.22538 c -0.457375,-1.02535 -0.839417,-2.08255 -1.149544,-3.16305 -1.405348,-4.89633 -1.328528,-10.2726 -0.08265,-15.32235 1.682987,-6.83716 5.24133,-13.2023 9.4004393,-19.13102 3.5e-6,0 5.3e-6,0 7.1e-6,-10e-6 8.908641,-12.66381 20.5947516,-23.27193 32.7255566,-33.21801 22.874198,-18.74631 50.466066,-31.25627 78.982894,-39.6448 23.67308,-6.95874 48.0863,-11.20246 72.67083,-13.95526 5.74434,-0.31452 9.92986,-0.77422 12.64072,-1.28699 2.71085,-0.51277 3.94574,-1.07582 3.77363,-1.52452 -0.17211,-0.4487 -1.75251,-0.78273 -4.66965,-0.78714 -2.91713,-0.004 -7.17376,0.32 -12.6667,1.24336 -24.46472,2.7161 -48.80229,6.9248 -72.4662,13.82154 -28.776891,8.38042 -56.708315,20.99471 -80.013689,39.98154 -12.23892,9.96771 -24.11899595,20.73523 -33.3158388,33.71009 -1.9e-6,10e-6 -3.8e-6,10e-6 -5.6e-6,2e-5 -4.3124086,6.07436 -8.0322036,12.75271 -9.8850716,20.07819 -1.251535,4.95434 -1.43714,10.22445 -0.323445,15.21946 0.393151,1.76331 0.947647,3.49246 1.673913,5.16178 4.030008,9.20776 9.722364,17.68445 16.7611242,24.87232 4.1e-6,0 6.4e-6,10e-6 8.7e-6,10e-6 6.9679577,7.11053 15.1636591,12.94439 23.9350981,17.60603 4e-6,10e-6 8e-6,10e-6 1.2e-5,10e-6 9.335528,4.96213 19.299388,8.65175 29.461861,11.46275 10.939177,3.02731 22.129102,5.05972 33.37032,6.4538 5e-6,0 9e-6,0 1.3e-5,0 23.89139,2.96246 48.0338,3.15416 72.02226,2.24808 1e-5,0 1e-5,0 2e-5,0 15.39025,-0.57955 30.73952,-1.6626 46.0576,-2.91551 7.34185,-0.6005 14.73842,-1.24001 22.18072,-1.87772 19.76528,-1.69267 39.94084,-3.27838 60.19343,-5.80673 21.08382,-2.62941 42.32023,-6.1764 62.88203,-12.13471 9.63219,-2.79129 19.11893,-6.13621 28.20017,-10.32984 8.42002,-3.88635 16.50743,-8.52875 23.77566,-14.21134 6.84439,-5.35012 12.92543,-11.6739 17.60742,-18.89554 4.81236,-7.43279 8.04247,-15.76128 9.62579,-24.29397 7.3e-4,-0.004 0.001,-0.008 0.002,-0.0118 0.81977,-4.41811 0.78255,-8.96836 -0.13278,-13.32751 -0.91526,-4.33549 -2.65346,-8.43013 -4.88955,-12.16657 -5.07601,-8.4681 -12.35824,-15.20891 -19.98319,-21.03237 -8.61445,-6.59327 -17.87367,-12.11816 -27.24472,-17.23033 -8.94106,-4.87944 -18.03719,-9.34144 -27.05831,-13.87734 -23.48756,-11.80295 -49.13936,-18.92112 -75.64881,-22.46235 -14.1766,-1.89561 -28.61849,-2.78875 -43.29573,-2.7583 -3.76374,0.0274 -8.52769,0.18093 -13.34402,0.48975 -4.81634,0.30883 -9.68376,0.77207 -13.6643,1.2924 -3.98054,0.52032 -7.07437,1.08968 -8.36327,1.55484 -1.28891,0.46517 -0.77434,0.81182 2.4566,0.99588 3.52233,-0.043 7.51866,-0.20615 11.62743,-0.3678 C 212.50177,478.5227 216.72309,478.36338 220.68644,478.28767 Z"
         style="fill:#000000;stroke:none" />
      <path
         sodipodi:nodetypes="ccccc"
         transform="translate(-20.551475,448.76671)"
         inkscape:connector-curvature="0"
         id="path1657"
         d="m 742.54222,123.71985 c 30.94964,-19.30703 87.90307,-34.183412 119.8801,-21.74948 14.23176,55.90846 -9.72499,74.78799 -22.50468,100.89777 -22.61462,-7.45311 -45.55636,-13.76317 -80.64434,22.37002 C 764.31564,193.04183 764.01019,160.01804 742.54222,123.71985 Z"
         style="fill:#ff0000;stroke:none;stroke-width:1px;stroke-linecap:butt;stroke-linejoin:miter;stroke-opacity:1;opacity:0.5" />
      <path
         sodipodi:nodetypes="ccccc"
         inkscape:connector-curvature="0"
         id="path1659"
         d="m 786.28648,521.88274 c 27.23129,15.04186 44.62994,27.97478 53.63613,65.34014 -36.55664,8.39326 -60.28692,49.51879 -90.70989,73.17347 -10.2953,-21.52076 24.58606,-57.26512 -11.3849,-87.70616 C 762.63145,560.8568 771.29286,543.96036 786.28648,521.88274 Z"
         style="opacity:0.3;fill:#0000ff;stroke:none" />
      <path
         inkscape:original-d="m 865.0967,513.03094 c -51.795,0.064 -113.6384,2.5819 -150.3908,39.0783 -29.02469,28.8226 -51.75817,82.9069 -31.69083,118.5506 37.98513,67.4695 145.58893,67.6486 222.97423,65.096 68.3239,-2.2537 165.0915,-7.7618 192.6498,-70.322 15.0113,-34.0772 -14.47,-78.8468 -42.5677,-103.2827 C 1006.4737,519.01724 930.8268,512.94974 865.0967,513.03094 Z"
         inkscape:path-effect="#path-effect2634"
         sodipodi:nodetypes="sssssss"
         inkscape:connector-curvature="0"
         id="path2907"
         d="m 892.84264,515.56467 c 24.68678,0.575 49.3069,2.58274 73.44674,7.48417 10e-6,0 10e-6,10e-6 10e-6,10e-6 16.32623,3.31395 32.40356,7.97618 47.64071,14.63124 0,0 0,0 0,0 14.8772,6.49842 28.9478,14.94256 41.1975,25.55631 15.305,13.26257 28.3248,29.33352 37.2351,47.50435 3.0241,6.17494 5.5432,12.62196 7.1753,19.25757 0.6887,2.79977 1.2179,5.63352 1.5589,8.49451 1.0681,8.975 0.137,18.2703 -3.4809,26.49032 0,0 0,10e-6 0,10e-6 -3.2878,7.49602 -7.7697,14.46946 -13.1873,20.61606 -5.3967,6.12525 -11.7057,11.43918 -18.521,15.98095 -14.6564,9.77318 -31.4658,16.03071 -48.602,20.5013 -18.42884,4.80138 -37.37262,7.51185 -56.38273,9.30253 0,0 -10e-6,0 -10e-6,0 -18.25922,1.71862 -36.60945,2.52104 -54.97361,3.16058 -1.37474,0.0478 -2.7495,0.0945 -4.12428,0.13991 -19.32082,0.63785 -38.64943,0.91125 -57.93931,0.20955 -21.455,-0.78178 -42.88984,-2.69695 -63.85615,-6.95976 -1e-5,0 -1e-5,0 -1e-5,0 -19.60748,-3.99347 -38.91172,-10.00971 -56.11208,-19.89794 -8.04718,-4.62206 -15.59755,-10.09966 -22.24384,-16.50601 -10e-6,-1e-5 -10e-6,-1e-5 -10e-6,-1e-5 -6.66276,-6.41902 -12.41198,-13.78491 -16.95061,-21.83206 -1e-5,0 -1e-5,-10e-6 -1e-5,-10e-6 -2.66214,-4.69981 -4.54825,-9.81942 -5.75813,-15.12991 -1.00211,-4.39856 -1.53642,-8.9289 -1.65782,-13.45855 -0.28187,-10.69431 1.64016,-21.43187 4.84648,-31.74639 0,0 0,-10e-6 10e-6,-10e-6 3.34702,-10.74708 8.1193,-21.05454 13.95651,-30.71652 5.56847,-9.20988 12.09412,-17.85183 19.68072,-25.4451 8.92094,-8.94043 19.67569,-16.01122 31.20439,-21.33744 10e-6,0 10e-6,0 10e-6,0 11.89004,-5.49254 24.58923,-9.1985 37.49166,-11.80039 0,0 10e-6,0 10e-6,0 20.86207,-4.20763 42.20174,-5.58571 63.57795,-6.08615 5.90065,0.18879 10.22279,0.0798 13.03815,-0.21068 2.81536,-0.29048 4.12275,-0.75669 3.9831,-1.21755 -0.13965,-0.46086 -1.72649,-0.91661 -4.70467,-1.16022 -2.97818,-0.24361 -7.35102,-0.27894 -13.04521,0.16004 -21.21672,0.47358 -42.46963,1.84126 -63.34294,5.99599 0,0 -1e-5,10e-6 -1e-5,10e-6 -13.05327,2.59864 -25.95239,6.34058 -38.09555,11.91201 0,0 -10e-6,10e-6 -10e-6,10e-6 -11.7855,5.4068 -22.8135,12.63397 -32.02487,21.81293 -7.77764,7.75778 -14.45814,16.56039 -20.1423,25.92643 -5.96575,9.82492 -10.85252,20.32906 -14.29871,31.30857 0,1e-5 0,1e-5 0,2e-5 -3.31039,10.53543 -5.29828,21.57918 -5.04142,32.67012 0.0952,4.15126 0.53256,8.31342 1.35022,12.39601 1.23023,6.14251 3.31424,12.10618 6.38605,17.58853 0,0 0,10e-6 0,10e-6 4.67071,8.31865 10.58366,15.9287 17.44341,22.56243 0,0 1e-5,0 1e-5,0 6.84168,6.61446 14.58337,12.25898 22.81714,17.00405 17.58927,10.13071 37.2008,16.30286 57.02107,20.35424 21.1948,4.34016 42.80304,6.30916 64.36833,7.118 0,0 1e-5,0 1e-5,0 18.04557,0.67863 36.09448,0.50801 54.1063,-0.0211 2.71872,-0.0798 5.44481,-0.16742 8.17764,-0.26096 18.1046,-0.61825 36.57515,-1.4606 55.16951,-3.29151 18.97406,-1.86604 38.12712,-4.71793 56.81721,-9.71308 17.3255,-4.62138 34.4049,-11.15561 49.2913,-21.18691 0,-10e-6 0,-10e-6 0,-10e-6 6.9743,-4.70348 13.4139,-10.20493 18.9214,-16.51094 5.579,-6.39088 10.1518,-13.59923 13.4968,-21.28808 3.7983,-8.7615 4.7283,-18.46336 3.6084,-27.69768 -0.416,-3.43453 -1.0846,-6.81031 -1.9559,-10.11786 -1.685,-6.396 -4.1184,-12.53925 -6.9699,-18.38053 -4.5868,-9.40564 -10.1793,-18.16941 -16.5227,-26.2609 -6.3433,-8.09149 -13.4385,-15.51077 -21.0687,-22.2111 -12.4613,-10.94358 -26.6705,-19.62025 -41.7123,-26.3212 -15.36337,-6.84472 -31.5728,-11.69679 -48.17117,-15.14987 -20.98959,-4.36543 -42.57335,-6.57268 -64.74316,-7.39341 -3.85494,-0.12304 -8.73846,-0.18117 -13.68477,-0.12568 -4.9463,0.0555 -9.95456,0.22222 -14.06274,0.47277 -4.10818,0.25055 -7.31642,0.58037 -8.67234,0.94382 -1.35593,0.36344 -0.85998,0.75504 2.43785,1.1807 C 875.46732,515.30724 884.6921,515.33225 892.84264,515.56467 Z"
         style="fill:#000000;stroke:none" />
      <g
         transform="matrix(1.9946285,0,0,1.9946285,-779.10287,-2756.0404)"
         id="g2913">
        <path
           style="fill:none;stroke:#000000;stroke-width:1px;stroke-linecap:butt;stroke-linejoin:miter;stroke-opacity:1"
           d="m 397.17969,1524.4045 56.40424,-56.8006"
           id="path2909"
           inkscape:connector-curvature="0"
           transform="translate(5.6387085,301.66294)" />
        <path
           sodipodi:nodetypes="cc"
           style="fill:none;stroke:#000000;stroke-width:1px;stroke-linecap:butt;stroke-linejoin:miter;stroke-opacity:1"
           d="m 397.17969,1524.4045 168.25281,1.6417"
           id="path2911"
           inkscape:connector-curvature="0"
           transform="translate(5.6387085,301.66294)" />
      </g>
      <g
         id="g2927"
         transform="matrix(1.9946285,0,0,1.9946285,-183.10287,-2756.0404)">
        <path
           transform="translate(5.6387085,301.66294)"
           inkscape:connector-curvature="0"
           id="path2929"
           d="m 397.17969,1524.4045 56.40424,-56.8006"
           style="fill:none;stroke:#000000;stroke-width:1px;stroke-linecap:butt;stroke-linejoin:miter;stroke-opacity:1" />
        <path
           transform="translate(5.6387085,301.66294)"
           inkscape:connector-curvature="0"
           id="path2931"
           d="m 397.17969,1524.4045 168.25281,1.6417"
           style="fill:none;stroke:#000000;stroke-width:1px;stroke-linecap:butt;stroke-linejoin:miter;stroke-opacity:1"
           sodipodi:nodetypes="cc" />
      </g>
      <g
         transform="translate(-312.80111,-1007.6516)"
         id="g2939">
        <path
           inkscape:original-d="m 392.12256,1257.4686 c 0,0 -16.75516,13.0419 -9.44899,37.9943 7.30617,24.9524 37.1122,33.2407 37.1122,33.2407"
           inkscape:path-effect="#path-effect2642"
           style="fill:#000000;stroke:none"
           d="m 418.19789,1325.9299 c -0.83081,-0.2029 -1.65835,-0.4387 -2.48177,-0.6999 -3.84057,-1.2196 -7.51182,-2.9689 -11.00026,-5.0218 -1e-5,0 -1e-5,0 -1e-5,0 -2.04041,-1.2024 -4.02083,-2.5097 -5.94377,-3.8996 -2.35388,-1.7014 -4.49193,-3.6882 -6.39036,-5.8747 -2.86564,-3.3002 -5.16041,-7.0542 -6.98821,-10.9933 -0.64521,-1.3905 -1.15069,-2.8437 -1.52551,-4.3274 -0.70393,-2.7576 -1.02537,-5.6073 -1.10418,-8.4159 -0.0788,-2.8087 0.0792,-5.5738 0.35113,-8.3222 0.35637,-3.6015 1.24711,-7.1347 2.76057,-10.4733 2.01878,-2.8931 4.0152,-5.8154 5.98407,-8.7819 1.07963,-0.4565 0.6235,-1.4017 -0.11591,-1.9434 -0.7394,-0.5416 -1.77529,-0.6604 -1.85169,0.5308 -2.05833,2.9559 -4.14946,5.8722 -6.26625,8.7653 -1.71091,3.5766 -2.78875,7.3589 -3.30404,11.2196 -0.40154,3.0085 -0.66566,6.0403 -0.65565,9.1202 0.01,3.08 0.30046,6.2055 1.02419,9.2312 0.36624,1.5055 0.85227,2.9807 1.46592,4.3985 1.86442,4.3078 4.80991,8.3763 8.22688,11.7733 2.24329,2.2294 4.65882,4.196 7.06676,5.9514 2.01021,1.4655 3.93056,2.9062 5.87885,4.2755 3.43476,2.4165 6.98736,4.646 11.09577,6.0052 0,0 0,0 0,0 0.59397,0.1966 1.20017,0.3748 1.81913,0.5304 0.52142,0.1002 1.29939,0.1161 2.02024,-0.028 0.45435,-0.091 0.88696,-0.2437 1.21746,-0.4706 0.14746,-0.1015 0.27329,-0.218 0.37183,-0.3496 0,0 0,0 0,0 l 0,0 c -0.001,0.1131 -0.0174,0.253 -0.0338,0.3677 0,0 0,0 0,0 -0.0158,0.1102 -0.0319,0.1972 -0.0334,0.2051 0,0 0,0 0,0 0,0 0,0 0,0 0,0 0,0 0,0 -1.5e-4,8e-4 -1.5e-4,8e-4 0,0 0,0 0,0 0,0 0,0 0,0 0,0 0,0 0,0 0,0 0,0 0,0 0,0 0,0 0,0 0,0 0,0 0,0 0,0 0.002,-0.01 0.0183,-0.096 0.067,-0.3236 0.0478,-0.2236 0.12642,-0.5823 0.25368,-1.1406 0,0 0,0 0,0 -0.007,-0.1169 -0.026,-0.2396 -0.0598,-0.3687 -0.0177,-0.025 -0.036,-0.048 -0.055,-0.071 -0.22429,-0.2609 -0.51262,-0.4281 -0.82822,-0.5562 0,0 0,0 0,0 C 418.84849,1326.1146 418.51121,1326.0272 418.19789,1325.9299 Z"
           id="path2935"
           inkscape:connector-curvature="0"
           transform="translate(5.6387085,301.66294)"
           sodipodi:nodetypes="czc" />
        <path
           inkscape:original-d="m 384.1356,1268.9776 c 24.06979,8.3361 30.50198,40.9659 23.39501,54.7338"
           inkscape:path-effect="#path-effect2650"
           style="fill:#000000;stroke:none"
           d="m 410.22238,1322.9813 c 0.57466,-2.108 0.96126,-4.1833 1.19477,-6.2611 0.23351,-2.0778 0.31111,-4.1548 0.23881,-6.1915 -0.0412,-1.3293 -0.147,-2.6543 -0.33366,-3.9664 -0.30483,-2.1427 -0.61654,-4.2708 -1.02462,-6.3876 -0.40808,-2.1169 -0.9135,-4.2217 -1.5991,-6.268 -0.33773,-1.0114 -0.721,-2.0095 -1.15974,-2.9834 -1.01379,-2.2505 -1.93864,-4.542 -3.04568,-6.7807 -1.10704,-2.2386 -2.40165,-4.425 -4.06865,-6.3222 -0.3111,-0.3537 -0.63507,-0.6962 -0.97225,-1.0254 -3.9652,-3.8713 -8.83006,-6.7906 -14.04293,-8.2125 -0.48733,-0.8058 -1.14487,-0.027 -1.4307,0.8502 -0.28583,0.8768 -0.26492,1.8281 0.59619,1.4387 4.74073,1.4231 9.12242,4.2395 12.6606,7.8679 0.32672,0.335 0.63838,0.6846 0.93547,1.046 1.46354,1.7791 2.57526,3.8259 3.52221,5.9126 0.94695,2.0867 1.73426,4.2137 2.63174,6.2912 0.41965,0.9714 0.84429,1.9658 1.25942,2.9809 0.768,1.8878 1.50524,3.8479 2.11392,5.8429 0.60869,1.9951 1.08767,4.025 1.36152,6.0121 0.17203,1.2483 0.18486,2.4829 0.10189,3.6938 -0.1329,1.8457 -0.4699,3.6399 -0.84482,5.3847 -0.37491,1.7449 -0.77736,3.432 -1.14616,5.2393 -0.053,0.4525 0.0339,1.2227 0.32858,1.9144 0.29471,0.6916 0.80913,1.3265 1.75525,1.306 C 409.85325,1324.1202 410.03708,1323.5014 410.22238,1322.9813 Z"
           id="path2937"
           inkscape:connector-curvature="0"
           transform="translate(5.6387085,301.66294)"
           sodipodi:nodetypes="cc" />
      </g>
      <g
         transform="matrix(-0.63794763,-0.77007975,0.77007975,-0.63794763,43.70239,1957.0062)"
         id="g2943">
        <path
           inkscape:original-d="m 392.12256,1257.4686 c 0,0 -16.75516,13.0419 -9.44899,37.9943 7.30617,24.9524 37.1122,33.2407 37.1122,33.2407"
           inkscape:path-effect="#path-effect2666"
           sodipodi:nodetypes="czc"
           transform="translate(5.6387085,301.66294)"
           inkscape:connector-curvature="0"
           id="path2945"
           d="m 418.19789,1325.9299 c -0.83081,-0.2029 -1.65835,-0.4387 -2.48177,-0.6999 -3.84057,-1.2196 -7.51182,-2.9689 -11.00026,-5.0218 -1e-5,0 -1e-5,0 -1e-5,0 -2.04041,-1.2024 -4.02083,-2.5097 -5.94377,-3.8996 -2.35388,-1.7014 -4.49193,-3.6882 -6.39036,-5.8747 -2.86564,-3.3002 -5.16041,-7.0542 -6.98821,-10.9933 -0.64521,-1.3905 -1.15069,-2.8437 -1.52551,-4.3274 -0.70393,-2.7576 -1.02537,-5.6073 -1.10418,-8.4159 -0.0788,-2.8087 0.0792,-5.5738 0.35113,-8.3222 0.35637,-3.6015 1.24711,-7.1347 2.76057,-10.4733 2.01878,-2.8931 4.0152,-5.8154 5.98407,-8.7819 1.07963,-0.4565 0.6235,-1.4017 -0.11591,-1.9434 -0.7394,-0.5416 -1.77529,-0.6604 -1.85169,0.5308 -2.05833,2.9559 -4.14946,5.8722 -6.26625,8.7653 -1.71091,3.5766 -2.78875,7.3589 -3.30404,11.2196 -0.40154,3.0085 -0.66566,6.0403 -0.65565,9.1202 0.01,3.08 0.30046,6.2055 1.02419,9.2312 0.36624,1.5055 0.85227,2.9807 1.46592,4.3985 1.86442,4.3078 4.80991,8.3763 8.22688,11.7733 2.24329,2.2294 4.65882,4.196 7.06676,5.9514 2.01021,1.4655 3.93056,2.9062 5.87885,4.2755 3.43476,2.4165 6.98736,4.646 11.09577,6.0052 0,0 0,0 0,0 0.59397,0.1966 1.20017,0.3748 1.81913,0.5304 0.52142,0.1002 1.29939,0.1161 2.02024,-0.028 0.45435,-0.091 0.88696,-0.2437 1.21746,-0.4706 0.14746,-0.1015 0.27329,-0.218 0.37183,-0.3496 0,0 0,0 0,0 l 0,0 c -0.001,0.1131 -0.0174,0.253 -0.0338,0.3677 0,0 0,0 0,0 -0.0158,0.1102 -0.0319,0.1972 -0.0334,0.2051 0,0 0,0 0,0 0,0 0,0 0,0 0,0 0,0 0,0 -1.5e-4,8e-4 -1.5e-4,8e-4 0,0 0,0 0,0 0,0 0,0 0,0 0,0 0,0 0,0 0,0 0,0 0,0 0,0 0,0 0,0 0,0 0,0 0,0 0,0 0.002,-0.01 0.0183,-0.096 0.067,-0.3236 0.0478,-0.2236 0.12642,-0.5823 0.25368,-1.1406 0,0 0,0 0,0 -0.007,-0.1169 -0.026,-0.2396 -0.0598,-0.3687 -0.0177,-0.025 -0.036,-0.048 -0.055,-0.071 -0.22429,-0.2609 -0.51262,-0.4281 -0.82822,-0.5562 0,0 0,0 0,0 C 418.84849,1326.1146 418.51121,1326.0272 418.19789,1325.9299 Z"
           style="fill:#000000;stroke:none" />
        <path
           inkscape:original-d="m 384.1356,1268.9776 c 24.06979,8.3361 30.50198,40.9659 23.39501,54.7338"
           inkscape:path-effect="#path-effect2658"
           sodipodi:nodetypes="cc"
           transform="translate(5.6387085,301.66294)"
           inkscape:connector-curvature="0"
           id="path2947"
           d="m 410.22238,1322.9813 c 0.57466,-2.108 0.96126,-4.1833 1.19477,-6.2611 0.23351,-2.0778 0.31111,-4.1548 0.23881,-6.1915 -0.0412,-1.3293 -0.147,-2.6543 -0.33366,-3.9664 -0.30483,-2.1427 -0.61654,-4.2708 -1.02462,-6.3876 -0.40808,-2.1169 -0.9135,-4.2217 -1.5991,-6.268 -0.33773,-1.0114 -0.721,-2.0095 -1.15974,-2.9834 -1.01379,-2.2505 -1.93864,-4.542 -3.04568,-6.7807 -1.10704,-2.2386 -2.40165,-4.425 -4.06865,-6.3222 -0.3111,-0.3537 -0.63507,-0.6962 -0.97225,-1.0254 -3.9652,-3.8713 -8.83006,-6.7906 -14.04293,-8.2125 -0.48733,-0.8058 -1.14487,-0.027 -1.4307,0.8502 -0.28583,0.8768 -0.26492,1.8281 0.59619,1.4387 4.74073,1.4231 9.12242,4.2395 12.6606,7.8679 0.32672,0.335 0.63838,0.6846 0.93547,1.046 1.46354,1.7791 2.57526,3.8259 3.52221,5.9126 0.94695,2.0867 1.73426,4.2137 2.63174,6.2912 0.41965,0.9714 0.84429,1.9658 1.25942,2.9809 0.768,1.8878 1.50524,3.8479 2.11392,5.8429 0.60869,1.9951 1.08767,4.025 1.36152,6.0121 0.17203,1.2483 0.18486,2.4829 0.10189,3.6938 -0.1329,1.8457 -0.4699,3.6399 -0.84482,5.3847 -0.37491,1.7449 -0.77736,3.432 -1.14616,5.2393 -0.053,0.4525 0.0339,1.2227 0.32858,1.9144 0.29471,0.6916 0.80913,1.3265 1.75525,1.306 C 409.85325,1324.1202 410.03708,1323.5014 410.22238,1322.9813 Z"
           style="fill:#000000;stroke:none" />
      </g>
      <text
         sodipodi:linespacing="125%"
         id="text2953"
         y="459.01172"
         x="174.29509"
         style="font-size:15px;font-style:normal;font-variant:normal;font-weight:500;font-stretch:normal;text-align:start;line-height:125%;letter-spacing:0px;word-spacing:0px;writing-mode:lr-tb;text-anchor:start;fill:#000000;fill-opacity:1;stroke:none;font-family:CMU Serif;-inkscape-font-specification:CMU Serif Medium"
         xml:space="preserve"><tspan
           y="459.01172"
           x="174.29509"
           id="tspan2955"
           sodipodi:role="line">M</tspan></text>
      <text
         sodipodi:linespacing="125%"
         id="text2957"
         y="525.15784"
         x="191.02022"
         style="font-size:15px;font-style:normal;font-variant:normal;font-weight:500;font-stretch:normal;text-align:start;line-height:125%;letter-spacing:0px;word-spacing:0px;writing-mode:lr-tb;text-anchor:start;fill:#000000;fill-opacity:1;stroke:none;font-family:CMU Serif;-inkscape-font-specification:CMU Serif Medium"
         xml:space="preserve"><tspan
           y="525.15784"
           x="191.02022"
           id="tspan2959"
           sodipodi:role="line">x(U)</tspan></text>
      <text
         sodipodi:linespacing="125%"
         id="text2961"
         y="785.54492"
         x="157.17262"
         style="font-size:15px;font-style:normal;font-variant:normal;font-weight:500;font-stretch:normal;text-align:start;line-height:125%;letter-spacing:0px;word-spacing:0px;writing-mode:lr-tb;text-anchor:start;fill:#000000;fill-opacity:1;stroke:none;font-family:CMU Serif;-inkscape-font-specification:CMU Serif Medium"
         xml:space="preserve"><tspan
           y="785.54492"
           x="157.17262"
           id="tspan2963"
           sodipodi:role="line">U</tspan></text>
      <text
         sodipodi:linespacing="125%"
         id="text2965"
         y="807.64624"
         x="949.31293"
         style="font-size:15px;font-style:normal;font-variant:normal;font-weight:500;font-stretch:normal;text-align:start;line-height:125%;letter-spacing:0px;word-spacing:0px;writing-mode:lr-tb;text-anchor:start;fill:#000000;fill-opacity:1;stroke:none;font-family:CMU Serif;-inkscape-font-specification:CMU Serif Medium"
         xml:space="preserve"><tspan
           y="807.64624"
           x="949.31293"
           id="tspan2967"
           sodipodi:role="line">V</tspan></text>
      <text
         sodipodi:linespacing="125%"
         id="text2969"
         y="483.60876"
         x="852.92987"
         style="font-size:15px;font-style:normal;font-variant:normal;font-weight:500;font-stretch:normal;text-align:start;line-height:125%;letter-spacing:0px;word-spacing:0px;writing-mode:lr-tb;text-anchor:start;fill:#000000;fill-opacity:1;stroke:none;font-family:CMU Serif;-inkscape-font-specification:CMU Serif Medium"
         xml:space="preserve"><tspan
           y="483.60876"
           x="852.92987"
           id="tspan2971"
           sodipodi:role="line">N</tspan></text>
      <text
         sodipodi:linespacing="125%"
         id="text2973"
         y="562.84009"
         x="861.75116"
         style="font-size:15px;font-style:normal;font-variant:normal;font-weight:500;font-stretch:normal;text-align:start;line-height:125%;letter-spacing:0px;word-spacing:0px;writing-mode:lr-tb;text-anchor:start;fill:#000000;fill-opacity:1;stroke:none;font-family:CMU Serif;-inkscape-font-specification:CMU Serif Medium"
         xml:space="preserve"><tspan
           y="562.84009"
           x="861.75116"
           id="tspan2975"
           sodipodi:role="line">y(V)</tspan></text>
      <text
         sodipodi:linespacing="125%"
         id="text2977"
         y="545.75366"
         x="538.47839"
         style="font-size:15px;font-style:normal;font-variant:normal;font-weight:500;font-stretch:normal;text-align:start;line-height:125%;letter-spacing:0px;word-spacing:0px;writing-mode:lr-tb;text-anchor:start;fill:#000000;fill-opacity:1;stroke:none;font-family:CMU Serif;-inkscape-font-specification:CMU Serif Medium"
         xml:space="preserve"><tspan
           y="545.75366"
           x="538.47839"
           id="tspan2979"
           sodipodi:role="line">f</tspan></text>
      <text
         sodipodi:linespacing="125%"
         id="text2981"
         y="820.71027"
         x="338.51581"
         style="font-size:15px;font-style:normal;font-variant:normal;font-weight:500;font-stretch:normal;text-align:start;line-height:125%;letter-spacing:0px;word-spacing:0px;writing-mode:lr-tb;text-anchor:start;fill:#000000;fill-opacity:1;stroke:none;font-family:CMU Serif;-inkscape-font-specification:CMU Serif Medium"
         xml:space="preserve"><tspan
           y="820.71027"
           x="338.51581"
           id="tspan2983"
           sodipodi:role="line">y^{-1}\circ f \circ x </tspan></text>
      <path
         sodipodi:nodetypes="cc"
         inkscape:connector-curvature="0"
         id="path192"
         d="m 443.41282,575.18995 c 49.98994,-22.06152 132.26901,-28.26105 231.00652,6.67933"
         style="fill:none;stroke:#000000;stroke-width:1px;stroke-linecap:butt;stroke-linejoin:miter;stroke-opacity:1" />
      <path
         transform="translate(-311.01142,-729.23658)"
         d="m 589.15889,1287.3018 a 3.5391409,3.8512926 0 1 1 -7.07828,0 A 3.5391409,3.8512926 0 1 1 589.15889,1287.3018 Z"
         sodipodi:ry="3.8512926"
         sodipodi:rx="3.5391409"
         sodipodi:cy="1287.3018"
         sodipodi:cx="585.61975"
         id="path198"
         style="fill:#000000;fill-opacity:1;fill-rule:nonzero;stroke:#000000;stroke-width:0.1;stroke-linecap:round;stroke-linejoin:round;stroke-miterlimit:4;stroke-opacity:1;stroke-dasharray:none;stroke-dashoffset:0"
         sodipodi:type="arc" />
      <text
         sodipodi:linespacing="125%"
         id="text200"
         y="564.23828"
         x="288.97495"
         style="font-size:15px;font-style:normal;font-variant:normal;font-weight:500;font-stretch:normal;text-align:start;line-height:125%;letter-spacing:0px;word-spacing:0px;writing-mode:lr-tb;text-anchor:start;fill:#000000;fill-opacity:1;stroke:none;font-family:CMU Serif;-inkscape-font-specification:CMU Serif Medium"
         xml:space="preserve"><tspan
           y="564.23828"
           x="288.97495"
           id="tspan202"
           sodipodi:role="line">p</tspan></text>
      <path
         d="m 589.15889,1287.3018 a 3.5391409,3.8512926 0 1 1 -7.07828,0 A 3.5391409,3.8512926 0 1 1 589.15889,1287.3018 Z"
         sodipodi:ry="3.8512926"
         sodipodi:rx="3.5391409"
         sodipodi:cy="1287.3018"
         sodipodi:cx="585.61975"
         id="path198-8"
         style="fill:#000000;fill-opacity:1;fill-rule:nonzero;stroke:#000000;stroke-width:0.1;stroke-linecap:round;stroke-linejoin:round;stroke-miterlimit:4;stroke-opacity:1;stroke-dasharray:none;stroke-dashoffset:0"
         sodipodi:type="arc"
         transform="translate(185.15362,-685.25489)" />
      <text
         sodipodi:linespacing="125%"
         id="text200-1"
         y="608.21997"
         x="785.14008"
         style="font-size:15px;font-style:normal;font-variant:normal;font-weight:500;font-stretch:normal;text-align:start;line-height:125%;letter-spacing:0px;word-spacing:0px;writing-mode:lr-tb;text-anchor:start;fill:#000000;fill-opacity:1;stroke:none;font-family:CMU Serif;-inkscape-font-specification:CMU Serif Medium"
         xml:space="preserve"><tspan
           id="tspan228"
           y="608.21997"
           x="785.14008"
           sodipodi:role="line">f(p)</tspan></text>
      <path
         sodipodi:nodetypes="cc"
         inkscape:connector-curvature="0"
         id="path240"
         d="m 734.20778,495.6036 c 34.32651,7.47817 26.53173,30.7793 53.77105,41.01252"
         style="fill:none;stroke:#000000;stroke-width:1px;stroke-linecap:butt;stroke-linejoin:miter;stroke-opacity:1" />
      <text
         sodipodi:linespacing="125%"
         id="text242"
         y="498.39905"
         x="680.56006"
         style="font-size:15px;font-style:normal;font-variant:normal;font-weight:500;font-stretch:normal;text-align:start;line-height:125%;letter-spacing:0px;word-spacing:0px;writing-mode:lr-tb;text-anchor:start;fill:#000000;fill-opacity:1;stroke:none;font-family:CMU Serif;-inkscape-font-specification:CMU Serif Medium"
         xml:space="preserve"><tspan
           id="tspan246"
           y="498.39905"
           x="680.56006"
           sodipodi:role="line">f(x(U))</tspan></text>
      <text
         sodipodi:linespacing="125%"
         id="text2674"
         y="732.61633"
         x="272.53351"
         style="font-size:15px;font-style:normal;font-variant:normal;font-weight:500;font-stretch:normal;text-align:start;line-height:125%;letter-spacing:0px;word-spacing:0px;writing-mode:lr-tb;text-anchor:start;fill:#000000;fill-opacity:1;stroke:none;font-family:CMU Serif;-inkscape-font-specification:CMU Serif Medium"
         xml:space="preserve"><tspan
           id="tspan2686"
           y="732.61633"
           x="272.53351"
           sodipodi:role="line">x</tspan></text>
      <text
         sodipodi:linespacing="125%"
         id="text2678"
         y="711.30292"
         x="852.68329"
         style="font-size:15px;font-style:normal;font-variant:normal;font-weight:500;font-stretch:normal;text-align:start;line-height:125%;letter-spacing:0px;word-spacing:0px;writing-mode:lr-tb;text-anchor:start;fill:#000000;fill-opacity:1;stroke:none;font-family:CMU Serif;-inkscape-font-specification:CMU Serif Medium"
         xml:space="preserve"><tspan
           id="tspan2682"
           y="711.30292"
           x="852.68329"
           sodipodi:role="line">y^{-1}</tspan></text>
      <path
         style="fill:#ff0000;stroke:none;stroke-width:1px;stroke-linecap:butt;stroke-linejoin:miter;stroke-opacity:1;opacity:0.5"
         d="m 192.29143,806.41904 c -32.10978,8.02122 -32.32703,19.27944 -41.76299,28.50741 22.95736,3.61859 39.49796,8.11315 55.78003,18.25315 23.70863,-10.91435 40.81928,-5.24866 48.24661,-18.80863 C 237.65715,824.95406 262.01623,816.44125 255.26,806.41904 Z"
         id="path1663"
         inkscape:connector-curvature="0"
         sodipodi:nodetypes="cccccc" />
      <rect
         transform="matrix(1,0,-0.72768077,0.68591595,0,0)"
         y="1175.682"
         x="999.24438"
         height="85.869316"
         width="165.39325"
         id="rect1651"
         style="opacity:0.3;fill:#0000ff;fill-opacity:1;fill-rule:nonzero;stroke:#ffffff;stroke-width:0.14205571;stroke-linecap:round;stroke-linejoin:round;stroke-miterlimit:4;stroke-opacity:1;stroke-dasharray:none;stroke-dashoffset:0" />
      <rect
         transform="matrix(1,0,-0.71269533,0.70147371,0,0)"
         y="1147.1392"
         x="1566.9093"
         height="93.148956"
         width="188.88411"
         id="rect1653"
         style="opacity:0.5;fill:#ff0000;fill-opacity:1;fill-rule:nonzero;stroke:#ffffff;stroke-width:0.11939725;stroke-linecap:round;stroke-linejoin:round;stroke-miterlimit:4;stroke-opacity:1;stroke-dasharray:none;stroke-dashoffset:0" />
      <path
         sodipodi:nodetypes="cc"
         inkscape:connector-curvature="0"
         id="path194"
         d="m 175.31543,795.54864 c 12.74044,-59.26806 -0.97726,-132.21586 57.84375,-202.26802"
         style="fill:none;stroke:#000000;stroke-width:1px;stroke-linecap:butt;stroke-linejoin:miter;stroke-opacity:1" />
      <path
         sodipodi:nodetypes="cc"
         inkscape:connector-curvature="0"
         id="path196"
         d="m 839.33408,642.02478 c 38.1053,34.99945 -7.28062,105.54742 1.68408,147.74197"
         style="fill:none;stroke:#000000;stroke-width:1px;stroke-linecap:butt;stroke-linejoin:miter;stroke-opacity:1" />
      <path
         sodipodi:nodetypes="cccccc"
         transform="translate(-20.551475,448.76671)"
         inkscape:connector-curvature="0"
         id="path1661"
         d="m 821.00976,355.92125 c -32.10978,8.02122 -33.02685,19.05604 -42.46281,28.28401 29.39855,0.81343 58.98703,1.26799 76.6718,24.21486 25.57966,3.19972 31.08352,-12.13617 38.51085,-25.69614 C 876.83167,373.30707 871.09834,365.94346 864.34211,355.92125 Z"
         style="fill:#0000ff;stroke:none;stroke-width:1px;stroke-linecap:butt;stroke-linejoin:miter;stroke-opacity:1;opacity:0.3" />
      <path
         sodipodi:nodetypes="cc"
         transform="translate(-20.551475,448.76671)"
         inkscape:connector-curvature="0"
         id="path1667"
         d="m 241.51437,378.14639 c 250.17485,40.9307 351.80383,-47.00944 595.59087,-3.44348"
         style="fill:none;stroke:#000000;stroke-width:1px;stroke-linecap:butt;stroke-linejoin:miter;stroke-opacity:1" />
    </g>
    <path
       style="fill:none;stroke:#000000;stroke-width:1px;stroke-linecap:butt;stroke-linejoin:miter;stroke-opacity:1"
       d="m 297.01959,81.519092 c -13.15725,-17.4006 -7.64448,-58.755779 12.18028,-69.88236"
       id="path1745"
       inkscape:connector-curvature="0"
       transform="translate(-20.551475,448.76671)"
       sodipodi:nodetypes="cc" />
    <text
       xml:space="preserve"
       style="font-size:15px;font-style:normal;font-variant:normal;font-weight:500;font-stretch:normal;text-align:start;line-height:125%;letter-spacing:0px;word-spacing:0px;writing-mode:lr-tb;text-anchor:start;fill:#000000;fill-opacity:1;stroke:none;font-family:CMU Serif;-inkscape-font-specification:CMU Serif Medium"
       x="316.13504"
       y="11.854945"
       id="text1747"
       sodipodi:linespacing="125%"
       transform="translate(-20.551475,448.76671)"><tspan
         sodipodi:role="line"
         id="tspan1749"
         x="316.13504"
         y="11.854945">f^{-1}(f(x(U)\cap y(V))</tspan></text>
  </g>
</svg>
