<?xml version="1.0" encoding="UTF-8" standalone="no"?>
<!-- Created with Inkscape (http://www.inkscape.org/) -->

<svg
   xmlns:dc="http://purl.org/dc/elements/1.1/"
   xmlns:cc="http://creativecommons.org/ns#"
   xmlns:rdf="http://www.w3.org/1999/02/22-rdf-syntax-ns#"
   xmlns:svg="http://www.w3.org/2000/svg"
   xmlns="http://www.w3.org/2000/svg"
   xmlns:sodipodi="http://sodipodi.sourceforge.net/DTD/sodipodi-0.dtd"
   xmlns:inkscape="http://www.inkscape.org/namespaces/inkscape"
   width="1028.161"
   height="582.10382"
   id="svg1229"
   version="1.1"
   inkscape:version="0.48+devel r"
   sodipodi:docname="sphere-atlas.svg">
  <title
     id="title1237">Winter School -- Contact Topology</title>
  <defs
     id="defs1231">
    <inkscape:path-effect
       effect="skeletal"
       id="path-effect1088"
       is_visible="true"
       pattern="m 95.054236,0.02624778 c -7.77241,0.72284 -15.55638,0.59508 -23.34732,0.93083 -7.79095,0.33575002 -15.58849,-0.16545 -23.38728,0.0109 -7.7988,0.17634002 -15.59884,-0.96978 -23.39479,-0.72517 -7.79596,0.24461 -15.5878095,0.58027 -23.3702295,1.12082002 -2.15230001,-1.15612002 -2.01174001,3.78271 0.0625,2.4375 7.71127,-0.37053 15.4322995,-0.53042 23.1566795,-0.61261 7.72438,-0.0822 15.45212,1.213 23.1768,1.15327 7.72469,-0.0597 16.17001,-0.80459 23.88219,-1.10773 7.71218,-0.30315 14.69083,1.13589 22.3777,0.32345 1.40356,-0.22689 4.29984,-1.54077 3.09375,-3.21875002 C 96.643456,-0.08987222 95.800066,-5.9221925e-4 95.054236,0.02624778 Z"
       copytype="single_stretched"
       prop_scale="1"
       scale_y_rel="false"
       spacing="0"
       normal_offset="0"
       tang_offset="0"
       prop_units="false"
       vertical_pattern="false"
       fuse_tolerance="0" />
    <inkscape:path-effect
       effect="skeletal"
       id="path-effect1110"
       is_visible="true"
       pattern="m 95.054236,0.02624778 c -7.77241,0.72284 -15.55638,0.59508 -23.34732,0.93083 -7.79095,0.33575002 -15.58849,-0.16545 -23.38728,0.0109 -7.7988,0.17634002 -15.59884,-0.96978 -23.39479,-0.72517 -7.79596,0.24461 -15.5878095,0.58027 -23.3702295,1.12082002 -2.15230001,-1.15612002 -2.01174001,3.78271 0.0625,2.4375 7.71127,-0.37053 15.4322995,-0.53042 23.1566795,-0.61261 7.72438,-0.0822 15.45212,1.213 23.1768,1.15327 7.72469,-0.0597 16.17001,-0.80459 23.88219,-1.10773 7.71218,-0.30315 14.69083,1.13589 22.3777,0.32345 1.40356,-0.22689 4.29984,-1.54077 3.09375,-3.21875002 C 96.643456,-0.08987222 95.800066,-5.9221925e-4 95.054236,0.02624778 Z"
       copytype="single_stretched"
       prop_scale="1"
       scale_y_rel="false"
       spacing="0"
       normal_offset="0"
       tang_offset="0"
       prop_units="false"
       vertical_pattern="false"
       fuse_tolerance="0" />
    <inkscape:path-effect
       effect="skeletal"
       id="path-effect1118"
       is_visible="true"
       pattern="m 95.054236,0.02624778 c -7.77241,0.72284 -15.55638,0.59508 -23.34732,0.93083 -7.79095,0.33575002 -15.58849,-0.16545 -23.38728,0.0109 -7.7988,0.17634002 -15.59884,-0.96978 -23.39479,-0.72517 -7.79596,0.24461 -15.5878095,0.58027 -23.3702295,1.12082002 -2.15230001,-1.15612002 -2.01174001,3.78271 0.0625,2.4375 7.71127,-0.37053 15.4322995,-0.53042 23.1566795,-0.61261 7.72438,-0.0822 15.45212,1.213 23.1768,1.15327 7.72469,-0.0597 16.17001,-0.80459 23.88219,-1.10773 7.71218,-0.30315 14.69083,1.13589 22.3777,0.32345 1.40356,-0.22689 4.29984,-1.54077 3.09375,-3.21875002 C 96.643456,-0.08987222 95.800066,-5.9221925e-4 95.054236,0.02624778 Z"
       copytype="single_stretched"
       prop_scale="1"
       scale_y_rel="false"
       spacing="0"
       normal_offset="0"
       tang_offset="0"
       prop_units="false"
       vertical_pattern="false"
       fuse_tolerance="0" />
    <inkscape:path-effect
       effect="skeletal"
       id="path-effect1096"
       is_visible="true"
       pattern="m 95.054236,0.02624778 c -7.77241,0.72284 -15.55638,0.59508 -23.34732,0.93083 -7.79095,0.33575002 -15.58849,-0.16545 -23.38728,0.0109 -7.7988,0.17634002 -15.59884,-0.96978 -23.39479,-0.72517 -7.79596,0.24461 -15.5878095,0.58027 -23.3702295,1.12082002 -2.15230001,-1.15612002 -2.01174001,3.78271 0.0625,2.4375 7.71127,-0.37053 15.4322995,-0.53042 23.1566795,-0.61261 7.72438,-0.0822 15.45212,1.213 23.1768,1.15327 7.72469,-0.0597 16.17001,-0.80459 23.88219,-1.10773 7.71218,-0.30315 14.69083,1.13589 22.3777,0.32345 1.40356,-0.22689 4.29984,-1.54077 3.09375,-3.21875002 C 96.643456,-0.08987222 95.800066,-5.9221925e-4 95.054236,0.02624778 Z"
       copytype="single_stretched"
       prop_scale="1"
       scale_y_rel="false"
       spacing="0"
       normal_offset="0"
       tang_offset="0"
       prop_units="false"
       vertical_pattern="false"
       fuse_tolerance="0" />
    <inkscape:path-effect
       effect="skeletal"
       id="path-effect1126"
       is_visible="true"
       pattern="m 95.054236,0.02624778 c -7.77241,0.72284 -15.55638,0.59508 -23.34732,0.93083 -7.79095,0.33575002 -15.58849,-0.16545 -23.38728,0.0109 -7.7988,0.17634002 -15.59884,-0.96978 -23.39479,-0.72517 -7.79596,0.24461 -15.5878095,0.58027 -23.3702295,1.12082002 -2.15230001,-1.15612002 -2.01174001,3.78271 0.0625,2.4375 7.71127,-0.37053 15.4322995,-0.53042 23.1566795,-0.61261 7.72438,-0.0822 15.45212,1.213 23.1768,1.15327 7.72469,-0.0597 16.17001,-0.80459 23.88219,-1.10773 7.71218,-0.30315 14.69083,1.13589 22.3777,0.32345 1.40356,-0.22689 4.29984,-1.54077 3.09375,-3.21875002 C 96.643456,-0.08987222 95.800066,-5.9221925e-4 95.054236,0.02624778 Z"
       copytype="single_stretched"
       prop_scale="1"
       scale_y_rel="false"
       spacing="0"
       normal_offset="0"
       tang_offset="0"
       prop_units="false"
       vertical_pattern="false"
       fuse_tolerance="0" />
    <inkscape:path-effect
       effect="skeletal"
       id="path-effect1075"
       is_visible="true"
       pattern="m 95.054236,0.02624778 c -7.77241,0.72284 -15.55638,0.59508 -23.34732,0.93083 -7.79095,0.33575002 -15.58849,-0.16545 -23.38728,0.0109 -7.7988,0.17634002 -15.59884,-0.96978 -23.39479,-0.72517 -7.79596,0.24461 -15.5878095,0.58027 -23.3702295,1.12082002 -2.15230001,-1.15612002 -2.01174001,3.78271 0.0625,2.4375 7.71127,-0.37053 15.4322995,-0.53042 23.1566795,-0.61261 7.72438,-0.0822 15.45212,1.213 23.1768,1.15327 7.72469,-0.0597 16.17001,-0.80459 23.88219,-1.10773 7.71218,-0.30315 14.69083,1.13589 22.3777,0.32345 1.40356,-0.22689 4.29984,-1.54077 3.09375,-3.21875002 C 96.643456,-0.08987222 95.800066,-5.9221925e-4 95.054236,0.02624778 Z"
       copytype="single_stretched"
       prop_scale="1"
       scale_y_rel="false"
       spacing="0"
       normal_offset="0"
       tang_offset="0"
       prop_units="false"
       vertical_pattern="false"
       fuse_tolerance="0" />
    <inkscape:path-effect
       effect="skeletal"
       id="path-effect1051"
       is_visible="true"
       pattern="m 95.054236,0.02624778 c -7.77241,0.72284 -15.55638,0.59508 -23.34732,0.93083 -7.79095,0.33575002 -15.58849,-0.16545 -23.38728,0.0109 -7.7988,0.17634002 -15.59884,-0.96978 -23.39479,-0.72517 -7.79596,0.24461 -15.5878095,0.58027 -23.3702295,1.12082002 -2.15230001,-1.15612002 -2.01174001,3.78271 0.0625,2.4375 7.71127,-0.37053 15.4322995,-0.53042 23.1566795,-0.61261 7.72438,-0.0822 15.45212,1.213 23.1768,1.15327 7.72469,-0.0597 16.17001,-0.80459 23.88219,-1.10773 7.71218,-0.30315 14.69083,1.13589 22.3777,0.32345 1.40356,-0.22689 4.29984,-1.54077 3.09375,-3.21875002 C 96.643456,-0.08987222 95.800066,-5.9221925e-4 95.054236,0.02624778 Z"
       copytype="single_stretched"
       prop_scale="1"
       scale_y_rel="false"
       spacing="0"
       normal_offset="0"
       tang_offset="0"
       prop_units="false"
       vertical_pattern="false"
       fuse_tolerance="0" />
    <inkscape:path-effect
       effect="skeletal"
       id="path-effect1059"
       is_visible="true"
       pattern="m 95.054236,0.02624778 c -7.77241,0.72284 -15.55638,0.59508 -23.34732,0.93083 -7.79095,0.33575002 -15.58849,-0.16545 -23.38728,0.0109 -7.7988,0.17634002 -15.59884,-0.96978 -23.39479,-0.72517 -7.79596,0.24461 -15.5878095,0.58027 -23.3702295,1.12082002 -2.15230001,-1.15612002 -2.01174001,3.78271 0.0625,2.4375 7.71127,-0.37053 15.4322995,-0.53042 23.1566795,-0.61261 7.72438,-0.0822 15.45212,1.213 23.1768,1.15327 7.72469,-0.0597 16.17001,-0.80459 23.88219,-1.10773 7.71218,-0.30315 14.69083,1.13589 22.3777,0.32345 1.40356,-0.22689 4.29984,-1.54077 3.09375,-3.21875002 C 96.643456,-0.08987222 95.800066,-5.9221925e-4 95.054236,0.02624778 Z"
       copytype="single_stretched"
       prop_scale="1"
       scale_y_rel="false"
       spacing="0"
       normal_offset="0"
       tang_offset="0"
       prop_units="false"
       vertical_pattern="false"
       fuse_tolerance="0" />
    <inkscape:path-effect
       effect="skeletal"
       id="path-effect1067"
       is_visible="true"
       pattern="m 95.054236,0.02624778 c -7.77241,0.72284 -15.55638,0.59508 -23.34732,0.93083 -7.79095,0.33575002 -15.58849,-0.16545 -23.38728,0.0109 -7.7988,0.17634002 -15.59884,-0.96978 -23.39479,-0.72517 -7.79596,0.24461 -15.5878095,0.58027 -23.3702295,1.12082002 -2.15230001,-1.15612002 -2.01174001,3.78271 0.0625,2.4375 7.71127,-0.37053 15.4322995,-0.53042 23.1566795,-0.61261 7.72438,-0.0822 15.45212,1.213 23.1768,1.15327 7.72469,-0.0597 16.17001,-0.80459 23.88219,-1.10773 7.71218,-0.30315 14.69083,1.13589 22.3777,0.32345 1.40356,-0.22689 4.29984,-1.54077 3.09375,-3.21875002 C 96.643456,-0.08987222 95.800066,-5.9221925e-4 95.054236,0.02624778 Z"
       copytype="single_stretched"
       prop_scale="1"
       scale_y_rel="false"
       spacing="0"
       normal_offset="0"
       tang_offset="0"
       prop_units="false"
       vertical_pattern="false"
       fuse_tolerance="0" />
    <inkscape:path-effect
       effect="skeletal"
       id="path-effect1011"
       is_visible="true"
       pattern="m 95.054236,0.02624778 c -7.77241,0.72284 -15.55638,0.59508 -23.34732,0.93083 -7.79095,0.33575002 -15.58849,-0.16545 -23.38728,0.0109 -7.7988,0.17634002 -15.59884,-0.96978 -23.39479,-0.72517 -7.79596,0.24461 -15.5878095,0.58027 -23.3702295,1.12082002 -2.15230001,-1.15612002 -2.01174001,3.78271 0.0625,2.4375 7.71127,-0.37053 15.4322995,-0.53042 23.1566795,-0.61261 7.72438,-0.0822 15.45212,1.213 23.1768,1.15327 7.72469,-0.0597 16.17001,-0.80459 23.88219,-1.10773 7.71218,-0.30315 14.69083,1.13589 22.3777,0.32345 1.40356,-0.22689 4.29984,-1.54077 3.09375,-3.21875002 C 96.643456,-0.08987222 95.800066,-5.9221925e-4 95.054236,0.02624778 Z"
       copytype="single_stretched"
       prop_scale="1"
       scale_y_rel="false"
       spacing="0"
       normal_offset="0"
       tang_offset="0"
       prop_units="false"
       vertical_pattern="false"
       fuse_tolerance="0" />
    <inkscape:path-effect
       effect="skeletal"
       id="path-effect1035"
       is_visible="true"
       pattern="m 95.054236,0.02624778 c -7.77241,0.72284 -15.55638,0.59508 -23.34732,0.93083 -7.79095,0.33575002 -15.58849,-0.16545 -23.38728,0.0109 -7.7988,0.17634002 -15.59884,-0.96978 -23.39479,-0.72517 -7.79596,0.24461 -15.5878095,0.58027 -23.3702295,1.12082002 -2.15230001,-1.15612002 -2.01174001,3.78271 0.0625,2.4375 7.71127,-0.37053 15.4322995,-0.53042 23.1566795,-0.61261 7.72438,-0.0822 15.45212,1.213 23.1768,1.15327 7.72469,-0.0597 16.17001,-0.80459 23.88219,-1.10773 7.71218,-0.30315 14.69083,1.13589 22.3777,0.32345 1.40356,-0.22689 4.29984,-1.54077 3.09375,-3.21875002 C 96.643456,-0.08987222 95.800066,-5.9221925e-4 95.054236,0.02624778 Z"
       copytype="single_stretched"
       prop_scale="1"
       scale_y_rel="false"
       spacing="0"
       normal_offset="0"
       tang_offset="0"
       prop_units="false"
       vertical_pattern="false"
       fuse_tolerance="0" />
    <inkscape:path-effect
       effect="skeletal"
       id="path-effect1019"
       is_visible="true"
       pattern="m 95.054236,0.02624778 c -7.77241,0.72284 -15.55638,0.59508 -23.34732,0.93083 -7.79095,0.33575002 -15.58849,-0.16545 -23.38728,0.0109 -7.7988,0.17634002 -15.59884,-0.96978 -23.39479,-0.72517 -7.79596,0.24461 -15.5878095,0.58027 -23.3702295,1.12082002 -2.15230001,-1.15612002 -2.01174001,3.78271 0.0625,2.4375 7.71127,-0.37053 15.4322995,-0.53042 23.1566795,-0.61261 7.72438,-0.0822 15.45212,1.213 23.1768,1.15327 7.72469,-0.0597 16.17001,-0.80459 23.88219,-1.10773 7.71218,-0.30315 14.69083,1.13589 22.3777,0.32345 1.40356,-0.22689 4.29984,-1.54077 3.09375,-3.21875002 C 96.643456,-0.08987222 95.800066,-5.9221925e-4 95.054236,0.02624778 Z"
       copytype="single_stretched"
       prop_scale="1"
       scale_y_rel="false"
       spacing="0"
       normal_offset="0"
       tang_offset="0"
       prop_units="false"
       vertical_pattern="false"
       fuse_tolerance="0" />
    <inkscape:path-effect
       effect="skeletal"
       id="path-effect992"
       is_visible="true"
       pattern="m 95.054236,0.02624778 c -7.77241,0.72284 -15.55638,0.59508 -23.34732,0.93083 -7.79095,0.33575002 -15.58849,-0.16545 -23.38728,0.0109 -7.7988,0.17634002 -15.59884,-0.96978 -23.39479,-0.72517 -7.79596,0.24461 -15.5878095,0.58027 -23.3702295,1.12082002 -2.15230001,-1.15612002 -2.01174001,3.78271 0.0625,2.4375 7.71127,-0.37053 15.4322995,-0.53042 23.1566795,-0.61261 7.72438,-0.0822 15.45212,1.213 23.1768,1.15327 7.72469,-0.0597 16.17001,-0.80459 23.88219,-1.10773 7.71218,-0.30315 14.69083,1.13589 22.3777,0.32345 1.40356,-0.22689 4.29984,-1.54077 3.09375,-3.21875002 C 96.643456,-0.08987222 95.800066,-5.9221925e-4 95.054236,0.02624778 Z"
       copytype="single_stretched"
       prop_scale="1"
       scale_y_rel="false"
       spacing="0"
       normal_offset="0"
       tang_offset="0"
       prop_units="false"
       vertical_pattern="false"
       fuse_tolerance="0" />
    <inkscape:path-effect
       effect="skeletal"
       id="path-effect1043"
       is_visible="true"
       pattern="m 95.054236,0.02624778 c -7.77241,0.72284 -15.55638,0.59508 -23.34732,0.93083 -7.79095,0.33575002 -15.58849,-0.16545 -23.38728,0.0109 -7.7988,0.17634002 -15.59884,-0.96978 -23.39479,-0.72517 -7.79596,0.24461 -15.5878095,0.58027 -23.3702295,1.12082002 -2.15230001,-1.15612002 -2.01174001,3.78271 0.0625,2.4375 7.71127,-0.37053 15.4322995,-0.53042 23.1566795,-0.61261 7.72438,-0.0822 15.45212,1.213 23.1768,1.15327 7.72469,-0.0597 16.17001,-0.80459 23.88219,-1.10773 7.71218,-0.30315 14.69083,1.13589 22.3777,0.32345 1.40356,-0.22689 4.29984,-1.54077 3.09375,-3.21875002 C 96.643456,-0.08987222 95.800066,-5.9221925e-4 95.054236,0.02624778 Z"
       copytype="single_stretched"
       prop_scale="1"
       scale_y_rel="false"
       spacing="0"
       normal_offset="0"
       tang_offset="0"
       prop_units="false"
       vertical_pattern="false"
       fuse_tolerance="0" />
    <inkscape:path-effect
       effect="skeletal"
       id="path-effect1027"
       is_visible="true"
       pattern="m 95.054236,0.02624778 c -7.77241,0.72284 -15.55638,0.59508 -23.34732,0.93083 -7.79095,0.33575002 -15.58849,-0.16545 -23.38728,0.0109 -7.7988,0.17634002 -15.59884,-0.96978 -23.39479,-0.72517 -7.79596,0.24461 -15.5878095,0.58027 -23.3702295,1.12082002 -2.15230001,-1.15612002 -2.01174001,3.78271 0.0625,2.4375 7.71127,-0.37053 15.4322995,-0.53042 23.1566795,-0.61261 7.72438,-0.0822 15.45212,1.213 23.1768,1.15327 7.72469,-0.0597 16.17001,-0.80459 23.88219,-1.10773 7.71218,-0.30315 14.69083,1.13589 22.3777,0.32345 1.40356,-0.22689 4.29984,-1.54077 3.09375,-3.21875002 C 96.643456,-0.08987222 95.800066,-5.9221925e-4 95.054236,0.02624778 Z"
       copytype="single_stretched"
       prop_scale="1"
       scale_y_rel="false"
       spacing="0"
       normal_offset="0"
       tang_offset="0"
       prop_units="false"
       vertical_pattern="false"
       fuse_tolerance="0" />
  </defs>
  <sodipodi:namedview
     id="base"
     pagecolor="#ffffff"
     bordercolor="#666666"
     borderopacity="1.0"
     inkscape:pageopacity="0.0"
     inkscape:pageshadow="2"
     inkscape:zoom="0.75609756"
     inkscape:cx="491.1933"
     inkscape:cy="222.30018"
     inkscape:document-units="px"
     inkscape:current-layer="layer1"
     showgrid="false"
     fit-margin-top="0"
     fit-margin-left="0"
     fit-margin-right="0"
     fit-margin-bottom="0" />
  <metadata
     id="metadata1234">
    <rdf:RDF>
      <cc:Work
         rdf:about="">
        <dc:format>image/svg+xml</dc:format>
        <dc:type
           rdf:resource="http://purl.org/dc/dcmitype/StillImage" />
        <dc:title>Winter School -- Contact Topology</dc:title>
        <dc:date>2013</dc:date>
        <dc:creator>
          <cc:Agent>
            <dc:title>Marek Kaluba</dc:title>
          </cc:Agent>
        </dc:creator>
        <dc:rights>
          <cc:Agent>
            <dc:title>Marek Kaluba</dc:title>
          </cc:Agent>
        </dc:rights>
      </cc:Work>
    </rdf:RDF>
  </metadata>
  <g
     inkscape:label="Layer 1"
     inkscape:groupmode="layer"
     id="layer1"
     transform="translate(-22.887222,-49.76189)">
    <g
       transform="translate(-739.46591,328.36782)"
       id="g1515">
      <path
         inkscape:original-d="m 814.35814,31.00849 c 0,-93.02431 88.43665,-163.87448 176.2523,-162.67655 87.81566,1.19793 156.64006,71.53319 159.17616,159.45208 2.5361,87.91889 -66.1931,174.25778 -164.51855,174.25778 C 886.9426,202.0418 814.35814,124.0328 814.35814,31.00849 Z"
         inkscape:path-effect="#path-effect1088"
         sodipodi:nodetypes="zzzzz"
         inkscape:connector-curvature="0"
         id="path53"
         d="m 814.42116,58.543483 c 5.95423,35.1876 22.40032,68.553017 47.38536,93.975037 0,0 10e-6,1e-5 10e-6,1e-5 15.56797,15.83226 34.26628,28.56267 54.71427,37.20231 10e-6,0 10e-6,0 2e-5,0 21.67974,9.15683 45.243,13.65743 68.74722,13.57198 0,-1e-5 10e-6,-1e-5 10e-6,0 3.19849,-0.0114 6.39663,-0.1176 9.58867,-0.31825 20.17528,-1.26816 40.11348,-6.23184 58.41998,-14.80354 20.0768,-9.40414 38.1208,-23.02185 52.9307,-39.52146 0,-1e-5 0,-1e-5 0,-1e-5 14.6831,-16.35766 26.2338,-35.51299 33.9274,-56.115737 7.0497,-18.875153 10.8501,-38.993078 10.9204,-59.145249 0.01,-1.879695 -0.018,-3.759655 -0.075,-5.638984 0,-4e-6 0,-8e-6 0,-1.2e-5 -0.6343,-20.9525728 -5.1873,-41.768061 -13.2601,-61.115123 -8.0728,-19.347061 -19.669,-37.224405 -34.3937,-52.235907 0,-2e-6 -10e-5,-5e-6 -10e-5,-7e-6 -14.3696,-14.642211 -31.5563,-26.548201 -50.3998,-34.756801 0,0 -10e-5,0 -10e-5,0 -18.7137,-8.14911 -39.0086,-12.59705 -59.39931,-13.17398 -0.96333,-0.0273 -1.92687,-0.0461 -2.89045,-0.0564 -22.28529,-0.23551 -44.51232,4.11695 -65.2243,12.15981 -20.81218,8.07876 -40.16303,19.86843 -56.81039,34.687234 -10e-6,3e-6 -10e-6,6e-6 -10e-6,1e-5 -16.54474,14.72457 -30.41727,32.517641 -40.04985,52.430111 0,5e-6 -10e-6,9e-6 -10e-6,1.2e-5 -7.37586,15.251209 -12.15565,31.7410974 -14.01576,48.53253 -0.96514,5.749254 -1.05128,10.054091 -0.84922,12.841985 0.20205,2.787895 0.69141,4.071738 1.15243,3.935602 0.46103,-0.136137 0.89664,-1.6844 1.24617,-4.560023 0.34953,-2.875623 0.61499,-7.076028 0.94945,-12.594107 1.91125,-16.2792429 6.6162,-32.2578 13.79847,-47.037153 0,-3e-6 10e-6,-7e-6 10e-6,-10e-6 9.50723,-19.570004 23.21104,-37.064395 39.53759,-51.543575 0,-1e-6 0,-5e-6 10e-6,-8e-6 16.43353,-14.571581 35.53165,-26.153208 56.04792,-34.071188 20.4172,-7.87781 42.29691,-12.12143 64.17741,-11.84293 0.40772,0.005 0.81543,0.0119 1.22312,0.0201 20.56862,0.41603 41.06732,4.84486 59.88912,13.09166 0,0 0,0 0,1e-5 18.4616,8.08712 35.2967,19.804402 49.3536,34.183467 14.4043,14.727262 25.7414,32.283262 33.6275,51.271564 7.8861,18.988302 12.325,39.4075551 12.9267,59.930102 0,5e-6 0,9e-6 0,1.2e-5 0.016,0.534546 0.029,1.069157 0.039,1.603813 0.4054,20.639833 -3.1691,41.858267 -10.5645,61.949398 -7.4042,20.110064 -18.6275,39.104764 -33.0097,55.347204 0,0 0,1e-5 0,1e-5 -14.5114,16.38748 -32.2789,29.93394 -51.8399,39.21288 -18.6551,8.85335 -38.8941,13.73278 -58.86342,14.81486 -2.70913,0.1468 -5.41371,0.22286 -8.11043,0.22926 -23.69101,0.0546 -46.78317,-4.66058 -67.72526,-13.68831 -20.16276,-8.68922 -38.33832,-21.32835 -53.50419,-36.97957 -10.92361,-11.26763 -20.20244,-24.12957 -27.68825,-38.17497 -7.48581,-14.045408 -13.18283,-29.27964 -16.78443,-45.320142 -0.84036,-3.653064 -1.81978,-8.300226 -2.64439,-13.048908 -0.82461,-4.748683 -1.49172,-9.596737 -1.99291,-13.597779 -0.50119,-4.001043 -0.85505,-7.153949 -1.22326,-8.490977 -0.1841,-0.668514 -0.37293,-0.882818 -0.5695,-0.519442 -0.19656,0.363376 -0.40249,1.304545 -0.58207,2.948672 -0.14826,3.598573 -0.0365,7.7017 0.30308,11.90261 C 813.19641,50.236134 813.76409,54.532964 814.42116,58.543483 Z"
         style="fill:#000000;stroke:none" />
      <path
         inkscape:original-d="m 922.62871,-118.7517 c 92.99649,-11.5258 147.34049,88.86039 157.73009,144.09888 9.9756,53.03674 7.4975,138.42862 -73.5016,175.49642"
         inkscape:path-effect="#path-effect1110"
         sodipodi:nodetypes="csc"
         inkscape:connector-curvature="0"
         id="path55"
         d="m 1018.1258,197.54353 c 14.0552,-8.21513 26.7932,-18.66059 37.0007,-31.31284 11.0764,-13.7498 19.0313,-29.86402 23.8066,-46.79468 0,0 0,-10e-6 0,-10e-6 0.4586,-1.62608 0.8893,-3.25904 1.2926,-4.89807 3.5887,-14.584234 5.2412,-29.603823 5.3711,-44.600557 0.1318,-15.02011 -1.2366,-30.055412 -4.0167,-44.819892 0,-2e-6 0,-4e-6 0,-6e-6 -0.9951,-5.279758 -2.2687,-10.497136 -3.785,-15.641901 -3.2415,-10.9985201 -7.3917,-21.731379 -12.1601,-32.14647 0,-1e-6 0,-3e-6 0,-4e-6 -8.2573,-18.051652 -18.6368,-35.276207 -31.6813,-50.35382 -2.6904,-3.112295 -5.5021,-6.131755 -8.4337,-9.032283 -11.637,-11.513687 -24.9694,-21.346047 -39.82378,-28.187487 -1e-5,0 -1e-5,0 -1e-5,0 -9.47971,-4.36084 -19.53721,-7.45095 -29.82126,-9.0485 -8.71304,-1.35195 -17.56123,-1.62675 -26.31154,-0.92502 -2.45969,-0.13022 -4.24888,0.14766 -5.37892,0.55327 -1.13004,0.4056 -1.60581,0.93976 -1.49249,1.39027 0.11332,0.45051 0.8121,0.8185 2.04032,0.94366 1.22822,0.12516 2.98278,0.008 5.26659,-0.47197 8.48308,-0.62176 17.04238,-0.30657 25.4507,1.03943 10.03367,1.604 19.84569,4.67091 29.08812,8.9734 0,0 10e-6,0 10e-6,0 14.28963,6.64575 27.14246,16.177333 38.41216,27.336563 3.0405,3.010716 5.9519,6.153853 8.7329,9.398528 12.7704,14.906005 22.909,31.938371 30.9929,49.778171 0,2e-6 0,3e-6 0,5e-6 4.4381,9.806831 8.3251,19.8598714 11.4152,30.1113908 1.6551,5.4906642 3.0895,11.1316002 4.2156,16.8984872 2.8036,14.338398 4.463,29.288696 4.5699,44.188049 0.053,7.626236 -0.2993,15.243268 -1.1184,22.719308 -0.819,7.476038 -2.1051,14.810478 -3.878,21.878698 -0.3604,1.43686 -0.743,2.86215 -1.1478,4.2758 0,0 0,0 0,0 -2.452,8.56427 -5.7409,16.69004 -9.7576,24.2945 -4.0168,7.60446 -8.7595,14.69124 -14.2153,21.20869 -4.5917,5.49328 -9.6824,10.5571 -15.2097,15.25348 -5.5273,4.69639 -11.4924,9.02653 -17.8732,13.02137 -1.321,0.85021 -2.9842,1.9466 -4.6737,3.06707 -1.6896,1.12047 -3.4057,2.26486 -4.796,3.26199 -1.3904,0.99713 -2.4536,1.8506 -2.8123,2.41478 -0.3586,0.56417 -0.01,0.84692 1.4168,0.64251 C 1011.7293,201.06701 1015.1504,199.2333 1018.1258,197.54353 Z"
         style="fill:#000000;stroke:none" />
      <path
         inkscape:original-d="M 1079.7244,-104.76104 C 966.98568,-150.62695 882.26598,-26.309343 879.33101,57.340395 876.58294,135.66319 892.43003,171.75571 933.50274,193.7111"
         inkscape:path-effect="#path-effect1118"
         style="fill:#000000;stroke:none"
         d="m 924.52388,185.83049 c -5.76566,-3.7054 -11.14219,-7.98682 -15.87672,-12.91646 0,0 0,0 0,0 -7.38328,-7.66805 -13.14008,-16.91127 -17.23622,-26.82979 0,0 0,-1e-5 0,-1e-5 -4.92415,-11.91469 -7.60921,-24.7249 -9.22198,-37.63789 0,-1e-5 0,-1e-5 0,-1e-5 -0.66479,-5.33466 -1.1482,-10.692219 -1.49101,-16.065284 -0.74165,-11.624216 -0.69064,-23.324576 -0.26746,-35.002074 0.82806,-22.974898 7.4032,-45.509229 16.71336,-66.608735 0,-1.5e-6 0,-3.2e-6 0,-5e-6 0.6275,-1.420397 1.26859,-2.835178 1.92315,-4.244007 4.97901,-10.716409 10.92917,-20.993435 17.72628,-30.638579 6.79711,-9.645143 14.43907,-18.658566 22.82872,-26.901429 0,-10e-7 0,-3e-6 0,-4e-6 8.83112,-8.676807 18.50148,-16.468568 28.94487,-23.02596 0,-10e-7 10e-6,-2e-6 10e-6,-3e-6 0.16699,-0.104853 0.33419,-0.20939 0.5016,-0.313609 10.15445,-6.321791 21.1298,-11.351831 32.63042,-14.600131 0,0 0,0 0,0 12.0084,-3.39454 24.5906,-4.81839 37.0871,-4.17671 11.4938,0.58734 22.8947,2.90885 33.8726,6.5621 2.2667,1.09851 4.0018,1.67181 5.2171,1.84947 1.2153,0.17765 1.9075,-0.0405 2.0261,-0.48993 0.1186,-0.44947 -0.3395,-1.13129 -1.4407,-1.8368 -1.1012,-0.70551 -2.8493,-1.43557 -5.2771,-1.92235 -11.0631,-3.71565 -22.5798,-6.10116 -34.2343,-6.75883 -12.7816,-0.71799 -25.6629,0.67446 -37.9828,4.09292 0,0 0,0 0,0 -11.56456,3.21065 -22.60381,8.16283 -32.83156,14.398747 -0.37439,0.228264 -0.74778,0.458087 -1.12017,0.689452 0,1e-6 0,2e-6 -10e-6,3e-6 -10.69308,6.643447 -20.58826,14.534613 -29.60858,23.326311 0,10e-7 0,2e-6 0,4e-6 -8.35837,8.146647 -15.99143,17.03794 -22.80297,26.545024 -6.81153,9.507083 -12.79961,19.630102 -17.84308,30.189844 -0.92501,1.936716 -1.82541,3.897653 -2.69981,5.880486 -4.6035,10.41748465 -8.54523,21.513575 -11.37454,32.949755 -2.82931,11.436181 -4.53878,23.207696 -4.80951,34.943361 -0.27547,12.131053 -0.17553,24.170943 0.58129,35.805076 0.34378,5.284633 0.79201,10.487967 1.38078,15.629457 0,1e-5 0,1e-5 0,1e-5 1.51874,13.28691 4.0117,26.23284 8.8046,38.48395 4.00142,10.22021 9.74591,19.87099 17.50028,28.05472 3.93789,4.14695 8.34728,7.88175 13.13384,11.2085 1.37714,0.93324 3.17713,2.032 5.05948,3.03493 1.88234,1.00292 3.84513,1.90999 5.50825,2.5414 1.66312,0.63142 3.0234,0.99204 3.70245,0.9454 0.67904,-0.0466 0.6726,-0.49229 -0.34377,-1.52878 C 930.74057,189.62301 927.37732,187.71488 924.52388,185.83049 Z"
         id="path57"
         inkscape:connector-curvature="0"
         sodipodi:nodetypes="csc" />
      <path
         inkscape:original-d="m 816.45282,29.69414 c 2.00555,46.00846 111.28925,60.89973 170.02405,61.32135 58.73483,0.42162 148.12413,-13.6323 163.54243,-57.94213"
         inkscape:path-effect="#path-effect1096"
         sodipodi:nodetypes="czc"
         inkscape:connector-curvature="0"
         id="path59"
         d="m 1143.9849,40.669147 c -1.3108,2.220824 -2.8255,4.341505 -4.4942,6.338407 0,1e-6 0,2e-6 0,3e-6 -4.0128,4.800768 -8.9136,8.903763 -14.1938,12.467094 0,0 -10e-5,10e-7 -10e-5,2e-6 -12.383,8.357464 -26.6574,13.781777 -41.1774,18.035789 0,10e-7 0,10e-7 0,2e-6 -5.1963,1.519513 -10.4415,2.87599 -15.7234,4.098382 -11.1447,2.579259 -22.4896,4.372018 -33.8828,5.656774 -15.9405,1.7962 -31.9886,2.588156 -48.02747,2.516693 0,0 -10e-6,0 -10e-6,0 -2.28619,-0.01014 -4.57241,-0.03601 -6.85862,-0.07634 -14.72656,-0.259774 -29.42865,-1.608021 -44.02867,-3.553091 -14.94034,-1.992271 -29.77507,-4.602819 -44.4202,-7.909444 -3.51616,-0.79389 -7.01814,-1.646855 -10.50361,-2.564547 0,0 -10e-6,-10e-7 -10e-6,-2e-6 -15.5933,-4.124457 -31.06856,-9.240025 -44.33911,-18.113881 0,-1e-6 0,-2e-6 -10e-6,-3e-6 -5.19293,-3.476452 -10.01444,-7.562481 -13.58614,-12.608116 0,-10e-7 0,-2e-6 0,-3e-6 -2.0604,-2.906074 -3.66045,-6.164917 -4.62367,-9.597333 -0.22578,-2.01023 -0.48634,-3.414237 -0.85442,-4.341249 -0.36807,-0.927012 -0.84083,-1.369218 -1.29922,-1.299623 -0.45838,0.0696 -0.90076,0.66666 -1.0394,1.786997 -0.13864,1.120337 0.0365,2.77688 0.90269,4.710605 1.02281,3.64004 2.69339,7.08161 4.8497,10.154335 0,10e-7 0,2e-6 0,3e-6 3.79765,5.399806 8.81591,9.736486 14.17144,13.344579 0,0 0,1e-6 0,2e-6 13.62723,9.191463 29.3579,14.531763 45.05888,18.746287 0,0 0,10e-7 0,10e-7 3.32846,0.895714 6.67102,1.732801 10.02559,2.515985 14.9465,3.489516 30.0728,6.252448 45.2847,8.353666 14.21185,1.964879 28.53595,3.354563 42.90112,3.711695 2.75513,0.0685 5.5351,0.10539 8.33478,0.10917 15.82906,0.0208 32.26086,-1.137358 48.35646,-3.248427 11.8021,-1.546575 23.4489,-3.601146 34.539,-6.175467 5.2447,-1.217454 10.3762,-2.505631 15.421,-3.903903 0,-1e-6 0,-2e-6 0,-2e-6 7.4661,-2.066229 14.7891,-4.360579 21.8815,-7.186012 7.0925,-2.825433 13.9606,-6.180575 20.4547,-10.400583 5.4595,-3.548153 10.6422,-7.775127 14.9908,-12.949003 1.0678,-1.270185 2.0797,-2.60048 3.0226,-3.987316 0.762,-1.155589 1.6294,-2.685115 2.3556,-4.301075 0.7263,-1.615959 1.3074,-3.31546 1.6297,-4.751016 0.3224,-1.435555 0.3941,-2.600851 0.2083,-3.162138 -0.1858,-0.561287 -0.6089,-0.512173 -1.3907,0.371114 -0.6274,1.054695 -1.2434,2.273711 -1.8949,3.521676 C 1145.3841,38.227804 1144.6969,39.50469 1143.9849,40.669147 Z"
         style="fill:#000000;stroke:none" />
      <path
         inkscape:original-d="m 816.45282,29.502888 c 2.00555,-46.00846 111.28925,-60.89973 170.02405,-61.32135 58.73483,-0.42162 148.12413,13.6323 163.54243,57.94213"
         inkscape:path-effect="#path-effect1126"
         style="opacity:0.27999998;fill:#000000;stroke:none"
         d="m 1147.6261,16.255426 c -1.5481,-2.360017 -3.2864,-4.582881 -5.168,-6.6550873 0,-10e-7 0,-2e-6 0,-2.9e-6 -4.5079,-4.9649367 -9.7592,-9.12413563 -15.3134,-12.6872875 0,-5e-7 0,-1.5e-6 0,-2.5e-6 -12.9952,-8.3354558 -27.5506,-13.7711268 -42.2805,-17.8430108 0,0 0,0 0,-1e-6 -5.2747,-1.461004 -10.5942,-2.741433 -15.9472,-3.854401 -11.2949,-2.348374 -22.7015,-4.140492 -34.1483,-5.494951 -16.0162,-1.89646 -32.1573,-2.931893 -48.30068,-2.772341 0,0 0,0 0,0 -2.29979,0.02278 -4.59913,0.06799 -6.89764,0.135685 -14.80576,0.436083 -29.60042,1.317208 -44.34101,2.813673 -15.08428,1.529496 -30.16372,3.711293 -44.93156,7.300726 -3.54562,0.861791 -7.07653,1.785752 -10.58967,2.777719 -10e-6,10e-7 -10e-6,10e-7 -10e-6,2e-6 -15.68426,4.410016 -31.41422,10.0494328 -44.83245,19.53361518 0,1.07e-6 0,2.14e-6 0,3.21e-6 -5.27331,3.72280521 -10.17153,8.17108831 -13.77441,13.60171261 0,2e-6 0,3e-6 0,4e-6 -2.08893,3.152754 -3.65453,6.659989 -4.53722,10.319546 -0.81116,1.973685 -0.9175,3.578593 -0.73608,4.61017 0.18143,1.031577 0.6433,1.5068 1.10593,1.479219 0.46263,-0.02758 0.92788,-0.54231 1.28207,-1.486205 0.35419,-0.943895 0.59666,-2.310835 0.76075,-4.208738 0.83894,-3.283586 2.28606,-6.445898 4.18887,-9.30026 0,-1e-6 0,-2e-6 0,-3e-6 3.37687,-5.0763737 8.07836,-9.2740484 13.18911,-12.8652516 0,-5e-7 0,-1.5e-6 0,-2.5e-6 13.0618,-9.1667395 28.53689,-14.5814729 44.1127,-18.9012119 0,0 0,0 0,-1e-6 3.29798,-0.912392 6.61253,-1.764403 9.94115,-2.561064 14.83083,-3.549571 29.99974,-5.656465 45.19361,-7.121721 14.19509,-1.36714 28.42192,-2.172903 42.64115,-2.583771 2.72714,-0.0788 5.47824,-0.137942 8.2489,-0.174148 15.64949,-0.205162 31.93869,0.439155 47.97159,2.040607 11.7567,1.175685 23.3759,2.855489 34.4341,5.183919 5.2297,1.101163 10.3248,2.385144 15.3077,3.841219 0,1e-6 0,1e-6 0,2e-6 7.378,2.159084 14.542,4.668875 21.4167,7.66403 6.8747,2.9951539 13.4608,6.4693536 19.7051,10.62817428 5.2375,3.48797192 10.2083,7.45767072 14.5164,12.20538872 1.0548,1.162548 2.0692,2.37438 3.033,3.635286 0.8111,1.028728 1.8342,2.337838 2.8368,3.705558 1.0026,1.367719 1.9819,2.7954 2.8134,3.983312 0.8316,1.187912 1.5239,2.133799 2.0271,2.466945 0.5032,0.333145 0.8391,0.04516 0.8029,-1.231357 -0.269,-1.311888 -0.7906,-2.740136 -1.456,-4.143693 C 1149.2357,18.893872 1148.4276,17.516089 1147.6261,16.255426 Z"
         id="path61"
         inkscape:connector-curvature="0"
         sodipodi:nodetypes="czc" />
      <path
         inkscape:original-d="m 1446.3678,3.8263763 c 0,-17.8932003 12.3177,-50.1264963 43.4339,-61.6226433 12.3151,-4.549939 23.8265,-5.268195 28.569,-5.203501 4.7425,0.06469 25.7551,4.294933 36.0142,11.246075 17.3239,11.737986 28.453,32.819742 29.374,54.2554844 0.9211,21.4357426 -11.7639,52.7497296 -41.3579,65.6991396 -8.9413,3.912454 -16.5187,5.286882 -26.2248,5.884475 -9.7062,0.597593 -27.3204,-3.476507 -39.25,-11.860201 C 1452.6959,45.197147 1446.3678,21.719577 1446.3678,3.8263763 Z"
         inkscape:path-effect="#path-effect1075"
         style="fill:#000000;stroke:none"
         d="m 1445.0761,15.297304 c 1.1155,6.494993 3.0476,12.836229 5.8241,18.800965 0,10e-7 0,2e-6 0,4e-6 5.5487,11.878375 14.4848,21.941708 25.1626,29.355559 0,1e-6 0,2e-6 0,3e-6 6.363,4.412639 13.5774,7.389278 20.9486,9.402683 6.19,1.711359 12.6939,2.924289 19.2417,2.477425 1.308,-0.09128 2.616,-0.207887 3.9215,-0.352005 7.7726,-0.857983 15.4683,-2.623995 22.6666,-5.775002 13.8213,-6.073888 25.3524,-16.921851 32.7364,-30.085765 0,-3e-6 0,-4e-6 0,-5e-6 5.8814,-10.456911 9.545,-22.396221 9.4351,-34.45154 -0.01,-0.7394105 -0.027,-1.479195 -0.06,-2.2191126 -0.5084,-10.9079434 -3.4572,-21.6713424 -8.5247,-31.3607454 0,-1e-6 0,-3e-6 0,-4e-6 -4.9864,-9.547107 -12.1043,-18.099111 -21.0444,-24.316783 -3.0206,-2.086699 -6.3076,-3.642345 -9.5944,-4.96253 0,0 0,-10e-7 0,-2e-6 -3.5902,-1.449567 -7.2654,-2.640177 -10.9677,-3.656304 0,-10e-7 0,-10e-7 0,-10e-7 -3.2628,-0.89673 -6.5686,-1.666699 -9.9114,-2.270844 -1.7266,-0.320232 -3.553,-0.658625 -5.4813,-0.769107 -0.3407,-0.01952 -0.6845,-0.03203 -1.0315,-0.03618 -10.006,-0.06169 -19.9245,2.020947 -29.1804,5.541775 -7.4839,2.840261 -14.3984,7.097686 -20.298,12.455942 0,2e-6 0,3e-6 0,4e-6 -5.3871,4.895542 -9.928,10.660008 -13.5416,16.923058 0,10e-7 0,3e-6 0,5e-6 -3.2656,5.657145 -5.8015,11.724012 -7.5061,18.00644 -0.7917,2.910241 -1.4192,5.8804864 -1.7994,8.8803484 -0.6259,2.34270119 -0.6363,4.1473017 -0.3992,5.3074398 0.2371,1.1601381 0.716,1.6846674 1.177,1.6293653 0.461,-0.055302 0.9057,-0.6786701 1.2095,-1.8188633 0.3038,-1.1401932 0.4705,-2.79370518 0.464,-5.037901 0.3808,-2.7765465 0.9847,-5.5437983 1.7355,-8.2752012 1.6746,-6.065533 4.1545,-11.921388 7.3354,-17.374866 0,-1e-6 0,-3e-6 0,-4e-6 3.5197,-6.030999 7.918,-11.565421 13.1083,-16.234315 0,-1e-6 0,-2e-6 0,-4e-6 5.6751,-5.107514 12.32,-9.15597 19.4846,-11.836049 9.0028,-3.362722 18.5878,-5.337591 28.1703,-5.227772 0.085,6.87e-4 0.1703,0.0021 0.2555,0.0042 1.8776,0.04568 3.7948,0.424155 5.76,0.784674 3.2487,0.6041 6.4694,1.372486 9.6569,2.265948 0,0 0,1e-6 0,1e-6 3.6154,1.01417 7.1783,2.187731 10.6293,3.604228 0,0 0,10e-7 0,2e-6 3.1722,1.306423 6.2519,2.772106 8.9682,4.68891 8.4529,5.930611 15.189,14.135022 19.9229,23.271723 0,2e-6 0,3e-6 0,5e-6 4.8013,9.285236 7.5834,19.5791716 8.0406,29.9579125 0.01,0.1755585 0.015,0.3511377 0.022,0.5267339 0.2123,5.7935298 -0.501,11.7059116 -2.0118,17.5288816 -1.5107,5.822969 -3.8178,11.554931 -6.7358,16.959111 -3.4422,6.34701 -7.9037,12.223124 -13.1553,17.241272 -5.2516,5.018149 -11.2916,9.174492 -17.8393,12.135903 -7.1397,3.244766 -14.8319,4.985833 -22.4703,5.780984 -1.097,0.114195 -2.1931,0.20748 -3.2871,0.281668 -6.2486,0.431993 -12.4693,-0.84556 -18.4373,-2.561642 -7.2097,-2.092633 -14.0759,-5.089554 -19.9707,-9.369964 -5.0425,-3.655721 -9.6389,-7.910048 -13.6391,-12.669629 -4.0003,-4.75958 -7.4072,-10.023998 -10.0317,-15.76165 -2.0766,-4.524598 -3.6868,-9.319919 -4.8297,-14.320372 -0.3575,-1.476192 -0.8076,-3.350587 -1.2326,-5.270679 -0.4249,-1.920092 -0.8241,-3.8854959 -1.1893,-5.5139209 -0.3652,-1.628425 -0.7032,-2.9197737 -1.0679,-3.4693109 -0.3647,-0.5495373 -0.7719,-0.3582092 -1.1689,1.0107554 -0.1898,1.4959252 -0.2002,3.2076604 -0.087,4.9594904 C 1444.5724,11.834438 1444.8105,13.625165 1445.0761,15.297304 Z"
         id="path102"
         inkscape:connector-curvature="0"
         sodipodi:nodetypes="zszszszsz" />
      <path
         inkscape:original-d="m 1490.4444,-57.693838 c 38.2022,-4.7347 69.9572,46.493336 70.188,80.860121 0.1488,22.168575 -3.4783,33.371685 -19.3443,45.774109"
         inkscape:path-effect="#path-effect1051"
         style="fill:#000000;stroke:none"
         d="m 1546.1305,67.721546 c 5.1119,-5.006366 9.6214,-10.713395 12.2544,-17.433759 2.4797,-6.478657 3.3045,-13.318553 3.3866,-20.111278 0.028,-2.351484 0.01,-4.695441 -0.031,-7.017669 -0.069,-4.83684 -0.6231,-9.635495 -1.5882,-14.3611324 -0.9652,-4.7256377 -2.3426,-9.37569681 -4.0506,-13.8683369 0,-6e-7 0,-1.3e-6 0,-2e-6 -0.637,-1.6799323 -1.323,-3.3417275 -2.0598,-4.9804837 -3.5953,-7.996503 -7.6759,-15.819084 -12.8588,-22.960755 -2.9449,-4.067482 -6.2744,-7.926003 -10.0613,-11.280963 -3.9236,-3.476041 -8.2048,-6.54072 -12.8414,-9.000809 -7.7314,-4.104218 -16.5864,-6.220907 -25.1824,-5.441431 -0.969,-0.238692 -1.6751,-0.0785 -2.0995,0.247153 -0.4245,0.325655 -0.5722,0.816803 -0.4938,1.271622 0.078,0.45482 0.3779,0.874017 0.8536,1.080598 0.4757,0.206581 1.1237,0.20077 1.97,-0.177554 8.0362,-0.636493 16.3479,1.487495 23.6061,5.425165 4.3242,2.346678 8.3229,5.270946 12.0018,8.58931 3.6773,3.317047 6.9039,7.15503 9.7667,11.201035 4.816,6.819266 8.6106,14.248564 11.9908,21.8130257 0.7865,1.7600936 1.5491,3.5601733 2.278,5.3946292 1.6904,4.27308295 3.2198,8.732242 4.3569,13.2810453 1.137,4.5488038 1.8772,9.1879388 2.0477,13.7837558 0.084,2.405116 0.1344,4.79474 0.098,7.13702 -0.1047,6.79701 -1.2642,13.159721 -3.8306,18.87123 -1.2164,2.763026 -2.8011,5.314445 -4.6329,7.762655 -1.8317,2.44821 -3.9127,4.79593 -6.1582,7.147024 -0.8055,0.900403 -1.9472,2.404174 -2.6,3.66756 -0.6528,1.263387 -0.8005,2.31662 0.5673,2.308912 C 1544.0148,69.67563 1545.1371,68.63464 1546.1305,67.721546 Z"
         id="path104"
         inkscape:connector-curvature="0"
         sodipodi:nodetypes="csc" />
      <path
         inkscape:original-d="m 1554.978,-51.646404 c -44.7893,-15.544465 -82.2601,41.936345 -86.5874,74.351062 -2.597,19.452951 3.1898,32.765522 9.4441,40.37944"
         inkscape:path-effect="#path-effect1059"
         sodipodi:nodetypes="csc"
         inkscape:connector-curvature="0"
         id="path106"
         d="m 1477.0171,58.364811 c -3.5364,-4.817665 -5.7445,-10.629544 -6.8679,-16.740315 -1.1234,-6.11077 -1.1761,-12.526726 -0.4954,-18.751199 0.095,-0.85751 0.2072,-1.713245 0.3344,-2.567297 0.6355,-4.268839 1.7853,-8.467471 3.2675,-12.5618344 1.4823,-4.0943637 3.2968,-8.08639618 5.2691,-11.9822752 2.1678,-4.2710086 4.5629,-8.4248914 7.1355,-12.4634754 3.408,-5.350102 7.4932,-10.247254 11.979,-14.692226 5.073,-5.014174 10.6598,-9.4751 16.5774,-13.23227 3.0313,-1.92464 6.2115,-3.588512 9.5452,-4.920842 0,0 0,0 0,0 4.7276,-1.897355 9.7496,-3.103341 14.8495,-3.402092 4.515,-0.268525 9.0949,0.181711 13.5508,1.260508 0.8112,0.532038 1.4738,0.651237 1.9825,0.525809 0.5087,-0.125428 0.8597,-0.49612 0.9896,-0.939015 0.13,-0.442896 0.035,-0.959193 -0.3504,-1.355981 -0.386,-0.396789 -1.0671,-0.674673 -2.0615,-0.606393 -4.6332,-1.178745 -9.421,-1.709759 -14.1834,-1.496814 -5.418,0.246866 -10.748,1.443331 -15.7646,3.384133 0,1e-6 0,1e-6 0,1e-6 -3.4413,1.334816 -6.7262,2.990261 -9.8561,4.900744 -6.3354,3.867177 -12.282,8.47684 -17.6174,13.681668 -4.5137,4.391877 -8.6349,9.222341 -12.1006,14.493269 -2.7569,4.192826 -5.2578,8.752479 -7.4426,13.4882403 -1.9089,4.1210811 -3.6156,8.4075324 -4.9903,12.7382443 -1.3746,4.3307124 -2.4144,8.7038344 -3.0573,13.0087114 -0.1216,0.814401 -0.2339,1.625644 -0.336,2.434847 -0.8054,6.313625 -1.0964,12.588089 -0.3325,18.761486 0.382,3.086699 1.0341,6.144206 2.045,9.114771 1.0109,2.970566 2.3816,5.856001 4.1974,8.535852 0.7388,1.021332 2.1275,2.415727 3.3712,3.123627 0.6218,0.353949 1.199,0.5434 1.6148,0.478754 0.4158,-0.06464 0.6665,-0.380816 0.6782,-1.032503 C 1478.5911,60.42879 1477.7073,59.376123 1477.0171,58.364811 Z"
         style="fill:#000000;stroke:none" />
      <path
         inkscape:original-d="m 1446.8283,3.2864525 c 0.8238,18.8998845 45.7167,25.0170925 69.8444,25.1902895 24.1278,0.173199 60.8482,-5.600032 67.1819,-23.8021346"
         inkscape:path-effect="#path-effect1067"
         style="fill:#000000;stroke:none"
         d="m 1580.3288,7.1095208 c -1.5868,2.9321462 -4.238,5.4954642 -7.1744,7.5828722 -4.9065,3.43966 -10.6875,5.664576 -16.5904,7.465744 0,0 0,0 0,0 -2.1146,0.64248 -4.2467,1.230342 -6.3928,1.775207 -5.432,1.37911 -11.0078,2.210403 -16.6142,2.693006 -5.6065,0.482602 -11.2457,0.618266 -16.8754,0.617194 -0.9352,-4.38e-4 -1.8705,-0.0054 -2.8061,-0.01387 -6.0261,-0.05477 -12.0384,-0.746236 -17.9945,-1.677412 -6.095,-0.954746 -12.1169,-2.153452 -18.0968,-3.428471 -1.4357,-0.306118 -2.8658,-0.635591 -4.2894,-0.990687 0,0 0,-1e-6 0,-1e-6 -6.3788,-1.610165 -12.6609,-3.557267 -18.0688,-7.022769 0,0 0,-1e-6 0,-1e-6 -2.1096,-1.355519 -4.0676,-2.927303 -5.5256,-4.8865877 0,-7e-7 0,-10e-7 0,-1.4e-6 -0.838,-1.1211171 -1.5054,-2.3866449 -1.9248,-3.7297351 0.08,-0.8365512 -0.073,-1.3541187 -0.3859,-1.7041228 -0.3131,-0.3500042 -0.7826,-0.5219328 -1.2423,-0.4809677 -0.4596,0.040965 -0.9087,0.3104894 -1.1109,0.8226939 -0.2021,0.5122046 -0.15,1.2780166 0.4127,2.0829289 0.4743,1.6003115 1.2264,3.096351 2.1869,4.4229319 0,10e-7 0,10e-7 0,2e-6 1.684,2.31348 3.8387,4.135904 6.1109,5.623053 0,0 0,0 0,10e-7 5.7645,3.78306 12.3018,5.95488 18.7885,7.655174 0,0 0,0 0,0 1.3763,0.363036 2.7576,0.702506 4.1433,1.020259 6.174,1.415774 12.3752,2.744038 18.6294,3.794559 5.8431,0.98325 11.7559,1.726144 17.7,1.857021 1.14,0.0251 2.2905,0.0337 3.4492,0.0257 5.6684,-0.0365 11.5423,-0.458671 17.3319,-1.235216 5.7897,-0.776544 11.491,-1.90898 16.8755,-3.26852 2.1546,-0.544015 4.2695,-1.081012 6.3578,-1.637618 3.093,-0.821434 6.1481,-1.700462 9.1257,-2.811125 2.9777,-1.110663 5.8822,-2.453852 8.6235,-4.205423 2.8925,-1.825558 5.6244,-4.256132 7.5406,-7.317219 0.2954,-0.508694 0.6034,-1.1958269 0.8198,-1.9261646 0.2163,-0.7303377 0.339,-1.5019915 0.3223,-2.161019 -0.017,-0.6590276 -0.1698,-1.2016911 -0.4496,-1.4995195 -0.2797,-0.2978284 -0.6779,-0.3478477 -1.2141,-0.100312 C 1581.2733,5.1669416 1580.8588,6.2187715 1580.3288,7.1095208 Z"
         id="path108"
         inkscape:connector-curvature="0"
         sodipodi:nodetypes="czc" />
      <path
         inkscape:original-d="m 1297.5,-172.8125 c 28.537,36.67011 65.257,35.95651 89.4688,21.59375 11.8044,-10.42639 6.9936,-52.20232 -7.5313,-76.96875 -12.5081,-21.32758 -38.2226,-45.82029 -53.0313,-45.59375 -4.1464,0.0634 -6.8736,1.43471 -12.0624,5.59375 C 1276.8598,-238.14224 1284.2089,-189.89165 1297.5,-172.8125 Z"
         inkscape:path-effect="#path-effect1011"
         sodipodi:nodetypes="scssss"
         inkscape:connector-curvature="0"
         id="path937"
         transform="translate(5.6387085,301.66294)"
         d="m 1294.5296,-182.02207 c -1.3874,-2.90821 -2.4923,-6.01211 -3.4101,-9.17065 0,0 0,0 0,0 -2.2542,-7.84773 -3.1043,-16.12926 -2.6351,-24.33901 0,0 0,0 0,0 0.5329,-9.27269 2.8127,-18.47047 6.823,-26.85968 0,0 0,0 0,0 3.6138,-7.5726 8.6642,-14.45236 14.6904,-20.36826 1.6163,-1.58674 3.3084,-3.09864 5.0661,-4.5294 0,0 0,0 0,0 2.0055,-1.62073 3.9829,-3.19584 6.1752,-4.22645 0,0 0,0 0,0 1.5928,-0.76364 3.3825,-1.13694 5.1839,-1.1682 4.1908,-0.10594 8.3224,1.76624 12.2192,3.904 5.1787,2.88362 9.8959,6.59462 14.3575,10.59445 9.2083,8.26949 17.3687,17.73165 23.9403,28.18789 0.501,0.79728 0.9912,1.60148 1.4701,2.4124 3.8243,6.46737 6.613,13.53947 8.7342,20.79 2.1608,7.39897 3.6084,14.99546 4.2825,22.64085 0,0 0,1e-5 0,1e-5 0.5767,6.63084 0.6566,13.28215 -0.4979,19.6722 0,0 0,0 0,0 -0.4576,2.51736 -1.0867,4.9604 -2.0891,7.18488 0,0 0,0 0,1e-5 -0.7745,1.75888 -1.7269,3.37589 -3.0197,4.50097 -1.6126,0.96101 -3.267,1.85331 -4.9567,2.67573 -11.2934,5.49676 -24.2841,7.66404 -36.7542,5.71417 0,0 0,0 0,0 -8.2143,-1.2555 -16.1724,-4.26298 -23.3542,-8.57488 -7.0204,-4.21183 -13.3023,-9.64122 -18.8548,-15.765 -1.1294,-1.73204 -2.1378,-2.83263 -2.9674,-3.42253 -0.8296,-0.5899 -1.4767,-0.6672 -1.8105,-0.34551 -0.3339,0.3217 -0.3523,1.0451 0.1089,2.02893 0.4611,0.98383 1.4051,2.23142 2.9919,3.52829 5.611,6.23347 11.995,11.79226 19.1703,16.16826 7.4224,4.52303 15.6832,7.69943 24.2707,9.07221 0,0 0,0 0,0 12.9158,2.03161 26.3381,-0.0852 38.1311,-5.63447 1.9687,-0.92642 3.8953,-1.94271 5.771,-3.04755 1.7908,-1.58427 3.0829,-3.59394 4.0326,-5.67602 1.1441,-2.53426 1.8614,-5.21468 2.351,-7.89332 0,0 0,0 0,0 1.2432,-6.77868 1.2109,-13.71564 0.6356,-20.51467 0,0 0,0 0,0 -0.6573,-7.86479 -2.1096,-15.67308 -4.2994,-23.2719 0,0 0,0 0,0 -2.14,-7.44585 -5.0079,-14.76551 -8.9752,-21.53185 -0.248,-0.4221 -0.4988,-0.84239 -0.7526,-1.26086 -6.6527,-10.97061 -15.4869,-21.15112 -25.5714,-29.87088 -4.6265,-4.0108 -9.6044,-7.75462 -15.0616,-10.67767 -4.0627,-2.21966 -8.6677,-4.11196 -13.5394,-4.01629 0,0 0,0 0,0 -2.1198,0.059 -4.2312,0.53585 -6.1515,1.46292 -2.504,1.2322 -4.6179,2.92191 -6.6071,4.56743 -1.9432,1.59604 -3.7989,3.27306 -5.5586,5.0178 -6.1985,6.14612 -11.2977,13.04094 -15.0667,20.55364 -4.3514,8.68439 -6.9389,18.11041 -7.6804,27.76926 -0.6493,8.42242 0.064,17.05454 2.447,25.44189 0.6276,2.22856 1.3718,4.46112 2.2688,6.65206 0.5419,1.27154 1.3298,2.84198 2.2662,4.3448 0.9365,1.50283 2.0234,2.93161 3.0403,3.99233 1.0169,1.06073 1.9533,1.75603 2.5246,1.9044 0.5712,0.14838 0.7574,-0.23376 0.4494,-1.3631 -0.5354,-1.09317 -1.205,-2.26963 -1.8756,-3.49899 C 1295.7716,-179.49678 1295.0993,-180.77859 1294.5296,-182.02207 Z"
         style="fill:#000000;stroke:none" />
      <path
         inkscape:original-d="m 1642.2868,-59.429448 c 19.0956,32.183783 50.4536,48.663857 62.4024,38.728543 9.1557,-7.612858 12.6486,-45.813803 -6.3318,-78.065621 -18.9805,-32.251824 -51.6893,-46.867204 -62.4025,-38.728544 C 1623.4138,-127.9677 1627.6361,-84.121665 1642.2868,-59.429448 z m -6.3319,-78.065622 c 25.054,-13.72368 65.8809,-17.13502 92.5457,22.90678 11.9952,18.012918 21.5433,69.941833 -23.8114,93.887385"
         inkscape:path-effect="#path-effect1035"
         id="path943"
         style="fill:#000000;stroke:none"
         d="m 1640.3668,-67.762085 c -2.1055,-4.298073 -3.8269,-8.827797 -5.271,-13.4518 0,-10e-7 0,-2e-6 0,-3e-6 -2.3335,-7.493451 -3.9028,-15.239141 -4.6425,-23.067582 0,0 0,0 0,-1e-5 -0.6323,-6.77965 -0.7378,-13.61155 0.5046,-20.20252 0.4864,-2.5667 1.1623,-5.0721 2.2568,-7.35226 0,0 0,0 0,0 0.8864,-1.82081 1.9997,-3.50954 3.5007,-4.6578 0.7681,-0.63415 1.6542,-1.09283 2.6187,-1.4143 2.4059,-0.8019 5.302,-0.73276 8.054,-0.38505 0,0 0,0 0,0 5.6463,0.79601 11.0527,3.12768 16.1282,5.97825 0,1e-5 0,1e-5 0,1e-5 14.0888,7.93526 25.4823,20.2394 33.7933,34.165277 0,2e-6 0,2e-6 0,3e-6 0.324,0.543414 0.6429,1.08989 0.9567,1.639321 3.9829,6.97263 6.9712,14.512697 8.9688,22.287907 1.9977,7.77521 3.0079,15.784805 3.0732,23.771659 0,2e-6 0,3e-6 0,4e-6 0.043,6.249235 -0.4401,12.473895 -1.9767,18.390214 0,1e-6 0,2e-6 0,3e-6 -0.5737,2.198966 -1.2679,4.322987 -2.2438,6.258592 0,1e-6 0,2e-6 0,4e-6 -0.3571,0.686316 -0.7254,1.34532 -1.1271,1.941798 -0.4437,0.658704 -0.9297,1.240238 -1.4878,1.696654 -1.229,1.06422 -2.8183,1.778642 -4.4991,2.16948 0,-1e-6 0,0 0,0 -1.9462,0.452938 -4.048,0.449045 -6.1584,0.20466 0,-10e-7 0,-10e-7 0,-10e-7 -5.5087,-0.639776 -10.8338,-2.974441 -15.8583,-5.820955 -12.549,-7.145292 -23.0053,-17.786288 -31.2692,-29.885552 -0.7265,-1.643641 -1.48,-2.69559 -2.1585,-3.274352 -0.6786,-0.578762 -1.2801,-0.682302 -1.6551,-0.410761 -0.3749,0.271541 -0.522,0.920514 -0.2675,1.832053 0.2546,0.911538 0.9126,2.088135 2.1495,3.363698 8.323,12.338472 18.9463,23.251793 31.8158,30.726962 5.1641,3.010428 10.8187,5.501805 16.8702,6.289161 0,0 0,0 0,0 2.3397,0.304752 4.7664,0.310934 7.1376,-0.200525 0,0 0,-1e-6 0,-1e-6 2.0806,-0.44915 4.0914,-1.353233 5.7641,-2.743575 0.6468,-0.549746 1.2114,-1.164289 1.7097,-1.816906 0.6599,-0.864238 1.2054,-1.79411 1.6735,-2.728241 1.1178,-2.198367 1.9054,-4.52276 2.5212,-6.856323 0,-1e-6 0,-2e-6 0,-3e-6 1.6582,-6.269213 2.2169,-12.772275 2.1955,-19.212647 0,-1e-6 0,-3e-6 0,-4e-6 -0.019,-8.039463 -0.9703,-16.105429 -2.8984,-23.955455 -1.9282,-7.850026 -4.8364,-15.483414 -8.7332,-22.587682 -0.5133,-0.935834 -1.0447,-1.866512 -1.594,-2.790993 -4.1496,-6.995614 -9.2876,-13.705534 -15.2634,-19.639614 -5.9758,-5.93407 -12.7855,-11.08506 -20.1746,-15.06744 -5.3329,-2.88496 -11.0785,-5.19769 -17.049,-6.01537 -3.1116,-0.47072 -6.5234,-0.44824 -9.512,0.69276 -1.0188,0.38896 -1.99,0.90521 -2.8899,1.57291 -1.8916,1.47473 -3.2403,3.42913 -4.2225,5.45106 -1.2476,2.54339 -2.0281,5.23451 -2.5779,7.90941 -1.4362,6.96176 -1.5205,14.01443 -1.0357,20.93274 0.5509,7.987714 1.9478,15.938325 4.3067,23.774777 1.1454,3.814686 2.5229,7.62242 4.2198,11.350201 0.5071,1.066497 1.221,2.384799 2.031,3.669208 0.81,1.284408 1.7164,2.533158 2.558,3.491904 0.8417,0.958746 1.6144,1.628475 2.1332,1.794325 0.5188,0.165851 0.7758,-0.167331 0.6535,-1.219305 C 1642.7025,-63.224809 1641.3871,-65.582628 1640.3668,-67.762085 z m 70.2951,46.08722 c 7.9121,-5.463717 14.8675,-12.283234 19.8499,-20.468286 4.1356,-6.822271 6.8341,-14.438023 8.0664,-22.264482 0.2799,-1.777565 0.4978,-3.56288 0.6535,-5.351116 0.7651,-8.767462 0.1462,-17.640637 -1.8554,-26.206696 0,0 0,-10e-7 0,-2e-6 -1.528,-6.586803 -3.8136,-13.154523 -7.6063,-18.882563 -0.09,-0.13541 -0.1801,-0.27043 -0.2711,-0.40506 0,0 0,0 0,0 -3.0077,-4.43724 -6.3038,-8.70945 -9.982,-12.64488 -3.6782,-3.93544 -7.7416,-7.53405 -12.2522,-10.57792 -5.4422,-3.66347 -11.5056,-6.45088 -17.8707,-8.07939 -2.4721,-0.63249 -4.9803,-1.1165 -7.5075,-1.44624 -14.9224,-1.93181 -30.2025,1.26481 -43.2589,8.20642 -1.1996,0.26794 -1.94,0.76335 -2.3107,1.27853 -0.3708,0.51517 -0.3747,1.05168 -0.129,1.44272 0.2458,0.39105 0.7389,0.63832 1.3738,0.59066 0.635,-0.0477 1.4096,-0.38913 2.2637,-1.18176 12.6834,-6.56063 27.4312,-9.48679 41.6456,-7.494 2.3022,0.32135 4.5865,0.77726 6.8384,1.36219 6.1746,1.60387 12.0394,4.36204 17.2647,7.96415 4.2232,2.90549 8.0307,6.34323 11.491,10.10176 3.4602,3.75854 6.5763,7.83781 9.4465,12.07227 0.061,0.0906 0.1228,0.18137 0.184,0.27228 3.5357,5.22857 5.9564,11.54633 7.7314,18.131366 2.199,8.238296 3.1298,16.940227 2.5045,25.27117 -0.1383,1.837167 -0.3541,3.656826 -0.6455,5.446097 -1.2547,7.703341 -4.1532,14.742664 -8.2204,20.873559 -2.3049,3.487702 -4.9943,6.671011 -7.9744,9.642341 -2.9801,2.971331 -6.2517,5.733371 -9.794,8.365023 -1.1936,0.935761 -2.9651,2.481261 -4.1153,3.777766 -0.5751,0.648252 -0.9889,1.241106 -1.0614,1.690013 -0.072,0.448908 0.1981,0.7577 0.995,0.805414 C 1707.6291,-19.711017 1709.2474,-20.749805 1710.6619,-21.674865 Z"
         inkscape:connector-curvature="0"
         sodipodi:nodetypes="ssssscsc" />
      <path
         inkscape:original-d="m 1393.0613,-68.52032 c -21.4172,30.68774 -53.9054,44.81012 -65.0889,34.02058 -8.5693,-8.2674 -9.2352,-46.62192 12.0723,-77.38599 21.3075,-30.76408 55.0052,-42.92722 65.0889,-34.02059 C 1416.938,-135.47993 1409.4933,-92.06473 1393.0613,-68.52032 z m 12.0723,-77.386 c -23.9735,-15.53414 -64.4376,-21.94738 -93.9831,16.01871 -13.2911,17.07915 -26.6432,68.16241 16.8219,95.38787"
         inkscape:path-effect="#path-effect1019"
         id="path945"
         style="fill:#000000;stroke:none"
         d="m 1399.3531,-74.628797 c 2.2966,-4.478107 4.2237,-9.116871 5.8872,-13.813081 0,-2e-6 0,-3e-6 0,-4e-6 2.7035,-7.61334 4.7343,-15.464668 5.9612,-23.445858 0,0 0,0 0,0 1.0673,-6.88875 1.5996,-13.97834 0.7171,-21.00424 -0.342,-2.74381 -0.9343,-5.51601 -2.0117,-8.15384 0,0 0,0 0,0 -0.8567,-2.12739 -2.116,-4.1992 -3.9411,-5.8027 -1.0058,-0.83469 -2.1084,-1.46625 -3.2667,-1.93195 -2.8892,-1.16168 -6.1213,-1.30837 -9.078,-1.02237 0,0 0,0 0,0 -6.0729,0.50533 -11.8733,2.50235 -17.2902,5.03104 0,1e-5 0,1e-5 0,1e-5 -15.0714,7.0138 -27.92,18.49674 -37.2857,32.1938 0,0 0,0 0,0 -0.3665,0.53544 -0.7272,1.07468 -1.0822,1.6176 -4.505,6.88989 -8.2522,14.268215 -11.1207,21.997428 -2.8684,7.729212 -4.8549,15.810264 -5.7956,24.033215 0,2e-6 0,3e-6 0,4e-6 -0.7427,6.42144 -0.866,13.022749 0.2698,19.521221 0,10e-7 0,3e-6 0,4e-6 0.4205,2.419829 1.0455,4.867171 2.0433,7.225254 0,1e-6 0,3e-6 0,4e-6 0.3427,0.83484 0.7546,1.678156 1.2587,2.494193 0.5566,0.901144 1.2241,1.769829 2.033,2.558445 1.7067,1.601339 3.7741,2.692063 5.9317,3.293864 0,0 0,1e-6 0,2e-6 2.4507,0.682491 4.9568,0.829472 7.3677,0.655584 0,0 0,0 0,0 6.2232,-0.44799 12.0732,-2.63643 17.4164,-5.380317 13.3807,-6.836181 24.5429,-17.308432 33.3003,-29.30426 1.3205,-1.253975 2.02,-2.385594 2.2892,-3.245836 0.2692,-0.860243 0.11,-1.452229 -0.292,-1.681768 -0.402,-0.229539 -1.0458,-0.09912 -1.7705,0.472727 -0.7246,0.571845 -1.5285,1.583274 -2.2935,3.135515 -8.6385,11.621787 -19.5283,21.706056 -32.4412,28.175833 -5.192,2.590752 -10.7019,4.647179 -16.3728,4.988013 0,0 0,0 0,0 -2.1779,0.130597 -4.3597,0.0053 -6.3909,-0.58749 0,-10e-7 0,-10e-7 0,-2e-6 -1.7632,-0.514162 -3.4242,-1.384666 -4.7124,-2.628028 -0.4874,-0.457513 -0.912,-0.990574 -1.291,-1.573286 -0.5019,-0.771689 -0.9222,-1.631459 -1.3013,-2.518458 -0.8757,-2.085614 -1.4224,-4.326253 -1.8108,-6.608699 0,-2e-6 0,-3e-6 0,-4e-6 -1.0407,-6.137959 -0.8626,-12.456105 -0.1123,-18.684888 0,-1e-6 0,-2e-6 0,-3e-6 0.943,-7.76357 2.8465,-15.389063 5.5525,-22.686317 2.706,-7.297254 6.2115,-14.26714 10.3991,-20.78725 0.5517,-0.85889 1.1183,-1.71274 1.7001,-2.56062 4.4235,-6.43604 9.6624,-12.61467 15.6415,-18.06317 5.9791,-5.44849 12.698,-10.15893 19.9639,-13.71165 5.2602,-2.56126 10.7697,-4.56544 16.3692,-5.06195 2.9213,-0.21478 5.9613,-0.11823 8.3993,0.93154 0.8311,0.35786 1.5921,0.8274 2.2554,1.4302 1.4824,1.26939 2.5144,3.06518 3.2798,4.95837 0.9584,2.39961 1.4498,4.97734 1.7325,7.57452 0.7324,6.77439 0,13.55822 -1.1929,20.23683 -1.3838,7.68672 -3.5092,15.224258 -6.244,22.715836 -1.3347,3.64803 -2.8063,7.288272 -4.4866,10.889291 -0.4667,1.046421 -1.0329,2.384387 -1.6018,3.752747 -0.5689,1.36836 -1.142,2.767063 -1.57,3.957965 -0.4279,1.190903 -0.708,2.176726 -0.6457,2.72349 0.062,0.546763 0.4751,0.659496 1.3961,0.04775 C 1396.7291,-69.890536 1398.1606,-72.396805 1399.3531,-74.628797 z m -74.7078,35.262627 c -7.4991,-5.062638 -13.8866,-11.836539 -18.1707,-19.821862 -3.5844,-6.650095 -5.7283,-14.061395 -6.656,-21.645696 -0.2107,-1.722572 -0.3448,-3.456125 -0.4051,-5.191715 -0.294,-8.5257 1.1139,-17.099387 3.7799,-25.217577 0,0 0,0 0,0 2.0687,-6.2647 4.7504,-12.34159 8.6263,-17.541 0.092,-0.12292 0.1841,-0.24525 0.2773,-0.36699 0,0 0,0 0,0 3.1744,-4.15071 6.8045,-7.97058 10.7815,-11.32334 3.977,-3.35276 8.2978,-6.23867 12.8882,-8.5657 5.5238,-2.80828 11.4232,-4.79603 17.4721,-6.05542 2.3493,-0.48914 4.7286,-0.84146 7.1222,-1.05183 14.1736,-1.26005 28.7394,2.21688 41.4574,9.14543 0.8626,0.8418 1.6304,1.21405 2.2524,1.27707 0.6221,0.063 1.0957,-0.18446 1.3229,-0.58661 0.2271,-0.40215 0.2054,-0.96055 -0.1724,-1.50177 -0.3779,-0.54122 -1.1143,-1.06643 -2.2883,-1.36359 -13.0094,-7.24552 -27.9936,-10.97645 -42.7767,-9.83601 -2.3983,0.18639 -4.7843,0.50855 -7.1443,0.96245 -6.4709,1.24457 -12.7976,3.29126 -18.7363,6.24951 -4.7898,2.39113 -9.2936,5.34178 -13.4316,8.76336 -4.1381,3.42159 -7.9072,7.31436 -11.1945,11.54579 -0.07,0.0905 -0.1405,0.18128 -0.2105,0.2722 -4.2714,5.56169 -7.147,12.25026 -9.1345,19.05033 -2.5237,8.55437 -3.5945,17.57938 -3.2016,26.198431 0.086,1.904492 0.247,3.790677 0.4773,5.647773 0.9917,7.995324 2.9495,15.524787 6.3425,22.471276 1.9371,3.948543 4.3369,7.649945 7.1934,11.044985 2.8566,3.39504 6.1726,6.482322 9.9188,9.137572 1.3098,0.880181 3.4906,1.978521 5.1813,2.418916 1.6906,0.440396 2.8459,0.270969 2.2102,-1.131989 C 1327.4658,-37.505758 1325.9391,-38.441421 1324.6453,-39.36617 Z"
         inkscape:connector-curvature="0"
         sodipodi:nodetypes="ssssscsc" />
      <path
         inkscape:original-d="m 1519.8519,149.16178 c 37.285,3.20406 65.7594,24.27839 62.0071,39.35835 -2.8751,11.55493 -35.7582,31.30888 -73.0544,28.23808 -37.2962,-3.0708 -64.6786,-26.17229 -62.0071,-39.35835 C 1449.9248,161.96384 1491.2459,146.70354 1519.8519,149.16178 z m -73.0544,28.23808 c -1.4662,28.52873 13.2118,66.77829 60.8641,73.3824 21.4365,2.97086 72.352,-11.00752 74.1974,-62.26213"
         inkscape:path-effect="#path-effect992"
         id="path955"
         style="fill:#000000;stroke:none"
         d="m 1511.4159,146.7672 c -5.0264,0.25015 -10.0073,0.9006 -14.906,1.8081 0,0 0,0 -10e-5,0 -7.9451,1.46536 -15.7599,3.6323 -23.2853,6.56037 0,0 0,0 0,0 -6.4994,2.52011 -12.9054,5.60385 -18.5488,9.88105 -2.2051,1.66812 -4.3098,3.56713 -6.0556,5.81908 0,0 0,0 0,0 -1.414,1.8056 -2.5785,3.93217 -3.0547,6.31444 -0.2199,1.28845 -0.2156,2.5591 -0.04,3.79504 0.4385,3.08297 1.9275,5.95536 3.6536,8.37299 0,0 0,0 0,0 3.474,5.00656 8.1037,9.03134 13.0021,12.45818 0,0 0,10e-6 0,10e-6 6.8049,4.77265 14.2877,8.50256 22.1493,11.20061 7.8617,2.69805 16.1017,4.36167 24.3741,4.99286 0,0 0,0 0,0 0.647,0.0496 1.2944,0.0925 1.9421,0.12843 8.2193,0.45652 16.4827,0.0125 24.6106,-1.36796 8.1279,-1.38045 16.1196,-3.70062 23.7112,-6.99739 0,-1e-5 0,-1e-5 0,-1e-5 5.9325,-2.56755 11.711,-5.76144 16.771,-9.99433 0,0 0,0 0,0 1.8854,-1.57404 3.6923,-3.339 5.2356,-5.38218 0,0 0,0 0,0 0.5516,-0.71415 1.076,-1.49257 1.5307,-2.33712 0.5021,-0.93264 0.9206,-1.94504 1.1991,-3.03988 0.5335,-2.27868 0.4444,-4.61446 -0.1132,-6.7839 0,-1e-5 0,-1e-5 0,-1e-5 -0.6343,-2.4636 -1.7601,-4.70744 -3.1161,-6.70838 0,-1e-5 0,-1e-5 0,-1e-5 -3.4996,-5.16546 -8.3198,-9.13752 -13.3677,-12.39285 -12.6106,-8.16997 -27.261,-12.60055 -42.0284,-14.18685 -1.7462,-0.51654 -3.0759,-0.55652 -3.9555,-0.35957 -0.8797,0.19695 -1.3127,0.63082 -1.3105,1.09374 0,0.46293 0.4371,0.95528 1.2946,1.29692 0.8576,0.34165 2.1355,0.53216 3.8622,0.41848 14.3841,1.67036 28.5622,6.05906 40.6216,14.00707 4.8397,3.20102 9.3755,6.94447 12.5062,11.68522 0,0 0,0 0,1e-5 1.202,1.82075 2.1844,3.77293 2.6866,5.82841 0,0 0,0 0,0 0.4363,1.78402 0.5129,3.65777 0.08,5.39507 -0.1525,0.65087 -0.4019,1.28507 -0.7171,1.90467 -0.4173,0.82053 -0.9517,1.6144 -1.5303,2.38618 -1.3684,1.80121 -3.0355,3.395 -4.818,4.87252 0,0 0,0 0,0 -4.7952,3.97027 -10.356,6.97512 -16.1254,9.43973 0,0 0,0 0,0 -7.1949,3.06513 -14.7506,5.22938 -22.4232,6.53456 -7.6726,1.30518 -15.4614,1.75429 -23.2018,1.38771 -1.0197,-0.0483 -2.0425,-0.11209 -3.0676,-0.19195 -7.7855,-0.61284 -15.7558,-2.06057 -23.4639,-4.51438 -7.7081,-2.45381 -15.1469,-5.91736 -21.8566,-10.43343 -4.8482,-3.27486 -9.3386,-7.04411 -12.5684,-11.64518 -1.6466,-2.42252 -3.083,-5.10354 -3.3929,-7.73979 -0.1056,-0.89867 -0.08,-1.79246 0.1109,-2.6683 0.3581,-1.91852 1.3973,-3.7101 2.6542,-5.31956 1.5989,-2.02977 3.5856,-3.74419 5.6935,-5.28764 5.5006,-4.02144 11.7411,-6.78026 18.1221,-9.08527 7.3487,-2.64498 14.9392,-4.57308 22.7945,-5.95047 3.8266,-0.66815 7.7149,-1.2139 11.6736,-1.55918 1.1396,-0.11909 2.5814,-0.29769 4.0509,-0.48918 1.4695,-0.19149 2.9673,-0.39455 4.2127,-0.61939 1.2453,-0.22485 2.2391,-0.47522 2.6814,-0.80254 0.4424,-0.32733 0.3336,-0.74117 -0.6567,-1.23295 C 1516.8314,146.6705 1513.9451,146.68387 1511.4159,146.7672 z m 67.8922,47.06749 c -0.6348,9.02577 -3.3075,17.94443 -8.0809,25.64721 -3.9669,6.42925 -9.3134,11.99156 -15.4177,16.5871 -1.3865,1.04376 -2.8207,2.02672 -4.2936,2.94672 -7.2365,4.51745 -15.3655,7.58502 -23.7291,9.33526 0,0 0,0 0,0 -6.4597,1.34087 -13.0633,2.05687 -19.504,1.29994 -0.1523,-0.0179 -0.3045,-0.0368 -0.4566,-0.0567 0,0 0,0 0,0 -5.1818,-0.67376 -10.3049,-1.90753 -15.197,-3.67533 -4.892,-1.7678 -9.5517,-4.06676 -13.8622,-6.87872 -5.1939,-3.37958 -9.865,-7.49474 -13.9801,-12.10352 -1.5983,-1.79 -3.0931,-3.67436 -4.4721,-5.64213 -8.178,-11.64462 -12.4497,-25.99744 -12.8085,-40.47584 0.2978,-1.16793 0.2362,-2.01898 -0.02,-2.58921 -0.2565,-0.57022 -0.7076,-0.85667 -1.1695,-0.85232 -0.4618,0.004 -0.9345,0.30238 -1.2143,0.9002 -0.2798,0.59782 -0.3664,1.49822 -0.037,2.66353 0.2299,14.88922 4.4909,29.73138 12.8701,41.96367 1.3606,1.98377 2.8326,3.88906 4.4057,5.70591 4.3132,4.9817 9.2491,9.43746 14.7803,13.10136 4.4657,2.95251 9.273,5.37763 14.3051,7.25047 5.0322,1.87285 10.288,3.19059 15.5962,3.92179 0.1136,0.0157 0.2273,0.0311 0.341,0.0463 6.9522,0.91823 14.1825,0.0643 21.0653,-1.61454 8.6702,-2.09153 17.0214,-5.6767 24.2893,-10.32651 1.6062,-1.027 3.1593,-2.10926 4.6525,-3.23729 3.2141,-2.42823 6.1961,-5.0092 8.925,-7.78241 2.7288,-2.7732 5.2048,-5.74013 7.3644,-8.94599 2.451,-3.65178 4.4566,-7.5808 5.9686,-11.75214 1.5119,-4.17134 2.5275,-8.58676 2.9539,-13.15871 0.1074,-1.57439 -0.032,-4.01224 -0.4957,-5.69655 -0.4639,-1.68431 -1.1883,-2.60011 -2.0855,-1.34811 C 1579.509,190.46187 1579.4621,192.25189 1579.3081,193.83469 Z"
         inkscape:connector-curvature="0"
         sodipodi:nodetypes="ssssscsc" />
      <path
         inkscape:original-d="m 1628.0281,156.88169 c -11.8044,-10.42639 -4.3695,-53.86184 12.0625,-77.40625 16.7322,-23.9748 40.2226,-37.82029 55.0313,-37.59375 4.1464,0.0634 7.6161,1.23354 10.0624,3.59375 m -77.1562,111.40625 c 0.8183,0.53026 1.6756,1.0549 2.5312,1.5625 C 1629.6076,158.02145 1628.7506,157.51988 1628.0281,156.88169 z m 77.1562,-111.40625 c 43.4651,27.22546 30.1349,78.29585 16.8438,95.375 -28.537,36.67011 -67.257,31.95651 -91.4688,17.59375"
         inkscape:path-effect="#path-effect1043"
         style="fill:#000000;stroke:none"
         d="m 1702.5592,41.240009 c -2.4111,-0.932119 -4.9669,-1.272775 -7.4092,-1.196898 0,0 0,0 0,0 -4.5768,0.101289 -8.9506,1.243867 -13.0415,2.803927 0,0 0,0 0,0 -5.1562,1.9526 -9.9949,4.599139 -14.4867,7.678739 0,1e-6 0,1e-6 0,2e-6 -0.8747,0.599478 -1.7374,1.215303 -2.5872,1.847331 -4.9776,3.702053 -9.6921,7.727376 -14.0607,12.124052 -4.3685,4.396676 -8.3872,9.165531 -11.889,14.276383 -0.3932,0.574111 -0.7766,1.154309 -1.1499,1.740266 -3.8362,6.020192 -7.1448,12.363962 -9.8684,18.944114 -2.299,5.543215 -4.1839,11.290535 -5.3427,17.192395 -0.4014,2.04417 -0.7473,4.09839 -1.0357,6.1599 0,0 0,0 0,0 -0.9783,6.92482 -1.3665,14.05442 -0.3108,21.03788 0,0 0,0 0,0 0.4102,2.72978 1.0735,5.47148 2.2099,8.03879 0,0 0,0 0,0 0.5455,1.24484 1.2279,2.45853 2.0743,3.54711 0.3166,0.93758 0.8972,1.42433 1.4154,1.54786 0.5182,0.12353 0.9785,-0.10321 1.2687,-0.46192 0.2902,-0.35872 0.4252,-0.83699 0.3389,-1.28485 -0.086,-0.44786 -0.3896,-0.86151 -1.0935,-1.28796 -0.66,-0.8887 -1.2145,-1.91274 -1.6918,-2.9868 0,0 0,0 0,0 -1.0027,-2.29668 -1.5754,-4.82921 -1.9443,-7.42044 0,0 0,0 0,0 -0.9398,-6.6461 -0.4633,-13.50931 0.5625,-20.27316 0,0 0,0 0,0 0.2937,-1.92537 0.6389,-3.84352 1.0335,-5.75211 1.2049,-5.82626 3.1477,-11.48932 5.492,-16.94306 2.6702,-6.201038 5.8233,-12.129135 9.3862,-17.709123 0.461,-0.722021 0.9349,-1.441743 1.423,-2.157563 3.3407,-4.902396 7.0924,-9.815878 11.2367,-14.365287 4.1443,-4.549409 8.6828,-8.728258 13.4253,-12.224739 0.7819,-0.576494 1.5734,-1.128429 2.373,-1.657444 0,0 0,0 0,-10e-7 4.5331,-2.997662 9.3042,-5.250537 14.2272,-6.823145 3.9355,-1.247562 7.929,-2.134658 11.9829,-2.146609 1.6249,0.01053 3.2867,0.157923 4.8816,0.538301 0.5225,0.104482 1.19,0.219224 1.8824,0.35819 0.6923,0.138965 1.4096,0.306268 2.0567,0.436402 0.6471,0.130135 1.2297,0.220782 1.6381,0.106363 0.4083,-0.114419 0.652,-0.449084 0.4852,-1.142621 -0.3443,-0.576729 -0.8903,-1.090435 -1.5109,-1.513199 C 1703.9097,41.848321 1703.216,41.516566 1702.5592,41.240009 z m -75.7481,117.280751 c 0.5375,-0.21442 0.8913,-0.24203 1.2204,-0.24505 0.329,-0.003 0.6325,0.0173 0.9509,0.003 0.3132,-0.0144 0.558,0.0597 0.822,0.10939 0.2639,0.0497 0.5462,0.0738 0.8181,0.0891 0,0 0,0 0,0 -0.01,-0.007 -0.011,-0.0136 -0.016,-0.0204 -0.1633,-0.20755 -0.3048,-0.41422 -0.4065,-0.69244 -0.1017,-0.27821 -0.1634,-0.62776 -0.3257,-0.83762 -0.3247,-0.41972 -0.72,-0.71928 -1.3399,-0.64927 0.2589,-0.52027 -0.2681,0.23418 -0.768,1.00858 -0.5,0.7744 -0.9394,1.51116 -0.5142,0.97044 0.7205,-0.26655 1.2549,-0.23469 1.7599,-0.16002 0.2525,0.0373 0.4138,0.19657 0.6235,0.26851 0.2097,0.0719 0.4675,0.0564 0.755,0.0269 0.019,-0.002 0.037,-0.004 0.056,-0.006 -0.099,-0.22788 -0.2042,-0.44483 -0.3494,-0.60896 -0.1453,-0.16413 -0.3317,-0.27632 -0.5096,-0.3942 -0.1839,-0.12182 -0.2356,-0.4143 -0.2444,-0.73731 -0.01,-0.32301 0.028,-0.67376 -0.3154,-0.60714 -0.087,0.0399 -0.3546,0.25587 -0.7527,0.64117 -0.398,0.38529 -0.9327,0.94507 -1.439,1.5809 C 1626.6038,158.59118 1626.7344,158.53143 1626.8111,158.52076 z m 7.6066,4.48068 c 6.341,2.86109 12.9827,5.01534 19.776,6.2768 6.7934,1.26146 13.741,1.62616 20.6129,0.86919 3.3783,-0.37506 6.7203,-1.03229 9.9796,-1.96452 5.1675,-1.47799 10.1623,-3.5232 14.8525,-6.13448 9.1146,-5.08216 17.0189,-12.20083 23.3632,-20.4402 0,0 0,-1e-5 0,-1e-5 0.8415,-1.0948 1.6242,-2.22726 2.3523,-3.39073 2.9847,-4.76959 5.2405,-9.9604 7.0553,-15.23159 0,-1e-5 0,-1e-5 0,-1e-5 2.8838,-8.32826 4.573,-17.16879 4.4301,-26.064864 -0.044,-2.796799 -0.2804,-5.596976 -0.7249,-8.36334 -1.1141,-6.93392 -3.3244,-13.683708 -6.6926,-19.829572 -4.9924,-9.068388 -12.4222,-16.536641 -20.965,-22.064241 -0.8046,-0.909679 -1.5893,-1.30863 -2.2137,-1.37688 -0.6243,-0.06825 -1.0914,0.192265 -1.313,0.597456 -0.2216,0.405192 -0.2005,0.953843 0.1432,1.480239 0.3437,0.526395 1.008,1.028932 2.1016,1.380466 8.1541,5.409928 15.1914,12.621195 19.818,21.25576 3.1085,5.780777 5.1369,12.134583 6.1569,18.664291 0.4301,2.753677 0.6439,5.543748 0.6601,8.328504 0.048,8.538601 -1.6781,17.015551 -4.5153,24.994361 0,0 0,0 0,0 -1.731,4.82914 -3.7757,9.518 -6.372,13.77047 -0.7913,1.29598 -1.647,2.56094 -2.5798,3.78061 -2.9748,3.90119 -6.2921,7.69433 -9.9563,11.15029 -3.6642,3.45597 -7.6765,6.57167 -11.99,9.14055 -4.5789,2.73237 -9.4917,4.83012 -14.4528,6.22039 -3.1124,0.87219 -6.2533,1.42062 -9.3761,1.68413 -6.3717,0.54217 -12.6191,-0.0466 -18.7386,-1.33167 -6.1195,-1.28504 -12.1248,-3.25983 -18.2091,-5.77517 -1.4002,-0.53633 -3.6136,-1.24024 -5.2997,-1.53687 -1.6862,-0.29663 -2.8802,-0.14581 -2.1483,1.25275 C 1631.2213,161.45192 1632.9209,162.27942 1634.4177,163.00144 Z"
         id="path958"
         inkscape:connector-curvature="0"
         sodipodi:nodetypes="csscccccsc" />
      <path
         inkscape:original-d="m 1583.2102,-169.11594 c -2.5147,15.54764 -39.2122,28.44827 -67.8931,27.1225 -29.205,-1.34987 -57.4526,-9.8218 -65.1665,-22.46478 -2.16,-3.53999 -3.0228,-7.09859 -2.3329,-10.42711 m 135.3925,5.76939 c 0.012,-0.97501 0,-1.98003 -0.03,-2.97449 C 1583.3308,-171.05999 1583.3642,-170.06757 1583.2102,-169.11594 z m -135.3925,-5.76939 c -0.1818,-51.2875 50.1188,-67.27896 71.656,-65.15769 46.2419,4.55462 62.9263,39.81204 63.7065,67.9526"
         inkscape:path-effect="#path-effect1027"
         sodipodi:nodetypes="csscccccsc"
         inkscape:connector-curvature="0"
         id="path960"
         d="m 1445.6246,-170.49465 c 0.4928,2.56989 1.5789,4.94267 2.9627,6.99026 0,0 0,0 0,0 2.6189,3.92231 6.2974,6.75705 10.0903,8.99689 0,0 0,0 0,0 4.9174,2.93687 10.2193,5.06906 15.6019,6.7098 0,0 0,0 0,0 0.5452,0.16646 1.0916,0.32822 1.6391,0.48522 6.1614,1.76672 12.3827,3.24452 18.6868,4.35049 6.304,1.10598 12.6873,1.83743 19.0754,2.09244 0.5273,0.0211 1.0544,0.0423 1.5814,0.0635 0,0 0,0 0,0 7.5755,0.30628 15.1831,0.0859 22.7029,-0.93703 4.7224,-0.63989 9.4233,-1.60026 13.9814,-3.04131 2.6225,-0.82911 5.2123,-1.76003 7.7583,-2.79948 0,0 0,0 0,0 5.9064,-2.39978 11.7129,-5.40544 16.6374,-9.58333 0,0 0,0 0,0 1.9506,-1.6525 3.7656,-3.53513 5.1896,-5.71015 0,0 0,0 0,-1e-5 0.7168,-1.09002 1.323,-2.27097 1.7532,-3.51282 0.6078,-0.7594 0.6992,-1.49444 0.5223,-1.98853 -0.1769,-0.49408 -0.6143,-0.7585 -1.0725,-0.81268 -0.4582,-0.0542 -0.9354,0.0844 -1.2665,0.39474 -0.331,0.31029 -0.514,0.78605 -0.4817,1.59699 -0.3654,0.99067 -0.8814,1.96068 -1.4871,2.88485 0,0 0,0 0,0 -1.2588,1.90541 -2.9322,3.58893 -4.7685,5.12244 0,0 0,0 0,1e-5 -4.6612,3.88635 -10.2607,6.67312 -16.0407,8.95722 0,0 0,0 0,0 -2.4108,0.94965 -4.8622,1.79965 -7.3445,2.55668 -4.5273,1.38074 -9.2036,2.26966 -13.9018,2.8426 0,0 0,0 0,0 -7.3552,0.8939 -14.7357,1.01767 -22.0266,0.67289 0,0 0,0 0,0 -0.3202,-0.0152 -0.6404,-0.0303 -0.9606,-0.0452 -6.219,-0.29032 -12.7317,-0.71737 -19.1945,-1.54188 -6.4627,-0.82451 -12.8745,-2.05468 -18.8525,-3.79443 -0.4733,-0.13775 -0.9433,-0.28052 -1.41,-0.42807 -5.4047,-1.71098 -10.3533,-4.05042 -14.7762,-7.03254 -1.7105,-1.16521 -3.36,-2.41135 -4.8437,-3.77453 -1.4837,-1.36318 -2.8019,-2.841 -3.8547,-4.5173 -0.8732,-1.40713 -1.6475,-2.92141 -2.1785,-4.5055 -0.1845,-0.48866 -0.437,-1.103 -0.6842,-1.75077 -0.2472,-0.64777 -0.4859,-1.33125 -0.7207,-1.93731 -0.2348,-0.60606 -0.4705,-1.13815 -0.786,-1.41843 -0.3155,-0.28028 -0.7278,-0.30865 -1.2241,0.19145 -0.3026,0.58692 -0.4459,1.30878 -0.4745,2.04542 C 1445.4285,-171.93546 1445.5137,-171.18541 1445.6246,-170.49465 z m 139.6212,1.53299 c -0.4682,-0.33985 -0.6804,-0.62421 -0.8586,-0.90073 -0.1782,-0.27652 -0.323,-0.54389 -0.5054,-0.80533 -0.1794,-0.25718 -0.2474,-0.50359 -0.3463,-0.75315 -0.099,-0.24956 -0.2291,-0.50086 -0.3614,-0.73893 0,0 0,0 0,0 -0,0.008 -0.01,0.0162 -0.01,0.0243 -0.088,0.24808 -0.1866,0.47762 -0.3675,0.71145 -0.1808,0.23384 -0.4435,0.47178 -0.5344,0.72094 -0.1818,0.4983 -0.2246,0.99367 0.1652,1.48128 -0.5781,0.0586 0.3411,0.10195 1.2628,0.11176 0.9218,0.01 1.7793,-0.0114 1.0952,-0.0825 -0.6097,-0.46611 -0.8675,-0.9353 -1.0737,-1.40258 -0.1031,-0.23364 -0.055,-0.45495 -0.1058,-0.67116 -0.051,-0.21622 -0.2024,-0.42715 -0.3814,-0.65577 -0.012,-0.0148 -0.023,-0.0296 -0.035,-0.0446 -0.1397,0.20587 -0.2672,0.41079 -0.3284,0.62161 -0.061,0.21082 -0.057,0.42868 -0.061,0.64226 -0,0.22071 -0.2245,0.42046 -0.493,0.60038 -0.2684,0.17992 -0.5846,0.33621 -0.345,0.59118 0.08,0.052 0.4057,0.16339 0.944,0.29435 0.5383,0.13095 1.297,0.28424 2.105,0.37304 C 1585.416,-168.82403 1585.2958,-168.90253 1585.2458,-168.96166 z m -0.2718,-8.82418 c -0.9658,-6.88927 -2.6897,-13.65536 -5.2496,-20.07318 -2.5599,-6.41781 -5.9604,-12.48728 -10.2689,-17.89394 -2.1206,-2.65642 -4.4605,-5.13159 -6.9887,-7.38995 -4.0084,-3.58048 -8.4042,-6.71229 -13.116,-9.28422 -9.1632,-4.99412 -19.4022,-7.87767 -29.7562,-8.84382 0,0 0,0 0,0 -1.3749,-0.12712 -2.7504,-0.18447 -4.1229,-0.17901 -5.6264,0.0224 -11.2199,0.88598 -16.646,2.16535 0,0 0,0 0,0 -8.5817,2.00747 -16.959,5.29849 -24.4051,10.1684 -2.3415,1.53013 -4.583,3.22493 -6.685,5.07758 -5.2684,4.64368 -9.796,10.116 -13.1948,16.24495 -5.003,9.06258 -7.3517,19.332 -7.4653,29.50651 -0.3397,1.16598 -0.2581,2.0425 0.018,2.60686 0.2755,0.56437 0.7452,0.82022 1.2061,0.79131 0.4609,-0.0289 0.9136,-0.33962 1.1752,-0.91129 0.2616,-0.57166 0.332,-1.40159 0.045,-2.51404 0.2216,-9.78302 2.5626,-19.58329 7.394,-28.10491 3.2287,-5.71452 7.5186,-10.82163 12.4955,-15.16991 2.0989,-1.83374 4.344,-3.50399 6.6901,-5.00425 7.1947,-4.59855 15.284,-7.66456 23.5453,-9.52487 0,0 0,0 0,0 5.0076,-1.11429 10.0639,-1.88842 15.0458,-1.96312 1.5182,-0.0228 3.0447,0.0255 4.574,0.16322 4.8869,0.43282 9.8652,1.21298 14.7436,2.46647 4.8784,1.25349 9.6549,2.98293 14.1298,5.259 4.7549,2.41318 9.1513,5.44756 12.9754,8.90044 2.399,2.16619 4.5395,4.5293 6.4294,7.02926 3.8599,5.09836 6.6971,10.69541 8.8773,16.55596 2.1801,5.86055 3.7162,11.99279 4.8373,18.48039 0.2939,1.4703 0.8803,3.71767 1.5296,5.30182 0.6493,1.58415 1.4142,2.51326 2.2061,1.14776 C 1585.3701,-174.2558 1585.1625,-176.13478 1584.974,-177.78584 Z"
         style="fill:#000000;stroke:none" />
      <path
         transform="translate(5.6387085,301.66294)"
         inkscape:connector-curvature="0"
         id="path962"
         d="m 984.49444,-266.33401 -207.49401,78.04729"
         style="fill:none;stroke:#000000;stroke-width:1px;stroke-linecap:butt;stroke-linejoin:miter;stroke-opacity:1" />
      <path
         transform="translate(5.6387085,301.66294)"
         inkscape:connector-curvature="0"
         id="path964"
         d="m 984.49444,-266.33401 -0.89542,-247.0046"
         style="fill:none;stroke:#000000;stroke-width:1px;stroke-linecap:butt;stroke-linejoin:miter;stroke-opacity:1" />
      <path
         transform="translate(5.6387085,301.66294)"
         inkscape:connector-curvature="0"
         id="path966"
         d="M 984.49444,-266.33401 1204.894,-165.23008"
         style="fill:none;stroke:#000000;stroke-width:1px;stroke-linecap:butt;stroke-linejoin:miter;stroke-opacity:1" />
      <path
         transform="translate(5.6387085,301.66294)"
         inkscape:connector-curvature="0"
         id="path968"
         d="m 1244.5043,-156.01581 68.0963,-34.49753"
         style="fill:none;stroke:#000000;stroke-width:1px;stroke-linecap:butt;stroke-linejoin:miter;stroke-opacity:1" />
      <path
         transform="translate(5.6387085,301.66294)"
         inkscape:connector-curvature="0"
         id="path970"
         d="m 1277.9452,-448.78829 27.5666,17.23774"
         style="fill:none;stroke:#000000;stroke-width:1px;stroke-linecap:butt;stroke-linejoin:miter;stroke-opacity:1" />
      <path
         transform="translate(5.6387085,301.66294)"
         inkscape:connector-curvature="0"
         id="path972"
         d="m 1507.7412,-579.98677 1.3606,44.19954"
         style="fill:none;stroke:#000000;stroke-width:1px;stroke-linecap:butt;stroke-linejoin:miter;stroke-opacity:1" />
      <path
         transform="translate(5.6387085,301.66294)"
         inkscape:connector-curvature="0"
         id="path974"
         d="m 1749.1267,-421.98301 -22.6815,12.88582"
         style="fill:none;stroke:#000000;stroke-width:1px;stroke-linecap:butt;stroke-linejoin:miter;stroke-opacity:1" />
      <path
         transform="translate(5.6387085,301.66294)"
         inkscape:connector-curvature="0"
         id="path976"
         d="m 1745.6551,-146.51862 -40.9883,-27.65796"
         style="fill:none;stroke:#000000;stroke-width:1px;stroke-linecap:butt;stroke-linejoin:miter;stroke-opacity:1" />
      <path
         transform="translate(5.6387085,301.66294)"
         inkscape:connector-curvature="0"
         id="path978"
         d="m 1508.3739,1.8309871 -0.4132,-52.3338241"
         style="fill:none;stroke:#000000;stroke-width:1px;stroke-linecap:butt;stroke-linejoin:miter;stroke-opacity:1" />
      <path
         transform="translate(5.6387085,301.66294)"
         inkscape:connector-curvature="0"
         id="path980"
         d="m 1379.4375,-228.1875 32.2793,-17.32532"
         style="fill:none;stroke:#000000;stroke-width:1px;stroke-linecap:butt;stroke-linejoin:miter;stroke-opacity:1" />
      <path
         transform="translate(5.6387085,301.66294)"
         inkscape:connector-curvature="0"
         id="path982"
         d="m 1508.6253,-117.98385 0,-57.25634"
         style="fill:none;stroke:#000000;stroke-width:1px;stroke-linecap:butt;stroke-linejoin:miter;stroke-opacity:1" />
      <path
         transform="translate(5.6387085,301.66294)"
         inkscape:connector-curvature="0"
         id="path984"
         d="m 1363.4828,-393.14876 56.3563,37.11341"
         style="fill:none;stroke:#000000;stroke-width:1px;stroke-linecap:butt;stroke-linejoin:miter;stroke-opacity:1" />
      <path
         transform="translate(5.6387085,301.66294)"
         inkscape:connector-curvature="0"
         id="path986"
         d="m 1509.6784,-443.65638 0.073,51.47859"
         style="fill:none;stroke:#000000;stroke-width:1px;stroke-linecap:butt;stroke-linejoin:miter;stroke-opacity:1" />
      <path
         transform="translate(5.6387085,301.66294)"
         inkscape:connector-curvature="0"
         id="path988"
         d="m 1665.891,-378.50278 -55.016,28.81045"
         style="fill:none;stroke:#000000;stroke-width:1px;stroke-linecap:butt;stroke-linejoin:miter;stroke-opacity:1" />
      <path
         inkscape:connector-curvature="0"
         id="path990"
         d="M 1638.0906,83.47544 1598.5292,57.54137"
         style="fill:none;stroke:#000000;stroke-width:1px;stroke-linecap:butt;stroke-linejoin:miter;stroke-opacity:1" />
      <text
         transform="translate(5.6387085,301.66294)"
         sodipodi:linespacing="125%"
         id="text1134"
         y="0.93588728"
         x="1534.0146"
         style="font-size:15px;font-style:normal;font-variant:normal;font-weight:500;font-stretch:normal;text-align:start;line-height:125%;letter-spacing:0px;word-spacing:0px;writing-mode:lr-tb;text-anchor:start;fill:#000000;fill-opacity:1;stroke:none;font-family:CMU Serif;-inkscape-font-specification:CMU Serif Medium"
         xml:space="preserve"><tspan
           y="0.93588728"
           x="1534.0146"
           id="tspan1136"
           sodipodi:role="line">z^2</tspan></text>
      <text
         transform="translate(5.6387085,301.66294)"
         sodipodi:linespacing="125%"
         id="text1138"
         y="-175.52362"
         x="1761.5104"
         style="font-size:15px;font-style:normal;font-variant:normal;font-weight:500;font-stretch:normal;text-align:start;line-height:125%;letter-spacing:0px;word-spacing:0px;writing-mode:lr-tb;text-anchor:start;fill:#000000;fill-opacity:1;stroke:none;font-family:CMU Serif;-inkscape-font-specification:CMU Serif Medium"
         xml:space="preserve"><tspan
           y="-175.52362"
           x="1761.5104"
           id="tspan1140"
           sodipodi:role="line">y^1</tspan></text>
      <text
         transform="translate(5.6387085,301.66294)"
         sodipodi:linespacing="125%"
         id="text1142"
         y="-377.96964"
         x="1759.5303"
         style="font-size:15px;font-style:normal;font-variant:normal;font-weight:500;font-stretch:normal;text-align:start;line-height:125%;letter-spacing:0px;word-spacing:0px;writing-mode:lr-tb;text-anchor:start;fill:#000000;fill-opacity:1;stroke:none;font-family:CMU Serif;-inkscape-font-specification:CMU Serif Medium"
         xml:space="preserve"><tspan
           y="-377.96964"
           x="1759.5303"
           id="tspan1144"
           sodipodi:role="line">x^2</tspan></text>
      <text
         transform="translate(5.6387085,301.66294)"
         sodipodi:linespacing="125%"
         id="text1146"
         y="-570.27887"
         x="1538.2512"
         style="font-size:15px;font-style:normal;font-variant:normal;font-weight:500;font-stretch:normal;text-align:start;line-height:125%;letter-spacing:0px;word-spacing:0px;writing-mode:lr-tb;text-anchor:start;fill:#000000;fill-opacity:1;stroke:none;font-family:CMU Serif;-inkscape-font-specification:CMU Serif Medium"
         xml:space="preserve"><tspan
           y="-570.27887"
           x="1538.2512"
           id="tspan1148"
           sodipodi:role="line">z^1</tspan></text>
      <text
         transform="translate(5.6387085,301.66294)"
         sodipodi:linespacing="125%"
         id="text1150"
         y="-475.77142"
         x="1277.7905"
         style="font-size:15px;font-style:normal;font-variant:normal;font-weight:500;font-stretch:normal;text-align:start;line-height:125%;letter-spacing:0px;word-spacing:0px;writing-mode:lr-tb;text-anchor:start;fill:#000000;fill-opacity:1;stroke:none;font-family:CMU Serif;-inkscape-font-specification:CMU Serif Medium"
         xml:space="preserve"><tspan
           y="-475.77142"
           x="1277.7905"
           id="tspan1152"
           sodipodi:role="line">y^2</tspan></text>
      <text
         transform="translate(5.6387085,301.66294)"
         sodipodi:linespacing="125%"
         id="text1154"
         y="-100.85799"
         x="1286.4749"
         style="font-size:15px;font-style:normal;font-variant:normal;font-weight:500;font-stretch:normal;text-align:start;line-height:125%;letter-spacing:0px;word-spacing:0px;writing-mode:lr-tb;text-anchor:start;fill:#000000;fill-opacity:1;stroke:none;font-family:CMU Serif;-inkscape-font-specification:CMU Serif Medium"
         xml:space="preserve"><tspan
           y="-100.85799"
           x="1286.4749"
           id="tspan1156"
           sodipodi:role="line">x^1</tspan></text>
      <text
         transform="translate(5.6387085,301.66294)"
         sodipodi:linespacing="125%"
         id="text1158"
         y="-190.23567"
         x="1201.0422"
         style="font-size:15px;font-style:normal;font-variant:normal;font-weight:500;font-stretch:normal;text-align:start;line-height:125%;letter-spacing:0px;word-spacing:0px;writing-mode:lr-tb;text-anchor:start;fill:#000000;fill-opacity:1;stroke:none;font-family:CMU Serif;-inkscape-font-specification:CMU Serif Medium"
         xml:space="preserve"><tspan
           y="-190.23567"
           x="1201.0422"
           id="tspan1160"
           sodipodi:role="line">y</tspan></text>
      <text
         transform="translate(5.6387085,301.66294)"
         sodipodi:linespacing="125%"
         id="text1162"
         y="-500.14078"
         x="1006.8958"
         style="font-size:15px;font-style:normal;font-variant:normal;font-weight:500;font-stretch:normal;text-align:start;line-height:125%;letter-spacing:0px;word-spacing:0px;writing-mode:lr-tb;text-anchor:start;fill:#000000;fill-opacity:1;stroke:none;font-family:CMU Serif;-inkscape-font-specification:CMU Serif Medium"
         xml:space="preserve"><tspan
           y="-500.14078"
           x="1006.8958"
           id="tspan1164"
           sodipodi:role="line">z</tspan></text>
      <text
         transform="translate(5.6387085,301.66294)"
         sodipodi:linespacing="125%"
         id="text1166"
         y="-206.83554"
         x="756.53442"
         style="font-size:15px;font-style:normal;font-variant:normal;font-weight:500;font-stretch:normal;text-align:start;line-height:125%;letter-spacing:0px;word-spacing:0px;writing-mode:lr-tb;text-anchor:start;fill:#000000;fill-opacity:1;stroke:none;font-family:CMU Serif;-inkscape-font-specification:CMU Serif Medium"
         xml:space="preserve"><tspan
           y="-206.83554"
           x="756.53442"
           id="tspan1168"
           sodipodi:role="line">x</tspan></text>
      <text
         transform="translate(5.6387085,301.66294)"
         sodipodi:linespacing="125%"
         id="text1170"
         y="-240.91573"
         x="974.24615"
         style="font-size:15px;font-style:normal;font-variant:normal;font-weight:500;font-stretch:normal;text-align:start;line-height:125%;letter-spacing:0px;word-spacing:0px;writing-mode:lr-tb;text-anchor:start;fill:#000000;fill-opacity:1;stroke:none;font-family:CMU Serif;-inkscape-font-specification:CMU Serif Medium"
         xml:space="preserve"><tspan
           y="-240.91573"
           x="974.24615"
           id="tspan1172"
           sodipodi:role="line">0</tspan></text>
      <text
         transform="translate(5.6387085,301.66294)"
         sodipodi:linespacing="125%"
         id="text1174"
         y="-383.33975"
         x="804.15997"
         style="font-size:15px;font-style:normal;font-variant:normal;font-weight:500;font-stretch:normal;text-align:start;line-height:125%;letter-spacing:0px;word-spacing:0px;writing-mode:lr-tb;text-anchor:start;fill:#000000;fill-opacity:1;stroke:none;font-family:CMU Serif;-inkscape-font-specification:CMU Serif Medium"
         xml:space="preserve"><tspan
           y="-383.33975"
           x="804.15997"
           id="tspan1176"
           sodipodi:role="line">S^2</tspan></text>
    </g>
  </g>
</svg>
