<?xml version="1.0" encoding="UTF-8" standalone="no"?>
<!-- Created with Inkscape (http://www.inkscape.org/) -->

<svg
   xmlns:dc="http://purl.org/dc/elements/1.1/"
   xmlns:cc="http://creativecommons.org/ns#"
   xmlns:rdf="http://www.w3.org/1999/02/22-rdf-syntax-ns#"
   xmlns:svg="http://www.w3.org/2000/svg"
   xmlns="http://www.w3.org/2000/svg"
   xmlns:sodipodi="http://sodipodi.sourceforge.net/DTD/sodipodi-0.dtd"
   xmlns:inkscape="http://www.inkscape.org/namespaces/inkscape"
   width="698.03021"
   height="362.12689"
   id="svg5997"
   version="1.1"
   inkscape:version="0.48+devel r"
   sodipodi:docname="tangent_plane.svg">
  <title
     id="title6005">Winter School -- Contact Topology</title>
  <defs
     id="defs5999">
    <marker
       style="overflow:visible"
       inkscape:stockid="InfiniteLineStart"
       id="marker5612"
       refX="0"
       refY="0"
       orient="auto"
       inkscape:isstock="true">
      <g
         id="g5614"
         style="fill:#000000;fill-opacity:1;stroke:#000000;stroke-opacity:1"
         transform="translate(-13,0)">
        <circle
           sodipodi:ry="0.80000001"
           sodipodi:rx="0.80000001"
           sodipodi:cy="0"
           sodipodi:cx="3"
           d="M 3.8,0 C 3.8,0.44182781 3.4418278,0.80000001 3,0.80000001 2.5581722,0.80000001 2.2,0.44182781 2.2,0 2.2,-0.44182781 2.5581722,-0.80000001 3,-0.80000001 3.4418278,-0.80000001 3.8,-0.44182781 3.8,0 Z"
           id="circle5616"
           r="0.80000001"
           cy="0"
           cx="3"
           style="fill:#000000;fill-opacity:1;stroke:#000000;stroke-opacity:1" />
        <circle
           sodipodi:ry="0.80000001"
           sodipodi:rx="0.80000001"
           sodipodi:cy="0"
           sodipodi:cx="6.5"
           d="M 7.3,0 C 7.3,0.44182781 6.9418278,0.80000001 6.5,0.80000001 6.0581722,0.80000001 5.7,0.44182781 5.7,0 5.7,-0.44182781 6.0581722,-0.80000001 6.5,-0.80000001 6.9418278,-0.80000001 7.3,-0.44182781 7.3,0 Z"
           id="circle5618"
           r="0.80000001"
           cy="0"
           cx="6.5"
           style="fill:#000000;fill-opacity:1;stroke:#000000;stroke-opacity:1" />
        <circle
           sodipodi:ry="0.80000001"
           sodipodi:rx="0.80000001"
           sodipodi:cy="0"
           sodipodi:cx="10"
           d="M 10.8,0 C 10.8,0.44182781 10.441828,0.80000001 10,0.80000001 9.5581722,0.80000001 9.2,0.44182781 9.2,0 9.2,-0.44182781 9.5581722,-0.80000001 10,-0.80000001 10.441828,-0.80000001 10.8,-0.44182781 10.8,0 Z"
           id="circle5620"
           r="0.80000001"
           cy="0"
           cx="10"
           style="fill:#000000;fill-opacity:1;stroke:#000000;stroke-opacity:1" />
      </g>
    </marker>
    <marker
       style="overflow:visible"
       inkscape:stockid="InfiniteLineEnd"
       id="InfiniteLineEnd"
       refX="0"
       refY="0"
       orient="auto"
       inkscape:isstock="true">
      <g
         id="g4787"
         style="fill:#000000;fill-opacity:1;stroke:#000000;stroke-opacity:1">
        <circle
           sodipodi:ry="0.80000001"
           sodipodi:rx="0.80000001"
           sodipodi:cy="0"
           sodipodi:cx="3"
           id="circle4789"
           r="0.80000001"
           cy="0"
           cx="3"
           style="fill:#000000;fill-opacity:1;stroke:#000000;stroke-opacity:1" />
        <circle
           sodipodi:ry="0.80000001"
           sodipodi:rx="0.80000001"
           sodipodi:cy="0"
           sodipodi:cx="6.5"
           id="circle4791"
           r="0.80000001"
           cy="0"
           cx="6.5"
           style="fill:#000000;fill-opacity:1;stroke:#000000;stroke-opacity:1" />
        <circle
           sodipodi:ry="0.80000001"
           sodipodi:rx="0.80000001"
           sodipodi:cy="0"
           sodipodi:cx="10"
           id="circle4793"
           r="0.80000001"
           cy="0"
           cx="10"
           style="fill:#000000;fill-opacity:1;stroke:#000000;stroke-opacity:1" />
      </g>
    </marker>
    <inkscape:path-effect
       effect="skeletal"
       id="path-effect4490"
       is_visible="true"
       pattern="m 95.054236,0.02624778 c -7.77241,0.72284 -15.55638,0.59508 -23.34732,0.93083 -7.79095,0.33575002 -15.58849,-0.16545 -23.38728,0.0109 -7.7988,0.17634002 -15.59884,-0.96978 -23.39479,-0.72517 -7.79596,0.24461 -15.5878095,0.58027 -23.3702295,1.12082002 -2.15230001,-1.15612002 -2.01174001,3.78271 0.0625,2.4375 7.71127,-0.37053 15.4322995,-0.53042 23.1566795,-0.61261 7.72438,-0.0822 15.45212,1.213 23.1768,1.15327 7.72469,-0.0597 16.17001,-0.80459 23.88219,-1.10773 7.71218,-0.30315 14.69083,1.13589 22.3777,0.32345 1.40356,-0.22689 4.29984,-1.54077 3.09375,-3.21875002 C 96.643456,-0.08987222 95.800066,-5.9221925e-4 95.054236,0.02624778 Z"
       copytype="single_stretched"
       prop_scale="1"
       scale_y_rel="false"
       spacing="0"
       normal_offset="0"
       tang_offset="0"
       prop_units="false"
       vertical_pattern="false"
       fuse_tolerance="0" />
    <marker
       inkscape:stockid="CurveIn"
       orient="auto"
       refY="0"
       refX="0"
       id="CurveIn"
       style="overflow:visible"
       inkscape:isstock="true">
      <path
         inkscape:connector-curvature="0"
         id="path4736"
         d="m 4.625493,-5.0456926 c -2.76,0 -5.00000002,2.24 -5.00000002,5.00000002 0,2.75999998 2.24000002,4.99999998 5.00000002,4.99999998"
         style="fill:none;stroke:#000000;stroke-width:1pt;stroke-opacity:1"
         transform="scale(0.6,0.6)" />
    </marker>
    <marker
       inkscape:stockid="CurveOut"
       orient="auto"
       refY="0"
       refX="0"
       id="CurveOut"
       style="overflow:visible"
       inkscape:isstock="true">
      <path
         inkscape:connector-curvature="0"
         id="path4739"
         d="m -5.4129913,-5.0456926 c 2.76,0 4.99999999,2.24 4.99999999,5.00000002 0,2.75999998 -2.23999999,4.99999998 -4.99999999,4.99999998"
         style="fill:none;stroke:#000000;stroke-width:1pt;stroke-opacity:1"
         transform="scale(0.6,0.6)" />
    </marker>
  </defs>
  <sodipodi:namedview
     id="base"
     pagecolor="#ffffff"
     bordercolor="#666666"
     borderopacity="1.0"
     inkscape:pageopacity="0.0"
     inkscape:pageshadow="2"
     inkscape:zoom="0.78651685"
     inkscape:cx="373.10082"
     inkscape:cy="378.12062"
     inkscape:document-units="px"
     inkscape:current-layer="layer1"
     showgrid="false"
     fit-margin-top="0"
     fit-margin-left="0"
     fit-margin-right="0"
     fit-margin-bottom="0" />
  <metadata
     id="metadata6002">
    <rdf:RDF>
      <cc:Work
         rdf:about="">
        <dc:format>image/svg+xml</dc:format>
        <dc:type
           rdf:resource="http://purl.org/dc/dcmitype/StillImage" />
        <dc:title>Winter School -- Contact Topology</dc:title>
        <dc:date>2013</dc:date>
        <dc:creator>
          <cc:Agent>
            <dc:title>Marek Kaluba</dc:title>
          </cc:Agent>
        </dc:creator>
        <dc:rights>
          <cc:Agent>
            <dc:title>Marek Kaluba</dc:title>
          </cc:Agent>
        </dc:rights>
      </cc:Work>
    </rdf:RDF>
  </metadata>
  <g
     inkscape:label="Layer 1"
     inkscape:groupmode="layer"
     id="layer1"
     transform="translate(-1.8991774,-548.35592)">
    <g
       id="g5925"
       transform="translate(-2166.7421,1235.8195)">
      <path
         sodipodi:nodetypes="cc"
         inkscape:connector-curvature="0"
         id="path3481"
         d="m 2175.4461,-347.97856 0,-328.18502"
         style="fill:none;stroke:#000000;stroke-width:1px;stroke-linecap:butt;stroke-linejoin:miter;stroke-opacity:1;marker-start:url(#marker5612);marker-end:url(#InfiniteLineEnd)" />
      <path
         inkscape:original-d="m 2557.4711,-378.04381 c 0,0 -31.963,-49.2457 -20.8317,-71.51947 11.1313,-22.27377 22.7271,-7.47303 40.8985,-27.92732 18.1715,-20.45429 10.9368,-39.65116 21.4817,-51.45893 10.5449,-11.80777 62.0093,-17.61108 62.0093,-17.61108"
         inkscape:path-effect="#path-effect4490"
         sodipodi:nodetypes="czzzc"
         inkscape:connector-curvature="0"
         id="path4477"
         d="m 2654.3031,-547.64408 c -6.8683,1.36796 -13.7474,2.632 -20.6354,3.84902 -7.0572,1.55972 -14.124,3.31013 -20.9858,5.77248 -2.9181,1.04643 -5.8264,2.23808 -8.5983,3.75455 0,0 0,0 0,0 -2.1301,1.15007 -4.2724,2.55062 -5.9831,4.49773 -0.245,0.2852 -0.4813,0.57602 -0.7091,0.87198 -2.2529,2.92588 -3.7173,6.33214 -4.6857,9.78781 0,0 0,0 0,0 -1.169,4.14089 -1.8173,8.34101 -2.658,12.42801 0,0 0,0 0,0 -0.9747,4.7152 -2.2082,9.3614 -4.0743,13.71888 -2.2819,5.34627 -5.5048,10.27847 -9.3567,14.65461 -0.9431,1.06717 -1.9231,2.10353 -2.9424,3.09401 -2.7221,2.64527 -5.7788,4.90776 -9.1615,6.47557 -3.2147,1.51076 -6.7827,2.31417 -10.4106,3.14484 0,0 0,10e-6 0,10e-6 -3.3329,0.73903 -6.7934,1.74749 -9.8866,3.78904 -4.1952,2.86948 -7.1279,7.0899 -9.2928,11.38438 0,0 0,0 0,0 -1.6332,3.22194 -2.3794,6.7588 -2.538,10.21538 0,0 0,0 0,0 -0.055,1.13695 -0.056,2.27023 -0.01,3.39701 0.1152,2.76134 0.4935,5.48432 1.0245,8.14218 0,0 0,0 0,0 1.657,8.31494 4.684,16.2114 8.1668,23.77458 0,0 0,0 0,1e-5 3.0496,6.63233 6.509,13.05107 10.2559,19.27175 0,0 0,0 0,0 0.9677,1.52601 1.9365,3.0508 2.9066,4.57428 1.841,5.32089 5.8963,2.48109 2.0145,-1.3796 -0.9261,-1.48139 -1.851,-2.96397 -2.7747,-4.44766 0,0 0,0 0,0 -3.6528,-6.1795 -7.0121,-12.53827 -9.9562,-19.08789 0,0 0,0 0,0 -3.365,-7.49545 -6.2635,-15.21759 -7.7818,-23.22805 0,0 0,0 0,0 -0.4601,-2.43178 -0.7916,-4.88434 -0.9002,-7.33238 -0.052,-1.17581 -0.048,-2.35078 0.022,-3.52068 0,0 0,0 0,0 0.1946,-3.16448 0.8669,-6.30253 2.3062,-9.01108 0,0 0,0 0,0 2.1458,-4.03257 4.7847,-7.84714 8.3818,-10.1548 2.5313,-1.68892 5.6402,-2.50829 8.8487,-3.23489 0,0 0,0 0,0 3.6357,-0.78953 7.4168,-1.64526 11.0611,-3.30754 3.4593,-1.61148 6.5742,-3.80646 9.332,-6.34173 1.3565,-1.24704 2.6416,-2.58296 3.8533,-3.97798 3.9971,-4.57188 7.3516,-9.90158 9.6615,-15.70671 1.8511,-4.67641 2.9985,-9.5516 3.854,-14.38037 0,0 0,0 0,-10e-6 0.7537,-4.22139 1.2861,-8.37357 2.3298,-12.29761 0.9134,-3.40368 2.2823,-6.65612 4.3757,-9.26178 0.1451,-0.18069 0.2939,-0.35817 0.4463,-0.5323 1.4189,-1.65777 3.3693,-2.86482 5.3874,-3.94228 2.665,-1.40729 5.4838,-2.47301 8.3373,-3.40894 6.7887,-2.22494 13.702,-3.64284 20.7259,-5.00583 6.0651,-0.90593 12.1719,-1.92069 18.4388,-3.20271 2.9198,-0.66395 8.3545,-2.4987 8.1959,-3.76871 0,0 0,0 0,0 0,0 0,0 0,0 0,9e-5 0,1.6e-4 1e-4,2.2e-4 0,6e-5 0,1.2e-4 0,1.8e-4 0,3e-5 0,5e-5 0,8e-5 0,3e-5 0,6e-5 0,9e-5 0,6e-5 0,1.2e-4 0,1.8e-4 0,6e-5 0,1.2e-4 1e-4,1.8e-4 0,6e-5 0,1.2e-4 0,1.8e-4 0,3e-5 0,6e-5 0,9e-5 0,3e-5 0,6e-5 0,9e-5 0,5e-5 0,1.1e-4 0,1.7e-4 0,6e-5 0,1.2e-4 0,1.8e-4 10e-5,6e-5 10e-5,1.2e-4 10e-5,1.8e-4 0,3e-5 0,6e-5 0,9e-5 0,3e-5 0,6e-5 0,9e-5 0,6e-5 0,1.2e-4 0,1.8e-4 0,6e-5 0,1.2e-4 0,1.8e-4 1e-4,6e-5 1e-4,1.2e-4 1e-4,1.8e-4 0.1851,1.34852 0.1867,1.35998 -0,-0.013 0,-3e-5 0,-3e-5 0,-3e-5 -0.038,-0.25027 -0.2948,-0.47819 -0.8358,-0.67018 C 2658.3184,-548.41148 2656.1906,-547.97673 2654.3031,-547.64408 Z"
         style="fill:#666666;stroke:none" />
      <path
         id="path4477-5"
         d="m 2557.4416,-379.44648 c 0,0 -1.5299,-2.08369 -3.8585,-5.77647 -0.4526,-0.71763 -0.9354,-1.49718 -1.4425,-2.33634 -2.2672,-3.79014 -5.0204,-8.73252 -7.6468,-14.41273 -2.6264,-5.68021 -5.1162,-12.09884 -6.8212,-18.68721 -0.09,-0.28474 -0.1776,-0.56966 -0.2639,-0.85471 0,0 0,0 -10e-5,0 -2.2703,-7.76672 -3.5034,-15.54864 -2.5989,-22.14837 1.1248,-8.20748 5.824,-13.14683 11.82,-16.84769 5.9092,-3.63485 13.0595,-6.05894 19.6039,-9.19231 3.2722,-1.56668 6.3999,-3.31225 9.1971,-5.45604 2.7971,-2.1438 5.2639,-4.68928 7.2436,-7.79546 1.6439,-2.57938 2.9922,-5.33821 4.151,-8.16977 1.3607,-3.28386 2.313,-6.75551 3.1042,-10.22704 0.7911,-3.47154 1.4206,-6.94231 2.1252,-10.2643 1.4091,-6.64398 3.1241,-12.66233 6.9649,-17.33461 1.1657,-1.05183 2.4976,-1.9827 4.0382,-2.79124 0.013,-0.008 0.026,-0.0163 0.039,-0.0245 4.7347,-2.99382 12.5259,-5.61396 20.882,-7.76734 8.3561,-2.15337 17.2764,-3.85916 24.2759,-5.07568 7.5271,-1.27572 12.7742,-1.95232 12.7742,-1.95232 m -51.5058,82.95371 c -4.0842,5.65908 -8.2391,10.76396 -12.4566,15.11705 -4.1715,3.47516 -8.4249,6.06954 -12.7246,7.74654 -4.2996,1.677 -8.6448,2.44131 -12.9477,2.31827 -8.6058,-0.24608 -17.0785,-4.02931 -24.2204,-11.10881 0,0 0,0 0,0 -2.9117,-2.88358 -5.5954,-6.31748 -7.9359,-10.26443 -3.4762,-5.86224 -5.9125,-12.3914 -7.1973,-19.09322 -1.2848,-6.70182 -1.4133,-13.56658 -0.3407,-20.08383 0.6998,-5.54617 2.4741,-10.94996 5.2823,-15.94203 2.8082,-4.99207 6.6501,-9.57066 11.3984,-13.57228 0,0 0,0 0,0 2.5627,-2.15322 5.3879,-4.13971 8.4475,-5.94645 1.2931,-0.565 2.6225,-1.0943 3.9865,-1.58914 7.6085,-2.76021 15.5352,-4.2173 23.2452,-4.94521 7.7099,-0.72791 15.2082,-0.71358 22.037,-0.13815 6.4521,-0.31765 12.38,-0.12656 17.4023,0.63668 5.0223,0.76324 9.1353,2.08675 11.9563,4.27402 2.5203,1.95408 3.8035,4.46178 3.9949,7.65653 0.4445,4.99357 -0.7225,10.9333 -3.1297,17.62932 -2.4072,6.69603 -6.0428,14.15845 -10.6909,21.89444 C 2620.9342,-480.77529 2615.5749,-471.99307 2609.5227,-463.60687 z m -58.4856,-156.38288 c 9.1113,3.70086 18.0271,7.65763 26.768,11.77736 8.7408,4.11973 17.3075,8.40134 25.7667,12.70614 16.6996,7.79902 33.205,15.04719 50.4715,20.74392 9.6967,3.21219 19.4969,5.99749 29.429,8.30591 9.932,2.30841 19.9968,4.13658 30.1841,5.54621 0,0 0,0 0,0 11.682,1.60872 23.4002,2.8668 35.0742,4.12288 11.674,1.25607 23.3003,2.5089 34.8368,4.28623 0,10e-6 0,10e-6 0,10e-6 18.8246,2.98505 37.5545,7.53864 56.1926,16.31337 1.872,0.94335 3.7347,1.93667 5.5885,2.98331 m -316.3029,-60.35877 c 6.8479,2.3921 13.6823,4.81691 20.5154,7.2425 7.4609,2.69545 14.9214,5.38824 22.4119,8.02072 10.7585,3.79404 21.4409,7.52566 32.0614,11.03693 9.1554,2.28338 18.3543,4.26935 27.6265,5.90096 0,0 0,0 0,0 11.5508,2.02693 23.0988,3.68468 34.6093,5.05844 11.5105,1.37376 22.9817,2.46195 34.3716,3.47041 0,0 0,0 0,0 18.5695,1.75433 37.0993,3.53988 55.5267,6.92722 9.0244,1.75628 17.8793,3.94906 26.567,6.8271 11.7758,3.92011 23.316,9.02183 34.6062,16.00295 m -311.3091,-51.66429 c 6.2384,1.34431 12.5279,2.6943 18.8578,4.04526 0,0 0,0 0,10e-6 7.8018,1.63259 15.5858,3.22594 23.3431,4.75473 1.1056,0.21745 2.2097,0.43512 3.3122,0.65297 19.1173,3.86705 37.7692,7.77368 55.7248,11.53516 0,0 0,0 0,1e-5 3.6951,0.37751 7.379,0.73107 11.0508,1.06229 0,0 0,0 10e-5,0 18.6129,1.78702 37.0911,3.22199 55.4089,4.98055 9.2204,0.97393 18.3001,2.05605 27.2218,3.39283 0,0 0,0 0,0 15.6134,2.3792 30.9169,5.37518 45.8706,9.95388 14.9536,4.5787 29.5528,10.75464 43.8153,19.6267 m -307.5221,-50.57291 c 14.7784,1.66953 29.6545,3.47581 44.4291,5.4937 0,0 0,0 0,0 1.9733,0.24396 3.94,0.4898 5.8997,0.73756 6.9196,0.91333 13.7721,1.88299 20.5453,2.91413 12.6689,1.97599 25.0617,4.16178 37.1314,6.5728 5.6668,1.21821 11.2371,2.49606 16.7066,3.83496 0,0 0,0 0,0 3.7452,0.40742 7.4667,0.82315 11.1635,1.25152 0,0 0,0 0,0 17.4955,2.07227 34.6498,4.22819 51.4364,7.08074 16.7865,2.85255 33.2015,6.41013 49.2374,11.57707 0,0 0,0 0,0 15.7138,5.75011 31.0994,12.74206 46.1232,21.775 m -307.1842,-56.57443 c 13.9518,0.9854 27.9834,2.20111 41.9538,3.78984 9.0557,1.12592 18.0623,2.42744 26.9766,3.92827 2.1911,0.34489 4.3702,0.70131 6.5368,1.06956 0,0 0,0 0,0 6.3148,1.08759 12.5458,2.25677 18.6856,3.51133 17.9007,3.71286 35.0199,8.14955 51.289,13.30185 0,0 0,0 0,0 12.2895,1.95208 24.3835,4.06822 36.2858,6.50521 0,0 0,0 0,0 17.8161,4.48592 35.2734,9.44885 52.3755,15.50259 17.1021,6.05373 33.8473,13.20792 50.2263,22.22389 m -310.8319,-64.04094 c 0.3529,0.0228 0.7059,0.0457 1.059,0.0689 0,1e-5 0,1e-5 0,1e-5 2.2154,0.15013 4.4348,0.30682 6.6581,0.47095 14.1769,1.07498 28.3953,2.48291 42.5429,4.37911 14.1477,1.8962 28.2239,4.27901 42.0981,7.22044 0,0 0,0 0,0 8.5266,1.75575 16.8837,3.72238 25.0563,5.90394 3.0739,0.8281 6.122,1.68629 9.1438,2.57444 0,0 0,0 0,0 14.5497,4.8995 28.5295,10.36516 41.9382,16.32063 0,0 0,0 0,10e-6 16.1824,4.27487 32.0649,8.78418 47.6807,13.77201 15.6157,4.98782 30.9641,10.45761 46.0639,16.76174 9.1199,4.40283 18.1888,9.17236 27.2232,14.32539 m -316.4388,-71.84824 c 10.6174,0.48655 21.3133,1.17463 32.0799,2.15317 8.6985,0.8078 17.3979,1.81301 26.0754,3.04494 19.8221,3.52852 39.5833,8.10403 58.9611,13.81379 0,0 0,10e-6 0,10e-6 8.5861,2.56117 17.0033,5.34639 25.2395,8.34839 17.8718,6.54918 34.8883,14.12238 51.037,22.53127 0,0 0,0 0,10e-6 6.2567,1.96047 12.4711,3.95854 18.6465,6.00204 14.36,5.65998 28.5776,11.74173 42.7101,18.32034 14.1324,6.5786 28.1794,13.66524 42.201,21.22608 m -321.9254,-80.47542 c 18.4449,0.99519 37.173,2.76949 56.2006,5.57363 14.2701,2.13028 28.5835,4.86325 42.8286,8.25207 14.2451,3.38881 28.4209,7.43349 42.3918,12.14449 0,0 0,0 0,0 5.0185,1.73554 9.9787,3.56029 14.8776,5.47216 3.4213,1.53531 6.8152,3.12245 10.181,4.76 17.5624,8.57292 34.3549,18.52694 50.3711,29.55558 0,0 0,0 0,10e-6 14.7752,6.47875 29.4394,13.22652 44.0591,20.23306 14.6197,7.00653 29.1944,14.28241 43.7929,21.73483 m -326.7791,-87.14778 c 12.8407,0.21793 25.8301,0.88253 39.0129,2.0734 13.1827,1.19087 26.5585,2.90791 40.1121,5.22772 0.9262,0.16028 1.8527,0.32347 2.7794,0.48959 1e-4,0 1e-4,0 1e-4,1e-5 27.0644,6.06483 54.5333,15.18866 81.4341,27.26411 0,10e-6 0,10e-6 0,10e-6 8.5465,4.02284 16.9463,8.36255 25.1844,12.99619 17.8758,10.07782 34.9863,21.54675 51.2988,34.05822 0,0 10e-5,10e-6 10e-5,10e-6 14.2689,6.7107 28.4889,13.49001 42.7222,20.29906 0,1e-5 0,1e-5 0,1e-5 0.6163,0.29837 1.2329,0.59668 1.8498,0.89495 8.8704,4.53367 17.8256,9.03096 26.866,13.46764 m -330.5311,-93.42561 c 2.7195,-0.0486 5.446,-0.0745 8.181,-0.0776 0,0 0,0 0,0 3.5513,0.1109 7.1154,0.27662 10.6964,0.49624 12.9341,0.79112 26.0887,2.32757 39.5482,4.61111 13.4595,2.28355 27.2227,5.31281 41.2663,9.10018 0,0 10e-5,0 10e-5,1e-5 28.1421,7.64179 56.9421,18.44352 85.0115,32.20899 0,0 0,1e-5 0,1e-5 8.655,4.46849 17.1618,9.23711 25.5011,14.28611 4.7061,2.85421 9.3595,5.79734 13.9579,8.82515 0,0 0,0 0,10e-6 0.6333,0.41964 1.2659,0.84077 1.8977,1.26337 12.3168,8.65581 24.3906,17.83322 36.1602,27.43336 11.5732,5.34468 23.2376,10.54404 34.9945,15.60369 6.3736,2.73707 12.7672,5.39371 19.1817,7.97415 m -333.2735,-94.77869 c 12.9059,0.18848 26.0068,1.27552 39.5158,3.07797 12.7192,1.69356 25.7895,4.06768 39.2348,7.06811 13.4452,3.00043 27.2641,6.62622 41.3721,10.87794 0,0 0,0 0,10e-6 10.4135,3.15716 20.9146,6.66998 31.4229,10.53434 0,0 0,10e-6 0,10e-6 0.7612,0.284 1.5227,0.56973 2.2845,0.85719 16.984,6.92673 34.2757,14.6574 51.3288,23.20163 8.7609,4.6079 17.4141,9.44013 25.9156,14.49882 1.4274,0.8505 2.8506,1.70736 4.2694,2.57059 0,0 0,0 0,0 16.9643,10.29771 33.232,21.24187 48.6669,32.93649 6.4488,2.14967 12.897,4.21938 19.348,6.22527 4.7495,1.45282 9.484,2.86582 14.2079,4.24592 m -331.4268,-89.31568 c 9.3664,0.56309 18.8778,1.65587 28.6359,3.1163 9.7581,1.46042 19.7626,3.28755 30.0635,5.3665 4.9512,0.9973 9.9684,2.06127 15.0506,3.18573 0,1e-5 0,1e-5 0,1e-5 0.6909,0.15701 1.3834,0.3151 2.0773,0.47425 9.6551,2.58531 19.7495,5.3688 30.2018,8.30898 10.4523,2.94018 21.2613,6.0374 32.2956,9.30726 0,10e-6 0,10e-6 1e-4,10e-6 6.5884,1.96355 13.2308,3.99443 19.8909,6.09687 0,0 0,0 0,10e-6 22.169,6.9871 44.4577,14.3793 65.5349,22.81203 0,0 0,0 0,0 4.5821,1.88773 9.1028,3.82859 13.556,5.83195 3.9838,1.77024 7.9018,3.58679 11.7534,5.45723 17.7311,8.62152 34.0299,18.41502 49.0672,29.89131 3.8643,0.76845 7.7205,1.52517 11.573,2.27741 m -28.4383,1.41611 c 4.2244,1.11815 8.2356,2.04741 12.0285,2.75214 9.1354,-1.60826 17.1545,-3.9713 24.1055,-7.3714 6.9509,-3.4001 12.8329,-7.83858 17.7836,-13.49835 6.001,-6.85244 11.1193,-15.32448 16.0881,-25.25848 0,-10e-6 0,-10e-6 0,-2e-5 5.3426,-10.5262 10.6486,-22.06893 16.5865,-33.85102 0,-10e-6 0,-10e-6 0,-2e-5 0.151,-0.29704 0.3025,-0.59414 0.4544,-0.89129 3.9571,-7.35745 8.0068,-14.67995 12.2314,-21.78194 4.2247,-7.102 8.6245,-13.98314 13.2495,-20.5027 4.625,-6.51957 9.4752,-12.67731 14.5676,-18.38169 5.0924,-5.70438 10.4268,-10.95528 15.9869,-15.71306 8.204,-6.31833 16.843,-11.92895 25.9433,-16.92411 9.1002,-4.99516 18.6614,-9.3756 28.6535,-13.36494 0,0 0,0 0,-10e-6 7.626,-2.55629 15.4389,-4.9094 23.4291,-7.37906 7.9902,-2.46966 16.1579,-5.05696 24.4836,-8.15177 0,-10e-6 0,-10e-6 0,-10e-6 3.4524,-1.27953 6.9249,-2.64448 10.428,-4.13627 m -274.631,191.41449 c 7.5673,1.43577 14.3959,2.17507 20.4654,1.98461 6.0695,-0.19045 11.3798,-1.31134 15.9709,-3.53468 1.4972,-1.28379 2.9316,-2.64299 4.3054,-4.08064 6.4425,-6.7419 12.0046,-15.05944 17.3636,-24.88019 0,0 0,-10e-6 0,-10e-6 5.7549,-10.40628 11.41,-21.89302 17.6243,-33.76144 0,0 0,-1e-5 0,-1e-5 0.1573,-0.29907 0.315,-0.59828 0.4731,-0.89762 8.2275,-14.82466 16.7317,-29.6938 26.055,-43.31089 4.6616,-6.80855 9.5209,-13.31316 14.6017,-19.41233 5.0809,-6.09918 10.3833,-11.79275 15.9017,-17.02413 0,0 0,0 0,-10e-6 8.0927,-6.92818 16.5568,-13.19999 25.4207,-18.86283 8.8639,-5.66285 18.1274,-10.7174 27.7661,-15.32735 0,0 0,-10e-6 0,-10e-6 7.3977,-2.84132 14.9488,-5.35746 22.6428,-7.79281 7.694,-2.43536 15.5309,-4.79096 23.4912,-7.37104 0,0 0,0 0,0 4.2061,-1.34691 8.4143,-2.73359 12.6399,-4.22632 0,0 0,0 0,0 1.9825,-1.02861 3.9631,-2.11182 5.9466,-3.2648 m -270.9391,191.76429 c 1.5964,0.0931 3.1576,0.15077 4.6833,0.17021 10.5376,0.13791 19.3521,-1.57295 26.4832,-5.89272 6.1521,-3.76414 11.5092,-9.29466 16.655,-16.60112 0,-1e-5 0,-1e-5 0,-1e-5 1.2611,-1.76592 2.5157,-3.60453 3.7719,-5.5086 4.6933,-8.33306 9.4029,-17.22154 14.4072,-26.3782 0,0 0,-10e-6 0,-10e-6 0.1633,-0.29879 0.3269,-0.59777 0.4909,-0.89693 8.5235,-14.81727 17.2305,-29.80092 26.656,-43.70524 9.4255,-13.90431 19.5706,-26.72001 30.5525,-37.76433 1e-4,0 1e-4,-10e-6 1e-4,-10e-6 8.0267,-7.31624 16.3691,-14.02478 25.0553,-20.14309 8.6863,-6.11831 17.7161,-11.64697 27.0678,-16.70749 0,0 0,0 0,0 7.2041,-3.07211 14.531,-5.74702 21.9696,-8.21519 7.4387,-2.46818 14.9889,-4.7306 22.6309,-7.02954 0,0 0,0 0,0 4.0422,-1.19256 8.0645,-2.36018 12.0781,-3.55487 0,0 0,0 0,0 4.5653,-1.86425 9.0811,-3.85896 13.5996,-6.14127 m -268.3633,190.84881 c 1.4081,-0.16655 2.7977,-0.35977 4.1675,-0.58185 6.8703,-1.27218 12.9693,-3.42578 18.2932,-6.73051 1.8427,-1.15423 3.6284,-2.4321 5.3685,-3.83708 4.3905,-3.53812 8.4911,-7.88731 12.4862,-13.06574 0,0 0,-10e-6 0,-10e-6 5.9872,-7.66097 11.8655,-16.55939 18.1947,-26.16436 0,0 0,-10e-6 0,-10e-6 0.1578,-0.23908 0.316,-0.47852 0.4745,-0.71831 3.5682,-5.11663 7.1513,-10.35575 10.7977,-15.61256 7.0394,-11.54186 14.3117,-22.87314 22.0068,-33.49624 7.6951,-10.62311 15.8132,-20.53551 24.4008,-29.43346 0,-1e-5 0,-1e-5 0,-1e-5 7.9999,-7.53173 16.2688,-14.49773 24.8326,-20.89729 8.5638,-6.39956 17.422,-12.23319 26.5528,-17.59477 0,0 0,0 0,-10e-6 7.0495,-3.24105 14.1945,-6.04848 21.4228,-8.57682 7.2283,-2.52835 14.5399,-4.77855 21.9143,-6.9513 0,0 0,-1e-5 0,-1e-5 3.9032,-1.1225 7.7711,-2.18116 11.6118,-3.21844 0,0 0,0 0,0 5.8519,-2.01736 11.5798,-4.07559 17.2788,-6.45805 1.1961,-0.48582 2.3843,-0.9966 3.5665,-1.53376 m -268.8348,188.90101 c 5.0438,-1.90915 9.8345,-4.24803 14.323,-7.13421 4.5182,-2.9281 8.9045,-6.34525 13.2296,-10.29309 2.2856,-2.41141 4.5259,-5.01819 6.7431,-7.82387 0,-1e-5 0,-1e-5 0,-2e-5 4.475,-5.59388 8.9143,-11.69433 13.493,-18.15396 1.9625,-2.76384 3.9505,-5.59313 5.9762,-8.47521 0,0 0,-1e-5 0,-1e-5 0.1673,-0.23884 0.3348,-0.47797 0.5027,-0.71738 6.3859,-8.64438 12.8013,-17.53578 19.4376,-26.24084 6.6362,-8.70506 13.4945,-17.22038 20.6824,-25.20168 5.475,-6.95413 11.142,-13.54525 17.0103,-19.688 0,0 0,-1e-5 0,-1e-5 8.0039,-7.62206 16.2414,-14.71099 24.7331,-21.25652 8.4917,-6.54554 17.2372,-12.54811 26.2112,-18.08544 0,0 0,0 0,0 6.9368,-3.34761 13.9451,-6.24821 21.0112,-8.83516 7.0661,-2.58696 14.19,-4.86116 21.3501,-6.99874 0,0 0,0 0,0 3.7914,-1.10222 7.5362,-2.12054 11.2412,-3.09182 1e-4,0 1e-4,0 1e-4,0 5.8049,-1.81895 11.4623,-3.58095 17.0551,-5.53243 3.6184,-1.21006 7.1362,-2.61218 10.6013,-4.24102 m -270.9344,186.89888 c 1.9568,-1.37724 3.8736,-2.83599 5.7463,-4.38533 6.9084,-5.73662 13.6622,-12.5424 20.492,-20.57217 0,-1e-5 0,-1e-5 1e-4,-2e-5 7.3156,-8.50687 14.8394,-17.78508 22.9036,-27.4632 0,0 0,-10e-6 0,-10e-6 0.1865,-0.22461 0.3734,-0.44936 0.5606,-0.67424 0.011,-0.0159 0.023,-0.0317 0.034,-0.0476 7.1895,-9.58625 14.4245,-19.3211 21.9085,-28.72855 5.762,-7.22829 11.6712,-14.26166 17.7802,-20.92262 6.109,-6.66097 12.418,-12.94853 18.9401,-18.73899 0,-10e-6 0,-10e-6 1e-4,-10e-6 5.0362,-3.93646 10.1366,-7.70653 15.3075,-11.30176 11.278,-9.46362 22.9749,-17.93906 35.031,-25.56433 0,0 0,0 0,-10e-6 6.8666,-3.39825 13.7846,-6.34859 20.7384,-8.97457 6.9537,-2.62599 13.9431,-4.92847 20.9444,-7.07273 0,0 0,-10e-6 0,-10e-6 3.7081,-1.10509 7.3615,-2.11893 10.9662,-3.07597 0,0 0,0 0,0 5.7871,-1.74222 11.4137,-3.38683 16.9561,-5.16541 6.0066,-1.83361 11.6949,-4.15478 17.2785,-7.10947 m -274.1622,185.29311 c 1.4208,-1.52357 2.8439,-3.09252 4.2711,-4.70893 4.5906,-5.18441 9.203,-10.85671 13.9046,-17.06617 7.1962,-9.39777 14.7149,-19.422 22.8429,-29.73655 0,0 0,-10e-6 1e-4,-10e-6 0.1977,-0.25604 0.396,-0.51216 0.5947,-0.76836 10.6038,-13.04633 21.6471,-26.0386 33.3424,-38.01034 0,0 0,0 0,-1e-5 7.9345,-9.41369 16.169,-18.28506 24.7546,-26.30833 1.9593,-1.82647 3.9365,-3.60933 5.9314,-5.34614 8.001,-6.13488 16.1413,-11.82272 24.4211,-17.05564 8.2797,-5.23292 16.6983,-10.01033 25.2209,-14.41004 0.2168,-0.13872 0.4338,-0.27718 0.6509,-0.41537 6.838,-3.40657 13.7121,-6.36813 20.6037,-9.00649 6.8916,-2.63836 13.8005,-4.95432 20.7001,-7.11271 3.6544,-1.11246 7.2481,-2.13371 10.7865,-3.09821 5.7986,-1.72286 11.4289,-3.34363 16.9649,-5.09669 0,0 0,0 0,0 6.6983,-2.01547 12.9824,-4.6387 19.1494,-8.08101 1.561,-0.89176 3.1465,-1.89053 4.7557,-2.98961 m -277.5293,184.44137 c 3.4832,-4.75934 7.0156,-9.82761 10.6353,-15.22645 4.9543,-7.30477 10.1275,-14.90655 15.6295,-22.68472 2.1815,-3.07572 4.4104,-6.17794 6.6926,-9.29847 0,-10e-6 0,-10e-6 0,-2e-5 0.1912,-0.27322 0.3829,-0.54649 0.5751,-0.81981 9.95,-13.51147 20.4563,-26.88874 31.6857,-39.24961 11.2293,-12.36087 23.1893,-23.68903 35.8596,-33.38299 0.7739,-0.51813 1.5493,-1.03239 2.3263,-1.54277 0,0 0,0 0,-1e-5 8.5256,-6.52772 17.2122,-12.51454 26.0358,-17.96374 7.7842,-4.78845 15.6751,-9.15779 23.6299,-13.1731 11.8868,-4.39719 23.7412,-7.44104 35.4422,-9.96863 1.8178,-0.59555 3.6342,-1.17749 5.4487,-1.74928 3.6311,-1.1136 7.1968,-2.13895 10.702,-3.11213 5.8413,-1.71626 11.5083,-3.34366 17.0745,-5.13256 0,0 0,0 0,0 6.7362,-2.06096 13.0521,-4.76925 19.2572,-8.36823 3.7813,-2.24216 7.7026,-5.12473 11.7532,-8.54656 m -280.5944,184.77434 c 1.2406,-1.9503 2.4896,-3.94453 3.7491,-5.98354 6.618,-10.59413 13.6287,-21.84078 21.3544,-33.37807 0,0 0,-10e-6 0,-10e-6 0.1771,-0.28668 0.3547,-0.57345 0.5329,-0.8603 7.393,-11.37527 15.2559,-22.73821 23.707,-33.577 6.3349,-8.10161 12.9658,-15.90271 19.9078,-23.22828 6.942,-7.32558 14.1957,-14.17448 21.745,-20.42115 13.1281,-9.65145 26.8695,-18.04914 41.0292,-25.19075 0,-1e-5 0,-1e-5 0,-1e-5 5.2429,-3.08704 10.5295,-5.98341 15.8425,-8.70925 4.0719,-1.5546 8.14,-2.95051 12.1985,-4.21253 9.9981,-3.08347 19.9407,-5.33389 29.7209,-7.29962 3.642,-0.70325 7.2039,-1.32215 10.691,-1.89972 5.7757,-0.93605 11.3415,-1.82118 16.7761,-2.9528 1e-4,-1e-5 1e-4,-1e-5 1e-4,-1e-5 0.1049,-0.0338 0.2097,-0.0677 0.3145,-0.1017 0,0 0,-10e-6 0,-10e-6 6.8156,-2.10667 13.2041,-4.91616 19.4938,-8.72113 0,0 0,0 0,-10e-6 5.3894,-3.3287 11.0539,-7.98601 16.9681,-13.67405 0.7473,-0.72512 1.5071,-1.47077 2.2782,-2.2357 m -282.6656,186.21392 c 1.7367,-2.81496 3.4951,-5.68834 5.2829,-8.613 3.9704,-6.48317 8.0847,-13.21132 12.421,-20.09642 0,0 0,-1e-5 0,-2e-5 0.1598,-0.28994 0.3201,-0.5801 0.481,-0.87046 7.6439,-13.21443 15.9287,-26.67011 25.07,-39.48893 9.1414,-12.81882 19.1442,-24.9894 30.067,-35.84237 0,0 0,-10e-6 0,-10e-6 1.9797,-1.96122 3.9866,-3.87954 6.0201,-5.75222 9.0073,-7.50451 18.403,-14.3671 28.1265,-20.53976 9.7236,-6.17266 19.7756,-11.65407 30.0342,-16.50099 7.8797,-2.80994 15.8216,-5.06882 23.7624,-6.91612 7.2492,-2.05655 14.463,-3.72277 21.5878,-5.21004 2.4679,-0.49617 4.9004,-0.95114 7.2983,-1.37727 1.2564,-0.21925 2.5033,-0.4305 3.741,-0.6357 6.1567,-0.97653 12.0843,-1.86143 17.8535,-2.99384 0,0 0,0 0,0 6.9857,-1.26037 13.4681,-3.29072 19.8138,-6.54463 0,-10e-6 0,-10e-6 0,-10e-6 2.7438,-1.43715 5.5497,-3.25138 8.4179,-5.42053 2.8521,-2.38167 5.7676,-5.07341 8.7447,-8.03532 3.2353,-3.2455 6.6895,-6.88292 10.2624,-10.80415 M 2339.67,-397.71889 c 3.4503,-5.31947 6.9565,-10.91857 10.5889,-16.72711 0,-10e-6 0,-10e-6 0,-2e-5 0.1409,-0.27743 0.2823,-0.5553 0.4241,-0.83362 4.1894,-7.9195 8.6099,-16.13239 13.3418,-24.37784 5.9243,-10.30373 12.3333,-20.63484 19.3266,-30.53556 6.9934,-9.90073 14.5724,-19.36805 22.7623,-28.05457 9.4494,-9.2567 19.5492,-17.73846 30.2448,-25.3198 8.3996,-5.93188 17.1229,-11.30351 26.0834,-16.13364 7.8525,-3.31721 15.8291,-6.03332 23.8618,-8.27454 8.0327,-2.24123 16.1216,-4.00775 24.1717,-5.5101 4.2611,-0.76653 8.4532,-1.41302 12.5705,-1.98638 1.7171,-0.22024 3.422,-0.43123 5.1146,-0.6376 0,0 0,-10e-6 0,-10e-6 4.8381,-0.79795 9.55,-1.55733 14.1607,-2.44112 0,-10e-6 0,-10e-6 0,-10e-6 3.5816,-0.63193 7.039,-1.43598 10.4078,-2.47023 3.5401,-1.06848 6.9825,-2.38923 10.3796,-4.03296 0,0 0,0 0,0 5.6884,-2.81017 11.5843,-7.11476 17.684,-12.72338 5.8021,-5.37686 12.2363,-12.15916 18.7362,-19.78019 m -281.9512,193.41466 c 1.2294,-1.71533 2.4604,-3.476 3.697,-5.27821 0,-1e-5 0,-1e-5 0,-2e-5 0.1233,-0.24431 0.2468,-0.4894 0.3706,-0.73527 5.0944,-9.87933 10.5518,-20.90194 16.6545,-32.17677 6.1027,-11.27483 12.8532,-22.79533 20.4238,-33.81557 3.7263,-5.41591 7.6476,-10.70859 11.7711,-15.80751 7.6998,-8.98747 15.98,-17.41913 24.8251,-25.14749 8.8452,-7.72836 18.2566,-14.7521 28.1445,-21.03755 4.6022,-2.38338 9.2864,-4.53791 14.0407,-6.48114 10.9946,-4.46975 22.3114,-7.77525 33.6949,-10.39722 4.3163,-0.96483 8.5834,-1.78771 12.7936,-2.51337 7.3833,-1.19718 14.6109,-2.13677 21.6691,-3.19917 0,0 0,0 0,0 7.1289,-0.97596 13.8951,-2.3626 20.3934,-4.50967 1.1809,-0.46398 2.3539,-0.95872 3.5206,-1.48705 0,0 0,0 0,0 5.986,-2.76723 12.1476,-7.01973 18.4627,-12.59789 0.5244,-0.46682 1.0534,-0.94439 1.5865,-1.43239 4.1122,-3.73712 8.4697,-8.09591 12.8827,-12.9008 4.4131,-4.80489 8.881,-10.05515 13.2092,-15.53191 m -279.29,199.97503 c 5.2415,-9.60126 10.8507,-21.75485 17.4095,-34.62033 6.5588,-12.86549 14.0726,-26.4281 22.8573,-39.24673 0,-1e-5 0,-1e-5 0,-2e-5 5.6536,-7.96552 11.7361,-15.63241 18.2609,-22.88298 9.2835,-10.30191 19.4628,-19.72544 30.4438,-28.10252 7.2031,-4.65315 14.7029,-8.65231 22.4451,-12.05943 7.7422,-3.40711 15.7272,-6.22226 23.8626,-8.61225 3.053,-0.87582 6.0985,-1.6696 9.1333,-2.39478 1.2462,-0.29532 2.49,-0.579 3.7309,-0.85213 7.5238,-1.59298 14.9648,-2.82138 22.2959,-4.05816 0,0 0,0 0,0 8.8937,-1.38387 17.3439,-3.18703 25.4937,-6.06519 0,0 0,0 0,0 7.0033,-2.52419 14.1458,-6.46817 21.2669,-11.76096 3.3981,-2.54325 6.9107,-5.45058 10.4397,-8.66326 4.4321,-4.32377 8.9745,-9.16829 13.426,-14.33296 4.4516,-5.16467 8.8119,-10.64876 12.8727,-16.20355 0.2249,-0.3057 0.4488,-0.6116 0.6718,-0.91766 m -254.6101,210.77291 c 2.7709,0.49917 5.5589,1.0429 8.3675,1.62272 0,0 0,0 0,0 0.5784,0.11993 1.1578,0.24155 1.7383,0.36478 9.246,2.46849 19.1709,5.47936 29.8433,8.56303 10.6724,3.08366 22.0885,6.24005 34.1481,9.21716 1.4943,0.3682 2.9981,0.73465 4.511,1.09913 0,0 0,0 0,10e-6 12.1341,2.91955 24.8439,5.57791 37.8566,7.9724 13.0128,2.39448 26.326,4.53011 39.6033,6.62512 0,0 0,0 0,0 0.3128,0.0498 0.6256,0.0996 0.9382,0.14943 14.0192,2.1724 27.7574,4.29292 40.8883,6.71465 13.1309,2.42173 25.656,5.1509 37.3119,8.56418 0,1e-5 0,1e-5 0,1e-5 7.6683,2.25811 15.0167,4.85352 22.0567,7.89903 12.8453,5.56044 24.6559,12.63725 35.6388,21.67472"
         style="opacity:0.3;fill:none;stroke:#000000;stroke-width:1px;stroke-linecap:butt;stroke-linejoin:miter;stroke-opacity:1"
         inkscape:connector-curvature="0" />
      <path
         sodipodi:nodetypes="ccccc"
         inkscape:connector-curvature="0"
         id="rect3483"
         d="m 2571.2336,-668.14055 295.4379,83.18381 L 2614.9713,-369.6639 2318.6038,-452.05273 Z"
         style="opacity:0.5;fill:#0000ff;fill-opacity:1;fill-rule:nonzero;stroke:none" />
      <path
         transform="matrix(0.67680722,0,0,0.67680722,581.67044,-40.130472)"
         d="m 2978.9474,-707.77856 c 0,3.12015 -2.5294,5.64953 -5.6495,5.64953 -3.1202,0 -5.6496,-2.52938 -5.6496,-5.64953 0,-3.12016 2.5294,-5.64954 5.6496,-5.64954 C 2976.418,-713.4281 2978.9474,-710.89872 2978.9474,-707.77856 Z"
         sodipodi:ry="5.6495328"
         sodipodi:rx="5.6495328"
         sodipodi:cy="-707.77856"
         sodipodi:cx="2973.2979"
         id="path4542"
         style="fill:#000000;fill-opacity:1;fill-rule:nonzero;stroke:none"
         sodipodi:type="arc" />
      <path
         sodipodi:nodetypes="cc"
         inkscape:connector-curvature="0"
         id="path4544"
         d="m 2594.0199,-519.16011 23.5246,-73.12193"
         style="fill:none;stroke:#000000;stroke-width:1px;stroke-linecap:butt;stroke-linejoin:miter;stroke-opacity:1" />
      <path
         sodipodi:nodetypes="cc"
         transform="translate(5.6387085,301.66294)"
         inkscape:connector-curvature="0"
         id="path4546"
         d="m 2169.8074,-693.00144 0,-220.13929"
         style="fill:none;stroke:#000000;stroke-width:2;stroke-linecap:round;stroke-linejoin:miter;stroke-miterlimit:4;stroke-opacity:1;stroke-dasharray:none;stroke-dashoffset:20;marker-start:url(#CurveIn);marker-end:url(#CurveOut)" />
      <text
         transform="translate(5.6387085,301.66294)"
         sodipodi:linespacing="125%"
         id="text5885"
         y="-683.73602"
         x="2183.592"
         style="font-size:15px;font-style:normal;font-variant:normal;font-weight:500;font-stretch:normal;text-align:start;line-height:125%;letter-spacing:0px;word-spacing:0px;writing-mode:lr-tb;text-anchor:start;fill:#000000;fill-opacity:1;stroke:none;font-family:CMU Serif;-inkscape-font-specification:CMU Serif Medium"
         xml:space="preserve"><tspan
           id="tspan5889"
           y="-683.73602"
           x="2183.592"
           sodipodi:role="line">-\varepsilon</tspan></text>
      <text
         xml:space="preserve"
         style="font-size:15px;font-style:normal;font-variant:normal;font-weight:500;font-stretch:normal;text-align:start;line-height:125%;letter-spacing:0px;word-spacing:0px;writing-mode:lr-tb;text-anchor:start;fill:#000000;fill-opacity:1;stroke:none;font-family:CMU Serif;-inkscape-font-specification:CMU Serif Medium"
         x="2189.2307"
         y="-602.07312"
         id="text5893"
         sodipodi:linespacing="125%"><tspan
           sodipodi:role="line"
           x="2189.2307"
           y="-602.07312"
           id="tspan5895">\varepsilon</tspan></text>
      <path
         sodipodi:nodetypes="cc"
         transform="translate(5.6387085,301.66294)"
         inkscape:connector-curvature="0"
         id="path5899"
         d="m 2186.7987,-809.73097 c 37.0834,-14.56707 80.8989,-20.51056 145.658,0.37409"
         style="fill:none;stroke:#000000;stroke-width:1px;stroke-linecap:butt;stroke-linejoin:miter;stroke-opacity:1" />
      <text
         transform="translate(5.6387085,301.66294)"
         sodipodi:linespacing="125%"
         id="text5901"
         y="-835.27551"
         x="2244.4167"
         style="font-size:15px;font-style:normal;font-variant:normal;font-weight:500;font-stretch:normal;text-align:start;line-height:125%;letter-spacing:0px;word-spacing:0px;writing-mode:lr-tb;text-anchor:start;fill:#000000;fill-opacity:1;stroke:none;font-family:CMU Serif;-inkscape-font-specification:CMU Serif Medium"
         xml:space="preserve"><tspan
           y="-835.27551"
           x="2244.4167"
           id="tspan5903"
           sodipodi:role="line">\alpha_v(t)</tspan></text>
      <text
         transform="translate(5.6387085,301.66294)"
         sodipodi:linespacing="125%"
         id="text5905"
         y="-804.64502"
         x="2593.4216"
         style="font-size:15px;font-style:normal;font-variant:normal;font-weight:500;font-stretch:normal;text-align:start;line-height:125%;letter-spacing:0px;word-spacing:0px;writing-mode:lr-tb;text-anchor:start;fill:#000000;fill-opacity:1;stroke:none;font-family:CMU Serif;-inkscape-font-specification:CMU Serif Medium"
         xml:space="preserve"><tspan
           id="tspan5909"
           y="-804.64502"
           x="2593.4216"
           sodipodi:role="line">p=\alpha_v(0)</tspan></text>
      <text
         transform="translate(5.6387085,301.66294)"
         sodipodi:linespacing="125%"
         id="text5913"
         y="-888.40192"
         x="2617.3208"
         style="font-size:15px;font-style:normal;font-variant:normal;font-weight:500;font-stretch:normal;text-align:start;line-height:125%;letter-spacing:0px;word-spacing:0px;writing-mode:lr-tb;text-anchor:start;fill:#000000;fill-opacity:1;stroke:none;font-family:CMU Serif;-inkscape-font-specification:CMU Serif Medium"
         xml:space="preserve"><tspan
           y="-888.40192"
           x="2617.3208"
           id="tspan5915"
           sodipodi:role="line">v=\alpha_v'(0)</tspan></text>
      <text
         sodipodi:linespacing="125%"
         id="text5917"
         y="-659.78339"
         x="2632.3198"
         style="font-size:15px;font-style:normal;font-variant:normal;font-weight:500;font-stretch:normal;text-align:start;line-height:125%;letter-spacing:0px;word-spacing:0px;writing-mode:lr-tb;text-anchor:start;fill:#000000;fill-opacity:1;stroke:none;font-family:CMU Serif;-inkscape-font-specification:CMU Serif Medium"
         xml:space="preserve"><tspan
           y="-659.78339"
           x="2632.3198"
           id="tspan5919"
           sodipodi:role="line">T_pM</tspan></text>
      <text
         transform="translate(5.6387085,301.66294)"
         sodipodi:linespacing="125%"
         id="text5921"
         y="-626.99963"
         x="2463.6465"
         style="font-size:15px;font-style:normal;font-variant:normal;font-weight:500;font-stretch:normal;text-align:start;line-height:125%;letter-spacing:0px;word-spacing:0px;writing-mode:lr-tb;text-anchor:start;fill:#000000;fill-opacity:1;stroke:none;font-family:CMU Serif;-inkscape-font-specification:CMU Serif Medium"
         xml:space="preserve"><tspan
           y="-626.99963"
           x="2463.6465"
           id="tspan5923"
           sodipodi:role="line">M</tspan></text>
    </g>
  </g>
</svg>
