<?xml version="1.0" encoding="UTF-8" standalone="no"?>
<!-- Created with Inkscape (http://www.inkscape.org/) -->

<svg
   xmlns:dc="http://purl.org/dc/elements/1.1/"
   xmlns:cc="http://creativecommons.org/ns#"
   xmlns:rdf="http://www.w3.org/1999/02/22-rdf-syntax-ns#"
   xmlns:svg="http://www.w3.org/2000/svg"
   xmlns="http://www.w3.org/2000/svg"
   xmlns:sodipodi="http://sodipodi.sourceforge.net/DTD/sodipodi-0.dtd"
   xmlns:inkscape="http://www.inkscape.org/namespaces/inkscape"
   width="1120.0555"
   height="357.04379"
   id="svg2555"
   version="1.1"
   inkscape:version="0.48+devel r"
   sodipodi:docname="torus-rotation-non-equal-paths.svg">
  <title
     id="title3103">Winter School -- Contact Topology</title>
  <defs
     id="defs2557">
    <inkscape:path-effect
       fuse_tolerance="0"
       vertical_pattern="false"
       prop_units="false"
       tang_offset="0"
       normal_offset="0"
       spacing="0"
       scale_y_rel="false"
       prop_scale="1"
       copytype="single_stretched"
       pattern="m -1799.5911,3271.2518 c -7.7724,0.7229 -15.5563,0.5951 -23.3473,0.9309 -7.7909,0.3357 -15.5885,-0.1655 -23.3873,0.011 -7.7988,0.1763 -15.5988,-0.9698 -23.3948,-0.7252 -7.7959,0.2446 -15.5878,0.5803 -23.3702,1.1208 -2.1523,-1.1561 -2.0117,3.7827 0.063,2.4375 7.7113,-0.3705 15.4323,-0.5304 23.1567,-0.6126 7.7244,-0.082 15.4521,1.213 23.1768,1.1533 7.7247,-0.06 16.17,-0.8046 23.8822,-1.1077 7.7122,-0.3032 14.6908,1.1358 22.3777,0.3234 1.4035,-0.2269 4.2998,-1.5408 3.0937,-3.2187 C -1798.0018,3271.1357 -1798.8452,3271.225 -1799.5911,3271.2518 Z"
       is_visible="true"
       id="path-effect1738-1"
       effect="skeletal" />
    <inkscape:path-effect
       effect="skeletal"
       id="path-effect4799-3"
       is_visible="true"
       pattern="m -2209.3555,4661.2625 c -7.7724,0.7229 -15.5563,0.5951 -23.3473,0.9309 -7.7909,0.3357 -15.5885,-0.1655 -23.3873,0.011 -7.7988,0.1763 -15.5988,-0.9698 -23.3948,-0.7252 -7.7959,0.2446 -15.5878,0.5803 -23.3702,1.1208 -2.1523,-1.1561 -2.0117,3.7827 0.063,2.4375 7.7113,-0.3705 15.4323,-0.5304 23.1567,-0.6126 7.7244,-0.082 15.4521,1.213 23.1768,1.1533 7.7247,-0.06 16.17,-0.8046 23.8822,-1.1077 7.7122,-0.3032 14.6908,1.1358 22.3777,0.3234 1.4035,-0.2269 4.2998,-1.5408 3.0937,-3.2187 C -2207.7662,4661.1464 -2208.6096,4661.2357 -2209.3555,4661.2625 Z"
       copytype="single_stretched"
       prop_scale="0.95"
       scale_y_rel="false"
       spacing="0"
       normal_offset="0"
       tang_offset="0"
       prop_units="false"
       vertical_pattern="false"
       fuse_tolerance="0" />
    <inkscape:path-effect
       fuse_tolerance="0"
       vertical_pattern="false"
       prop_units="false"
       tang_offset="0"
       normal_offset="0"
       spacing="0"
       scale_y_rel="false"
       prop_scale="1"
       copytype="single_stretched"
       pattern="m -2169.3047,4598.2119 c -7.7724,0.7229 -15.5563,0.5951 -23.3473,0.9309 -7.7909,0.3357 -15.5885,-0.1655 -23.3873,0.011 -7.7988,0.1763 -15.5988,-0.9698 -23.3948,-0.7252 -7.7959,0.2446 -15.5878,0.5803 -23.3702,1.1208 -2.1523,-1.1561 -2.0117,3.7827 0.063,2.4375 7.7113,-0.3705 15.4323,-0.5304 23.1567,-0.6126 7.7244,-0.082 15.4521,1.213 23.1768,1.1533 7.7247,-0.06 16.17,-0.8046 23.8822,-1.1077 7.7122,-0.3032 14.6908,1.1358 22.3777,0.3234 1.4035,-0.2269 4.2998,-1.5408 3.0937,-3.2187 C -2167.7154,4598.0958 -2168.5588,4598.1851 -2169.3047,4598.2119 Z"
       is_visible="true"
       id="path-effect2383"
       effect="skeletal" />
    <inkscape:path-effect
       fuse_tolerance="0"
       vertical_pattern="false"
       prop_units="false"
       tang_offset="0"
       normal_offset="0"
       spacing="0"
       scale_y_rel="false"
       prop_scale="1"
       copytype="single_stretched"
       pattern="m -2169.3047,4598.2119 c -7.7724,0.7229 -15.5563,0.5951 -23.3473,0.9309 -7.7909,0.3357 -15.5885,-0.1655 -23.3873,0.011 -7.7988,0.1763 -15.5988,-0.9698 -23.3948,-0.7252 -7.7959,0.2446 -15.5878,0.5803 -23.3702,1.1208 -2.1523,-1.1561 -2.0117,3.7827 0.063,2.4375 7.7113,-0.3705 15.4323,-0.5304 23.1567,-0.6126 7.7244,-0.082 15.4521,1.213 23.1768,1.1533 7.7247,-0.06 16.17,-0.8046 23.8822,-1.1077 7.7122,-0.3032 14.6908,1.1358 22.3777,0.3234 1.4035,-0.2269 4.2998,-1.5408 3.0937,-3.2187 C -2167.7154,4598.0958 -2168.5588,4598.1851 -2169.3047,4598.2119 Z"
       is_visible="true"
       id="path-effect2513"
       effect="skeletal" />
    <inkscape:path-effect
       fuse_tolerance="0"
       vertical_pattern="false"
       prop_units="false"
       tang_offset="0"
       normal_offset="0"
       spacing="0"
       scale_y_rel="false"
       prop_scale="1"
       copytype="single_stretched"
       pattern="m -2169.3047,4598.2119 c -7.7724,0.7229 -15.5563,0.5951 -23.3473,0.9309 -7.7909,0.3357 -15.5885,-0.1655 -23.3873,0.011 -7.7988,0.1763 -15.5988,-0.9698 -23.3948,-0.7252 -7.7959,0.2446 -15.5878,0.5803 -23.3702,1.1208 -2.1523,-1.1561 -2.0117,3.7827 0.063,2.4375 7.7113,-0.3705 15.4323,-0.5304 23.1567,-0.6126 7.7244,-0.082 15.4521,1.213 23.1768,1.1533 7.7247,-0.06 16.17,-0.8046 23.8822,-1.1077 7.7122,-0.3032 14.6908,1.1358 22.3777,0.3234 1.4035,-0.2269 4.2998,-1.5408 3.0937,-3.2187 C -2167.7154,4598.0958 -2168.5588,4598.1851 -2169.3047,4598.2119 Z"
       is_visible="true"
       id="path-effect2515"
       effect="skeletal" />
    <inkscape:path-effect
       effect="skeletal"
       id="path-effect2517"
       is_visible="true"
       pattern="m -2209.3555,4661.2625 c -7.7724,0.7229 -15.5563,0.5951 -23.3473,0.9309 -7.7909,0.3357 -15.5885,-0.1655 -23.3873,0.011 -7.7988,0.1763 -15.5988,-0.9698 -23.3948,-0.7252 -7.7959,0.2446 -15.5878,0.5803 -23.3702,1.1208 -2.1523,-1.1561 -2.0117,3.7827 0.063,2.4375 7.7113,-0.3705 15.4323,-0.5304 23.1567,-0.6126 7.7244,-0.082 15.4521,1.213 23.1768,1.1533 7.7247,-0.06 16.17,-0.8046 23.8822,-1.1077 7.7122,-0.3032 14.6908,1.1358 22.3777,0.3234 1.4035,-0.2269 4.2998,-1.5408 3.0937,-3.2187 C -2207.7662,4661.1464 -2208.6096,4661.2357 -2209.3555,4661.2625 Z"
       copytype="single_stretched"
       prop_scale="0.95"
       scale_y_rel="false"
       spacing="0"
       normal_offset="0"
       tang_offset="0"
       prop_units="false"
       vertical_pattern="false"
       fuse_tolerance="0" />
    <inkscape:path-effect
       effect="skeletal"
       id="path-effect2519"
       is_visible="true"
       pattern="m -2209.3555,4661.2625 c -7.7724,0.7229 -15.5563,0.5951 -23.3473,0.9309 -7.7909,0.3357 -15.5885,-0.1655 -23.3873,0.011 -7.7988,0.1763 -15.5988,-0.9698 -23.3948,-0.7252 -7.7959,0.2446 -15.5878,0.5803 -23.3702,1.1208 -2.1523,-1.1561 -2.0117,3.7827 0.063,2.4375 7.7113,-0.3705 15.4323,-0.5304 23.1567,-0.6126 7.7244,-0.082 15.4521,1.213 23.1768,1.1533 7.7247,-0.06 16.17,-0.8046 23.8822,-1.1077 7.7122,-0.3032 14.6908,1.1358 22.3777,0.3234 1.4035,-0.2269 4.2998,-1.5408 3.0937,-3.2187 C -2207.7662,4661.1464 -2208.6096,4661.2357 -2209.3555,4661.2625 Z"
       copytype="single_stretched"
       prop_scale="0.95"
       scale_y_rel="false"
       spacing="0"
       normal_offset="0"
       tang_offset="0"
       prop_units="false"
       vertical_pattern="false"
       fuse_tolerance="0" />
    <inkscape:path-effect
       effect="skeletal"
       id="path-effect4790-4"
       is_visible="true"
       pattern="m -2209.3555,4661.2625 c -7.7724,0.7229 -15.5563,0.5951 -23.3473,0.9309 -7.7909,0.3357 -15.5885,-0.1655 -23.3873,0.011 -7.7988,0.1763 -15.5988,-0.9698 -23.3948,-0.7252 -7.7959,0.2446 -15.5878,0.5803 -23.3702,1.1208 -2.1523,-1.1561 -2.0117,3.7827 0.063,2.4375 7.7113,-0.3705 15.4323,-0.5304 23.1567,-0.6126 7.7244,-0.082 15.4521,1.213 23.1768,1.1533 7.7247,-0.06 16.17,-0.8046 23.8822,-1.1077 7.7122,-0.3032 14.6908,1.1358 22.3777,0.3234 1.4035,-0.2269 4.2998,-1.5408 3.0937,-3.2187 C -2207.7662,4661.1464 -2208.6096,4661.2357 -2209.3555,4661.2625 Z"
       copytype="single_stretched"
       prop_scale="1"
       scale_y_rel="false"
       spacing="0"
       normal_offset="0"
       tang_offset="0"
       prop_units="false"
       vertical_pattern="false"
       fuse_tolerance="0" />
    <inkscape:path-effect
       effect="skeletal"
       id="path-effect4782-4"
       is_visible="true"
       pattern="m -2209.3555,4661.2625 c -7.7724,0.7229 -15.5563,0.5951 -23.3473,0.9309 -7.7909,0.3357 -15.5885,-0.1655 -23.3873,0.011 -7.7988,0.1763 -15.5988,-0.9698 -23.3948,-0.7252 -7.7959,0.2446 -15.5878,0.5803 -23.3702,1.1208 -2.1523,-1.1561 -2.0117,3.7827 0.063,2.4375 7.7113,-0.3705 15.4323,-0.5304 23.1567,-0.6126 7.7244,-0.082 15.4521,1.213 23.1768,1.1533 7.7247,-0.06 16.17,-0.8046 23.8822,-1.1077 7.7122,-0.3032 14.6908,1.1358 22.3777,0.3234 1.4035,-0.2269 4.2998,-1.5408 3.0937,-3.2187 C -2207.7662,4661.1464 -2208.6096,4661.2357 -2209.3555,4661.2625 Z"
       copytype="single_stretched"
       prop_scale="1"
       scale_y_rel="false"
       spacing="0"
       normal_offset="0"
       tang_offset="0"
       prop_units="false"
       vertical_pattern="false"
       fuse_tolerance="0" />
    <inkscape:path-effect
       fuse_tolerance="0"
       vertical_pattern="false"
       prop_units="false"
       tang_offset="0"
       normal_offset="0"
       spacing="0"
       scale_y_rel="false"
       prop_scale="1"
       copytype="single_stretched"
       pattern="m -2209.3555,4661.2625 c -7.7724,0.7229 -15.5563,0.5951 -23.3473,0.9309 -7.7909,0.3357 -15.5885,-0.1655 -23.3873,0.011 -7.7988,0.1763 -15.5988,-0.9698 -23.3948,-0.7252 -7.7959,0.2446 -15.5878,0.5803 -23.3702,1.1208 -2.1523,-1.1561 -2.0117,3.7827 0.063,2.4375 7.7113,-0.3705 15.4323,-0.5304 23.1567,-0.6126 7.7244,-0.082 15.4521,1.213 23.1768,1.1533 7.7247,-0.06 16.17,-0.8046 23.8822,-1.1077 7.7122,-0.3032 14.6908,1.1358 22.3777,0.3234 1.4035,-0.2269 4.2998,-1.5408 3.0937,-3.2187 C -2207.7662,4661.1464 -2208.6096,4661.2357 -2209.3555,4661.2625 Z"
       is_visible="true"
       id="path-effect2378"
       effect="skeletal" />
    <inkscape:path-effect
       effect="skeletal"
       id="path-effect2524"
       is_visible="true"
       pattern="m -2209.3555,4661.2625 c -7.7724,0.7229 -15.5563,0.5951 -23.3473,0.9309 -7.7909,0.3357 -15.5885,-0.1655 -23.3873,0.011 -7.7988,0.1763 -15.5988,-0.9698 -23.3948,-0.7252 -7.7959,0.2446 -15.5878,0.5803 -23.3702,1.1208 -2.1523,-1.1561 -2.0117,3.7827 0.063,2.4375 7.7113,-0.3705 15.4323,-0.5304 23.1567,-0.6126 7.7244,-0.082 15.4521,1.213 23.1768,1.1533 7.7247,-0.06 16.17,-0.8046 23.8822,-1.1077 7.7122,-0.3032 14.6908,1.1358 22.3777,0.3234 1.4035,-0.2269 4.2998,-1.5408 3.0937,-3.2187 C -2207.7662,4661.1464 -2208.6096,4661.2357 -2209.3555,4661.2625 Z"
       copytype="single_stretched"
       prop_scale="0.95"
       scale_y_rel="false"
       spacing="0"
       normal_offset="0"
       tang_offset="0"
       prop_units="false"
       vertical_pattern="false"
       fuse_tolerance="0" />
    <inkscape:path-effect
       effect="skeletal"
       id="path-effect2526"
       is_visible="true"
       pattern="m -2209.3555,4661.2625 c -7.7724,0.7229 -15.5563,0.5951 -23.3473,0.9309 -7.7909,0.3357 -15.5885,-0.1655 -23.3873,0.011 -7.7988,0.1763 -15.5988,-0.9698 -23.3948,-0.7252 -7.7959,0.2446 -15.5878,0.5803 -23.3702,1.1208 -2.1523,-1.1561 -2.0117,3.7827 0.063,2.4375 7.7113,-0.3705 15.4323,-0.5304 23.1567,-0.6126 7.7244,-0.082 15.4521,1.213 23.1768,1.1533 7.7247,-0.06 16.17,-0.8046 23.8822,-1.1077 7.7122,-0.3032 14.6908,1.1358 22.3777,0.3234 1.4035,-0.2269 4.2998,-1.5408 3.0937,-3.2187 C -2207.7662,4661.1464 -2208.6096,4661.2357 -2209.3555,4661.2625 Z"
       copytype="single_stretched"
       prop_scale="0.95"
       scale_y_rel="false"
       spacing="0"
       normal_offset="0"
       tang_offset="0"
       prop_units="false"
       vertical_pattern="false"
       fuse_tolerance="0" />
    <inkscape:path-effect
       effect="skeletal"
       id="path-effect2528"
       is_visible="true"
       pattern="m -2209.3555,4661.2625 c -7.7724,0.7229 -15.5563,0.5951 -23.3473,0.9309 -7.7909,0.3357 -15.5885,-0.1655 -23.3873,0.011 -7.7988,0.1763 -15.5988,-0.9698 -23.3948,-0.7252 -7.7959,0.2446 -15.5878,0.5803 -23.3702,1.1208 -2.1523,-1.1561 -2.0117,3.7827 0.063,2.4375 7.7113,-0.3705 15.4323,-0.5304 23.1567,-0.6126 7.7244,-0.082 15.4521,1.213 23.1768,1.1533 7.7247,-0.06 16.17,-0.8046 23.8822,-1.1077 7.7122,-0.3032 14.6908,1.1358 22.3777,0.3234 1.4035,-0.2269 4.2998,-1.5408 3.0937,-3.2187 C -2207.7662,4661.1464 -2208.6096,4661.2357 -2209.3555,4661.2625 Z"
       copytype="single_stretched"
       prop_scale="0.95"
       scale_y_rel="false"
       spacing="0"
       normal_offset="0"
       tang_offset="0"
       prop_units="false"
       vertical_pattern="false"
       fuse_tolerance="0" />
  </defs>
  <sodipodi:namedview
     id="base"
     pagecolor="#ffffff"
     bordercolor="#666666"
     borderopacity="1.0"
     inkscape:pageopacity="0.0"
     inkscape:pageshadow="2"
     inkscape:zoom="0.41015625"
     inkscape:cx="407.47432"
     inkscape:cy="179.14108"
     inkscape:document-units="px"
     inkscape:current-layer="layer1"
     showgrid="false"
     fit-margin-top="0"
     fit-margin-left="0"
     fit-margin-right="0"
     fit-margin-bottom="0" />
  <metadata
     id="metadata2560">
    <rdf:RDF>
      <cc:Work
         rdf:about="">
        <dc:format>image/svg+xml</dc:format>
        <dc:type
           rdf:resource="http://purl.org/dc/dcmitype/StillImage" />
        <dc:title>Winter School -- Contact Topology</dc:title>
        <dc:date>2013</dc:date>
        <dc:creator>
          <cc:Agent>
            <dc:title>Marek Kaluba</dc:title>
          </cc:Agent>
        </dc:creator>
        <dc:rights>
          <cc:Agent>
            <dc:title>Marek Kaluba</dc:title>
          </cc:Agent>
        </dc:rights>
      </cc:Work>
    </rdf:RDF>
  </metadata>
  <g
     inkscape:label="Layer 1"
     inkscape:groupmode="layer"
     id="layer1"
     transform="translate(430.80877,-416.69739)">
    <g
       transform="translate(4537.8125,-1856.4436)"
       id="g2474">
      <g
         id="g1961-2-8"
         transform="translate(-2833.9239,-149.55791)">
        <path
           style="fill:none;stroke:#000000;stroke-width:1px;stroke-linecap:butt;stroke-linejoin:miter;stroke-opacity:1"
           d="m -2134.6966,2748.6554 386.1764,-0.594"
           id="path1880-3-0"
           inkscape:connector-curvature="0"
           sodipodi:nodetypes="cc" />
        <path
           style="fill:none;stroke:#000000;stroke-width:1px;stroke-linecap:butt;stroke-linejoin:miter;stroke-opacity:1"
           d="m -2105.6782,2779.7419 0.5698,-357.0422"
           id="path1882-7-1"
           inkscape:connector-curvature="0"
           sodipodi:nodetypes="cc" />
      </g>
      <rect
         y="2351.2512"
         x="-4939.1567"
         height="247.4265"
         width="243.2903"
         id="rect1989-6"
         style="opacity:0.15;color:#000000;color-interpolation:sRGB;color-interpolation-filters:linearRGB;fill:#ffff00;fill-opacity:1;fill-rule:nonzero;stroke:none;stroke-width:1;marker:none;visibility:visible;display:inline;overflow:visible;enable-background:accumulate;clip-rule:nonzero" />
      <path
         inkscape:original-d="m -4939.1569,2351.2513 243.2903,0 0,247.4265 L -4939.1569,2598.6778 Z"
         inkscape:path-effect="#path-effect1738-1"
         id="rect1991-3"
         d="m -4941.192,2376.8813 c 0.4842,37.0817 0.7221,74.1329 0.9108,111.2073 0.1887,37.0744 0.3282,74.1721 0.4912,111.2223 4.3253,-0.01 8.6505,-0.016 12.9756,-0.026 38.6422,-0.082 77.1612,-0.064 115.7466,-0.034 38.5854,0.03 77.2373,0.071 115.8081,0.034 -0,-1.6061 -0,-3.2122 -0.01,-4.8185 -0.022,-19.7238 -0,-39.4015 0.037,-59.0914 0.039,-19.69 0.099,-39.3922 0.1574,-59.1247 0.059,-19.7325 0.1159,-39.4953 0.1511,-59.2661 0.035,-19.7708 0.048,-39.5496 0.017,-59.2738 -0,-2.4709 -0.01,-4.9415 -0.012,-7.4118 -76.3605,-0.1761 -152.6284,-0.2102 -228.5839,0.1706 -10.8218,-0.5774 -15.9057,0.3419 -15.6501,1.2637 0.2557,0.9218 5.7835,1.7784 16.2032,1.0934 75.3603,-0.6023 150.9555,-0.8621 226.5664,-1.0633 0,1.9416 0,3.8834 0,5.8252 0.01,19.3306 -0.023,38.7058 -0.077,58.0634 -0.055,19.3577 -0.1307,38.6978 -0.2072,57.9987 -0.077,19.3009 -0.1533,38.5625 -0.2092,57.8032 -0.056,19.2407 -0.091,38.4605 -0.083,57.718 0,2.799 0,5.6079 0,8.4261 -37.3142,0.026 -76.143,0.1269 -115.0249,0.2394 -38.8819,0.1126 -77.8174,0.2368 -115.0902,0.3099 -3.8793,0.01 -7.7389,0.013 -11.5802,0.017 0.043,-36.3914 0.2738,-71.4428 0.5208,-106.4513 0.2471,-35.0084 0.5116,-69.9726 0.2551,-106.5568 -0.086,-7.0296 -0.4238,-17.7925 -0.9756,-25.3076 -0.5519,-7.5151 -1.3257,-11.7903 -2.1372,-5.6983 C -4941.3809,2360.8257 -4941.2499,2369.349 -4941.192,2376.8813 Z"
         style="color:#000000;color-interpolation:sRGB;color-interpolation-filters:linearRGB;fill:#000000;stroke:none;stroke-width:1;marker:none;visibility:visible;display:inline;overflow:visible;enable-background:accumulate;clip-rule:nonzero"
         inkscape:connector-curvature="0" />
      <path
         inkscape:connector-curvature="0"
         id="path2119-4"
         d="m -4939.5524,2599.0528 122.0406,0"
         style="fill:none;stroke:#000000;stroke-width:1px;stroke-linecap:butt;stroke-linejoin:miter;stroke-opacity:1" />
      <path
         style="fill:none;stroke:#000000;stroke-width:1px;stroke-linecap:butt;stroke-linejoin:miter;stroke-opacity:1"
         d="m -4695.8666,2599.1779 0,-122.0407"
         id="path2121-9"
         inkscape:connector-curvature="0" />
      <path
         inkscape:connector-curvature="0"
         id="path2123-1"
         d="m -4695.3666,2350.2514 -122.0407,0"
         style="fill:none;stroke:#000000;stroke-width:1px;stroke-linecap:butt;stroke-linejoin:miter;stroke-opacity:1" />
      <path
         style="fill:none;stroke:#000000;stroke-width:1px;stroke-linecap:butt;stroke-linejoin:miter;stroke-opacity:1"
         d="m -4939.1569,2350.7514 0,122.0407"
         id="path2125-0"
         inkscape:connector-curvature="0" />
      <path
         inkscape:original-d="m -4700.9066,2234.2861 -243.889,0"
         inkscape:path-effect="#path-effect4799-3"
         transform="translate(5.6387085,301.66294)"
         inkscape:connector-curvature="0"
         id="path3850"
         d="m -4938.454,2236.3246 c 19.4238,-0.6868 38.8764,-0.5654 58.3467,-0.8844 19.47,-0.3189 38.9568,0.1572 58.4466,-0.01 19.4898,-0.1675 38.9825,0.9213 58.4653,0.6889 19.4825,-0.2324 38.9551,-0.5513 58.4039,-1.0648 5.3787,1.0983 5.0274,-3.5935 -0.1575,-2.3156 -19.2711,0.352 -38.5664,0.5039 -57.8703,0.582 -19.3038,0.078 -38.6159,-1.1524 -57.9205,-1.0957 -19.3046,0.057 -40.41,0.7644 -59.6834,1.0524 -19.2734,0.288 -36.7134,-1.0791 -55.9235,-0.3073 -3.5075,0.2156 -10.7456,1.4638 -7.7314,3.0578 C -4942.4257,2236.4349 -4940.318,2236.35 -4938.454,2236.3246 Z"
         style="fill:#aa0000;stroke:none" />
      <path
         sodipodi:nodetypes="cc"
         style="fill:#0000ff;stroke:none"
         d="m -4779.3073,2357.3631 c 0.7229,19.6309 0.5951,39.2908 0.9309,58.9686 0.3357,19.6776 -0.1655,39.3721 0.011,59.0696 0.1763,19.6975 -0.9698,39.3981 -0.7252,59.0886 0.2446,19.6902 0.5803,39.3703 1.1208,59.0264 -1.1561,5.4361 3.7827,5.0809 2.4375,-0.1592 -0.3705,-19.4765 -0.5304,-38.9775 -0.6126,-58.4871 -0.082,-19.5096 1.213,-39.0276 1.1533,-58.538 -0.06,-19.5103 -0.8046,-40.8407 -1.1077,-60.3195 -0.3032,-19.4788 1.1358,-37.1048 0.3234,-56.5197 -0.2269,-3.5448 -1.5408,-10.86 -3.2187,-7.8138 C -4779.4234,2353.349 -4779.3341,2355.4792 -4779.3073,2357.3631 Z"
         id="path2381"
         inkscape:connector-curvature="0"
         inkscape:path-effect="#path-effect2383"
         inkscape:original-d="m -4777.1616,2597.4426 0,-246.4887" />
      <path
         inkscape:original-d="m -4838.9489,2598.6777 143.9406,-143.9406"
         inkscape:path-effect="#path-effect2383"
         sodipodi:nodetypes="cc"
         inkscape:connector-curvature="0"
         id="path2396"
         d="m -4700.2683,2456.9626 c -10.9526,11.9749 -22.5236,23.3652 -33.7773,35.0938 -11.2537,11.7284 -23.1089,22.8748 -34.4868,34.5023 -11.378,11.6273 -23.6928,22.3213 -35.0184,33.9928 -11.3254,11.6713 -22.5805,23.4012 -33.6768,35.2618 -3.9919,2.357 -0.2923,5.6419 1.8165,1.6307 11.1116,-11.6356 22.3865,-23.1365 33.7213,-34.5876 11.3349,-11.4509 23.6484,-21.933 34.9995,-33.3686 11.351,-11.4357 23.2807,-24.4184 34.4413,-36.0077 11.1605,-11.5893 22.4709,-20.8647 33.2341,-32.7768 1.9096,-2.2305 5.2524,-7.4314 2.287,-6.8389 C -4698.0063,2454.5364 -4699.1871,2455.8435 -4700.2683,2456.9626 Z"
         style="fill:#008000;stroke:none" />
      <path
         inkscape:original-d="m -4938.0026,2454.7413 60.2454,-61.2813 42.2322,-43.2621"
         inkscape:path-effect="#path-effect2383"
         sodipodi:nodetypes="ccc"
         style="fill:#008000;stroke:none"
         d="m -4839.7193,2351.4227 c -7.6265,8.8474 -15.874,17.1131 -23.7975,25.7105 -4.8859,5.3014 -10.0019,10.383 -15.0929,15.4917 -3.1763,3.165 -6.343,6.3406 -9.4387,9.5861 -8.0753,8.4656 -17.0958,16.0064 -25.1194,24.5169 -8.0235,8.5103 -15.9778,17.0803 -23.7764,25.7839 -3.0878,1.4918 0.582,4.8037 1.8045,1.6413 7.8455,-8.5088 15.8511,-16.8802 23.9158,-25.2008 8.0648,-8.3204 17.1162,-15.6802 25.1974,-23.9855 3.1704,-3.2586 6.3823,-6.7095 9.5917,-10.2113 0,0 0,0 0,0 4.9525,-5.442 9.8989,-11.0061 14.6781,-16.1655 7.8647,-8.4906 16.2067,-14.976 23.6805,-23.7951 1.3084,-1.6651 3.4031,-5.6918 0.9387,-5.5693 C -4838.1371,2349.6358 -4838.9569,2350.6034 -4839.7193,2351.4227 Z"
         id="path2398"
         inkscape:connector-curvature="0" />
      <g
         transform="translate(-148.39113,-28.142593)"
         id="g2460">
        <path
           style="opacity:0.3;fill:#008000;stroke:none"
           d="m -3939.9442,2275.8676 c -12.8574,6.2057 -26.2023,11.4717 -39.8069,15.924 0,0 0,0 0,0 -24.5141,8.0208 -49.8974,13.4048 -75.544,16.6788 0,0 0,0 0,0 -51.724,6.6004 -104.5491,4.9593 -155.8885,-4.7015 -10e-5,0 -10e-5,0 -10e-5,0 -1.7711,-0.3333 -3.5349,-0.7072 -5.2895,-1.1211 -14.018,-3.3067 -27.441,-9.1997 -39.2812,-17.4115 0,0 0,0 0,0 -12.4037,-8.6003 -23.0794,-19.6835 -31.3225,-32.3403 0,0 0,0 0,0 -7.8817,-12.1038 -13.5789,-25.6484 -16.522,-39.7771 -2.798,-13.4258 -3.1031,-27.4214 -0.2468,-40.7918 0,0 0,0 0,0 1.4241,-5.396 3.4614,-10.6299 6.1868,-15.4747 0,0 0,0 0,0 2.5316,-4.5078 5.6599,-8.6809 9.2786,-12.371 7.3276,-7.4866 16.6433,-12.8985 26.508,-16.6553 0,0 0,0 0,0 11.1203,-4.2306 22.9528,-6.4823 34.858,-7.7396 2.7137,-0.286 5.4329,-0.5188 8.1562,-0.704 10.6698,-0.7258 21.404,-0.697 32.1169,-0.2491 28.3918,1.1875 56.6027,5.3201 84.7414,9.7365 0,0 0,0 0,0 12.8348,2.0153 25.6668,4.1271 38.5504,5.9936 10.6693,1.5427 21.4053,2.9749 32.2459,3.6048 0,0 1e-4,0 1e-4,0 11.6008,-0.6098 23.0608,-2.2975 34.453,-3.849 0,0 0,0 0,0 15.0675,-2.055 30.107,-4.1757 45.1751,-5.8888 4.9494,-0.5625 9.9021,-1.0862 14.8578,-1.554 11.4471,-1.0805 22.9112,-1.8444 34.3835,-2.0758 15.5966,-0.3107 31.2283,0.2793 46.4789,3.0994 0,0 0,0 0,0 11.8677,2.2042 23.6804,5.0075 34.2769,10.3997 0,0 0,0 0,0 3.5529,1.8089 6.9368,3.9112 9.8309,6.5304 0,0 0,0 0,0 2.282,2.0685 4.2647,4.4548 5.589,7.15 1.184,2.3894 1.8501,5.0453 1.9516,7.7199 0.1133,2.8092 -0.3836,5.662 -1.2407,8.4156 0,0 0,0 0,0 -0.9834,3.1506 -2.4505,6.1697 -4.1562,9.0667 0,0 0,0 0,0 -1.9678,3.338 -4.2636,6.4981 -6.7277,9.5368 0,0 0,0 0,0 -5.8243,7.1821 -12.535,13.6513 -19.5223,19.8082 0,0 0,0 -1e-4,0 -7.9346,6.9889 -16.2715,13.5303 -24.7751,19.8539 -11.7819,8.7614 -23.9013,17.07 -36.092,25.2852 -5.5872,3.3912 -9.5365,6.1062 -11.9909,8.0516 -2.4544,1.9454 -3.4162,3.1166 -3.0453,3.3961 0.7418,0.559 6.8258,-2.4246 16.9568,-9.9444 12.0013,-8.0636 23.9481,-16.2368 35.5897,-24.8618 8.5484,-6.3331 16.9484,-12.902 24.9656,-19.9374 1e-4,-10e-5 1e-4,-10e-5 1e-4,-10e-5 7.0571,-6.1901 13.8742,-12.7461 19.8438,-20.0717 0,0 0,0 0,0 2.528,-3.1022 4.9004,-6.3597 6.9579,-9.8299 0,0 0,0 0,0 1.7864,-3.0093 3.3377,-6.2012 4.4089,-9.5865 0,0 0,0 0,0 0.9405,-2.9657 1.4819,-6.1025 1.3735,-9.269 -0.1093,-3.0325 -0.8566,-6.0354 -2.1967,-8.7605 -1.5085,-3.049 -3.68,-5.6962 -6.1555,-7.9309 0,0 0,0 0,0 -3.1224,-2.8217 -6.6901,-5.0598 -10.3811,-6.9362 0,0 0,0 0,0 -10.9633,-5.5754 -23.0105,-8.4811 -34.97,-10.7012 0,0 0,0 0,0 -15.5002,-2.8855 -31.3139,-3.5176 -47.018,-3.2234 -10.9471,0.2036 -21.8729,0.8859 -32.7692,1.8634 -5.5877,0.5013 -11.1681,1.0759 -16.7402,1.6996 -15.1254,1.6926 -30.1934,3.7896 -45.258,5.8179 -1e-4,0 -1e-4,0 -1e-4,0 -11.3657,1.5316 -22.6957,3.1922 -34.0568,3.7675 0,0 0,0 0,0 -10.6395,-0.6368 -21.2338,-2.078 -31.8245,-3.6319 -12.8433,-1.8811 -25.66,-4.0102 -38.5061,-6.0457 -1e-4,0 -1e-4,0 -1e-4,0 -28.1535,-4.4635 -56.4731,-8.6415 -85.0741,-9.8705 0,0 -1e-4,0 -1e-4,0 -9.2964,-0.3998 -18.6332,-0.482 -27.9562,-0.032 -4.2467,0.205 -8.5083,0.5198 -12.7781,0.9675 -11.972,1.2499 -24.0905,3.5578 -35.6495,7.9742 -10.1335,3.8652 -19.8257,9.5416 -27.5645,17.4767 -3.7845,3.8921 -7.0544,8.2914 -9.6969,13.0494 0,0 0,0 0,0 -2.8364,5.1201 -4.9462,10.6172 -6.4009,16.2634 -2.8688,13.8339 -2.4893,28.2473 0.4581,42.0033 3.1051,14.4816 9.0225,28.2901 17.0962,40.5527 8.5322,12.9613 19.508,24.1908 32.0747,32.8521 12.6741,8.7325 26.9348,14.7771 41.5583,18.0337 1.2901,0.2873 2.5831,0.5532 3.8782,0.7977 26.6374,5.0296 52.9364,7.8969 79.0074,8.7965 26.071,0.8996 51.921,-0.1708 77.6564,-3.2935 25.5565,-3.0998 51.0436,-8.3062 76.1822,-16.4857 10.3771,-3.3758 20.6992,-7.2683 30.8755,-11.7762 3.9038,-1.7497 8.7835,-4.103 13.6191,-6.6853 4.8356,-2.5823 9.6231,-5.3956 13.4489,-7.868 3.8258,-2.4723 6.6962,-4.59 7.7935,-5.6686 1.0973,-1.0787 0.4396,-1.0891 -2.8818,0.4401 -3.5217,1.8766 -7.4935,4.0525 -11.6123,6.2265 C -3931.6217,2271.76 -3935.8873,2273.932 -3939.9442,2275.8676 Z"
           id="path2428"
           inkscape:connector-curvature="0"
           transform="translate(5.6387085,301.66294)"
           sodipodi:nodetypes="csccsc"
           inkscape:path-effect="#path-effect4799-3"
           inkscape:original-d="m -3912.0192,2263.0393 c 62.206,-41.2885 176.7412,-113.8311 56.4609,-136.4198 -57.6386,-10.8246 -140.4125,8.1508 -175.6468,10.1328 -74.0612,-4.0225 -249.3305,-57.7471 -273.743,35.3135 -11.2343,52.9831 25.3764,119.8002 93.544,132.8542 C -4112.425,2323.8745 -3993.3895,2313.3719 -3912.0192,2263.0393 Z" />
        <path
           style="fill:#000000;fill-opacity:1;fill-rule:nonzero;stroke:none"
           d="m -4355.8988,2448.9767 c 3.9325,-6.1033 8.6461,-11.7594 13.786,-16.9839 9.0289,-9.169 19.4015,-17.0196 30.3435,-23.9652 0,0 0,0 0,0 12.8173,-8.1325 26.4454,-14.9992 40.448,-20.9963 0,0 0,0 0,0 33.7269,-14.4451 69.4934,-23.9347 105.7003,-30.4985 42.7125,-7.7399 86.1866,-11.2337 129.6559,-11.3283 7.8896,-0.017 15.7812,0.078 23.6704,0.2896 35.5497,0.9533 71.0462,4.3746 106.051,10.674 0,0 1e-4,0 1e-4,0 36.2152,6.5191 72.0149,15.9948 105.8278,30.4088 0,0 0,0 0,0 14.0285,5.9801 27.6954,12.8291 40.5729,20.9452 0,0 0,0 0,0 10.9892,6.928 21.4278,14.7682 30.5527,23.946 0,0 10e-5,0 10e-5,0 7.714,7.7632 14.5066,16.5068 19.2228,26.3068 0,0 0,0 0,0 4.2163,8.7565 6.6808,18.3955 6.6869,28.0796 0,2.4814 -0.153,4.9606 -0.4599,7.4235 -0.8906,7.1485 -3.0486,14.1582 -6.1825,20.6776 -4.7127,9.809 -11.5144,18.5561 -19.2418,26.3107 -9.1399,9.1672 -19.5987,16.9823 -30.6074,23.8744 -12.8994,8.0734 -26.5873,14.8646 -40.6331,20.7812 0,0 0,0 0,0 -33.8506,14.2593 -69.6572,23.5402 -105.8596,29.9456 0,0 0,0 0,0 -39.9961,7.0731 -80.5991,10.4775 -121.2206,10.9714 -2.7932,0.034 -5.5866,0.054 -8.3798,0.059 -43.4311,0.082 -86.8946,-3.2641 -129.6349,-10.8382 -36.222,-6.4218 -72.0274,-15.7512 -105.8773,-30.0149 -14.0521,-5.9212 -27.7473,-12.7111 -40.6624,-20.7745 -11.0248,-6.8851 -21.5061,-14.6888 -30.685,-23.8456 0,0 0,0 0,0 -7.7626,-7.7473 -14.6102,-16.4922 -19.388,-26.3221 -0.6996,-1.4388 -1.3521,-2.902 -1.9543,-4.3857 -1.4528,-3.9924 -2.4183,-7.538 -3.1149,-10.5711 -0.6966,-3.0331 -1.1256,-5.5575 -1.4527,-7.5588 -0.3272,-2.0014 -0.5535,-3.4813 -0.7732,-4.4359 -0.2198,-0.9547 -0.4335,-1.384 -0.6524,-1.2817 -0.219,0.1022 -0.4428,0.7372 -0.5983,1.906 -0.1555,1.1687 -0.2414,2.8731 -0.1115,5.0868 0.1299,2.2138 0.4779,4.9391 1.2357,8.0924 0.7578,3.1532 1.9289,6.7365 3.7053,10.5753 0.5088,1.2086 1.0498,2.4029 1.6217,3.5811 4.9192,10.1276 11.9058,19.0943 19.8048,26.9832 0,0 10e-5,0 10e-5,0 9.3318,9.3261 19.9437,17.2563 31.0755,24.222 13.0395,8.1623 26.8414,15.0306 40.9808,21.0079 34.0533,14.3955 70.0298,23.8269 106.3825,30.3144 42.9016,7.6587 86.521,11.0749 130.0985,11.0459 2.002,-0 4.0041,-0.01 6.0063,-0.026 41.5643,-0.3301 83.1444,-3.6865 124.1178,-10.8779 0,0 0,0 0,0 36.3696,-6.381 72.4032,-15.6838 106.5439,-30.0168 0,0 0,0 0,0 14.1709,-5.9494 28.0119,-12.8039 41.0932,-20.9719 0,0 0,0 0,0 11.1653,-6.9684 21.8157,-14.9226 31.1828,-24.2932 10e-5,0 10e-5,0 10e-5,0 7.9292,-7.9248 14.9407,-16.9544 19.871,-27.1602 2.4086,-4.9904 4.2654,-10.2678 5.455,-15.6937 0.9878,-4.5056 1.5199,-9.1289 1.5204,-13.7904 -0.017,-10.1588 -2.5665,-20.2726 -7.0154,-29.4648 -4.9109,-10.1376 -11.9103,-19.1726 -19.8781,-27.1327 -9.3198,-9.3192 -19.9622,-17.2881 -31.1671,-24.2901 0,0 0,0 0,0 -13.0314,-8.1471 -26.8722,-15.0256 -41.0692,-21.0046 -34.166,-14.3885 -70.3723,-23.7694 -106.5182,-30.1363 -36.4045,-6.4151 -72.8855,-9.6807 -108.4257,-10.5513 -7.2777,-0.1782 -14.516,-0.2612 -21.7168,-0.2548 -22.2898,0.019 -44.2425,0.8911 -65.912,2.6794 -21.6694,1.7883 -43.0566,4.4923 -64.2146,8.2152 -18.1605,3.1944 -36.1878,7.1146 -53.9725,12.0468 -17.7846,4.9321 -35.3281,10.8747 -52.496,18.1555 -14.0458,5.9569 -27.8386,12.8449 -40.9545,21.1367 -11.0169,6.9624 -21.5968,14.9383 -30.9316,24.4173 -2.0909,2.1219 -4.1193,4.3249 -6.0619,6.611 -2.2022,2.609 -4.6255,5.7525 -6.9273,9.2583 -2.3018,3.5057 -4.4744,7.3752 -6.2612,11.352 -2.0731,4.6156 -3.571,9.3745 -4.4545,13.6485 -0.8834,4.2739 -1.1648,8.0526 -1.1507,10.7703 0.014,2.7177 0.2866,4.377 0.5404,4.5317 0.1268,0.077 0.253,-0.2201 0.3981,-0.9418 0.145,-0.7217 0.3078,-1.8682 0.5707,-3.4823 0.4178,-3.5832 1.1425,-7.4754 2.2607,-11.4364 1.1182,-3.961 2.6291,-7.9871 4.4677,-11.8228 C -4359.523,2454.9409 -4357.765,2451.851 -4355.8988,2448.9767 Z"
           id="path4765-1"
           inkscape:path-effect="#path-effect4799-3"
           inkscape:original-d="m -4369.7029,2485.8545 c 0,78.3472 149.4195,141.8601 333.7378,141.8601 184.3183,0 333.7378,-63.5129 333.7378,-141.8601 0,-78.3471 -149.4195,-141.86 -333.7378,-141.86 C -4220.2834,2343.9945 -4369.7029,2407.5074 -4369.7029,2485.8545 Z"
           inkscape:connector-curvature="0" />
        <g
           id="g3816"
           transform="matrix(0.82632085,0,0,0.82632085,-698.69811,430.29188)">
          <path
             inkscape:original-d="m -4196.7162,2487.8988 c 51.2218,-76.7256 302.8901,-73.9089 344.1658,-0.1234"
             inkscape:path-effect="#path-effect4790-4"
             sodipodi:nodetypes="cc"
             inkscape:connector-curvature="0"
             id="path4767-3"
             d="m -3856.3886,2478.4276 c -5.6435,-6.5521 -12.5424,-11.9291 -19.7795,-16.4181 -12.4272,-7.7352 -26.0632,-13.2216 -39.9528,-17.4615 0,0 -1e-4,0 -1e-4,0 -6.7832,-2.0731 -13.6503,-3.8449 -20.5758,-5.341 -9.676,-2.0904 -19.4361,-3.7811 -29.2333,-5.1394 -18.2034,-2.5249 -36.5836,-3.8804 -54.9679,-3.9002 0,0 0,0 0,0 -1.7412,-0 -3.4825,0.01 -5.2236,0.031 -16.7836,0.2167 -33.5761,0.9614 -50.2831,2.8285 -13.1751,1.4714 -26.3169,3.6367 -39.1782,6.9538 -4.0491,1.0443 -8.0752,2.178 -12.073,3.4087 0,0 0,0 0,0 -14.5971,4.4887 -28.9153,10.2749 -41.9331,18.3257 -9.1037,5.6197 -17.6473,12.4733 -24.2196,20.8859 -1.5354,1.4371 -2.3678,2.7512 -2.7117,3.7275 -0.3439,0.9763 -0.2039,1.6193 0.2064,1.835 0.4103,0.2157 1.0876,0.01 1.8795,-0.6708 0.7919,-0.6807 1.697,-1.8323 2.6617,-3.545 6.3565,-7.9995 14.6583,-14.5482 23.5316,-19.987 12.8048,-7.8339 26.9421,-13.4436 41.4067,-17.8154 0,0 0,0 0,0 3.777,-1.1408 7.5803,-2.1944 11.4054,-3.1673 12.927,-3.2879 26.1534,-5.3935 39.424,-6.806 16.1194,-1.7148 32.3133,-2.3894 48.4993,-2.5876 2.183,-0.027 4.3813,-0.041 6.5925,-0.043 17.8045,-0.011 36.4561,0.8641 54.6346,3.0706 10.0852,1.2249 20.0259,2.841 29.5476,4.9229 6.8392,1.4953 13.4455,3.2966 19.8701,5.3799 6.9064,2.2416 13.6197,4.7942 20.1093,7.7431 6.4895,2.9489 12.7558,6.2902 18.7826,10.1688 5.9561,3.8462 11.7346,8.2283 16.796,13.4546 0.9295,0.9317 2.1102,2.1077 3.2918,3.3288 1.1816,1.2211 2.3626,2.4896 3.372,3.532 1.0094,1.0425 1.8539,1.856 2.4069,2.0963 0.553,0.2402 0.8297,-0.1032 0.5813,-1.3462 -0.4836,-1.2386 -1.2209,-2.5494 -2.0802,-3.8229 C -3854.4604,2480.7958 -3855.441,2479.5602 -3856.3886,2478.4276 Z"
             style="fill:#000000;stroke:none" />
          <path
             inkscape:original-d="m -4245.3574,2448.0542 c 49.6737,60.5243 127.1792,67.7122 180.7699,73.8212 53.5907,6.109 232.0573,-21.1887 265.3506,-69.7211"
             inkscape:path-effect="#path-effect4782-4"
             sodipodi:nodetypes="csc"
             inkscape:connector-curvature="0"
             id="path4769-4"
             d="m -3809.0218,2459.8329 c -3.0967,2.8778 -6.4917,5.4777 -10.039,7.8897 0,0 0,0 0,0 -8.9258,6.069 -18.7223,10.9058 -28.764,15.1802 0,0 0,0 0,0 -11.7914,5.0154 -23.9583,9.1843 -36.2715,12.8999 0,0 0,0 0,0 -9.7038,2.9277 -19.5018,5.5622 -29.3587,7.9886 -3.6859,0.9073 -7.3829,1.7732 -11.0888,2.602 -26.6092,5.9512 -53.6305,10.0816 -80.7785,12.7549 0,0 0,0 0,0 -7.2795,0.7167 -14.5675,1.3273 -21.8619,1.774 -4.001,0.2451 -8.0053,0.419 -12.0109,0.5135 -8.4613,0.1977 -16.921,0.1296 -25.2386,-0.9095 -14.6351,-1.8217 -29.2514,-3.6488 -43.7308,-6.0838 -11.0215,-1.8541 -21.978,-4.0381 -32.7968,-6.7036 -5.0159,-1.2358 -9.9972,-2.5985 -14.934,-4.1092 0,0 0,0 0,0 -16.4246,-5.027 -32.3711,-11.7053 -47.0722,-20.5444 -13.5499,-8.1446 -26.0006,-18.1632 -36.787,-29.7648 -1.5558,-2.1526 -2.8727,-3.5623 -3.8982,-4.3492 -1.0256,-0.787 -1.7575,-0.9492 -2.074,-0.6081 -0.3164,0.3412 -0.2149,1.188 0.461,2.3863 0.6759,1.1984 1.929,2.7501 3.9139,4.4375 10.8472,11.7271 23.3621,21.8769 36.996,30.1554 14.8848,9.0357 31.0093,15.8811 47.5993,21.0329 0,0 1e-4,0 1e-4,0 4.7484,1.4748 9.5349,2.8136 14.3505,4.0347 11.147,2.8266 22.4253,5.1379 33.7547,7.0917 14.5684,2.513 29.2268,4.4058 43.8471,6.2743 0,0 0,0 0,0 8.5607,1.0883 17.175,1.1881 25.6941,1.0029 0,0 0,0 0,0 3.4342,-0.073 6.8654,-0.2046 10.2923,-0.389 7.8351,-0.4218 15.7987,-1.1033 23.8209,-1.9597 13.5216,-1.4429 27.2366,-3.3771 40.8293,-5.7146 13.5926,-2.3375 27.0624,-5.0775 40.1168,-8.0667 3.9499,-0.9044 7.8624,-1.8334 11.7283,-2.7859 9.8955,-2.4381 19.5085,-4.9378 28.9438,-7.6396 12.5285,-3.587 24.7678,-7.516 36.7715,-12.4036 10.0858,-4.1035 20.0883,-8.8676 29.4533,-15.2003 2.4786,-1.6761 4.9112,-3.4719 7.2487,-5.4226 1.0685,-0.912 2.3186,-2.0737 3.548,-3.3616 1.2338,-1.2917 2.4452,-2.7163 3.4553,-4.1 1.0102,-1.3838 1.8176,-2.7244 2.3248,-3.803 0.5071,-1.0787 0.7202,-1.8899 0.5883,-2.229 -0.132,-0.3391 -0.5978,-0.2004 -1.5433,0.5169 -1.034,1.0629 -2.1502,2.2843 -3.3376,3.5266 -1.1873,1.2423 -2.4443,2.5058 -3.6924,3.6645 C -3808.7155,2459.5535 -3808.8689,2459.6941 -3809.0218,2459.8329 Z"
             style="fill:#000000;stroke:none" />
        </g>
        <path
           inkscape:path-effect="#path-effect2378"
           transform="matrix(-0.42143467,-0.36736855,-0.12012444,0.59661006,-5488.5418,-455.64622)"
           d="m -4270.7001,2364.1916 c -3.1486,-16.8718 -11.3698,-32.712 -23.526,-44.7331 -15.3412,-15.1514 -36.7106,-23.9346 -58.2094,-23.7928 0,0 0,0 0,0 -2.619,0.019 -5.2335,0.1697 -7.8325,0.449 -18.7154,2.0113 -36.692,10.3849 -50.0537,23.6671 -7.6009,7.5626 -13.6323,16.6546 -17.7558,26.551 -4.1236,9.8964 -6.3368,20.5982 -6.3005,31.3352 0,0 0,0 0,0 0,0.8383 0.02,1.6763 0.051,2.5135 0.3754,10.302 2.6758,20.5008 6.6902,29.9962 4.0144,9.4954 9.7464,18.2859 16.991,25.7008 7.2193,7.3797 15.8776,13.3267 25.3358,17.5049 9.4582,4.1783 19.7178,6.5841 30.0694,6.8917 0.9346,0.028 1.8699,0.039 2.8054,0.034 0,0 0,0 0,0 21.6696,-0.1381 43.0121,-9.1931 58.0951,-24.5459 13.1647,-13.4155 21.3443,-31.418 23.0181,-49.95 0.5783,-2.7782 0.5637,-4.8777 0.3176,-6.2324 -0.246,-1.3548 -0.7226,-1.9737 -1.1836,-1.908 -0.461,0.066 -0.9078,0.809 -1.2029,2.1808 -0.295,1.3719 -0.4386,3.3679 -0.3872,6.0273 -1.7531,17.8486 -9.7518,35.1688 -22.4505,47.9938 -14.6198,14.7807 -35.3424,23.4611 -56.2066,23.5013 0,0 0,0 0,0 -0.6435,0 -1.2868,-0.01 -1.9299,-0.02 -10.101,-0.233 -20.1356,-2.5615 -29.37,-6.6374 -9.2344,-4.0759 -17.6703,-9.8953 -24.6501,-17.1006 -6.7077,-6.9151 -12.0532,-15.0815 -15.8597,-23.889 -3.8066,-8.8075 -6.0773,-18.2546 -6.6296,-27.7958 -0.082,-1.4153 -0.1254,-2.8377 -0.1286,-4.2651 -0.032,-9.9969 1.9236,-20.2232 5.7656,-29.838 3.842,-9.6148 9.5679,-18.606 16.8807,-26.0835 6.5288,-6.6851 14.2966,-12.135 22.6701,-16.1016 8.3736,-3.9667 17.3467,-6.4468 26.2883,-7.3274 2.3253,-0.229 4.6492,-0.3462 6.9632,-0.3523 0,0 0,0 0,0 10.7246,-0.033 21.1623,2.3001 30.6774,6.4044 9.5151,4.1043 18.1257,9.9794 25.3153,17.3056 5.1566,5.2476 9.5723,11.2339 13.179,17.7701 3.6066,6.5362 6.4071,13.624 8.254,21.11 0.4484,1.7354 1.0005,3.94 1.5044,6.199 0.5039,2.2591 0.9581,4.5723 1.3514,6.4898 0.3933,1.9175 0.735,3.4392 1.1005,4.0868 0.3656,0.6477 0.7766,0.4214 1.1644,-1.1904 0.1798,-1.7625 0.1626,-3.7759 8e-4,-5.8332 C -4270.05,2368.25 -4270.3562,2366.1501 -4270.7001,2364.1916 Z"
           sodipodi:ry="80.728661"
           sodipodi:rx="80.728661"
           sodipodi:cy="2377.668"
           sodipodi:cx="-4352.4355"
           id="path2376"
           style="opacity:0.3;color:#000000;color-interpolation:sRGB;color-interpolation-filters:linearRGB;fill:#0000ff;stroke:none;stroke-width:1.81735766;marker:none;visibility:visible;display:inline;overflow:visible;enable-background:accumulate;clip-rule:nonzero"
           sodipodi:type="arc" />
        <path
           style="opacity:0.3;fill:#aa0000;stroke:none"
           d="m -3998.3222,2387.6103 c 43.001,1.0717 85.9627,4.6544 128.4504,11.5428 0,0 0,0 0,0 22.7274,3.6848 45.3099,8.3321 67.4843,14.492 0,0 0,0 0,0 18.2068,5.0585 36.17,11.0776 53.2663,19.0263 0,10e-5 0,10e-5 0,10e-5 12.3107,6.0696 24.3758,12.9712 33.8216,22.6884 0,0 0,0 0,0 3.4181,3.5159 6.447,7.4126 8.5249,11.7664 0,0 0,0 0,0 1.7927,3.7512 2.852,7.8644 2.8562,11.9838 0,0 0,0 0,0 0.01,3.1237 -0.571,6.2561 -1.6269,9.2207 -1.1452,3.2205 -2.8493,6.2533 -4.8718,9.0658 -0.3219,0.4482 -0.6513,0.8907 -0.9878,1.3276 -4.9039,6.3667 -11.325,11.5507 -18.1017,16.1048 -9.5207,6.3854 -19.8964,11.473 -30.5227,15.9271 0,0 -1e-4,0 -1e-4,0 -13.1797,5.5219 -26.792,10.0078 -40.5708,13.8963 0,0 0,0 0,0 -34.5508,9.7505 -70.0835,15.821 -105.7802,20.0499 -42.9785,5.0899 -86.2855,7.3108 -129.5845,7.3642 -2.375,0 -4.7501,-7e-4 -7.1253,-0.011 -40.9198,-0.1765 -81.8399,-2.554 -122.4362,-7.5451 -35.6672,-4.3867 -71.1437,-10.6512 -105.6198,-20.5072 0,0 0,0 0,0 -13.7463,-3.93 -27.3186,-8.4396 -40.4558,-13.9608 -10.5924,-4.4552 -20.9223,-9.5171 -30.3952,-15.8512 0,0 0,0 0,0 -7.2042,-4.8334 -13.9895,-10.3365 -18.9533,-17.2019 -2.0014,-2.7625 -3.6889,-5.7316 -4.8223,-8.8785 -0.2152,-0.5962 -0.4109,-1.1993 -0.586,-1.8079 -0.6749,-2.3458 -1.0431,-4.7726 -1.0459,-7.1928 -0.01,-3.0482 0.5601,-6.1118 1.5943,-9.0142 1.1218,-3.1559 2.8006,-6.1371 4.7961,-8.9111 0,-1e-4 0,-1e-4 0,-1e-4 4.9492,-6.8938 11.732,-12.4273 18.9347,-17.279 0,0 0,0 0,-10e-5 9.4724,-6.3609 19.8078,-11.4413 30.4034,-15.9051 0,0 0,0 0,0 13.1448,-5.5339 26.7258,-10.0451 40.4773,-13.9699 0,0 0,0 0,0 34.505,-9.8477 69.9971,-16.0653 105.6567,-20.4526 0,0 0,0 0,0 35.3377,-4.3465 70.9004,-6.7594 106.4943,-7.5925 7.9941,0.1231 13.8518,-0 17.6682,-0.2834 3.8164,-0.2822 5.5903,-0.7209 5.4011,-1.1588 -0.1891,-0.438 -2.3425,-0.8748 -6.3801,-1.097 -4.0376,-0.2222 -9.9608,-0.2299 -17.6703,0.2419 -35.3511,0.8065 -70.6822,3.1717 -105.8056,7.4413 -10e-5,0 -10e-5,0 -10e-5,0 -35.7502,4.3444 -71.3795,10.5376 -106.0751,20.3834 0,0 -1e-4,0 -1e-4,0 -13.8296,3.9244 -27.517,8.4515 -40.7982,14.0189 0,0 0,0 0,0 -10.7016,4.4841 -21.1961,9.6317 -30.8836,16.1091 0,0 0,0 0,0 -7.3694,4.9186 -14.392,10.6655 -19.6567,17.925 0,0 0,0 0,0 -2.128,2.9373 -3.9321,6.145 -5.1717,9.5915 -1.1425,3.1808 -1.7717,6.5571 -1.7711,9.9527 0,1.9232 0.2066,3.8396 0.5916,5.7174 0.2947,1.4376 0.6952,2.8527 1.192,4.2308 1.2428,3.4437 3.0485,6.6481 5.177,9.5832 5.2656,7.2533 12.2836,12.999 19.6485,17.9235 0,0 0,0 0,0 9.68,6.484 20.1659,11.6487 30.8601,16.1569 13.2694,5.5962 26.9472,10.1639 40.7703,14.1336 0,0 0,0 0,0 34.6653,9.9556 70.2909,16.2961 106.058,20.7297 0,0 0,0 0,0 38.9091,4.8251 78.1048,7.2503 117.3005,7.6318 4.1956,0.041 8.4055,0.059 12.6283,0.055 42.4261,-0.037 86.2165,-2.3444 129.9255,-7.7151 35.7858,-4.3951 71.6103,-10.7315 106.0889,-20.6041 0,0 0,-10e-5 1e-4,-10e-5 13.9043,-3.9812 27.5976,-8.5587 40.7876,-14.1239 10.7681,-4.5411 21.2571,-9.7334 30.8666,-16.1872 7.4116,-4.968 14.4159,-10.7513 19.6349,-17.9731 0.037,-0.051 0.073,-0.1015 0.1096,-0.1524 2.0825,-2.9092 3.8398,-6.0703 5.052,-9.4501 1.143,-3.1911 1.7674,-6.5686 1.7661,-9.9563 -0.01,-4.5004 -1.1369,-8.9282 -3.0483,-12.9331 0,0 0,0 0,0 -2.2229,-4.6527 -5.3831,-8.7511 -8.9075,-12.3805 -9.8125,-10.1039 -22.0798,-17.1766 -34.3945,-23.2858 -17.3361,-8.1496 -35.3765,-14.2897 -53.581,-19.4519 -22.2517,-6.3108 -44.8454,-11.0977 -67.7127,-14.9117 -37.7936,-6.304 -76.3654,-10.0312 -116.3028,-11.4351 -5.2186,-0.1647 -11.828,-0.2805 -18.5246,-0.2807 -6.6966,-1e-4 -13.4798,0.1149 -19.047,0.3282 -5.5673,0.2134 -9.9185,0.5198 -11.758,0.8629 -1.8396,0.3432 -1.1678,0.7133 3.3052,1.1268 C -4021.8949,2387.1894 -4009.3842,2387.2941 -3998.3222,2387.6103 Z"
           id="path4898-6"
           inkscape:connector-curvature="0"
           sodipodi:nodetypes="sssscs"
           inkscape:path-effect="#path-effect4799-3"
           inkscape:original-d="m -4035.965,2385.0006 c -184.0524,0 -333.2566,42.1343 -333.2566,94.1095 0,51.9754 149.2042,94.1096 333.2566,94.1096 184.0525,0 333.2567,-42.1342 333.2567,-94.1096 0,-16.9519 -15.8719,-32.857 -45.8342,-47.6443 C -3809.1306,2403.1933 -3915.0245,2385.0006 -4035.965,2385.0006 Z" />
        <path
           inkscape:connector-curvature="0"
           id="path3820"
           d="m -3710.2411,2495.6048 c -0.2829,0.4334 -0.5741,0.8624 -0.8729,1.2868 0,0 0,0 -10e-5,0 -4.853,6.908 -11.5883,12.4905 -18.7624,17.3836 0,0 0,0 0,0 -9.4293,6.4111 -19.7524,11.532 -30.3451,16.0212 -13.1318,5.5616 -26.7163,10.0822 -40.476,14.0115 -21.6388,6.179 -43.6791,10.9219 -65.9093,14.7418 -13.1934,2.2671 -26.4644,4.1437 -39.7632,5.7392 -42.9636,5.153 -86.2889,7.1711 -129.5949,7.2777 0,0 0,0 0,0 -1.1785,0 -2.3571,0 -3.5357,0 -42.1177,0 -84.2214,-2.8105 -125.9716,-8.0147 -15.6369,-1.9501 -31.2386,-4.2084 -46.7552,-6.8763 -19.8622,-3.415 -39.5615,-7.6498 -58.9633,-13.0192 -13.7859,-3.8153 -27.4078,-8.2131 -40.6139,-13.6338 -10.6506,-4.3741 -21.0574,-9.3693 -30.6404,-15.6652 0,0 0,0 0,0 -7.291,-4.7993 -14.1941,-10.3188 -19.3212,-17.2815 0,0 0,0 0,0 -1.7344,-2.3532 -3.2486,-4.8711 -4.4005,-7.5392 -0.189,-0.555 -0.3608,-1.0891 -0.5179,-1.6024 -0.9569,-3.1232 -1.3969,-5.4677 -1.7974,-7.0264 -0.4005,-1.5587 -0.7646,-2.3435 -1.1645,-2.3005 -0.4,0.043 -0.8353,0.9339 -0.928,2.6862 -0.046,0.8761 5e-4,1.9649 0.2193,3.2336 0.2189,1.2686 0.6114,2.7179 1.2587,4.2745 0.2822,0.6774 0.6109,1.3739 0.9904,2.0826 1.1975,2.6934 2.7187,5.2199 4.4428,7.5663 0,0 0,0 0,0 5.3672,7.2931 12.4576,13.028 19.8771,17.9157 0,0 0,0 0,0 9.7481,6.4374 20.2809,11.5372 31.0129,15.974 13.3116,5.5061 27.0192,9.9764 40.8674,13.8488 19.1273,5.3488 38.5342,9.5996 58.0903,13.048 15.9331,2.8096 31.9498,5.1834 47.9955,7.2276 40.9616,5.22 82.2608,8.1284 123.568,8.2963 2.0889,0.01 4.1848,0.011 6.2872,0.01 21.0813,-0.037 42.8275,-0.6967 64.6626,-2.0546 21.8351,-1.358 43.7574,-3.4169 65.2063,-6.1349 13.8323,-1.7523 27.4818,-3.759 40.7717,-6.0533 22.6077,-3.9029 44.2166,-8.4197 65.3376,-14.2049 13.8854,-3.8031 27.5685,-8.1786 40.9469,-13.7012 10.6469,-4.3923 21.1706,-9.5016 30.9843,-16.121 6.0222,-4.0511 11.8677,-8.7271 16.6904,-14.4431 0.9027,-1.0852 1.8828,-2.3671 2.84,-3.7919 0.977,-1.456 1.9196,-3.0677 2.7231,-4.7426 0.8034,-1.6748 1.4654,-3.4121 1.9353,-5.0905 0.5184,-1.8532 0.7928,-3.6278 0.8797,-5.1335 0.087,-1.5057 -0.01,-2.741 -0.1705,-3.5605 -0.1626,-0.8195 -0.3837,-1.2246 -0.6039,-1.1116 -0.2202,0.113 -0.4307,0.7445 -0.7672,1.9728 -0.3664,2.1604 -0.9417,4.5597 -1.8272,6.9377 C -3707.335,2490.6765 -3708.7058,2493.2911 -3710.2411,2495.6048 Z"
           style="fill:#aa0000;stroke:none"
           sodipodi:nodetypes="csc"
           inkscape:path-effect="#path-effect4799-3"
           inkscape:original-d="m -4369.2216,2479.1101 c 0,51.9754 149.2042,94.1096 333.2566,94.1096 184.0525,0 333.2567,-42.1342 333.2567,-94.1096" />
        <path
           transform="matrix(-0.42143467,-0.36736855,-0.12012444,0.59661006,-5488.5418,-455.64622)"
           style="color:#000000;color-interpolation:sRGB;color-interpolation-filters:linearRGB;fill:#0000ff;stroke:none;stroke-width:1.81735766;marker:none;visibility:visible;display:inline;overflow:visible;enable-background:accumulate;clip-rule:nonzero"
           d="m -4306.7701,2309.3289 c -4.4967,-2.9518 -9.2779,-5.4657 -14.2516,-7.5018 -9.9474,-4.072 -20.6644,-6.2323 -31.4138,-6.1614 l 0,0 0,0 c -2.619,0.019 -5.2335,0.1697 -7.8325,0.449 -18.7154,2.0113 -36.692,10.3849 -50.0537,23.6671 -7.6009,7.5626 -13.6323,16.6546 -17.7558,26.551 -4.1236,9.8964 -6.3368,20.5982 -6.3005,31.3352 l 0,0 c 0,0.8383 0.02,1.6763 0.051,2.5135 0.3754,10.302 2.6758,20.5008 6.6902,29.9962 4.0144,9.4954 9.7464,18.2859 16.991,25.7008 3.6096,3.6898 7.579,7.0215 11.8283,9.953 4.2493,2.9315 6.0476,0.3753 1.9119,-2.4897 -4.1358,-2.865 -7.9897,-6.1211 -11.4796,-9.7238 -6.7077,-6.9151 -12.0532,-15.0815 -15.8597,-23.889 -3.8066,-8.8075 -6.0773,-18.2546 -6.6296,-27.7958 -0.082,-1.4153 -0.1254,-2.8377 -0.1286,-4.2651 -0.032,-9.9969 1.9236,-20.2232 5.7656,-29.838 3.842,-9.6148 9.5679,-18.606 16.8807,-26.0835 6.5288,-6.6851 14.2966,-12.135 22.6701,-16.1016 8.3736,-3.9667 17.3467,-6.4468 26.2883,-7.3274 2.3253,-0.229 4.6492,-0.3462 6.9632,-0.3523 l 0,0 0,0 c 5.3623,-0.016 10.6529,0.5585 15.7923,1.6507 5.1393,1.0922 10.1275,2.7015 14.8851,4.7537 4.7575,2.0521 9.289,4.547 13.5297,7.4446 C -4303.9874,2314.7119 -4302.2735,2312.2808 -4306.7701,2309.3289 Z"
           id="path3875"
           inkscape:connector-curvature="0"
           sodipodi:nodetypes="sscccscscccscsscsccscsscccssss" />
        <path
           sodipodi:nodetypes="ccsc"
           transform="translate(5.6387085,301.66294)"
           inkscape:connector-curvature="0"
           id="path2430"
           d="m -4012.6757,2137.0111 c 5.3312,-0.7415 10.6369,-1.5673 15.9304,-2.3549 0,0 0,0 0,0 15.0361,-2.2338 30.0609,-4.4649 45.1353,-6.234 0,0 0,0 0,0 16.3738,-1.9211 32.8074,-3.3528 49.2695,-3.6885 15.6047,-0.3152 31.2594,0.2736 46.5589,3.0748 3.5039,0.6437 7.0056,1.3394 10.476,2.138 8.2983,1.9095 16.4117,4.4358 23.9239,8.2693 3.5733,1.8242 6.9835,3.9559 9.9064,6.6152 0,0 0,0 0,0 2.3065,2.1007 4.31,4.534 5.6505,7.2858 1.1972,2.4425 1.8626,5.1497 1.9525,7.8719 0.099,2.8564 -0.4174,5.7414 -1.2987,8.5148 -1.0099,3.172 -2.5024,6.2004 -4.2323,9.0982 -1.9951,3.3386 -4.3157,6.4922 -6.8027,9.52 -5.8766,7.1543 -12.6308,13.5808 -19.6567,19.6954 0,0 0,0 0,0 -7.9755,6.9383 -16.3462,13.4292 -24.8762,19.7146 -5.8946,4.3436 -11.8695,8.5799 -17.8908,12.7568 -11.202,7.7707 -22.6259,15.2429 -34.0403,22.7354 0,0 0,0 0,0 -20.9266,12.7982 -43.6781,22.4472 -67.0678,29.8092 -17.2179,5.42 -34.8018,9.6087 -52.5704,12.8367 -7.6382,1.3877 -15.3152,2.5745 -23.0152,3.5749 -48.046,6.2392 -97.0101,5.5068 -144.8806,-2.0914 -7.5778,-1.8306 -11.2959,-1.6778 -11.2796,-0.7829 0.016,0.895 3.8135,2.5308 11.3468,3.1422 47.9271,7.7021 96.977,8.5619 145.1528,2.4431 7.3862,-0.9378 14.7539,-2.0472 22.0895,-3.3405 18.2575,-3.2189 36.3423,-7.4441 54.062,-12.9672 23.6165,-7.3617 46.6322,-17.0656 67.8545,-29.9841 10.6872,-6.9844 21.3995,-13.9679 31.9485,-21.2126 6.7178,-4.6137 13.4684,-9.3841 20.1747,-14.3601 8.4704,-6.2851 16.8888,-12.8937 24.956,-20.0243 7.0252,-6.2057 13.8448,-12.8213 19.8085,-20.2139 2.5224,-3.1266 4.8889,-6.4132 6.9381,-9.9109 1.7821,-3.0371 3.3254,-6.2609 4.3861,-9.6745 0,0 0,0 0,0 0.9343,-2.9985 1.4608,-6.1685 1.3355,-9.362 -0.127,-3.0696 -0.9005,-6.096 -2.264,-8.8325 -1.542,-3.0734 -3.7421,-5.7216 -6.2327,-7.9452 -3.1614,-2.826 -6.7503,-5.0459 -10.4385,-6.8972 -8.1283,-4.0813 -16.7434,-6.6667 -25.3394,-8.605 -3.2342,-0.7292 -6.4653,-1.3703 -9.6732,-1.9641 -15.8012,-2.9331 -31.5204,-3.6116 -47.0063,-3.4541 -16.6292,0.1665 -33.0673,1.3929 -49.5676,3.1754 -14.943,1.6137 -29.9357,3.7345 -45.2458,6.0083 -3.2746,0.4857 -6.5598,0.9922 -9.861,1.4909 -2.5062,0.3976 -5.6706,0.9403 -8.8758,1.4976 -3.2052,0.5574 -6.4528,1.1229 -9.1242,1.6247 -2.6714,0.5018 -4.7675,0.9448 -5.645,1.3415 -0.8775,0.3968 -0.5334,0.7658 1.6893,1.0153 C -4024.172,2138.443 -4018.0527,2137.7183 -4012.6757,2137.0111 Z"
           style="fill:#008000;stroke:none"
           inkscape:path-effect="#path-effect4799-3"
           inkscape:original-d="m -4211.4041,2304.92 c 98.9791,18.9545 218.0146,8.4519 299.3849,-41.8807 62.206,-41.2885 176.7412,-113.8311 56.4609,-136.4198 -57.6386,-10.8246 -140.4125,8.1508 -175.6468,10.1328" />
      </g>
    </g>
  </g>
</svg>
