<?xml version="1.0" encoding="UTF-8" standalone="no"?>
<!-- Created with Inkscape (http://www.inkscape.org/) -->

<svg
   xmlns:dc="http://purl.org/dc/elements/1.1/"
   xmlns:cc="http://creativecommons.org/ns#"
   xmlns:rdf="http://www.w3.org/1999/02/22-rdf-syntax-ns#"
   xmlns:svg="http://www.w3.org/2000/svg"
   xmlns="http://www.w3.org/2000/svg"
   xmlns:xlink="http://www.w3.org/1999/xlink"
   xmlns:sodipodi="http://sodipodi.sourceforge.net/DTD/sodipodi-0.dtd"
   xmlns:inkscape="http://www.inkscape.org/namespaces/inkscape"
   width="733.21747"
   height="462.74799"
   id="svg4968"
   version="1.1"
   inkscape:version="0.48+devel r"
   sodipodi:docname="torus.svg">
  <title
     id="title5516">Winter School -- Contact Topology</title>
  <defs
     id="defs4970">
    <inkscape:path-effect
       effect="skeletal"
       id="path-effect4799"
       is_visible="true"
       pattern="m 2150.5478,2373.2487 c -7.7724,0.7229 -15.5563,0.5951 -23.3473,0.9309 -7.7909,0.3357 -15.5885,-0.1655 -23.3873,0.011 -7.7988,0.1763 -15.5988,-0.9698 -23.3948,-0.7252 -7.7959,0.2446 -15.5878,0.5803 -23.3702,1.1208 -2.1523,-1.1561 -2.0117,3.7827 0.063,2.4375 7.7113,-0.3705 15.4323,-0.5304 23.1567,-0.6126 7.7244,-0.082 15.4521,1.213 23.1768,1.1533 7.7247,-0.06 16.17,-0.8046 23.8822,-1.1077 7.7122,-0.3032 14.6908,1.1358 22.3777,0.3234 1.4035,-0.2269 4.2998,-1.5408 3.0937,-3.2187 C 2152.1371,2373.1326 2151.2937,2373.2219 2150.5478,2373.2487 Z"
       copytype="single_stretched"
       prop_scale="1"
       scale_y_rel="false"
       spacing="0"
       normal_offset="0"
       tang_offset="0"
       prop_units="false"
       vertical_pattern="false"
       fuse_tolerance="0" />
    <inkscape:path-effect
       effect="skeletal"
       id="path-effect4790"
       is_visible="true"
       pattern="m 2150.5478,2373.2487 c -7.7724,0.7229 -15.5563,0.5951 -23.3473,0.9309 -7.7909,0.3357 -15.5885,-0.1655 -23.3873,0.011 -7.7988,0.1763 -15.5988,-0.9698 -23.3948,-0.7252 -7.7959,0.2446 -15.5878,0.5803 -23.3702,1.1208 -2.1523,-1.1561 -2.0117,3.7827 0.063,2.4375 7.7113,-0.3705 15.4323,-0.5304 23.1567,-0.6126 7.7244,-0.082 15.4521,1.213 23.1768,1.1533 7.7247,-0.06 16.17,-0.8046 23.8822,-1.1077 7.7122,-0.3032 14.6908,1.1358 22.3777,0.3234 1.4035,-0.2269 4.2998,-1.5408 3.0937,-3.2187 C 2152.1371,2373.1326 2151.2937,2373.2219 2150.5478,2373.2487 Z"
       copytype="single_stretched"
       prop_scale="1"
       scale_y_rel="false"
       spacing="0"
       normal_offset="0"
       tang_offset="0"
       prop_units="false"
       vertical_pattern="false"
       fuse_tolerance="0" />
    <inkscape:path-effect
       effect="skeletal"
       id="path-effect4782"
       is_visible="true"
       pattern="m 2150.5478,2373.2487 c -7.7724,0.7229 -15.5563,0.5951 -23.3473,0.9309 -7.7909,0.3357 -15.5885,-0.1655 -23.3873,0.011 -7.7988,0.1763 -15.5988,-0.9698 -23.3948,-0.7252 -7.7959,0.2446 -15.5878,0.5803 -23.3702,1.1208 -2.1523,-1.1561 -2.0117,3.7827 0.063,2.4375 7.7113,-0.3705 15.4323,-0.5304 23.1567,-0.6126 7.7244,-0.082 15.4521,1.213 23.1768,1.1533 7.7247,-0.06 16.17,-0.8046 23.8822,-1.1077 7.7122,-0.3032 14.6908,1.1358 22.3777,0.3234 1.4035,-0.2269 4.2998,-1.5408 3.0937,-3.2187 C 2152.1371,2373.1326 2151.2937,2373.2219 2150.5478,2373.2487 Z"
       copytype="single_stretched"
       prop_scale="1"
       scale_y_rel="false"
       spacing="0"
       normal_offset="0"
       tang_offset="0"
       prop_units="false"
       vertical_pattern="false"
       fuse_tolerance="0" />
    <linearGradient
       inkscape:collect="always"
       xlink:href="#linearGradient4825"
       id="linearGradient4831"
       x1="-1747.7617"
       y1="-2472.5149"
       x2="-1547.6705"
       y2="-2397.5547"
       gradientUnits="userSpaceOnUse"
       gradientTransform="translate(2061.1323,2674.8854)" />
    <linearGradient
       inkscape:collect="always"
       id="linearGradient4825">
      <stop
         style="stop-color:#000000;stop-opacity:0"
         offset="0"
         id="stop4827" />
      <stop
         id="stop4845"
         offset="0.06412536"
         style="stop-color:#000000;stop-opacity:0.15686275;" />
      <stop
         id="stop4841"
         offset="0.46409091"
         style="stop-color:#000000;stop-opacity:1" />
      <stop
         style="stop-color:#000000;stop-opacity:0.35686275;"
         offset="0.96680802"
         id="stop4843" />
      <stop
         style="stop-color:#000000;stop-opacity:0;"
         offset="1"
         id="stop4829" />
    </linearGradient>
  </defs>
  <sodipodi:namedview
     id="base"
     pagecolor="#ffffff"
     bordercolor="#666666"
     borderopacity="1.0"
     inkscape:pageopacity="0.0"
     inkscape:pageshadow="2"
     inkscape:zoom="1.1600971"
     inkscape:cx="552.67356"
     inkscape:cy="241.28727"
     inkscape:document-units="px"
     inkscape:current-layer="layer1"
     showgrid="false"
     fit-margin-top="0"
     fit-margin-left="0"
     fit-margin-right="0"
     fit-margin-bottom="0" />
  <metadata
     id="metadata4973">
    <rdf:RDF>
      <cc:Work
         rdf:about="">
        <dc:format>image/svg+xml</dc:format>
        <dc:type
           rdf:resource="http://purl.org/dc/dcmitype/StillImage" />
        <dc:title>Winter School -- Contact Topology</dc:title>
        <dc:date>2013</dc:date>
        <dc:creator>
          <cc:Agent>
            <dc:title>Marek Kaluba</dc:title>
          </cc:Agent>
        </dc:creator>
        <dc:rights>
          <cc:Agent>
            <dc:title>Marek Kaluba</dc:title>
          </cc:Agent>
        </dc:rights>
      </cc:Work>
    </rdf:RDF>
  </metadata>
  <g
     inkscape:label="Layer 1"
     inkscape:groupmode="layer"
     id="layer1"
     transform="translate(25.050689,23.8118)">
    <path
       style="fill:none;stroke:#ff0000;stroke-width:1px;stroke-linecap:butt;stroke-linejoin:miter;stroke-opacity:1"
       d="m 312.75,199.4579 201.8788,77.2688"
       id="path4821"
       inkscape:connector-curvature="0" />
    <path
       style="fill:none;stroke:#000000;stroke-width:1px;stroke-linecap:butt;stroke-linejoin:miter;stroke-opacity:1"
       d="m 312.75,-23.8118 0,462.748"
       id="path2584-4-4"
       inkscape:connector-curvature="0"
       sodipodi:nodetypes="cc" />
    <path
       style="fill:none;stroke:#000000;stroke-width:1px;stroke-linecap:butt;stroke-linejoin:miter;stroke-opacity:1"
       d="M -25.0505,199.9454 694.5362,199.673"
       id="path2586-9-9"
       inkscape:connector-curvature="0"
       sodipodi:nodetypes="cc" />
    <path
       id="path4894"
       style="fill:none;stroke:#87aade;stroke-width:0.99699998;stroke-linecap:round;stroke-miterlimit:4;stroke-dasharray:none"
       d="m 551.0331,254.3893 c -17.9082,-12.2286 -29.6632,-32.8046 -29.6632,-56.1261 0,-2.3442 0.1188,-4.6608 0.3507,-6.9439 m 135.479,6.9439 c 0,37.5084 -30.4065,67.9149 -67.9149,67.9149 -12.648,0 -24.4885,-3.4575 -34.6279,-9.4788"
       inkscape:connector-curvature="0" />
    <path
       style="fill:none;stroke:#000000;stroke-width:1px;stroke-linecap:butt;stroke-linejoin:miter;stroke-opacity:1"
       d="M 16.2442,346.6 589.2275,62.255"
       id="path2582-5-0"
       inkscape:connector-curvature="0"
       sodipodi:nodetypes="cc" />
    <path
       style="fill:none;stroke:#0000ff;stroke-width:0.99699998;stroke-linecap:round;stroke-miterlimit:4;stroke-dasharray:none"
       d="m 657.1948,198.2604 c 0,-37.5083 -30.3979,-67.9062 -67.9063,-67.9062 -35.164,0 -64.0845,26.7222 -67.5624,60.9687"
       id="path4815"
       inkscape:connector-curvature="0" />
    <path
       style="fill:#000000;fill-opacity:1;fill-rule:nonzero;stroke:none"
       d="m 4.0942394,161.02145 c 3.9260454,-6.09707 8.6336626,-11.74905 13.7680196,-16.97106 9.019462,-9.16462 19.38485,-17.01311 30.321033,-23.95825 6e-6,0 1.1e-5,0 1.6e-5,-1e-5 12.810492,-8.13184 26.433421,-14.99866 40.431917,-20.9964 6e-6,-2e-6 1.1e-5,-5e-6 1.7e-5,-8e-6 C 122.3326,84.64897 158.093,75.15799 194.29549,68.592177 237.00252,60.85 280.47223,57.354007 323.9382,57.254345 c 7.889,-0.01781 15.78001,0.07624 23.66864,0.286702 35.54712,0.948409 71.04122,4.368047 106.0431,10.667196 0,10e-7 10e-6,3e-6 2e-5,5e-6 36.21224,6.519053 72.00757,15.995571 105.81447,30.409209 10e-6,3e-6 10e-6,5e-6 2e-5,7e-6 14.02584,5.979846 27.68962,12.828026 40.56342,20.942586 0,0 10e-6,10e-6 10e-6,10e-6 10.98598,6.92666 21.42079,14.76426 30.54127,23.93806 0,0 0,0 0,0 7.71016,7.75977 14.49876,16.4977 19.21106,26.28982 0,1e-5 0,1e-5 10e-6,2e-5 4.21266,8.74893 6.6756,18.37887 6.68199,28.05274 0.004,2.47881 -0.15243,4.95552 -0.45881,7.416 -0.88928,7.14158 -3.04519,14.14525 -6.17628,20.65938 -4.70874,9.80166 -11.50696,18.54321 -19.23108,26.294 -9.13625,9.16261 -19.59227,16.9737 -30.59882,23.8626 -12.8969,8.06957 -26.58268,14.85697 -40.62685,20.77001 -10e-6,0 -2e-5,0 -2e-5,0 -33.8467,14.25084 -69.6493,23.52231 -105.84785,29.92162 -10e-6,0 -10e-6,0 -2e-5,10e-6 -39.99161,7.06604 -80.58883,10.46641 -121.2055,10.96434 -2.79288,0.0342 -5.58587,0.0541 -8.37878,0.0598 -43.42609,0.086 -86.88459,-3.2544 -129.62063,-10.82191 C 158.09899,320.55003 122.29765,311.2277 88.451079,296.97197 74.400432,291.05414 60.706901,284.26817 47.79342,276.20902 36.769936,269.32755 26.290276,261.52841 17.112921,252.3767 c -4e-6,0 -7e-6,-1e-5 -1.1e-5,-1e-5 -7.7612213,-7.74304 -14.6077613,-16.48228 -19.3849428,-26.30593 -0.6995101,-1.4379 -1.3519171,-2.90007 -1.9540799,-4.38282 -1.4452469,-3.99286 -2.4075016,-7.53608 -3.1046526,-10.56664 -0.697151,-3.03057 -1.1305161,-5.55227 -1.4644788,-7.55174 -0.3339627,-1.99948 -0.5695537,-3.47839 -0.7997701,-4.43262 -0.2302163,-0.95422 -0.4555398,-1.38379 -0.6859998,-1.28147 -0.23046,0.10232 -0.46576,0.73765 -0.63136,1.90782 -0.1656,1.17018 -0.260226,2.87705 -0.13637,5.09438 0.123855,2.21733 0.468614,4.94732 1.2271801,8.1049 0.7585661,3.15757 1.934651,6.74494 3.7206808,10.58484 0.5094682,1.20986 1.0513313,2.40539 1.6240306,3.58477 4.92601502,10.137 11.918873,19.10978 19.8236775,27.00187 6e-6,0 10e-6,0 1.4e-5,1e-5 9.338364,9.32988 19.955607,17.26217 31.091553,24.22861 13.044485,8.16315 26.850291,15.0316 40.992855,21.00854 34.060663,14.39447 70.042153,23.82426 106.398283,30.30984 42.90584,7.65656 86.5285,11.07105 130.10867,11.04047 2.00215,-10e-4 4.00439,-0.01 6.00667,-0.0259 41.56687,-0.33146 83.14992,-3.68162 124.12892,-10.8648 1e-5,0 1e-5,0 2e-5,0 36.37449,-6.37358 72.41598,-15.66804 106.56815,-29.99653 0,0 10e-6,-1e-5 10e-6,-1e-5 14.17577,-5.94759 28.02275,-12.80154 41.11118,-20.9707 10e-6,0 10e-6,-1e-5 2e-5,-1e-5 11.17128,-6.96923 21.82897,-14.92677 31.2045,-24.30349 10e-6,0 10e-6,-1e-5 10e-6,-1e-5 7.93663,-7.92989 14.95567,-16.96889 19.8934,-27.18821 2.41235,-4.99745 4.27186,-10.28277 5.46313,-15.71743 0.98919,-4.51278 1.52202,-9.14394 1.52255,-13.8137 -0.0183,-10.17686 -2.57163,-20.30612 -7.0278,-29.51082 -4.91866,-10.15052 -11.92575,-19.19436 -19.90077,-27.15924 -9.32804,-9.32496 -19.97742,-17.29723 -31.18799,-24.30031 0,-1e-5 -10e-6,-1e-5 -10e-6,-1e-5 -13.03805,-8.1485 -26.88435,-15.02716 -41.08586,-21.005131 C 526.45767,81.479333 490.244,72.103737 454.09318,65.742864 417.6836,59.333774 381.19911,56.074098 345.65642,55.207816 c -7.27816,-0.177384 -14.51699,-0.259711 -21.71822,-0.253038 -22.29115,0.02003 -44.24527,0.890639 -65.91659,2.676314 -21.67132,1.785675 -43.0608,4.48581 -64.22163,8.20501 -18.16288,3.191035 -36.19321,7.108211 -53.98133,12.03836 -17.78812,4.93015 -35.3356,10.87183 -52.507437,18.153423 -14.049145,5.957585 -27.845751,12.848005 -40.965151,21.144175 -11.019875,6.96589 -21.602914,14.94757 -30.940117,24.43415 -2.091522,2.12357 -4.120407,4.32839 -6.0634276,6.61654 -2.202194,2.61167 -4.6247215,5.75912 -6.9246559,9.26935 -2.29993455,3.51024 -4.4695827,7.38494 -6.2519948,11.36657 -2.0681079,4.6215 -3.5587536,9.38571 -4.4331728,13.66324 -0.8744193,4.27753 -1.145143,8.05802 -1.1193906,10.7761 0.025752,2.71807 0.310918,4.37623 0.577993,4.53078 0.1335375,0.0773 0.2665965,-0.21993 0.418638,-0.94062 0.1520414,-0.7207 0.3219215,-1.86542 0.5919065,-3.4765 0.4248819,-3.57703 1.152851,-7.46184 2.2717057,-11.41575 1.1188547,-3.9539 2.6278053,-7.97338 4.4632395,-11.80331 C 0.4755042,166.97862 2.2306285,163.89242 4.0942394,161.02145 Z"
       id="path4765"
       inkscape:path-effect="#path-effect4799"
       inkscape:original-d="m -9.7996,197.8407 c 0,78.3472 149.4195,141.8601 333.7378,141.8601 184.3183,0 333.7378,-63.5129 333.7378,-141.8601 0,-78.3471 -149.4195,-141.86 -333.7378,-141.86 C 139.6199,55.9807 -9.7996,119.4936 -9.7996,197.8407 Z"
       inkscape:connector-curvature="0" />
    <path
       style="fill:#000000;stroke:none"
       d="m 503.51473,190.41384 c -5.64357,-6.55211 -12.54245,-11.92915 -19.77956,-16.41809 -12.42715,-7.73528 -26.06315,-13.2216 -39.95282,-17.46158 0,0 0,0 0,0 -6.78325,-2.07304 -13.65037,-3.84484 -20.57581,-5.34097 -9.676,-2.09038 -19.43612,-3.78109 -29.23337,-5.13944 -18.20336,-2.52486 -36.58361,-3.88038 -54.96783,-3.90012 0,0 0,0 0,0 -1.74121,-0.002 -3.48251,0.008 -5.22367,0.0306 -16.78358,0.21669 -33.57606,0.9614 -50.28309,2.82851 -13.17507,1.47141 -26.31691,3.63676 -39.1782,6.9538 -4.04908,1.04429 -8.07519,2.17805 -12.07295,3.40873 0,0 0,0 -1e-5,0 -14.59708,4.48867 -28.91529,10.27493 -41.93316,18.32567 -9.10366,5.61971 -17.64728,12.47331 -24.21952,20.88588 -1.53547,1.43713 -2.36785,2.75121 -2.71174,3.72754 -0.34388,0.97634 -0.20387,1.61931 0.20643,1.83498 0.41031,0.21567 1.08754,0.01 1.87946,-0.6708 0.79193,-0.68069 1.697,-1.83227 2.66168,-3.54502 6.35656,-7.99943 14.65837,-14.54814 23.53165,-19.98697 12.80477,-7.83389 26.94212,-13.44364 41.4067,-17.81542 0,0 1e-5,0 1e-5,0 3.777,-1.14082 7.5803,-2.19439 11.40535,-3.16729 12.92699,-3.28791 26.15345,-5.39345 39.42403,-6.80603 16.11942,-1.71473 32.31325,-2.38939 48.49929,-2.58756 2.18297,-0.0267 4.38126,-0.0413 6.59249,-0.0428 17.80453,-0.0114 36.45616,0.8641 54.63458,3.07063 10.08521,1.22494 20.0259,2.84095 29.5476,4.92286 6.83925,1.49538 13.44557,3.29658 19.87013,5.37997 6.90637,2.24151 13.61973,4.79413 20.10925,7.74304 6.48952,2.94891 12.75583,6.29017 18.78261,10.16878 5.95609,3.84626 11.73466,8.22834 16.79608,13.45466 0.9295,0.93165 2.11021,2.10771 3.29178,3.32882 1.18158,1.22111 2.36258,2.48954 3.372,3.532 1.00941,1.04247 1.85385,1.85598 2.40689,2.09623 0.55304,0.24026 0.82965,-0.10316 0.58127,-1.34617 -0.48362,-1.23855 -1.22088,-2.54939 -2.08015,-3.82285 C 505.44286,192.78199 504.46227,191.5464 503.51473,190.41384 Z"
       id="path4767"
       inkscape:connector-curvature="0"
       sodipodi:nodetypes="cc"
       inkscape:path-effect="#path-effect4790"
       inkscape:original-d="m 163.1871,199.885 c 51.2218,-76.7256 302.8901,-73.9089 344.1658,-0.1234" />
    <path
       style="fill:#000000;stroke:none"
       d="m 550.88147,171.81911 c -3.09668,2.87778 -6.49166,5.47769 -10.039,7.88966 0,1e-5 -1e-5,1e-5 -1e-5,1e-5 -8.92575,6.06906 -18.72222,10.90583 -28.76397,15.18022 0,0 0,0 0,0 -11.79137,5.01538 -23.95832,9.1843 -36.27152,12.89988 0,0 -10e-6,0 -10e-6,0 -9.70376,2.92771 -19.50172,5.56219 -29.3587,7.98863 -3.68585,0.90732 -7.38289,1.77315 -11.08873,2.60203 -26.60926,5.95111 -53.63054,10.08158 -80.77851,12.7549 0,0 0,0 0,0 -7.2795,0.71663 -14.56753,1.32725 -21.86191,1.77399 -4.00105,0.24502 -8.00536,0.41893 -12.01095,0.51346 -8.46126,0.19767 -16.92099,0.12965 -25.23856,-0.90946 -14.63507,-1.82173 -29.25144,-3.64879 -43.73076,-6.0838 -11.02151,-1.85408 -21.97799,-4.0381 -32.79685,-6.70366 -5.01589,-1.23581 -9.99717,-2.59844 -14.93397,-4.10914 -10e-6,0 -10e-6,0 -10e-6,0 -16.42459,-5.02701 -32.37115,-11.70531 -47.07224,-20.54447 -13.5499,-8.14458 -26.00055,-18.16313 -36.78692,-29.76474 -1.55582,-2.15259 -2.87271,-3.5623 -3.89829,-4.34924 -1.02557,-0.78694 -1.7575,-0.9492 -2.07391,-0.60805 -0.31641,0.34115 -0.21499,1.18792 0.46096,2.38628 0.67594,1.19835 1.92899,2.75011 3.91386,4.43753 10.84726,11.72707 23.36211,21.87686 36.996,30.15539 14.8848,9.0357 31.00935,15.88108 47.59938,21.03289 0,0 0,0 0,0 4.74849,1.47474 9.53494,2.81357 14.35058,4.03469 11.14693,2.82664 22.42524,5.13788 33.75467,7.09171 14.56844,2.51293 29.22676,4.40574 43.84706,6.27427 0,0 0,0 0,0 8.56074,1.0883 17.17502,1.18808 25.69414,1.00286 0,0 0,0 1e-5,0 3.43423,-0.0732 6.86543,-0.20451 10.29227,-0.38895 7.83508,-0.42176 15.79876,-1.1033 23.82093,-1.9597 13.52162,-1.44287 27.23663,-3.37705 40.82926,-5.71456 13.59264,-2.3375 27.06242,-5.07755 40.11681,-8.06673 3.94997,-0.90438 7.86241,-1.83341 11.7283,-2.78591 9.89555,-2.43814 19.50854,-4.9378 28.94382,-7.63956 12.52854,-3.58703 24.76777,-7.516 36.77148,-12.4036 10.08585,-4.10358 20.08834,-8.86767 29.45335,-15.20037 2.47856,-1.67606 4.91121,-3.47186 7.24869,-5.42254 1.06847,-0.91208 2.31857,-2.07371 3.54793,-3.36167 1.23385,-1.29168 2.44522,-2.71629 3.45536,-4.10001 1.01015,-1.38372 1.81762,-2.72433 2.32475,-3.803 0.50714,-1.07867 0.72029,-1.88987 0.5883,-2.22898 -0.13199,-0.33912 -0.59773,-0.20036 -1.54326,0.51697 -1.03402,1.06282 -2.15021,2.28429 -3.33756,3.52658 -1.18735,1.24228 -2.44434,2.50575 -3.69246,3.66445 C 551.18777,171.53966 551.03445,171.68032 550.88147,171.81911 Z"
       id="path4769"
       inkscape:connector-curvature="0"
       sodipodi:nodetypes="csc"
       inkscape:path-effect="#path-effect4782"
       inkscape:original-d="m 114.5459,160.0404 c 49.6737,60.5243 127.1792,67.7122 180.7699,73.8212 53.5907,6.109 232.0573,-21.1887 265.3506,-69.7211" />
    <path
       style="fill:#000000;fill-opacity:0;stroke:#0000aa;stroke-width:1px;stroke-linecap:butt;stroke-linejoin:miter;stroke-opacity:1"
       d="m 589.9942,199.7248 44.2832,-52.3359"
       id="path4819"
       inkscape:connector-curvature="0" />
    <path
       style="fill:none;stroke:#ff0000;stroke-width:0.99699998;stroke-linecap:round;stroke-miterlimit:4;stroke-dasharray:none"
       d="M 551.688,139.3176 C 505.0564,106.5995 420.5044,84.7345 323.9382,84.7345 c -146.9586,0 -266.0922,50.6394 -266.0922,113.1062 0,62.4669 119.1336,113.1063 266.0922,113.1063 146.9586,0 266.0922,-50.6394 266.0922,-113.1063 0,-20.3738 -12.6731,-39.4895 -34.8512,-56.0004"
       id="path4898"
       inkscape:connector-curvature="0" />
    <path
       style="fill:#000000;fill-opacity:0;stroke:url(#linearGradient4831);stroke-width:1px;stroke-linecap:butt;stroke-linejoin:miter;stroke-opacity:1"
       d="m 314.4993,202.24 c 9.658,31.2124 78.8874,27.9001 85.7475,45.7521 9.0328,-12.0806 85.7475,54.432 112.5718,32.8793"
       id="path4823"
       inkscape:connector-curvature="0"
       sodipodi:nodetypes="ccc" />
    <text
       xml:space="preserve"
       style="font-size:15px;font-style:normal;font-variant:normal;font-weight:500;font-stretch:normal;text-align:start;line-height:125%;letter-spacing:0px;word-spacing:0px;writing-mode:lr-tb;text-anchor:start;fill:#000000;fill-opacity:1;stroke:none;font-family:CMU Serif;-inkscape-font-specification:CMU Serif Medium"
       x="393.61691"
       y="268.13907"
       id="text4847"
       sodipodi:linespacing="125%"><tspan
         sodipodi:role="line"
         id="tspan4849"
         x="393.61691"
         y="268.13907">R</tspan></text>
    <text
       xml:space="preserve"
       style="font-size:15px;font-style:normal;font-variant:normal;font-weight:500;font-stretch:normal;text-align:start;line-height:125%;letter-spacing:0px;word-spacing:0px;writing-mode:lr-tb;text-anchor:start;fill:#000000;fill-opacity:1;stroke:none;font-family:CMU Serif;-inkscape-font-specification:CMU Serif Medium"
       x="620.76501"
       y="179.84439"
       id="text4851"
       sodipodi:linespacing="125%"><tspan
         sodipodi:role="line"
         id="tspan4853"
         x="620.76501"
         y="179.84439">r</tspan></text>
    <text
       xml:space="preserve"
       style="font-size:15px;font-style:normal;font-variant:normal;font-weight:500;font-stretch:normal;text-align:start;line-height:125%;letter-spacing:0px;word-spacing:0px;writing-mode:lr-tb;text-anchor:start;fill:#000000;fill-opacity:1;stroke:none;font-family:CMU Serif;-inkscape-font-specification:CMU Serif Medium"
       x="700.42676"
       y="216.76456"
       id="text4855"
       sodipodi:linespacing="125%"><tspan
         sodipodi:role="line"
         id="tspan4857"
         x="700.42676"
         y="216.76456">x</tspan></text>
    <text
       xml:space="preserve"
       style="font-size:15px;font-style:normal;font-variant:normal;font-weight:500;font-stretch:normal;text-align:start;line-height:125%;letter-spacing:0px;word-spacing:0px;writing-mode:lr-tb;text-anchor:start;fill:#000000;fill-opacity:1;stroke:none;font-family:CMU Serif;-inkscape-font-specification:CMU Serif Medium"
       x="593.76367"
       y="84.783592"
       id="text4859"
       sodipodi:linespacing="125%"><tspan
         sodipodi:role="line"
         id="tspan4861"
         x="593.76367"
         y="84.783592">y</tspan></text>
    <text
       xml:space="preserve"
       style="font-size:15px;font-style:normal;font-variant:normal;font-weight:500;font-stretch:normal;text-align:start;line-height:125%;letter-spacing:0px;word-spacing:0px;writing-mode:lr-tb;text-anchor:start;fill:#000000;fill-opacity:1;stroke:none;font-family:CMU Serif;-inkscape-font-specification:CMU Serif Medium"
       x="325.72787"
       y="-14.842139"
       id="text4863"
       sodipodi:linespacing="125%"><tspan
         sodipodi:role="line"
         id="tspan4865"
         x="325.72787"
         y="-14.842139">z</tspan></text>
  </g>
</svg>
