<?xml version="1.0" encoding="UTF-8" standalone="no"?>
<!-- Created with Inkscape (http://www.inkscape.org/) -->

<svg
   xmlns:dc="http://purl.org/dc/elements/1.1/"
   xmlns:cc="http://creativecommons.org/ns#"
   xmlns:rdf="http://www.w3.org/1999/02/22-rdf-syntax-ns#"
   xmlns:svg="http://www.w3.org/2000/svg"
   xmlns="http://www.w3.org/2000/svg"
   xmlns:sodipodi="http://sodipodi.sourceforge.net/DTD/sodipodi-0.dtd"
   xmlns:inkscape="http://www.inkscape.org/namespaces/inkscape"
   width="1007.3688"
   height="666.84393"
   id="svg2713"
   version="1.1"
   inkscape:version="0.48+devel r"
   sodipodi:docname="transition-function.svg">
  <title
     id="title2721">Winter School -- Contact Topology</title>
  <defs
     id="defs2715">
    <inkscape:path-effect
       effect="skeletal"
       id="path-effect2405"
       is_visible="true"
       pattern="m 114.73374,41.868949 c -7.77241,0.72284 -15.556379,0.59508 -23.347319,0.93083 -7.79095,0.33575 -15.58849,-0.16545 -23.38728,0.0109 -7.7988,0.17634 -15.59884,-0.96978 -23.39479,-0.72517 -7.79596,0.24461 -15.587809,0.58027 -23.37023,1.12082 -2.1523,-1.15612 -2.01174,3.78271 0.0625,2.4375 7.71127,-0.37053 15.4323,-0.53042 23.15668,-0.61261 7.72438,-0.0822 15.45212,1.213 23.1768,1.15327 7.72469,-0.0597 16.17001,-0.80459 23.88219,-1.10773 7.71218,-0.30315 14.690829,1.13589 22.377699,0.32345 1.40356,-0.22689 4.29984,-1.54077 3.09375,-3.21875 C 116.32296,41.752829 115.47957,41.842109 114.73374,41.868949 Z"
       copytype="single_stretched"
       prop_scale="1"
       scale_y_rel="false"
       spacing="0"
       normal_offset="0"
       tang_offset="0"
       prop_units="false"
       vertical_pattern="false"
       fuse_tolerance="0" />
    <inkscape:path-effect
       effect="skeletal"
       id="path-effect2504"
       is_visible="true"
       pattern="m 114.73374,41.868949 c -7.77241,0.72284 -15.556379,0.59508 -23.347319,0.93083 -7.79095,0.33575 -15.58849,-0.16545 -23.38728,0.0109 -7.7988,0.17634 -15.59884,-0.96978 -23.39479,-0.72517 -7.79596,0.24461 -15.587809,0.58027 -23.37023,1.12082 -2.1523,-1.15612 -2.01174,3.78271 0.0625,2.4375 7.71127,-0.37053 15.4323,-0.53042 23.15668,-0.61261 7.72438,-0.0822 15.45212,1.213 23.1768,1.15327 7.72469,-0.0597 16.17001,-0.80459 23.88219,-1.10773 7.71218,-0.30315 14.690829,1.13589 22.377699,0.32345 1.40356,-0.22689 4.29984,-1.54077 3.09375,-3.21875 C 116.32296,41.752829 115.47957,41.842109 114.73374,41.868949 Z"
       copytype="single_stretched"
       prop_scale="1"
       scale_y_rel="false"
       spacing="0"
       normal_offset="0"
       tang_offset="0"
       prop_units="false"
       vertical_pattern="false"
       fuse_tolerance="0" />
    <inkscape:path-effect
       effect="skeletal"
       id="path-effect2477"
       is_visible="true"
       pattern="m 114.73374,41.868949 c -7.77241,0.72284 -15.556379,0.59508 -23.347319,0.93083 -7.79095,0.33575 -15.58849,-0.16545 -23.38728,0.0109 -7.7988,0.17634 -15.59884,-0.96978 -23.39479,-0.72517 -7.79596,0.24461 -15.587809,0.58027 -23.37023,1.12082 -2.1523,-1.15612 -2.01174,3.78271 0.0625,2.4375 7.71127,-0.37053 15.4323,-0.53042 23.15668,-0.61261 7.72438,-0.0822 15.45212,1.213 23.1768,1.15327 7.72469,-0.0597 16.17001,-0.80459 23.88219,-1.10773 7.71218,-0.30315 14.690829,1.13589 22.377699,0.32345 1.40356,-0.22689 4.29984,-1.54077 3.09375,-3.21875 C 116.32296,41.752829 115.47957,41.842109 114.73374,41.868949 Z"
       copytype="single_stretched"
       prop_scale="1"
       scale_y_rel="false"
       spacing="0"
       normal_offset="0"
       tang_offset="0"
       prop_units="false"
       vertical_pattern="false"
       fuse_tolerance="0" />
    <inkscape:path-effect
       effect="skeletal"
       id="path-effect2512"
       is_visible="true"
       pattern="m 114.73374,41.868949 c -7.77241,0.72284 -15.556379,0.59508 -23.347319,0.93083 -7.79095,0.33575 -15.58849,-0.16545 -23.38728,0.0109 -7.7988,0.17634 -15.59884,-0.96978 -23.39479,-0.72517 -7.79596,0.24461 -15.587809,0.58027 -23.37023,1.12082 -2.1523,-1.15612 -2.01174,3.78271 0.0625,2.4375 7.71127,-0.37053 15.4323,-0.53042 23.15668,-0.61261 7.72438,-0.0822 15.45212,1.213 23.1768,1.15327 7.72469,-0.0597 16.17001,-0.80459 23.88219,-1.10773 7.71218,-0.30315 14.690829,1.13589 22.377699,0.32345 1.40356,-0.22689 4.29984,-1.54077 3.09375,-3.21875 C 116.32296,41.752829 115.47957,41.842109 114.73374,41.868949 Z"
       copytype="single_stretched"
       prop_scale="1"
       scale_y_rel="false"
       spacing="0"
       normal_offset="0"
       tang_offset="0"
       prop_units="false"
       vertical_pattern="false"
       fuse_tolerance="0" />
    <inkscape:path-effect
       effect="skeletal"
       id="path-effect2469"
       is_visible="true"
       pattern="m 114.73374,41.868949 c -7.77241,0.72284 -15.556379,0.59508 -23.347319,0.93083 -7.79095,0.33575 -15.58849,-0.16545 -23.38728,0.0109 -7.7988,0.17634 -15.59884,-0.96978 -23.39479,-0.72517 -7.79596,0.24461 -15.587809,0.58027 -23.37023,1.12082 -2.1523,-1.15612 -2.01174,3.78271 0.0625,2.4375 7.71127,-0.37053 15.4323,-0.53042 23.15668,-0.61261 7.72438,-0.0822 15.45212,1.213 23.1768,1.15327 7.72469,-0.0597 16.17001,-0.80459 23.88219,-1.10773 7.71218,-0.30315 14.690829,1.13589 22.377699,0.32345 1.40356,-0.22689 4.29984,-1.54077 3.09375,-3.21875 C 116.32296,41.752829 115.47957,41.842109 114.73374,41.868949 Z"
       copytype="single_stretched"
       prop_scale="1"
       scale_y_rel="false"
       spacing="0"
       normal_offset="0"
       tang_offset="0"
       prop_units="false"
       vertical_pattern="false"
       fuse_tolerance="0" />
  </defs>
  <sodipodi:namedview
     id="base"
     pagecolor="#ffffff"
     bordercolor="#666666"
     borderopacity="1.0"
     inkscape:pageopacity="0.0"
     inkscape:pageshadow="2"
     inkscape:zoom="0.75609756"
     inkscape:cx="503.68443"
     inkscape:cy="333.42196"
     inkscape:document-units="px"
     inkscape:current-layer="layer1"
     showgrid="false"
     fit-margin-top="0"
     fit-margin-left="0"
     fit-margin-right="0"
     fit-margin-bottom="0" />
  <metadata
     id="metadata2718">
    <rdf:RDF>
      <cc:Work
         rdf:about="">
        <dc:format>image/svg+xml</dc:format>
        <dc:type
           rdf:resource="http://purl.org/dc/dcmitype/StillImage" />
        <dc:title>Winter School -- Contact Topology</dc:title>
        <dc:date>2013</dc:date>
        <dc:creator>
          <cc:Agent>
            <dc:title>Marek Kaluba</dc:title>
          </cc:Agent>
        </dc:creator>
        <dc:rights>
          <cc:Agent>
            <dc:title>Marek Kaluba</dc:title>
          </cc:Agent>
        </dc:rights>
      </cc:Work>
    </rdf:RDF>
  </metadata>
  <g
     inkscape:label="Layer 1"
     inkscape:groupmode="layer"
     id="layer1"
     transform="translate(128.68443,-198.94023)">
    <g
       transform="translate(731.98071,1382.2211)"
       id="g2617">
      <path
         inkscape:connector-curvature="0"
         id="path1948"
         d="m -860.66514,-613.6322 328.6369,0"
         style="fill:none;stroke:#000000;stroke-width:1px;stroke-linecap:butt;stroke-linejoin:miter;stroke-opacity:1" />
      <path
         inkscape:connector-curvature="0"
         id="path1950"
         d="m -755.82976,-516.43696 0,-199.6427"
         style="fill:none;stroke:#000000;stroke-width:1px;stroke-linecap:butt;stroke-linejoin:miter;stroke-opacity:1" />
      <path
         inkscape:connector-curvature="0"
         id="path1952"
         d="m -251.69294,-612.88008 300.631276,0"
         style="fill:none;stroke:#000000;stroke-width:1px;stroke-linecap:butt;stroke-linejoin:miter;stroke-opacity:1" />
      <path
         inkscape:connector-curvature="0"
         id="path1954"
         d="m -148.31346,-517.76266 0,-198.9996"
         style="fill:none;stroke:#000000;stroke-width:1px;stroke-linecap:butt;stroke-linejoin:miter;stroke-opacity:1" />
      <path
         transform="translate(21.318213,333.50564)"
         d="m -565.17788,-1028.1057 c 0,40.53226 -32.8579,73.39016 -73.39017,73.39016 -40.53228,0 -73.39018,-32.8579 -73.39018,-73.39016 0,-40.5323 32.8579,-73.3902 73.39018,-73.3902 C -598.03578,-1101.4959 -565.17788,-1068.638 -565.17788,-1028.1057 Z"
         sodipodi:ry="73.390175"
         sodipodi:rx="73.390175"
         sodipodi:cy="-1028.1057"
         sodipodi:cx="-638.56805"
         id="path1956"
         style="opacity:0.3;fill:#000000;fill-opacity:1;fill-rule:nonzero;stroke:none"
         sodipodi:type="arc" />
      <path
         transform="matrix(0.97661033,-0.21501689,0.21501689,0.97661033,258.20912,270.8736)"
         d="m 71.764046,-974.46368 c 0,27.98263 -44.289379,50.66705 -98.923096,50.66705 -54.633717,0 -98.9231,-22.68442 -98.9231,-50.66705 0,-27.98262 44.289383,-50.66702 98.9231,-50.66702 C 27.474667,-1025.1307 71.764046,-1002.4463 71.764046,-974.46368 Z"
         sodipodi:ry="50.667049"
         sodipodi:rx="98.923096"
         sodipodi:cy="-974.46368"
         sodipodi:cx="-27.15905"
         id="path1958"
         style="opacity:0.7;fill:#000000;fill-opacity:1;fill-rule:nonzero;stroke:none"
         sodipodi:type="arc" />
      <path
         sodipodi:nodetypes="csssssssssc"
         inkscape:connector-curvature="0"
         id="path1960"
         d="m -539.30138,-1173.9912 c 10.89183,1.9543 21.76463,4.1793 32.62869,6.4122 10e-6,0 2e-5,0 3e-5,0 28.84116,5.9427 57.93248,12.0183 87.56008,13.3111 24.09219,1.0349 48.07642,-1.6736 71.86294,-4.3922 23.78431,-2.7079 47.59838,-5.4595 71.36827,-4.519 31.68766,1.2456 63.39075,1.7632 94.84422,5.0061 1e-5,0 2e-5,0 3e-5,0 31.12126,3.214 62.1658,9.1545 90.959804,21.1727 16.105573,6.717 32.434978,12.8212 48.668951,19.116 4.357938,1.6899 8.708644,3.3944 13.045934,5.1291 21.7647386,8.707 43.342826,17.9679 63.672166,29.5237 9.409102,5.3485 18.537985,11.1943 27.021561,17.8656 7.695107,6.0535 14.875822,12.7872 20.853915,20.4784 4e-6,0 8e-6,0 1.2e-5,0 5.486734,7.0607 9.934304,14.9675 12.528053,23.474 2.654989,8.6805 3.306384,17.9533 2.128998,26.97208 -3e-6,10e-6 -6e-6,2e-5 -1e-5,2e-5 -1.172877,8.87095 -4.448336,17.5966 -10.403387,24.12521 -5.995116,6.63665 -14.302493,10.924 -22.917534,13.83411 -11.243945,3.78093 -23.139271,5.46564 -35.051292,6.63454 -15.36914,1.50171 -30.8422504,1.98314 -46.327466,2.35623 -8e-6,0 -1.6e-5,10e-6 -2.5e-5,10e-6 -22.178062,0.53822 -44.345904,-2.81786 -65.983332,-8.02665 -22.016618,-5.30274 -43.567528,-12.48293 -65.129158,-19.64114 -10.59294,-3.51796 -21.20048,-7.04441 -31.87871,-10.35432 -11.05882,-3.42789 -22.19052,-6.63239 -33.45893,-9.36354 -21.7709,-5.27915 -44.14002,-8.72015 -66.61295,-8.27475 -37.42235,0.7527 -74.60261,7.08356 -110.66952,16.99623 0,0 -1e-5,0 -2e-5,0 -37.98231,10.43648 -74.83735,24.89722 -110.00753,42.64034 -10e-6,0 -2e-5,0 -2e-5,10e-6 -21.36231,10.77686 -42.32019,22.25851 -63.54915,33.12204 -10e-6,0 -2e-5,1e-5 -2e-5,1e-5 -19.80411,10.13073 -39.84685,19.79485 -60.72231,27.13263 -11.82105,4.15043 -23.9493,7.54585 -36.24134,9.59292 -7.48809,1.24704 -15.03753,1.99104 -22.6155,2.09744 -9.7725,0.14271 -19.5621,-0.77922 -29.09916,-2.85979 -10.07611,-2.19588 -19.87246,-5.68599 -29.15412,-10.22809 -14.63966,-7.17469 -28.09312,-16.96095 -38.47598,-29.43347 0,-1e-5 -10e-6,-2e-5 -10e-6,-3e-5 -9.02835,-10.827 -15.6631,-23.63079 -19.57479,-37.20621 0,-10e-6 0,-2e-5 0,-3e-5 -3.79684,-13.16534 -5.11707,-27.02016 -4.53376,-40.76704 0.57504,-13.50006 2.96495,-26.91986 6.79815,-39.90616 6.09979,-20.6649 15.87469,-40.2196 28.35096,-57.8268 13.04653,-18.4101 29.0688,-34.7101 47.19323,-48.1786 10e-6,0 2e-5,0 2e-5,0 19.00427,-14.1222 40.34606,-25.1107 62.90288,-32.3537 13.63038,-4.3774 27.69771,-7.3728 41.92959,-9.0087 5.79868,-0.5023 10.83072,-0.7921 15.10723,-1.0031 4.2765,-0.211 7.79807,-0.3427 10.57981,-0.4762 2.78175,-0.1335 4.82392,-0.2684 6.13927,-0.4396 1.31535,-0.1712 1.90382,-0.3785 1.77434,-0.6139 -0.25896,-0.4708 -3.39634,-1.0921 -9.32774,-1.3249 -5.9314,-0.2328 -14.68145,-0.07 -25.90099,1.591 -13.92548,1.6719 -27.69247,4.6345 -41.05351,8.909 -22.82606,7.3045 -44.42374,18.3959 -63.66863,32.666 0,0 -10e-6,0 -2e-5,0 -18.35223,13.608 -34.58124,30.0847 -47.81119,48.7113 -12.65338,17.813 -22.57589,37.6182 -28.79117,58.5815 -3.90575,13.1734 -6.34603,26.8077 -6.9482,40.55084 -0.61508,13.99929 0.72513,28.14811 4.59606,41.65074 10e-6,10e-6 10e-6,2e-5 10e-6,2e-5 3.99766,13.93636 10.79769,27.08569 20.07415,38.24185 10e-6,10e-6 10e-6,10e-6 2e-5,2e-5 10.68177,12.83265 24.43591,22.87791 39.37767,30.20485 9.47112,4.64829 19.48117,8.22427 29.79589,10.48498 9.76371,2.13871 19.77317,3.09291 29.75844,2.95584 6.63971,-0.0931 13.24677,-0.65859 19.80021,-1.61153 13.62797,-1.98164 27.02588,-5.63017 40.00749,-10.18488 21.09147,-7.39579 41.27133,-17.09346 61.12761,-27.23143 10e-6,0 2e-5,0 3e-5,-10e-6 21.29272,-10.86907 42.2585,-22.32788 63.56867,-33.05169 0,0 10e-6,-1e-5 2e-5,-1e-5 35.01659,-17.62087 71.68904,-31.97126 109.45807,-42.31316 0,0 10e-6,0 2e-5,0 35.87038,-9.81906 72.78699,-16.08164 109.87603,-16.79607 0,10e-6 1e-5,10e-6 2e-5,10e-6 22.08885,-0.43657 44.16934,2.98659 65.75183,8.21973 8.59345,2.0855 17.11996,4.45419 25.60882,6.99241 13.11299,3.92087 26.23472,8.28394 39.4542,12.66603 21.36771,7.08744 43.03921,14.28795 65.424014,19.63847 21.708823,5.19325 44.185318,8.5534 66.83005,7.95167 15.4680763,-0.41561 31.02303,-0.94893 46.542189,-2.51382 11.990471,-1.20148 24.101312,-2.97317 35.67139,-6.88932 8.908732,-2.99574 17.599076,-7.57586 24.055032,-14.68617 6.374947,-7.11292 9.841396,-16.34364 11.007235,-25.63788 1.19896,-9.39289 0.48008,-19.03449 -2.307672,-28.07439 -4e-6,0 -9e-6,0 -1.3e-5,0 -2.74552,-8.8679 -7.364505,-17.0313 -13.023167,-24.257 -6.181014,-7.8949 -13.525157,-14.747 -21.330694,-20.849 -8.652943,-6.7675 -17.897716,-12.6559 -27.356597,-18.0067 -20.701527,-11.7108 -42.4197733,-20.9719 -63.988408,-29.5901 -5.209614,-2.0821 -10.419177,-4.1145 -15.616893,-6.1241 -15.542476,-6.0091 -30.972834,-11.8309 -46.051207,-18.1471 -14.722499,-6.1633 -29.890179,-10.724 -45.239939,-14.1674 -15.34977,-3.4435 -30.88219,-5.7684 -46.35245,-7.4121 -31.76719,-3.3797 -63.45026,-4.0148 -94.99171,-5.3766 -24.03962,-1.0317 -47.99207,1.6251 -71.84305,4.2692 -23.6644,2.6132 -47.45209,5.2685 -71.35175,4.1767 -14.45292,-0.6509 -28.88848,-2.4701 -43.36892,-4.886 -14.48043,-2.4159 -29.00584,-5.4299 -43.63452,-8.431 -4.87186,-1.0013 -9.76411,-2.0028 -14.67863,-2.9806 -7.48953,-1.4701 -17.00374,-3.2247 -26.68715,-4.6766 -4.84171,-0.726 -9.7249,-1.3756 -14.41216,-1.9002 -4.68726,-0.5247 -9.17847,-0.9238 -13.23321,-1.189 -8.10948,-0.5303 -14.46928,-0.5135 -17.16302,-0.2635 -1.34687,0.125 -1.77787,0.302 -1.06241,0.5261 0.71546,0.2242 2.57741,0.4924 5.80716,0.8945 7.09254,0.6366 15.14005,1.4978 23.40286,2.622 C -555.72529,-1176.8148 -547.24695,-1175.4384 -539.30138,-1173.9912 Z"
         style="fill:#000000;fill-opacity:1;stroke:none"
         inkscape:path-effect="#path-effect2405"
         inkscape:original-d="m -583.78608,-1181.3897 c -108.0184,-3.9699 -191.16113,67.6173 -215.38583,149.0002 -15.18143,51.002 -10.09975,116.65984 56.39897,149.34634 78.95996,38.8117 156.18874,-14.8317 242.98725,-58.8718 70.35655,-35.69774 148.59141,-58.46994 219.89168,-60.00174 89.60776,-1.9252 173.46528,57.84684 263.06644,55.63594 68.933239,-1.7009 110.384375,-6.5865 115.776428,-48.01664 10.203032,-78.3956 -115.603033,-113.365 -188.521913,-143.9068 -57.838825,-24.2256 -123.590705,-23.9627 -186.246895,-26.4947 -47.78616,-1.9311 -95.43723,10.8582 -143.21272,8.6791 -58.77107,-2.6807 -115.67736,-24.5095 -174.46984,-26.6702" />
      <path
         sodipodi:nodetypes="czc"
         inkscape:connector-curvature="0"
         id="path1962"
         d="m -630.29506,-945.883 c -3.74904,3.19404 -7.67872,6.23709 -11.63875,9.2471 -3.89866,2.26273 -8.02436,4.14639 -12.27566,5.72822 -1.4118,0.5253 -2.8493,0.98682 -4.30446,1.38664 -3.58628,0.99042 -7.27633,1.60077 -10.98322,1.91021 -3.70688,0.30943 -7.43042,0.31951 -11.14133,0.11535 0,0 0,0 0,0 -0.57197,-0.0313 -1.14372,-0.0684 -1.71528,-0.11094 -3.46455,-0.25756 -6.88953,-0.97878 -10.20612,-2.00054 -3.31659,-1.02176 -6.52587,-2.34206 -9.64291,-3.81212 -2.28807,-1.07382 -4.52896,-2.22612 -6.765,-3.40963 -3.27464,-1.73322 -6.43903,-3.70862 -9.4789,-5.88287 -4.28434,-3.92602 -8.60706,-7.81961 -12.99159,-11.66797 -1.09555,-2.69167 -4.4146,0.95215 -1.63702,1.79889 4.32747,3.93244 8.59547,7.91609 12.8304,11.93452 3.06733,2.28554 6.27452,4.38018 9.61036,6.24016 2.37143,1.32225 4.75798,2.61311 7.20654,3.81957 3.16682,1.55603 6.43777,2.95731 9.82735,4.05791 3.38959,1.1006 6.89882,1.89867 10.46244,2.235 0.75313,0.0711 1.51336,0.12595 2.2791,0.16433 3.80563,0.18914 7.7351,-0.0112 11.61143,-0.55686 3.87632,-0.54564 7.69774,-1.4352 11.3345,-2.55929 1.57139,-0.48794 3.10788,-1.01649 4.60437,-1.573 4.50991,-1.67713 8.8039,-3.30902 12.94495,-5.3574 3.88527,-2.55835 7.76967,-5.18957 11.45378,-8.38345 1.06372,-1.00805 2.67097,-3.33558 1.84609,-4.3008 10e-6,2e-5 3e-5,4e-5 5e-5,6e-5 10e-6,2e-5 3e-5,4e-5 5e-5,6e-5 10e-6,1e-5 2e-5,3e-5 3e-5,4e-5 10e-6,1e-5 2e-5,2e-5 3e-5,3e-5 2e-5,2e-5 4e-5,4e-5 6e-5,7e-5 2e-5,2e-5 3e-5,4e-5 5e-5,6e-5 0.88553,1.01395 0.90094,1.03159 -0.0124,-0.0142 -2e-5,-2e-5 -4e-5,-5e-5 -6e-5,-7e-5 -2e-5,-2e-5 -4e-5,-4e-5 -6e-5,-7e-5 -2e-5,-2e-5 -4e-5,-4e-5 -6e-5,-6e-5 -10e-6,-10e-6 -2e-5,-3e-5 -3e-5,-4e-5 -1e-5,-10e-6 -2e-5,-2e-5 -3e-5,-3e-5 -2e-5,-3e-5 -4e-5,-5e-5 -6e-5,-7e-5 -2e-5,-2e-5 -4e-5,-4e-5 -6e-5,-6e-5 -2e-5,-3e-5 -4e-5,-5e-5 -6e-5,-8e-5 -10e-6,-1e-5 -2e-5,-2e-5 -3e-5,-3e-5 -10e-6,-2e-5 -2e-5,-3e-5 -3e-5,-4e-5 -2e-5,-3e-5 -5e-5,-5e-5 -7e-5,-7e-5 -2e-5,-3e-5 -3e-5,-5e-5 -5e-5,-7e-5 -2e-5,-2e-5 -4e-5,-4e-5 -6e-5,-6e-5 -1e-5,-2e-5 -2e-5,-3e-5 -3e-5,-4e-5 -10e-6,-10e-6 -2e-5,-3e-5 -3e-5,-4e-5 -2e-5,-2e-5 -4e-5,-4e-5 -6e-5,-6e-5 -2e-5,-2e-5 -4e-5,-5e-5 -6e-5,-7e-5 0,0 0,0 0,0 0,0 0,0 0,0 -0.16704,-0.18702 -0.42724,-0.32195 -0.80083,-0.38625 C -628.80904,-947.10801 -629.57836,-946.43811 -630.29506,-945.883 Z"
         style="fill:#000000;fill-opacity:1;stroke:none"
         inkscape:path-effect="#path-effect2504"
         inkscape:original-d="m -733.37427,-955.15096 c 0,0 19.44282,26.7048 52.65543,28.8816 33.21259,2.1768 54.32389,-19.8249 54.32389,-19.8249" />
      <path
         sodipodi:nodetypes="czc"
         inkscape:connector-curvature="0"
         id="path1962-7"
         d="m -16.070288,-1029.4028 c -3.948039,2.9445 -8.066553,5.7266 -12.213209,8.4738 -4.037041,2.0055 -8.276095,3.6179 -12.620932,4.9211 -1.442848,0.4327 -2.907201,0.8002 -4.385193,1.1049 -3.6429,0.7561 -7.364731,1.1261 -11.083876,1.1948 -3.719144,0.069 -7.435515,-0.1624 -11.125413,-0.6064 0,0 0,0 -10e-7,0 -0.568747,-0.068 -1.136897,-0.1424 -1.704506,-0.2218 -3.440594,-0.4814 -6.811664,-1.423 -10.055112,-2.6574 -3.243448,-1.2344 -6.360483,-2.7598 -9.375765,-4.4286 -2.21371,-1.2198 -4.375263,-2.5148 -6.529955,-3.8406 -3.155515,-1.9417 -6.18532,-4.1179 -9.07799,-6.4845 -4.02107,-4.1952 -8.08253,-8.3606 -12.20862,-12.4848 -0.91892,-2.757 -4.467,0.6642 -1.75008,1.6891 4.06369,4.2044 8.06472,8.4561 12.0305,12.7404 2.91286,2.4794 5.97766,4.7773 9.186031,6.8495 2.280812,1.473 4.57874,2.9157 6.944017,4.2782 3.059393,1.7579 6.232714,3.3681 9.543899,4.6859 3.311184,1.3178 6.761351,2.3415 10.295704,2.9079 0.746956,0.1197 1.502033,0.2237 2.263683,0.3116 3.785393,0.4352 7.719591,0.4898 11.623112,0.1964 3.903522,-0.2935 7.774533,-0.9337 11.47647,-1.8198 1.599678,-0.3852 3.167155,-0.8131 4.696536,-1.2715 4.609074,-1.3815 8.999759,-2.7318 13.264789,-4.5077 4.042805,-2.3013 8.089462,-4.6754 11.972695,-7.6239 1.126776,-0.9371 2.881409,-3.1556 2.120776,-4.1722 1.2e-5,0 2.9e-5,0 4.5e-5,0 1.7e-5,0 3.4e-5,10e-5 5.1e-5,10e-5 9e-6,0 1.9e-5,0 2.8e-5,0 10e-6,0 1.9e-5,10e-5 2.9e-5,10e-5 1.7e-5,0 3.3e-5,0 5e-5,0 1.7e-5,10e-5 3.4e-5,10e-5 5.1e-5,10e-5 0.817995,1.0692 0.832224,1.0878 -0.01147,-0.015 -2e-5,0 -3.9e-5,0 -5.9e-5,-10e-5 -1.8e-5,0 -3.5e-5,0 -5.3e-5,0 -1.7e-5,-10e-5 -3.5e-5,-10e-5 -5.2e-5,-10e-5 -10e-6,0 -2e-5,0 -3e-5,0 -10e-6,0 -1.9e-5,-10e-5 -2.9e-5,-10e-5 -1.8e-5,0 -3.5e-5,0 -5.3e-5,0 -1.7e-5,-1e-4 -3.5e-5,-1e-4 -5.2e-5,-1e-4 -2e-5,0 -4e-5,-10e-5 -5.9e-5,-10e-5 -1e-5,0 -2e-5,0 -3e-5,0 -10e-6,0 -1.9e-5,-10e-5 -2.9e-5,-10e-5 -2e-5,0 -4e-5,0 -5.9e-5,0 -1.8e-5,-10e-5 -3.5e-5,-10e-5 -5.3e-5,-10e-5 -1.7e-5,0 -3.5e-5,-10e-5 -5.2e-5,-10e-5 -1e-5,0 -2e-5,0 -3e-5,0 -10e-6,0 -2e-5,0 -2.9e-5,-10e-5 -1.8e-5,0 -3.5e-5,0 -5.3e-5,0 -1.8e-5,0 -3.5e-5,-10e-5 -5.3e-5,-10e-5 0,0 0,0 0,0 0,0 -10e-7,0 -10e-7,0 -0.154572,-0.1974 -0.405488,-0.3489 -0.774131,-0.4373 C -14.508047,-1030.529 -15.31914,-1029.9103 -16.070288,-1029.4028 Z"
         style="fill:#000000;fill-opacity:1;stroke:none"
         inkscape:path-effect="#path-effect2477"
         inkscape:original-d="m -118.33282,-1045.3275 c 0,0 17.67242,27.9079 50.674303,32.2312 33.001883,4.3233 55.493831,-16.2647 55.493831,-16.2647" />
      <path
         sodipodi:nodetypes="cc"
         inkscape:connector-curvature="0"
         id="path1982"
         d="m -639.25701,-939.95678 c -3.15895,-1.68639 -6.28637,-3.40144 -9.47905,-4.98631 -3.19269,-1.58486 -6.45318,-3.03866 -9.82076,-4.16757 -3.28988,-1.10287 -6.56902,-2.18514 -9.91866,-3.0533 -3.34964,-0.86816 -6.77239,-1.52128 -10.25351,-1.74188 -0.16465,-0.01 -0.3293,-0.019 -0.49395,-0.027 -3.56783,-0.17295 -7.1182,-0.36462 -10.69554,-0.26438 -3.57734,0.10024 -7.17748,0.49611 -10.63189,1.47864 -6.90884,1.96508 -13.49399,5.00685 -19.41558,8.88884 -1.134,-0.0355 -1.06554,1.02035 -0.58831,1.80961 0.47723,0.78927 1.33568,1.3308 1.8134,0.30083 5.78492,-3.597 12.16111,-6.36498 18.77153,-8.11054 3.30521,-0.87279 6.73481,-1.17272 10.12052,-1.19612 3.38571,-0.0234 6.7234,0.22608 10.05739,0.43253 0.26059,0.0161 0.52217,0.0331 0.78469,0.051 3.23482,0.20523 6.59618,0.5483 9.94275,1.1302 3.34657,0.5819 6.67564,1.40117 9.78543,2.46252 3.23627,1.10451 6.09451,2.75297 8.87153,4.47112 2.77701,1.71815 5.48025,3.50567 8.55651,5.04566 0.58338,0.24835 1.59138,0.46162 2.46569,0.37565 0.8743,-0.086 1.62098,-0.47414 1.64924,-1.47796 C -637.98503,-939.23236 -638.67446,-939.59775 -639.25701,-939.95678 Z"
         style="fill:#000000;fill-opacity:1;stroke:none"
         inkscape:path-effect="#path-effect2512"
         inkscape:original-d="m -720.79385,-942.43766 c 28.59939,-16.34664 55.89953,-12.8576 82.22215,5.5548" />
      <path
         sodipodi:nodetypes="cc"
         inkscape:connector-curvature="0"
         id="path1984"
         d="m -24.832956,-1024.4117 c -3.027347,-1.9478 -6.033513,-3.894 -9.124484,-5.6951 -3.090971,-1.8012 -6.269126,-3.4561 -9.577959,-4.7772 -3.308838,-1.3211 -6.613647,-2.6049 -10.00709,-3.6524 -3.393444,-1.0474 -6.878271,-1.8572 -10.437598,-2.198 -0.388436,-0.037 -0.776921,-0.075 -1.165685,-0.1121 -3.366391,-0.3147 -6.724465,-0.6258 -10.111472,-0.6778 -3.387007,-0.052 -6.799235,0.1572 -10.117093,0.8745 -7.018705,1.5175 -13.803437,4.0265 -20.099733,7.2718 -1.12447,-0.1534 -1.16869,0.9021 -0.77927,1.7382 0.38942,0.8361 1.19019,1.4657 1.7782,0.4887 6.170341,-2.9915 12.760581,-5.2559 19.495177,-6.5782 3.235419,-0.6353 6.548107,-0.7572 9.813433,-0.6295 3.265327,0.1277 6.479318,0.5027 9.685385,0.8528 0.261127,0.027 0.522156,0.054 0.783176,0.081 3.332354,0.3422 6.80794,0.8327 10.262623,1.5902 3.454682,0.7575 6.885131,1.7807 10.058075,3.0675 3.172947,1.2868 5.930721,3.1084 8.588677,5.0073 2.657956,1.8988 5.223336,3.8737 8.166712,5.654 0.561664,0.2941 1.548835,0.5887 2.428097,0.5765 0.879262,-0.012 1.658108,-0.334 1.76842,-1.3336 C -23.617767,-1023.5805 -24.278444,-1024.0045 -24.832956,-1024.4117 Z"
         style="fill:#000000;fill-opacity:1;stroke:none"
         inkscape:path-effect="#path-effect2469"
         inkscape:original-d="m -106.44652,-1032.0807 c 27.539154,-12.0094 54.930291,-11.8162 82.049507,10.7943" />
      <path
         sodipodi:nodetypes="zzzzz"
         inkscape:connector-curvature="0"
         id="path1986"
         d="m -394.54084,-1088.8538 c -1.16886,39.2716 96.11297,51.9346 137.3733,51.6934 41.26033,-0.2412 95.92598,5.4959 93.90959,-36.5972 -2.01639,-42.0931 -106.14392,-41.9112 -146.31024,-41.4185 C -349.73451,-1114.6834 -393.37198,-1128.1254 -394.54084,-1088.8538 Z"
         style="opacity:0.7;fill:#000000;stroke:#000000;stroke-width:1px;stroke-linecap:butt;stroke-linejoin:miter;stroke-opacity:1" />
      <path
         sodipodi:nodetypes="sssss"
         inkscape:connector-curvature="0"
         id="path1988"
         d="m -555.60864,-1054.2701 c -0.20556,23.8806 42.70883,26.4546 66.59034,26.4323 58.1941,-0.054 163.56997,-6.5355 162.14605,-64.7122 -0.57432,-23.4646 -43.12851,-23.2203 -66.59755,-22.8699 C -451.22561,-1114.5575 -555.11144,-1112.0302 -555.60864,-1054.2701 Z"
         style="opacity:0.3;fill:#000000;stroke:#000000;stroke-width:1px;stroke-linecap:butt;stroke-linejoin:miter;stroke-opacity:1" />
      <path
         sodipodi:nodetypes="cc"
         inkscape:connector-curvature="0"
         id="path1990"
         d="m -611.41069,-794.94616 c -0.84347,-77.9184 38.84833,-169.90194 88.86324,-219.99314"
         style="fill:none;stroke:#000000;stroke-width:1px;stroke-linecap:butt;stroke-linejoin:miter;stroke-opacity:1" />
      <path
         sodipodi:nodetypes="cc"
         inkscape:connector-curvature="0"
         id="path1992"
         d="M 56.23876,-755.23586 C 48.349745,-921.74366 -113.90071,-966.7581 -196.73021,-1026.762"
         style="fill:none;stroke:#000000;stroke-width:1px;stroke-linecap:butt;stroke-linejoin:miter;stroke-opacity:1" />
      <path
         id="path1994"
         d="m -596.24429,-764.90056 c -2.42144,8.1887 -3.71875,16.8699 -3.71875,25.8437 0,34.3297 19.01594,64.2067 47.09375,79.6875 5.73688,-10.4599 9,-22.4471 9,-35.2188 C -543.86929,-727.81576 -565.95476,-755.86236 -596.24429,-764.90056 Z"
         style="opacity:0.7;fill:#000000;fill-opacity:1;fill-rule:nonzero;stroke:none"
         inkscape:connector-curvature="0" />
      <path
         id="path1999"
         d="m -4.088036,-720.36936 c -45.144115,13.9247 -75.796271,42.064 -70.375,66.6875 2.863101,13.00425 15.289207,22.66369 33.25,27.96875 C -22.757226,-647.38571 -9.183324,-681.03326 -4.088036,-720.36936 Z"
         style="opacity:0.3;fill:#000000;fill-opacity:1;fill-rule:nonzero;stroke:none"
         inkscape:connector-curvature="0" />
      <text
         sodipodi:linespacing="125%"
         id="text2039"
         y="-731.43097"
         x="-719.30823"
         style="font-size:15px;font-style:normal;font-variant:normal;font-weight:500;font-stretch:normal;text-align:start;line-height:125%;letter-spacing:0px;word-spacing:0px;writing-mode:lr-tb;text-anchor:start;fill:#000000;fill-opacity:1;stroke:none;font-family:CMU Serif;-inkscape-font-specification:CMU Serif Medium"
         xml:space="preserve"><tspan
           y="-731.43097"
           x="-719.30823"
           id="tspan2041"
           sodipodi:role="line">U</tspan></text>
      <text
         sodipodi:linespacing="125%"
         id="text2043"
         y="-675.62231"
         x="135.75372"
         style="font-size:15px;font-style:normal;font-variant:normal;font-weight:500;font-stretch:normal;text-align:start;line-height:125%;letter-spacing:0px;word-spacing:0px;writing-mode:lr-tb;text-anchor:start;fill:#000000;fill-opacity:1;stroke:none;font-family:CMU Serif;-inkscape-font-specification:CMU Serif Medium"
         xml:space="preserve"><tspan
           y="-675.62231"
           x="135.75372"
           id="tspan2045"
           sodipodi:role="line">V</tspan></text>
      <text
         sodipodi:linespacing="125%"
         id="text2047"
         y="-876.82111"
         x="-49.308136"
         style="font-size:15px;font-style:normal;font-variant:normal;font-weight:500;font-stretch:normal;text-align:start;line-height:125%;letter-spacing:0px;word-spacing:0px;writing-mode:lr-tb;text-anchor:start;fill:#000000;fill-opacity:1;stroke:none;font-family:CMU Serif;-inkscape-font-specification:CMU Serif Medium"
         xml:space="preserve"><tspan
           y="-876.82111"
           x="-49.308136"
           id="tspan2049"
           sodipodi:role="line">y(u,v)</tspan></text>
      <text
         sodipodi:linespacing="125%"
         id="text2051"
         y="-586.60828"
         x="39.661804"
         style="font-size:15px;font-style:normal;font-variant:normal;font-weight:500;font-stretch:normal;text-align:start;line-height:125%;letter-spacing:0px;word-spacing:0px;writing-mode:lr-tb;text-anchor:start;fill:#000000;fill-opacity:1;stroke:none;font-family:CMU Serif;-inkscape-font-specification:CMU Serif Medium"
         xml:space="preserve"><tspan
           y="-586.60828"
           x="39.661804"
           id="tspan2053"
           sodipodi:role="line">u</tspan></text>
      <text
         sodipodi:linespacing="125%"
         id="text2055"
         y="-693.47333"
         x="-172.82074"
         style="font-size:15px;font-style:normal;font-variant:normal;font-weight:500;font-stretch:normal;text-align:start;line-height:125%;letter-spacing:0px;word-spacing:0px;writing-mode:lr-tb;text-anchor:start;fill:#000000;fill-opacity:1;stroke:none;font-family:CMU Serif;-inkscape-font-specification:CMU Serif Medium"
         xml:space="preserve"><tspan
           y="-693.47333"
           x="-172.82074"
           id="tspan2057"
           sodipodi:role="line">v</tspan></text>
      <text
         sodipodi:linespacing="125%"
         id="text2059"
         y="-587.64777"
         x="-544.99518"
         style="font-size:15px;font-style:normal;font-variant:normal;font-weight:500;font-stretch:normal;text-align:start;line-height:125%;letter-spacing:0px;word-spacing:0px;writing-mode:lr-tb;text-anchor:start;fill:#000000;fill-opacity:1;stroke:none;font-family:CMU Serif;-inkscape-font-specification:CMU Serif Medium"
         xml:space="preserve"><tspan
           y="-587.64777"
           x="-544.99518"
           id="tspan2061"
           sodipodi:role="line">u</tspan></text>
      <text
         sodipodi:linespacing="125%"
         id="text2063"
         y="-696.68085"
         x="-781.89978"
         style="font-size:15px;font-style:normal;font-variant:normal;font-weight:500;font-stretch:normal;text-align:start;line-height:125%;letter-spacing:0px;word-spacing:0px;writing-mode:lr-tb;text-anchor:start;fill:#000000;fill-opacity:1;stroke:none;font-family:CMU Serif;-inkscape-font-specification:CMU Serif Medium"
         xml:space="preserve"><tspan
           y="-696.68085"
           x="-781.89978"
           id="tspan2065"
           sodipodi:role="line">v</tspan></text>
      <text
         sodipodi:linespacing="125%"
         id="text2067"
         y="-1111.6414"
         x="35.798355"
         style="font-size:15px;font-style:normal;font-variant:normal;font-weight:500;font-stretch:normal;text-align:start;line-height:125%;letter-spacing:0px;word-spacing:0px;writing-mode:lr-tb;text-anchor:start;fill:#000000;fill-opacity:1;stroke:none;font-family:CMU Serif;-inkscape-font-specification:CMU Serif Medium"
         xml:space="preserve"><tspan
           y="-1111.6414"
           x="35.798355"
           id="tspan2069"
           sodipodi:role="line">M</tspan></text>
      <text
         sodipodi:linespacing="125%"
         id="text2071"
         y="-850.89191"
         x="-592.68024"
         style="font-size:15px;font-style:normal;font-variant:normal;font-weight:500;font-stretch:normal;text-align:start;line-height:125%;letter-spacing:0px;word-spacing:0px;writing-mode:lr-tb;text-anchor:start;fill:#000000;fill-opacity:1;stroke:none;font-family:CMU Serif;-inkscape-font-specification:CMU Serif Medium"
         xml:space="preserve"><tspan
           y="-850.89191"
           x="-592.68024"
           id="tspan2073"
           sodipodi:role="line">x(u,v)</tspan></text>
      <text
         sodipodi:linespacing="125%"
         id="text2075"
         y="-688.17914"
         x="-519.49762"
         style="font-size:15px;font-style:normal;font-variant:normal;font-weight:500;font-stretch:normal;text-align:start;line-height:125%;letter-spacing:0px;word-spacing:0px;writing-mode:lr-tb;text-anchor:start;fill:#000000;fill-opacity:1;stroke:none;font-family:CMU Serif;-inkscape-font-specification:CMU Serif Medium"
         xml:space="preserve"><tspan
           id="tspan2079"
           y="-688.17914"
           x="-519.49762"
           sodipodi:role="line">x^{-1}(x(U)\cap y(V))</tspan></text>
      <text
         sodipodi:linespacing="125%"
         id="text2083"
         y="-737.37201"
         x="-164.29904"
         style="font-size:15px;font-style:normal;font-variant:normal;font-weight:500;font-stretch:normal;text-align:start;line-height:125%;letter-spacing:0px;word-spacing:0px;writing-mode:lr-tb;text-anchor:start;fill:#000000;fill-opacity:1;stroke:none;font-family:CMU Serif;-inkscape-font-specification:CMU Serif Medium"
         xml:space="preserve"><tspan
           y="-737.37201"
           x="-164.29904"
           id="tspan2085"
           sodipodi:role="line">y^{-1}(x(U)\cap y(V))</tspan></text>
    </g>
  </g>
</svg>
