<?xml version="1.0" encoding="UTF-8" standalone="no"?>
<!-- Created with Inkscape (http://www.inkscape.org/) -->

<svg
   xmlns:dc="http://purl.org/dc/elements/1.1/"
   xmlns:cc="http://creativecommons.org/ns#"
   xmlns:rdf="http://www.w3.org/1999/02/22-rdf-syntax-ns#"
   xmlns:svg="http://www.w3.org/2000/svg"
   xmlns="http://www.w3.org/2000/svg"
   xmlns:sodipodi="http://sodipodi.sourceforge.net/DTD/sodipodi-0.dtd"
   xmlns:inkscape="http://www.inkscape.org/namespaces/inkscape"
   width="1007.3688"
   height="666.84393"
   id="svg2713"
   version="1.1"
   inkscape:version="0.48+devel r"
   sodipodi:docname="transition-function.svg">
  <title
     id="title2721">Winter School -- Contact Topology</title>
  <defs
     id="defs2715">
    <inkscape:path-effect
       effect="skeletal"
       id="path-effect2405"
       is_visible="true"
       pattern="m 846.71445,1424.09 c -7.77241,0.7229 -15.55638,0.5951 -23.34732,0.9309 -7.79095,0.3357 -15.58849,-0.1655 -23.38728,0.011 -7.7988,0.1763 -15.59884,-0.9698 -23.39479,-0.7252 -7.79596,0.2446 -15.58781,0.5803 -23.37023,1.1208 -2.1523,-1.1561 -2.01174,3.7827 0.0625,2.4375 7.71127,-0.3705 15.4323,-0.5304 23.15668,-0.6126 7.72438,-0.082 15.45212,1.213 23.1768,1.1533 7.72469,-0.06 16.17001,-0.8046 23.88219,-1.1077 7.71218,-0.3032 14.69083,1.1358 22.3777,0.3234 1.40356,-0.2269 4.29984,-1.5408 3.09375,-3.2187 C 848.30367,1423.9739 847.46028,1424.0632 846.71445,1424.09 Z"
       copytype="single_stretched"
       prop_scale="1"
       scale_y_rel="false"
       spacing="0"
       normal_offset="0"
       tang_offset="0"
       prop_units="false"
       vertical_pattern="false"
       fuse_tolerance="0" />
    <inkscape:path-effect
       effect="skeletal"
       id="path-effect2504"
       is_visible="true"
       pattern="m 846.71445,1424.09 c -7.77241,0.7229 -15.55638,0.5951 -23.34732,0.9309 -7.79095,0.3357 -15.58849,-0.1655 -23.38728,0.011 -7.7988,0.1763 -15.59884,-0.9698 -23.39479,-0.7252 -7.79596,0.2446 -15.58781,0.5803 -23.37023,1.1208 -2.1523,-1.1561 -2.01174,3.7827 0.0625,2.4375 7.71127,-0.3705 15.4323,-0.5304 23.15668,-0.6126 7.72438,-0.082 15.45212,1.213 23.1768,1.1533 7.72469,-0.06 16.17001,-0.8046 23.88219,-1.1077 7.71218,-0.3032 14.69083,1.1358 22.3777,0.3234 1.40356,-0.2269 4.29984,-1.5408 3.09375,-3.2187 C 848.30367,1423.9739 847.46028,1424.0632 846.71445,1424.09 Z"
       copytype="single_stretched"
       prop_scale="1"
       scale_y_rel="false"
       spacing="0"
       normal_offset="0"
       tang_offset="0"
       prop_units="false"
       vertical_pattern="false"
       fuse_tolerance="0" />
    <inkscape:path-effect
       effect="skeletal"
       id="path-effect2477"
       is_visible="true"
       pattern="m 846.71445,1424.09 c -7.77241,0.7229 -15.55638,0.5951 -23.34732,0.9309 -7.79095,0.3357 -15.58849,-0.1655 -23.38728,0.011 -7.7988,0.1763 -15.59884,-0.9698 -23.39479,-0.7252 -7.79596,0.2446 -15.58781,0.5803 -23.37023,1.1208 -2.1523,-1.1561 -2.01174,3.7827 0.0625,2.4375 7.71127,-0.3705 15.4323,-0.5304 23.15668,-0.6126 7.72438,-0.082 15.45212,1.213 23.1768,1.1533 7.72469,-0.06 16.17001,-0.8046 23.88219,-1.1077 7.71218,-0.3032 14.69083,1.1358 22.3777,0.3234 1.40356,-0.2269 4.29984,-1.5408 3.09375,-3.2187 C 848.30367,1423.9739 847.46028,1424.0632 846.71445,1424.09 Z"
       copytype="single_stretched"
       prop_scale="1"
       scale_y_rel="false"
       spacing="0"
       normal_offset="0"
       tang_offset="0"
       prop_units="false"
       vertical_pattern="false"
       fuse_tolerance="0" />
    <inkscape:path-effect
       effect="skeletal"
       id="path-effect2512"
       is_visible="true"
       pattern="m 846.71445,1424.09 c -7.77241,0.7229 -15.55638,0.5951 -23.34732,0.9309 -7.79095,0.3357 -15.58849,-0.1655 -23.38728,0.011 -7.7988,0.1763 -15.59884,-0.9698 -23.39479,-0.7252 -7.79596,0.2446 -15.58781,0.5803 -23.37023,1.1208 -2.1523,-1.1561 -2.01174,3.7827 0.0625,2.4375 7.71127,-0.3705 15.4323,-0.5304 23.15668,-0.6126 7.72438,-0.082 15.45212,1.213 23.1768,1.1533 7.72469,-0.06 16.17001,-0.8046 23.88219,-1.1077 7.71218,-0.3032 14.69083,1.1358 22.3777,0.3234 1.40356,-0.2269 4.29984,-1.5408 3.09375,-3.2187 C 848.30367,1423.9739 847.46028,1424.0632 846.71445,1424.09 Z"
       copytype="single_stretched"
       prop_scale="1"
       scale_y_rel="false"
       spacing="0"
       normal_offset="0"
       tang_offset="0"
       prop_units="false"
       vertical_pattern="false"
       fuse_tolerance="0" />
    <inkscape:path-effect
       effect="skeletal"
       id="path-effect2469"
       is_visible="true"
       pattern="m 846.71445,1424.09 c -7.77241,0.7229 -15.55638,0.5951 -23.34732,0.9309 -7.79095,0.3357 -15.58849,-0.1655 -23.38728,0.011 -7.7988,0.1763 -15.59884,-0.9698 -23.39479,-0.7252 -7.79596,0.2446 -15.58781,0.5803 -23.37023,1.1208 -2.1523,-1.1561 -2.01174,3.7827 0.0625,2.4375 7.71127,-0.3705 15.4323,-0.5304 23.15668,-0.6126 7.72438,-0.082 15.45212,1.213 23.1768,1.1533 7.72469,-0.06 16.17001,-0.8046 23.88219,-1.1077 7.71218,-0.3032 14.69083,1.1358 22.3777,0.3234 1.40356,-0.2269 4.29984,-1.5408 3.09375,-3.2187 C 848.30367,1423.9739 847.46028,1424.0632 846.71445,1424.09 Z"
       copytype="single_stretched"
       prop_scale="1"
       scale_y_rel="false"
       spacing="0"
       normal_offset="0"
       tang_offset="0"
       prop_units="false"
       vertical_pattern="false"
       fuse_tolerance="0" />
  </defs>
  <sodipodi:namedview
     id="base"
     pagecolor="#ffffff"
     bordercolor="#666666"
     borderopacity="1.0"
     inkscape:pageopacity="0.0"
     inkscape:pageshadow="2"
     inkscape:zoom="0.77620654"
     inkscape:cx="650.50935"
     inkscape:cy="331.07075"
     inkscape:document-units="px"
     inkscape:current-layer="layer1"
     showgrid="false"
     fit-margin-top="0"
     fit-margin-left="0"
     fit-margin-right="0"
     fit-margin-bottom="0" />
  <metadata
     id="metadata2718">
    <rdf:RDF>
      <cc:Work
         rdf:about="">
        <dc:format>image/svg+xml</dc:format>
        <dc:type
           rdf:resource="http://purl.org/dc/dcmitype/StillImage" />
        <dc:title>Winter School -- Contact Topology</dc:title>
        <dc:date>2013</dc:date>
        <dc:creator>
          <cc:Agent>
            <dc:title>Marek Kaluba</dc:title>
          </cc:Agent>
        </dc:creator>
        <dc:rights>
          <cc:Agent>
            <dc:title>Marek Kaluba</dc:title>
          </cc:Agent>
        </dc:rights>
      </cc:Work>
    </rdf:RDF>
  </metadata>
  <g
     inkscape:label="Layer 1"
     inkscape:groupmode="layer"
     id="layer1"
     transform="translate(128.68443,-198.94023)">
    <path
       style="fill:none;stroke:#000000;stroke-width:1px;stroke-linecap:butt;stroke-linejoin:miter;stroke-opacity:1"
       d="m -128.68443,768.5889 328.6369,0"
       id="path1948"
       inkscape:connector-curvature="0" />
    <path
       style="fill:none;stroke:#000000;stroke-width:1px;stroke-linecap:butt;stroke-linejoin:miter;stroke-opacity:1"
       d="m -23.84905,865.78414 0,-199.6427"
       id="path1950"
       inkscape:connector-curvature="0" />
    <path
       style="fill:none;stroke:#000000;stroke-width:1px;stroke-linecap:butt;stroke-linejoin:miter;stroke-opacity:1"
       d="m 480.28777,769.34102 300.63128,0"
       id="path1952"
       inkscape:connector-curvature="0" />
    <path
       style="fill:none;stroke:#000000;stroke-width:1px;stroke-linecap:butt;stroke-linejoin:miter;stroke-opacity:1"
       d="m 583.66725,864.45844 0,-198.9996"
       id="path1954"
       inkscape:connector-curvature="0" />
    <path
       inkscape:connector-curvature="0"
       style="opacity:0.7;fill:#ff0000;fill-opacity:1;fill-rule:nonzero;stroke:none"
       d="m 135.73642,617.32054 c -2.42144,8.1887 -3.71875,16.8699 -3.71875,25.8437 0,34.3297 19.01594,64.2067 47.09375,79.6875 5.73688,-10.4599 9,-22.4471 9,-35.2188 C 188.11142,654.40534 166.02595,626.35874 135.73642,617.32054 Z"
       id="path1994" />
    <path
       sodipodi:type="arc"
       style="opacity:0.3;fill:#0000ff;fill-opacity:1;fill-rule:nonzero;stroke:none"
       id="path1956"
       sodipodi:cx="-638.56805"
       sodipodi:cy="-1028.1057"
       sodipodi:rx="73.390175"
       sodipodi:ry="73.390175"
       d="m -565.17788,-1028.1057 a 73.390175,73.390175 0 1 1 -146.78035,0 A 73.390175,73.390175 0 1 1 -565.17788,-1028.1057 Z"
       transform="translate(753.29892,1715.7267)" />
    <path
       sodipodi:type="arc"
       style="opacity:0.7;fill:#ff0000;fill-opacity:1;fill-rule:nonzero;stroke:none"
       id="path1958"
       sodipodi:cx="-27.15905"
       sodipodi:cy="-974.46368"
       sodipodi:rx="98.923096"
       sodipodi:ry="50.667049"
       d="m 71.764046,-974.46368 a 98.923096,50.667049 0 1 1 -197.846196,0 A 98.923096,50.667049 0 1 1 71.764046,-974.46368 Z"
       transform="matrix(0.97661033,-0.21501689,0.21501689,0.97661033,990.18983,1653.0947)" />
    <path
       inkscape:original-d="M 148.19463,200.8314 C 40.17623,196.8615 -42.9665,268.4487 -67.1912,349.8316 c -15.18143,51.002 -10.09975,116.65984 56.39897,149.34634 78.95996,38.8117 156.18874,-14.8317 242.98725,-58.8718 70.35655,-35.69774 148.59141,-58.46994 219.89168,-60.00174 89.60776,-1.9252 173.46528,57.84684 263.06644,55.63594 68.93324,-1.7009 110.38437,-6.5865 115.77643,-48.01664 C 841.1326,309.5281 715.32654,274.5587 642.40765,244.0169 584.56883,219.7913 518.81695,220.0542 456.16076,217.5222 408.3746,215.5911 360.72353,228.3804 312.94804,226.2013 254.17697,223.5206 197.27068,201.6918 138.4782,199.5311"
       inkscape:path-effect="#path-effect2405"
       style="fill:#000000;fill-opacity:1;stroke:none"
       d="m 192.67931,208.23001 c 10.89183,1.95425 21.76463,4.17931 32.6287,6.41219 0,0 1e-5,0 2e-5,0 28.84116,5.94272 57.93249,12.01832 87.5601,13.31104 24.0922,1.03492 48.07643,-1.67359 71.86294,-4.3922 23.78431,-2.70791 47.59838,-5.45951 71.36827,-4.51896 31.68766,1.24558 63.39074,1.76322 94.84422,5.00608 10e-6,0 10e-6,1e-5 2e-5,1e-5 31.12126,3.21396 62.16579,9.15446 90.95979,21.17269 16.10559,6.71692 32.435,12.82119 48.66898,19.11602 4.35793,1.68982 8.70863,3.3943 13.04592,5.129 21.76473,8.70706 43.34282,17.96797 63.67215,29.5238 9.4091,5.34849 18.53798,11.19426 27.02156,17.86553 7.6951,6.05351 14.87581,12.78723 20.8539,20.47841 0,1e-5 10e-6,2e-5 10e-6,3e-5 5.48673,7.06069 9.93429,14.96748 12.52804,23.47394 0,10e-6 0,2e-5 10e-6,2e-5 2.65498,8.68047 3.30638,17.95329 2.12899,26.97206 0,10e-6 0,2e-5 -1e-5,3e-5 -1.17288,8.87094 -4.44833,17.59658 -10.40337,24.12518 -5.99511,6.63664 -14.30248,10.92398 -22.91751,13.83409 -11.24394,3.78093 -23.13926,5.46564 -35.05128,6.63455 -15.36914,1.50172 -30.84225,1.98315 -46.32747,2.35625 0,0 -10e-6,0 -2e-5,0 -22.17806,0.53823 -44.3459,-2.81784 -65.98333,-8.02662 -22.01663,-5.30273 -43.56754,-12.4829 -65.12918,-19.64109 -10.59294,-3.51795 -21.20048,-7.0444 -31.87872,-10.3543 -11.05882,-3.42789 -22.19052,-6.63239 -33.45891,-9.36354 -21.7709,-5.2792 -44.14001,-8.72018 -66.61294,-8.27475 -37.42234,0.75273 -74.6026,7.08354 -110.6695,16.9962 -1e-5,10e-6 -2e-5,10e-6 -3e-5,10e-6 -37.9823,10.43647 -74.83734,24.89722 -110.00752,42.64033 -1e-5,0 -1e-5,1e-5 -2e-5,1e-5 -21.36231,10.77686 -42.32019,22.25851 -63.54915,33.12204 -1e-5,1e-5 -1e-5,1e-5 -2e-5,1e-5 -19.80411,10.13073 -39.84685,19.79485 -60.72232,27.13264 -11.821044,4.15043 -23.949306,7.54584 -36.241351,9.59292 -7.488083,1.24703 -15.037531,1.99104 -22.615501,2.09744 -9.772501,0.1427 -19.562106,-0.77922 -29.099168,-2.8598 -10.0761101,-2.19587 -19.87247085,-5.68599 -29.154129,-10.22809 -14.639663,-7.1747 -28.093129,-16.96096 -38.475995,-29.43349 -4e-6,0 -8e-6,-10e-6 -1.2e-5,-2e-5 -9.02835,-10.82701 -15.663112,-23.6308 -19.574797,-37.20623 -10e-7,-1e-5 -2e-6,-2e-5 -3e-6,-3e-5 -3.796841,-13.16534 -5.117078,-27.02017 -4.533764,-40.76705 0.575039,-13.50009 2.964953,-26.91989 6.798152,-39.90617 6.099788,-20.66491 15.874696,-40.21959 28.350964,-57.82686 13.046536,-18.41008 29.0688116,-34.7101 47.193248,-48.1786 7.5e-6,0 1.49e-5,0 2.23e-5,-1e-5 19.0042677,-14.12211 40.3460727,-25.11065 62.9028947,-32.35368 13.630379,-4.37739 27.697719,-7.37278 41.929589,-9.00871 5.79869,-0.50227 10.83073,-0.79206 15.10724,-1.00306 4.2765,-0.211 7.79807,-0.34269 10.57981,-0.47618 2.78175,-0.13348 4.82392,-0.26845 6.13927,-0.43965 1.31535,-0.1712 1.90382,-0.37845 1.77435,-0.61386 -0.25896,-0.47083 -3.39635,-1.09213 -9.32775,-1.32491 -5.9314,-0.23278 -14.68146,-0.0697 -25.901,1.59097 -13.925476,1.67192 -27.692465,4.63453 -41.053511,8.90907 -22.826064,7.30442 -44.423744,18.39586 -63.6686412,32.66599 -5.3e-6,1e-5 -1.28e-5,1e-5 -2.03e-5,1e-5 -18.3522375,13.608 -34.5812535,30.08466 -47.8111995,48.71126 -12.653386,17.81299 -22.575898,37.61822 -28.791179,58.58147 -3.905749,13.1734 -6.346037,26.80774 -6.948204,40.5509 -0.61508,13.99929 0.725133,28.14811 4.596065,41.65075 5e-6,10e-6 6e-6,2e-5 7e-6,3e-5 3.997658,13.93635 10.797691,27.08569 20.074161,38.24186 8e-6,0 1.2e-5,10e-6 1.6e-5,2e-5 10.681774,12.83265 24.435923,22.87791 39.377693,30.20485 9.471116,4.6483 19.4811732,8.22428 29.795897,10.48499 9.763708,2.13871 19.773176,3.09291 29.758449,2.95584 6.639703,-0.0931 13.246766,-0.65859 19.800207,-1.61153 13.627975,-1.98163 27.025894,-5.63015 40.00752,-10.18485 21.09148,-7.39578 41.27136,-17.09344 61.12766,-27.23141 21.29273,-10.86906 42.25851,-22.32787 63.56867,-33.05168 1e-5,0 2e-5,0 3e-5,-10e-6 35.01658,-17.62086 71.68901,-31.97127 109.45803,-42.31317 35.87038,-9.81907 72.78699,-16.08166 109.87603,-16.7961 1e-5,0 1e-5,10e-6 2e-5,10e-6 22.08884,-0.43657 44.16933,2.98658 65.75181,8.21972 8.59345,2.0855 17.11996,4.45419 25.60881,6.99241 13.113,3.92085 26.23474,8.2839 39.45423,12.66598 21.36771,7.08741 43.03922,14.2879 65.42403,19.6384 21.70882,5.19324 44.18531,8.55339 66.83003,7.95166 15.46808,-0.41561 31.02303,-0.94893 46.54219,-2.51381 11.99047,-1.20148 24.1013,-2.97316 35.67138,-6.8893 8.90873,-2.99574 17.59907,-7.57585 24.05502,-14.68615 6.37495,-7.11291 9.8414,-16.34362 11.00724,-25.63787 1.19897,-9.3929 0.4801,-19.03446 -2.30765,-28.07437 0,-1e-5 -10e-6,-2e-5 -10e-6,-3e-5 -2.74552,-8.86787 -7.3645,-17.03133 -13.02316,-24.25697 -6.18101,-7.89494 -13.52515,-14.74699 -21.33068,-20.84902 -8.65294,-6.76754 -17.89771,-12.65589 -27.35659,-18.0067 -20.70153,-11.71081 -42.41977,-20.97193 -63.98841,-29.59013 -5.20961,-2.0821 -10.41916,-4.11456 -15.61687,-6.12413 -15.54249,-6.0091 -30.97285,-11.83086 -46.05123,-18.14714 -14.72251,-6.16328 -29.89019,-10.72398 -45.23996,-14.1674 -15.34977,-3.44341 -30.88219,-5.76836 -46.35246,-7.41209 -31.76718,-3.37967 -63.45026,-4.0147 -94.99171,-5.37657 -24.03963,-1.03163 -47.99207,1.62513 -71.84306,4.26919 -23.6644,2.61326 -47.45208,5.26855 -71.35174,4.1768 -14.45292,-0.65099 -28.88848,-2.47013 -43.36891,-4.88604 -14.48043,-2.41591 -29.00585,-5.42996 -43.63452,-8.43102 -4.87186,-1.00129 -9.76411,-2.00284 -14.67863,-2.98063 -7.48953,-1.47007 -17.00374,-3.22462 -26.68716,-4.67657 -4.8417,-0.72597 -9.7249,-1.37555 -14.41216,-1.90023 -4.68725,-0.52468 -9.17847,-0.92377 -13.23321,-1.18895 -8.10948,-0.53036 -14.46928,-0.51352 -17.16302,-0.26353 -1.34687,0.125 -1.77787,0.30196 -1.06241,0.52612 0.71547,0.22416 2.57742,0.49233 5.80717,0.89444 7.09253,0.63664 15.14004,1.49788 23.40285,2.6221 C 176.25541,205.40634 184.73375,206.78275 192.67931,208.23001 Z"
       id="path1960"
       inkscape:connector-curvature="0"
       sodipodi:nodetypes="csssssssssc" />
    <path
       inkscape:original-d="m -1.39356,427.07014 c 0,0 19.44282,26.7048 52.65543,28.8816 33.21259,2.1768 54.32389,-19.8249 54.32389,-19.8249"
       inkscape:path-effect="#path-effect2504"
       style="fill:#000000;fill-opacity:1;stroke:none"
       d="m 101.8694,436.64715 c -0.44736,0.45266 -0.90818,0.89675 -1.37963,1.33356 -3.126056,2.89585 -6.64628,5.39056 -10.364634,7.55187 0,0 -10e-7,0 -10e-7,0 -3.922985,2.27907 -8.069369,4.17663 -12.338366,5.77036 -1.417667,0.52924 -2.860096,0.99407 -4.320002,1.39708 -3.586282,0.99041 -7.276325,1.60075 -10.983207,1.9102 -3.706881,0.30945 -7.430413,0.31956 -11.14133,0.11545 -10e-7,0 -10e-7,0 -10e-7,0 -0.571974,-0.0313 -1.143725,-0.0684 -1.715283,-0.11091 -3.464556,-0.25757 -6.889533,-0.97881 -10.206125,-2.00057 -3.316592,-1.02177 -6.525881,-2.34206 -9.642922,-3.81212 -2.299272,-1.08404 -4.55317,-2.24818 -6.799543,-3.4411 -3.28981,-1.74703 -6.46664,-3.73374 -9.514605,-5.91536 0,0 -1e-6,0 -1e-6,0 -3.7244491,-2.66752 -7.2602329,-5.61544 -10.5550669,-8.83558 -0.847448,-0.82835 -1.6773727,-1.67224 -2.48121925,-2.5397 -0.0482978,-0.16966 -0.10655496,-0.31655 -0.17321418,-0.44288 -0.22636371,-0.42898 -0.54804274,-0.6193 -0.8963705,-0.65282 l -2e-8,0 -2.1e-7,0 c -0.18002854,-0.0178 -0.36620044,0.007 -0.54781774,0.0652 -0.09225,0.0295 -0.1832841,0.0675 -0.2715019,0.11307 0,0 -1e-7,0 -2e-7,0 -0.1839647,0.0951 -0.3558587,0.22301 -0.4998908,0.3745 -1e-7,0 -2e-7,0 -3e-7,0 -0.069695,0.0734 -0.1328145,0.15221 -0.1875936,0.23531 0,0 -10e-8,0 -10e-8,0 -0.108846,0.16512 -0.1845829,0.34724 -0.2152073,0.53396 0,0 0,0 -1e-7,0 l 0,0 c -0.058589,0.37118 0.0647,0.76818 0.4563581,1.0874 0.1355644,0.1105 0.3035782,0.21223 0.5074761,0.30068 0.80473809,0.89974 1.6309321,1.77164 2.4703065,2.6227 3.3356368,3.3827 6.9244294,6.49201 10.7168754,9.31402 1e-6,0 1e-6,0 1e-6,0 3.054564,2.27392 6.251457,4.35917 9.577975,6.21066 2.36475,1.31624 4.746653,2.6029 7.187801,3.80263 3.166824,1.55604 6.437786,2.95731 9.827382,4.05789 3.389597,1.10058 6.898829,1.89863 10.462454,2.23497 0.753138,0.0711 1.513364,0.12592 2.279103,0.16427 3.805639,0.18907 7.735101,-0.0113 11.611422,-0.55692 3.87632,-0.54561 7.697749,-1.43512 11.334528,-2.55917 1.56583,-0.48419 3.09775,-1.00966 4.590264,-1.5635 4.497952,-1.66911 8.774554,-3.28934 12.886776,-5.31837 3.950259,-1.94795 7.761609,-4.27877 11.130181,-7.42127 0,0 0,0 0,0 0.23173,-0.21616 0.4615,-0.43636 0.68893,-0.66086 0.54824,-0.5905 1.23204,-1.61127 1.5764,-2.57809 0.15593,-0.4378 0.24392,-0.86417 0.22678,-1.22836 -0.008,-0.16587 -0.0395,-0.31767 -0.0954,-0.45175 l 0,0 0,0 0,0 c 0.11926,0.0752 0.24543,0.16628 0.34375,0.24045 0.0948,0.0715 0.16371,0.12717 0.17008,0.13234 0,0 0,0 0,0 0,0 0,0 0,0 0,0 0,0 0,0 0,0 0,0 0,0 0,0 0,0 0,0 0,0 0,0 0,0 0,0 0,0 0,0 0,0 0,0 0,0 0,0 0,0 0,0 0,0 0,0 0,0 0,0 0,0 0,0 0,0 0,0 0,0 6.3e-4,5.2e-4 6.4e-4,5.3e-4 -1e-5,-1e-5 0,0 0,0 0,0 0,0 0,0 0,0 -0.006,-0.005 -0.0757,-0.0618 -0.24699,-0.20714 -0.1689,-0.14335 -0.43701,-0.37303 -0.84622,-0.72931 l 0,0 0,0 c -0.12689,-0.0539 -0.27201,-0.0936 -0.44019,-0.11481 -0.002,-1.7e-4 -0.003,-3.3e-4 -0.005,-4.9e-4 -0.31877,0.0875 -0.61049,0.244 -0.88975,0.44164 C 102.69558,435.84301 102.27818,436.27116 101.8694,436.64715 Z"
       id="path1962"
       inkscape:connector-curvature="0"
       sodipodi:nodetypes="czc" />
    <path
       inkscape:original-d="m 613.64789,336.8936 c 0,0 17.67242,27.9079 50.6743,32.2312 33.00189,4.3233 55.49383,-16.2647 55.49383,-16.2647"
       inkscape:path-effect="#path-effect2477"
       style="fill:#000000;fill-opacity:1;stroke:none"
       d="m 716.07377,353.1386 c -0.47574,0.42274 -0.96436,0.83604 -1.4631,1.24139 -3.30705,2.68728 -6.98146,4.94874 -10.83198,6.86466 0,0 0,0 0,0 -4.06238,2.0202 -8.32298,3.64522 -12.68625,4.95911 -1.44895,0.43629 -2.91844,0.80671 -4.40136,1.11431 -3.6429,0.75605 -7.36473,1.12612 -11.08387,1.19483 -3.71914,0.0687 -7.43551,-0.16236 -11.12542,-0.60639 0,0 0,0 0,0 -0.56876,-0.0683 -1.13693,-0.14237 -1.70455,-0.22178 -3.44059,-0.48142 -6.81165,-1.42297 -10.0551,-2.65738 -3.24344,-1.23442 -6.36047,-2.75979 -9.37575,-4.42864 -2.21372,-1.21977 -4.37528,-2.51478 -6.52997,-3.84063 -3.15551,-1.94167 -6.18532,-4.11786 -9.07798,-6.48442 -4.02108,-4.19524 -8.08255,-8.36061 -12.20861,-12.48487 -0.91894,-2.75696 -4.46699,0.66424 -1.75008,1.68909 4.06368,4.20446 8.06471,8.45616 12.03049,12.74043 2.91285,2.47939 5.97765,4.77734 9.18602,6.84946 2.28079,1.47311 4.57872,2.91585 6.944,4.27837 3.05939,1.75787 6.23272,3.36804 9.54391,4.68584 3.31118,1.3178 6.76135,2.34145 10.2957,2.90789 0.74697,0.11969 1.50206,0.22367 2.26373,0.31154 3.78541,0.43515 7.71959,0.4897 11.62311,0.19629 3.90352,-0.2934 7.77454,-0.93353 11.47649,-1.81967 1.59388,-0.38175 3.15659,-0.8069 4.68182,-1.26289 4.59663,-1.37428 8.96921,-2.7141 13.20424,-4.47253 4.06812,-1.688 8.02243,-3.76705 11.58746,-6.68476 0,0 0,0 0,0 0.24524,-0.20069 0.48878,-0.40554 0.73027,-0.61483 0.58533,-0.55375 1.33382,-1.5281 1.74008,-2.47058 0.18395,-0.42678 0.29938,-0.84655 0.30586,-1.21109 0.002,-0.16606 -0.0188,-0.31956 -0.0659,-0.45698 l 0,0 0,0 0,0 c 0.11415,0.0827 0.23415,0.18183 0.32746,0.26221 0.09,0.0775 0.15513,0.13751 0.16115,0.14308 0,0 0,0 0,0 0,0 0,0 0,0 0,0 0,0 0,0 0,0 0,0 0,0 0,0 0,0 0,0 0,0 0,0 0,0 0,0 0,0 0,0 0,0 0,0 0,0 0,0 0,0 0,0 0,0 0,0 0,0 0,0 0,0 0,0 0,0 0,0 0,0 6e-4,5.6e-4 6.1e-4,5.7e-4 -1e-5,-1e-5 0,0 0,0 0,0 0,0 0,0 0,0 -0.006,-0.006 -0.0716,-0.0665 -0.23306,-0.2227 -0.15926,-0.154 -0.41193,-0.40056 -0.7972,-0.78259 l -10e-6,0 0,0 c -0.12312,-0.062 -0.26537,-0.111 -0.43182,-0.14308 -0.002,-2.7e-4 -0.003,-5.4e-4 -0.005,-8.1e-4 -0.32377,0.0667 -0.62501,0.20394 -0.91648,0.38308 C 716.9503,352.38967 716.50604,352.78988 716.07377,353.1386 Z"
       id="path1962-7"
       inkscape:connector-curvature="0"
       sodipodi:nodetypes="czc" />
    <path
       inkscape:original-d="m 11.18686,439.78344 c 28.59939,-16.34664 55.89953,-12.8576 82.22215,5.5548"
       inkscape:path-effect="#path-effect2512"
       style="fill:#000000;fill-opacity:1;stroke:none"
       d="m 92.723756,442.26424 c -3.158976,-1.68637 -6.286393,-3.40141 -9.479081,-4.98628 -3.192689,-1.58486 -6.453187,-3.03865 -9.820775,-4.16754 -3.28987,-1.10289 -6.569011,-2.18518 -9.918657,-3.05333 -3.349646,-0.86814 -6.772407,-1.52123 -10.253531,-1.74177 -0.164644,-0.01 -0.329295,-0.019 -0.493944,-0.027 -3.567825,-0.17296 -7.118193,-0.36464 -10.695534,-0.2644 -3.577341,0.10024 -7.177473,0.49611 -10.631887,1.47864 -6.908836,1.96506 -13.493963,5.00686 -19.415579,8.88881 -1.133991,-0.0355 -1.065528,1.02035 -0.588303,1.80962 0.477225,0.78926 1.335678,1.33078 1.813399,0.30082 5.784935,-3.59697 12.161112,-6.36496 18.771529,-8.11053 3.305233,-0.87269 6.734817,-1.17262 10.120518,-1.19603 3.385701,-0.0234 6.723392,0.22601 10.057374,0.43247 0.260593,0.0161 0.522175,0.0331 0.784693,0.051 3.234824,0.2051 6.596201,0.54818 9.942765,1.13012 3.346563,0.58194 6.675599,1.40128 9.78538,2.46265 3.236276,1.10448 6.09453,2.75293 8.871549,4.47107 2.77702,1.71814 5.480258,3.50565 8.556502,5.04566 0.583385,0.24834 1.591391,0.4616 2.465694,0.37564 0.874303,-0.086 1.620971,-0.47413 1.649208,-1.47792 C 93.995727,442.98868 93.306283,442.62331 92.723756,442.26424 Z"
       id="path1982"
       inkscape:connector-curvature="0"
       sodipodi:nodetypes="cc" />
    <path
       inkscape:original-d="m 625.53419,350.1404 c 27.53915,-12.0094 54.93029,-11.8162 82.04951,10.7943"
       inkscape:path-effect="#path-effect2469"
       style="fill:#000000;fill-opacity:1;stroke:none"
       d="m 707.14782,357.80932 c -3.02737,-1.94777 -6.03354,-3.89395 -9.12452,-5.69509 -3.09097,-1.80115 -6.26913,-3.45609 -9.57798,-4.77718 -3.30883,-1.32114 -6.61363,-2.60493 -10.00708,-3.65237 -3.39345,-1.04744 -6.87829,-1.85717 -10.43763,-2.19795 -0.38843,-0.0372 -0.77692,-0.0747 -1.16568,-0.11206 -3.36639,-0.31472 -6.72446,-0.62584 -10.11146,-0.67786 -3.38701,-0.052 -6.79923,0.1572 -10.11709,0.87455 -7.0187,1.51752 -13.80342,4.02647 -20.09973,7.27173 -1.12447,-0.1534 -1.16869,0.90218 -0.77927,1.73827 0.38942,0.83609 1.19019,1.46564 1.7782,0.48869 6.17035,-2.99153 12.76058,-5.25587 19.49517,-6.57823 3.23544,-0.63519 6.54812,-0.75712 9.81344,-0.62944 3.26532,0.12768 6.4793,0.5027 9.68537,0.85275 0.26112,0.0272 0.52215,0.0543 0.78317,0.0811 3.33237,0.34206 6.80797,0.83262 10.26265,1.59016 3.45467,0.75754 6.88509,1.78083 10.05802,3.06764 3.17295,1.28677 5.93074,3.10833 8.5887,5.00717 2.65796,1.89885 5.22334,3.87371 8.1667,5.65406 0.56167,0.29406 1.54884,0.58866 2.4281,0.57653 0.87926,-0.0121 1.6581,-0.33401 1.76839,-1.33361 C 708.36299,358.6405 707.7023,358.21651 707.14782,357.80932 Z"
       id="path1984"
       inkscape:connector-curvature="0"
       sodipodi:nodetypes="cc" />
    <path
       style="opacity:0.7;fill:#ff0000;stroke:none;stroke-width:1px;stroke-linecap:butt;stroke-linejoin:miter;stroke-opacity:1"
       d="m 337.43987,293.3673 c -1.16886,39.2716 96.11297,51.9346 137.3733,51.6934 41.26033,-0.2412 95.92598,5.4959 93.90959,-36.5972 C 566.70637,266.3704 462.57884,266.5523 422.41252,267.045 382.2462,267.5377 338.60873,254.0957 337.43987,293.3673 Z"
       id="path1986"
       inkscape:connector-curvature="0"
       sodipodi:nodetypes="zzzzz" />
    <path
       style="opacity:0.3;fill:#0000ff;stroke:none;stroke-width:1px;stroke-linecap:butt;stroke-linejoin:miter;stroke-opacity:1"
       d="m 176.37207,327.951 c -0.20556,23.8806 42.70883,26.4546 66.59034,26.4323 58.1941,-0.054 163.56997,-6.5355 162.14605,-64.7122 -0.57432,-23.4646 -43.12851,-23.2203 -66.59755,-22.8699 C 280.7551,267.6636 176.86927,270.1909 176.37207,327.951 Z"
       id="path1988"
       inkscape:connector-curvature="0"
       sodipodi:nodetypes="sssss" />
    <path
       style="fill:none;stroke:#000000;stroke-width:1px;stroke-linecap:butt;stroke-linejoin:miter;stroke-opacity:1"
       d="M 120.57002,587.27494 C 119.72655,509.35654 159.41835,417.373 209.43326,367.2818"
       id="path1990"
       inkscape:connector-curvature="0"
       sodipodi:nodetypes="cc" />
    <path
       style="fill:none;stroke:#000000;stroke-width:1px;stroke-linecap:butt;stroke-linejoin:miter;stroke-opacity:1"
       d="M 788.21947,626.98524 C 780.33046,460.47744 618.08,415.463 535.2505,355.4591"
       id="path1992"
       inkscape:connector-curvature="0"
       sodipodi:nodetypes="cc" />
    <path
       inkscape:connector-curvature="0"
       style="opacity:0.3;fill:#0000ff;fill-opacity:1;fill-rule:nonzero;stroke:none"
       d="m 727.89267,661.85174 c -45.14411,13.9247 -75.79627,42.064 -70.375,66.6875 2.86311,13.00425 15.28921,22.66369 33.25,27.96875 C 709.22348,734.83539 722.79739,701.18784 727.89267,661.85174 Z"
       id="path1999" />
    <text
       xml:space="preserve"
       style="font-size:15px;font-style:normal;font-variant:normal;font-weight:500;font-stretch:normal;text-align:start;line-height:125%;letter-spacing:0px;word-spacing:0px;writing-mode:lr-tb;text-anchor:start;fill:#000000;fill-opacity:1;stroke:none;font-family:CMU Serif;-inkscape-font-specification:CMU Serif Medium"
       x="12.672482"
       y="650.79016"
       id="text2039"
       sodipodi:linespacing="125%"><tspan
         sodipodi:role="line"
         id="tspan2041"
         x="12.672482"
         y="650.79016">U</tspan></text>
    <text
       xml:space="preserve"
       style="font-size:15px;font-style:normal;font-variant:normal;font-weight:500;font-stretch:normal;text-align:start;line-height:125%;letter-spacing:0px;word-spacing:0px;writing-mode:lr-tb;text-anchor:start;fill:#000000;fill-opacity:1;stroke:none;font-family:CMU Serif;-inkscape-font-specification:CMU Serif Medium"
       x="867.73444"
       y="706.59882"
       id="text2043"
       sodipodi:linespacing="125%"><tspan
         sodipodi:role="line"
         id="tspan2045"
         x="867.73444"
         y="706.59882">V</tspan></text>
    <text
       xml:space="preserve"
       style="font-size:15px;font-style:normal;font-variant:normal;font-weight:500;font-stretch:normal;text-align:start;line-height:125%;letter-spacing:0px;word-spacing:0px;writing-mode:lr-tb;text-anchor:start;fill:#000000;fill-opacity:1;stroke:none;font-family:CMU Serif;-inkscape-font-specification:CMU Serif Medium"
       x="682.67255"
       y="505.39999"
       id="text2047"
       sodipodi:linespacing="125%"><tspan
         sodipodi:role="line"
         id="tspan2049"
         x="682.67255"
         y="505.39999">y(u,v)</tspan></text>
    <text
       xml:space="preserve"
       style="font-size:15px;font-style:normal;font-variant:normal;font-weight:500;font-stretch:normal;text-align:start;line-height:125%;letter-spacing:0px;word-spacing:0px;writing-mode:lr-tb;text-anchor:start;fill:#000000;fill-opacity:1;stroke:none;font-family:CMU Serif;-inkscape-font-specification:CMU Serif Medium"
       x="771.64252"
       y="795.61285"
       id="text2051"
       sodipodi:linespacing="125%"><tspan
         sodipodi:role="line"
         id="tspan2053"
         x="771.64252"
         y="795.61285">u</tspan></text>
    <text
       xml:space="preserve"
       style="font-size:15px;font-style:normal;font-variant:normal;font-weight:500;font-stretch:normal;text-align:start;line-height:125%;letter-spacing:0px;word-spacing:0px;writing-mode:lr-tb;text-anchor:start;fill:#000000;fill-opacity:1;stroke:none;font-family:CMU Serif;-inkscape-font-specification:CMU Serif Medium"
       x="559.15997"
       y="688.7478"
       id="text2055"
       sodipodi:linespacing="125%"><tspan
         sodipodi:role="line"
         id="tspan2057"
         x="559.15997"
         y="688.7478">v</tspan></text>
    <text
       xml:space="preserve"
       style="font-size:15px;font-style:normal;font-variant:normal;font-weight:500;font-stretch:normal;text-align:start;line-height:125%;letter-spacing:0px;word-spacing:0px;writing-mode:lr-tb;text-anchor:start;fill:#000000;fill-opacity:1;stroke:none;font-family:CMU Serif;-inkscape-font-specification:CMU Serif Medium"
       x="186.98553"
       y="794.57336"
       id="text2059"
       sodipodi:linespacing="125%"><tspan
         sodipodi:role="line"
         id="tspan2061"
         x="186.98553"
         y="794.57336">u</tspan></text>
    <text
       xml:space="preserve"
       style="font-size:15px;font-style:normal;font-variant:normal;font-weight:500;font-stretch:normal;text-align:start;line-height:125%;letter-spacing:0px;word-spacing:0px;writing-mode:lr-tb;text-anchor:start;fill:#000000;fill-opacity:1;stroke:none;font-family:CMU Serif;-inkscape-font-specification:CMU Serif Medium"
       x="-49.919071"
       y="685.54028"
       id="text2063"
       sodipodi:linespacing="125%"><tspan
         sodipodi:role="line"
         id="tspan2065"
         x="-49.919071"
         y="685.54028">v</tspan></text>
    <text
       xml:space="preserve"
       style="font-size:15px;font-style:normal;font-variant:normal;font-weight:500;font-stretch:normal;text-align:start;line-height:125%;letter-spacing:0px;word-spacing:0px;writing-mode:lr-tb;text-anchor:start;fill:#000000;fill-opacity:1;stroke:none;font-family:CMU Serif;-inkscape-font-specification:CMU Serif Medium"
       x="767.77905"
       y="270.57974"
       id="text2067"
       sodipodi:linespacing="125%"><tspan
         sodipodi:role="line"
         id="tspan2069"
         x="767.77905"
         y="270.57974">M</tspan></text>
    <text
       xml:space="preserve"
       style="font-size:15px;font-style:normal;font-variant:normal;font-weight:500;font-stretch:normal;text-align:start;line-height:125%;letter-spacing:0px;word-spacing:0px;writing-mode:lr-tb;text-anchor:start;fill:#000000;fill-opacity:1;stroke:none;font-family:CMU Serif;-inkscape-font-specification:CMU Serif Medium"
       x="139.30048"
       y="531.32922"
       id="text2071"
       sodipodi:linespacing="125%"><tspan
         sodipodi:role="line"
         id="tspan2073"
         x="139.30048"
         y="531.32922">x(u,v)</tspan></text>
    <text
       xml:space="preserve"
       style="font-size:15px;font-style:normal;font-variant:normal;font-weight:500;font-stretch:normal;text-align:start;line-height:125%;letter-spacing:0px;word-spacing:0px;writing-mode:lr-tb;text-anchor:start;fill:#000000;fill-opacity:1;stroke:none;font-family:CMU Serif;-inkscape-font-specification:CMU Serif Medium"
       x="192.48309"
       y="634.04199"
       id="text2075"
       sodipodi:linespacing="125%"><tspan
         sodipodi:role="line"
         x="192.48309"
         y="634.04199"
         id="tspan2079">x^{-1}(x(U)\cap y(V))</tspan></text>
    <text
       xml:space="preserve"
       style="font-size:15px;font-style:normal;font-variant:normal;font-weight:500;font-stretch:normal;text-align:start;line-height:125%;letter-spacing:0px;word-spacing:0px;writing-mode:lr-tb;text-anchor:start;fill:#000000;fill-opacity:1;stroke:none;font-family:CMU Serif;-inkscape-font-specification:CMU Serif Medium"
       x="567.68164"
       y="644.84912"
       id="text2083"
       sodipodi:linespacing="125%"><tspan
         sodipodi:role="line"
         id="tspan2085"
         x="567.68164"
         y="644.84912">y^{-1}(x(U)\cap y(V))</tspan></text>
    <path
       style="fill:none;stroke:#000000;stroke-width:1px;stroke-linecap:butt;stroke-linejoin:miter;stroke-opacity:1"
       d="m 648.29391,704.60272 c -77.9184,0.84347 -394.03723,25.93304 -444.12843,-24.08187"
       id="path1990-8"
       inkscape:connector-curvature="0"
       sodipodi:nodetypes="cc" />
    <text
       xml:space="preserve"
       style="font-size:15px;font-style:normal;font-variant:normal;font-weight:500;font-stretch:normal;text-align:start;line-height:125%;letter-spacing:0px;word-spacing:0px;writing-mode:lr-tb;text-anchor:start;fill:#000000;fill-opacity:1;stroke:none;font-family:CMU Serif;-inkscape-font-specification:CMU Serif Medium"
       x="301.8461"
       y="736.83752"
       id="text2075-5"
       sodipodi:linespacing="125%"><tspan
         sodipodi:role="line"
         x="301.8461"
         y="736.83752"
         id="tspan2079-4">\Phi_{x,y}</tspan></text>
  </g>
</svg>
