<?xml version="1.0" encoding="UTF-8" standalone="no"?>
<!-- Created with Inkscape (http://www.inkscape.org/) -->

<svg
   xmlns:dc="http://purl.org/dc/elements/1.1/"
   xmlns:cc="http://creativecommons.org/ns#"
   xmlns:rdf="http://www.w3.org/1999/02/22-rdf-syntax-ns#"
   xmlns:svg="http://www.w3.org/2000/svg"
   xmlns="http://www.w3.org/2000/svg"
   xmlns:sodipodi="http://sodipodi.sourceforge.net/DTD/sodipodi-0.dtd"
   xmlns:inkscape="http://www.inkscape.org/namespaces/inkscape"
   width="338.86996"
   height="336.89172"
   id="svg2040"
   version="1.1"
   inkscape:version="0.48+devel r"
   sodipodi:docname="traingulation.svg">
  <title
     id="title2588">Winter School -- Contact Topology</title>
  <defs
     id="defs2042">
    <inkscape:path-effect
       effect="skeletal"
       id="path-effect1450"
       is_visible="true"
       pattern="M 0.05070108,5.4679508 C 46.730159,-2.8788392 98.876636,0.26463079 144.03974,2.7906108"
       copytype="single"
       prop_scale="1"
       scale_y_rel="false"
       spacing="0"
       normal_offset="0"
       tang_offset="0"
       prop_units="false"
       vertical_pattern="false"
       fuse_tolerance="0" />
    <inkscape:path-effect
       fuse_tolerance="0"
       vertical_pattern="false"
       prop_units="false"
       tang_offset="0"
       normal_offset="0"
       spacing="0"
       scale_y_rel="false"
       prop_scale="1"
       copytype="single_stretched"
       pattern="m -845.4228,230.03551 c -7.7724,0.72284 -15.5563,0.59508 -23.3473,0.93083 -7.7909,0.33575 -15.5885,-0.16545 -23.3873,0.0109 -7.7988,0.17634 -15.5988,-0.96978 -23.3948,-0.72517 -7.7959,0.24461 -15.5878,0.58027 -23.3702,1.12082 -2.1523,-1.15612 -2.0117,3.78271 0.063,2.4375 7.7113,-0.37053 15.4323,-0.53042 23.1567,-0.61261 7.7244,-0.0822 15.4521,1.213 23.1768,1.15327 7.7247,-0.0597 16.17,-0.80459 23.8822,-1.10773 7.7122,-0.30315 14.6908,1.13589 22.3777,0.32345 1.4035,-0.22689 4.2998,-1.54077 3.0937,-3.21875 C -843.8335,229.91939 -844.6769,230.00867 -845.4228,230.03551 Z"
       is_visible="true"
       id="path-effect1088-99"
       effect="skeletal" />
    <inkscape:path-effect
       fuse_tolerance="0"
       vertical_pattern="false"
       prop_units="false"
       tang_offset="0"
       normal_offset="0"
       spacing="0"
       scale_y_rel="false"
       prop_scale="1"
       copytype="single_stretched"
       pattern="m -845.4228,230.03551 c -7.7724,0.72284 -15.5563,0.59508 -23.3473,0.93083 -7.7909,0.33575 -15.5885,-0.16545 -23.3873,0.0109 -7.7988,0.17634 -15.5988,-0.96978 -23.3948,-0.72517 -7.7959,0.24461 -15.5878,0.58027 -23.3702,1.12082 -2.1523,-1.15612 -2.0117,3.78271 0.063,2.4375 7.7113,-0.37053 15.4323,-0.53042 23.1567,-0.61261 7.7244,-0.0822 15.4521,1.213 23.1768,1.15327 7.7247,-0.0597 16.17,-0.80459 23.8822,-1.10773 7.7122,-0.30315 14.6908,1.13589 22.3777,0.32345 1.4035,-0.22689 4.2998,-1.54077 3.0937,-3.21875 C -843.8335,229.91939 -844.6769,230.00867 -845.4228,230.03551 Z"
       is_visible="true"
       id="path-effect1096-45"
       effect="skeletal" />
    <inkscape:path-effect
       fuse_tolerance="0"
       vertical_pattern="false"
       prop_units="false"
       tang_offset="0"
       normal_offset="0"
       spacing="0"
       scale_y_rel="false"
       prop_scale="1"
       copytype="single_stretched"
       pattern="m -845.4228,230.03551 c -7.7724,0.72284 -15.5563,0.59508 -23.3473,0.93083 -7.7909,0.33575 -15.5885,-0.16545 -23.3873,0.0109 -7.7988,0.17634 -15.5988,-0.96978 -23.3948,-0.72517 -7.7959,0.24461 -15.5878,0.58027 -23.3702,1.12082 -2.1523,-1.15612 -2.0117,3.78271 0.063,2.4375 7.7113,-0.37053 15.4323,-0.53042 23.1567,-0.61261 7.7244,-0.0822 15.4521,1.213 23.1768,1.15327 7.7247,-0.0597 16.17,-0.80459 23.8822,-1.10773 7.7122,-0.30315 14.6908,1.13589 22.3777,0.32345 1.4035,-0.22689 4.2998,-1.54077 3.0937,-3.21875 C -843.8335,229.91939 -844.6769,230.00867 -845.4228,230.03551 Z"
       is_visible="true"
       id="path-effect1126-7"
       effect="skeletal" />
    <inkscape:path-effect
       effect="skeletal"
       id="path-effect1450-3"
       is_visible="true"
       pattern="m -413.20476,-299.09831 c -2.13162,2.87035 1.27339,-1.73763 3.2239,-3.91924 0.32944,-0.36848 -0.51292,0.84566 -0.74563,1.28173 -0.83814,1.57061 -1.40843,3.22895 -2.00715,4.89994 -1.45871,4.22369 -2.26851,8.621 -2.88503,13.03437 -0.64412,4.74723 -0.25784,9.4697 0.75595,14.12502 1.14451,4.81042 3.62251,9.00844 6.48973,12.96882 3.40676,4.58342 7.72508,8.2933 12.30751,11.64345 5.26512,3.58717 10.88412,6.60718 16.33989,9.88744 5.64869,3.38017 11.033,7.17212 16.34018,11.05922 5.69914,4.22802 11.14799,8.77458 16.39136,13.55247 6.08465,5.39718 11.24755,11.65129 15.96722,18.24473 5.55676,7.72522 9.64505,16.26988 12.99543,25.13651 3.82456,10.72993 5.63858,21.95541 7.09043,33.20465 1.68872,14.06949 2.29977,28.23967 2.84609,42.390731 0.46973,13.98368 1.10877,27.95848 1.96189,41.92385 0.36428,7.33964 1.17938,14.66295 1.10991,22.02055 -0.022,2.33101 -0.33621,8.86572 -0.44066,11.1911 0.0743,1.6703 0.14855,3.3406 0.22282,5.0109 0,0 -0.28253,0.3601 -0.28253,0.3601 l 0,0 c -0.0756,-1.67139 -0.15131,-3.34279 -0.22696,-5.01419 -0.62203,-2.70405 -1.37042,-5.37806 -1.98927,-8.08285 -1.51417,-6.61788 -2.12388,-13.39848 -2.85471,-20.13317 -1.17188,-13.98887 -1.71303,-28.01203 -2.22142,-42.03896 -0.65996,-14.169411 -1.29265,-28.355621 -3.05213,-42.442011 -1.56064,-11.2232 -3.34118,-22.49848 -7.0785,-33.23818 -3.22237,-8.82275 -7.14604,-17.35289 -12.66518,-25.00835 -4.72236,-6.49892 -9.85381,-12.67116 -15.84738,-18.05358 -5.23079,-4.7124 -10.60778,-9.26245 -16.29423,-13.42123 -5.29368,-3.87391 -10.71383,-7.5714 -16.34077,-10.94835 -5.48381,-3.24437 -11.10921,-6.25754 -16.43816,-9.75576 -4.69056,-3.38242 -9.11011,-7.12224 -12.62452,-11.7587 -2.95714,-4.0379 -5.5532,-8.3362 -6.76483,-13.24911 -1.07352,-4.71833 -1.56069,-9.50816 -0.91313,-14.33627 0.55027,-4.43091 1.33879,-8.83902 2.72535,-13.0939 1.85425,-5.34059 4.48551,-9.8094 8.63519,-13.9382 C -409.4741,-305.59478 -413.20476,-299.09831 -413.20476,-299.09831 Z"
       copytype="single_stretched"
       prop_scale="1"
       scale_y_rel="false"
       spacing="0"
       normal_offset="0"
       tang_offset="0"
       prop_units="false"
       vertical_pattern="true"
       fuse_tolerance="0" />
  </defs>
  <sodipodi:namedview
     id="base"
     pagecolor="#ffffff"
     bordercolor="#666666"
     borderopacity="1.0"
     inkscape:pageopacity="0.0"
     inkscape:pageshadow="2"
     inkscape:zoom="1.3594887"
     inkscape:cx="73.323851"
     inkscape:cy="193.11359"
     inkscape:document-units="px"
     inkscape:current-layer="layer1"
     showgrid="false"
     fit-margin-top="0"
     fit-margin-left="0"
     fit-margin-right="0"
     fit-margin-bottom="0"
     inkscape:snap-path-clip="true"
     inkscape:snap-path-mask="true"
     inkscape:snap-bbox="true"
     inkscape:bbox-paths="true"
     inkscape:bbox-nodes="true"
     inkscape:snap-bbox-edge-midpoints="true"
     inkscape:snap-bbox-midpoints="true"
     inkscape:object-paths="true"
     inkscape:snap-midpoints="true"
     inkscape:snap-smooth-nodes="true"
     inkscape:object-nodes="true"
     inkscape:snap-intersection-paths="true"
     inkscape:snap-object-midpoints="true"
     inkscape:snap-center="true"
     inkscape:snap-text-baseline="true"
     inkscape:snap-page="true"
     inkscape:snap-global="true" />
  <metadata
     id="metadata2045">
    <rdf:RDF>
      <cc:Work
         rdf:about="">
        <dc:format>image/svg+xml</dc:format>
        <dc:type
           rdf:resource="http://purl.org/dc/dcmitype/StillImage" />
        <dc:title>Winter School -- Contact Topology</dc:title>
        <dc:date>2013</dc:date>
        <dc:creator>
          <cc:Agent>
            <dc:title>Marek Kaluba</dc:title>
          </cc:Agent>
        </dc:creator>
        <dc:rights>
          <cc:Agent>
            <dc:title>Marek Kaluba</dc:title>
          </cc:Agent>
        </dc:rights>
      </cc:Work>
    </rdf:RDF>
  </metadata>
  <g
     inkscape:label="Layer 1"
     inkscape:groupmode="layer"
     id="layer1"
     transform="translate(127.98735,-96.411564)">
    <g
       id="g5663"
       transform="translate(-104.19343,-503.86607)">
      <path
         sodipodi:nodetypes="ccccccccccccccccscscccccccccccc"
         inkscape:connector-curvature="0"
         id="path5616"
         d="m 164.36242,704.27769 c -10.59541,7.66802 -20.76735,15.64822 -30.4375,23.71875 -14.94756,12.47723 -28.66037,25.1586 -41.03125,37.625 l -2.53125,2.5625 c -1.34556,1.37308 -2.68795,2.75883 -4,4.125 -1.58492,1.6505 -3.15142,3.29817 -4.6875,4.9375 -10.785,11.51197 -20.62756,23.02756 -29.1875,34.3125 l -1.90625,2.53125 c -0.62822,0.84515 -1.26174,1.68875 -1.875,2.53125 -9.17207,12.60492 -16.71532,24.93923 -21.25,36.25 -3.73117,9.32625 -5.49919,18.06681 -3.0625,24.46875 0.0649,0.16514 0.1225,0.30825 0.1875,0.46875 1.42162,1.14673 3.17586,3.22548 5.125,6.59375 l 1.0625,2.84375 c 14.53971,14.25953 31.65215,25.81495 50.5,33.9375 20.94207,9.02771 44.02768,13.7421 67.71875,13.6875 2.69615,-0.006 5.3852,-0.072 8.09375,-0.21875 15.7365,-0.85255 31.64808,-4.0635 46.8125,-9.71875 1.80145,-1.83871 3.36274,-4.14162 5.46875,-5.53125 3.44878,-2.27565 6.16091,-5.37986 8.28125,-8.90625 5.67649,-9.44647 7.67674,-21.20717 8.53125,-33.1875 1.11611,-15.91532 -0.22102,-32.57554 -2.75,-49.375 -0.40092,-2.65992 -0.8484,-5.33182 -1.3125,-8 l -0.40625,-2.28125 c -2.41826,-13.40745 -5.6134,-26.89812 -9.40625,-40.40625 l -0.53125,-1.9375 c -0.15745,-0.55245 -0.30931,-1.10379 -0.46875,-1.65625 -0.58622,-2.03252 -1.1938,-4.0789 -1.8125,-6.125 -5.97776,-19.76393 -13.46086,-40.11963 -22.78125,-60.375 -0.30188,-0.65578 -0.60068,-1.31321 -0.90625,-1.96875 C 178.62777,704.68627 171.46594,704.41619 164.36242,704.27769 Z"
         style="opacity:0.3;fill:#800080;fill-opacity:1;fill-rule:nonzero;stroke:none" />
      <path
         id="path1985-9-0"
         d="m 103.70617,610.43389 c -4.46289,-0.0111 -3.36964,2.20359 0.6875,2.21875 3.18471,7.2e-4 6.59771,0.72587 9.96875,2 0.86487,0.32687 1.70831,0.69984 2.5625,1.09375 4.78765,2.20648 9.37334,5.35585 13.65625,8.90625 11.2418,9.32206 20.47057,21.06608 28.71875,33.15625 7.59598,11.15538 14.23376,22.77544 20.21875,34.53125 -4.33245,2.85467 -8.60761,5.75202 -12.8125,8.71875 -5.50455,-0.21068 -11.0213,-0.30445 -16.53125,-0.25 -2.30017,0.0228 -4.57611,0.0885 -6.875,0.15625 -14.80539,0.43611 -29.60354,1.31607 -44.34375,2.8125 -15.0845,1.52951 -30.16934,3.69169 -44.93751,7.28125 -3.54535,0.86173 -7.08087,1.78936 -10.59375,2.78125 -15.6842,4.41 -31.42548,10.04705 -44.84374,19.53125 -5.27331,3.72281 -10.14711,8.19439 -13.75,13.625 -2.08899,3.15284 -3.67982,6.65284 -4.5625,10.3125 -0.81114,1.97368 -0.90019,3.56222 -0.71875,4.59375 0.18144,1.03152 0.63111,1.52771 1.09375,1.5 0.46264,-0.0277 0.92701,-0.55588 1.28125,-1.5 0.35423,-0.94413 0.61695,-2.32046 0.78125,-4.21875 0.839,-3.28306 2.28498,-6.42732 4.1875,-9.28125 3.37688,-5.07638 8.07676,-9.2838 13.1875,-12.875 13.06179,-9.16674 28.51791,-14.5865 44.09374,-18.90625 3.29839,-0.91251 6.60846,-1.76576 9.9375,-2.5625 14.83047,-3.54942 30.02534,-5.62854 45.21876,-7.09375 14.19537,-1.36717 28.40542,-2.18291 42.625,-2.59375 2.72684,-0.0788 5.47965,-0.1513 8.25,-0.1875 3.98366,-0.0522 8.01071,-0.0284 12.0625,0.0313 -10.43781,7.53165 -20.46832,15.35234 -30.03125,23.28125 -17.68069,14.65782 -33.85506,29.74682 -48.3125,44.8125 -0.90251,0.93815 -1.80006,1.87433 -2.6875,2.8125 -13.3595,14.12621 -25.34235,28.25279 -35.34376,42.03125 -9.26845,12.76592 -16.88212,25.29232 -21.46875,36.8125 -3.7938,9.50537 -5.54016,18.45749 -3,25.09375 10.86361,9.71915 6.80333,8.03248 2.96875,-1.71875 -2.43669,-6.40194 -0.66867,-15.1425 3.0625,-24.46875 4.53468,-11.31077 12.07793,-23.64508 21.25,-36.25 9.3935,-12.90489 20.56036,-26.13021 32.96876,-39.375 1.53608,-1.63933 3.10258,-3.287 4.6875,-4.9375 14.00844,-14.58632 29.93749,-29.60031 47.5625,-44.3125 9.67015,-8.07048 19.84209,-16.05073 30.4375,-23.71875 7.10352,0.1385 14.26535,0.40858 21.4375,0.90625 0.30557,0.65554 0.60437,1.31297 0.90625,1.96875 9.32039,20.25537 16.80349,40.61107 22.78125,60.375 0.6187,2.0461 1.22628,4.09248 1.8125,6.125 5.24197,18.16396 9.41841,36.32408 12.125,54.28125 2.52898,16.79946 3.86611,33.45968 2.75,49.375 -0.85451,11.98033 -2.85476,23.74103 -8.53125,33.1875 -2.12034,3.52639 -4.78953,6.69705 -8.28125,8.90625 -2.34744,1.48624 -7.09107,5.7558 -5.78125,5.53125 2.94691,-0.50516 5.64118,-1.57618 7.9375,-3.03125 3.81499,-2.42041 6.6843,-5.76842 8.90625,-9.46875 5.92687,-9.85936 8.06975,-21.92141 8.9375,-34.0625 1.17943,-16.15022 -0.10791,-32.9953 -2.625,-49.9375 -2.82061,-19.00226 -7.27868,-38.2044 -12.90625,-57.40625 -0.33985,-1.15863 -0.6787,-2.34141 -1.03125,-3.5 -6.14309,-20.36218 -13.84258,-40.73611 -23.28125,-60.84375 -0.19527,-0.41609 -0.39701,-0.83408 -0.59375,-1.25 3.08619,0.23742 6.17634,0.50549 9.25,0.8125 11.75687,1.1757 23.37905,2.82776 34.4375,5.15625 5.2295,1.10114 10.32977,2.38773 15.3125,3.84375 7.37801,2.15909 14.53159,4.69235 21.40625,7.6875 6.87466,2.99516 13.47451,6.46618 19.71875,10.625 5.23758,3.48797 10.19191,7.43978 14.5,12.1875 1.05488,1.16261 2.06742,2.39528 3.03125,3.65625 0.81101,1.02868 1.84115,2.31981 2.84375,3.6875 1.0026,1.3677 1.98092,2.8121 2.8125,4 0.83158,1.1879 1.52804,2.13561 2.03125,2.46875 0.50321,0.33315 0.8487,0.0266 0.8125,-1.25 -0.26925,-1.31267 -0.80325,-2.72124 -1.46875,-4.125 -0.66551,-1.40376 -1.4796,-2.80175 -2.28125,-4.0625 -1.54782,-2.3594 -3.27511,-4.58453 -5.15625,-6.65625 -4.5079,-4.96493 -9.75832,-9.12435 -15.3125,-12.6875 -12.99522,-8.33543 -27.55123,-13.77185 -42.28125,-17.84375 -5.2751,-1.46113 -10.584,-2.7307 -15.9375,-3.84375 -11.29439,-2.3482 -22.70986,-4.1456 -34.15625,-5.5 -3.66197,-0.43361 -7.32643,-0.81665 -11,-1.15625 -1.69327,-3.51089 -3.4405,-7.01014 -5.25,-10.5 0.0749,-0.0491 0.14381,-0.10714 0.21875,-0.15625 14.34034,-9.39215 29.37987,-18.08228 43.9375,-24.40625 6.39352,-2.77896 12.66881,-5.06625 18.46875,-6.625 2.23431,-0.60087 4.39758,-1.09516 6.46875,-1.46875 3.15946,-0.56991 6.10185,-0.8709 8.75,-0.875 4.45955,-0.009 8.08316,0.82924 10.78125,2.3125 2.86123,1.57111 5.11711,0.0112 2.125,-1.59375 -2.86597,-1.53502 -6.70661,-2.36194 -11.34375,-2.34375 -3.05128,0.0134 -6.44209,0.3921 -10.0625,1.09375 -1.88339,0.365 -3.81992,0.80884 -5.8125,1.34375 -6.08224,1.63379 -12.5553,4.01359 -19.09375,6.84375 -15.15498,6.56313 -30.48975,15.38516 -44.96875,24.8125 -0.002,-0.004 -0.029,0.004 -0.0313,0 -6.02161,-11.52411 -12.69856,-22.91077 -20.3125,-33.9375 -8.32261,-12.06981 -17.77997,-23.99452 -29.5625,-33.75 -4.41514,-3.65664 -9.23919,-6.98039 -14.40625,-9.375 -0.58914,-0.27288 -1.15302,-0.53718 -1.75,-0.78125 C 111.69876,611.41484 107.58662,610.45879 103.70617,610.43389 z m 76.34375,82.9375 c 1.47459,2.91821 2.9186,5.84976 4.3125,8.78125 -5.19663,-0.44033 -10.41393,-0.77129 -15.625,-1 C 172.46321,698.51713 176.22936,695.91035 180.04992,693.37139 Z"
         style="fill:#999999;fill-opacity:1;fill-rule:nonzero;stroke:none"
         inkscape:connector-curvature="0" />
      <path
         sodipodi:nodetypes="csccccccsccccccscc"
         inkscape:connector-curvature="0"
         id="path5502-3"
         d="m 259.82076,658.52847 c -2.64815,0.004 -5.59054,0.30509 -8.75,0.875 -2.07117,0.37359 -4.23444,0.86788 -6.46875,1.46875 -5.79994,1.55875 -12.07523,3.84604 -18.46875,6.625 -14.55763,6.32397 -29.59716,15.0141 -43.9375,24.40625 -0.0749,0.0491 -0.14384,0.10715 -0.21875,0.15625 1.8095,3.48986 3.55673,6.98911 5.25,10.5 3.67357,0.3396 7.33803,0.72264 11,1.15625 11.44639,1.3544 22.86186,3.1518 34.15625,5.5 5.3535,1.11305 10.6624,2.38262 15.9375,3.84375 3.86253,1.06774 7.71765,2.24819 11.53125,3.53125 l 2,0.6875 c 10.02642,3.49989 19.75862,7.85772 28.75,13.625 5.55418,3.56315 10.8046,7.72257 15.3125,12.6875 1.52648,1.68112 2.93983,3.47082 4.25,5.34375 -1.73516,-16.1311 -5.80168,-32.03159 -12.03125,-47.03125 -4.88891,-11.7716 -11.08116,-22.97455 -18.53125,-33.3125 C 273.67371,662.64303 272.87461,657.93558 259.82076,658.52847 Z"
         style="opacity:0.3;fill:#0000ff;fill-opacity:1;fill-rule:nonzero;stroke:none" />
      <path
         sodipodi:nodetypes="ccccccccccccccsccccccccccsc"
         inkscape:connector-curvature="0"
         id="path5488-6"
         d="m 279.68171,668.57572 c 1.39115,6.31404 -0.36585,14.25555 -3.71875,22.65625 -3.28685,8.25555 -8.1404,17.02439 -14.03125,26.03125 l -1.53125,2.28125 c -1.88417,2.80973 -3.84292,5.65807 -5.90625,8.5 -10.0014,13.77846 -21.98435,27.90504 -35.34375,42.03125 -0.88743,0.93817 -1.78499,1.87435 -2.6875,2.8125 -0.58723,0.61194 -1.18837,1.23176 -1.78125,1.84375 l -2.5625,2.625 c -13.33365,13.57826 -28.03385,27.13324 -43.96875,40.34375 -2.42569,2.01122 -4.89098,4.00552 -7.375,6 12.45481,-0.2451 24.90255,-1.04265 37.28125,-2.4375 7.87009,-0.88747 15.69675,-2.036 23.46875,-3.5 l 3.15625,-0.59375 c 2.42171,-0.48613 4.84494,-1.0059 7.25,-1.5625 5.28233,-1.22247 10.522,-2.60535 15.71875,-4.125 14.52009,-4.25402 28.80449,-9.6738 41.1875,-18.03125 5.28022,-3.56334 10.17471,-7.66797 14.1875,-12.46875 1.66836,-1.99644 3.18937,-4.09223 4.5,-6.3125 0.71212,-1.16453 1.37958,-2.43931 2.03125,-3.6875 0.56201,-1.07642 1.11471,-2.11389 1.65625,-3.0625 0.012,-1.49291 -0.002,-2.98121 -0.0313,-4.46875 -0.0106,-0.53553 -0.0154,-1.08959 -0.0313,-1.625 -0.0627,-2.13755 -0.16701,-4.27245 -0.3125,-6.40625 l -0.59375,-6.5 c -1.73506,-16.1311 -5.80158,-32.03159 -12.03115,-47.03125 C 293.32405,690.11662 287.1318,678.91367 279.68171,668.57572 Z"
         style="opacity:0.5;fill:#0000ff;fill-opacity:1;fill-rule:nonzero;stroke:none" />
      <path
         sodipodi:nodetypes="ccccccccccsccccccccccccc"
         inkscape:connector-curvature="0"
         id="path5506-0"
         d="m 102.02651,612.34449 -12.46875,2.96875 c -20.28922,7.91148 -39.19511,19.41395 -55.46875,33.84375 -16.32654,14.47918 -30.02401,31.96123 -39.53125,51.53125 -7.18161,14.77799 -11.90091,30.75353 -13.8125,47.03125 -0.25109,4.13944 -0.44964,7.53371 -0.6875,10.1875 0.0706,-0.20155 0.13225,-0.38322 0.21875,-0.59375 0.88268,-3.65966 2.47351,-7.15966 4.5625,-10.3125 3.60289,-5.43061 8.47669,-9.90219 13.75,-13.625 13.41827,-9.4842 29.15955,-15.12125 44.84375,-19.53125 3.51288,-0.99189 7.0484,-1.91952 10.59375,-2.78125 7.3741,-1.79235 14.81995,-3.22672 22.3125,-4.40625 l 3.15625,-0.46875 c 6.46954,-0.95654 12.97403,-1.74771 19.46875,-2.40625 14.74021,-1.49643 29.53836,-2.37639 44.34375,-2.8125 2.29889,-0.0677 4.57483,-0.13345 6.875,-0.15625 5.50995,-0.0545 11.0267,0.0393 16.53125,0.25 4.20489,-2.96672 8.48005,-5.86408 12.8125,-8.71875 -5.98499,-11.7558 -12.62277,-23.37587 -20.21875,-34.53125 -8.24818,-12.09017 -17.47695,-23.83419 -28.71875,-33.15625 -4.28291,-3.5504 -8.8686,-6.69977 -13.65625,-8.90625 -0.85419,-0.39391 -1.69763,-0.76688 -2.5625,-1.09375 -3.37104,-1.27413 -6.78404,-1.99928 -9.96875,-2 C 103.42079,612.65333 102.62424,612.5427 102.02651,612.34449 Z"
         style="opacity:0.3;fill:#00ff00;fill-opacity:1;fill-rule:nonzero;stroke:none" />
      <path
         sodipodi:nodetypes="cccccccsccccccscccccccccc"
         inkscape:connector-curvature="0"
         id="path5490-8"
         d="m 89.47251,615.17233 c -20.28922,7.91148 -39.19511,19.41395 -55.46875,33.84375 -16.32654,14.47917 -30.02401,31.96123 -39.53125,51.53125 -7.18161,14.77798 -11.90091,30.75353 -13.8125,47.03125 -0.25109,4.13943 -0.44964,7.5337 -0.6875,10.1875 0,0 -0.0273,2.63321 -1,6.1875 0.18319,-0.29652 0.39581,-0.4651 0.625,-0.5 0.45837,-0.0697 0.94444,0.38553 1.3125,1.3125 0.36807,0.92696 0.618,2.33353 0.84375,4.34375 0.96322,3.43252 2.56454,6.68759 4.625,9.59375 3.5717,5.04563 8.40081,9.1173 13.59375,12.59375 13.27058,8.87387 28.7505,14.00056 44.34375,18.125 2.00203,0.52711 4.01956,1.01504 6.03125,1.5 l 2.0625,0.5 c 0.8032,0.18785 1.60131,0.38076 2.40625,0.5625 14.64544,3.30673 29.46568,5.91395 44.40625,7.90625 3.59727,0.47924 7.204,0.91307 10.8125,1.3125 -7.84985,-17.60028 -14.38935,-35.39171 -19.75,-53.15625 l -0.5625,-1.90625 c -0.15701,-0.53026 -0.31274,-1.06187 -0.46875,-1.59375 -5.39008,-18.3915 -9.69809,-36.78386 -12.53125,-55 l -0.46875,-3.03125 c -2.45585,-16.73075 -3.69612,-33.36149 -2.53125,-49.3125 0.86775,-12.1411 3.01063,-24.20315 8.9375,-34.0625 C 84.45089,620.15864 86.68435,617.40369 89.47251,615.17233 Z"
         style="opacity:0.5;fill:#00ff00;fill-opacity:1;fill-rule:nonzero;stroke:none" />
      <path
         inkscape:connector-curvature="0"
         id="path5476-8"
         d="m 114.89367,825.15264 c 8.95948,0.92343 17.9281,1.52604 26.9375,1.75 2.75483,0.0685 5.54437,0.12122 8.34375,0.125 1.42953,0.002 2.87355,-0.014 4.3125,-0.0313 -9.12224,7.21296 -18.63997,14.26273 -28.46875,21 -3.39531,-6.43566 -6.59843,-12.93065 -9.59375,-19.4375 C 115.90391,827.42664 115.40322,826.2855 114.89367,825.15264 Z"
         style="opacity:0.5;fill:#ff0000;fill-opacity:1;fill-rule:nonzero;stroke:none" />
      <path
         id="path1979-2-8"
         d="m -21.86151,792.42411 c 5.95501,35.18573 22.40073,68.54902 47.38452,93.96975 0,0 0,0 10e-6,10e-6 15.56796,15.83224 34.26627,28.56265 54.71431,37.20231 1e-5,0 1e-5,0 1e-5,0 21.6797,9.1568 45.24295,13.65743 68.74726,13.57198 1e-5,0 1e-5,0 2e-5,0 3.19982,-0.0114 6.3993,-0.11769 9.59266,-0.31849 20.17383,-1.26858 40.11058,-6.23215 58.41594,-14.80331 20.07676,-9.40412 38.12077,-23.02183 52.93072,-39.52147 10e-6,0 10e-6,0 10e-6,-10e-6 14.68308,-16.35765 26.23373,-35.51298 33.9274,-56.11573 7.05,-18.87617 10.85044,-38.99523 10.92043,-59.14845 0.007,-1.87863 -0.0184,-3.75752 -0.0751,-5.63578 0,0 -1e-5,-10e-6 -1e-5,-10e-6 -0.63433,-20.9526 -5.18728,-41.76808 -13.26007,-61.11513 -8.07279,-19.34704 -19.66905,-37.22438 -34.39378,-52.23588 0,0 -1e-5,-10e-6 -1e-5,-10e-6 -14.3696,-14.64219 -31.55632,-26.54819 -50.39989,-34.7568 -1e-5,0 -1e-5,0 -1e-5,-1e-5 -18.71441,-8.14938 -39.01009,-12.59738 -59.40161,-13.17406 -0.9626,-0.0272 -1.92539,-0.046 -2.88822,-0.0563 -22.28521,-0.23551 -44.51226,4.11694 -65.22429,12.15982 -20.81215,8.07875 -40.16301,19.86842 -56.8104,34.68723 0,0 0,10e-6 0,10e-6 -16.54475,14.72457 -30.41728,32.51765 -40.04986,52.43011 0,10e-6 -1e-5,10e-6 -1e-5,10e-6 -7.37599,15.25148 -12.15582,31.74168 -14.01586,48.53338 -0.9651,5.74923 -1.05121,10.05403 -0.84914,12.84179 0.20207,2.78776 0.69142,4.07139 1.15245,3.93489 0.46103,-0.1365 0.89664,-1.68526 1.24623,-4.5616 0.34958,-2.87633 0.61515,-7.07766 0.94993,-12.59692 1.91159,-16.27772 6.61634,-32.25471 13.79795,-47.0327 0,-10e-6 10e-6,-10e-6 10e-6,-10e-6 9.50724,-19.57001 23.21105,-37.06439 39.53758,-51.54357 10e-6,0 10e-6,0 10e-6,0 16.43353,-14.57158 35.53165,-26.15321 56.04793,-34.07119 20.41717,-7.8778 42.29686,-12.12144 64.17738,-11.84294 0.40896,0.005 0.8179,0.0119 1.22682,0.0202 20.5674,0.41648 41.06478,4.84528 59.88546,13.09157 10e-6,0 10e-6,10e-6 10e-6,10e-6 18.46161,8.08713 35.2967,19.8044 49.35357,34.18347 0,0 0,0 0,0 14.40432,14.72725 25.74143,32.28322 33.62754,51.27151 7.88611,18.9883 12.32498,39.40756 12.9267,59.93016 0,10e-6 0,10e-6 0,2e-5 0.0158,0.53541 0.0289,1.07089 0.0394,1.60642 0.40508,20.63901 -3.16949,41.8565 -10.56452,61.94678 -7.40424,20.11006 -18.62756,39.10475 -33.00971,55.3472 0,10e-6 0,10e-6 0,10e-6 -14.51138,16.38747 -32.27891,29.93393 -51.83992,39.21288 -18.65563,8.8536 -38.89523,13.73306 -58.86509,14.81496 -2.70855,0.14674 -5.41257,0.22277 -8.10871,0.22916 -23.69108,0.0546 -46.78323,-4.66058 -67.7253,-13.68829 C 61.09645,912.50186 42.92089,899.86274 27.75501,884.21152 16.83135,872.94383 7.55248,860.08182 0.06665,846.03631 -7.41919,831.9908 -13.11623,816.75644 -16.71782,800.71576 c -0.8403,-3.6529 -1.81969,-8.29993 -2.64428,-13.04853 -0.8246,-4.74859 -1.4917,-9.59659 -1.99289,-13.59759 -0.50118,-4.00101 -0.85504,-7.1539 -1.22325,-8.49091 -0.1841,-0.66851 -0.37293,-0.88281 -0.5695,-0.51943 -0.19656,0.36338 -0.40249,1.30455 -0.58207,2.94868 -0.14822,3.60085 -0.0363,7.70513 0.30344,11.9067 C -23.08659,784.11624 -22.51876,788.41325 -21.86151,792.42411 Z"
         style="fill:#000000;stroke:none"
         inkscape:connector-curvature="0" />
      <path
         id="path1981-9-4"
         d="m 99.54992,610.77764 c -2.94691,0.50516 -5.60993,1.54493 -7.90625,3 -3.81499,2.42041 -6.6843,5.79967 -8.90625,9.5 -5.92687,9.85936 -8.06975,21.92141 -8.93751,34.0625 -1.17942,16.15022 0.10791,32.9953 2.62501,49.9375 2.82062,19.00226 7.27868,38.2044 12.90625,57.40625 0.33985,1.15863 0.6787,2.31016 1.03125,3.46875 5.36227,17.77403 11.89594,35.5778 19.75,53.1875 -3.6085,-0.39942 -7.21523,-0.83326 -10.8125,-1.3125 -14.94057,-1.9923 -29.76081,-4.59952 -44.40626,-7.90625 -3.51589,-0.79384 -7.01479,-1.64488 -10.5,-2.5625 -15.59324,-4.12444 -31.07317,-9.25113 -44.34374,-18.125 -5.19294,-3.47645 -10.02205,-7.54812 -13.59375,-12.59375 -2.06046,-2.90616 -3.66178,-6.16123 -4.625,-9.59375 -0.22575,-2.01022 -0.47568,-3.41678 -0.84375,-4.34375 -0.36806,-0.92697 -0.85413,-1.38223 -1.3125,-1.3125 -0.45838,0.0697 -0.89266,0.66064 -1.03125,1.78125 -0.13858,1.12061 0.0398,2.78463 0.90625,4.71875 1.02285,3.63944 2.68776,7.08399 4.84375,10.15625 3.79766,5.39981 8.83197,9.73566 14.1875,13.34375 13.62723,9.19146 29.36149,14.53547 45.06249,18.75 3.32887,0.89582 6.645,1.71673 10,2.5 14.94614,3.48936 30.10106,6.27385 45.31251,8.375 4.2446,0.58684 8.48727,1.09046 12.75,1.5625 0.64521,1.41368 1.27516,2.83898 1.9375,4.25 3.20966,6.83938 6.62939,13.65373 10.28125,20.40625 -1.92484,1.30409 -3.86412,2.59818 -5.8125,3.875 -14.34034,9.39215 -29.37987,18.08228 -43.93751,24.40625 -6.39351,2.77896 -12.66881,5.06625 -18.46875,6.625 -2.23431,0.60087 -4.39758,1.09516 -6.46875,1.46875 -3.15946,0.56991 -6.10184,0.8709 -8.75,0.875 -4.45954,0.009 -8.08316,-0.79799 -10.78125,-2.28125 -8.64859,-14.9455 -13.5127,-4.75205 -2.09375,1.5625 2.86597,1.53502 6.67536,2.36194 11.3125,2.34375 3.05128,-0.0134 6.4421,-0.3921 10.0625,-1.09375 1.88339,-0.365 3.81992,-0.80884 5.8125,-1.34375 6.08225,-1.63379 12.5553,-4.01359 19.09375,-6.84375 15.15499,-6.56313 30.48976,-15.38516 44.96876,-24.8125 1.89119,-1.23084 3.75742,-2.49603 5.625,-3.75 5.22797,9.59169 10.94103,19.0539 17.3125,28.28125 8.32261,12.06981 17.74872,24.02577 29.53125,33.78125 4.41513,3.65664 9.23919,6.98039 14.40625,9.375 0.58914,0.27288 1.18427,0.50593 1.78125,0.75 3.94491,1.6128 8.0258,2.56885 11.90625,2.59375 15.73091,-0.12612 16.07087,-9.79677 -0.65625,-2.1875 -3.18471,-7.2e-4 -6.59771,-0.75712 -9.96875,-2.03125 -0.86487,-0.32687 -1.73956,-0.66859 -2.59375,-1.0625 -4.78765,-2.20648 -9.34209,-5.3871 -13.625,-8.9375 -11.2418,-9.32206 -20.47057,-21.06608 -28.71875,-33.15625 -6.36854,-9.35277 -12.06793,-19.01071 -17.28125,-28.8125 10.44978,-7.09598 20.53539,-14.48858 30.1875,-22.09375 13.77618,-0.25919 27.90704,-1.36778 41.78125,-3.1875 11.80222,-1.5466 23.44094,-3.61311 34.53125,-6.1875 5.24455,-1.21742 10.36166,-2.50803 15.40625,-3.90625 7.4661,-2.06624 14.78256,-4.33082 21.875,-7.15625 7.09245,-2.82543 13.97464,-6.18625 20.46875,-10.40625 5.45945,-3.54815 10.65138,-7.79487 15,-12.96875 1.0678,-1.27025 2.057,-2.58184 3,-3.96875 0.76194,-1.15554 1.64878,-2.69657 2.375,-4.3125 0.72623,-1.61593 1.30267,-3.31445 1.625,-4.75 0.32232,-1.43554 0.40457,-2.59497 0.21875,-3.15625 -0.18582,-0.56129 -0.62443,-0.50829 -1.40625,0.375 -0.62764,1.05541 -1.25459,2.28311 -1.90625,3.53125 -0.65167,1.24819 -1.31913,2.52297 -2.03125,3.6875 -1.31063,2.22027 -2.83164,4.31606 -4.5,6.3125 -4.01279,4.80078 -8.90728,8.90541 -14.1875,12.46875 -12.38301,8.35745 -26.66741,13.77723 -41.1875,18.03125 -5.19675,1.51965 -10.43642,2.90253 -15.71875,4.125 -11.14424,2.57909 -22.48223,4.37154 -33.875,5.65625 -12.3787,1.39485 -24.82644,2.1924 -37.28125,2.4375 2.48402,-1.99448 4.94931,-3.98878 7.375,-6 17.68069,-14.65782 33.85506,-29.74682 48.3125,-44.8125 0.90251,-0.93815 1.80007,-1.87433 2.6875,-2.8125 13.3595,-14.12621 25.34235,-28.25279 35.34375,-42.03125 9.26845,-12.76592 16.88213,-25.29232 21.46875,-36.8125 3.7938,-9.50537 5.54015,-18.42624 3,-25.0625 -1.10111,-2.86174 -3.05597,-5.2724 -6.0625,-6.90625 -8.56285,-1.48778 1.66157,5.15055 3.09375,8.625 2.43669,6.40194 0.66867,15.11125 -3.0625,24.4375 -4.53468,11.31077 -12.07793,23.64508 -21.25,36.25 -9.39349,12.90489 -20.56035,26.13021 -32.96875,39.375 -1.53607,1.63933 -3.10259,3.287 -4.6875,4.9375 -14.00844,14.58632 -29.93749,29.60031 -47.5625,44.3125 -2.6229,2.18901 -5.27307,4.35879 -7.96875,6.53125 -2.82559,0.0409 -5.64329,0.0438 -8.46875,0.0313 -2.28658,-0.0101 -4.5884,-0.0221 -6.875,-0.0625 -10.00934,-0.17659 -20.0064,-0.87837 -29.96875,-1.90625 -7.90655,-17.98894 -14.41439,-35.99376 -19.71875,-53.53125 -0.61869,-2.0461 -1.19503,-4.09248 -1.78125,-6.125 -5.24196,-18.16401 -9.44965,-36.29288 -12.15625,-54.25005 -2.52898,-16.79946 -3.83488,-33.45968 -2.71875,-49.375 0.85451,-11.98033 2.85475,-23.74103 8.53125,-33.1875 2.12035,-3.52639 4.78953,-6.69705 8.28125,-8.90625 C 95.95777,614.96761 106.88293,613.2356 99.54992,610.77764 z m 15.34375,214.375 c 8.95949,0.92343 17.92811,1.52604 26.9375,1.75 2.75483,0.0685 5.54438,0.12122 8.34375,0.125 1.42954,0.002 2.87355,-0.014 4.3125,-0.0313 -9.12224,7.21296 -18.63997,14.26273 -28.46875,21 -3.39531,-6.43566 -6.59843,-12.93065 -9.59375,-19.4375 C 115.90392,827.42664 115.40323,826.2855 114.89367,825.15264 Z"
         style="fill:#000000;stroke:none"
         inkscape:connector-curvature="0" />
      <path
         inkscape:connector-curvature="0"
         style="opacity:0.5;fill:#800080;fill-opacity:1;fill-rule:nonzero;stroke:none"
         d="m 124.48742,850.46514 c 5.22797,9.59169 10.94103,19.0539 17.3125,28.28125 8.32261,12.06981 17.74872,24.02577 29.53125,33.78125 4.41513,3.65664 9.23919,6.98039 14.40625,9.375 0.58914,0.27288 1.18427,0.50593 1.78125,0.75 3.94491,1.6128 8.0258,2.56885 11.90625,2.59375 1.66021,-0.0133 3.15337,-0.1181 4.46875,-0.3125 -15.16442,5.65525 -31.076,8.8662 -46.8125,9.71875 -2.70855,0.14674 -5.3976,0.21236 -8.09375,0.21875 -23.69107,0.0546 -46.77668,-4.65979 -67.718748,-13.6875 -18.847848,-8.12255 -35.960288,-19.67797 -50.5,-33.9375 2.327623,0.70415 5.052063,1.07468 8.15625,1.0625 3.051281,-0.0134 6.442097,-0.3921 10.0625,-1.09375 1.883391,-0.365 3.819923,-0.80884 5.8125,-1.34375 6.082245,-1.63379 12.555299,-4.01359 19.09375,-6.84375 15.15498,-6.56313 30.489748,-15.38516 44.968748,-24.8125 C 120.75361,852.9843 122.61984,851.71911 124.48742,850.46514 Z"
         id="path5649" />
    </g>
  </g>
</svg>
